<svg width="100%" viewBox="0 0 80 5" fill="none" xmlns="http://www.w3.org/2000/svg">
<g clip-path="url(#clip0_1974_17529)">
<path fill-rule="evenodd" clip-rule="evenodd" d="M80 -12L0 -12L0 216.754C0 217.62 1.02563 218.076 1.66911 217.497L39.3308 183.589C39.7111 183.246 40.2886 183.246 40.669 183.589L78.3309 217.497C78.9744 218.077 80 217.62 80 216.754L80 -12Z" fill="#DD6013"/>
<path fill-rule="evenodd" clip-rule="evenodd" d="M77 -7.82178L4 -7.82178L4 205.86C4 206.718 5.00936 207.177 5.6565 206.614L39.3241 177.313C39.7088 176.978 40.2836 176.986 40.6585 177.332L75.3221 209.294C75.9628 209.885 77 209.43 77 208.559L77 -7.82178Z" stroke="black" stroke-opacity="0.18" stroke-linecap="round" stroke-dasharray="0.5 3"/>
</g>
<defs>
<clipPath id="clip0_1974_17529">
<rect width="80" height="5" fill="white"/>
</clipPath>
</defs>
</svg>
