<svg width="48" height="48" viewBox="0 0 48 48" fill="none" xmlns="http://www.w3.org/2000/svg">
    <path d="M24 44C12.954 44 4 35.046 4 24C4 12.954 12.954 4 24 4C35.046 4 44 12.954 44 24C44 35.046 35.046 44 24 44ZM24 21.172L19.7587 16.9292C18.9774 16.1477 17.7104 16.1476 16.929 16.929C16.1476 17.7104 16.1477 18.9774 16.9292 19.7587L21.172 24L16.9292 28.2413C16.1477 29.0226 16.1476 30.2896 16.929 31.071C17.7104 31.8524 18.9774 31.8523 19.7587 31.0708L24 26.828L28.2413 31.0708C29.0226 31.8523 30.2896 31.8524 31.071 31.071C31.8524 30.2896 31.8523 29.0226 31.0708 28.2413L26.828 24L31.0708 19.7587C31.8523 18.9774 31.8524 17.7104 31.071 16.929C30.2896 16.1476 29.0226 16.1477 28.2413 16.9292L24 21.172Z" fill="#3D3D3D"/>
</svg>
