<svg width="672" height="672" viewBox="0 0 672 672" fill="none" xmlns="http://www.w3.org/2000/svg">
<path fill-rule="evenodd" clip-rule="evenodd" d="M335.949 19H336.05C337.155 19.0002 338.05 19.8957 338.05 21.0003C338.05 22.1049 337.154 23.0002 336.05 23H335.95C334.846 23.0002 333.95 22.1049 333.95 21.0003C333.95 19.8957 334.845 19.0002 335.949 19ZM359.993 21.8938C360.083 20.7929 361.048 19.9733 362.149 20.0632L362.249 20.0714C363.35 20.1616 364.169 21.1272 364.079 22.2281C363.989 23.329 363.023 24.1482 361.922 24.058L361.824 24.0499C360.723 23.96 359.903 22.9947 359.993 21.8938ZM312.007 21.8938C312.097 22.9947 311.277 23.96 310.176 24.0499L310.078 24.058C308.977 24.1482 308.011 23.329 307.921 22.2281C307.831 21.1272 308.65 20.1616 309.751 20.0714L309.851 20.0632C310.952 19.9733 311.917 20.7929 312.007 21.8938ZM385.849 24.9157C386.029 23.826 387.059 23.0888 388.148 23.2692L388.248 23.2856C389.337 23.4663 390.074 24.4962 389.894 25.5859C389.713 26.6756 388.683 27.4124 387.593 27.2317L387.495 27.2155C386.406 27.0351 385.668 26.0055 385.849 24.9157ZM286.151 24.9157C286.331 26.0055 285.594 27.0351 284.505 27.2155L284.407 27.2317C283.317 27.4124 282.287 26.6756 282.106 25.5859C281.926 24.4962 282.662 23.4663 283.752 23.2856L283.851 23.2692C284.941 23.0888 285.971 23.826 286.151 24.9157ZM411.366 30.0664C411.636 28.9954 412.723 28.3462 413.794 28.6164L413.891 28.6409C414.962 28.9115 415.611 29.999 415.341 31.0699C415.07 32.1408 413.983 32.7896 412.912 32.5191L412.816 32.4949C411.745 32.2247 411.096 31.1374 411.366 30.0664ZM260.634 30.0664C260.904 31.1374 260.255 32.2247 259.184 32.4949L259.088 32.5191C258.017 32.7897 256.93 32.1409 256.659 31.0699C256.389 29.999 257.038 28.9115 258.108 28.641L258.206 28.6164C259.277 28.3462 260.364 28.9954 260.634 30.0664ZM436.378 37.3243C436.737 36.2795 437.874 35.7231 438.919 36.0816L439.014 36.1142C440.059 36.473 440.615 37.6107 440.256 38.6554C439.897 39.7 438.759 40.2561 437.715 39.8973L437.621 39.8651C436.576 39.5067 436.02 38.3691 436.378 37.3243ZM235.622 37.3244C235.98 38.3692 235.424 39.5067 234.379 39.8651L234.285 39.8973C233.241 40.2561 232.103 39.7001 231.744 38.6554C231.385 37.6107 231.941 36.473 232.986 36.1142L233.081 36.0816C234.126 35.7232 235.263 36.2796 235.622 37.3244ZM460.691 46.6355C461.135 45.6241 462.315 45.1642 463.326 45.6083L463.419 45.6487C464.43 46.0931 464.889 47.2732 464.445 48.2844C464 49.2956 462.82 49.7551 461.809 49.3107L461.718 49.2708C460.707 48.8267 460.247 47.6468 460.691 46.6355ZM211.309 46.6355C211.753 47.6469 211.293 48.8268 210.282 49.2709L210.191 49.3108C209.179 49.7552 207.999 49.2957 207.555 48.2844C207.111 47.2732 207.57 46.0932 208.581 45.6488L208.673 45.6084C209.685 45.1643 210.865 45.6242 211.309 46.6355ZM484.145 57.9332C484.672 56.9621 485.886 56.6016 486.857 57.128L486.945 57.1759C487.916 57.7026 488.276 58.9166 487.749 59.8875C487.222 60.8584 486.008 61.2185 485.038 60.6918L484.95 60.6446C483.979 60.1182 483.619 58.9042 484.145 57.9332ZM187.855 57.9332C188.381 58.9043 188.021 60.1182 187.049 60.6446L186.962 60.6918C185.992 61.2185 184.777 60.8585 184.251 59.8876C183.724 58.9167 184.084 57.7026 185.055 57.1759L185.143 57.1281C186.114 56.6017 187.328 56.9622 187.855 57.9332ZM506.591 71.1382C507.195 70.214 508.435 69.9551 509.359 70.5599L509.443 70.6149C510.367 71.2201 510.626 72.4597 510.021 73.3838C509.416 74.3078 508.176 74.5663 507.252 73.9612L507.169 73.9069C506.245 73.3021 505.986 72.0625 506.591 71.1382ZM165.409 71.1383C166.014 72.0625 165.755 73.3021 164.831 73.907L164.748 73.9612C163.824 74.5664 162.584 74.3078 161.979 73.3838C161.374 72.4597 161.633 71.2201 162.557 70.6149L162.641 70.56C163.565 69.9551 164.804 70.214 165.409 71.1383ZM527.867 86.1479C528.546 85.2766 529.802 85.1206 530.674 85.7995L530.753 85.8612C531.624 86.5404 531.779 87.7971 531.1 88.6682C530.421 89.5393 529.164 89.6949 528.293 89.0157L528.215 88.9547C527.344 88.2758 527.188 87.0191 527.867 86.1479ZM144.133 86.1479C144.812 87.0192 144.656 88.2759 143.785 88.9548L143.707 89.0157C142.836 89.6949 141.579 89.5393 140.9 88.6682C140.221 87.7971 140.376 86.5404 141.247 85.8612L141.326 85.7995C142.198 85.1206 143.454 85.2766 144.133 86.1479ZM124.164 102.856C124.912 103.669 124.86 104.934 124.048 105.682L123.975 105.749C123.162 106.498 121.897 106.446 121.149 105.634C120.4 104.821 120.452 103.556 121.264 102.808L121.338 102.74C122.151 101.991 123.416 102.044 124.164 102.856ZM547.836 102.856C548.584 102.044 549.849 101.991 550.662 102.74L550.736 102.808C551.548 103.556 551.6 104.821 550.851 105.634C550.103 106.446 548.838 106.498 548.025 105.749L547.952 105.682C547.14 104.934 547.088 103.669 547.836 102.856ZM105.634 121.149C106.446 121.897 106.498 123.162 105.749 123.975L105.682 124.048C104.934 124.86 103.669 124.912 102.856 124.164C102.044 123.416 101.991 122.151 102.74 121.338L102.808 121.264C103.556 120.452 104.821 120.4 105.634 121.149ZM566.366 121.149C567.179 120.4 568.444 120.452 569.192 121.264L569.26 121.338C570.009 122.151 569.956 123.416 569.144 124.164C568.331 124.912 567.066 124.86 566.318 124.048L566.251 123.975C565.502 123.162 565.554 121.897 566.366 121.149ZM583.332 140.9C584.203 140.221 585.46 140.376 586.139 141.247L586.201 141.326C586.879 142.198 586.723 143.454 585.852 144.133C584.981 144.812 583.724 144.656 583.045 143.785L582.984 143.707C582.305 142.836 582.461 141.579 583.332 140.9ZM88.6682 140.9C89.5393 141.579 89.6949 142.836 89.0157 143.707L88.9547 143.785C88.2758 144.656 87.0191 144.812 86.1479 144.133C85.2766 143.454 85.1206 142.198 85.7995 141.326L85.8612 141.247C86.5404 140.376 87.7971 140.221 88.6682 140.9ZM598.616 161.979C599.54 161.374 600.78 161.633 601.385 162.557L601.44 162.641C602.045 163.565 601.786 164.804 600.862 165.409C599.938 166.014 598.698 165.755 598.093 164.831L598.039 164.748C597.434 163.824 597.692 162.584 598.616 161.979ZM73.3838 161.979C74.3078 162.584 74.5663 163.824 73.9612 164.748L73.9069 164.831C73.3021 165.755 72.0625 166.014 71.1382 165.409C70.214 164.805 69.9551 163.565 70.5599 162.641L70.6149 162.557C71.2201 161.633 72.4597 161.374 73.3838 161.979ZM612.112 184.251C613.083 183.724 614.297 184.084 614.824 185.055L614.872 185.143C615.398 186.114 615.038 187.328 614.067 187.855C613.096 188.381 611.882 188.021 611.355 187.049L611.308 186.962C610.781 185.992 611.142 184.777 612.112 184.251ZM59.8875 184.251C60.8584 184.778 61.2185 185.992 60.6918 186.962L60.6446 187.05C60.1182 188.021 58.9042 188.381 57.9332 187.855C56.9621 187.328 56.6016 186.114 57.128 185.143L57.1759 185.055C57.7026 184.084 58.9166 183.724 59.8875 184.251ZM623.716 207.555C624.727 207.111 625.907 207.57 626.351 208.581L626.392 208.673C626.836 209.685 626.376 210.865 625.364 211.309C624.353 211.753 623.173 211.293 622.729 210.282L622.689 210.191C622.245 209.179 622.704 207.999 623.716 207.555ZM48.2844 207.555C49.2956 208 49.7551 209.18 49.3107 210.191L49.2708 210.282C48.8267 211.293 47.6468 211.753 46.6355 211.309C45.6241 210.865 45.1642 209.685 45.6083 208.674L45.6487 208.581C46.0931 207.57 47.2732 207.111 48.2844 207.555ZM633.345 231.744C634.389 231.385 635.527 231.941 635.886 232.986L635.918 233.081C636.277 234.126 635.72 235.263 634.676 235.622C633.631 235.98 632.493 235.424 632.135 234.379L632.103 234.285C631.744 233.241 632.3 232.103 633.345 231.744ZM38.6554 231.744C39.7 232.103 40.2561 233.241 39.8973 234.285L39.8651 234.379C39.5067 235.424 38.3691 235.98 37.3243 235.622C36.2795 235.263 35.7231 234.126 36.0816 233.081L36.1142 232.986C36.473 231.941 37.6107 231.385 38.6554 231.744ZM640.93 256.659C642.001 256.389 643.089 257.038 643.359 258.108L643.384 258.206C643.654 259.277 643.005 260.364 641.934 260.634C640.863 260.904 639.775 260.255 639.505 259.184L639.481 259.088C639.21 258.017 639.859 256.93 640.93 256.659ZM31.0699 256.659C32.1408 256.93 32.7896 258.017 32.5191 259.088L32.4949 259.184C32.2247 260.255 31.1374 260.904 30.0664 260.634C28.9954 260.364 28.3462 259.277 28.6164 258.206L28.6409 258.109C28.9115 257.038 29.999 256.389 31.0699 256.659ZM646.414 282.106C647.504 281.926 648.534 282.662 648.714 283.752L648.731 283.851C648.911 284.941 648.174 285.971 647.084 286.151C645.995 286.331 644.965 285.594 644.784 284.505L644.768 284.407C644.588 283.317 645.324 282.287 646.414 282.106ZM25.5859 282.106C26.6756 282.287 27.4124 283.317 27.2317 284.407L27.2155 284.505C27.0351 285.594 26.0055 286.332 24.9157 286.151C23.826 285.971 23.0888 284.941 23.2692 283.852L23.2856 283.752C23.4663 282.663 24.4962 281.926 25.5859 282.106ZM649.772 307.921C650.873 307.831 651.838 308.65 651.929 309.751L651.937 309.851C652.027 310.952 651.207 311.917 650.106 312.007C649.005 312.097 648.04 311.277 647.95 310.176L647.942 310.078C647.852 308.977 648.671 308.011 649.772 307.921ZM22.2281 307.921C23.329 308.011 24.1482 308.977 24.058 310.078L24.0499 310.176C23.96 311.277 22.9947 312.097 21.8938 312.007C20.7929 311.917 19.9733 310.952 20.0632 309.851L20.0714 309.751C20.1616 308.65 21.1272 307.831 22.2281 307.921ZM651 333.95C652.104 333.95 653 334.845 653 335.949V336.05C653 337.155 652.104 338.05 651 338.05C649.895 338.05 649 337.154 649 336.05V335.95C649 334.846 649.895 333.95 651 333.95ZM21.0003 333.95C22.1049 333.95 23.0002 334.846 23 335.95V336.05C23.0002 337.154 22.1049 338.05 21.0003 338.05C19.8957 338.05 19.0002 337.155 19 336.051V335.95C19.0002 334.845 19.8957 333.95 21.0003 333.95ZM650.106 359.993C651.207 360.083 652.027 361.048 651.937 362.149L651.929 362.249C651.838 363.35 650.873 364.169 649.772 364.079C648.671 363.989 647.852 363.023 647.942 361.922L647.95 361.824C648.04 360.723 649.005 359.903 650.106 359.993ZM21.8938 359.993C22.9947 359.903 23.96 360.723 24.0499 361.824L24.058 361.922C24.1482 363.023 23.329 363.989 22.2281 364.079C21.1272 364.169 20.1616 363.35 20.0714 362.249L20.0632 362.149C19.9733 361.048 20.7929 360.083 21.8938 359.993ZM647.084 385.849C648.174 386.029 648.911 387.059 648.731 388.148L648.714 388.248C648.534 389.337 647.504 390.074 646.414 389.894C645.324 389.713 644.588 388.683 644.768 387.593L644.785 387.495C644.965 386.406 645.995 385.668 647.084 385.849ZM24.9157 385.849C26.0055 385.669 27.0351 386.406 27.2155 387.495L27.2317 387.593C27.4124 388.683 26.6756 389.713 25.5859 389.894C24.4962 390.074 23.4663 389.338 23.2856 388.248L23.2692 388.149C23.0888 387.059 23.826 386.029 24.9157 385.849ZM641.934 411.366C643.005 411.636 643.654 412.723 643.384 413.794L643.359 413.891C643.089 414.962 642.001 415.611 640.93 415.341C639.859 415.07 639.21 413.983 639.481 412.912L639.505 412.816C639.775 411.745 640.863 411.096 641.934 411.366ZM30.0664 411.366C31.1374 411.096 32.2247 411.745 32.4949 412.816L32.5191 412.912C32.7897 413.983 32.1409 415.07 31.0699 415.341C29.999 415.611 28.9115 414.962 28.641 413.892L28.6164 413.794C28.3462 412.723 28.9954 411.636 30.0664 411.366ZM634.676 436.378C635.72 436.737 636.277 437.874 635.918 438.919L635.886 439.014C635.527 440.059 634.389 440.615 633.345 440.256C632.3 439.897 631.744 438.759 632.103 437.715L632.135 437.621C632.493 436.576 633.631 436.02 634.676 436.378ZM37.3244 436.378C38.3692 436.02 39.5067 436.576 39.8651 437.621L39.8973 437.715C40.2561 438.759 39.7001 439.897 38.6554 440.256C37.6107 440.615 36.473 440.059 36.1142 439.014L36.0816 438.919C35.7232 437.874 36.2796 436.737 37.3244 436.378ZM625.365 460.691C626.376 461.135 626.836 462.315 626.392 463.326L626.351 463.419C625.907 464.43 624.727 464.889 623.716 464.445C622.704 464 622.245 462.82 622.689 461.809L622.729 461.718C623.173 460.707 624.353 460.247 625.365 460.691ZM46.6355 460.691C47.6469 460.247 48.8268 460.707 49.2709 461.718L49.3108 461.809C49.7552 462.821 49.2957 464.001 48.2844 464.445C47.2732 464.889 46.0932 464.43 45.6488 463.419L45.6084 463.327C45.1643 462.315 45.6242 461.135 46.6355 460.691ZM614.067 484.145C615.038 484.672 615.398 485.886 614.872 486.857L614.824 486.945C614.297 487.916 613.083 488.276 612.112 487.749C611.142 487.222 610.781 486.008 611.308 485.038L611.355 484.95C611.882 483.979 613.096 483.619 614.067 484.145ZM57.9332 484.145C58.9043 483.619 60.1182 483.979 60.6446 484.951L60.6918 485.038C61.2185 486.008 60.8585 487.223 59.8876 487.749C58.9167 488.276 57.7026 487.916 57.1759 486.945L57.1281 486.857C56.6017 485.886 56.9622 484.672 57.9332 484.145ZM600.862 506.591C601.786 507.195 602.045 508.435 601.44 509.359L601.385 509.443C600.78 510.367 599.54 510.626 598.616 510.021C597.692 509.416 597.434 508.176 598.039 507.252L598.093 507.169C598.698 506.245 599.938 505.986 600.862 506.591ZM71.1383 506.591C72.0625 505.986 73.3021 506.245 73.907 507.169L73.9612 507.252C74.5664 508.176 74.3078 509.416 73.3838 510.021C72.4597 510.626 71.2201 510.367 70.6149 509.443L70.56 509.359C69.9551 508.435 70.214 507.196 71.1383 506.591ZM585.852 527.867C586.723 528.546 586.879 529.802 586.201 530.674L586.139 530.753C585.46 531.624 584.203 531.779 583.332 531.1C582.461 530.421 582.305 529.164 582.984 528.293L583.045 528.215C583.724 527.344 584.981 527.188 585.852 527.867ZM86.1479 527.867C87.0192 527.188 88.2759 527.344 88.9548 528.215L89.0157 528.293C89.6949 529.164 89.5393 530.421 88.6682 531.1C87.7971 531.779 86.5404 531.624 85.8612 530.753L85.7995 530.674C85.1206 529.802 85.2766 528.546 86.1479 527.867ZM102.856 547.836C103.669 547.088 104.934 547.14 105.682 547.952L105.749 548.025C106.498 548.838 106.446 550.103 105.634 550.851C104.821 551.6 103.556 551.548 102.808 550.736L102.74 550.662C101.991 549.849 102.044 548.584 102.856 547.836ZM569.144 547.836C569.956 548.584 570.009 549.849 569.26 550.662L569.192 550.736C568.444 551.548 567.179 551.6 566.366 550.851C565.554 550.103 565.502 548.838 566.251 548.025L566.318 547.952C567.066 547.14 568.331 547.088 569.144 547.836ZM121.149 566.366C121.897 565.554 123.162 565.502 123.975 566.251L124.048 566.318C124.86 567.066 124.912 568.331 124.164 569.144C123.416 569.956 122.151 570.009 121.338 569.26L121.264 569.192C120.452 568.444 120.4 567.179 121.149 566.366ZM550.851 566.366C551.6 567.179 551.548 568.444 550.736 569.192L550.662 569.26C549.849 570.009 548.584 569.956 547.836 569.144C547.088 568.331 547.14 567.066 547.952 566.318L548.025 566.251C548.838 565.502 550.103 565.554 550.851 566.366ZM140.9 583.332C141.579 582.461 142.836 582.305 143.707 582.984L143.785 583.045C144.656 583.724 144.812 584.981 144.133 585.852C143.454 586.723 142.198 586.879 141.326 586.201L141.247 586.139C140.376 585.46 140.221 584.203 140.9 583.332ZM531.1 583.332C531.779 584.203 531.624 585.46 530.753 586.139L530.674 586.201C529.802 586.879 528.546 586.723 527.867 585.852C527.188 584.981 527.344 583.724 528.215 583.045L528.293 582.984C529.164 582.305 530.421 582.461 531.1 583.332ZM510.021 598.616C510.626 599.54 510.367 600.78 509.443 601.385L509.359 601.44C508.435 602.045 507.196 601.786 506.591 600.862C505.986 599.938 506.245 598.698 507.169 598.093L507.252 598.039C508.176 597.434 509.416 597.692 510.021 598.616ZM161.979 598.616C162.584 597.692 163.824 597.434 164.748 598.039L164.831 598.093C165.755 598.698 166.014 599.938 165.409 600.862C164.805 601.786 163.565 602.045 162.641 601.44L162.557 601.385C161.633 600.78 161.374 599.54 161.979 598.616ZM487.749 612.112C488.276 613.083 487.916 614.297 486.945 614.824L486.857 614.872C485.886 615.398 484.672 615.038 484.145 614.067C483.619 613.096 483.979 611.882 484.951 611.355L485.038 611.308C486.008 610.781 487.223 611.142 487.749 612.112ZM184.251 612.112C184.778 611.142 185.992 610.781 186.962 611.308L187.05 611.355C188.021 611.882 188.381 613.096 187.855 614.067C187.328 615.038 186.114 615.398 185.143 614.872L185.055 614.824C184.084 614.297 183.724 613.083 184.251 612.112ZM464.445 623.716C464.889 624.727 464.43 625.907 463.419 626.351L463.327 626.392C462.315 626.836 461.135 626.376 460.691 625.364C460.247 624.353 460.707 623.173 461.718 622.729L461.809 622.689C462.821 622.245 464.001 622.704 464.445 623.716ZM207.555 623.716C208 622.704 209.18 622.245 210.191 622.689L210.282 622.729C211.293 623.173 211.753 624.353 211.309 625.365C210.865 626.376 209.685 626.836 208.674 626.392L208.581 626.351C207.57 625.907 207.111 624.727 207.555 623.716ZM440.256 633.345C440.615 634.389 440.059 635.527 439.014 635.886L438.919 635.918C437.874 636.277 436.737 635.72 436.378 634.676C436.02 633.631 436.576 632.493 437.621 632.135L437.715 632.103C438.759 631.744 439.897 632.3 440.256 633.345ZM231.744 633.345C232.103 632.3 233.241 631.744 234.285 632.103L234.379 632.135C235.424 632.493 235.98 633.631 235.622 634.676C235.263 635.72 234.126 636.277 233.081 635.918L232.986 635.886C231.941 635.527 231.385 634.389 231.744 633.345ZM256.659 640.93C256.93 639.859 258.017 639.21 259.088 639.481L259.184 639.505C260.255 639.775 260.904 640.863 260.634 641.934C260.364 643.005 259.277 643.654 258.206 643.384L258.109 643.359C257.038 643.089 256.389 642.001 256.659 640.93ZM415.341 640.93C415.611 642.001 414.962 643.089 413.892 643.359L413.794 643.384C412.723 643.654 411.636 643.005 411.366 641.934C411.096 640.863 411.745 639.775 412.816 639.505L412.912 639.481C413.983 639.21 415.07 639.859 415.341 640.93ZM389.894 646.414C390.074 647.504 389.338 648.534 388.248 648.714L388.149 648.731C387.059 648.911 386.029 648.174 385.849 647.084C385.669 645.995 386.406 644.965 387.495 644.784L387.593 644.768C388.683 644.588 389.713 645.324 389.894 646.414ZM282.106 646.414C282.287 645.324 283.317 644.588 284.407 644.768L284.505 644.785C285.594 644.965 286.332 645.995 286.151 647.084C285.971 648.174 284.941 648.911 283.852 648.731L283.752 648.714C282.663 648.534 281.926 647.504 282.106 646.414ZM307.921 649.772C308.011 648.671 308.977 647.852 310.078 647.942L310.176 647.95C311.277 648.04 312.097 649.005 312.007 650.106C311.917 651.207 310.952 652.027 309.851 651.937L309.751 651.929C308.65 651.838 307.831 650.873 307.921 649.772ZM364.079 649.772C364.169 650.873 363.35 651.838 362.249 651.929L362.149 651.937C361.048 652.027 360.083 651.207 359.993 650.106C359.903 649.005 360.723 648.04 361.824 647.95L361.922 647.942C363.023 647.852 363.989 648.671 364.079 649.772ZM333.95 651C333.95 649.895 334.846 649 335.95 649H336.05C337.154 649 338.05 649.895 338.05 651C338.05 652.104 337.155 653 336.051 653H335.95C334.845 653 333.95 652.104 333.95 651Z" fill="#3D3D3D"/>
<path fill-rule="evenodd" clip-rule="evenodd" d="M336 0C337.105 0 338 0.89543 338 2V21C338 22.1046 337.105 23 336 23C334.895 23 334 22.1046 334 21V2C334 0.89543 334.895 0 336 0ZM0 336C0 334.895 0.89543 334 2 334H21C22.1046 334 23 334.895 23 336C23 337.105 22.1046 338 21 338H2C0.89543 338 0 337.105 0 336ZM649 336C649 334.895 649.895 334 651 334H670C671.105 334 672 334.895 672 336C672 337.105 671.105 338 670 338H651C649.895 338 649 337.105 649 336ZM336 649C337.105 649 338 649.895 338 651V670C338 671.105 337.105 672 336 672C334.895 672 334 671.105 334 670V651C334 649.895 334.895 649 336 649Z" fill="#3D3D3D"/>
</svg>
