<svg width="81" height="80" viewBox="0 0 81 80" fill="none" xmlns="http://www.w3.org/2000/svg">
<path d="M50.5534 33.387L50.5001 33.3337M30.5534 33.387L30.5001 33.3337M27.1667 50.0003C27.1667 50.0003 27.5834 50.8337 28.5667 51.9137C30.3601 53.8803 34.0334 56.667 40.5001 56.667C46.9667 56.667 50.6401 53.8837 52.4334 51.9137C53.4167 50.8337 53.8334 50.0003 53.8334 50.0003M40.5001 73.3337C22.0901 73.3337 7.16675 58.4103 7.16675 40.0003C7.16675 21.5903 22.0901 6.66699 40.5001 6.66699C58.9101 6.66699 73.8334 21.5903 73.8334 40.0003C73.8334 58.4103 58.9101 73.3337 40.5001 73.3337Z" stroke="#789904" stroke-width="4" stroke-linecap="round" stroke-linejoin="round"/>
</svg>
