<svg width="400" height="400" viewBox="0 0 400 400" fill="none" xmlns="http://www.w3.org/2000/svg">
<g clip-path="url(#clip0_449_8842)">
<path d="M200 212.5C206.904 212.5 212.5 206.904 212.5 200C212.5 193.096 206.904 187.5 200 187.5C193.096 187.5 187.5 193.096 187.5 200C187.5 206.904 193.096 212.5 200 212.5Z" fill="#789904"/>
<path d="M131.25 212.5C138.154 212.5 143.75 206.904 143.75 200C143.75 193.096 138.154 187.5 131.25 187.5C124.346 187.5 118.75 193.096 118.75 200C118.75 206.904 124.346 212.5 131.25 212.5Z" fill="#789904"/>
<path d="M268.75 212.5C275.654 212.5 281.25 206.904 281.25 200C281.25 193.096 275.654 187.5 268.75 187.5C261.846 187.5 256.25 193.096 256.25 200C256.25 206.904 261.846 212.5 268.75 212.5Z" fill="#789904"/>
<path d="M124.891 329.859C156.399 348.095 193.464 354.25 229.175 347.176C264.886 340.102 296.806 320.282 318.983 291.412C341.16 262.542 352.081 226.591 349.71 190.264C347.338 153.936 331.836 119.711 306.094 93.9688C280.352 68.2267 246.127 52.7248 209.799 50.3534C173.472 47.982 137.521 58.9029 108.651 81.0801C79.7809 103.257 59.9612 135.177 52.8872 170.888C45.8132 206.599 51.9678 243.664 70.2035 275.172L50.6567 333.531C49.9222 335.734 49.8156 338.097 50.3488 340.357C50.8821 342.617 52.0341 344.683 53.6758 346.325C55.3175 347.966 57.384 349.118 59.6436 349.652C61.9032 350.185 64.2667 350.078 66.4692 349.344L124.891 329.859Z" stroke="#3D3D3D" stroke-width="12" stroke-linecap="round" stroke-linejoin="round"/>
</g>
<defs>
<clipPath id="clip0_449_8842">
<rect width="400" height="400" fill="white"/>
</clipPath>
</defs>
</svg>
