<svg width="400" height="400" viewBox="0 0 400 400" fill="none" xmlns="http://www.w3.org/2000/svg">
<g clip-path="url(#clip0_1_596)">
<path d="M197.5 263C232.018 263 260 235.018 260 200.5C260 165.982 232.018 138 197.5 138C162.982 138 135 165.982 135 200.5C135 235.018 162.982 263 197.5 263Z" stroke="#3D3D3D" stroke-width="12" stroke-linecap="round" stroke-linejoin="round"/>
<path d="M287.5 325C263.734 340.797 230.672 350 200 350C170.333 350 141.332 341.203 116.665 324.72C91.9972 308.238 72.7713 284.811 61.4181 257.403C50.065 229.994 47.0945 199.834 52.8823 170.736C58.6701 141.639 72.9562 114.912 93.9341 93.934C114.912 72.9561 141.639 58.67 170.737 52.8822C199.834 47.0944 229.994 50.0649 257.403 61.4181C284.812 72.7712 308.238 91.9971 324.721 116.664C341.203 141.332 350 170.333 350 200C350 234.516 337.5 262.5 306.25 262.5C275 262.5 262.5 234.516 262.5 200V137.5" stroke="#3D3D3D" stroke-width="12" stroke-linecap="round" stroke-linejoin="round"/>
<path d="M200 212.5C206.904 212.5 212.5 206.904 212.5 200C212.5 193.096 206.904 187.5 200 187.5C193.096 187.5 187.5 193.096 187.5 200C187.5 206.904 193.096 212.5 200 212.5Z" fill="#789904"/>
</g>
<defs>
<clipPath id="clip0_1_596">
<rect width="400" height="400" fill="white"/>
</clipPath>
</defs>
</svg>
