<svg width="400" height="400" viewBox="0 0 400 400" fill="none" xmlns="http://www.w3.org/2000/svg">
<g clip-path="url(#clip0_449_8843)">
<path d="M250 62.5C271.024 68.0363 290.201 79.0534 305.574 94.4261C320.947 109.799 331.964 128.976 337.5 150" stroke="#789904" stroke-width="12" stroke-linecap="round" stroke-linejoin="round"/>
<path d="M237.5 112.5C263.313 119.406 280.594 136.687 287.5 162.5" stroke="#789904" stroke-width="12" stroke-linecap="round" stroke-linejoin="round"/>
<path d="M256.859 227.094C258.591 225.942 260.582 225.24 262.652 225.052C264.723 224.863 266.808 225.195 268.719 226.016L342.406 259.031C344.89 260.093 346.962 261.93 348.314 264.268C349.666 266.605 350.225 269.318 349.906 272C347.479 290.141 338.545 306.784 324.767 318.832C310.988 330.88 293.303 337.514 275 337.5C218.642 337.5 164.591 315.112 124.74 275.26C84.8884 235.409 62.5 181.359 62.5 125C62.486 106.697 69.12 89.0117 81.1682 75.2333C93.2163 61.455 109.859 52.5213 128 50.0938C130.682 49.7752 133.395 50.3337 135.732 51.6857C138.07 53.0377 139.907 55.1105 140.969 57.5938L173.984 131.344C174.796 133.238 175.126 135.303 174.946 137.356C174.766 139.409 174.081 141.385 172.953 143.109L139.563 182.813C138.378 184.6 137.678 186.664 137.53 188.803C137.382 190.942 137.792 193.082 138.719 195.016C151.641 221.469 178.984 248.484 205.516 261.281C207.459 262.204 209.61 262.605 211.755 262.443C213.901 262.282 215.967 261.563 217.75 260.359L256.859 227.094Z" stroke="#3D3D3D" stroke-width="12" stroke-linecap="round" stroke-linejoin="round"/>
</g>
<defs>
<clipPath id="clip0_449_8843">
<rect width="400" height="400" fill="white"/>
</clipPath>
</defs>
</svg>
