<svg width="400" height="400" viewBox="0 0 400 400" fill="none" xmlns="http://www.w3.org/2000/svg">
<g clip-path="url(#clip0_1_626)">
<path d="M137.5 210.734L278.532 334.375C280.156 335.808 282.125 336.795 284.246 337.238C286.367 337.68 288.566 337.565 290.629 336.901C292.691 336.238 294.546 335.05 296.01 333.454C297.475 331.858 298.5 329.908 298.985 327.797L362.5 51.9063C362.562 51.6296 362.548 51.3413 362.459 51.0723C362.369 50.8032 362.209 50.5635 361.993 50.3789C361.778 50.1942 361.517 50.0716 361.237 50.0241C360.958 49.9767 360.671 50.0061 360.407 50.1094L43.7505 174.031C41.7847 174.788 40.1174 176.162 38.9988 177.946C37.8802 179.731 37.3707 181.831 37.5468 183.93C37.7229 186.029 38.575 188.014 39.9754 189.587C41.3757 191.161 43.2486 192.238 45.313 192.656L137.5 210.734Z" stroke="#3D3D3D" stroke-width="12" stroke-linecap="round" stroke-linejoin="round"/>
<path d="M137.5 210.734L361.578 50.1406" stroke="#3D3D3D" stroke-width="12" stroke-linecap="round" stroke-linejoin="round"/>
<path d="M206.828 271.531L159 321.156C157.272 322.949 155.047 324.185 152.612 324.706C150.177 325.226 147.642 325.007 145.331 324.077C143.021 323.147 141.042 321.548 139.646 319.485C138.251 317.423 137.504 314.99 137.5 312.5V210.734" stroke="#3D3D3D" stroke-width="12" stroke-linecap="round" stroke-linejoin="round"/>
<path d="M242.347 261.64L271.5 287.5" stroke="#789904" stroke-width="12" stroke-linecap="round"/>
</g>
<defs>
<clipPath id="clip0_1_626">
<rect width="400" height="400" fill="white"/>
</clipPath>
</defs>
</svg>
