<svg width="400" height="400" viewBox="0 0 400 400" fill="none" xmlns="http://www.w3.org/2000/svg">
<path d="M200 246.875C171.523 246.875 148.438 223.789 148.438 195.312V181.25C148.438 152.773 171.523 129.688 200 129.688C228.477 129.688 251.562 152.773 251.562 181.25V195.312C251.562 223.789 228.477 246.875 200 246.875Z" stroke="#789904" stroke-width="12" stroke-miterlimit="10" stroke-linecap="square"/>
<path d="M118.105 314.333C129.561 291.036 153.537 275 181.25 275H218.75C246.434 275 270.425 291.078 281.895 314.333" stroke="#3D3D3D" stroke-width="12" stroke-miterlimit="10"/>
<path d="M200 340.625C277.665 340.625 340.625 277.665 340.625 200C340.625 122.335 277.665 59.375 200 59.375C122.335 59.375 59.375 122.335 59.375 200C59.375 277.665 122.335 340.625 200 340.625Z" stroke="#3D3D3D" stroke-width="12" stroke-miterlimit="10" stroke-linecap="square"/>
</svg>
