<svg width="160" height="160" viewBox="0 0 160 160" fill="none" xmlns="http://www.w3.org/2000/svg">
<path d="M88.2764 16.9516C87.5911 17.2905 86.7778 17.411 85.8364 17.3206C84.2851 17.17 83.0651 16.5148 82.1764 15.34C81.2501 14.1577 80.8736 12.6364 81.0543 10.7612C81.2351 8.86346 81.9053 7.39494 83.0575 6.34815C84.2098 5.30136 85.6482 4.86457 87.3577 5.03025C88.8488 5.17333 90.0085 5.66284 90.8369 6.5063C91.6653 7.34976 92.0946 8.3363 92.1172 9.48099L89.7073 9.24754C89.6019 8.42667 89.2027 7.8242 88.5099 7.44013C88.1258 7.22926 87.6815 7.09371 87.192 7.04852C86.2506 6.95815 85.4448 7.23679 84.7671 7.89198C84.0893 8.54717 83.6901 9.58643 83.5471 11.0173C83.4115 12.4557 83.6374 13.51 84.2399 14.1727C84.8424 14.8354 85.5578 15.2045 86.3937 15.2873C87.2146 15.3626 87.9074 15.1969 88.4798 14.7677C89.0521 14.3459 89.4287 13.751 89.6245 12.9979L86.9133 12.7419L87.1016 10.7914L91.9741 11.2583L91.3716 17.539L89.7525 17.3809L89.6471 15.8973C89.1199 16.4094 88.6605 16.7634 88.2614 16.9516H88.2764Z" fill="#DBCAB6"/>
<path d="M102.457 15.2421L96.9595 13.6908L96.1387 16.6052L102.404 18.375L101.832 20.4083L93.2543 17.9909L96.4474 6.67198L104.746 9.01408L104.182 11.0173L98.1946 9.33038L97.5168 11.7327L103.014 13.2841L102.457 15.2496V15.2421Z" fill="#DBCAB6"/>
<path d="M115.9 13.9242L115.026 15.8145L111.833 14.3309L107.759 23.1119L105.515 22.0726L109.589 13.2916L106.381 11.808L107.254 9.91778L115.9 13.9242Z" fill="#DBCAB6"/>
<path d="M122.12 17.8857L124.116 19.294L117.353 28.9185L115.357 27.5102L122.12 17.8857Z" fill="#DBCAB6"/>
<path d="M126.051 36.3515L124.229 34.7022L126.277 25.2886L120.667 31.479L118.972 29.9427L126.872 21.2295L128.785 22.9616L126.744 32.1945L132.257 26.1095L133.951 27.6458L126.051 36.359V36.3515Z" fill="#DBCAB6"/>
<path d="M144.562 41.4797L142.845 42.662L140.849 39.7626L132.874 45.2451L131.474 43.2043L139.449 37.7218L137.446 34.8073L139.163 33.625L144.555 41.4797H144.562Z" fill="#DBCAB6"/>
<path d="M137.129 53.5897C136.421 52.0684 136.293 50.7054 136.753 49.5155C137.272 47.9641 138.485 46.7441 140.405 45.8555C142.363 44.9518 144.08 44.8087 145.556 45.4337C146.761 45.8555 147.718 46.827 148.426 48.3557C149.134 49.877 149.262 51.24 148.802 52.4299C148.32 53.9587 147.108 55.1787 145.15 56.0824C143.237 56.971 141.52 57.1141 139.999 56.5117C138.794 56.0899 137.837 55.1184 137.129 53.5897ZM140.97 54.3654C141.859 54.5762 142.906 54.4105 144.11 53.8533C145.308 53.296 146.114 52.6107 146.528 51.7898C146.942 50.9689 146.942 50.1179 146.528 49.2293C146.121 48.3482 145.466 47.7909 144.57 47.565C143.674 47.3391 142.627 47.5047 141.422 48.062C140.217 48.6193 139.419 49.3121 139.005 50.1405C138.598 50.9689 138.598 51.8275 139.005 52.7086C139.411 53.5897 140.066 54.1394 140.955 54.3654H140.97Z" fill="#DBCAB6"/>
<path d="M146.257 65.5255L153.268 63.7558L153.878 66.1807L146.867 67.9505C145.654 68.2592 144.66 68.3044 143.892 68.1011C142.476 67.7095 141.52 66.5271 141.023 64.554C140.526 62.5809 140.804 61.0823 141.866 60.0656C142.446 59.5159 143.342 59.0941 144.555 58.7854L151.566 57.0156L152.176 59.4406L145.165 61.2103C144.382 61.4061 143.832 61.6471 143.516 61.9258C142.951 62.3776 142.785 63.0855 143.034 64.057C143.275 65.0209 143.757 65.5707 144.464 65.6987C144.871 65.7966 145.466 65.7439 146.249 65.5406L146.257 65.5255Z" fill="#DBCAB6"/>
<path d="M144.193 79.1119C143.335 78.291 142.853 77.199 142.762 75.8359C142.649 74.149 143.101 72.7859 144.11 71.7467C145.135 70.7074 146.588 70.12 148.486 69.992C150.534 69.8489 152.153 70.2932 153.336 71.3174C154.367 72.206 154.932 73.3884 155.03 74.8644C155.166 76.8375 154.616 78.3287 153.381 79.3303C152.688 79.8875 151.98 80.2038 151.25 80.2942L151.084 77.8391C151.634 77.6433 152.048 77.4099 152.319 77.1388C152.801 76.6568 153.004 75.979 152.944 75.1054C152.884 74.2168 152.477 73.539 151.724 73.0721C150.971 72.6052 149.932 72.4169 148.621 72.5073C147.311 72.5977 146.339 72.9365 145.722 73.5239C145.104 74.1114 144.826 74.8268 144.878 75.6627C144.939 76.5212 145.263 77.1614 145.857 77.568C146.174 77.794 146.648 77.9747 147.258 78.0952L147.424 80.5201C146.129 80.3921 145.052 79.9252 144.193 79.1119Z" fill="#DBCAB6"/>
<path d="M142.589 89.1577L147.808 89.7225L148.305 85.1512L143.086 84.5864L143.35 82.169L155.045 83.4417L154.782 85.8591L150.323 85.3772L149.826 89.9484L154.285 90.4304L154.021 92.8553L142.326 91.5826L142.589 89.1577Z" fill="#DBCAB6"/>
<path d="M147.657 112.624L146.716 114.936L137.054 107.45L137.935 105.274L144.841 106.539L147.1 107.006L145.15 105.771L139.306 101.87L140.164 99.7539L152.319 101.079L151.34 103.497L144.517 102.412L142.657 102.021L144.231 103.03L150.015 106.803L149.043 109.205L142.273 107.97L140.398 107.601L141.934 108.61L147.65 112.624H147.657Z" fill="#DBCAB6"/>
<path d="M145.112 117.112L143.862 119.213L133.755 113.204L135.006 111.103L145.112 117.112Z" fill="#DBCAB6"/>
<path d="M137.009 128.815L135.344 127.557L137.461 124.748L129.734 118.919L131.225 116.946L138.952 122.775L141.083 119.951L142.747 121.209L137.009 128.815Z" fill="#DBCAB6"/>
<path d="M121.872 127.302L125.486 131.105L128.815 127.935L125.2 124.132L126.962 122.452L135.066 130.977L133.303 132.656L130.216 129.411L126.887 132.581L129.975 135.827L128.205 137.506L120.102 128.981L121.872 127.302Z" fill="#DBCAB6"/>
<path d="M111.261 140.037L114.815 146.332L112.639 147.56L109.084 141.264C108.467 140.172 108.158 139.231 108.158 138.433C108.158 136.964 109.047 135.729 110.824 134.727C112.601 133.726 114.115 133.605 115.38 134.358C116.058 134.773 116.706 135.526 117.323 136.618L120.878 142.913L118.701 144.141L115.147 137.845C114.747 137.137 114.378 136.67 114.025 136.444C113.437 136.015 112.714 136.045 111.841 136.542C110.975 137.032 110.575 137.634 110.636 138.357C110.651 138.779 110.862 139.336 111.253 140.044L111.261 140.037Z" fill="#DBCAB6"/>
<path d="M101.689 141.068C101.139 141.264 100.717 141.482 100.424 141.723C99.8589 142.183 99.6857 142.725 99.9116 143.35C100.04 143.719 100.303 143.945 100.695 144.028C101.086 144.11 101.651 144.103 102.389 144.013L103.654 143.862C104.897 143.711 105.801 143.711 106.351 143.862C107.277 144.11 107.94 144.773 108.324 145.865C108.678 146.859 108.61 147.808 108.12 148.727C107.631 149.638 106.689 150.346 105.289 150.843C104.121 151.257 103.014 151.302 101.968 150.979C100.921 150.655 100.175 149.909 99.7158 148.742L101.945 147.951C102.224 148.606 102.683 148.975 103.323 149.066C103.752 149.126 104.234 149.058 104.769 148.862C105.364 148.652 105.801 148.358 106.072 147.996C106.343 147.627 106.403 147.228 106.245 146.799C106.102 146.4 105.823 146.166 105.402 146.099C105.131 146.046 104.596 146.069 103.798 146.151L101.727 146.37C100.815 146.468 100.092 146.422 99.5426 146.234C98.6992 145.948 98.0967 145.308 97.7503 144.321C97.3888 143.312 97.4792 142.333 98.0139 141.384C98.5486 140.443 99.5276 139.72 100.943 139.215C102.389 138.703 103.639 138.628 104.701 138.997C105.763 139.366 106.494 140.119 106.908 141.279L104.694 142.062C104.445 141.58 104.174 141.249 103.88 141.076C103.346 140.752 102.615 140.752 101.704 141.076L101.689 141.068Z" fill="#DBCAB6"/>
<path d="M91.7933 147.951C91.8686 148.455 91.7632 148.892 91.4846 149.269C91.2059 149.645 90.8068 149.864 90.3022 149.939C89.7976 150.014 89.3533 149.909 88.9768 149.63C88.6002 149.352 88.3743 148.96 88.299 148.455C88.2237 147.951 88.3291 147.507 88.6078 147.13C88.8864 146.753 89.278 146.52 89.7901 146.452C90.3022 146.384 90.739 146.482 91.1155 146.769C91.4921 147.055 91.718 147.446 91.7933 147.951Z" fill="#DBCAB6"/>
<path d="M74.013 143.101C74.6832 142.74 75.4965 142.589 76.4379 142.649C77.9968 142.747 79.2319 143.365 80.1582 144.502C81.1296 145.647 81.5514 147.16 81.4384 149.043C81.3179 150.941 80.7079 152.432 79.5858 153.517C78.4712 154.601 77.0479 155.09 75.3309 154.985C73.8397 154.895 72.6649 154.443 71.8064 153.63C70.9479 152.816 70.4885 151.845 70.4207 150.7L72.8306 150.851C72.9662 151.664 73.3879 152.251 74.0883 152.613C74.4799 152.816 74.9242 152.929 75.4212 152.959C76.3626 153.02 77.1684 152.711 77.816 152.033C78.4712 151.355 78.8402 150.301 78.9231 148.87C79.0135 147.424 78.7423 146.385 78.1248 145.745C77.4998 145.105 76.7768 144.758 75.9333 144.705C75.1125 144.653 74.4196 144.848 73.8699 145.293C73.3126 145.737 72.9511 146.34 72.7854 147.1L75.5041 147.266L75.3836 149.224L70.496 148.923L70.8801 142.619L72.5068 142.717L72.6649 144.201C73.1695 143.674 73.6213 143.305 74.013 143.101Z" fill="#DBCAB6"/>
<path d="M59.8926 145.3L65.4428 146.656L66.1658 143.719L59.8398 142.167L60.3444 140.111L69.0049 142.228L66.211 153.652L57.8291 151.603L58.3261 149.578L64.3734 151.061L64.9684 148.636L59.4181 147.281L59.9076 145.3H59.8926Z" fill="#DBCAB6"/>
<path d="M46.5251 147.092L47.3385 145.172L50.5843 146.543L54.3497 137.626L56.6316 138.59L52.8661 147.506L56.1195 148.885L55.3062 150.805L46.5251 147.1V147.092Z" fill="#DBCAB6"/>
<path d="M40.1391 143.327L38.0982 141.994L44.5296 132.151L46.5704 133.484L40.1391 143.327Z" fill="#DBCAB6"/>
<path d="M35.5904 125.02L37.4656 126.609L35.741 136.09L41.1331 129.711L42.8803 131.188L35.2892 140.172L33.3236 138.508L35.0482 129.214L29.7465 135.488L27.9993 134.012L35.5904 125.027V125.02Z" fill="#DBCAB6"/>
<path d="M16.9063 120.516L18.5782 119.281L20.6718 122.113L28.4587 116.359L29.9272 118.347L22.1403 124.101L24.2414 126.948L22.5695 128.183L16.9063 120.516Z" fill="#DBCAB6"/>
<path d="M23.9327 108.174C24.6933 109.672 24.8665 111.028 24.4523 112.233C23.9929 113.799 22.8181 115.064 20.9354 116.021C19.015 116.992 17.298 117.196 15.7993 116.616C14.5793 116.239 13.5928 115.298 12.8322 113.799C12.0716 112.3 11.8984 110.945 12.3126 109.74C12.7418 108.196 13.9166 106.931 15.837 105.959C17.7197 105.003 19.4292 104.807 20.9655 105.357C22.1855 105.734 23.1721 106.675 23.9327 108.174ZM20.0618 107.533C19.1657 107.353 18.1264 107.556 16.944 108.158C15.7692 108.753 14.986 109.469 14.6019 110.305C14.2179 111.141 14.248 111.992 14.6848 112.858C15.1216 113.724 15.7993 114.258 16.6955 114.447C17.5992 114.643 18.6385 114.439 19.8208 113.837C21.0032 113.242 21.7864 112.519 22.1629 111.675C22.5395 110.832 22.5094 109.981 22.0726 109.107C21.6358 108.234 20.9655 107.714 20.0618 107.526V107.533Z" fill="#DBCAB6"/>
<path d="M14.3909 96.5458L7.44748 98.5565L6.75464 96.1542L13.6981 94.1434C14.8955 93.797 15.8896 93.7142 16.6653 93.8874C18.0961 94.2263 19.0902 95.3785 19.655 97.3365C20.2198 99.2946 19.9939 100.801 18.9697 101.855C18.4049 102.42 17.5238 102.879 16.3264 103.226L9.38292 105.236L8.69007 102.834L15.6335 100.823C16.4092 100.597 16.9514 100.341 17.2527 100.055C17.8024 99.5883 17.938 98.8728 17.6593 97.9089C17.3807 96.9525 16.8837 96.4253 16.1682 96.3199C15.754 96.237 15.1666 96.3123 14.3834 96.5383L14.3909 96.5458Z" fill="#DBCAB6"/>
<path d="M15.9876 82.9066C16.8763 83.6974 17.3884 84.7743 17.5315 86.1299C17.7047 87.8092 17.298 89.1874 16.319 90.2643C15.3324 91.3412 13.894 91.9738 12.0038 92.1696C9.96293 92.3805 8.32873 91.9964 7.10873 91.0099C6.04687 90.1589 5.4444 88.9916 5.29379 87.5231C5.09045 85.5575 5.58749 84.0513 6.7849 83.0045C7.45515 82.4247 8.15552 82.0858 8.88601 81.9728L9.13453 84.4203C8.59231 84.6387 8.18564 84.8873 7.92959 85.1584C7.47021 85.6554 7.28194 86.3407 7.37231 87.2143C7.46268 88.1029 7.89194 88.7657 8.66762 89.21C9.43577 89.6468 10.475 89.8049 11.7929 89.6694C13.1033 89.5338 14.0597 89.1648 14.6547 88.5548C15.2496 87.9448 15.5057 87.2218 15.4228 86.3859C15.3324 85.5274 14.986 84.9023 14.3836 84.5107C14.0597 84.2923 13.5853 84.1342 12.9602 84.0287L12.7117 81.6113C14.007 81.6942 15.099 82.1234 15.9876 82.9142V82.9066Z" fill="#DBCAB6"/>
<path d="M17.2527 72.8229L12.0188 72.4313L11.6799 77.0176L16.9138 77.4092L16.7331 79.8342L5 78.9681L5.18074 76.5432L9.65408 76.8745L9.99297 72.2882L5.51963 71.9569L5.70037 69.5244L17.4335 70.3905L17.2527 72.8229Z" fill="#DBCAB6"/>
<path d="M11.3787 49.5302L12.2372 47.1806L22.1478 54.3274L21.342 56.5339L14.391 55.5097L12.1091 55.1181L14.1048 56.2854L20.0768 59.9831L19.2936 62.1294L7.10111 61.2257L7.99729 58.7781L14.8579 59.6291L16.7331 59.9605L15.129 59.0116L9.21729 55.4419L10.1059 53.0095L16.9138 54.0111L18.7966 54.3198L17.2226 53.3634L11.3711 49.5528L11.3787 49.5302Z" fill="#DBCAB6"/>
<path d="M13.7659 44.959L14.9408 42.8202L25.2505 48.4834L24.0757 50.6222L13.7659 44.959Z" fill="#DBCAB6"/>
<path d="M21.4625 32.9698L23.1645 34.1672L21.1387 37.044L29.0612 42.6093L27.6378 44.6351L19.7153 39.0698L17.682 41.9617L15.98 40.7643L21.455 32.9698H21.4625Z" fill="#DBCAB6"/>
<path d="M36.6372 33.9865L32.8868 30.3114L29.6636 33.5949L33.414 37.2699L31.712 39.0096L23.3151 30.7708L25.0171 29.0311L28.2177 32.1715L31.4334 28.8881L28.2328 25.7477L29.9423 24.0081L38.3392 32.2468L36.6297 33.9865H36.6372Z" fill="#DBCAB6"/>
<path d="M46.8114 20.8827L43.046 14.715L45.1772 13.4121L48.9427 19.5799C49.5903 20.6493 49.9367 21.5756 49.9669 22.3739C50.0121 23.8424 49.1686 25.1076 47.429 26.1694C45.6893 27.2313 44.1756 27.4045 42.8878 26.6966C42.195 26.305 41.5172 25.5745 40.8696 24.5051L37.1041 18.3373L39.2354 17.0345L43.0008 23.2023C43.4225 23.8951 43.8141 24.3469 44.1681 24.5653C44.763 24.972 45.4935 24.9193 46.3445 24.3921C47.1955 23.8725 47.572 23.255 47.4817 22.5395C47.4516 22.1253 47.2256 21.5681 46.8039 20.8752L46.8114 20.8827Z" fill="#DBCAB6"/>
<path d="M56.338 19.5272C56.8802 19.3163 57.2944 19.0829 57.5806 18.8343C58.1303 18.3524 58.281 17.8026 58.04 17.1851C57.8969 16.8236 57.6258 16.6052 57.2342 16.5374C56.8426 16.4696 56.2777 16.4922 55.5397 16.6127L54.2821 16.8085C53.0395 16.9968 52.1433 17.0269 51.5935 16.8989C50.6597 16.688 49.9744 16.0404 49.5527 14.9635C49.1686 13.9845 49.1987 13.028 49.6581 12.1017C50.1175 11.1754 51.0362 10.4374 52.4144 9.88766C53.5666 9.43581 54.6737 9.35297 55.728 9.63914C56.7823 9.93285 57.558 10.6483 58.055 11.793L55.856 12.659C55.5548 12.0189 55.0879 11.6649 54.4402 11.5972C54.0109 11.552 53.529 11.6348 53.0018 11.8457C52.4144 12.0791 51.9927 12.3804 51.7291 12.7569C51.473 13.1335 51.4279 13.5326 51.5935 13.9619C51.7442 14.3535 52.0379 14.5794 52.4596 14.6321C52.7307 14.6698 53.2654 14.6321 54.0637 14.5192L56.1271 14.2254C57.0308 14.0974 57.7613 14.12 58.3111 14.2857C59.1696 14.5417 59.7871 15.1593 60.1712 16.1308C60.5628 17.1324 60.5101 18.1114 60.0055 19.0753C59.501 20.0393 58.5521 20.7924 57.1589 21.3421C55.7355 21.9069 54.4854 22.0199 53.4085 21.6885C52.3316 21.3572 51.5709 20.6267 51.1266 19.4895L53.3106 18.631C53.5742 19.1055 53.8603 19.4218 54.1616 19.5874C54.7113 19.8887 55.4343 19.8661 56.338 19.5121V19.5272Z" fill="#DBCAB6"/>
<path d="M65.985 12.3051C65.8947 11.8005 65.985 11.3562 66.2486 10.9721C66.5197 10.588 66.9038 10.347 67.4084 10.2567C67.9129 10.1663 68.3573 10.2567 68.7413 10.5203C69.1254 10.7838 69.3664 11.1679 69.4568 11.6725C69.5471 12.177 69.4568 12.6214 69.1932 13.013C68.9296 13.4046 68.538 13.6456 68.041 13.7359C67.5364 13.8263 67.0921 13.7359 66.708 13.4648C66.3239 13.1937 66.0829 12.8096 65.9926 12.3051H65.985Z" fill="#DBCAB6"/>
</svg>
