<svg width="100" height="100" viewBox="0 0 100 100" fill="none" xmlns="http://www.w3.org/2000/svg">
<path d="M91.6484 24.7461C91.3551 24.3951 90.9882 24.1127 90.5738 23.919C90.1594 23.7253 89.7075 23.6249 89.25 23.625H26.2344L24.3242 13.1328C24.0626 11.6927 23.3038 10.3901 22.1802 9.45212C21.0566 8.51412 19.6395 8.00021 18.1758 8H11.125C10.2962 8 9.50134 8.32924 8.91529 8.91529C8.32924 9.50134 8 10.2962 8 11.125C8 11.9538 8.32924 12.7487 8.91529 13.3347C9.50134 13.9208 10.2962 14.25 11.125 14.25H18.1562L28.1406 69.0508C28.4347 70.676 29.153 72.1947 30.2227 73.4531C28.7463 74.8321 27.6807 76.593 27.144 78.5406C26.6073 80.4883 26.6205 82.5465 27.1821 84.4871C27.7438 86.4276 28.8319 88.1747 30.3259 89.5346C31.8198 90.8945 33.6613 91.8141 35.6459 92.1914C37.6306 92.5686 39.681 92.3889 41.5697 91.672C43.4585 90.9551 45.1117 89.7291 46.3463 88.13C47.5808 86.5308 48.3483 84.621 48.5636 82.6123C48.779 80.6036 48.4338 78.5745 47.5664 76.75H65.3086C64.6095 78.2136 64.2477 79.8155 64.25 81.4375C64.25 83.6007 64.8915 85.7154 66.0933 87.5141C67.2951 89.3127 69.0033 90.7146 71.0019 91.5424C73.0005 92.3703 75.1996 92.5869 77.3213 92.1648C79.443 91.7428 81.3918 90.7011 82.9215 89.1715C84.4511 87.6418 85.4928 85.693 85.9148 83.5713C86.3369 81.4496 86.1203 79.2505 85.2924 77.2519C84.4646 75.2533 83.0627 73.5451 81.2641 72.3433C79.4654 71.1415 77.3507 70.5 75.1875 70.5H37.3633C36.6314 70.4999 35.9229 70.2429 35.3611 69.7739C34.7993 69.3049 34.4199 68.6536 34.2891 67.9336L33.0508 61.125H78.3633C80.5588 61.1247 82.6845 60.3538 84.3699 58.9468C86.0554 57.5398 87.1935 55.5859 87.5859 53.4258L92.3359 27.3086C92.4164 26.8572 92.3964 26.3936 92.2776 25.9508C92.1588 25.5079 91.944 25.0966 91.6484 24.7461ZM75.1875 76.75C76.1146 76.75 77.0209 77.0249 77.7917 77.54C78.5626 78.0551 79.1634 78.7871 79.5182 79.6437C79.873 80.5002 79.9658 81.4427 79.7849 82.352C79.6041 83.2613 79.1576 84.0965 78.5021 84.7521C77.8465 85.4076 77.0113 85.8541 76.102 86.0349C75.1927 86.2158 74.2502 86.123 73.3937 85.7682C72.5371 85.4134 71.8051 84.8126 71.29 84.0417C70.7749 83.2709 70.5 82.3646 70.5 81.4375C70.5 80.1943 70.9939 79.002 71.8729 78.1229C72.752 77.2439 73.9443 76.75 75.1875 76.75ZM37.6875 76.75C38.6146 76.75 39.5209 77.0249 40.2917 77.54C41.0626 78.0551 41.6634 78.7871 42.0182 79.6437C42.373 80.5002 42.4658 81.4427 42.2849 82.352C42.1041 83.2613 41.6576 84.0965 41.0021 84.7521C40.3465 85.4076 39.5113 85.8541 38.602 86.0349C37.6927 86.2158 36.7502 86.123 35.8937 85.7682C35.0371 85.4134 34.3051 84.8126 33.79 84.0417C33.2749 83.2709 33 82.3646 33 81.4375C33 80.1943 33.4939 79.002 34.3729 78.1229C35.252 77.2439 36.4443 76.75 37.6875 76.75Z" fill="#DBCAB6"/>
</svg>
