<svg width="150" height="150" viewBox="0 0 150 150" fill="none" xmlns="http://www.w3.org/2000/svg">
<path d="M114.118 103.031H113.073H107.171H105.688L105.924 101.581L106.682 96.8767L97.4087 95.14L100.444 92.83H104.676H114.54H116.057L115.771 94.3138L114.304 102.019L114.118 103.031Z" fill="white"/>
<path d="M45.0038 103.031H43.5368H37.6185H36.5899L36.3876 102.019L34.9207 94.3138L34.6509 92.83H36.1515H46.0155H50.2645L54.1595 95.14L44.009 96.8767L44.7677 101.581L45.0038 103.031Z" fill="white"/>
<path d="M134.167 74.6368C129.243 76.2723 123.713 77.1322 119.851 79.9144C119.497 80.1504 119.143 80.4202 118.654 80.7574C108.824 87.6538 92.9407 98.7823 83.3297 105.51C82.9924 105.746 82.7901 105.881 82.4866 106.083C77.9677 108.764 77.1415 113.064 75.1013 116.807C73.0442 113.216 72.4372 108.899 67.9184 106.134C67.6148 105.932 67.3788 105.763 67.0247 105.51C57.4137 98.7823 41.5471 87.6538 31.7001 80.7574C31.2111 80.4202 30.8401 80.1504 30.5029 79.9144C26.4899 77.1322 20.757 76.1206 15.8335 74.6873C20.757 73.0518 26.2876 72.1918 30.1488 69.4097C30.5029 69.1737 30.857 68.9039 31.346 68.5666C41.193 61.6703 57.0596 50.5418 66.6706 43.8141C67.0078 43.578 67.227 43.4432 67.5137 43.2408C72.0325 40.5599 72.8587 36.2602 74.899 32.517C76.9561 36.1084 77.5631 40.425 82.0819 43.1902C82.3854 43.3926 82.6215 43.5612 82.9756 43.8141C92.5866 50.5418 108.453 61.6703 118.3 68.5666C118.789 68.9039 119.16 69.1737 119.497 69.4097C123.494 72.1918 129.243 73.2035 134.167 74.6368Z" fill="black"/>
<path d="M134.167 74.6367C128.637 75.9857 122.482 76.4072 118.064 79.1893C117.559 79.5434 117.019 79.9144 116.479 80.3022C107.138 86.8613 92.0473 97.4334 82.9252 103.824C82.4868 104.161 82.1159 104.448 81.7449 104.717C77.1586 108.039 76.7371 112.642 75.1016 116.824C73.2637 112.794 73.0445 107.904 68.6099 104.734C68.2558 104.465 67.8849 104.178 67.4296 103.824C58.3076 97.4334 43.2166 86.8613 33.8754 80.3022C33.319 79.9144 32.7963 79.5434 32.2905 79.1893C27.7379 76.2554 21.3811 75.9688 15.8506 74.6873C21.3811 73.3384 27.5355 72.9169 31.9532 70.1348C32.4591 69.7807 32.9986 69.4097 33.5382 69.0219C42.8794 62.4628 57.9704 51.8907 67.0924 45.5002C67.5308 45.163 67.9017 44.8764 68.2727 44.6066C72.859 41.2849 73.2805 36.6817 74.9161 32.517C76.754 36.5468 76.9732 41.4366 81.4077 44.6066C81.7618 44.8764 82.1496 45.163 82.588 45.5002C91.71 51.8907 106.801 62.4628 116.142 69.0219C116.699 69.4097 117.221 69.7807 117.727 70.1348C122.263 73.0518 128.62 73.3384 134.167 74.6367Z" fill="#AC9C6D"/>
<path d="M134.167 74.6366C128.839 75.6989 122.887 75.9687 118.216 78.1438C117.896 78.3461 117.592 78.5485 117.12 78.8183C108.015 85.175 91.0691 97.0623 81.7447 103.605C81.4412 103.824 81.1377 104.009 80.8511 104.228C75.8432 108.107 76.7369 112.625 75.1013 116.807C73.4658 112.625 73.8704 107.752 69.4865 104.228C69.1998 104.026 68.8963 103.824 68.5928 103.605C59.2685 97.0623 42.3059 85.175 33.2176 78.8014C32.7455 78.5316 32.442 78.3293 32.1216 78.1269C27.1138 75.9687 21.364 75.682 15.8335 74.6872C21.1617 73.625 27.1138 73.3552 31.7844 71.1801C32.1047 70.9777 32.4083 70.7754 32.8804 70.5056C41.9687 64.132 58.9312 52.2447 68.2556 45.7025C68.5591 45.4833 68.8626 45.2978 69.1492 45.0786C74.1571 41.2005 73.2634 36.6816 74.899 32.5C76.5345 36.6816 76.1299 41.5546 80.5138 45.0786C80.8005 45.2809 81.104 45.4833 81.4075 45.7025C90.7318 52.2447 107.678 64.132 116.783 70.5056C117.255 70.7754 117.558 70.9777 117.879 71.1801C122.887 73.3383 128.619 73.625 134.167 74.6366Z" fill="black"/>
<path d="M113.883 75.2433L127.524 74.552L113.883 74.063V75.2433Z" fill="#AC9C6D"/>
<path d="M104.491 94.7529H48.1567V97.2484H104.491V94.7529Z" fill="white"/>
<path d="M108.048 96.269H42.6431L43.5367 101.783L44.1943 104.75H106.514L107.172 101.783L108.048 96.269Z" fill="#AC9C6D"/>
<path d="M107.172 101.784H113.073L114.54 94.095H104.676L108.049 96.2701L107.172 101.784Z" fill="#AC9C6D"/>
<path d="M42.643 96.2701L46.0153 94.095H36.1514L37.6183 101.784H43.5367L42.643 96.2701Z" fill="#AC9C6D"/>
<path d="M75.1181 111.799L73.314 104.464L75.1181 108.663L76.8549 104.464L75.1181 111.799Z" fill="#AC9C6D"/>
<path d="M74.8654 41.0653L76.6695 48.4L74.8654 44.2015L73.1455 48.4L74.8654 41.0653Z" fill="#AC9C6D"/>
<path d="M35.8987 75.4283L22.2578 74.7539L35.8987 74.2649V75.4283Z" fill="#AC9C6D"/>
<path d="M44.6158 68.4992L45.8129 63.4408V69.5784H36.9775L44.6158 68.4992Z" fill="#AC9C6D"/>
<path d="M105.823 68.4992L104.625 63.4408V69.5784H113.444L105.823 68.4992Z" fill="#AC9C6D"/>
<path d="M102.451 59.141C102.451 59.8998 102.113 60.5068 101.692 60.5068C101.27 60.5068 100.933 59.8998 100.933 59.141C100.933 58.3823 101.27 57.7753 101.692 57.7753C102.113 57.7753 102.451 58.3823 102.451 59.141Z" fill="black"/>
<path d="M102.451 59.1408H102.181C102.181 59.478 102.097 59.7815 101.995 59.9839C101.945 60.085 101.877 60.1525 101.827 60.1862C101.776 60.2199 101.726 60.2368 101.692 60.2368C101.658 60.2368 101.608 60.2199 101.557 60.1862C101.473 60.1188 101.371 60.0007 101.304 59.8152C101.237 59.6298 101.186 59.3937 101.186 59.1408C101.186 58.8036 101.27 58.5001 101.371 58.3146C101.422 58.2134 101.49 58.146 101.54 58.1122C101.591 58.0785 101.641 58.0617 101.675 58.0617C101.709 58.0617 101.759 58.0785 101.81 58.1122C101.894 58.1628 101.995 58.2977 102.063 58.4832C102.13 58.6687 102.181 58.9047 102.181 59.1577H102.451H102.72C102.72 58.7361 102.636 58.3652 102.467 58.0617C102.383 57.9099 102.282 57.7919 102.164 57.6907C102.029 57.5895 101.877 57.5221 101.709 57.539C101.54 57.539 101.371 57.6064 101.253 57.6907C101.068 57.8425 100.933 58.0448 100.832 58.2977C100.731 58.5506 100.68 58.8373 100.68 59.1577C100.68 59.5792 100.781 59.9501 100.933 60.2536C101.017 60.4054 101.119 60.5234 101.253 60.6246C101.388 60.7258 101.54 60.7932 101.709 60.7932C101.877 60.7932 102.046 60.7258 102.164 60.6246C102.349 60.4728 102.484 60.2705 102.586 60.0176C102.687 59.7647 102.737 59.478 102.737 59.1577H102.451V59.1408Z" fill="black"/>
<path d="M46.4201 69.7302C45.9817 69.6796 44.6665 69.5784 44.1607 69.5784C37.8882 69.5784 36.9946 73.8444 36.8597 75.1427C36.8259 75.4462 36.8091 75.7497 36.8091 76.0364C36.8091 78.2958 37.8376 79.9145 40.7041 82.2919C39.9284 82.528 39.0011 82.8484 38.3603 83.1687C37.4667 83.6071 36.9103 84.5514 36.9103 85.5968C36.9103 85.6474 36.9103 85.6979 36.9103 85.7654L36.944 87.0806C37.1632 89.3569 38.5289 92.0716 43.8403 92.0716C45.2566 92.0716 46.3864 91.8692 47.3306 91.5489H110.089C110.864 91.5489 111.539 91.1779 111.893 90.554C112.062 90.2505 112.146 89.9302 112.146 89.6098C112.146 89.2894 112.062 88.9522 111.893 88.6656C111.64 88.2103 111.202 87.9068 110.713 87.755V77.3853C110.898 77.6719 111.067 77.9923 111.218 78.3295C111.674 79.3243 112.685 79.8639 113.697 79.6278C114.675 79.3918 115.316 78.4813 115.282 77.419C115.248 76.5085 115.012 75.0415 114.844 74.0636L114.742 73.3723C114.473 71.2983 112.77 71.2983 112.213 71.2983L102.4 71.332C102.552 71.0454 102.619 70.7419 102.619 70.4384C102.619 70.1011 102.535 69.7808 102.366 69.4941C102.113 69.0389 101.675 68.7354 101.186 68.5836V58.2139C101.371 58.5005 101.54 58.8209 101.692 59.1581C102.147 60.1529 103.159 60.6925 104.17 60.4564C105.148 60.2204 105.806 59.3099 105.755 58.2476C105.722 57.3371 105.486 55.8701 105.317 54.8922L105.216 54.2009C104.946 52.1269 103.243 52.1269 102.687 52.1269H92.654C92.2325 52.1269 91.1702 52.1269 90.5464 53.0206C89.5684 52.4135 88.1689 52.0089 86.1118 52.0089C82.6384 52.0089 80.8173 53.2229 79.8562 54.5044C78.6928 53.0037 76.6189 52.1438 73.9548 52.1438H60.4993C59.9935 50.1035 58.1556 50.0867 57.5317 50.0867H49.3708H48.3086C47.5329 50.0867 46.8585 50.4576 46.5044 51.0815C46.3358 51.3681 46.2515 51.7054 46.2515 52.0257C46.2515 52.363 46.3358 52.6833 46.5044 52.97C46.7573 53.4252 47.1788 53.7287 47.6847 53.8805V68.6005C47.1788 68.7522 46.7573 69.0557 46.5044 69.511C46.4538 69.5279 46.4538 69.6628 46.4201 69.7302Z" fill="black"/>
<path d="M84.8304 63.1374C87.2585 64.8742 88.2702 65.5992 88.3545 67.6563C88.4219 69.0389 87.7812 69.9663 86.4323 69.9663C85.0665 69.9663 84.7124 68.786 84.6618 67.9261C84.6618 67.8418 84.6618 67.2179 84.6618 67.1336C84.6618 66.476 84.7967 65.6835 85.1339 65.4812C85.488 65.2788 85.3025 64.8573 84.7967 64.9585C84.2234 65.0765 82.4192 65.5655 81.5425 65.9533C81.1884 66.1051 80.986 66.5097 81.0366 66.9313C81.0366 67.0999 81.0366 67.8249 81.0703 67.9767C81.2558 69.7977 82.571 71.096 86.2974 71.096C90.5296 71.096 92.0471 69.3256 92.1483 67.3191C92.2494 65.4475 91.9965 64.2166 90.361 62.699C89.872 62.2438 88.4894 61.1647 87.7643 60.642C85.3531 58.9052 84.7798 58.7366 84.7798 57.1854C84.7798 56.3254 85.1171 55.0608 86.4828 55.0608C87.8486 55.0608 88.0172 56.0894 88.0847 56.6458C88.1015 56.7976 88.1184 57.0168 88.1184 57.2528C88.1353 57.8767 87.9835 58.2476 87.7812 58.3488C87.3934 58.5174 87.5114 59.0233 88.0172 58.9221C88.0172 58.9221 90.5633 58.3319 90.9511 58.1802C91.2883 58.0453 91.4738 57.6238 91.4232 57.2022C91.4232 55.6173 90.6139 53.9648 86.6346 53.9648C82.4024 53.9648 81.1884 55.9713 81.0029 57.6069C80.7668 59.3268 81.0703 60.4396 84.8304 63.1374Z" fill="#AC9C6D"/>
<path d="M45.7792 79.038C43.368 77.0989 42.7947 76.9134 42.7947 75.1767C42.7947 74.2325 43.132 72.7993 44.4977 72.7993C45.8635 72.7993 45.9478 73.9458 46.0153 74.5528C46.0321 74.7215 46.049 74.9744 46.049 75.2273C46.0658 75.9355 45.9141 76.3233 45.6949 76.4413C45.3071 76.6268 45.4251 77.1832 45.9309 77.0652C45.9309 77.0652 48.4939 76.3907 48.8817 76.239C49.2358 76.0872 49.4213 75.6151 49.3707 75.1599C49.3707 73.3894 48.6119 71.5515 44.6326 71.5515C40.4004 71.5515 39.1864 73.7941 39.0009 75.6151C38.8154 77.571 39.1021 78.8188 42.8622 81.8201C45.2902 83.7423 46.3019 84.5685 46.3862 86.8617C46.4536 88.3961 45.8129 89.4415 44.464 89.4415C43.0982 89.4415 42.7441 88.1263 42.6936 87.1652C42.6936 87.0809 42.6936 86.3727 42.6936 86.2884C42.6936 85.5633 42.8285 84.6697 43.1657 84.4505C43.5198 84.2144 43.3343 83.7423 42.8285 83.8603C42.2552 83.9952 40.451 84.5348 39.5742 84.9563C39.2201 85.1249 39.0178 85.5802 39.0684 86.0355C39.0684 86.2209 39.0684 87.0303 39.1021 87.2158C39.2876 89.2391 40.6027 90.6892 44.3291 90.6892C48.5613 90.6892 50.0788 88.7164 50.18 86.4907C50.2812 84.3999 50.0283 83.0341 48.3927 81.348C47.8869 80.8253 46.5211 79.6113 45.7792 79.038Z" fill="#AC9C6D"/>
<path d="M60.8704 70.4206C60.3477 70.4206 60.3308 70.9771 60.8535 70.9771H66.6538C67.1934 70.9771 67.1597 70.4206 66.637 70.4206C65.9794 70.4206 65.6084 69.8979 65.6084 69.0549V55.9873C65.6084 55.1442 65.9794 54.6215 66.637 54.6215C67.1597 54.6215 67.1934 54.0651 66.6538 54.0651H60.8535C60.314 54.0651 60.3477 54.6215 60.8704 54.6215C61.528 54.6215 61.8989 55.1442 61.8989 55.9873V69.0549C61.9158 69.8979 61.528 70.4206 60.8704 70.4206Z" fill="#AC9C6D"/>
<path d="M67.7669 70.4206C67.2442 70.4206 67.2104 70.977 67.75 70.977H73.5503C74.0899 70.977 74.0562 70.4206 73.5335 70.4206C72.8759 70.4206 72.5049 69.8979 72.5049 69.0549L72.5218 62.951H73.5166C75.3208 62.951 75.9784 64.0976 75.9784 66.2727V69.4089C75.9784 70.6567 76.4842 70.9939 77.6308 70.9939H80.7501C81.2897 70.9939 81.256 70.4375 80.7333 70.4375C80.0757 70.4375 79.7047 69.9148 79.7047 69.0717V65.7163C79.7047 64.165 78.4064 63.0016 76.9901 62.4958C78.6593 61.9225 79.7047 60.5904 79.7047 59.0729V57.9095C79.7047 55.532 77.7825 54.0651 74.444 54.0651H67.75C67.2104 54.0651 67.2442 54.6215 67.7669 54.6215C68.4245 54.6215 68.7954 55.1442 68.7954 55.9873V69.0549C68.7954 69.8979 68.4245 70.4206 67.7669 70.4206ZM72.5218 55.0936H73.348C75.1522 55.0936 75.9784 56.139 75.9784 57.1338V59.2921C75.9784 60.759 75.2027 61.8213 73.348 61.8213H72.5218V55.0936Z" fill="#AC9C6D"/>
<path d="M75.2529 89.5927C74.6965 89.5927 74.393 89.07 74.393 88.227V84.8884C74.393 83.3372 73.0946 82.1737 71.6783 81.6679C73.3476 81.0946 74.393 79.7625 74.393 78.245V77.0816C74.393 74.7041 72.4708 73.2372 69.1322 73.2372H62.4551C61.9155 73.2372 61.9492 73.7936 62.4719 73.7936C63.1295 73.7936 63.5005 74.3163 63.5005 75.1594V88.227C63.5005 89.07 63.1295 89.5927 62.4719 89.5927C61.9492 89.5927 61.9324 90.1492 62.4551 90.1492H68.2554C68.795 90.1492 68.7612 89.5927 68.2385 89.5927C67.581 89.5927 67.21 89.07 67.21 88.227V82.1231H68.2048C70.009 82.1231 70.6666 83.2866 70.6666 85.4448V88.5642C70.6666 89.8119 71.1724 90.1492 72.319 90.1492H75.2698C75.7081 90.166 75.6913 89.5927 75.2529 89.5927ZM70.6666 78.4811C70.6666 79.948 69.891 81.0103 68.0362 81.0103H67.21V74.2657H68.0362C69.8404 74.2657 70.6666 75.328 70.6666 76.306V78.4811Z" fill="#AC9C6D"/>
<path d="M48.7975 70.4222C48.2748 70.4222 48.258 70.9786 48.7807 70.9786H54.581C55.1206 70.9786 55.0868 70.4222 54.5641 70.4222C53.9065 70.4222 53.5356 69.8995 53.5356 69.0564V62.0758H54.9857C55.6433 62.0758 56.3177 62.6491 57.2282 64.3689C57.4643 64.8073 58.0207 64.7736 58.0207 64.2509V59.0913C58.0207 58.5518 57.4643 58.5349 57.2282 58.9733C56.3009 60.6932 55.6433 60.8449 54.9857 60.8449H53.5356L53.5524 53.2236H54.1763C56.5201 53.2236 57.9027 54.7242 59.3696 56.8319C59.6731 57.2703 60.2296 57.1185 60.1621 56.6296C59.9766 55.3481 59.5382 53.6451 59.3865 52.8526C59.2516 52.1613 58.9481 51.9927 58.0207 51.9927H49.8598H48.7975C48.258 51.9927 48.2917 52.5491 48.8144 52.5491C49.472 52.5491 49.8429 53.0718 49.8429 53.9149V69.0396C49.8429 69.8995 49.4551 70.4222 48.7975 70.4222Z" fill="#AC9C6D"/>
<path d="M87.4269 84.922C86.2128 87.0297 85.0325 88.9182 82.6888 88.9182H80.8341V82.2748H81.9975C82.7731 82.2748 83.3127 82.5783 84.2401 84.2813C84.4761 84.7197 85.0325 84.686 85.0325 84.1633V79.577C85.0325 79.0374 84.4761 79.0205 84.2401 79.4589C83.3127 81.1788 82.7731 81.0439 81.9975 81.0439H80.8341V74.4511H82.3516C84.6953 74.4511 85.7239 75.918 86.9379 78.0257C87.1908 78.4641 87.7641 78.3292 87.7472 77.8234C87.7135 76.5419 87.4437 74.8726 87.3594 74.0801C87.292 73.3888 87.0222 73.2202 86.0948 73.2202H77.1077H76.0454C75.5059 73.2202 75.5396 73.7766 76.0623 73.7766C76.7199 73.7766 77.0908 74.2993 77.0908 75.1424V88.2269C77.0908 89.0699 76.7873 89.5926 76.2309 89.5926C75.7925 89.5926 75.7756 90.1491 76.214 90.1491L86.3983 90.1322C87.3257 90.1322 87.5955 89.9636 87.6629 89.2723C87.7304 88.4966 88.1519 86.4058 88.1856 85.1075C88.2531 84.6185 87.6798 84.4668 87.4269 84.922Z" fill="#AC9C6D"/>
<path d="M100.309 84.922C99.0951 87.0297 97.9148 88.9182 95.5711 88.9182H93.7163V82.2748H94.8798C95.6554 82.2748 96.195 82.5783 97.1223 84.2813C97.3584 84.7197 97.9148 84.686 97.9148 84.1633V79.577C97.9148 79.0374 97.3584 79.0205 97.1223 79.4589C96.195 81.1788 95.6554 81.0439 94.8798 81.0439H93.7332V74.4511H95.2507C97.5945 74.4511 98.623 75.918 99.837 78.0257C100.09 78.4641 100.663 78.3292 100.646 77.8234C100.613 76.5419 100.343 74.8726 100.259 74.0801C100.191 73.3888 99.9213 73.2202 98.994 73.2202H90.0237H88.9614C88.4219 73.2202 88.4556 73.7766 88.9783 73.7766C89.6359 73.7766 90.0068 74.2993 90.0068 75.1424V88.2269C90.0068 89.0699 89.6696 89.5926 89.0626 89.5926C88.5736 89.5926 88.5568 90.1491 89.0457 90.1491L99.3143 90.1322C100.242 90.1322 100.511 89.9636 100.579 89.2723C100.646 88.4966 101.068 86.4058 101.102 85.1075C101.135 84.6185 100.562 84.4668 100.309 84.922Z" fill="#AC9C6D"/>
<path d="M105.823 88.227C105.823 89.07 105.452 89.5927 104.794 89.5927C104.272 89.5927 104.238 90.1492 104.778 90.1492H110.578C111.117 90.1492 111.084 89.5927 110.561 89.5927C109.903 89.5927 109.532 89.0869 109.532 88.227V74.2151H109.954C110.746 74.2151 112.331 75.9181 113.242 77.9078C113.495 78.4642 114.136 78.3968 114.119 77.756C114.085 76.66 113.663 74.4175 113.596 73.8611C113.529 73.3046 113.394 73.2372 112.719 73.2372H102.67C101.995 73.2372 101.86 73.3046 101.793 73.8611C101.726 74.4175 101.304 76.66 101.27 77.756C101.253 78.3968 101.894 78.4642 102.147 77.9078C103.058 75.9181 104.643 74.2151 105.435 74.2151H105.857V88.227H105.823Z" fill="#AC9C6D"/>
<path d="M54.0583 88.227C54.0583 89.07 53.6873 89.5927 53.0297 89.5927C52.507 89.5927 52.4902 90.1492 53.0129 90.1492H58.8132C59.3528 90.1492 59.319 89.5927 58.7963 89.5927C58.1387 89.5927 57.7678 89.0869 57.7678 88.227V74.2151H58.1725C58.9649 74.2151 60.5499 75.9181 61.4604 77.9078C61.7134 78.4642 62.3541 78.3968 62.3372 77.756C62.2866 76.66 61.882 74.4175 61.8145 73.8611C61.7471 73.3046 61.6122 73.2372 60.9377 73.2372H50.9052C50.2307 73.2372 50.0958 73.3046 50.0284 73.8611C49.961 74.4175 49.5394 76.66 49.5057 77.756C49.4888 78.3968 50.1296 78.4642 50.3825 77.9078C51.293 75.9181 52.878 74.2151 53.6705 74.2151H54.0751V88.227H54.0583Z" fill="#AC9C6D"/>
<path d="M96.2958 69.0549C96.2958 69.8979 95.9249 70.4206 95.2673 70.4206C94.7446 70.4206 94.7277 70.9771 95.2504 70.9771H101.051C101.59 70.9771 101.557 70.4206 101.034 70.4206C100.376 70.4206 100.005 69.8979 100.005 69.0549V55.043H100.427C101.219 55.043 102.804 56.7292 103.715 58.7357C103.968 59.2921 104.608 59.2247 104.592 58.5839C104.558 57.4879 104.136 55.2454 104.069 54.6889C104.001 54.1325 103.867 54.0651 103.192 54.0651H93.1596C92.4851 54.0651 92.3502 54.1325 92.2828 54.6889C92.2154 55.2454 91.7938 57.4879 91.7601 58.5839C91.7432 59.2247 92.384 59.2921 92.6369 58.7357C93.5474 56.7292 95.1324 55.043 95.9249 55.043H96.3295V69.0549H96.2958Z" fill="#AC9C6D"/>
<path d="M84.3412 62.8507C86.7692 64.5875 87.7809 65.3125 87.8652 67.3696C87.9326 68.7522 87.2919 69.6796 85.943 69.6796C84.5941 69.6796 84.2231 68.4993 84.1726 67.6394C84.1726 67.5719 84.1726 66.9312 84.1726 66.8469C84.1726 66.1893 84.3074 65.3968 84.6447 65.1945C84.9988 64.9921 84.8133 64.5706 84.3074 64.6718C83.7342 64.7898 81.93 65.2788 81.0532 65.6666C80.6991 65.8183 80.4968 66.223 80.5474 66.6445C80.5474 66.8132 80.5474 67.5382 80.5811 67.69C80.7666 69.511 82.0817 70.8093 85.8081 70.8093C90.0403 70.8093 91.5578 69.0389 91.659 67.0324C91.7602 65.1607 91.5073 63.9299 89.8717 62.4123C89.3827 61.9571 88.0001 60.878 87.2751 60.3552C84.8639 58.6185 84.2906 58.4499 84.2906 56.8818C84.2906 56.0219 84.6278 54.7573 85.9936 54.7573C87.3594 54.7573 87.528 55.7858 87.5954 56.3254C87.6123 56.4771 87.6291 56.6963 87.6291 56.9324C87.646 57.5563 87.4942 57.9272 87.2919 58.0284C86.9041 58.197 87.0221 58.7028 87.528 58.6017C87.528 58.6017 90.074 58.0115 90.4619 57.8598C90.7991 57.7249 90.9846 57.3033 90.934 56.8818C90.934 55.2968 90.1246 53.6444 86.1453 53.6444C81.9131 53.6444 80.6991 55.6509 80.5136 57.2865C80.2776 59.0401 80.5811 60.1529 84.3412 62.8507Z" fill="white"/>
<path d="M45.2907 78.7514C42.8964 76.8123 42.3062 76.6268 42.3062 74.8901C42.3062 73.9459 42.6434 72.5127 44.0092 72.5127C45.375 72.5127 45.4593 73.6592 45.5267 74.2662C45.5436 74.4349 45.5605 74.6709 45.5605 74.9407C45.5773 75.6489 45.4256 76.0535 45.2064 76.1547C44.8186 76.3402 44.9366 76.8966 45.4424 76.7786C45.4424 76.7786 48.0054 76.1041 48.3932 75.9355C48.7304 75.7838 48.9327 75.3116 48.8653 74.8564C48.8653 73.0859 48.1065 71.248 44.1273 71.248C39.895 71.248 38.681 73.4738 38.4955 75.3116C38.3101 77.2676 38.5967 78.5153 42.3568 81.5166C44.7848 83.4388 45.7965 84.265 45.8808 86.5582C45.9483 88.0926 45.3075 89.138 43.9586 89.138C42.5929 89.138 42.2388 87.8228 42.1882 86.8617C42.1882 86.7774 42.1882 86.0692 42.1882 85.9849C42.1882 85.2599 42.3231 84.3662 42.6603 84.147C43.0144 83.911 42.8289 83.4388 42.3231 83.5569C41.7498 83.6918 39.9456 84.2313 39.0688 84.6529C38.7147 84.8215 38.5124 85.2767 38.563 85.732C38.563 85.9175 38.5798 86.7268 38.5967 86.8954C38.7822 88.9188 40.0974 90.3689 43.8237 90.3689C48.056 90.3689 49.5566 88.3961 49.6578 86.1704C49.759 84.0796 49.506 82.7138 47.8705 81.0277C47.3984 80.5387 46.0326 79.3415 45.2907 78.7514Z" fill="white"/>
<path d="M60.3811 70.134C59.8584 70.134 59.8416 70.6904 60.3643 70.6904H66.1646C66.7041 70.6904 66.6704 70.134 66.1477 70.134C65.4901 70.134 65.1192 69.6113 65.1192 68.7682V55.7006C65.1192 54.8576 65.4901 54.3349 66.1477 54.3349C66.6704 54.3349 66.7041 53.7784 66.1646 53.7784H60.3643C59.8247 53.7784 59.8584 54.3349 60.3811 54.3349C61.0387 54.3349 61.4097 54.8576 61.4097 55.7006V68.7682C61.4097 69.6113 61.0387 70.134 60.3811 70.134Z" fill="white"/>
<path d="M67.2776 70.1339C66.7549 70.1339 66.738 70.6903 67.2608 70.6903H73.0611C73.6006 70.6903 73.5669 70.1339 73.0442 70.1339C72.3866 70.1339 72.0157 69.6112 72.0157 68.7681L72.0325 62.6643H73.0274C74.8315 62.6643 75.4891 63.8109 75.4891 65.9691V69.1053C75.4891 70.3531 75.995 70.6903 77.1415 70.6903H80.2609C80.8005 70.6903 80.7667 70.1339 80.244 70.1339C79.5864 70.1339 79.2155 69.6112 79.2155 68.7681V65.4127C79.2155 63.8615 77.9172 62.6812 76.5008 62.1922C78.1701 61.6189 79.2155 60.2868 79.2155 58.7693V57.6059C79.2155 55.2284 77.2933 53.7615 73.9547 53.7615H67.2608C66.7212 53.7615 66.7549 54.3179 67.2776 54.3179C67.9352 54.3179 68.3062 54.8406 68.3062 55.6837V68.7513C68.3062 69.6112 67.9352 70.1339 67.2776 70.1339ZM72.0325 54.8069H72.8587C74.6629 54.8069 75.4891 55.8523 75.4891 56.8471V59.0054C75.4891 60.4723 74.7135 61.5346 72.8587 61.5346H72.0325V54.8069Z" fill="white"/>
<path d="M74.7644 89.323C74.208 89.323 73.9044 88.8003 73.9044 87.9572V84.6018C73.9044 83.0674 72.6061 81.8871 71.1898 81.3813C72.859 80.808 73.9044 79.4928 73.9044 77.9584V76.795C73.9044 74.4175 71.9823 72.9506 68.6437 72.9506H61.9497C61.4102 72.9506 61.4439 73.507 61.9666 73.507C62.6242 73.507 62.9951 74.0297 62.9951 74.8728V87.9403C62.9951 88.7834 62.6242 89.3061 61.9666 89.3061C61.4439 89.3061 61.427 89.8625 61.9497 89.8625H67.75C68.2896 89.8625 68.2559 89.3061 67.7332 89.3061C67.0756 89.3061 66.7046 88.7834 66.7046 87.9403L66.7215 81.8365H67.7163C69.5205 81.8365 70.1781 82.9831 70.1781 85.1582V88.2944C70.1781 89.5422 70.6839 89.8794 71.8305 89.8794H74.7812C75.2196 89.8794 75.2028 89.323 74.7644 89.323ZM70.1781 78.1945C70.1781 79.6614 69.4025 80.7237 67.5477 80.7237H66.7215V73.9791H67.5477C69.3519 73.9791 70.1781 75.0245 70.1781 76.0193V78.1945Z" fill="white"/>
<path d="M48.3083 70.1341C47.7856 70.1341 47.7687 70.6905 48.2914 70.6905H54.1086C54.6482 70.6905 54.6144 70.1341 54.0917 70.1341C53.4341 70.1341 53.0632 69.6114 53.0632 68.7683V61.7877H54.5133C55.1709 61.7877 55.8285 62.361 56.7558 64.0808C56.9919 64.5192 57.5483 64.4855 57.5483 63.9628V58.8201C57.5483 58.2805 56.9919 58.2637 56.7558 58.7021C55.8285 60.4219 55.1709 60.5568 54.5133 60.5568H53.0632V52.9355H53.6871C56.0308 52.9355 57.4134 54.4361 58.8804 56.5438C59.1839 56.9822 59.7403 56.8473 59.6729 56.3415C59.4874 55.06 59.049 53.357 58.8972 52.5645C58.7623 51.8732 58.4588 51.7214 57.5315 51.7214H49.3705H48.3083C47.7687 51.7214 47.8024 52.2779 48.3251 52.2779C48.9827 52.2779 49.3537 52.8006 49.3537 53.6436V68.7683C49.3537 69.6114 48.9827 70.1341 48.3083 70.1341Z" fill="white"/>
<path d="M86.9378 84.6354C85.7238 86.7431 84.5435 88.6316 82.1998 88.6316H80.345V81.9713H81.5085C82.2841 81.9713 82.8237 82.2748 83.751 83.9778C83.9871 84.4162 84.5435 84.3825 84.5435 83.8598V79.2735C84.5435 78.7339 83.9871 78.7171 83.751 79.1555C82.8237 80.8753 82.2841 80.7404 81.5085 80.7404H80.345V74.1476H81.8626C84.2063 74.1476 85.2348 75.6146 86.4489 77.7222C86.7018 78.1606 87.2751 78.0257 87.2582 77.5199C87.2245 76.2384 86.9547 74.5691 86.8704 73.7767C86.8029 73.0853 86.5332 72.9336 85.6058 72.9336H76.6355H75.5733C75.0337 72.9336 75.0674 73.49 75.5901 73.49C76.2477 73.49 76.6187 74.0127 76.6187 74.8558V87.9402C76.6187 88.7833 76.3152 89.306 75.7587 89.306C75.3203 89.306 75.3035 89.8624 75.7419 89.8624L85.9262 89.8287C86.8535 89.8287 87.1233 89.6601 87.1908 88.9688C87.2582 88.1932 87.6797 86.1023 87.7135 84.804C87.764 84.3319 87.1908 84.1801 86.9378 84.6354Z" fill="white"/>
<path d="M99.8199 84.6354C98.6059 86.7431 97.4256 88.6316 95.0819 88.6316H93.2271V81.9713H94.3906C95.1662 81.9713 95.7057 82.2748 96.6331 83.9778C96.8692 84.4162 97.4256 84.3825 97.4256 83.8598V79.2735C97.4256 78.7339 96.8692 78.7171 96.6331 79.1555C95.7057 80.8753 95.1662 80.7404 94.3906 80.7404H93.2271V74.1476H94.7446C97.0884 74.1476 98.1169 75.6146 99.3309 77.7222C99.5839 78.1606 100.157 78.0257 100.14 77.5199C100.107 76.2384 99.8368 74.5691 99.7525 73.7767C99.685 73.0853 99.4153 72.9336 98.4879 72.9336H89.5008H88.4385C87.8989 72.9336 87.9326 73.49 88.4553 73.49C89.1129 73.49 89.4839 74.0127 89.4839 74.8558V87.9402C89.4839 88.7833 89.1467 89.306 88.5397 89.306C88.0507 89.306 88.0338 89.8624 88.5228 89.8624L98.7914 89.8287C99.7188 89.8287 99.9885 89.6601 100.056 88.9688C100.123 88.1932 100.545 86.1023 100.579 84.804C100.646 84.3319 100.073 84.1801 99.8199 84.6354Z" fill="white"/>
<path d="M105.334 87.9572C105.334 88.8003 104.963 89.323 104.305 89.323C103.783 89.323 103.766 89.8794 104.289 89.8794H110.089C110.628 89.8794 110.595 89.323 110.072 89.323C109.414 89.323 109.043 88.8003 109.043 87.9572V73.9285H109.465C110.257 73.9285 111.842 75.6315 112.753 77.6212C113.006 78.1776 113.647 78.1101 113.63 77.4526C113.596 76.3566 113.174 74.1309 113.107 73.5744C113.04 73.018 112.905 72.9506 112.23 72.9506H102.164C101.49 72.9506 101.355 73.018 101.287 73.5744C101.22 74.1309 100.798 76.3734 100.764 77.4526C100.748 78.1101 101.388 78.1607 101.641 77.6212C102.552 75.6315 104.137 73.9285 104.929 73.9285H105.351V87.9572H105.334Z" fill="white"/>
<path d="M53.5695 87.9572C53.5695 88.8003 53.1986 89.323 52.541 89.323C52.0183 89.323 52.0014 89.8794 52.5241 89.8794H58.3244C58.864 89.8794 58.8303 89.323 58.3076 89.323C57.65 89.323 57.279 88.8003 57.279 87.9572V73.9285H57.6837C58.4762 73.9285 60.0611 75.6315 60.9717 77.6212C61.2246 78.1776 61.8653 78.1101 61.8485 77.4526C61.8147 76.3566 61.3932 74.1309 61.3257 73.5744C61.2583 73.018 61.1234 72.9506 60.449 72.9506H50.4164C49.742 72.9506 49.6071 73.018 49.5396 73.5744C49.4722 74.1309 49.0507 76.3734 49.0169 77.4526C49.0001 78.1101 49.6408 78.1607 49.8937 77.6212C50.8042 75.6315 52.3892 73.9285 53.1817 73.9285H53.5864V87.9572H53.5695Z" fill="white"/>
<path d="M95.807 68.7682C95.807 69.6113 95.4361 70.134 94.7785 70.134C94.2558 70.134 94.2221 70.6904 94.7616 70.6904H100.562C101.102 70.6904 101.068 70.134 100.545 70.134C99.8875 70.134 99.5165 69.6113 99.5165 68.7682V54.7564H99.9381C100.731 54.7564 102.316 56.4594 103.226 58.449C103.479 59.0055 104.12 58.938 104.103 58.2973C104.069 57.2013 103.648 54.9587 103.58 54.4023C103.513 53.8459 103.378 53.7784 102.703 53.7784H92.6708C91.9964 53.7784 91.8615 53.8459 91.794 54.4023C91.7266 54.9587 91.305 57.2013 91.2713 58.2973C91.2545 58.938 91.8952 59.0055 92.1481 58.449C93.0586 56.4594 94.6436 54.7564 95.4361 54.7564H95.8408V68.7682H95.807Z" fill="white"/>
<path d="M48.4266 103.082C47.6678 102.83 47.2969 102.003 47.2969 100.604C47.2969 99.7945 47.4318 99.1537 47.6847 98.7153C47.9376 98.2601 48.3086 98.0409 48.7807 98.0409C49.2528 98.0409 49.6237 98.2601 49.8767 98.7153C50.1296 99.1537 50.2645 99.7776 50.2645 100.57C50.2645 100.992 50.2308 101.363 50.1633 101.683C50.0959 102.003 49.9947 102.256 49.8767 102.459C49.7586 102.661 49.6237 102.813 49.4889 102.914C49.3371 103.015 49.1854 103.082 48.983 103.116C49.2022 103.184 49.4214 103.268 49.6237 103.403C49.7755 103.487 49.8935 103.521 50.0116 103.521C50.0284 103.521 50.0621 103.521 50.1127 103.521H50.1633L50.2139 103.555V103.689C50.2139 103.757 50.1633 103.807 50.0453 103.858C49.9273 103.909 49.8092 103.942 49.6743 103.942C49.4383 103.942 49.2022 103.824 48.9662 103.571C48.6964 103.302 48.5278 103.15 48.4266 103.082ZM48.7807 102.762C48.8818 102.762 48.983 102.695 49.0842 102.577C49.1685 102.459 49.2359 102.121 49.2865 101.565C49.3202 101.008 49.3371 100.503 49.3371 100.047C49.3371 99.6427 49.3034 99.2886 49.2528 99.0189C49.1854 98.7491 49.1348 98.5805 49.0673 98.4962C48.9999 98.4118 48.9156 98.3781 48.7975 98.3781C48.7132 98.3781 48.6289 98.4118 48.5615 98.4624C48.494 98.513 48.4266 98.631 48.3929 98.7828C48.3591 98.9345 48.3086 99.2381 48.2917 99.6765C48.258 100.132 48.2411 100.587 48.2411 101.076C48.2411 101.683 48.2917 102.104 48.376 102.357C48.4603 102.644 48.5952 102.762 48.7807 102.762Z" fill="black"/>
<path d="M53.8729 101.901C53.8729 102.289 53.7548 102.575 53.5356 102.795C53.3164 103.014 53.0298 103.115 52.6588 103.115C52.2879 103.115 52.0012 103.014 51.782 102.795C51.546 102.575 51.428 102.306 51.428 101.952V98.6805C51.428 98.5793 51.3774 98.495 51.2931 98.4444C51.2256 98.4107 51.1919 98.3601 51.1919 98.3095V98.1746C51.1919 98.124 51.2256 98.1072 51.2931 98.1072H52.4396C52.4902 98.1072 52.5239 98.124 52.5239 98.1746V98.3264C52.5239 98.377 52.4902 98.4107 52.4228 98.4613C52.3385 98.5119 52.2879 98.5962 52.2879 98.6973V102.002C52.2879 102.441 52.4565 102.66 52.7937 102.66C53.1647 102.66 53.3502 102.407 53.3502 101.884V98.6973C53.3502 98.5962 53.2996 98.5119 53.2153 98.4613C53.1478 98.4275 53.1141 98.377 53.1141 98.3264V98.1915C53.1141 98.1409 53.1478 98.124 53.2153 98.124H54.0415C54.0921 98.124 54.1258 98.1409 54.1258 98.1915V98.3432C54.1258 98.3938 54.0921 98.4275 54.0246 98.4781C53.9403 98.5287 53.8897 98.613 53.8897 98.7142V101.901H53.8729Z" fill="black"/>
<path d="M55.8627 98.714L55.8289 98.4948C55.8121 98.4273 55.8121 98.3936 55.8121 98.3767C55.8121 98.3599 55.8289 98.343 55.8627 98.3262L56.4865 98.0732H56.5202C56.554 98.0732 56.5708 98.0901 56.5877 98.1238L57.5825 102.44C57.5994 102.525 57.6162 102.575 57.65 102.609C57.6837 102.643 57.7343 102.676 57.8017 102.71C57.8523 102.744 57.886 102.778 57.886 102.811V102.946C57.886 102.997 57.8692 103.03 57.8186 103.03H56.5877C56.5202 103.03 56.4865 103.014 56.4865 102.946V102.811C56.4865 102.761 56.5202 102.727 56.6046 102.693C56.7057 102.643 56.7563 102.592 56.7563 102.508V102.44L56.6046 101.783H55.6266L55.458 102.423L55.4411 102.491C55.4411 102.558 55.4917 102.626 55.6097 102.693C55.6772 102.744 55.7109 102.794 55.7109 102.828V102.963C55.7109 103.014 55.6772 103.047 55.6097 103.047H54.8341C54.7498 103.047 54.6992 103.03 54.6992 102.963V102.794C54.6992 102.744 54.7329 102.71 54.7835 102.693C54.8847 102.643 54.9521 102.558 54.9859 102.423L55.8627 98.714ZM56.1156 99.7425L55.7278 101.378H56.4865L56.1156 99.7425Z" fill="black"/>
<path d="M58.8975 102.458V98.6974C58.8975 98.5963 58.8469 98.512 58.7626 98.4614C58.6951 98.4277 58.6614 98.3771 58.6614 98.3265V98.1916C58.6614 98.141 58.6951 98.1241 58.7626 98.1241H59.9091C59.9597 98.1241 59.9934 98.141 59.9934 98.1916V98.3433C59.9934 98.3939 59.9597 98.4277 59.8923 98.4782C59.7911 98.5288 59.7574 98.6131 59.7574 98.7143V102.694H60.0778C60.2632 102.694 60.3981 102.643 60.4993 102.542C60.6005 102.441 60.6848 102.272 60.7353 102.036C60.7522 101.952 60.7691 101.884 60.7691 101.884L60.8365 101.867H61.0051C61.0726 101.867 61.1063 101.901 61.1063 101.935V103.081H58.7626C58.6783 103.081 58.6445 103.048 58.6445 102.98V102.862C58.6445 102.812 58.6783 102.778 58.7457 102.727C58.8469 102.643 58.8975 102.559 58.8975 102.458Z" fill="black"/>
<path d="M62.9612 102.458C62.9612 102.559 63.0118 102.643 63.0961 102.71C63.1636 102.744 63.1973 102.795 63.1973 102.845V102.997C63.1973 103.048 63.1636 103.065 63.0961 103.065H61.9495C61.899 103.065 61.8652 103.048 61.8652 102.997V102.845C61.8652 102.795 61.899 102.761 61.9664 102.71C62.0507 102.66 62.1013 102.576 62.1013 102.458V98.6974C62.1013 98.5963 62.0507 98.512 61.9664 98.4614C61.899 98.4277 61.8652 98.3771 61.8652 98.3265V98.1916C61.8652 98.141 61.899 98.1241 61.9664 98.1241H63.113C63.1636 98.1241 63.1973 98.141 63.1973 98.1916V98.3433C63.1973 98.3939 63.1636 98.4277 63.0961 98.4782C62.9949 98.5288 62.9612 98.6131 62.9612 98.7143V102.458Z" fill="black"/>
<path d="M65.7937 98.4609V102.44C65.7937 102.558 65.8442 102.626 65.9285 102.693C65.996 102.727 66.0297 102.777 66.0297 102.828V102.98C66.0297 103.03 65.996 103.047 65.9285 103.047H64.782C64.7314 103.047 64.6977 103.03 64.6977 102.98V102.828C64.6977 102.777 64.7314 102.744 64.7988 102.693C64.9 102.642 64.9337 102.558 64.9337 102.44V98.4609H64.7651C64.6471 98.4609 64.5628 98.4946 64.4953 98.5789C64.4447 98.6632 64.3773 98.8318 64.3436 99.1016C64.3436 99.1353 64.3099 99.1522 64.2593 99.1522H64.1244C64.0401 99.1522 64.0063 99.1185 64.0063 99.051V98.1236C64.0063 98.0562 64.0401 98.0225 64.1244 98.0225C64.175 98.0225 64.2593 98.0393 64.3773 98.0562C64.5796 98.0899 64.7314 98.1068 64.8326 98.1068H66.1309C66.1983 98.0899 66.2826 98.0899 66.3669 98.073C66.5187 98.0562 66.603 98.0393 66.603 98.0393C66.6704 98.0393 66.7042 98.073 66.7042 98.1236V99.0679C66.7042 99.1353 66.6704 99.169 66.603 99.169H66.4681C66.4175 99.169 66.3838 99.1522 66.3669 99.1353C66.3501 99.1016 66.3332 99.0341 66.3164 98.933C66.2658 98.7475 66.2321 98.6295 66.1815 98.5789C66.1309 98.5283 66.0466 98.4946 65.9285 98.4946H65.7937V98.4609Z" fill="black"/>
<path d="M69.3516 100.839V102.457C69.3516 102.575 69.4022 102.643 69.5034 102.71C69.5708 102.744 69.5877 102.795 69.5877 102.845V102.997C69.5877 103.048 69.554 103.064 69.4865 103.064H68.3399C68.2894 103.064 68.2556 103.048 68.2556 102.997V102.845C68.2556 102.795 68.2894 102.761 68.3568 102.71C68.458 102.66 68.4917 102.575 68.4917 102.457V100.839L67.7498 98.6805C67.6992 98.5456 67.6318 98.4781 67.5306 98.4275C67.48 98.4107 67.4463 98.3601 67.4463 98.3264V98.1746C67.4463 98.124 67.48 98.1072 67.5137 98.1072H68.694C68.7615 98.1072 68.7952 98.1409 68.7952 98.1915V98.3432C68.7952 98.377 68.7615 98.4107 68.694 98.4275C68.5929 98.4613 68.5423 98.5119 68.5423 98.5793L68.5591 98.6467L69.0987 100.198L69.5877 98.7816C69.6045 98.731 69.6214 98.6805 69.6214 98.6299C69.6214 98.5456 69.5708 98.495 69.4528 98.4444C69.3853 98.4275 69.3516 98.3938 69.3516 98.3432V98.1746C69.3516 98.124 69.3853 98.1072 69.4359 98.1072H70.3464C70.4139 98.1072 70.4476 98.124 70.4476 98.1746V98.3432C70.4476 98.3938 70.4139 98.4275 70.3464 98.4613C70.2116 98.5119 70.1104 98.613 70.0767 98.7311L69.3516 100.839Z" fill="black"/>
<path d="M73.5164 103.049H73.331C73.2635 103.049 73.2298 103.015 73.2298 102.965V101.751C73.2298 101.666 73.2635 101.632 73.331 101.632H73.4827C73.5333 101.632 73.5501 101.649 73.567 101.666C73.5839 101.683 73.6007 101.767 73.6176 101.919C73.7188 102.476 73.9548 102.745 74.3089 102.745C74.4944 102.745 74.6461 102.678 74.7473 102.543C74.8485 102.408 74.8991 102.239 74.8991 102.037C74.8991 101.835 74.8485 101.649 74.7304 101.464C74.6124 101.295 74.3932 101.059 74.0729 100.756C73.8199 100.52 73.6345 100.351 73.5333 100.216C73.4321 100.081 73.331 99.9463 73.2804 99.7946C73.2129 99.6428 73.1792 99.4574 73.1792 99.2719C73.1792 98.9178 73.2804 98.6311 73.4827 98.3951C73.685 98.1759 73.938 98.0579 74.2246 98.0579C74.3595 98.0579 74.5112 98.0916 74.663 98.159C74.7304 98.1928 74.781 98.2096 74.7979 98.2096L74.8822 98.1759C74.9159 98.159 74.9496 98.159 75.0002 98.159H75.1351C75.2026 98.159 75.2363 98.1928 75.2363 98.2433V99.2887C75.2363 99.3393 75.2026 99.373 75.152 99.373H74.9834C74.9328 99.373 74.9159 99.3731 74.8991 99.3393C74.8822 99.3225 74.8653 99.2382 74.8316 99.1033C74.7136 98.648 74.5281 98.412 74.2752 98.412C74.1403 98.412 74.0223 98.4625 73.938 98.5637C73.8537 98.6649 73.8031 98.7829 73.8031 98.9178C73.8031 99.0695 73.8537 99.2382 73.9548 99.3899C74.056 99.5585 74.2583 99.7609 74.545 100.031C74.9328 100.368 75.1857 100.671 75.3375 100.924C75.4892 101.177 75.5567 101.447 75.5567 101.751C75.5567 102.155 75.4386 102.476 75.1857 102.728C74.9496 102.981 74.6461 103.116 74.3089 103.116C74.1572 103.116 73.9885 103.083 73.7862 103.015C73.7188 102.981 73.685 102.981 73.6513 102.981C73.6176 102.981 73.6007 102.998 73.5501 103.015L73.5164 103.049Z" fill="black"/>
<path d="M77.5125 102.458C77.5125 102.559 77.5631 102.643 77.6474 102.71C77.7148 102.744 77.7486 102.795 77.7486 102.845V102.997C77.7486 103.048 77.7148 103.065 77.6474 103.065H76.5008C76.4502 103.065 76.4165 103.048 76.4165 102.997V102.845C76.4165 102.795 76.4502 102.761 76.5177 102.71C76.602 102.66 76.6526 102.576 76.6526 102.458V98.6974C76.6526 98.5963 76.602 98.512 76.5177 98.4614C76.4502 98.4277 76.4165 98.3771 76.4165 98.3265V98.1916C76.4165 98.141 76.4502 98.1241 76.5177 98.1241H77.6643C77.7148 98.1241 77.7486 98.141 77.7486 98.1916V98.3433C77.7486 98.3939 77.7148 98.4277 77.6474 98.4782C77.5631 98.5288 77.5125 98.6131 77.5125 98.7143V102.458Z" fill="black"/>
<path d="M80.7498 100.771V98.6805C80.7498 98.5793 80.6992 98.495 80.6149 98.4444C80.5475 98.4107 80.5138 98.3601 80.5138 98.3095V98.1746C80.5138 98.124 80.5475 98.1072 80.6149 98.1072H81.4411C81.4917 98.1072 81.5255 98.124 81.5255 98.1746V98.3264C81.5255 98.377 81.4917 98.4107 81.4411 98.4613C81.34 98.5119 81.2894 98.5962 81.2894 98.6973V102.98C81.2894 103.048 81.2557 103.081 81.1882 103.081H81.0196C80.9522 103.081 80.9016 103.048 80.8679 102.98L79.3503 99.5067V102.457C79.3503 102.575 79.4009 102.643 79.4852 102.71C79.5527 102.744 79.5864 102.795 79.5864 102.845V102.997C79.5864 103.048 79.5527 103.064 79.4852 103.064H78.659C78.6084 103.064 78.5747 103.048 78.5747 102.997V102.845C78.5747 102.795 78.6084 102.761 78.6759 102.71C78.7602 102.66 78.8108 102.575 78.8108 102.457V98.6973C78.8108 98.5962 78.7602 98.5119 78.6759 98.4613C78.6084 98.4275 78.5747 98.377 78.5747 98.3264V98.1915C78.5747 98.1409 78.6084 98.124 78.6759 98.124H79.4515C79.5021 98.124 79.5527 98.124 79.5695 98.1409C79.5864 98.1578 79.6032 98.1746 79.6201 98.2252L80.7498 100.771Z" fill="black"/>
<path d="M85.0832 101.833C85.0664 102.221 84.9484 102.541 84.746 102.761C84.5437 102.997 84.2908 103.098 83.9704 103.098C83.5151 103.098 83.1442 102.879 82.8744 102.457C82.6046 102.019 82.4697 101.395 82.4697 100.569C82.4697 99.7592 82.6046 99.1185 82.8744 98.6801C83.1442 98.2417 83.4814 98.0225 83.9029 98.0225C84.0716 98.0225 84.2739 98.073 84.4762 98.1742L84.5437 98.1911L84.6111 98.1574L84.6786 98.1236H84.8809C84.9315 98.1236 84.9483 98.1574 84.9483 98.2079V99.2533C84.9483 99.3208 84.9315 99.3377 84.8809 99.3377H84.7292C84.6786 99.3377 84.6448 99.3208 84.628 99.3039C84.6111 99.2871 84.5774 99.2196 84.5437 99.1185C84.3919 98.6295 84.1896 98.3766 83.9535 98.3766C83.8018 98.3766 83.7006 98.444 83.6163 98.562C83.532 98.6969 83.4814 98.933 83.4308 99.2871C83.3971 99.6412 83.3634 99.9952 83.3634 100.366C83.3634 101.159 83.414 101.749 83.5151 102.12C83.6163 102.491 83.8018 102.676 84.0547 102.676C84.3582 102.676 84.5605 102.39 84.6617 101.783L85.0832 101.833Z" fill="black"/>
<path d="M88.5229 103.049H86.0106C85.9431 103.049 85.9263 103.015 85.9263 102.965V102.83C85.9263 102.779 85.96 102.745 86.0443 102.678C86.1117 102.627 86.1455 102.56 86.1455 102.442V98.6817C86.1455 98.5637 86.0949 98.4963 86.0106 98.4288C85.9431 98.3951 85.9263 98.3445 85.9263 98.2939V98.1422C85.9263 98.1084 85.96 98.0916 86.0106 98.0916H87.8991C87.9328 98.0916 88.0002 98.0916 88.0845 98.0747C88.1688 98.0747 88.2194 98.0579 88.2531 98.0579C88.3374 98.0579 88.3712 98.0747 88.3712 98.1084V99.0527C88.3712 99.1033 88.3712 99.137 88.3543 99.137C88.3375 99.1539 88.3037 99.1539 88.2531 99.1539H88.1183C88.0677 99.1539 88.0339 99.1201 88.0171 99.0695C87.9834 98.9009 87.9496 98.766 87.8653 98.648C87.7979 98.53 87.663 98.4625 87.4438 98.4625H86.9885V100.267H87.1572C87.2583 100.267 87.3258 100.25 87.3763 100.216C87.4101 100.182 87.4607 100.081 87.5281 99.8958C87.545 99.8452 87.5618 99.7946 87.5618 99.7946C87.5618 99.7946 87.5955 99.7946 87.6293 99.7946H87.7979C87.8653 99.7946 87.8991 99.8114 87.8991 99.8789V101.076C87.8991 101.127 87.8653 101.16 87.8147 101.16H87.6461C87.6124 101.16 87.5787 101.16 87.5618 101.143C87.545 101.127 87.5281 101.076 87.5112 100.992C87.4775 100.84 87.4269 100.756 87.3763 100.722C87.3258 100.688 87.2583 100.671 87.1572 100.671H86.9885V102.695H87.4775C87.663 102.695 87.781 102.661 87.8653 102.577C87.9328 102.492 88.0339 102.29 88.1351 101.953C88.1688 101.869 88.2026 101.835 88.27 101.835H88.4218C88.4892 101.835 88.5229 101.869 88.5229 101.919V103.049Z" fill="black"/>
<path d="M92.2493 98.9174H91.7603C91.7097 98.9174 91.6929 98.9005 91.6929 98.8668V98.6813C91.6929 98.6476 91.7097 98.6139 91.7603 98.597L92.5022 98.3104C92.5697 98.2766 92.6371 98.2598 92.6877 98.2598H92.9575C93.0081 98.2598 93.0418 98.2766 93.0418 98.3272V102.34C93.0418 102.475 93.0586 102.559 93.1092 102.61C93.1598 102.661 93.2441 102.694 93.3621 102.711C93.4296 102.711 93.4633 102.745 93.4633 102.795V102.981C93.4633 103.032 93.4296 103.048 93.3959 103.048H91.8783C91.8278 103.048 91.794 103.032 91.794 102.981V102.812C91.794 102.762 91.8446 102.728 91.9289 102.711C92.047 102.694 92.1144 102.661 92.165 102.61C92.2156 102.559 92.2324 102.475 92.2324 102.34V98.9174H92.2493Z" fill="black"/>
<path d="M95.5879 100.688C95.3181 100.435 95.1495 100.216 95.0484 100.03C94.9472 99.8279 94.8966 99.6255 94.8966 99.4063C94.8966 99.086 94.9978 98.8162 95.2001 98.597C95.4025 98.3778 95.6722 98.2766 96.0095 98.2766C96.3298 98.2766 96.5996 98.3778 96.802 98.5801C97.0043 98.7825 97.1223 99.0017 97.1223 99.2546C97.1223 99.6087 96.8863 99.9796 96.3973 100.367C97.0211 100.806 97.3247 101.295 97.3247 101.851C97.3247 102.222 97.2066 102.526 96.9874 102.762C96.7514 102.998 96.4479 103.116 96.0432 103.116C95.6722 103.116 95.3519 102.998 95.1158 102.779C94.8797 102.559 94.7617 102.29 94.7617 101.969C94.7617 101.531 95.0484 101.092 95.5879 100.688ZM95.824 100.856C95.5036 101.227 95.3519 101.598 95.3519 101.952C95.3519 102.205 95.4193 102.391 95.5542 102.559C95.6891 102.711 95.8577 102.795 96.0769 102.795C96.2624 102.795 96.4141 102.728 96.5322 102.61C96.6502 102.492 96.7176 102.323 96.7176 102.138C96.7176 101.716 96.4141 101.295 95.824 100.856ZM96.1949 100.182C96.4816 99.8784 96.6165 99.5749 96.6165 99.2883C96.6165 99.086 96.5659 98.9173 96.4479 98.7825C96.3298 98.6476 96.1949 98.5801 96.0263 98.5801C95.8746 98.5801 95.7397 98.6307 95.6385 98.7319C95.5373 98.833 95.4868 98.9679 95.4868 99.1197C95.4868 99.4906 95.7228 99.8279 96.1949 100.182Z" fill="black"/>
<path d="M102.737 98.9174H102.248C102.198 98.9174 102.181 98.9005 102.181 98.8668V98.6813C102.181 98.6476 102.198 98.6139 102.248 98.597L102.99 98.3104C103.057 98.2766 103.125 98.2598 103.175 98.2598H103.445C103.496 98.2598 103.53 98.2766 103.53 98.3272V102.34C103.53 102.475 103.546 102.559 103.597 102.61C103.648 102.661 103.732 102.694 103.85 102.711C103.917 102.711 103.951 102.745 103.951 102.795V102.981C103.951 103.032 103.917 103.048 103.884 103.048H102.417C102.366 103.048 102.332 103.032 102.332 102.981V102.812C102.332 102.762 102.383 102.728 102.467 102.711C102.585 102.694 102.653 102.661 102.703 102.61C102.754 102.559 102.788 102.475 102.788 102.34V98.9174H102.737Z" fill="black"/>
<path d="M100.208 98.7988H99.0109C98.8423 98.7988 98.7242 98.9 98.6905 99.0854C98.6737 99.136 98.6737 99.1698 98.6568 99.1698C98.6568 99.1866 98.6231 99.2035 98.5893 99.2035H98.4039C98.3533 99.2035 98.3364 99.1866 98.3364 99.136L98.3702 98.2592C98.3702 98.2086 98.4039 98.1749 98.4713 98.1749C98.505 98.1749 98.5556 98.1918 98.6399 98.2087C98.7411 98.2255 98.8254 98.2424 98.8929 98.2424H100.545C100.596 98.2424 100.63 98.2592 100.63 98.3098V98.6639C100.056 99.8105 99.7696 100.822 99.7696 101.699C99.7696 101.8 99.7696 101.935 99.7865 102.104C99.8034 102.255 99.8034 102.373 99.8034 102.458C99.8034 102.862 99.6516 103.065 99.3481 103.065C99.1964 103.065 99.0952 103.014 99.0109 102.896C98.9434 102.795 98.9097 102.66 98.9097 102.508C98.9097 102.12 99.0446 101.564 99.2975 100.805C99.601 100.03 99.8877 99.3552 100.208 98.7988Z" fill="black"/>
</svg>
