<svg width="150" height="150" viewBox="0 0 150 150" fill="none" xmlns="http://www.w3.org/2000/svg">
<g clip-path="url(#clip0_87_4811)">
<path d="M110.156 18.75V2.34375C110.156 1.72215 109.909 1.12601 109.47 0.686468C109.03 0.24693 108.434 0 107.812 0L42.1875 0C41.5659 0 40.9698 0.24693 40.5302 0.686468C40.0907 1.12601 39.8438 1.72215 39.8438 2.34375V18.75H110.156Z" fill="#789904"/>
<path d="M53.9063 23.4375H39.8438V49.2188C39.8429 49.6309 39.9509 50.0361 40.1566 50.3932C40.3623 50.7504 40.6587 51.047 41.0156 51.2531L53.9063 58.6148V23.4375Z" fill="#789904"/>
<path d="M91.4062 60.757V23.4375H58.5938V61.2938L73.8281 70.0031C74.1822 70.2054 74.5829 70.3117 74.9906 70.3117C75.3984 70.3117 75.7991 70.2054 76.1531 70.0031L91.4883 61.2422C91.4457 61.0834 91.4182 60.921 91.4062 60.757Z" fill="#789904"/>
<path d="M96.0938 23.4375V58.6148L108.984 51.2531C109.341 51.047 109.638 50.7504 109.843 50.3932C110.049 50.0361 110.157 49.6309 110.156 49.2188V23.4375H96.0938Z" fill="#789904"/>
<path d="M97.0852 150C96.59 150 96.1076 149.844 95.707 149.553L75 134.51L54.293 149.553C53.8926 149.844 53.4103 150 52.9153 150C52.4202 150.001 51.9379 149.844 51.5374 149.553C51.1369 149.262 50.8388 148.852 50.6858 148.381C50.5329 147.91 50.5329 147.403 50.6859 146.932L58.5938 122.59L37.8867 107.546C37.4863 107.255 37.1882 106.844 37.0353 106.374C36.8824 105.903 36.8824 105.396 37.0354 104.925C37.1885 104.454 37.4866 104.044 37.8871 103.753C38.2876 103.462 38.7699 103.306 39.2649 103.306H64.8586L72.7688 78.9635C72.9229 78.4946 73.2211 78.0863 73.6209 77.7968C74.0207 77.5074 74.5017 77.3516 74.9953 77.3516C75.4889 77.3516 75.9699 77.5074 76.3697 77.7968C76.7695 78.0863 77.0678 78.4946 77.2219 78.9635L85.132 103.306H110.726C111.221 103.306 111.703 103.462 112.104 103.753C112.504 104.044 112.802 104.454 112.955 104.925C113.108 105.396 113.108 105.903 112.955 106.374C112.802 106.844 112.504 107.255 112.104 107.546L91.4063 122.59L99.3164 146.932C99.4308 147.284 99.4601 147.658 99.4022 148.024C99.3442 148.389 99.2005 148.736 98.9828 149.035C98.7652 149.334 98.4798 149.578 98.1499 149.745C97.8201 149.913 97.4552 150.001 97.0852 150Z" fill="#789904"/>
</g>
<defs>
<clipPath id="clip0_87_4811">
<rect width="150" height="150" fill="white"/>
</clipPath>
</defs>
</svg>
