<svg width="100%" viewBox="0 0 42 42" fill="none" xmlns="http://www.w3.org/2000/svg">
<path fill-rule="evenodd" clip-rule="evenodd" d="M42 21C42 32.598 32.598 42 21 42C9.40202 42 0 32.598 0 21C0 9.40202 9.40202 0 21 0C32.598 0 42 9.40202 42 21ZM28.1041 13.8959C26.3762 12.168 23.5651 12.168 21.8372 13.8959L19.2624 16.4707C18.8131 16.92 18.449 17.4933 18.2144 18.1931C18.2124 18.1938 18.2105 18.1946 18.2085 18.1954C18.2066 18.1963 18.2047 18.1971 18.2027 18.1977C17.669 19.8032 18.0738 21.549 19.2624 22.7376C19.6175 23.0927 20.0354 23.3852 20.4879 23.601L20.655 23.4339C21.233 22.856 21.233 21.9229 20.655 21.3449C19.6941 20.384 19.6941 18.8242 20.655 17.8633L23.2298 15.2885C24.1907 14.3276 25.7505 14.3276 26.7114 15.2885C27.6723 16.2495 27.6723 17.8092 26.7114 18.7701L24.7564 20.7252C25.0171 21.5312 25.0723 22.3848 24.9461 23.2156C25.152 23.0721 25.3501 22.9167 25.5293 22.7376L28.1041 20.1628C29.832 18.4349 29.832 15.6238 28.1041 13.8959ZM21.5116 18.4005C21.9711 18.6094 22.3889 18.9019 22.744 19.257C23.9326 20.4456 24.3374 22.1914 23.8037 23.7969C23.8018 23.7976 23.7998 23.7984 23.7979 23.7992C23.7959 23.8001 23.794 23.8009 23.792 23.8015C23.5574 24.5014 23.1933 25.0746 22.744 25.5239L20.1628 28.1053C18.4349 29.8332 15.6238 29.8332 13.8959 28.1053C12.168 26.3774 12.168 23.5663 13.8959 21.8384L16.4771 19.257C16.6563 19.0779 16.8544 18.9226 17.0603 18.779C16.9342 19.6098 16.9893 20.4634 17.25 21.2694L15.2886 23.2311C14.3277 24.192 14.3277 25.7517 15.2886 26.7127C16.2495 27.6736 17.8093 27.6736 18.7702 26.7127L21.3514 24.1313C22.3123 23.1704 22.3123 21.6106 21.3514 20.6497C20.7734 20.0717 20.7735 19.1386 21.3514 18.5607L21.5116 18.4005Z" fill="currentColor"/>
</svg>
