<svg width="100%" viewBox="0 0 42 42" fill="none" xmlns="http://www.w3.org/2000/svg">
<path fill-rule="evenodd" clip-rule="evenodd" d="M21 42C32.598 42 42 32.598 42 21C42 9.40202 32.598 0 21 0C9.40202 0 0 9.40202 0 21C0 32.598 9.40202 42 21 42ZM18.3485 22.4V31.5H22.225V22.4H25.025L26.425 18.2H22.225V15.8043C22.225 14.7234 22.5751 13.9869 24.1251 13.9869L26.1018 13.986V10.6471C25.7599 10.6016 24.5865 10.5 23.2213 10.5C20.3712 10.5 18.3485 12.072 18.3485 15.267V18.2H15.225V22.4H18.3485Z" fill="currentColor"/>
</svg>
