<svg width="60" height="60" viewBox="0 0 60 60" fill="none" xmlns="http://www.w3.org/2000/svg">
<path d="M30.0004 16.4722C27.3414 16.4722 24.7421 17.2607 22.5312 18.7379C20.3203 20.2152 18.5971 22.3149 17.5795 24.7715C16.562 27.2281 16.2957 29.9313 16.8145 32.5392C17.3332 35.1472 18.6137 37.5427 20.4939 39.4229C22.3741 41.3031 24.7696 42.5835 27.3775 43.1023C29.9855 43.621 32.6887 43.3548 35.1453 42.3372C37.6019 41.3197 39.7016 39.5965 41.1789 37.3856C42.6561 35.1747 43.4446 32.5754 43.4446 29.9164C43.4406 26.352 42.0229 22.9347 39.5025 20.4143C36.9821 17.8939 33.5648 16.4762 30.0004 16.4722ZM36.2751 31.5297H31.6137V36.19C31.6137 36.6179 31.4437 37.0282 31.1412 37.3308C30.8386 37.6333 30.4283 37.8033 30.0004 37.8033C29.5725 37.8033 29.1622 37.6333 28.8596 37.3308C28.557 37.0282 28.3871 36.6179 28.3871 36.19V31.5297H23.7268C23.2989 31.5297 22.8885 31.3597 22.586 31.0572C22.2834 30.7546 22.1135 30.3443 22.1135 29.9164C22.1135 29.4885 22.2834 29.0782 22.586 28.7756C22.8885 28.4731 23.2989 28.3031 23.7268 28.3031H28.3871V23.6428C28.3871 23.2149 28.557 22.8046 28.8596 22.502C29.1622 22.1994 29.5725 22.0295 30.0004 22.0295C30.4283 22.0295 30.8386 22.1994 31.1412 22.502C31.4437 22.8046 31.6137 23.2149 31.6137 23.6428V28.3031H36.2751C36.7029 28.3031 37.1133 28.4731 37.4159 28.7756C37.7184 29.0782 37.8884 29.4885 37.8884 29.9164C37.8884 30.3443 37.7184 30.7546 37.4159 31.0572C37.1133 31.3597 36.7029 31.5297 36.2751 31.5297Z" fill="#DBCAB6"/>
<path d="M56.2919 7.9687C55.5637 7.27149 54.59 6.88955 53.582 6.90575C52.2156 6.93877 50.8484 6.90267 49.4857 6.79757C43.2724 6.28175 37.256 4.36796 31.8865 1.19931C31.3143 0.863676 30.6628 0.686827 29.9994 0.687012C29.336 0.687197 28.6847 0.864411 28.1127 1.20036C22.743 4.3687 16.7266 6.28213 10.5132 6.79757C9.15133 6.90522 7.78473 6.94133 6.41904 6.90575C5.9192 6.89502 5.42219 6.98343 4.95672 7.16588C4.49124 7.34832 4.06652 7.62118 3.7071 7.9687C3.34664 8.31819 3.06046 8.73685 2.86572 9.19961C2.67098 9.66237 2.57168 10.1597 2.57378 10.6617V25.6142C2.5622 32.3055 4.53742 38.8497 8.24909 44.4172C11.9608 49.9847 17.2418 54.3249 23.4228 56.8878L28.5516 59.0252C29.4791 59.409 30.5209 59.409 31.4484 59.0252L36.5772 56.8878C42.7583 54.325 48.0394 49.9848 51.7511 44.4173C55.4628 38.8497 57.4379 32.3056 57.4262 25.6142V10.6617C57.4281 10.1596 57.3286 9.66228 57.1337 9.19952C56.9388 8.73677 56.6525 8.31813 56.2919 7.9687ZM30 46.5872C26.7028 46.5872 23.4797 45.6095 20.7382 43.7777C17.9967 41.9459 15.8599 39.3422 14.5982 36.296C13.3364 33.2498 13.0062 29.8979 13.6495 26.6641C14.2927 23.4302 15.8805 20.4598 18.2119 18.1283C20.5434 15.7969 23.5139 14.2091 26.7477 13.5659C29.9815 12.9226 33.3335 13.2528 36.3797 14.5145C39.4259 15.7763 42.0295 17.9131 43.8613 20.6546C45.6931 23.3961 46.6708 26.6192 46.6708 29.9164C46.6659 34.3363 44.9079 38.5737 41.7826 41.699C38.6573 44.8243 34.4199 46.5823 30 46.5872Z" fill="#DBCAB6"/>
</svg>
