<svg width="100%" viewBox="0 0 42 42" fill="none" xmlns="http://www.w3.org/2000/svg">
<path fill-rule="evenodd" clip-rule="evenodd" d="M21 42C32.598 42 42 32.598 42 21C42 9.40202 32.598 0 21 0C9.40202 0 0 9.40202 0 21C0 32.598 9.40202 42 21 42ZM15.5868 16.1131C15.9152 15.785 16.0998 15.34 16.1 14.8759C16.1002 14.4117 15.9161 13.9665 15.5881 13.6382C15.26 13.3098 14.815 13.1252 14.3509 13.125C13.8867 13.1248 13.4415 13.3089 13.1132 13.6369C12.7848 13.965 12.6002 14.41 12.6 14.8741C12.5998 15.3383 12.7839 15.7835 13.1119 16.1118C13.44 16.4402 13.885 16.6248 14.3491 16.625C14.8133 16.6252 15.2585 16.4411 15.5868 16.1131ZM12.6525 17.9209H16.1525V28.8759H12.6525V17.9209ZM18.2 17.9209H21.6825L21.6475 19.3909C23.1 16.7396 29.2775 16.5384 29.2775 21.9371V28.8759H25.8213V23.1271C25.8213 19.6271 21.6475 19.9246 21.6475 23.1271V28.8759H18.2V17.9209Z" fill="currentColor"/>
</svg>
