<svg width="24" height="24" viewBox="0 0 24 24" fill="none" xmlns="http://www.w3.org/2000/svg">
<path d="M5.66667 3.8345C5.66636 4.45334 5.42023 5.04671 4.98242 5.48407C4.54462 5.92144 3.95101 6.16698 3.33217 6.16667C2.71333 6.16636 2.11996 5.92023 1.68259 5.48242C1.24523 5.04462 0.999691 4.45101 1 3.83217C1.00031 3.21333 1.24644 2.61996 1.68424 2.18259C2.12205 1.74523 2.71566 1.49969 3.3345 1.5C3.95334 1.50031 4.54671 1.74644 4.98407 2.18424C5.42144 2.62205 5.66698 3.21566 5.66667 3.8345ZM5.73667 7.8945H1.07V22.5012H5.73667V7.8945ZM13.11 7.8945H8.46667V22.5012H13.0633V14.8362C13.0633 10.5662 18.6283 10.1695 18.6283 14.8362V22.5012H23.2367V13.2495C23.2367 6.05117 15 6.3195 13.0633 9.8545L13.11 7.8945Z" fill="#E7DDCF"/>
</svg>
