<svg width="150" height="150" viewBox="0 0 150 150" fill="none" xmlns="http://www.w3.org/2000/svg">
<path d="M75 93.75C72.2187 93.75 69.4999 92.9253 67.1873 91.3801C64.8747 89.8348 63.0723 87.6386 62.008 85.069C60.9436 82.4994 60.6651 79.6719 61.2077 76.944C61.7503 74.2162 63.0896 71.7105 65.0563 69.7438C67.023 67.7771 69.5287 66.4378 72.2566 65.8952C74.9844 65.3526 77.8119 65.6311 80.3815 66.6955C82.9511 67.7598 85.1473 69.5622 86.6926 71.8748C88.2378 74.1874 89.0625 76.9062 89.0625 79.6875C89.0588 83.416 87.576 86.9907 84.9396 89.6271C82.3032 92.2635 78.7285 93.7463 75 93.75Z" fill="#789904"/>
<path d="M133.594 46.875C129.895 46.8732 126.345 48.3341 123.72 50.9391L87.607 24.9398C88.5628 23.0163 89.0609 20.8979 89.0625 18.75C89.0625 15.0204 87.5809 11.4435 84.9437 8.80631C82.3065 6.16908 78.7296 4.6875 75 4.6875C71.2704 4.6875 67.6936 6.16908 65.0563 8.80631C62.4191 11.4435 60.9375 15.0204 60.9375 18.75C60.9391 20.8979 61.4372 23.0163 62.393 24.9398L26.2805 50.9391C24.6381 49.3147 22.6209 48.12 20.4072 47.4604C18.1934 46.8009 15.8513 46.6968 13.5878 47.1574C11.3242 47.618 9.20902 48.6291 7.42907 50.1013C5.64911 51.5736 4.25922 53.4616 3.38225 55.5986C2.50527 57.7355 2.16821 60.0556 2.40085 62.3538C2.6335 64.652 3.42868 66.8575 4.71613 68.7753C6.00357 70.6932 7.74363 72.2644 9.78252 73.35C11.8214 74.4357 14.0963 75.0024 16.4063 75C16.9871 74.9969 17.5672 74.957 18.143 74.8805L31.268 118.659C29.1069 119.724 27.2554 121.326 25.8912 123.311C24.527 125.297 23.6957 127.599 23.4771 129.999C23.2585 132.398 23.6599 134.813 24.6428 137.012C25.6257 139.212 27.1572 141.122 29.0903 142.559C31.0235 143.997 33.2935 144.913 35.6828 145.222C38.0721 145.53 40.5004 145.219 42.7351 144.319C44.9697 143.419 46.9357 141.96 48.4445 140.082C49.9533 138.204 50.9543 135.97 51.3516 133.594H98.6485C99.0452 135.97 100.046 138.205 101.555 140.084C103.064 141.963 105.03 143.422 107.265 144.322C109.5 145.223 111.929 145.534 114.319 145.225C116.708 144.917 118.979 144 120.912 142.561C122.846 141.123 124.377 139.213 125.359 137.012C126.342 134.812 126.743 132.396 126.523 129.997C126.303 127.597 125.471 125.295 124.105 123.309C122.74 121.324 120.887 119.723 118.725 118.659L131.85 74.8805C132.428 74.9573 133.011 74.9972 133.594 75C137.323 75 140.9 73.5184 143.537 70.8812C146.175 68.244 147.656 64.6671 147.656 60.9375C147.656 57.2079 146.175 53.631 143.537 50.9938C140.9 48.3566 137.323 46.875 133.594 46.875ZM114.237 117.307C113.661 117.232 113.081 117.192 112.5 117.187C110.329 117.19 108.189 117.698 106.249 118.671L88.4941 94.2598C88.1394 93.772 87.4378 93.7088 86.9752 94.0958C86.3538 94.6157 85.6993 95.0947 85.0159 95.5298C84.5092 95.8524 84.3562 96.5362 84.7095 97.022L102.457 121.42C100.453 123.468 99.1242 126.081 98.6485 128.906H51.3516C50.8749 126.082 49.546 123.472 47.543 121.425L65.2905 97.0266C65.6439 96.5409 65.4909 95.8571 64.9842 95.5345C64.3007 95.0994 63.6462 94.6203 63.0248 94.1004C62.5622 93.7134 61.8607 93.7766 61.5059 94.2644L43.7508 118.671C41.8107 117.698 39.6706 117.19 37.5 117.187C36.9192 117.192 36.3392 117.232 35.7633 117.307L22.6383 73.5281C25.3218 72.1977 27.5132 70.049 28.8961 67.3922L55.5087 75.9064C56.0816 76.0897 56.6834 75.7286 56.8301 75.1453C57.027 74.3624 57.2747 73.593 57.5716 72.8423C57.7934 72.2816 57.5133 71.6356 56.9391 71.4518L30.3117 62.9273C30.4104 62.2685 30.4629 61.6036 30.4688 60.9375C30.4669 58.7896 29.9688 56.6713 29.0133 54.7477L65.1258 28.7484C67.1802 30.7764 69.8097 32.1218 72.6563 32.6016V59.951C72.6563 60.5579 73.1927 61.0226 73.7981 60.9799C74.5984 60.9234 75.4017 60.9234 76.202 60.9799C76.8074 61.0226 77.3438 60.5579 77.3438 59.951V32.6016C80.1903 32.1218 82.8198 30.7764 84.8742 28.7484L120.987 54.7477C120.031 56.6713 119.533 58.7896 119.531 60.9375C119.537 61.6036 119.59 62.2685 119.688 62.9273L93.0705 71.4448C92.4962 71.6286 92.216 72.2746 92.4378 72.8354C92.7348 73.5861 92.9825 74.3554 93.1793 75.1383C93.326 75.7216 93.9278 76.0826 94.5007 75.8994L121.113 67.3851C122.496 70.042 124.688 72.1907 127.371 73.5211L114.237 117.307Z" fill="#789904"/>
</svg>
