<svg width="32" height="32" viewBox="0 0 32 32" fill="none" xmlns="http://www.w3.org/2000/svg">
<path d="M20 1V9H28" stroke="#3D3D3D" stroke-width="2" stroke-miterlimit="10"/>
<path d="M28 13V9L20 1H4V13" stroke="#3D3D3D" stroke-width="2" stroke-miterlimit="10" stroke-linecap="square"/>
<path d="M4 27V31H28V27" stroke="#3D3D3D" stroke-width="2" stroke-miterlimit="10" stroke-linecap="square"/>
<path d="M13.143 19.1051C13.143 19.7431 12.955 20.2361 12.579 20.5841C12.203 20.9321 11.668 21.1051 10.975 21.1051H10.541V23.0001H8.99805V17.2891H10.975C11.696 17.2891 12.238 17.4461 12.6 17.7621C12.962 18.0781 13.143 18.5241 13.143 19.1051ZM10.541 19.8481H10.822C11.054 19.8481 11.238 19.7831 11.375 19.6531C11.512 19.5231 11.58 19.3431 11.58 19.1141C11.58 18.7281 11.367 18.5361 10.939 18.5361H10.541V19.8481Z" fill="#3D3D3D"/>
<path d="M18.9 20.0231C18.9 20.9761 18.638 21.7111 18.113 22.2261C17.588 22.7411 16.851 23.0001 15.9 23.0001H14.052V17.2891H16.029C16.946 17.2891 17.654 17.5231 18.152 17.9921C18.65 18.4611 18.9 19.1381 18.9 20.0231ZM17.299 20.0781C17.299 19.5551 17.195 19.1671 16.988 18.9141C16.781 18.6611 16.467 18.5351 16.045 18.5351H15.596V21.7341H15.94C16.409 21.7341 16.752 21.5981 16.971 21.3261C17.19 21.0541 17.299 20.6381 17.299 20.0781Z" fill="#3D3D3D"/>
<path d="M21.4431 23.0001H19.9231V17.2891H23.2981V18.5271H21.4431V19.6171H23.1541V20.8551H21.4431V23.0001Z" fill="#3D3D3D"/>
<path d="M31 13H1V27H31V13Z" stroke="#3D3D3D" stroke-width="2" stroke-miterlimit="10" stroke-linecap="square"/>
</svg>
