<svg width="100%" viewBox="0 0 962 151" fill="none" xmlns="http://www.w3.org/2000/svg">
<path d="M328.274 29.6968L325.568 38.1032C323.981 38.5151 322.424 38.9181 320.901 39.314C313.397 41.2601 306.519 43.04 300.174 45.0214L301.596 40.6079C304.231 44.1235 314.88 40.0882 322.014 35.413C325.005 33.4493 327.371 31.3724 328.275 29.6968H328.274Z" fill="#3D3D3D"/>
<path d="M324.823 4.4029C317.065 8.32863 310.333 13.4262 309.687 15.4395L302.72 37.0937C305.242 40.7985 316.112 36.2541 323.442 30.9586C324.973 29.8503 326.349 28.7102 327.462 27.6073C324.496 26.5326 321.596 24.6007 318.932 21.1858L316.098 17.5482L320.621 17.3696C322.086 17.3096 324.046 16.926 326.119 16.5195C328.169 16.1147 330.46 15.6657 332.869 15.4041L337.508 0.980926L337.51 0.975623C338.159 -1.03585 332.58 0.482477 324.823 4.4029Z" fill="#3D3D3D"/>
<path d="M298.616 109.132C291.485 113.809 280.829 117.846 278.191 114.33L266.778 149.807C266.134 151.818 271.442 151.154 279.195 147.23C282.451 145.582 285.572 143.582 288.149 141.658C291.712 139.004 294.227 136.51 294.604 135.343L304.876 103.417C303.97 105.098 301.604 107.174 298.616 109.134" fill="#3D3D3D"/>
<path d="M314.052 73.8994L306.757 96.5771C306.38 97.7454 303.865 100.238 300.305 102.889C297.727 104.812 294.606 106.815 291.352 108.462C283.598 112.386 278.289 113.054 278.934 111.039L288.993 79.7694C296.904 78.8256 305.219 77.438 314.054 73.8994H314.052Z" fill="#3D3D3D"/>
<path d="M103.99 89.1143C107.211 79.4405 108.887 72.7433 108.773 66.4155C108.846 60.6427 104.29 59.3364 104.29 59.3364L105.404 55.9869C110.584 53.1995 119.955 49.4912 126.426 49.5C138.625 49.5177 137.752 57.7068 134.466 67.5679C130.626 79.1029 125.798 91.3839 121.525 104.22C116.57 119.104 113.036 131.942 124.128 131.96C134.293 131.974 143.052 127.891 148.667 123.244C151.02 116.172 156.221 101.662 162.416 83.0587C168.426 65.0103 164.488 60.724 160.854 59.4142L161.97 56.0665C165.671 53.8358 175.97 49.5725 182.439 49.5813C195.193 49.599 194.256 57.9754 191.344 66.7177C190.043 70.6275 188.311 74.7177 174.31 116.768C170.779 127.371 170.154 132.582 172.307 135.007C174.154 137.241 177.726 138.178 181.79 138.185L180.427 142.279C177.901 143.765 166.371 147.843 158.792 147.831C147.7 147.816 146.36 137.948 147.851 131.251C138.531 139.801 123.853 147.781 109.249 147.762C94.4612 147.74 88.1324 136.752 91.8487 125.026C94.7015 116.467 95.9374 113.307 103.99 89.1179" fill="#3D3D3D"/>
<path d="M274.303 55.8546C274.293 56.1922 274.265 56.567 274.221 56.9717C268.69 60.8621 263.654 65.7105 258.978 72.0312C257.142 62.8276 248.904 60.0968 242.745 60.0879C236.832 60.0826 227.398 62.3027 224.548 70.8611C219.531 85.9313 268.946 88.6056 259.466 117.072C252.84 136.983 233.471 147.937 212.583 147.907C195.576 147.88 186.227 137.074 189.945 125.91C190.812 123.303 192.17 120.888 194.391 118.656C192.161 127.589 204.469 135.606 216.117 135.626C224.435 135.637 234.605 132.863 237.393 124.489C242.163 110.164 195.646 107.677 205.37 78.4669C211.443 60.2346 229.331 48.719 250.404 48.7491C263.716 48.7685 270.609 53.0584 274.301 55.8564L274.303 55.8546Z" fill="#3D3D3D"/>
<path d="M393.97 138.516L392.607 142.611C387.244 145.395 376.883 148.17 370.043 148.163C361.354 148.15 358.043 139.767 359.037 134.558C351.381 143.668 338.619 148.117 330.115 148.104C310.52 148.073 306.165 135.599 310.194 123.505C316.263 105.271 337.908 94.6927 358.8 94.7209C362.683 94.7262 366.377 95.2901 369.58 96.2269C371.066 92.3188 372.551 88.4143 373.79 84.6901C378.25 71.2974 379.996 59.9426 368.718 59.9285C360.769 59.9161 353.611 66.4225 352.55 74.6098C348.539 77.2116 344.409 78.5072 340.895 78.5037C335.165 78.4948 331.411 74.7671 333.458 68.6284C337.484 56.5313 356.476 48.929 372.374 48.9502C394.557 48.9838 405.755 58.6788 399.315 78.0282C396.896 85.2858 394.545 91.2371 389.776 105.563C387.361 112.821 382.405 127.707 383.075 132.357C384.232 138.878 393.415 138.517 393.971 138.517M333.427 119.817C330.577 128.372 335.129 133.591 341.414 133.602C348.808 133.618 356.333 129.902 359.293 128.228C361.711 119.857 364.931 110.183 367.35 102.926C359.09 103.288 338.259 105.303 333.427 119.818" fill="#3D3D3D"/>
<path d="M427.042 145.506L401.16 145.471L423.209 82.0264C430.145 61.1888 421.46 59.5008 421.278 59.5008L422.393 56.1513C427.51 53.5547 435.65 49.6573 444.524 49.6679C455.06 49.6856 455.172 57.6908 451.952 67.3646C450.029 73.1321 446.874 79.8294 444.583 86.7122L438.513 104.946C433.803 119.083 429.594 132.297 427.042 145.508M456.049 12.8286C462.705 12.8357 466.514 18.612 464.099 25.8696C461.806 32.7542 454.219 38.3255 447.564 38.3185C440.54 38.3078 436.481 32.7171 438.774 25.8325C441.187 18.5767 449.023 12.8198 456.049 12.8286Z" fill="#3D3D3D"/>
<path d="M501.907 145.614C501.907 145.614 502.281 142.823 503.335 139.659C508.229 124.962 514.855 106.171 519.75 91.4742C525.633 74.3572 525.955 66.1664 517.081 66.154C506.545 66.1399 498.589 70.5959 492.048 75.241C489.323 83.4248 479.476 111.893 474.081 130.873C472.967 134.781 471.288 141.48 470.668 145.572L444.787 145.536L446.891 139.769L466.834 82.092C473.959 61.2544 464.904 59.5664 464.904 59.5664L466.02 56.2187C471.135 53.6186 479.278 49.7229 488.151 49.7353C495.917 49.7477 498.186 55.1475 497.192 60.3565L495.273 65.569C504.465 58.5094 518.226 48.8462 531.719 48.8692C547.249 48.8886 553.332 60.0648 549.24 73.4646C539.327 103.23 531.654 122.392 527.052 145.655L501.912 145.621L501.907 145.614Z" fill="#3D3D3D"/>
<path d="M625.037 138.531L623.675 142.625C618.309 145.409 607.951 148.184 601.108 148.175C592.422 148.165 589.111 139.783 590.103 134.572C582.446 143.684 569.683 148.131 561.182 148.119C541.584 148.089 537.231 135.613 541.256 123.52C547.328 105.287 568.976 94.7051 589.866 94.7369C593.745 94.7439 597.443 95.306 600.642 96.2411C602.129 92.3348 603.615 88.4285 604.855 84.7043C609.314 71.3115 611.058 59.9586 599.782 59.9427C591.832 59.9321 584.675 66.4349 583.611 74.6257C579.6 77.2258 575.475 78.5214 571.96 78.5143C566.23 78.5072 562.478 74.7812 564.522 68.6408C568.549 56.5454 587.54 48.9414 603.439 48.9644C625.621 48.998 636.818 58.693 630.377 78.0406C627.962 85.2964 625.609 91.2513 620.841 105.575C618.424 112.833 613.468 127.716 614.139 132.372C615.298 138.887 624.481 138.528 625.034 138.53M564.496 119.831C561.645 128.389 566.199 133.607 572.481 133.618C579.878 133.627 587.403 129.916 590.361 128.241C592.779 119.873 596.001 110.198 598.418 102.94C590.158 103.299 569.328 105.317 564.496 119.831Z" fill="#3D3D3D"/>
<path d="M632.894 118.811C649.803 68.0187 662.131 33.2281 661.51 34.529C665.35 22.9957 663.825 14.8014 659.143 13.306L660.26 9.95827C660.26 9.95827 671.175 4.38872 680.604 4.40286C692.62 4.41877 693.962 10.9357 690.244 22.1013C680.776 47.2164 678.175 54.4722 675.765 57.8182C682.491 53.1766 692.541 49.0954 700.305 49.1042C719.159 49.1325 732.874 64.6003 722.159 96.7891C713.796 121.908 689.103 148.303 658.044 148.257C643.253 148.237 631.68 143.566 630.644 135.56C629.912 131.092 630.415 126.254 632.892 118.809M673.594 66.5623C669.009 80.3315 664.735 92.0521 661.39 102.097C653.648 125.356 651.285 138.012 663.484 138.028C679.938 138.053 691.437 116.289 696.084 102.334C703.952 78.7071 699.479 63.2499 685.798 63.2304C681.548 63.2234 677.231 64.5208 673.594 66.5623Z" fill="#3D3D3D"/>
<path d="M714.306 145.918C720.994 126.942 726.938 109.639 732.451 93.0809C743.416 60.1479 752.274 34.6598 752.274 34.6598C756.731 21.2636 753.6 14.5593 749.908 13.4369L751.022 10.0891C751.022 10.0891 762.123 4.51958 771.732 4.53372C783.938 4.54963 784.604 11.4378 780.701 23.1619C779.463 26.8808 777.788 31.3457 775.81 36.1817C770.98 48.4626 764.354 67.2517 758.407 85.1145C749.673 111.349 743.42 129.024 740.188 145.955L714.306 145.92V145.918Z" fill="#3D3D3D"/>
<path d="M842.624 94.9118C838.43 96.3948 834.239 96.7625 829.62 96.7536L788.767 96.1367C788.271 98.1853 787.34 100.976 786.659 103.023C780.771 122.371 790.861 132.066 802.322 132.085C811.011 132.098 825.187 128.953 839.076 115.011C837.438 135.482 810.183 148.476 788.923 148.444C767.662 148.414 752.771 135.362 762.937 103.734C772.909 73.779 797.229 50.1734 822.554 50.2105C857.674 50.26 848.999 80.7767 845.962 89.8902L844.538 94.1712L842.625 94.9118H842.624ZM791.861 87.3944C802.83 87.2248 813.429 86.4965 824.952 86.3268C828.545 74.9756 828.569 61.5741 817.662 61.5582C807.31 61.544 799.035 73.6305 791.86 87.3944" fill="#3D3D3D"/>
<path d="M913.687 76.9557C913.833 64.2983 904.104 60.749 897.076 60.7349C891.161 60.7278 881.731 62.9479 878.881 71.5063C873.862 86.5782 923.279 89.2561 913.8 117.721C907.175 137.627 887.806 148.582 866.917 148.554C849.91 148.529 840.56 137.719 844.28 126.555C845.144 123.951 846.505 121.537 848.726 119.304C846.494 128.236 858.803 136.255 870.453 136.275C878.77 136.282 888.94 133.508 891.73 125.134C896.5 110.81 849.981 108.323 859.703 79.1139C865.778 60.8816 883.665 49.3642 904.739 49.3961C918.049 49.4155 924.942 53.7036 928.636 56.5016C928.506 60.7826 925.713 70.8329 916.767 77.7051L913.687 76.9575V76.9557Z" fill="#3D3D3D"/>
<path d="M0.774145 126.942C1.70278 124.149 3.6184 121.174 6.58109 118.387C6.13652 126.949 20.4831 132.738 30.4663 132.755C39.7063 132.77 52.7775 129.622 56.9915 116.969C63.6172 97.0616 12.8584 88.4253 24.3779 53.8202C30.0166 36.8906 48.5343 19.0455 73.4906 19.0826C90.127 19.1056 98.3748 25.4458 102.989 28.8059C102.985 30.4797 102.427 32.7139 101.561 35.3175C100.011 39.9697 96.5502 46.4796 90.8737 50.7535L86.9326 49.815C87.1403 36.9702 75.686 31.3706 67.3678 31.36C60.5275 31.3494 50.0482 34.4991 46.5792 44.9206C38.8377 68.1745 94.3462 74.2107 82.0165 111.236C75.3908 131.143 52.3175 147.677 26.2523 147.64C7.94915 147.613 -2.81851 137.735 0.775861 126.944" fill="#3D3D3D"/>
<path d="M355.525 34.7166C340.799 54.1367 327.609 64.2117 315.395 69.7247C312.066 71.2289 308.808 72.3919 305.614 73.3128C300.633 74.7498 295.799 75.6 291.07 76.2275C290.742 76.2717 290.414 76.3124 290.088 76.353C278.849 77.783 268.194 78.0958 257.545 82.2814C258.722 80.3159 259.921 78.4741 261.148 76.7436C264.553 71.9288 268.16 67.9819 272.039 64.6695C279.568 58.2356 288.137 54.1879 298.309 50.8084C305.837 48.3055 314.246 46.1668 323.766 43.6993C333.188 41.2548 343.7 38.485 355.525 34.7148V34.7166Z" fill="#789904"/>
<path d="M353.753 28.9947C345.487 24.6518 336.739 28.4468 328.893 26.027C325.994 25.1361 323.217 23.3951 320.633 20.0827C323.545 19.9678 327.584 18.8207 331.959 18.2392C339.621 17.2175 348.31 17.9369 353.753 28.9947Z" fill="#3D3D3D"/>
<path d="M956.957 60.3387C956.708 59.2057 956.257 58.587 955.458 58.2795V58.177C956.456 57.8676 957.156 57.1447 957.156 56.2185C957.156 55.3966 956.806 54.7285 956.358 54.3679C955.755 54.0055 955.06 53.7492 953.509 53.7492C952.156 53.7492 951.107 53.8518 950.359 54.0055V62.4473H952.259V59.0501H953.158C954.207 59.0501 954.708 59.4637 954.854 60.3899C955.107 61.3691 955.258 62.138 955.505 62.4473H957.556C957.352 62.1398 957.206 61.6254 956.954 60.3387H956.957ZM953.208 57.6608H952.309V55.2411C952.509 55.1898 952.858 55.1368 953.357 55.1368C954.559 55.1368 955.108 55.6529 955.108 56.4253C955.108 57.3002 954.257 57.6608 953.208 57.6608ZM956.957 60.3387C956.708 59.2057 956.257 58.587 955.458 58.2795V58.177C956.456 57.8676 957.156 57.1447 957.156 56.2185C957.156 55.3966 956.806 54.7285 956.358 54.3679C955.755 54.0055 955.06 53.7492 953.509 53.7492C952.156 53.7492 951.107 53.8518 950.359 54.0055V62.4473H952.259V59.0501H953.158C954.207 59.0501 954.708 59.4637 954.854 60.3899C955.107 61.3691 955.258 62.138 955.505 62.4473H957.556C957.352 62.1398 957.206 61.6254 956.954 60.3387H956.957ZM953.208 57.6608H952.309V55.2411C952.509 55.1898 952.858 55.1368 953.357 55.1368C954.559 55.1368 955.108 55.6529 955.108 56.4253C955.108 57.3002 954.257 57.6608 953.208 57.6608ZM953.558 49.5796C948.862 49.5796 945.113 53.3374 945.113 58.0214C945.113 62.7054 948.862 66.5657 953.558 66.5657C958.255 66.5657 961.957 62.8079 961.957 58.0214C961.957 53.2349 958.31 49.5796 953.558 49.5796ZM953.606 64.7664C949.911 64.7664 947.207 61.7792 947.207 58.0214C947.207 54.2636 949.911 51.2782 953.558 51.2782C957.206 51.2782 959.856 54.3131 959.856 58.0727C959.856 61.8322 957.209 64.7664 953.606 64.7664ZM955.458 58.2795V58.177C956.456 57.8676 957.156 57.1447 957.156 56.2185C957.156 55.3966 956.806 54.7285 956.358 54.3679C955.755 54.0055 955.06 53.7492 953.509 53.7492C952.156 53.7492 951.107 53.8518 950.359 54.0055V62.4473H952.259V59.0501H953.158C954.207 59.0501 954.708 59.4637 954.854 60.3899C955.107 61.3691 955.258 62.138 955.505 62.4473H957.556C957.352 62.1398 957.206 61.6254 956.954 60.3387C956.705 59.2057 956.253 58.587 955.455 58.2795H955.458ZM953.208 57.6608H952.309V55.2411C952.509 55.1898 952.858 55.1368 953.357 55.1368C954.559 55.1368 955.108 55.6529 955.108 56.4253C955.108 57.3002 954.257 57.6608 953.208 57.6608ZM956.957 60.3387C956.708 59.2057 956.257 58.587 955.458 58.2795V58.177C956.456 57.8676 957.156 57.1447 957.156 56.2185C957.156 55.3966 956.806 54.7285 956.358 54.3679C955.755 54.0055 955.06 53.7492 953.509 53.7492C952.156 53.7492 951.107 53.8518 950.359 54.0055V62.4473H952.259V59.0501H953.158C954.207 59.0501 954.708 59.4637 954.854 60.3899C955.107 61.3691 955.258 62.138 955.505 62.4473H957.556C957.352 62.1398 957.206 61.6254 956.954 60.3387H956.957ZM953.208 57.6608H952.309V55.2411C952.509 55.1898 952.858 55.1368 953.357 55.1368C954.559 55.1368 955.108 55.6529 955.108 56.4253C955.108 57.3002 954.257 57.6608 953.208 57.6608ZM956.957 60.3387C956.708 59.2057 956.257 58.587 955.458 58.2795V58.177C956.456 57.8676 957.156 57.1447 957.156 56.2185C957.156 55.3966 956.806 54.7285 956.358 54.3679C955.755 54.0055 955.06 53.7492 953.509 53.7492C952.156 53.7492 951.107 53.8518 950.359 54.0055V62.4473H952.259V59.0501H953.158C954.207 59.0501 954.708 59.4637 954.854 60.3899C955.107 61.3691 955.258 62.138 955.505 62.4473H957.556C957.352 62.1398 957.206 61.6254 956.954 60.3387H956.957ZM953.208 57.6608H952.309V55.2411C952.509 55.1898 952.858 55.1368 953.357 55.1368C954.559 55.1368 955.108 55.6529 955.108 56.4253C955.108 57.3002 954.257 57.6608 953.208 57.6608Z" fill="#3D3D3D"/>
</svg>
