<svg width="150" height="150" viewBox="0 0 150 150" fill="none" xmlns="http://www.w3.org/2000/svg">
<path d="M103.125 142.969H79.6875V128.906H70.3125V142.969H46.875C45.5807 142.969 44.5312 144.018 44.5312 145.312C44.5312 146.607 45.5807 147.656 46.875 147.656H103.125C104.419 147.656 105.469 146.607 105.469 145.312C105.469 144.018 104.419 142.969 103.125 142.969Z" fill="#789904"/>
<path d="M76.5656 7.63105C75.6798 6.83683 74.3351 6.83111 73.4425 7.62304C71.6881 9.18287 30.4688 46.2079 30.4688 79.6876C30.4688 104.242 50.4456 124.219 75 124.219C99.5544 124.219 119.531 104.242 119.531 79.6876C119.531 46.6005 78.3199 9.2069 76.5656 7.63105ZM95.4071 79.001L77.3438 97.0643V105.469C77.3438 106.763 76.2943 107.813 75 107.813C73.7057 107.813 72.6562 106.763 72.6562 105.469V83.0018L54.5929 64.9385C53.6774 64.023 53.6774 62.5398 54.5929 61.6243C55.5084 60.7088 56.9916 60.7088 57.9071 61.6243L72.6562 76.3734V49.2189C72.6562 47.9245 73.7057 46.8751 75 46.8751C76.2943 46.8751 77.3438 47.9245 77.3438 49.2189V90.4359L92.0929 75.6868C93.0084 74.7713 94.4916 74.7713 95.4071 75.6868C96.3226 76.6023 96.3226 78.0855 95.4071 79.001Z" fill="#789904"/>
</svg>
