<svg width="13" height="12" viewBox="0 0 13 12" fill="none" xmlns="http://www.w3.org/2000/svg">
<path d="M3.25357 2.13492C3.27948 2.25905 3.30322 2.3821 3.32589 2.50623C3.44354 3.04268 3.54716 3.57374 3.73066 4.09292C3.78787 4.25591 3.83428 4.42213 3.86126 4.59268C3.96596 5.2511 4.04044 6.64782 4.03828 6.69208C3.96381 6.56903 3.9012 6.45785 3.82996 6.35855C3.46837 5.85448 3.01827 5.50476 2.54657 5.21332C1.92593 4.83014 1.26319 4.64557 0.583174 4.60455C0.530285 4.60131 0.477395 4.61426 0.403997 4.62182C0.438537 4.65528 0.45041 4.66823 0.462283 4.67903C0.903752 5.05681 1.35601 5.43244 1.84066 5.77676C2.50448 6.24629 3.18233 6.66833 3.94977 6.85075C4.06203 6.87665 4.07066 6.89824 4.03289 7.05691C3.95841 7.03424 3.88501 7.00186 3.80945 6.98999C3.19097 6.89824 2.59515 7.02129 2.03063 7.31272C1.40243 7.6387 0.777464 7.96467 0.137389 8.22588C0.111484 8.23668 0.0866577 8.25287 0.0585938 8.2669C1.45963 8.42881 2.81858 8.17623 4.04152 7.18644C4.05555 7.69051 3.93358 11.1575 3.85911 11.6292C3.94654 11.6227 4.00914 11.6184 4.08254 11.613C4.09333 11.5256 4.10628 11.4414 4.11384 11.3561C4.16781 10.743 4.17105 8.55725 4.17536 7.95172C4.18292 6.97596 4.13651 6.00235 3.97568 5.04926C3.91847 4.71357 3.9012 4.40486 3.95409 4.08213C4.05663 3.45501 3.95625 2.80522 3.74469 2.1727C3.6184 1.79707 3.49751 1.41821 3.36367 1.04366C3.24278 0.703656 3.12512 0.36257 2.97833 0.000976562C3.02798 0.305363 3.05604 0.586003 3.09706 0.865563C3.15859 1.29084 3.21687 1.71396 3.25357 2.136" fill="#3D3D3D"/>
<path d="M0.667366 1.40957C0.67816 1.42576 0.687875 1.44303 0.699748 1.45707C1.37544 2.25689 1.93564 3.16141 2.5347 4.04867C2.77217 4.40055 2.97077 4.7902 3.205 5.14424C3.43707 5.49288 3.70583 5.81238 3.91739 6.12432C3.87853 5.99156 3.79542 5.81238 3.7706 5.62889C3.64971 4.72436 3.28487 3.90727 2.7441 3.2564C2.27565 2.69188 1.74459 2.21695 1.20598 1.7744C1.03544 1.63408 0.855179 1.51211 0.67816 1.38799C0.673843 1.39446 0.670605 1.40202 0.666287 1.40849" fill="#3D3D3D"/>
<path d="M4.08362 11.613L4.09225 11.45L4.09981 11.3939C4.10844 11.327 4.12032 11.2611 4.12355 11.1953C4.17752 9.80934 4.24013 6.42331 3.98431 5.08272C3.97028 5.00608 3.88933 4.64772 3.84831 4.23756C3.82241 3.97743 3.94977 3.66764 3.99187 3.41075L3.96273 3.92993C3.92279 4.17172 3.97028 4.40702 4.01993 4.65636C4.03504 4.73084 4.048 4.80747 4.06311 4.88411C4.35454 6.38122 4.26387 11.0226 4.17752 11.4036L4.08254 11.613L4.08362 11.613Z" fill="#3D3D3D"/>
<path d="M4.67728 6.65214C5.06586 6.59062 5.46955 6.36611 5.74263 6.15886C5.94555 6.00451 6.1528 5.80051 6.29635 5.5706C6.29959 4.70493 6.31362 3.8112 6.3255 3.0729C6.33413 2.53321 6.34169 2.068 6.34169 1.79491C6.34169 1.34049 5.91209 0.880675 5.09176 0.880675C4.87373 0.880675 4.68591 0.936803 4.50458 0.989692C4.48623 0.995089 4.46788 1.00049 4.44845 1.00588C4.47543 1.11598 4.53372 1.47326 4.59201 2.60661C4.61683 3.19379 4.66001 5.32882 4.67728 6.64998" fill="#3D3D3D"/>
<path d="M9.81299 8.34138C8.75951 7.02237 7.89492 5.79619 7.88629 5.78324L7.87873 5.77352V5.66666L7.89168 5.65479C8.10001 5.46914 8.31912 5.27593 8.54471 5.07624C10.1044 3.69895 12.0452 1.98596 12.0452 1.40957C12.0452 1.13973 11.8951 0.972422 11.1471 0.972422C11.0392 0.972422 10.8557 0.982137 10.7823 0.985375C10.6204 1.86399 9.91013 2.71239 6.75509 5.77352C6.47553 6.08978 6.10962 6.35315 5.81603 6.5183C5.52891 6.6802 5.11119 6.86154 4.6816 6.95545C4.68375 7.17672 4.68483 7.36346 4.68483 7.4973C4.68483 10.7203 4.54451 11.5396 4.49594 11.7242C4.60172 11.7414 4.70318 11.7619 4.80141 11.7803C5.03671 11.8267 5.25907 11.8699 5.47494 11.8699C6.09235 11.8699 6.35572 11.5687 6.35572 10.8639C6.35572 10.3566 6.33953 9.86115 6.32334 9.38082C6.30823 8.9264 6.2942 8.49789 6.2942 8.08125V6.48268L6.54137 6.52046C6.75725 6.57443 7.09834 7.12599 7.57111 7.88804C8.53716 9.44883 9.99756 11.8084 11.5627 11.8084C12.3409 11.8084 12.8374 11.6583 12.9508 11.6195V11.5633C12.2697 11.1812 11.214 10.0965 9.81191 8.3403" fill="#3D3D3D"/>
</svg>
