<svg width="119" height="48" viewBox="0 0 119 48" fill="none" xmlns="http://www.w3.org/2000/svg">
<g opacity="0.8" clip-path="url(#clip0_33_801)">
<path d="M54.3235 44.2644C54.7337 43.3043 54.7337 41.8773 54.7337 40.8473V38.3555C54.7337 37.7794 54.7119 37.151 54.3584 36.7975H55.541C55.7636 36.7975 55.8684 36.7975 56.008 36.9852C56.2524 37.3125 57.003 38.565 57.3652 39.0799L59.6956 42.3704C59.7785 42.4882 59.8702 42.6497 59.94 42.6497C60.0229 42.6497 60.0229 42.5319 60.0229 42.4271V38.2944C60.0229 37.5001 59.9051 37.0986 59.7436 36.7975H60.9612C60.6819 37.3343 60.6121 37.9453 60.6121 38.5431V43.2257C60.6121 43.6098 60.6252 43.9633 60.6339 44.3124H59.8047L55.5192 38.2158C55.4712 38.146 55.4363 38.0893 55.3927 38.0893C55.349 38.0893 55.3228 38.1591 55.3228 38.2638V41.2707C55.3228 42.2089 55.301 43.3916 55.6763 44.2687H54.3322L54.3235 44.2644Z" fill="black"/>
<path d="M69.2746 44.2644L68.0003 40.987H65.3644C64.8626 42.0038 64.3345 43.1515 64.3345 43.8192C64.3345 43.972 64.3476 44.1116 64.3694 44.2644H62.9075L63.165 43.9371C63.8327 43.0948 66.2416 38.0718 66.2416 37.1117L66.2547 36.7975H67.6381C68.3887 39.1279 69.135 41.6678 70.3089 43.8323L70.5445 44.2644H69.279H69.2746ZM66.9791 38.0151C66.9573 37.9322 66.8875 37.7358 66.7784 37.7358C66.6693 37.7358 66.6038 37.9583 66.5776 38.0151L65.5608 40.52H67.7952L66.9748 38.0151H66.9791Z" fill="black"/>
<path d="M73.9092 44.2644C74.1666 43.8672 74.1666 43.2563 74.1666 42.7326V37.3823H72.6087C72.3381 37.3823 72.0719 37.4172 71.7751 37.6398L72.0108 36.7975H77.8979C77.6971 37.2994 76.9858 37.3823 76.5058 37.3823H75.2184V42.7326C75.2184 43.2606 75.2184 43.8672 75.4758 44.2644H73.9092Z" fill="black"/>
<path d="M86.1199 36.7975C85.8624 37.2077 85.8624 37.8143 85.8624 38.3424V42.7413C85.8624 43.2694 85.8624 43.876 86.1199 44.2644L84.7278 44.3342L84.7758 43.5618C84.7758 43.5269 84.754 43.5138 84.719 43.5138C84.6972 43.5138 84.6492 43.5836 84.5794 43.6403C84.1212 44.0244 83.4098 44.4477 82.3188 44.4477C80.9616 44.4477 80.0583 43.8978 80.0233 42.4577V38.338C80.0233 37.81 80.0233 37.2034 79.7659 36.7932H81.3326C81.0751 37.2034 81.0751 37.81 81.0751 38.338V41.7551C81.11 43.0075 81.6249 43.7669 82.9473 43.7669C84.2696 43.7669 84.7278 42.9115 84.7627 41.5194C84.7758 41.0743 84.8107 40.616 84.8107 40.1753V38.338C84.8107 37.81 84.8107 37.2034 84.5532 36.7932H86.1199V36.7975Z" fill="black"/>
<path d="M94.1759 43.1777C94.5163 43.636 94.6778 43.8192 95.1578 44.2644H94.1978C93.6959 44.2644 93.4733 43.9938 93.2158 43.6185L91.7888 41.5805C91.2957 40.8779 91.2171 40.6771 90.5363 40.6204V42.7282C90.5363 43.2563 90.5363 43.8629 90.7938 44.26H89.166C89.5064 43.7232 89.4802 43.1603 89.4802 42.654V38.3249C89.4802 37.7969 89.4802 37.1903 89.2227 36.7932C90.2047 36.7932 91.1429 36.6753 92.055 36.6753C93.2508 36.6753 93.8704 37.3299 93.8704 38.2464C93.8704 39.3243 92.9802 40.0269 92.1379 40.3629L94.1759 43.1734V43.1777ZM90.5363 40.1666C90.7109 40.1884 90.8854 40.2015 91.0644 40.2015C92.199 40.2015 92.8187 39.5949 92.8187 38.482C92.8187 37.3125 92.151 37.1728 91.108 37.1466H90.5581C90.545 37.3212 90.5363 37.5219 90.5363 37.7096V40.1666Z" fill="black"/>
<path d="M102.734 44.2644L101.459 40.987H98.8278C98.3259 42.0038 97.7979 43.1515 97.7979 43.8192C97.7979 43.972 97.811 44.1116 97.8328 44.2644H96.3708L96.6283 43.9371C97.296 43.0948 99.705 38.0718 99.705 37.1117L99.7181 36.7975H101.101C101.852 39.1279 102.598 41.6678 103.768 43.8323L104.004 44.2644H102.738H102.734ZM100.438 38.0151C100.416 37.9322 100.346 37.7358 100.237 37.7358C100.128 37.7358 100.063 37.9583 100.037 38.0151L99.0198 40.52H101.254L100.434 38.0151H100.438Z" fill="black"/>
<path d="M106.831 38.3293C106.831 37.8012 106.831 37.1946 106.574 36.7975H108.141C107.883 37.1946 107.883 37.8056 107.883 38.3293V43.7974H108.773C109.428 43.7974 110.026 43.7058 110.611 43.1297L110.388 44.2295C110.152 44.2513 109.908 44.2644 109.672 44.2644H106.43C106.783 43.8062 106.827 42.1565 106.827 41.6067V38.3293H106.831Z" fill="black"/>
<path d="M112.954 42.8024C113.303 43.2956 113.81 43.9851 115.04 43.9851C115.931 43.9851 116.598 43.457 116.598 42.5231C116.598 40.555 113.251 40.8037 113.251 38.6348C113.251 37.2776 114.364 36.6099 115.603 36.6099C116.21 36.6099 116.808 36.6797 117.406 36.6797V37.7707C116.878 37.2208 116.563 37.0812 115.778 37.0812C114.992 37.0812 114.351 37.4914 114.351 38.3686C114.351 40.1709 117.698 39.9484 117.698 42.1827C117.698 43.636 116.28 44.452 114.971 44.452C114.394 44.452 113.495 44.2644 112.959 44.0418V42.8024H112.954Z" fill="black"/>
<path d="M51.6308 21.1612V20.8295C51.6308 17.718 50.9282 15.9811 48.0785 15.9811C46.263 15.9811 44.3385 16.9805 42.9682 18.2024L42.8198 18.054C43.4133 15.8327 46.4114 13.5372 49.667 13.5372C54.9256 13.5372 55.6282 16.6837 55.6282 20.0527C55.6282 22.0165 55.5191 24.4953 55.5191 26.5333V26.9785C55.5191 28.4229 55.554 31.0894 57.3695 31.0894C58.1114 31.0894 58.7747 30.5701 58.7747 30.5701L58.9231 30.6792C58.9231 30.6792 57.9979 32.9746 54.8122 32.9746C53.2935 32.9746 51.7006 32.3462 51.6657 30.3824L51.5173 30.3082C50.6663 31.8618 48.816 33.1579 46.4812 33.1579C43.3697 33.1579 41.5586 30.9017 41.5586 28.196C41.5586 22.8283 47.594 21.2354 51.6308 21.1612ZM48.2268 30.5264C49.4837 30.5264 51.5217 29.3787 51.5217 27.9735C51.5217 26.494 51.6351 24.5302 51.6351 22.6406C50.1165 22.8981 45.7481 23.5658 45.7481 27.489C45.7481 29.7103 46.9307 30.5264 48.2268 30.5264Z" fill="black"/>
<path d="M60.6251 23.5309C60.6251 21.6805 60.5509 19.756 60.4767 17.9755C60.2935 14.3839 59.7349 14.0522 59.7349 14.0522C60.3633 13.8689 60.9568 13.7205 61.5503 13.7205C63.2523 13.7205 64.4393 14.6108 64.4393 15.7585C64.4393 16.2386 64.2909 16.6837 64.2909 16.6837L64.4393 16.723C65.2903 14.7984 68.2535 13.5372 70.9199 13.5372C75.8076 13.5372 76.3269 16.1644 76.3269 18.8701C76.3269 21.5758 76.1785 24.0153 76.1785 27.201C76.1785 28.8681 76.2135 31.0894 78.0289 31.0894C78.7708 31.0894 79.4341 30.5701 79.4341 30.5701L79.5825 30.6792C79.5825 30.6792 78.6573 32.9746 75.4716 32.9746C73.8438 32.9746 72.1418 32.1978 72.1418 29.9765C72.1418 26.7952 72.2509 24.5695 72.2509 20.7946C72.2509 18.2417 72.1767 15.7978 68.9953 15.7978C66.9966 15.7978 64.5528 17.6132 64.5528 21.0914C64.5528 24.5695 64.7011 26.9392 64.7011 30.4566C64.7011 32.4553 63.6625 32.9746 62.3707 32.9746C61.5939 32.9746 60.6295 32.7913 59.7436 32.6037C60.0011 32.4946 60.6339 30.1598 60.6339 23.5309" fill="black"/>
<path d="M89.6503 21.1612V20.8295C89.6503 17.718 88.9477 15.9811 86.098 15.9811C84.2825 15.9811 82.358 16.9805 80.9877 18.2024L80.8393 18.054C81.4328 15.8327 84.4309 13.5372 87.6865 13.5372C92.9452 13.5372 93.6478 16.6837 93.6478 20.0527C93.6478 22.0165 93.5387 24.4953 93.5387 26.5333V26.9785C93.5387 28.4229 93.5736 31.0894 95.389 31.0894C96.1309 31.0894 96.7942 30.5701 96.7942 30.5701L96.9426 30.6792C96.9426 30.6792 96.0174 32.9746 92.8317 32.9746C91.313 32.9746 89.7201 32.3462 89.6852 30.3824L89.5368 30.3082C88.6859 31.8618 86.8355 33.1579 84.5008 33.1579C81.3892 33.1579 79.5781 30.9017 79.5781 28.196C79.5781 22.8283 85.6136 21.2354 89.6503 21.1612ZM86.242 30.5264C87.4988 30.5264 89.5368 29.3787 89.5368 27.9735C89.5368 26.494 89.6459 24.5302 89.6459 22.6406C88.1273 22.8981 83.7589 23.5658 83.7589 27.489C83.7589 29.7103 84.9459 30.5264 86.2376 30.5264" fill="black"/>
<path d="M98.5967 22.8763C98.5967 20.6462 98.4483 12.8346 98.3741 11.0497C98.1865 7.44068 98.0032 7.10465 98.0032 7.10465C98.5225 6.95627 99.0462 6.76862 99.679 6.76862C101.355 6.76862 102.991 7.62397 102.991 9.07719C102.991 10.753 102.882 15.2523 102.882 19.193H103.07C111.178 11.3465 113.002 9.22557 113.373 7.03046C113.373 7.03046 114.194 6.99555 114.525 6.99555C116.197 6.99555 116.795 7.33158 116.795 8.14765C116.795 9.78416 110.807 14.8421 106.714 18.4904V18.6781C106.714 18.6781 115.045 30.509 118.99 32.6648V32.9266C118.99 32.9266 117.541 33.411 115.346 33.411C109.69 33.411 104.671 20.9866 103.183 20.6157L102.887 20.5415V24.2989C102.887 26.3806 103.035 28.6499 103.035 31.0326C103.035 33.0401 101.918 33.5638 100.617 33.5638C99.8361 33.5638 99.0549 33.3412 98.1254 33.1928C98.1254 33.1928 98.6098 32.1498 98.6098 22.8894" fill="black"/>
<path d="M12.9131 8.63206C13.0179 9.13392 13.1139 9.63142 13.2055 10.1333C13.6812 12.3022 14.1002 14.4493 14.842 16.5484C15.0733 17.2074 15.261 17.8794 15.3701 18.569C15.7934 21.231 16.0945 26.8781 16.0858 27.057C15.7847 26.5595 15.5316 26.11 15.2435 25.7085C13.7816 23.6705 11.9618 22.2566 10.0547 21.0783C7.54538 19.529 4.86587 18.7828 2.11653 18.617C1.90269 18.6039 1.68885 18.6562 1.3921 18.6868C1.53175 18.8221 1.57975 18.8744 1.62775 18.9181C3.41264 20.4455 5.24117 21.9642 7.20062 23.3563C9.88451 25.2547 12.6251 26.961 15.7279 27.6985C16.1818 27.8033 16.2167 27.8905 16.064 28.532C15.7629 28.4404 15.4661 28.3095 15.1606 28.2615C12.66 27.8905 10.2511 28.388 7.96869 29.5663C5.42883 30.8843 2.90205 32.2022 0.31418 33.2583C0.209443 33.3019 0.10907 33.3674 -0.00439453 33.4241C5.66012 34.0787 11.1544 33.0576 16.0989 29.0557C16.1556 31.0937 15.6625 45.111 15.3614 47.0181C15.7149 46.9919 15.968 46.9745 16.2647 46.9526C16.3084 46.5991 16.3607 46.2588 16.3913 45.914C16.6095 43.4352 16.6226 34.5981 16.64 32.1498C16.6706 28.2047 16.4829 24.2684 15.8327 20.4149C15.6014 19.0577 15.5316 17.8096 15.7454 16.5048C16.16 13.9693 15.7541 11.3421 14.8988 8.7848C14.3882 7.26612 13.8994 5.73434 13.3583 4.22002C12.8695 2.84535 12.3938 1.46632 11.8003 0.00436401C12.0011 1.23502 12.1145 2.36967 12.2804 3.49995C12.5291 5.21938 12.7648 6.93009 12.9131 8.63642" fill="black"/>
<path d="M2.457 5.69943C2.50064 5.76489 2.53992 5.83472 2.58792 5.89145C5.31981 9.1252 7.58474 12.7823 10.0068 16.3695C10.9669 17.7922 11.7698 19.3676 12.7168 20.799C13.6551 22.2086 14.7418 23.5003 15.5971 24.7615C15.44 24.2248 15.104 23.5003 15.0036 22.7584C14.5148 19.1014 13.0398 15.7978 10.8534 13.1663C8.95941 10.8839 6.81231 8.96373 4.63465 7.17448C3.94514 6.60715 3.21634 6.11402 2.50064 5.61215C2.48319 5.63834 2.47009 5.66888 2.45264 5.69507" fill="black"/>
<path d="M16.269 46.9526L16.3039 46.2937L16.3345 46.0667C16.3694 45.7962 16.4174 45.53 16.4305 45.2637C16.6487 39.6603 16.9018 25.9704 15.8675 20.5502C15.8108 20.2404 15.4835 18.7915 15.3176 17.1332C15.2129 16.0815 15.7279 14.829 15.8981 13.7903L15.7802 15.8894C15.6188 16.867 15.8108 17.8183 16.0115 18.8264C16.0726 19.1276 16.125 19.4374 16.1861 19.7472C17.3644 25.8002 16.9978 44.5655 16.6487 46.106L16.2646 46.9526H16.269Z" fill="black"/>
<path d="M18.6693 26.8956C20.2404 26.6468 21.8725 25.7391 22.9766 24.9012C23.7971 24.2771 24.6349 23.4523 25.2154 22.5228C25.2285 19.0228 25.2852 15.4094 25.3332 12.4244C25.3681 10.2424 25.3987 8.3615 25.3987 7.2574C25.3987 5.42014 23.6618 3.56107 20.3451 3.56107C19.4636 3.56107 18.7042 3.788 17.9711 4.00183C17.8969 4.02365 17.8227 4.04547 17.7441 4.06729C17.8532 4.51242 18.0889 5.95692 18.3246 10.5392C18.4249 12.9132 18.5995 21.5452 18.6693 26.8868" fill="black"/>
<path d="M39.4333 33.7253C35.174 28.3924 31.6784 23.4349 31.6435 23.3825L31.6129 23.3432V22.9112L31.6653 22.8632C32.5075 22.1126 33.3934 21.3314 34.3055 20.5241C40.6116 14.9556 48.4581 8.02983 48.4581 5.69944C48.4581 4.60843 47.8515 3.93201 44.8272 3.93201C44.3908 3.93201 43.6489 3.97128 43.3522 3.98438C42.6976 7.5367 39.826 10.9668 27.07 23.3432C25.9397 24.6219 24.4603 25.6867 23.2732 26.3544C22.1124 27.009 20.4235 27.7422 18.6866 28.1218C18.6954 29.0165 18.6997 29.7714 18.6997 30.3126C18.6997 43.3436 18.1324 46.6559 17.936 47.4021C18.3637 47.472 18.7739 47.5549 19.1711 47.6291C20.1224 47.8167 21.0214 47.9913 21.8942 47.9913C24.3904 47.9913 25.4553 46.7737 25.4553 43.924C25.4553 41.8729 25.3898 39.8698 25.3243 37.9278C25.2632 36.0906 25.2065 34.358 25.2065 32.6735V26.2104L26.2059 26.3631C27.0787 26.5813 28.4577 28.8114 30.3692 31.8924C34.275 38.2028 40.1795 47.7425 46.5074 47.7425C49.6538 47.7425 51.6613 47.1359 52.1195 46.9788V46.7519C49.3658 45.207 45.0978 40.8212 39.4289 33.7209" fill="black"/>
</g>
<defs>
<clipPath id="clip0_33_801">
<rect width="118.981" height="48" fill="white"/>
</clipPath>
</defs>
</svg>
