<svg width="100%" viewBox="0 0 100 100" fill="none" xmlns="http://www.w3.org/2000/svg">
<path d="M87.0303 51.162L77.5702 60.6376C77.2888 60.1529 76.9604 59.6994 76.5695 59.2929C76.5695 59.2929 61.4959 44.2194 61.496 44.2194C60.0388 42.7719 57.8549 45.0032 59.2912 46.4397C59.2912 46.4397 74.3491 61.4976 74.349 61.4976C77.4057 64.7276 72.8201 69.183 69.6269 66.2199L54.5689 51.1619C53.9435 50.5521 52.9584 50.5521 52.3486 51.1619C51.7388 51.7718 51.7388 52.7568 52.3486 53.3823L53.537 54.555L67.4065 68.4402C68.7199 69.7381 68.7199 71.8646 67.4065 73.1625C66.1087 74.4602 63.9978 74.4602 62.6843 73.1625C62.6843 73.1625 47.6264 58.1045 47.6264 58.1046C46.1855 56.674 43.962 58.8434 45.406 60.3092C45.406 60.3092 60.4796 75.3828 60.4795 75.3827C63.5035 78.6074 58.9555 83.0744 55.7573 80.105L40.6837 65.0315C40.0739 64.4216 39.0889 64.4216 38.479 65.0315C37.8692 65.6569 37.8692 66.642 38.479 67.2518C38.479 67.2518 39.6361 68.4245 39.6362 68.4246C39.6697 68.4125 53.5055 82.2939 53.5369 82.3097C56.5549 85.5402 52.0204 90.0096 48.8147 87.032C48.8147 87.032 12.9447 51.1619 12.9449 51.1619C4.01089 42.6125 4.0259 27.2463 12.9447 18.6852C21.4965 9.76391 36.8494 9.78645 45.406 18.685L47.7671 21.0461C47.7671 21.0461 32.4121 36.4168 32.4122 36.4168C29.4226 39.2762 29.4034 44.4441 32.3964 47.2839C35.2138 50.2895 40.4723 50.2839 43.2794 47.2997C43.2794 47.2997 55.2569 35.3378 55.2569 35.3377C60.5501 39.6986 68.8549 39.2462 73.6454 34.3059C75.0891 32.8569 72.8848 30.649 71.4407 32.0854C69.3923 34.1182 66.7029 35.2284 63.857 35.2284C61.0425 35.2284 58.2904 34.0868 56.3046 32.0854C55.6792 31.4756 54.6941 31.4756 54.0842 32.0854L41.059 45.095C39.3704 46.8149 36.3212 46.8306 34.6169 45.0793C32.8354 43.4044 32.8357 40.3233 34.6168 38.6371C34.6168 38.6371 51.0821 22.1719 51.0821 22.1718C51.0902 22.1638 54.5532 18.7008 54.569 18.6852C63.102 9.76568 78.4835 9.75156 87.0303 18.685C95.9899 27.6446 95.9899 42.2179 87.0303 51.162Z" fill="#789904"/>
</svg>
