<svg width="100%" viewBox="0 0 100 100" fill="none" xmlns="http://www.w3.org/2000/svg">
<path d="M75 64.062C71.9097 64.062 68.8887 64.9784 66.3192 66.6953C63.7497 68.4122 61.747 70.8525 60.5644 73.7076C59.3818 76.5627 59.0723 79.7044 59.6752 82.7353C60.2781 85.7663 61.7663 88.5504 63.9515 90.7356C66.1367 92.9208 68.9208 94.4089 71.9517 95.0118C74.9827 95.6147 78.1243 95.3053 80.9794 94.1227C83.8345 92.94 86.2748 90.9373 87.9917 88.3678C89.7086 85.7983 90.625 82.7774 90.625 79.687C90.6417 77.6305 90.2489 75.5912 89.4695 73.688C88.6902 71.7847 87.5399 70.0556 86.0857 68.6014C84.6314 67.1471 82.9023 65.9968 80.9991 65.2175C79.0959 64.4382 77.0566 64.0454 75 64.062ZM81.625 84.1089C81.7886 84.249 81.9214 84.4214 82.0152 84.6152C82.109 84.8091 82.1617 85.0202 82.17 85.2354C82.1783 85.4506 82.1421 85.6652 82.0635 85.8657C81.985 86.0662 81.8658 86.2483 81.7135 86.4005C81.5613 86.5528 81.3791 86.672 81.1786 86.7505C80.9781 86.8291 80.7635 86.8653 80.5484 86.857C80.3332 86.8487 80.122 86.796 79.9282 86.7022C79.7343 86.6084 79.562 86.4756 79.4219 86.312L75 81.8902L70.5781 86.312C70.2792 86.568 69.8947 86.7018 69.5015 86.6866C69.1082 86.6714 68.7352 86.5084 68.4569 86.2301C68.1787 85.9518 68.0157 85.5788 68.0005 85.1856C67.9853 84.7923 68.119 84.4078 68.375 84.1089L72.7969 79.687L68.375 75.2652C68.119 74.9662 67.9853 74.5818 68.0005 74.1885C68.0157 73.7953 68.1787 73.4222 68.4569 73.144C68.7352 72.8657 69.1082 72.7027 69.5015 72.6875C69.8947 72.6723 70.2792 72.8061 70.5781 73.062L75 77.4839L79.4219 73.062C79.7208 72.8061 80.1053 72.6723 80.4985 72.6875C80.8918 72.7027 81.2648 72.8657 81.5431 73.144C81.8214 73.4222 81.9844 73.7953 81.9996 74.1885C82.0147 74.5818 81.881 74.9662 81.625 75.2652L77.2031 79.687L81.625 84.1089Z" fill="#789904"/>
<path d="M53.125 40.625C53.9879 40.625 54.6875 39.9254 54.6875 39.0625C54.6875 38.1996 53.9879 37.5 53.125 37.5C52.2621 37.5 51.5625 38.1996 51.5625 39.0625C51.5625 39.9254 52.2621 40.625 53.125 40.625Z" fill="#789904"/>
<path d="M56.25 79.6874C56.2322 75.6734 57.5107 71.7608 59.8952 68.5318C62.2797 65.3027 65.6428 62.9296 69.4843 61.7655C69.9323 61.6301 70.3906 61.5051 70.8593 61.3905L59.9218 29.578C59.5502 28.4381 59.3655 27.2456 59.375 26.0468V13.828C60.4344 13.4714 61.3316 12.748 61.9046 11.7882C62.4776 10.8284 62.6888 9.69541 62.5 8.59363C62.2853 7.47176 61.6786 6.46282 60.7884 5.74719C59.8981 5.03156 58.7824 4.6559 57.6406 4.68738H42.3593C41.2176 4.6559 40.1018 5.03156 39.2115 5.74719C38.3213 6.46282 37.7146 7.47176 37.5 8.59363C37.3152 9.69302 37.5283 10.8223 38.101 11.7787C38.6737 12.7352 39.5686 13.4562 40.625 13.8124V26.0468C40.621 27.2534 40.4204 28.4514 40.0312 29.5936L22.5312 80.7968C22.211 81.7367 22.1193 82.7394 22.2638 83.7218C22.4083 84.7042 22.7848 85.6381 23.3621 86.446C23.9394 87.254 24.7009 87.9127 25.5835 88.3677C26.4661 88.8227 27.4445 89.0608 28.4375 89.0624H58.7656C57.1132 86.2147 56.2451 82.9798 56.25 79.6874ZM39.0625 73.4374C38.7534 73.4374 38.4513 73.3457 38.1944 73.174C37.9374 73.0024 37.7372 72.7583 37.6189 72.4728C37.5006 72.1873 37.4697 71.8731 37.53 71.57C37.5903 71.267 37.7391 70.9885 37.9576 70.77C38.1761 70.5515 38.4545 70.4027 38.7576 70.3424C39.0607 70.2821 39.3749 70.3131 39.6604 70.4313C39.9459 70.5496 40.1899 70.7498 40.3616 71.0068C40.5333 71.2638 40.625 71.5658 40.625 71.8749C40.625 72.2893 40.4603 72.6867 40.1673 72.9797C39.8743 73.2728 39.4769 73.4374 39.0625 73.4374ZM45.3125 62.4999C45.0034 62.4999 44.7013 62.4082 44.4444 62.2365C44.1874 62.0649 43.9872 61.8208 43.8689 61.5353C43.7506 61.2498 43.7197 60.9356 43.78 60.6325C43.8403 60.3295 43.9891 60.051 44.2076 59.8325C44.4261 59.614 44.7045 59.4652 45.0076 59.4049C45.3107 59.3446 45.6249 59.3756 45.9104 59.4938C46.1959 59.6121 46.4399 59.8123 46.6116 60.0693C46.7833 60.3263 46.875 60.6283 46.875 60.9374C46.875 61.3518 46.7103 61.7492 46.4173 62.0422C46.1243 62.3353 45.7269 62.4999 45.3125 62.4999ZM35.9375 51.328L43.0312 30.5936C43.5162 29.1271 43.7589 27.5914 43.75 26.0468V13.8124C43.7382 13.1827 43.5365 12.5713 43.1712 12.0583C42.806 11.5452 42.2942 11.1545 41.7031 10.9374C41.3229 10.8243 41 10.5708 40.7998 10.2285C40.5996 9.88609 40.5371 9.48039 40.625 9.09363C40.7163 8.70972 40.9406 8.37051 41.258 8.13603C41.5754 7.90154 41.9655 7.7869 42.3593 7.81238H57.6406C58.0344 7.7869 58.4245 7.90154 58.7419 8.13603C59.0593 8.37051 59.2836 8.70972 59.375 9.09363C59.4628 9.48039 59.4003 9.88609 59.2001 10.2285C58.9999 10.5708 58.677 10.8243 58.2968 10.9374C57.7057 11.1545 57.194 11.5452 56.8287 12.0583C56.4634 12.5713 56.2617 13.1827 56.25 13.8124V26.0468C56.2511 27.5931 56.5044 29.1289 57 30.5936L60.6875 41.3436C57.1406 42.1249 53.4843 44.4686 49.9218 46.6561C44.7187 49.9999 39.75 53.0311 35.9375 51.328ZM53.125 70.3124C52.8159 70.3124 52.5138 70.2207 52.2569 70.049C51.9999 69.8774 51.7997 69.6333 51.6814 69.3478C51.5631 69.0623 51.5322 68.7481 51.5925 68.445C51.6528 68.142 51.8016 67.8635 52.0201 67.645C52.2386 67.4265 52.517 67.2777 52.8201 67.2174C53.1232 67.1571 53.4374 67.1881 53.7229 67.3063C54.0084 67.4246 54.2524 67.6248 54.4241 67.8818C54.5958 68.1388 54.6875 68.4408 54.6875 68.7499C54.6875 69.1643 54.5228 69.5617 54.2298 69.8547C53.9368 70.1478 53.5394 70.3124 53.125 70.3124ZM54.6875 56.2499C54.3784 56.2499 54.0763 56.1582 53.8194 55.9865C53.5624 55.8149 53.3622 55.5708 53.2439 55.2853C53.1256 54.9998 53.0947 54.6856 53.155 54.3825C53.2153 54.0795 53.3641 53.801 53.5826 53.5825C53.8011 53.364 54.0795 53.2152 54.3826 53.1549C54.6857 53.0946 54.9999 53.1256 55.2854 53.2438C55.5709 53.3621 55.8149 53.5623 55.9866 53.8193C56.1583 54.0763 56.25 54.3783 56.25 54.6874C56.25 55.1018 56.0853 55.4992 55.7923 55.7922C55.4993 56.0853 55.1019 56.2499 54.6875 56.2499Z" fill="#789904"/>
<path d="M48.4375 28.125C49.3004 28.125 50 27.4254 50 26.5625C50 25.6996 49.3004 25 48.4375 25C47.5746 25 46.875 25.6996 46.875 26.5625C46.875 27.4254 47.5746 28.125 48.4375 28.125Z" fill="#789904"/>
</svg>
