<svg width="64" height="64" viewBox="0 0 64 64" fill="none" xmlns="http://www.w3.org/2000/svg">
<g clip-path="url(#clip0_2600_3059)">
<path fill-rule="evenodd" clip-rule="evenodd" d="M31.0001 10.942C31.0001 4.88087 39.2095 0 46.0071 0C47.1059 0 48 0.89424 48 1.99299C48 8.79056 43.1192 17.0001 37.0581 17.0001C35.8803 17.0001 34.7863 16.6366 33.7896 15.9312C32.9796 18.2525 32.5455 20.9304 32.5455 23.9546V32.8383H33.0712H49.6258H51.5734H53.969C54.6506 37.6684 57.1825 41.6025 61.5257 44.5239C59.6365 48.9061 56.8125 52.8013 53.3068 55.8785C51.0086 56.1122 34.6682 57.2418 30.0524 43.9591C28.6696 39.9471 25.9624 36.2271 21.9893 32.8383H30.9978C30.9553 29.0161 30.2828 25.7884 28.9728 23.0264C27.7854 24.1438 26.434 24.7273 24.9427 24.7273C18.8809 24.7273 14 16.5178 14 9.72023C14 8.62148 14.8942 7.72731 15.9929 7.72724C22.7905 7.72724 31 12.6081 31 18.6692C31 19.7732 30.6733 20.7984 30.0591 21.7406C30.4054 22.4068 30.7274 23.0899 31 23.8081C31.0151 20.2267 31.5848 17.0566 32.6926 14.3852C32.7063 14.3524 32.7272 14.3258 32.748 14.2991C32.7583 14.2859 32.7686 14.2727 32.7781 14.2588C34.544 10.1092 37.6407 6.98527 42.2498 4.71555C42.4347 4.625 42.5728 4.46729 42.6392 4.27184C42.7057 4.07638 42.692 3.86666 42.6008 3.68099C42.4167 3.3082 41.9473 3.13919 41.5677 3.32935C37.4663 5.34798 34.4856 8.01404 32.4534 11.4807C32.2799 11.7781 31.9275 11.9237 31.5962 11.8385C31.2627 11.7539 31.0257 11.4581 31.0144 11.114C31.0098 11.0785 31.0001 10.9775 31.0001 10.942ZM32.0008 64C38.759 64 45.303 61.8771 50.7563 57.9429H50.6394C44.7382 57.9429 32.3514 56.4628 28.2225 44.6018C26.7423 40.3561 23.6066 36.3829 18.8739 32.8383H14.375H12.4274H-0.115234C0.391144 50.1136 14.6087 64 32.0008 64ZM64.1176 32.8383C64.0397 36.2271 63.397 39.5186 62.2674 42.6542C58.7033 40.1613 56.5804 36.8504 55.9571 32.8383H64.1176Z" fill="#3D3D3D"/>
</g>
<defs>
<clipPath id="clip0_2600_3059">
<rect width="64" height="64" fill="white"/>
</clipPath>
</defs>
</svg>
