<svg width="100%" viewBox="0 0 100 100" fill="none" xmlns="http://www.w3.org/2000/svg">
<path d="M30.4687 87.0312C29.8437 86.5625 29.0624 86.0938 28.4374 85.7812C28.5937 84.5312 28.4374 83.125 28.1249 81.7188C27.4999 79.375 26.2499 77.1875 24.5312 75.1562C22.9687 76.4062 22.1874 78.5938 22.4999 80.9375C21.4062 79.8438 20.3124 78.75 19.3749 77.6562C19.9999 76.5625 20.3124 75.1562 20.3124 73.75C20.4687 71.4063 19.9999 69.0625 18.9062 66.7188C16.8749 67.5 15.6249 69.5312 15.3124 71.875C14.5312 70.625 13.9062 69.2188 13.2812 67.9688C14.2187 67.0312 14.9999 65.7813 15.4687 64.375C16.2499 62.1875 16.4062 59.8438 15.9374 57.3438C13.7499 57.6563 11.8749 59.2188 10.9374 61.5625C10.4687 60 10.1562 58.5938 9.99994 57.0312C11.2499 56.4062 12.3437 55.3125 13.1249 54.0625C14.3749 52.1875 15.3124 49.8438 15.4687 47.3438C13.1249 47.0312 10.7812 48.2812 9.37494 50.4688C9.37494 48.9062 9.53119 47.1875 9.68744 45.625C11.0937 45.3125 12.4999 44.5312 13.7499 43.5937C15.4687 42.1875 16.8749 40.1563 17.8124 37.8125C15.6249 36.875 12.9687 37.5 10.9374 39.375C11.4062 37.8125 11.8749 36.0937 12.4999 34.5312C14.0624 34.6875 15.6249 34.2188 17.0312 33.5938C19.0624 32.6562 20.9374 31.0938 22.4999 28.9062C20.6249 27.3438 17.8124 27.3438 15.3124 28.75C16.2499 27.1875 17.1874 25.7812 18.2812 24.375C19.6874 25 21.4062 25 23.1249 24.6875C25.4687 24.2188 27.8124 23.2812 29.9999 21.5625C28.5937 19.5312 25.7812 18.75 22.8124 19.5312C24.9999 17.5 27.3437 15.625 30.1562 14.0625C30.9374 13.5937 31.2499 12.6562 30.7812 11.875C30.3124 11.0937 29.2187 10.7812 28.4374 11.25C25.4687 12.9687 22.8124 15 20.4687 17.1875C21.7187 14.0625 21.8749 11.25 20.4687 9.0625C17.6562 10.9375 15.6249 14.0625 15.1562 16.7187C14.6874 18.75 14.9999 20.4688 15.9374 21.875C14.6874 23.4375 13.5937 25.1562 12.6562 26.7188C12.9687 23.4375 12.1874 20.625 10.3124 19.0625C8.12494 22.0312 7.18744 25.4688 7.49994 28.125C7.65619 30.1562 8.43744 31.7188 9.68744 32.8125C8.90619 34.6875 8.28119 36.4063 7.81244 38.2813C7.18744 35.1563 5.78119 32.6562 3.43744 31.5625C2.18744 35 2.18744 38.4375 3.12494 40.9375C3.90619 42.8125 4.99994 44.0625 6.56244 44.8438C6.24994 46.7188 6.24994 48.5938 6.24994 50.4688C4.84369 47.6562 2.81244 45.7812 0.312439 45.4688C-6.10054e-05 49.0625 0.937439 52.3438 2.49994 54.5313C3.59369 56.0938 5.15619 57.0313 6.71869 57.3438C6.87494 59.2188 7.34369 60.9375 7.65619 62.6562C5.62494 60.4688 3.28119 59.2188 0.781189 59.5312C1.40619 63.125 3.12494 66.0938 5.31244 67.6562C6.71869 68.9062 8.43744 69.375 9.84369 69.2188C10.4687 70.7812 11.2499 72.5 12.0312 73.9062C9.37494 72.8125 6.87494 72.1875 4.68744 73.125C6.24994 76.4062 8.74994 78.9062 11.2499 80C12.9687 80.7812 14.5312 80.7812 15.9374 80.4688C17.0312 81.875 18.1249 83.125 19.3749 84.375C16.7187 83.75 14.3749 83.9062 12.6562 85.3125C15.1562 88.125 18.4374 89.8438 21.2499 90.3125C22.9687 90.625 24.5312 90.3125 25.7812 89.6875C26.4062 90.1562 27.1874 90.625 27.8124 91.0938C29.0624 91.875 30.6249 91.4062 31.2499 90.1562C31.8749 89.0625 31.5624 87.6562 30.4687 87.0312Z" fill="#789904"/>
<path d="M92.6562 62.6562C93.125 60.9375 93.4375 59.0625 93.5938 57.3437C95.1563 57.0312 96.5625 56.0938 97.8125 54.5312C99.375 52.3438 100.312 49.0625 100 45.4688C97.5 45.7812 95.4688 47.8125 94.0625 50.4687C94.0625 48.5937 93.9062 46.7188 93.75 44.8438C95.1562 44.2188 96.4062 42.8125 97.1875 40.9375C98.125 38.4375 98.2812 35 96.875 31.5625C94.5312 32.6562 93.125 35.1562 92.5 38.2812C92.0312 36.4062 91.4062 34.5312 90.625 32.8125C91.875 31.7187 92.6563 30.1562 92.8125 28.125C93.125 25.4688 92.1875 22.0312 90 19.0625C87.9687 20.625 87.3437 23.5938 87.6562 26.7188C86.4062 25 85.3125 23.4375 84.0625 21.875C85 20.625 85.3125 18.75 84.8437 16.7187C84.375 14.0625 82.3438 10.9375 79.2188 8.4375C77.8125 10.4687 77.9688 13.4375 79.2188 16.5625C76.875 14.375 74.2187 12.3438 71.25 10.625C70.4687 10.1562 69.375 10.4687 68.9062 11.25C68.4375 12.0312 68.75 12.9688 69.5312 13.4375C72.1875 15 74.6875 16.875 76.875 18.9062C73.9063 18.125 71.0937 18.9062 69.6875 20.9375C71.875 22.6562 74.2187 23.5937 76.5625 24.0625C78.2812 24.375 80 24.375 81.4062 23.75C82.5 25.1562 83.5937 26.7188 84.375 28.125C81.875 26.7188 79.0625 26.7188 77.1875 28.2812C78.75 30.3125 80.625 32.0312 82.6563 32.9688C84.2188 33.75 85.7812 34.0625 87.1875 33.9062C87.8125 35.4688 88.2812 37.0312 88.75 38.75C86.7187 36.875 84.0625 36.25 81.875 37.1875C82.8125 39.5312 84.2188 41.5625 85.9375 42.9687C87.1875 44.0625 88.5937 44.6875 90 45C90.1562 46.5625 90.3125 48.2812 90.3125 49.8437C88.9062 47.6562 86.5625 46.4062 84.2188 46.7187C84.5313 49.2187 85.3125 51.5625 86.5625 53.4375C87.3438 54.6875 88.4375 55.7812 89.6875 56.4062C89.375 57.9687 89.0625 59.375 88.75 60.9375C87.8125 58.5937 86.0937 56.875 83.75 56.7187C83.2812 59.2187 83.5938 61.7187 84.2188 63.75C84.6875 65.1562 85.3125 66.4062 86.4062 67.3437C85.7812 68.75 85.1562 70 84.375 71.25C84.0625 68.9062 82.8125 66.875 80.7812 66.0937C79.6875 68.4375 79.2187 70.7812 79.375 73.125C79.375 74.5312 79.6875 75.9375 80.3125 77.0312C79.375 78.125 78.2813 79.2187 77.1875 80.3125C77.5 77.9687 76.875 75.7812 75.1562 74.5312C73.4375 76.5625 72.1875 78.75 71.5625 81.0937C71.25 82.5 71.0937 83.9062 71.25 85.1562C70.625 85.625 70 86.0937 69.2187 86.4062C68.125 87.0312 67.8125 88.4375 68.2813 89.5312C68.9063 90.7812 70.4688 91.25 71.7188 90.4687C72.5 90 73.125 89.5312 73.75 89.0625C75 89.6875 76.5625 90 78.2812 89.6875C81.0937 89.2187 84.375 87.5 86.875 84.6875C85.1562 83.2812 82.8125 83.125 80.1562 83.75C81.4062 82.5 82.5 81.25 83.5937 79.8437C85 80.1562 86.5625 80 88.2812 79.375C90.7812 78.2812 93.2812 75.9375 94.8438 72.5C92.6562 71.5625 90.1562 72.1875 87.8125 73.5937C88.5938 72.0312 89.375 70.4687 90 68.9062C91.5625 68.9062 93.125 68.4375 94.5312 67.3437C96.5625 65.625 98.4375 62.8125 99.0625 59.2187C97.0313 59.2187 94.6875 60.625 92.6562 62.6562Z" fill="#789904"/>
<path d="M67.7566 74.9748L64.725 57.5069L77.4289 45.0917C77.862 44.6586 78.0063 44.0812 77.862 43.6481C77.7176 43.0706 77.2845 42.7819 76.7071 42.6376L59.0948 40.039L51.2992 24.1591C51.0105 23.7261 50.5774 23.293 50 23.293C49.4225 23.293 48.9894 23.5817 48.7007 24.1591L40.9051 40.039L23.2929 42.6376C22.7154 42.7819 22.2824 43.0706 22.138 43.6481C21.9936 44.2255 22.138 44.803 22.5711 45.0917L35.275 57.5069L32.2434 74.9748C32.099 75.5522 32.3877 76.1297 32.8208 76.4184C33.2539 76.7071 33.8314 76.8515 34.4088 76.5628L50 68.1897L65.7355 76.4184C65.8799 76.5628 66.1686 76.5628 66.4573 76.5628C66.746 76.5628 67.0348 76.4184 67.3235 76.274C67.6122 75.9853 67.9009 75.5522 67.7566 74.9748Z" fill="#789904"/>
</svg>
