<svg width="100%" viewBox="0 0 100 100" fill="none" xmlns="http://www.w3.org/2000/svg">
<path d="M48.6401 2.00977H51.3599V12.2746H48.6401V2.00977Z" fill="#789904"/>
<path d="M32.5694 16.297L27.0727 7.40625L24.7174 8.67563L30.2143 17.5666L32.5694 16.297Z" fill="#789904"/>
<path d="M7.56982 25.6182L17.0895 30.7497L18.4492 28.5505L8.92928 23.4189L7.56982 25.6182Z" fill="#789904"/>
<path d="M81.5504 65.5032L91.0704 70.6349L92.4298 68.4355L82.9101 63.3037L81.5504 65.5032Z" fill="#789904"/>
<path d="M1.79138 45.7588H12.7843V48.2971H1.79138V45.7588Z" fill="#789904"/>
<path d="M87.2158 45.7588H98.2087V48.2971H87.2158V45.7588Z" fill="#789904"/>
<path d="M7.56982 68.4355L8.92928 70.6349L18.4492 65.5032L17.0895 63.3037L7.56982 68.4355Z" fill="#789904"/>
<path d="M92.4298 25.6182L91.0704 23.4189L81.5504 28.5505L82.9101 30.7497L92.4298 25.6182Z" fill="#789904"/>
<path d="M75.2822 8.67563L72.927 7.40625L67.4302 16.297L69.7855 17.5666L75.2822 8.67563Z" fill="#789904"/>
<path d="M38.9275 91.8709C39.3869 94.8109 40.8321 97.5184 43.1872 97.5184H56.7799C59.1348 97.5184 60.3937 95.3944 61.0396 91.8709L62.7796 80.9775H36.9742L38.9275 91.8709Z" fill="#789904"/>
<path d="M62.4555 47.3414C60.1282 45.6374 52.9292 44.7795 55.6084 56.6547C58.4139 56.4348 62.4343 55.6534 63.519 54.1781C65.1115 52.0108 64.6333 48.9449 62.4555 47.3414Z" fill="#789904"/>
<path d="M35.5171 50.7762C34.9896 55.4331 39.6318 56.331 44.5528 56.5068C45.0546 53.7461 45.3235 49.6723 44.177 48.2418C41.4626 44.8539 36.0047 46.4654 35.5171 50.7762Z" fill="#789904"/>
<path d="M50.0018 19.0195C34.3039 19.0195 21.5576 31.4379 21.5576 46.7859C21.5576 54.8316 25.0557 62.0684 30.6746 67.1188C33.8448 69.9829 36.0093 73.6559 36.687 77.7007H44.8639L44.2517 58.6796C38.0426 58.417 32.6423 56.69 33.3419 50.5246C34.0416 44.3154 41.9342 41.9541 45.8915 46.8734C47.8373 49.3221 47.094 54.7442 46.7004 56.9524C49.2366 57.2147 50.9419 57.1929 53.4343 56.9524C50.5265 43.6158 59.5779 42.5007 63.7538 45.5835C66.9021 47.901 67.5799 52.3392 65.2842 55.4657C63.4477 57.9581 58.0912 58.6577 55.7956 58.8326L56.4077 77.7007H63.3165C63.9943 73.6559 66.1588 69.9829 69.329 67.1407C74.9478 62.0903 78.446 54.8316 78.446 46.7859C78.446 31.4379 65.7215 19.0195 50.0018 19.0195Z" fill="#789904"/>
<path d="M53.6091 59.1387C50.8981 59.3792 49.1709 59.401 46.4598 59.1387L47.0501 77.7006H54.2213L53.6091 59.1387Z" fill="#789904"/>
</svg>
