<svg width="100%" viewBox="0 0 100 100" fill="none" xmlns="http://www.w3.org/2000/svg">
<path fill-rule="evenodd" clip-rule="evenodd" d="M65.5993 23.1913C69.9354 28.5607 72.2971 35.1479 72.2971 42.1594C72.2971 58.858 58.6984 72.4567 41.9999 72.4567C25.3013 72.4567 11.7026 58.858 11.7026 42.1594C11.7026 35.1295 14.0829 28.5423 18.4005 23.1913C18.5112 23.0623 18.6035 22.9331 18.6957 22.8039L18.6957 22.8039C19.157 22.2687 19.6368 21.7522 20.1165 21.2539L20.1176 21.2527C20.3387 21.0133 20.5597 20.7738 20.7807 20.5528C20.8548 20.4787 20.9242 20.4047 20.9937 20.3306C21.0626 20.2571 21.1316 20.1835 21.2051 20.11C21.2789 20.0547 21.3343 20.0177 21.4081 19.9808C23.364 18.1541 25.5597 16.5858 27.9399 15.3311L27.9401 15.3309C27.9769 15.294 28.0138 15.2572 28.0506 15.2388C28.7333 14.8882 29.416 14.5745 30.1172 14.2794L30.394 14.1686C31.2058 13.8181 32.0546 13.5228 32.9033 13.2461C32.9218 13.2368 32.9449 13.2276 32.968 13.2184C32.991 13.2091 33.0141 13.1999 33.0325 13.1907C33.8628 12.9508 34.6931 12.7294 35.5419 12.5634C35.7449 12.508 35.9663 12.4527 36.1877 12.4157C37.018 12.2496 37.8483 12.1205 38.6971 12.0282L39.2506 11.9729C40.1732 11.899 41.0773 11.8438 41.9999 11.8438C42.9225 11.8438 43.845 11.899 44.7492 11.9729C44.9337 11.9914 45.1182 12.0097 45.3212 12.0282C46.1515 12.1205 46.9818 12.2496 47.8121 12.4157C48.0335 12.4527 48.2549 12.508 48.4764 12.5634C49.3067 12.7294 50.137 12.9508 50.9673 13.1907C50.995 13.1999 51.018 13.2091 51.0411 13.2184C51.0642 13.2276 51.0872 13.2368 51.1149 13.2461C51.9637 13.5228 52.7755 13.8181 53.6059 14.1686L53.8826 14.2794C54.5838 14.5745 55.2849 14.8882 55.9492 15.2388C55.9861 15.2572 56.023 15.2942 56.0599 15.3311C58.4401 16.5858 60.6358 18.1541 62.5917 19.9808L62.5918 19.9809C62.6656 20.0178 62.7393 20.0547 62.7947 20.11C62.8683 20.1836 62.9373 20.2572 63.0063 20.3308C63.0756 20.4048 63.145 20.4788 63.219 20.5528C63.4404 20.7742 63.6619 21.0141 63.8833 21.2539C64.363 21.7522 64.8428 22.2687 65.3041 22.8039C65.3503 22.8686 65.4012 22.9334 65.452 22.9981C65.5027 23.0625 65.5533 23.1269 65.5993 23.1913ZM51.4103 45.8406L57.2732 40.1251C58.2281 39.1942 57.7018 37.5715 56.3801 37.3801L48.2784 36.202C47.7541 36.1262 47.3016 35.7973 47.0664 35.3208L43.4441 27.9787C42.8541 26.7825 41.1476 26.7825 40.5556 27.9787L36.9333 35.3208C36.6981 35.7973 36.2456 36.1262 35.7213 36.202L27.6196 37.3801C26.2979 37.5715 25.7716 39.1942 26.7265 40.1251L32.5894 45.8406C32.9682 46.2094 33.1416 46.7417 33.0519 47.266L31.6684 55.3338C31.4432 56.6494 32.8227 57.6523 34.0048 57.0303L41.2513 53.2206C41.7198 52.9755 42.2799 52.9755 42.7484 53.2206L49.9969 57.0303C51.177 57.6523 52.5565 56.6494 52.3313 55.3338L50.9478 47.266C50.8581 46.7417 51.0315 46.2094 51.4103 45.8406Z" fill="#789904"/>
<path d="M86.5723 81.0543L74.8659 69.3479C74.296 68.7799 73.564 68.4026 72.7707 68.2682C71.9775 68.1338 71.1621 68.2488 70.4369 68.5973L66.5231 64.6835C66.2777 64.4465 65.9492 64.3154 65.6081 64.3184C65.2671 64.3214 64.9409 64.4582 64.6997 64.6993C64.4585 64.9405 64.3217 65.2667 64.3188 65.6078C64.3158 65.9488 64.4469 66.2774 64.6839 66.5227L68.5951 70.4366C68.2466 71.1617 68.1316 71.9771 68.266 72.7704C68.4004 73.5636 68.7776 74.2957 69.3456 74.8655L81.0521 86.5719C81.788 87.2827 82.7737 87.6761 83.7968 87.6672C84.82 87.6583 85.7987 87.2479 86.5222 86.5244C87.2457 85.8009 87.656 84.8222 87.6649 83.7991C87.6738 82.7759 87.2805 81.7903 86.5697 81.0543H86.5723Z" fill="#789904"/>
<path d="M41.5464 32.0321C41.7256 31.6463 42.2742 31.6463 42.4534 32.0321L45.3433 38.2551C45.489 38.5689 45.7866 38.785 46.13 38.8266L52.9414 39.6522C53.3638 39.7034 53.5333 40.2251 53.2217 40.5147L48.1964 45.1863C47.943 45.4218 47.8293 45.7716 47.8959 46.111L49.2156 52.8442C49.2974 53.2617 48.8536 53.5841 48.4818 53.3773L42.486 50.0415C42.1837 49.8733 41.816 49.8733 41.5137 50.0415L35.5179 53.3773C35.1461 53.5841 34.7023 53.2617 34.7841 52.8442L36.1039 46.111C36.1704 45.7716 36.0568 45.4218 35.8034 45.1863L30.7781 40.5147C30.4665 40.2251 30.636 39.7034 31.0583 39.6522L37.8698 38.8266C38.2132 38.785 38.5107 38.5689 38.6564 38.2551L41.5464 32.0321Z" fill="#789904"/>
</svg>
