<svg width="180" height="180" viewBox="0 0 180 180" fill="none" xmlns="http://www.w3.org/2000/svg">
<g clip-path="url(#clip0_741_1815)">
<path d="M156.702 96.5284C155.491 94.3306 154.318 92.1129 153.093 89.923C152.838 89.4636 152.912 89.3179 153.378 89.1405C154.503 88.7142 155.274 87.8946 155.765 86.801C156.517 85.1314 156.524 83.3665 156.334 81.6109C155.964 78.203 154.087 76.5771 150.66 76.5771C147.641 76.5771 144.622 76.5943 141.604 76.5612C141.001 76.5546 140.886 76.7399 140.887 77.304C140.907 83.4248 140.9 89.547 140.9 95.6678C140.9 97.1057 140.9 97.1255 142.354 97.1004C143.535 97.0779 144.72 97.2116 145.897 97.0196C145.819 94.696 145.885 92.3711 145.861 90.0461C145.86 89.8581 145.91 89.7019 146.064 89.5854H146.12C146.672 89.5854 147.232 89.449 147.775 89.6622C148.838 91.9818 149.908 94.2988 150.958 96.6251C151.122 96.9878 151.31 97.1613 151.739 97.1533C153.281 97.1255 154.824 97.1216 156.366 97.1533C156.994 97.1652 156.95 96.9772 156.702 96.5284ZM150.171 85.526C148.802 85.9576 147.366 85.857 145.952 85.6332C145.957 83.9716 145.961 82.31 145.966 80.6497C147.195 80.5372 148.425 80.5954 149.655 80.6246C149.824 80.6285 150.002 80.6868 150.162 80.7543C151.216 81.2031 151.368 82.1485 151.371 83.1137C151.373 84.0961 151.285 85.1751 150.171 85.526Z" fill="#3D3D3D"/>
<path d="M82.3267 89.7564C82.2791 88.7912 82.3201 87.8207 82.3201 86.8515C82.3201 85.7076 82.3307 84.5623 82.3175 83.4184C82.287 80.7479 81.1523 78.6811 78.7744 77.4445C75.9398 75.9709 72.9197 75.9034 69.9063 76.7534C66.542 77.7014 64.4395 80.3997 64.5693 84.0129C64.6447 86.1008 64.5574 88.194 64.5905 90.2846C64.6328 92.8969 65.7715 94.9319 68.0832 96.1645C71.0582 97.7507 74.212 97.8102 77.3737 96.8133C80.1951 95.9235 82.5094 93.4715 82.3267 89.7564ZM77.1684 90.805C76.9937 92.1885 76.2589 93.0081 74.9018 93.2941C73.8531 93.5152 72.8019 93.4861 71.7599 93.2173C70.5763 92.9128 69.86 92.1356 69.7713 90.9466C69.5674 88.2232 69.5594 85.4918 69.7739 82.7683C69.8745 81.4801 70.7709 80.6459 72.0763 80.3878C73.0614 80.1931 74.0491 80.217 75.0275 80.4142C76.3277 80.6764 77.0016 81.4297 77.1645 82.7564C77.3313 84.1175 77.1843 85.4838 77.2532 86.8091C77.1896 88.1662 77.3339 89.4889 77.1684 90.805Z" fill="#3D3D3D"/>
<path d="M125.408 97.0411C125.087 96.9418 125.231 96.673 125.231 96.485C125.223 90.0583 125.23 83.633 125.215 77.2063C125.215 76.7243 125.33 76.5628 125.837 76.5655C130.066 76.5853 134.294 76.5827 138.522 76.5681C138.983 76.5668 139.134 76.7045 139.12 77.1666C139.089 78.1344 139.079 79.1049 139.124 80.0701C139.146 80.5533 138.947 80.6037 138.55 80.601C136.04 80.5878 133.528 80.6089 131.018 80.5825C130.491 80.5772 130.275 80.6791 130.311 81.2577C130.364 82.0905 130.356 82.9312 130.314 83.7654C130.286 84.2963 130.422 84.4803 130.99 84.471C133.17 84.4366 135.35 84.475 137.531 84.4446C138.091 84.4366 138.247 84.6127 138.221 85.1542C138.178 86.0545 138.188 86.9588 138.218 87.8605C138.234 88.3212 138.086 88.4576 137.622 88.4536C135.199 88.4324 132.778 88.4444 130.355 88.4444C130.155 88.7687 130.269 89.1249 130.262 89.4652C130.244 90.4767 130.287 91.4882 130.242 92.4984C130.218 93.0413 130.414 93.1498 130.915 93.1459C133.466 93.122 136.019 93.1512 138.57 93.122C139.122 93.1154 139.285 93.2756 139.26 93.8185C139.218 94.74 139.239 95.6641 139.253 96.5883C139.259 96.9272 139.204 97.106 138.794 97.1046C134.394 97.0901 129.995 97.1007 125.595 97.094C125.526 97.094 125.468 97.0649 125.406 97.045L125.408 97.0411Z" fill="#3D3D3D"/>
<path d="M115.037 89.8886C115.469 88.5129 115.89 87.1823 116.304 85.8491C117.201 82.972 118.104 80.0963 118.982 77.2139C119.123 76.7466 119.318 76.5453 119.843 76.5625C121.23 76.6049 122.62 76.589 124.007 76.5692C124.415 76.5639 124.493 76.6698 124.36 77.0551C122.108 83.5863 119.863 90.1189 117.624 96.6555C117.516 96.9706 117.356 97.1149 117.01 97.111C115.666 97.0977 114.322 97.0898 112.979 97.1163C112.546 97.1242 112.426 96.8965 112.309 96.5536C110.785 92.0996 109.249 87.6484 107.717 83.1958C107.03 81.1992 106.36 79.196 105.65 77.2073C105.473 76.7108 105.523 76.5533 106.086 76.5665C107.451 76.5983 108.819 76.6009 110.184 76.5639C110.66 76.5506 110.826 76.7386 110.954 77.157C112.199 81.1939 113.462 85.2241 114.724 89.2544C114.785 89.4503 114.782 89.6833 115.037 89.8886Z" fill="#3D3D3D"/>
<path d="M89.4353 84.8854C89.4353 87.3944 89.4565 89.9033 89.4195 92.411C89.4102 93.0134 89.5982 93.1352 90.1609 93.1286C92.5388 93.0981 94.918 93.1286 97.2959 93.1048C97.7805 93.1008 97.9526 93.2226 97.9314 93.7297C97.8904 94.6737 97.9036 95.6217 97.9275 96.5683C97.9367 96.9589 97.8282 97.1125 97.4138 97.1125C93.2074 97.1006 89.0011 97.1019 84.7947 97.1125C84.4108 97.1125 84.3168 96.9682 84.3168 96.6054C84.326 90.0913 84.326 83.5773 84.3168 77.0632C84.3168 76.6845 84.4439 76.5667 84.8106 76.5707C86.1757 76.5852 87.542 76.5932 88.9071 76.5667C89.3758 76.5574 89.4446 76.7613 89.442 77.1599C89.4287 79.735 89.4353 82.3089 89.4353 84.8841V84.8854Z" fill="#3D3D3D"/>
<path d="M59.9751 91.9316C59.9751 91.9316 59.9737 91.9355 59.9724 91.9369C59.8202 94.1387 59.1701 96.2094 58.242 98.1888C56.0746 102.81 52.6534 106.188 48.0207 108.337C47.8234 108.429 47.6116 108.488 47.4064 108.562C47.417 108.534 47.4262 108.508 47.4368 108.48C47.6579 107.837 47.601 107.167 47.5957 106.502C47.5825 104.238 47.6685 101.973 47.4699 99.714C47.466 99.669 47.4673 99.628 47.4712 99.5909C47.4726 99.575 47.4752 99.5618 47.4779 99.5472C47.4792 99.5379 47.4818 99.5286 47.4832 99.5194C47.4845 99.5181 47.4845 99.5167 47.4845 99.5154C47.4951 99.5154 47.507 99.5141 47.5176 99.5141C47.7665 99.3817 48.0154 99.2453 48.267 99.1169C49.3606 98.5542 50.4688 98.0166 51.3956 97.1852C51.4048 97.1269 51.4128 97.0687 51.4221 97.0104C51.4618 96.9826 51.5015 96.9548 51.5399 96.927C53.0678 95.8268 54.3865 94.5094 55.5317 93.0159C55.5648 92.9749 55.5953 92.9338 55.6271 92.8928C55.6562 92.8597 55.684 92.8266 55.7105 92.7935C55.8429 92.632 55.9594 92.4585 56.0719 92.2824C56.1103 92.2228 56.1487 92.1619 56.1871 92.1024C56.3804 91.8759 56.5512 91.635 56.6849 91.3675C56.6942 91.3503 56.7035 91.3318 56.7114 91.3146C56.726 91.2947 56.7405 91.2749 56.7538 91.2537C56.8955 91.0551 57.0054 90.8406 57.0821 90.6089C57.0874 90.593 57.0927 90.5771 57.098 90.5612C57.155 90.4275 57.2357 90.311 57.3337 90.2064C57.3575 90.1826 57.38 90.1574 57.3999 90.1309C57.4277 90.0978 57.4529 90.0634 57.474 90.0263C57.4926 89.9985 57.5098 89.9694 57.5257 89.9389C57.5442 89.9058 57.5614 89.8727 57.5773 89.8396C57.5985 89.7959 57.6184 89.7536 57.6382 89.7099C57.711 89.5722 57.7786 89.4318 57.8381 89.2875C57.8567 89.2425 57.8752 89.1975 57.8924 89.1512C57.9017 89.1247 57.9123 89.0982 57.9229 89.073C58.0844 88.6613 58.3015 88.2707 58.3797 87.8298C58.3902 87.7769 58.3969 87.7252 58.4022 87.6723C58.4048 87.6617 58.4088 87.6511 58.4114 87.6418C58.4445 87.5425 58.4816 87.4445 58.5279 87.3505C58.5584 87.287 58.5928 87.2247 58.6325 87.1638C58.6511 87.1347 58.6683 87.1043 58.6829 87.0738C58.7888 86.8673 58.8272 86.6369 58.8934 86.4158C58.9066 86.3787 58.9185 86.3416 58.9318 86.3059C58.9437 86.2675 58.9556 86.2291 58.9675 86.1907C59.0443 85.9286 59.0946 85.6598 59.1939 85.4029C59.2072 85.3738 59.2191 85.3433 59.231 85.3129C59.2535 85.2546 59.2747 85.1937 59.3025 85.1368C59.3025 85.1368 59.3025 85.1359 59.3025 85.1342H59.3038C59.3541 85.019 59.4269 84.9197 59.5766 84.876C59.7924 85.387 59.8453 85.9312 59.9036 86.474C59.8559 87.2168 60.0479 87.9437 60.0532 88.6891C60.0585 89.31 60.0863 89.9323 60.0333 90.5533C60.032 90.5625 60.032 90.5705 60.0307 90.5798C60.0307 90.5851 60.0294 90.5903 60.0294 90.5956C60.0029 91.0405 60.0929 91.4907 59.9751 91.9316Z" fill="#3D3D3D"/>
<path d="M99.2355 86.8424C99.2355 83.6278 99.2461 80.4131 99.2249 77.1984C99.2223 76.7099 99.3414 76.551 99.8459 76.5642C101.145 76.6 102.446 76.5881 103.745 76.5695C104.158 76.5642 104.322 76.6649 104.321 77.1216C104.306 83.5947 104.308 90.0677 104.32 96.542C104.32 96.9736 104.187 97.1206 103.756 97.114C102.455 97.0941 101.155 97.0862 99.8565 97.1166C99.3666 97.1285 99.221 96.9869 99.2249 96.4864C99.2474 93.2717 99.2369 90.0571 99.2369 86.8424H99.2355Z" fill="#3D3D3D"/>
<path d="M53.0043 74.0126C52.6786 74.4018 52.2006 74.5303 51.761 74.7103C49.8743 75.4836 48.0154 76.323 46.1062 77.0419C45.5925 77.2352 45.2364 77.4854 45.4562 78.1077C45.4429 78.113 45.431 78.117 45.4191 78.121C45.4164 78.121 45.4151 78.1223 45.4138 78.1223C43.3695 76.2197 41.0565 74.7461 38.4244 73.7902C38.4244 73.7902 38.4244 73.7915 38.4231 73.7915C38.3569 73.8299 38.2907 73.8696 38.2245 73.9106C36.3484 73.2261 34.4259 72.7866 32.4188 72.7588C32.2811 72.7257 32.1434 72.6992 32.0057 72.6793H32.0043C31.5184 72.6065 31.0325 72.6131 30.5466 72.682H30.544C30.3745 72.7045 30.2064 72.7349 30.0369 72.772C29.5655 72.7879 29.0942 72.7826 28.6268 72.862C28.3739 72.9044 28.1105 72.9216 27.9039 72.7085C29.7694 71.2905 31.872 70.3491 34.1188 69.7639C40.9771 67.9738 47.18 69.3455 52.7276 73.7346C52.8295 73.8153 52.9129 73.9186 53.0043 74.0126Z" fill="#3D3D3D"/>
<path d="M30.4499 108.011C27.8853 106.837 25.7232 105.12 23.9252 102.974C19.8857 98.149 18.3486 92.5961 19.2489 86.3707C19.2701 86.2184 19.3177 86.0715 19.3522 85.9218C19.4316 85.8596 19.5137 85.849 19.6024 85.8768C19.6037 85.8768 19.6064 85.8782 19.6077 85.8795C19.6196 85.8821 19.6315 85.8874 19.6434 85.8927C19.6448 85.8927 19.6461 85.8967 19.6474 85.898C19.6633 85.9205 19.6779 85.943 19.6924 85.9669C19.9585 86.3905 19.9983 86.8976 20.1677 87.3571C20.1836 87.4034 20.2022 87.4497 20.2233 87.4961C20.2366 87.5265 20.2511 87.5557 20.2657 87.5861C20.4061 87.9595 20.5517 88.3315 20.7026 88.7009C20.7185 88.7393 20.7331 88.7764 20.749 88.8135C20.7649 88.8505 20.7794 88.8876 20.7953 88.9247C21.125 89.6701 21.497 90.393 21.922 91.0881C21.9353 91.1106 21.9498 91.1331 21.9631 91.1556C21.9737 91.1741 21.9829 91.1914 21.9935 91.2099C22.2332 91.6336 22.5125 92.0308 22.8171 92.4121C22.8369 92.4399 22.8594 92.4664 22.8806 92.4942C22.8846 92.4981 22.8872 92.5008 22.8899 92.5048C24.427 94.6443 26.2925 96.4304 28.5288 97.8166C28.5817 97.8511 28.6334 97.8842 28.6863 97.9133C28.7022 97.9768 28.7194 98.0391 28.7353 98.1026C29.2278 98.4032 29.719 98.7037 30.2116 99.0043C30.2738 99.0201 30.3334 99.0387 30.393 99.0599C30.4049 99.0771 30.4168 99.0943 30.4274 99.1128C30.5849 100.21 30.8325 101.278 30.724 102.425C30.5757 103.992 30.8908 105.577 30.7981 107.157C30.7809 107.47 30.9411 107.882 30.4499 108.011Z" fill="#3D3D3D"/>
<path d="M24.2193 75.9868V75.991C24.2193 75.991 24.218 75.9924 24.2166 75.9924C24.218 75.991 24.218 75.9882 24.2193 75.9868Z" fill="#3D3D3D"/>
<path d="M36.7588 75.0544L38.2244 73.9105C38.2906 73.8694 38.3568 73.8297 38.423 73.7913C36.4966 73.0817 34.5278 72.5918 32.4598 72.5746C31.6654 72.5997 30.8696 72.5984 30.0752 72.5759C29.3431 72.4859 28.6321 72.7427 27.9039 72.7083C26.6977 73.4934 25.5975 74.403 24.6574 75.498C24.5131 75.6621 24.4112 75.8647 24.2219 75.9878L24.2192 75.9905C24.206 76.3427 24.4853 76.4049 24.7342 76.479C25.1142 76.5929 25.5075 76.6498 25.8874 76.7637C27.8483 77.3489 29.8502 77.7779 31.8216 78.3207C32.2069 78.4266 32.5538 78.4174 32.8596 78.2558C33.0079 78.0877 33.1549 77.9209 33.3005 77.7527L34.8972 76.5068L36.7588 75.0544Z" fill="#3D3D3D"/>
<path d="M55.3609 76.4038C55.1768 76.7057 54.867 76.8328 54.5612 76.9493C52.4256 77.7649 50.3337 78.6864 48.2259 79.5655C47.8684 79.7138 47.5374 79.8727 47.5771 80.3467C47.5572 80.3639 47.5374 80.3771 47.5175 80.3877C47.5162 80.3891 47.5149 80.3891 47.5135 80.3904C46.8145 79.6357 46.1167 78.8824 45.419 78.1277V78.1211C45.4203 77.9278 45.2906 77.8086 45.1714 77.6802C44.9807 77.4749 45.0469 77.3227 45.2826 77.2247C47.8551 76.1523 50.4303 75.0825 53.0042 74.0127C53.9005 74.6998 54.687 75.4969 55.3609 76.4038Z" fill="#3D3D3D"/>
<path d="M47.834 107.989C47.8406 108.331 47.5414 108.316 47.4368 108.48C47.4222 108.504 47.4117 108.531 47.4064 108.562C46.694 108.928 45.9513 109.207 45.1582 109.338C44.851 108.974 44.8431 108.509 44.8484 108.091C44.8762 105.683 44.6445 103.281 44.6908 100.874C44.6922 100.787 44.7067 100.699 44.7239 100.614C44.7359 100.555 44.7531 100.502 44.7769 100.456C44.7822 100.444 44.7888 100.432 44.7954 100.421C44.8232 100.425 44.8524 100.429 44.8802 100.434C45.5303 100.22 46.1803 100.005 46.8304 99.7909C46.9403 99.7035 47.0581 99.6373 47.1853 99.591C47.2462 99.5764 47.3057 99.5592 47.3653 99.5393C47.3852 99.5327 47.4064 99.5261 47.4262 99.5181C47.4448 99.5168 47.4646 99.5155 47.4845 99.5155C47.4951 99.5155 47.507 99.5142 47.5176 99.5142C47.5176 99.5142 47.5189 99.5181 47.5202 99.5195C47.5202 99.5208 47.5215 99.5208 47.5215 99.5221C47.7837 100.061 47.7638 100.665 47.7771 101.226C47.834 103.48 47.7903 105.736 47.834 107.989Z" fill="#3D3D3D"/>
<path d="M56.824 78.3872H56.8227C56.0971 78.3792 55.4815 78.7327 54.8393 78.9896C52.9659 79.7403 51.1215 80.5625 49.2441 81.3052C48.9767 81.4098 48.745 81.5793 48.4987 81.721C48.4855 81.7157 48.4722 81.7104 48.459 81.7038V81.7024C48.1492 81.2682 47.838 80.8352 47.5269 80.4023C47.5242 80.397 47.5216 80.393 47.5189 80.3877C47.2634 79.9243 47.4527 79.7019 47.9201 79.5139C50.0915 78.6347 52.2496 77.7252 54.4117 76.8248C54.7321 76.6911 55.0459 76.5442 55.3623 76.4038C55.9329 77.0049 56.4374 77.6537 56.8253 78.3872H56.824Z" fill="#3D3D3D"/>
<path d="M57.4595 79.4505C55.9012 80.0966 54.3561 80.7745 52.7818 81.3836C51.8193 81.7569 50.8951 82.2203 49.9339 82.5977C49.6612 82.7049 49.5274 82.9181 49.4096 83.1564C49.3871 83.1484 49.3646 83.1392 49.3434 83.1312C49.3315 83.1259 49.3209 83.122 49.3103 83.1167C49.0257 82.6467 48.7423 82.174 48.459 81.704C48.5066 81.3372 48.8443 81.2975 49.0852 81.1969C51.4433 80.2012 53.8146 79.2334 56.1713 78.2311C56.4798 78.1 56.6069 78.3397 56.8227 78.3874C57.1007 78.7038 57.3152 79.056 57.4595 79.4505Z" fill="#3D3D3D"/>
<path d="M43.4966 107.77C43.5019 105.919 43.4979 104.07 43.4979 102.219C43.4979 101.594 43.1969 101.243 42.595 101.165C42.4851 101.15 42.3805 101.117 42.2878 101.054C42.2666 101.03 42.252 101.007 42.2441 100.986C42.2428 100.985 42.2415 100.984 42.2415 100.982C43.0875 100.808 43.9322 100.631 44.7769 100.455C44.7822 100.443 44.7888 100.431 44.7954 100.421C44.8233 100.425 44.8524 100.429 44.8802 100.434C44.9543 103.403 44.9742 106.374 45.1582 109.338C44.434 109.623 43.6846 109.796 42.9061 109.845C43.6502 109.309 43.494 108.514 43.4966 107.77Z" fill="#3D3D3D"/>
<path d="M28.088 88.0417C28.0893 88.0669 28.0906 88.0907 28.0906 88.1159C28.0628 88.1291 28.0363 88.141 28.0085 88.1516C27.6961 88.2721 27.3664 88.2416 27.0539 88.1503C25.011 87.5545 22.9297 87.1096 20.8762 86.5509C20.4406 86.4317 20.0248 86.2768 19.6925 85.967C19.6726 85.9498 19.6528 85.9313 19.6342 85.9114C19.625 85.9021 19.6157 85.8929 19.6078 85.8823C19.6051 85.8809 19.6038 85.8796 19.6025 85.877C19.5879 85.8637 19.5747 85.8478 19.5614 85.8333C19.3761 85.726 19.4264 85.5685 19.4727 85.4109C19.5177 85.0336 19.5641 84.6549 19.7481 84.312C19.9917 84.6152 20.3108 84.7767 20.6842 84.88C22.8714 85.4837 25.0957 85.9405 27.2711 86.5853C27.6762 86.7058 28.0999 86.813 28.3024 86.2503C28.3329 86.1669 28.4335 86.1563 28.5196 86.2014C28.3766 86.8144 28.2323 87.4287 28.088 88.0417Z" fill="#3D3D3D"/>
<path d="M58.5478 81.693C58.3651 81.7605 58.1745 81.6969 57.9798 81.783C55.6417 82.8303 53.2518 83.7531 50.9084 84.7871C50.6833 84.8864 50.5191 85.0692 50.298 85.1698C50.2967 85.1698 50.2954 85.1685 50.294 85.1685C50.2927 85.1671 50.2914 85.1671 50.2901 85.1658C50.0465 84.8044 49.9021 84.3979 49.7618 83.9901C49.726 83.9504 49.6929 83.9107 49.6638 83.8683C49.7168 83.6114 49.9286 83.4989 50.1563 83.4049C52.1675 82.5681 54.1707 81.7155 56.2004 80.925C56.5698 80.7807 56.9193 80.594 57.2887 80.4497C57.535 80.3518 57.7879 80.2392 58.0116 80.5C58.2698 80.8615 58.4485 81.2587 58.5478 81.693Z" fill="#3D3D3D"/>
<path d="M42.2243 100.987H42.2441C42.546 100.985 42.8677 101.05 43.1392 100.962C43.6184 100.807 43.7058 100.973 43.7045 101.408C43.6926 103.948 43.6688 106.491 43.7191 109.03C43.7323 109.704 43.2318 109.632 42.9061 109.846C42.6122 109.985 42.2984 109.999 41.9807 109.978C42.3302 109.667 42.3223 109.272 42.317 108.838C42.2892 106.706 42.305 104.573 42.3037 102.442C42.3037 101.804 41.9886 101.42 41.3584 101.29C41.2485 101.266 41.1492 101.226 41.0645 101.15C41.0711 101.139 41.079 101.128 41.0856 101.118C41.0923 101.108 41.0989 101.101 41.1042 101.093L42.2243 100.987Z" fill="#3D3D3D"/>
<path d="M40.5269 101.143C40.5189 101.153 40.5097 101.164 40.5017 101.176C41.1372 101.532 41.1306 102.121 41.1253 102.749C41.1068 104.675 41.0843 106.603 41.1372 108.528C41.1544 109.141 41.3292 109.751 40.5295 110.002C40.5097 110.008 40.5163 110.081 40.5216 110.126C41.0154 110.147 41.5027 110.111 41.9806 109.978C42.4533 109.888 42.5393 109.63 42.5287 109.145C42.4824 106.97 42.5089 104.792 42.5089 102.615C42.5089 101.173 42.5089 101.155 41.0856 101.118C41.0684 101.118 41.0498 101.116 41.0313 101.116L40.5269 101.143Z" fill="#3D3D3D"/>
<path d="M49.5447 83.6767L49.6519 83.9534V83.9508C49.6532 83.9216 49.6572 83.8938 49.6638 83.8687C49.6929 83.911 49.726 83.9508 49.7618 83.9905C49.775 83.7548 49.9432 83.6581 50.1325 83.58C52.5726 82.5778 55.0128 81.5768 57.4516 80.5693C57.6383 80.4911 57.8104 80.4051 58.0116 80.5004C57.8991 80.1125 57.719 79.7603 57.4595 79.4505C57.3364 79.4055 57.2252 79.3763 57.0835 79.4359C54.6407 80.4633 52.1993 81.4961 49.7446 82.4944C49.3871 82.64 49.2693 82.8134 49.3434 83.1312C49.3487 83.1537 49.354 83.1775 49.3619 83.2027L49.5447 83.6767Z" fill="#3D3D3D"/>
<path d="M40.5216 110.126C39.939 110.238 39.3578 110.281 38.7753 110.13C38.7991 110.097 38.8269 110.068 38.8573 110.044C38.8666 110.037 38.8772 110.029 38.8878 110.024C38.9103 110.008 38.9341 109.996 38.9606 109.986C38.9791 109.979 38.999 109.972 39.0175 109.967H39.0189C39.0348 109.963 39.0493 109.959 39.0652 109.956C39.1063 109.946 39.1486 109.938 39.191 109.933C40.033 109.849 40.0529 109.832 40.0595 108.971C40.0741 106.689 39.8278 104.412 39.9311 102.128C39.9668 101.337 39.3909 101.495 38.9408 101.435H38.9394C38.9077 101.423 38.8719 101.415 38.8362 101.409C38.6905 101.381 38.5316 101.366 38.5541 101.158C38.5541 101.154 38.5541 101.151 38.5555 101.148C39.2122 101.147 39.8676 101.144 40.5256 101.143H40.5269C41.3451 101.173 41.3398 101.709 41.3292 102.338C41.2988 104.296 41.3187 106.255 41.3187 108.211C41.3187 108.366 41.2842 108.53 41.3253 108.672C41.5464 109.435 41.5808 110.077 40.5216 110.126Z" fill="#3D3D3D"/>
<path d="M28.7711 85.3977C28.7711 85.3977 28.7632 85.4004 28.7592 85.4004C28.7433 85.6864 28.6559 85.9512 28.5195 86.2014C28.2786 87.0448 27.6973 86.9005 27.0684 86.7297C24.7938 86.114 22.5165 85.509 20.234 84.9264C19.8619 84.8324 19.7044 84.6788 19.7481 84.3121C19.7931 83.8447 19.9361 83.4078 20.1453 82.9907C20.1214 83.5892 20.5915 83.654 20.9992 83.7666C23.2368 84.3836 25.518 84.8337 27.7437 85.4957C28.1197 85.6069 28.4229 85.4189 28.7618 85.3805C28.7632 85.3845 28.7658 85.3872 28.7671 85.3911C28.7685 85.3938 28.7698 85.3964 28.7711 85.3977Z" fill="#3D3D3D"/>
<path d="M58.9118 82.6227C58.2101 83.0238 57.4488 83.3006 56.7087 83.6104C55.2761 84.2102 53.8462 84.8205 52.3978 85.3832C51.8046 85.6149 51.2181 85.8506 50.6978 86.2266C50.6978 86.2266 50.6964 86.2266 50.6964 86.2253C50.6964 86.2253 50.6956 86.2253 50.6938 86.2253L50.6858 86.2054L50.2939 85.174V85.17C50.3059 84.8854 50.5018 84.7556 50.7362 84.6643C52.7711 83.8792 54.7161 82.8782 56.7934 82.1924C57.1973 82.0587 57.56 81.7872 57.9678 81.6204C58.2101 81.5224 58.369 81.5516 58.5477 81.6946C58.749 81.9726 58.8562 82.2877 58.9118 82.624V82.6227Z" fill="#3D3D3D"/>
<path d="M59.3329 83.9414C58.8748 83.7706 58.4604 83.8924 58.0275 84.0764C56.0454 84.9225 54.0634 85.7659 52.0629 86.5603C51.5796 86.7522 51.3267 87.0965 51.1016 87.503C51.1003 87.5043 51.099 87.5056 51.099 87.5082C50.9163 87.0952 50.772 86.6715 50.6965 86.2253C50.6965 86.2253 50.6956 86.2253 50.6938 86.2253C50.6938 86.2253 50.6952 86.2226 50.6952 86.2213C50.7759 85.8413 51.1083 85.7195 51.3982 85.5977C52.4389 85.1568 53.4981 84.7583 54.5427 84.324C55.5873 83.8898 56.628 83.4436 57.6594 82.9789C58.0645 82.7961 58.4763 82.6783 58.9119 82.624C59.1277 83.0398 59.28 83.4754 59.3329 83.9427V83.9414Z" fill="#3D3D3D"/>
<path d="M103.113 105.741C103.493 104.582 103.814 103.601 104.14 102.621C104.199 102.44 104.219 102.204 104.475 102.186C104.782 102.163 104.802 102.435 104.868 102.632C105.195 103.609 105.513 104.589 105.968 105.59C106.273 104.723 106.559 103.848 106.892 102.991C107.011 102.685 106.961 102.044 107.475 102.235C107.886 102.387 107.446 102.827 107.358 103.106C107.03 104.155 106.635 105.183 106.265 106.219C106.2 106.401 106.173 106.629 105.91 106.628C105.649 106.627 105.617 106.404 105.554 106.219C105.223 105.247 104.889 104.274 104.492 103.114C104.112 104.222 103.801 105.148 103.476 106.068C103.401 106.282 103.406 106.596 103.09 106.616C102.752 106.637 102.759 106.314 102.683 106.104C102.278 104.987 101.877 103.869 101.496 102.745C101.441 102.583 101.157 102.33 101.529 102.21C101.853 102.105 101.926 102.387 102.005 102.62C102.302 103.495 102.6 104.37 102.899 105.244C102.939 105.361 102.996 105.472 103.113 105.745V105.741Z" fill="#3D3D3D"/>
<path d="M28.926 84.9567C28.9181 84.9726 28.9061 84.9885 28.8955 85.0044C28.8955 85.0388 28.8955 85.0719 28.8942 85.105L28.7804 85.3738L28.7711 85.3976C28.7711 85.3976 28.7631 85.4003 28.7592 85.4003C28.5248 85.7538 28.2534 85.8134 27.8165 85.6969C25.5088 85.0825 23.1878 84.5185 20.8708 83.9333C20.3862 83.8115 19.9731 83.6235 20.1453 82.9906C20.1426 82.8463 20.1585 82.7073 20.279 82.604C22.4583 83.2051 24.6746 83.6685 26.8486 84.2881C27.3372 84.4271 27.8496 84.4444 28.3236 84.6337C28.5394 84.7198 28.779 84.7529 28.926 84.9567Z" fill="#3D3D3D"/>
<path d="M29.2093 84.2141C29.2093 84.2141 29.1987 84.2207 29.1934 84.2233C29.1391 84.4815 29.0716 84.7344 28.926 84.9568C28.918 84.9727 28.9061 84.9886 28.8955 85.0045C27.8906 84.7423 26.8883 84.4709 25.8821 84.218C24.2178 83.7983 22.5496 83.3971 20.8866 82.9695C20.6629 82.9126 20.4259 82.8172 20.2789 82.6041C20.3385 82.2281 20.4722 81.8825 20.6867 81.5674C20.982 81.9209 21.3315 82.0943 21.8187 82.1248C22.4516 82.1645 23.0501 82.4425 23.6657 82.6054C25.2572 83.0278 26.8658 83.3813 28.4493 83.8301C28.7247 83.9069 29.0094 83.9665 29.2066 84.2021C29.208 84.2061 29.2093 84.2101 29.2093 84.2141Z" fill="#3D3D3D"/>
<path d="M59.5765 84.8758C59.4865 85.0519 59.3964 85.2267 59.3077 85.4028C59.2746 85.3763 59.2495 85.3459 59.2309 85.3128C59.2071 85.2744 59.1925 85.232 59.1846 85.187C59.1806 85.1737 59.178 85.1592 59.1767 85.1446C59.1806 85.1195 59.1846 85.0943 59.1859 85.0705C59.2283 84.6468 59.0217 84.57 58.6153 84.7249C57.6898 85.0797 56.7961 85.5074 55.8733 85.8688C54.7082 86.3256 53.5761 86.8658 52.3991 87.2987C51.9834 87.451 51.6074 87.6867 51.226 87.9131C51.2168 87.9184 51.2088 87.9237 51.1996 87.929C51.1016 87.8085 51.0963 87.6642 51.1029 87.5172C51.1016 87.5119 51.1016 87.5079 51.1016 87.5026C51.038 87.0353 51.2181 86.7466 51.6762 86.56C53.2928 85.9059 54.8975 85.2227 56.5061 84.5475C57.1708 84.2694 57.8354 83.9901 58.4948 83.6988C58.8523 83.5412 59.1462 83.5426 59.3329 83.9411C59.505 84.2297 59.5659 84.5462 59.5765 84.8758Z" fill="#3D3D3D"/>
<path d="M130.88 103.325C130.486 103.901 130.078 104.467 129.701 105.055C129.506 105.36 129.379 105.344 129.191 105.058C128.795 104.455 128.381 103.865 127.833 103.293C127.833 104.2 127.842 105.107 127.826 106.014C127.822 106.216 127.974 106.574 127.569 106.558C127.193 106.543 127.324 106.2 127.322 105.989C127.308 104.888 127.312 103.788 127.32 102.688C127.32 102.509 127.231 102.265 127.512 102.195C127.762 102.133 127.921 102.258 128.055 102.464C128.401 103 128.779 103.517 129.109 104.062C129.346 104.455 129.51 104.528 129.776 104.085C130.103 103.538 130.482 103.021 130.829 102.487C130.959 102.287 131.107 102.129 131.362 102.201C131.636 102.277 131.54 102.522 131.541 102.701C131.55 103.824 131.55 104.945 131.541 106.068C131.54 106.263 131.64 106.562 131.286 106.56C130.936 106.56 131.026 106.265 131.025 106.065C131.015 105.165 131.021 104.265 131.021 103.364C130.974 103.351 130.927 103.337 130.88 103.323V103.325Z" fill="#3D3D3D"/>
<path d="M34.2446 108.487C34.2154 109.232 34.1267 109.302 33.3787 109.191C33.2291 109.2 33.0927 109.17 32.9828 109.057C33.2555 108.427 33.1549 107.776 33.1205 107.119C33.0993 106.715 33.0821 106.311 33.0688 105.908C33.0596 105.583 33.0516 105.258 33.0463 104.933C33.0185 103.366 33.0437 101.798 33.0794 100.23C33.0953 100.22 33.1099 100.211 33.1245 100.203C33.1271 100.2 33.1298 100.199 33.1324 100.197C33.4131 100.221 33.6779 100.293 33.9202 100.438C33.9414 100.428 33.9639 100.417 33.9851 100.406C33.993 100.418 34.0009 100.429 34.0089 100.441C34.0182 100.453 34.0261 100.465 34.034 100.477C34.1969 101.299 34.2525 102.128 34.2446 102.964C34.2273 104.806 34.3161 106.646 34.2446 108.487Z" fill="#3D3D3D"/>
<path d="M29.2067 84.2022C29.2067 84.2022 29.2094 84.2101 29.2094 84.2141C29.2041 84.2181 29.1988 84.2207 29.1935 84.2234C27.7795 83.7706 26.3244 83.4647 24.8945 83.0715C23.9359 82.8067 22.9548 82.6107 22.0082 82.289C21.8493 82.2347 21.7076 82.3036 21.5646 82.297C21.1026 82.2784 20.6815 82.1672 20.6868 81.5674C20.7027 81.349 20.798 81.1636 20.9304 80.9941C21.7076 81.5065 22.6384 81.5502 23.4977 81.7925C25.15 82.2599 26.8235 82.6558 28.4918 83.0662C28.8347 83.1509 29.1856 83.1787 29.5311 83.2476C29.5417 83.2661 29.551 83.2847 29.5602 83.3032C29.5655 83.3125 29.5695 83.3204 29.5735 83.3297C29.502 83.6421 29.3696 83.9294 29.2067 84.2022Z" fill="#3D3D3D"/>
<path d="M36.2663 109.859C35.9975 109.867 35.7301 109.865 35.4878 109.721C35.6811 109.409 35.6877 109.064 35.7023 108.708C35.791 106.472 35.8042 104.236 35.6983 101.999C35.6824 101.674 35.6573 101.337 35.8214 101.03C36.0915 100.755 36.3656 100.911 36.6397 101.024C36.7138 101.073 36.7681 101.138 36.8052 101.218C36.9693 101.801 36.8873 102.398 36.8939 102.987C36.9151 104.964 36.9045 106.942 36.8992 108.919C36.8992 109.223 36.927 109.538 36.7496 109.815C36.6 109.958 36.4345 109.926 36.265 109.859H36.2663Z" fill="#3D3D3D"/>
<path d="M38.2099 109.941C38.2019 109.954 38.1927 109.966 38.1834 109.978C38.1794 109.979 38.1768 109.98 38.1728 109.982C37.8868 110.093 37.5955 110.062 37.3056 109.996C36.9521 110.007 36.5972 110.021 36.2662 109.86C36.4066 109.853 36.5469 109.845 36.6886 109.839C36.7257 109.811 36.7588 109.782 36.7879 109.75C37.0752 109.457 37.0593 109.057 37.0408 108.691C36.9349 106.559 37.1427 104.421 36.907 102.292C36.907 102.289 36.907 102.286 36.907 102.284C36.8819 102.053 36.8475 101.811 36.8779 101.577C36.8965 101.439 36.9375 101.303 37.0169 101.176C37.0249 101.161 37.0328 101.147 37.0434 101.133C37.0553 101.116 37.0673 101.099 37.0805 101.082C37.0805 101.082 37.0818 101.08 37.0831 101.082C37.2036 101.064 37.3122 101.055 37.4062 101.055H37.4088C37.4737 101.055 37.532 101.059 37.5849 101.07C37.7041 101.088 37.7955 101.131 37.8669 101.201C37.9927 101.32 38.0536 101.523 38.0788 101.828C38.1053 102.158 38.096 102.489 38.0894 102.819C38.047 104.999 38.1569 107.173 38.3118 109.347C38.3264 109.554 38.3317 109.76 38.2112 109.941H38.2099Z" fill="#3D3D3D"/>
<path d="M95.6872 103.637C95.6885 103.344 95.3906 103.26 95.3072 103.407C95.0398 103.889 94.8385 103.511 94.6161 103.412C93.9872 103.135 93.4099 103.22 92.8989 103.672C92.4063 104.106 92.2554 104.807 92.5268 105.422C92.7929 106.026 93.2722 106.31 93.9355 106.326C94.3791 106.338 94.7326 106.141 95.1232 105.826C95.1695 106.805 94.6836 107.282 93.8535 107.159C93.5542 107.115 93.2683 106.98 92.9809 106.87C92.8247 106.811 92.7281 106.856 92.6605 106.991C92.601 107.111 92.6526 107.208 92.7572 107.267C93.3583 107.61 93.9964 107.703 94.6664 107.518C95.2 107.369 95.6011 107.013 95.6422 106.472C95.7123 105.53 95.6806 104.582 95.6872 103.637ZM94.0017 105.883C93.3887 105.86 92.9002 105.364 92.9161 104.778C92.9333 104.144 93.443 103.698 94.1116 103.732C94.7299 103.763 95.2225 104.257 95.2053 104.827C95.1867 105.435 94.6505 105.905 94.0017 105.883Z" fill="#3D3D3D"/>
<path d="M35.4282 108.976C35.4149 109.266 35.4785 109.699 34.9303 109.601C34.5636 109.59 34.2127 109.515 33.891 109.33C34.7542 108.941 34.7582 108.94 34.4921 108.016C34.4246 107.781 34.3729 107.546 34.3888 107.305C34.4841 105.772 34.3597 104.246 34.2802 102.718C34.2432 102.006 34.3504 101.283 34.4325 100.568C34.4325 100.568 34.4325 100.567 34.4352 100.567C34.4378 100.566 34.4391 100.564 34.4418 100.563C34.4444 100.567 34.4457 100.572 34.4471 100.576C34.6364 100.568 34.8191 100.584 34.9793 100.699C35.0482 100.701 35.1157 100.702 35.1845 100.707C35.3672 100.903 35.4176 101.152 35.4334 101.417C35.5844 103.937 35.546 106.456 35.4282 108.976Z" fill="#3D3D3D"/>
<path d="M35.9551 109.465C36.0133 109.859 35.6572 109.657 35.4877 109.722C35.2878 109.743 35.0971 109.729 34.9303 109.6C35.2335 109.566 35.2481 109.346 35.2335 109.117C35.1448 107.674 35.4043 106.24 35.3593 104.801C35.3235 103.625 35.1713 102.452 35.2401 101.274C35.2547 101.018 35.0879 100.881 34.9793 100.699C35.0481 100.701 35.1157 100.702 35.1845 100.707C35.3434 100.716 35.4983 100.742 35.6386 100.836C35.6942 100.837 35.7499 100.838 35.8055 100.84C35.824 100.862 35.8412 100.886 35.8558 100.912C35.8677 100.932 35.877 100.952 35.8862 100.975C35.8889 100.983 35.8928 100.99 35.8955 100.998C35.9101 102.268 35.9021 103.537 36.0094 104.808C36.1418 106.355 35.726 107.906 35.9551 109.465Z" fill="#3D3D3D"/>
<path d="M31.8626 107.711C31.8441 108.474 31.7421 108.527 30.9941 108.269C30.8802 108.271 30.7809 108.241 30.7134 108.141C30.8378 107.928 30.8908 107.702 30.8868 107.45C30.859 105.08 30.8312 102.709 30.8021 100.338C30.7981 100.033 30.7703 99.7182 30.9438 99.4388C30.9636 99.419 30.9835 99.4031 31.0033 99.3899C31.0047 99.3885 31.006 99.3885 31.006 99.3872C31.006 99.3885 31.006 99.3912 31.006 99.3925C31.1159 99.3846 31.2112 99.4124 31.2774 99.5077C31.378 99.5209 31.4734 99.5434 31.566 99.5765C31.7567 99.7765 31.8335 100.029 31.8547 100.317C31.8573 100.344 31.8586 100.374 31.86 100.403C31.8653 100.547 31.8719 100.691 31.8745 100.837C31.8745 100.841 31.8745 100.846 31.8758 100.852C31.9553 103.138 31.9156 105.425 31.8613 107.711H31.8626Z" fill="#3D3D3D"/>
<path d="M31.2681 80.2448C31.2747 80.2593 31.2813 80.2739 31.2866 80.2885C31.28 80.2911 31.2747 80.2937 31.2681 80.2964C31.2522 80.303 31.235 80.311 31.2191 80.3176C30.0249 80.062 28.8187 79.8343 27.6615 79.457C26.5759 79.1022 25.4359 79.0108 24.3595 78.6348C23.8895 78.4706 23.4128 78.2972 22.9018 78.2588C22.768 78.2482 22.5787 78.2005 22.6568 77.9701C22.8144 77.6193 23.0328 77.3121 23.3268 77.0605C23.5148 77.4035 23.8524 77.5054 24.194 77.5848C26.511 78.1303 28.7896 78.8321 31.1158 79.3431C31.3197 79.3868 31.4985 79.3722 31.6772 79.306C31.7024 79.2981 31.7262 79.2875 31.7514 79.2769C31.754 79.2756 31.758 79.2756 31.7606 79.2756C31.8268 79.2624 31.8904 79.2729 31.9513 79.3087C31.9526 79.3166 31.9526 79.3246 31.9539 79.3312C31.9539 79.3365 31.9539 79.3418 31.9553 79.3458C31.7778 79.686 31.5501 79.9866 31.2681 80.2448Z" fill="#3D3D3D"/>
<path d="M66.6771 102.141C67.0597 102.133 67.4225 102.215 67.7548 102.405C67.919 102.499 68.1534 102.582 67.9865 102.844C67.8528 103.055 67.6873 102.949 67.5311 102.856C67.1802 102.647 66.8029 102.532 66.3951 102.599C66.027 102.66 65.7132 102.82 65.6642 103.243C65.6179 103.648 65.8906 103.846 66.219 103.96C66.6334 104.105 67.069 104.189 67.4794 104.344C67.9985 104.54 68.3308 104.912 68.2672 105.503C68.2063 106.063 67.8674 106.412 67.3285 106.573C66.5725 106.798 65.8933 106.604 65.2591 106.19C65.1254 106.103 64.9149 106.016 65.083 105.785C65.226 105.589 65.3783 105.65 65.5332 105.768C65.9357 106.071 66.3858 106.216 66.8929 106.175C67.2981 106.142 67.6436 105.995 67.7297 105.565C67.8237 105.096 67.4847 104.892 67.1127 104.761C66.8439 104.667 66.5579 104.624 66.2839 104.543C65.4047 104.282 65.0393 103.844 65.1373 103.18C65.2339 102.524 65.8218 102.127 66.6758 102.141H66.6771Z" fill="#3D3D3D"/>
<path d="M34.8576 108.63C34.8284 109.137 34.8695 109.569 34.1519 109.327C34.0738 109.3 33.9784 109.328 33.891 109.33C33.7057 109.336 33.5283 109.315 33.3787 109.191C33.8725 109.258 34.0658 109.092 34.0579 108.548C34.0261 106.408 34.0446 104.269 34.0433 102.129C34.0433 101.563 33.8275 101.012 33.9202 100.439C33.9414 100.428 33.9639 100.417 33.9851 100.407C33.993 100.419 34.0009 100.429 34.0089 100.441C34.1598 100.448 34.3081 100.47 34.4352 100.567C34.4379 100.566 34.4392 100.564 34.4418 100.563C34.4445 100.567 34.4458 100.572 34.4471 100.576C34.5835 100.841 34.6219 101.132 34.5663 101.409C34.3187 102.671 34.6312 103.926 34.5941 105.188C34.5729 105.895 34.7238 106.612 34.5676 107.319C34.459 107.808 34.884 108.147 34.8576 108.63Z" fill="#3D3D3D"/>
<path d="M29.9773 82.4955C29.9773 82.4955 29.9707 82.4968 29.9667 82.4982C29.9667 82.6081 29.9323 82.7007 29.8356 82.763C29.825 82.8331 29.8078 82.9007 29.7827 82.9642C29.5549 83.1244 29.2954 83.1178 29.0055 83.0476C26.4475 82.4359 23.9054 81.7634 21.3567 81.1186C21.2032 81.0788 21.0694 81.0126 20.9556 80.9054C21.0774 80.6697 21.1992 80.4354 21.321 80.1997C21.8201 80.1547 22.2676 80.3798 22.7271 80.5016C24.9514 81.0921 27.1916 81.6217 29.4172 82.2056C29.6079 82.2546 29.7999 82.3075 29.9508 82.4479C29.9601 82.4624 29.9693 82.4757 29.9746 82.4902C29.9773 82.4916 29.9773 82.4942 29.9773 82.4955Z" fill="#3D3D3D"/>
<path d="M29.9746 82.4904C29.9746 82.4904 29.9772 82.4944 29.9772 82.4957C29.9732 82.4957 29.9706 82.497 29.9666 82.4983C28.3487 82.211 26.7877 81.692 25.1923 81.3147C23.9835 81.03 22.7879 80.6871 21.5844 80.3747C21.4719 80.3455 21.3805 80.3005 21.3209 80.1999C21.3553 79.9986 21.4427 79.8252 21.5963 79.6875C22.4251 79.7815 23.2169 80.041 24.0192 80.2462C25.6901 80.6712 27.3385 81.1863 29.0359 81.508C29.4516 81.5874 29.8316 81.7397 30.2089 81.9184C30.2195 81.9383 30.2288 81.9582 30.2354 81.978C30.238 81.982 30.2394 81.986 30.242 81.9913C30.1891 82.1766 30.1149 82.3514 29.9746 82.4904Z" fill="#3D3D3D"/>
<path d="M33.0687 105.908C33.0317 106.766 32.8781 107.634 32.9059 108.498C32.9112 108.671 32.8622 108.846 32.7099 108.966C32.4081 108.962 32.1565 108.83 31.9155 108.666C32.0877 106.11 32.0466 103.556 31.8864 101.002C31.8824 100.952 31.8798 100.902 31.8771 100.852C31.8758 100.846 31.8758 100.841 31.8758 100.837C31.8639 100.664 31.8546 100.49 31.856 100.317C31.8573 100.152 31.8666 99.9883 31.8944 99.8254C31.9089 99.8122 31.9235 99.7989 31.938 99.7897C31.9407 99.7857 31.9433 99.7844 31.946 99.7817C32.089 99.7884 32.2267 99.8082 32.3286 99.9261C32.4372 99.9393 32.5418 99.9592 32.6437 99.9896C32.841 100.208 32.9165 100.483 32.9205 100.795C32.9218 100.969 32.9165 101.144 32.9271 101.319C32.9959 102.423 32.8039 103.514 33.0039 104.641C33.0211 104.739 33.0356 104.835 33.0462 104.933C33.082 105.256 33.0846 105.581 33.0687 105.908Z" fill="#3D3D3D"/>
<path d="M33.3906 108.545C33.3654 108.831 33.3747 109.088 32.9828 109.057C32.8782 109.068 32.7789 109.06 32.71 108.966C32.7392 107.763 32.7021 106.559 32.8411 105.357C32.8967 104.871 32.9206 104.369 32.6346 103.889C32.5101 103.682 32.5803 103.324 32.6372 103.052C32.816 102.2 32.6677 101.345 32.722 100.494C32.7418 100.189 32.4545 100.118 32.3287 99.9258C32.4373 99.939 32.5419 99.9589 32.6438 99.9893C32.8107 100.037 32.9696 100.106 33.1205 100.196C33.1218 100.199 33.1231 100.2 33.1245 100.202C33.2754 100.462 33.2516 100.748 33.2516 101.031C33.2502 102.771 33.2529 104.509 33.2502 106.249C33.2502 107.017 33.4555 107.77 33.3906 108.545Z" fill="#3D3D3D"/>
<path d="M31.0325 80.6486C31.0325 80.6486 31.0286 80.65 31.0259 80.65C30.9438 80.9015 30.8101 81.1226 30.6181 81.3067L30.5599 81.4867C30.213 81.6509 29.8476 81.6456 29.4848 81.5437C27.1877 80.8962 24.8839 80.2806 22.5616 79.7311C22.2015 79.6451 21.7804 79.563 21.9923 79.0069C22.0691 78.7566 22.1909 78.5355 22.3935 78.3647C22.5457 78.7765 22.8661 78.9288 23.2779 79.0334C25.4943 79.5934 27.7345 80.0634 29.9363 80.6831C30.2024 80.7585 30.4579 80.7757 30.7029 80.6659H30.7042C30.7333 80.6526 30.7611 80.6367 30.7902 80.6195C30.8022 80.6142 30.8128 80.6076 30.8247 80.5997C30.8975 80.5838 30.965 80.5944 31.0286 80.6341C31.0299 80.638 31.0312 80.642 31.0312 80.646C31.0312 80.6473 31.0312 80.6486 31.0312 80.6486H31.0325Z" fill="#3D3D3D"/>
<path d="M30.618 81.3066L30.5598 81.4867C30.487 81.6667 30.3718 81.8243 30.246 81.9752C30.242 81.9766 30.2394 81.9779 30.2354 81.9779C29.776 82.0997 29.4132 81.7713 29.0094 81.6681C28.1316 81.4443 27.1981 81.4629 26.3614 81.0127C25.9509 80.7929 25.4174 80.8128 24.9526 80.6804C23.8299 80.3613 22.6542 80.2196 21.5963 79.6874C21.6678 79.4252 21.7989 79.1975 21.9922 79.0068C21.9511 79.4371 22.2808 79.4941 22.5747 79.5669C23.6737 79.837 24.7898 80.0528 25.8728 80.3745C27.0869 80.7347 28.3421 80.9359 29.531 81.39C29.8713 81.5198 30.2672 81.4827 30.618 81.3066Z" fill="#3D3D3D"/>
<path d="M33.3004 77.7529C33.1548 77.921 33.0078 78.0879 32.8595 78.256C32.6993 78.44 32.5378 78.6254 32.3763 78.8094C32.3683 78.828 32.3591 78.8465 32.3498 78.8637C32.3141 78.8796 32.277 78.8928 32.2399 78.9074C29.5509 78.2825 26.8751 77.6033 24.2152 76.8565C24.0007 76.797 23.6988 76.7625 23.8537 76.3945C23.9265 76.2144 24.0457 76.0754 24.2191 75.9854C24.2191 75.9854 24.2205 75.9867 24.2218 75.988H24.2231C24.7487 76.5467 25.51 76.4421 26.1562 76.6407C27.884 77.1717 29.6449 77.5887 31.3912 78.0614C32.0797 78.2481 32.7404 78.3275 33.3004 77.7529Z" fill="#3D3D3D"/>
<path d="M115.554 103.38C115.366 103.435 115.039 103.437 115.147 103.76C115.245 104.052 115.477 103.832 115.653 103.805C116.183 103.725 116.733 103.62 117.05 104.216C117.176 104.454 117.206 104.71 116.767 104.618C116.399 104.542 116.023 104.538 115.652 104.629C115.127 104.756 114.759 105.061 114.761 105.623C114.762 106.222 115.167 106.517 115.713 106.639C116.07 106.72 116.41 106.656 116.732 106.475C116.837 106.414 116.925 106.306 117.08 106.354C117.629 106.522 117.63 106.518 117.634 105.94C117.635 105.741 117.634 105.544 117.634 105.345C117.634 103.567 117 102.963 115.554 103.38ZM116.057 106.257C115.649 106.228 115.316 106.06 115.29 105.602C115.268 105.19 115.701 104.94 116.388 104.956C116.642 105.039 117.107 104.855 117.127 105.413C117.143 105.864 116.598 106.297 116.057 106.257Z" fill="#3D3D3D"/>
<path d="M136.664 105.37C136.664 103.568 136.082 102.999 134.611 103.372C134.415 103.421 134.091 103.417 134.168 103.725C134.253 104.069 134.521 103.828 134.713 103.8C135.222 103.725 135.737 103.637 136.063 104.18C136.123 104.281 136.151 104.442 136.117 104.552C136.063 104.731 135.902 104.614 135.782 104.612C135.453 104.604 135.12 104.56 134.799 104.608C134.132 104.707 133.742 105.152 133.783 105.693C133.825 106.246 134.339 106.656 134.998 106.669C135.293 106.676 135.558 106.592 135.81 106.443C135.906 106.386 135.971 106.281 136.145 106.369C136.631 106.618 136.644 106.599 136.661 106.095C136.67 105.854 136.662 105.611 136.664 105.37ZM135.105 106.257C134.703 106.232 134.356 106.081 134.315 105.622C134.278 105.213 134.716 104.945 135.398 104.956C135.668 105.042 136.174 104.839 136.154 105.458C136.139 105.893 135.627 106.289 135.105 106.257Z" fill="#3D3D3D"/>
<path d="M32.3764 78.8095C32.3684 78.828 32.3592 78.8466 32.3499 78.8638C32.2572 79.0491 32.1354 79.212 31.962 79.3325C31.9593 79.3325 31.9567 79.3325 31.954 79.3312C31.9011 79.3272 31.8481 79.3232 31.7965 79.3192C31.7567 79.3153 31.717 79.3113 31.6773 79.306C30.7995 79.2054 29.9627 78.9194 29.1233 78.6771C27.4193 78.1859 25.6677 77.8867 23.9849 77.324C23.7717 77.2525 23.4262 77.2948 23.446 76.9029C23.4619 76.6381 23.6883 76.5402 23.8538 76.3945C23.8737 76.5733 23.9756 76.6342 24.1504 76.6792C26.8937 77.3836 29.6357 78.0972 32.3764 78.8095Z" fill="#3D3D3D"/>
<path d="M30.7133 108.141C30.6035 108.143 30.5094 108.111 30.4499 108.012C30.6882 107.831 30.6087 107.571 30.6008 107.343C30.5598 106.167 30.667 104.992 30.5002 103.812C30.4035 103.137 30.4432 102.43 30.573 101.728C30.7425 100.802 30.2725 99.9219 30.2115 99.0044C30.2738 99.0203 30.3334 99.0388 30.3929 99.06C30.6127 99.1355 30.8153 99.2467 31.0033 99.3897C31.0046 99.3884 31.0059 99.3884 31.0059 99.387C31.0059 99.3884 31.0059 99.391 31.0059 99.3923C31.0549 100.945 30.8961 102.501 31.1172 104.055C31.1913 104.586 31.1344 105.138 31.0364 105.688C30.9437 106.215 30.9583 106.77 31.088 107.319C31.1582 107.62 31.3661 108.115 30.712 108.141H30.7133Z" fill="#3D3D3D"/>
<path d="M23.446 76.9028C24.6535 77.4708 25.9709 77.6602 27.2459 77.9912C28.6149 78.3473 29.9826 78.7061 31.3503 79.0636C31.5211 79.1086 31.6853 79.1655 31.7952 79.3178C31.6244 79.6263 31.4721 79.7243 31.0762 79.5257C30.3798 79.1748 29.5602 79.1986 28.8056 78.9696C28.2005 78.7856 27.5809 78.583 26.9321 78.4757C25.8279 78.2944 24.7594 77.8985 23.6724 77.6085C23.3653 77.5264 23.2104 77.3887 23.3269 77.0604C23.3666 77.0074 23.4063 76.9558 23.446 76.9028Z" fill="#3D3D3D"/>
<path d="M32.191 108.358C32.1871 108.545 32.0944 108.64 31.9156 108.665C31.578 108.603 31.2709 108.469 30.9941 108.268C31.5065 108.41 31.6959 108.28 31.6826 107.688C31.6588 106.554 31.6959 105.418 31.7594 104.279C31.8349 102.911 31.5992 101.53 31.6694 100.151C31.6866 99.8198 31.3953 99.7284 31.2788 99.5073C31.3794 99.5206 31.4748 99.5431 31.5674 99.5762C31.6985 99.6225 31.823 99.6887 31.9355 99.7814C31.9368 99.784 31.9368 99.7867 31.9382 99.7893C32.15 100.441 32.1222 101.127 32.1751 101.793C32.2996 103.365 32.1195 104.946 32.2758 106.531C32.3327 107.108 32.2056 107.747 32.191 108.358Z" fill="#3D3D3D"/>
<path d="M31.2867 80.2885C31.2801 80.2912 31.2748 80.2938 31.2682 80.2965C31.2589 80.4554 31.1557 80.556 31.0312 80.646C31.0312 80.6473 31.0312 80.6487 31.0312 80.6487C31.0285 80.65 31.0272 80.65 31.0246 80.65C30.9729 80.6473 30.9213 80.6447 30.8683 80.6407C30.8127 80.6513 30.7585 80.6593 30.7028 80.6645H30.7015C30.1123 80.7268 29.5655 80.4964 29.0187 80.3375C27.0539 79.7682 25.0441 79.3763 23.0806 78.8043C22.7628 78.7103 22.3206 78.6786 22.5378 78.1344C22.5775 78.0801 22.6159 78.0258 22.6556 77.9702C23.0674 78.2853 23.6009 78.2112 24.063 78.3409C24.9051 78.5753 25.7233 78.946 26.6435 78.9553C27.1373 78.9592 27.6193 79.3101 28.125 79.3895C28.7989 79.4955 29.4172 79.7973 30.1031 79.8649C30.4989 79.9059 30.8789 80.1124 31.2669 80.2448C31.2735 80.2594 31.2801 80.274 31.2854 80.2885H31.2867Z" fill="#3D3D3D"/>
<path d="M71.4356 105.14C71.6554 105.128 71.8752 105.137 72.095 105.137C72.4246 105.136 72.7543 105.135 73.084 105.136C73.2958 105.136 73.3898 105.055 73.3912 104.82C73.3951 104.191 72.9675 103.554 72.3664 103.346C71.6713 103.105 70.9153 103.388 70.5485 104.027C70.1262 104.764 70.2586 105.736 70.8531 106.264C71.4144 106.762 72.3386 106.812 72.9264 106.365C73.0522 106.269 73.2919 106.195 73.1634 105.969C73.0046 105.687 72.8391 105.903 72.6815 105.999C72.1506 106.324 71.6395 106.306 71.1682 105.888C70.9841 105.725 70.8107 105.499 70.8981 105.262C70.9762 105.049 71.2476 105.151 71.4356 105.14ZM71.662 103.718C71.9162 103.648 72.1426 103.711 72.3505 103.835C72.6312 103.999 72.851 104.269 72.794 104.581C72.7265 104.948 72.3624 104.73 72.1334 104.781C72.0288 104.804 71.9149 104.785 71.8063 104.785C71.7626 104.785 71.7163 104.793 71.6753 104.784C71.4078 104.716 70.9418 104.961 70.9034 104.584C70.8584 104.159 71.2105 103.844 71.662 103.718Z" fill="#3D3D3D"/>
<path d="M149.146 105.149C149.411 105.161 149.487 105.046 149.483 104.795C149.471 103.747 148.425 102.995 147.461 103.346C146.779 103.593 146.464 104.12 146.404 104.802C146.346 105.483 146.571 106.065 147.183 106.43C147.784 106.791 148.401 106.765 148.987 106.388C149.129 106.297 149.411 106.213 149.248 105.954C149.085 105.697 148.917 105.908 148.75 105.999C148.102 106.355 147.456 106.246 147.119 105.727C147.025 105.582 146.91 105.42 147.009 105.244C147.101 105.083 147.286 105.145 147.433 105.14C147.695 105.13 147.96 105.137 148.223 105.137V105.145C148.531 105.145 148.839 105.133 149.146 105.149ZM148.151 104.783C148.066 104.799 147.977 104.786 147.89 104.786C147.824 104.786 147.755 104.801 147.694 104.783C147.448 104.716 147.032 104.978 146.978 104.593C146.929 104.251 147.208 103.948 147.547 103.784C147.79 103.666 148.045 103.633 148.302 103.76C148.66 103.936 148.969 104.238 148.896 104.61C148.831 104.945 148.41 104.736 148.151 104.783Z" fill="#3D3D3D"/>
<path d="M29.8356 82.7628C29.825 82.833 29.8078 82.9005 29.7827 82.9641C29.7376 83.0859 29.6688 83.1945 29.5814 83.2951C29.5748 83.2977 29.5668 83.3004 29.5602 83.303C29.3193 83.3931 29.0915 83.4063 28.8214 83.3375C26.3125 82.6887 23.7995 82.0558 21.2813 81.4441C20.986 81.3726 20.9489 81.2204 20.9304 80.994C20.9132 80.9569 20.9211 80.9278 20.9556 80.9053C22.5126 81.1145 23.9928 81.648 25.5154 82.0068C26.7414 82.2955 27.9688 82.5894 29.1816 82.931C29.4834 83.0157 29.6224 82.829 29.8356 82.7628Z" fill="#3D3D3D"/>
<path d="M22.539 78.1341C22.4847 78.4691 22.7297 78.5419 22.9667 78.6015C24.4231 78.9709 25.8821 79.3284 27.3385 79.7031C28.5182 80.0063 29.6926 80.328 30.8696 80.6405C30.7121 80.9847 30.4724 81.031 30.1189 80.9159C29.2173 80.6233 28.2944 80.3373 27.3782 80.1665C25.8503 79.8818 24.382 79.3747 22.8594 79.1046C22.3404 79.0133 22.257 78.7935 22.3921 78.3632C22.4013 78.2612 22.4397 78.1778 22.5377 78.1328L22.539 78.1341Z" fill="#3D3D3D"/>
<path d="M87.3804 104.972C87.3804 104.553 87.3857 104.135 87.3791 103.718C87.3738 103.432 87.6307 103.211 87.7472 103.403C88.0133 103.838 88.1603 103.526 88.3655 103.416C89.2261 102.962 90.1873 103.469 90.2469 104.433C90.284 105.024 90.2575 105.62 90.2562 106.215C90.2562 106.396 90.2509 106.584 89.9887 106.571C89.7358 106.559 89.7385 106.368 89.7371 106.191C89.7345 105.706 89.7332 105.223 89.7358 104.739C89.7371 104.184 89.5412 103.788 88.9242 103.748C88.3509 103.711 87.9431 104.083 87.9021 104.716C87.8703 105.198 87.8981 105.684 87.8902 106.168C87.8875 106.334 87.9339 106.552 87.6704 106.568C87.3765 106.585 87.3818 106.364 87.3804 106.162C87.3791 105.766 87.3804 105.37 87.3804 104.973V104.972Z" fill="#3D3D3D"/>
<path d="M125.408 97.0409C129.746 97.0369 134.083 97.021 138.421 97.0409C139.011 97.0436 139.247 96.9098 139.2 96.2809C139.145 95.5143 139.143 94.7385 139.2 93.9732C139.249 93.3125 138.998 93.1762 138.381 93.1854C135.893 93.2199 133.405 93.1815 130.917 93.2132C130.331 93.2212 130.156 93.057 130.18 92.4731C130.225 91.353 130.188 90.2289 130.199 89.1075C130.201 88.8811 130.094 88.6137 130.356 88.4429C130.347 89.8503 130.353 91.259 130.319 92.6664C130.306 93.1854 130.634 93.0888 130.927 93.0888C133.503 93.0914 136.08 93.106 138.656 93.0769C139.204 93.0702 139.376 93.2185 139.351 93.7693C139.308 94.7133 139.328 95.6613 139.346 96.608C139.353 96.9628 139.267 97.1164 138.873 97.1151C134.468 97.1031 130.064 97.1071 125.66 97.1031C125.576 97.1031 125.492 97.0634 125.408 97.0409Z" fill="#3D3D3D"/>
<path d="M156.422 106.661C156.142 106.627 155.823 106.543 155.533 106.375C155.402 106.298 155.249 106.208 155.345 106.015C155.442 105.822 155.591 105.877 155.733 105.962C155.983 106.112 156.26 106.195 156.546 106.216C156.853 106.237 157.144 106.137 157.231 105.819C157.321 105.487 157.024 105.364 156.786 105.26C156.524 105.148 156.243 105.08 155.974 104.981C155.61 104.847 155.376 104.598 155.395 104.192C155.417 103.747 155.652 103.469 156.089 103.336C156.569 103.191 157.003 103.31 157.433 103.497C157.559 103.551 157.675 103.626 157.588 103.793C157.518 103.927 157.409 103.989 157.264 103.919C156.959 103.775 156.645 103.683 156.305 103.747C156.093 103.787 155.929 103.904 155.901 104.124C155.877 104.324 156.02 104.454 156.189 104.527C156.41 104.623 156.639 104.704 156.87 104.774C157.429 104.945 157.846 105.219 157.711 105.898C157.615 106.383 157.097 106.695 156.419 106.66L156.422 106.661Z" fill="#3D3D3D"/>
<path d="M160.42 78.7078C160.032 79.0017 160.19 79.6147 159.685 79.5948C159.243 79.5776 159.345 79.0348 159.021 78.7276C158.982 79.0613 158.948 79.342 158.919 79.6226C158.901 79.7881 158.872 79.9404 158.656 79.9152C158.484 79.8954 158.461 79.7603 158.471 79.6213C158.512 79.0732 158.557 78.525 158.6 77.9756C158.613 77.8061 158.664 77.6764 158.863 77.6605C159.04 77.6472 159.161 77.724 159.228 77.8829C159.371 78.2179 159.51 78.5542 159.7 79.0083C159.886 78.5687 160.027 78.255 160.151 77.9372C160.224 77.7532 160.329 77.638 160.542 77.6618C160.778 77.6883 160.797 77.8697 160.819 78.0471C160.878 78.5489 160.938 79.052 160.993 79.5551C161.011 79.7113 161.025 79.8821 160.812 79.9152C160.591 79.9497 160.49 79.8292 160.478 79.6147C160.464 79.338 160.444 79.0613 160.421 78.7078H160.42Z" fill="#3D3D3D"/>
<path d="M140.058 106.661C139.551 106.633 139.198 106.417 139.151 105.888C139.109 105.387 139.117 104.883 139.096 104.38C139.085 104.135 139.189 103.836 138.802 103.752C138.68 103.726 138.654 103.501 138.697 103.493C139.39 103.38 138.799 102.494 139.379 102.362C139.629 102.305 139.632 102.567 139.611 102.733C139.546 103.232 139.754 103.416 140.241 103.356C140.4 103.338 140.636 103.302 140.637 103.564C140.638 103.826 140.403 103.8 140.244 103.776C139.676 103.691 139.572 103.988 139.61 104.464C139.639 104.835 139.606 105.21 139.625 105.582C139.641 105.89 139.763 106.117 140.122 106.174C140.294 106.202 140.634 105.962 140.62 106.355C140.608 106.676 140.276 106.616 140.057 106.66L140.058 106.661Z" fill="#3D3D3D"/>
<path d="M143.004 104.957C142.828 104.59 143.37 103.94 142.583 103.689C142.49 103.66 142.501 103.433 142.604 103.417C143.09 103.343 143 102.991 143.004 102.675C143.006 102.518 143.007 102.354 143.232 102.35C143.425 102.347 143.538 102.463 143.513 102.636C143.428 103.22 143.665 103.445 144.242 103.36C144.38 103.34 144.51 103.409 144.49 103.585C144.47 103.756 144.327 103.795 144.197 103.773C143.544 103.665 143.474 104.036 143.519 104.545C143.547 104.851 143.536 105.161 143.521 105.468C143.498 105.917 143.633 106.203 144.147 106.166C144.291 106.155 144.482 106.094 144.479 106.345C144.476 106.542 144.308 106.58 144.161 106.623C143.574 106.793 143.048 106.427 143.008 105.808C142.991 105.546 143.006 105.28 143.006 104.953L143.004 104.957Z" fill="#3D3D3D"/>
<path d="M80.7287 105.983C81.0769 105.132 81.3615 104.446 81.6369 103.755C81.7322 103.515 81.8514 103.253 82.1427 103.382C82.4816 103.533 82.1639 103.756 82.1016 103.914C81.7931 104.689 81.4529 105.45 81.1206 106.215C81.0438 106.392 80.9961 106.614 80.7472 106.622C80.4652 106.631 80.4043 106.396 80.3182 106.194C79.9806 105.407 79.635 104.624 79.3093 103.833C79.2537 103.698 79.0353 103.509 79.2736 103.387C79.4987 103.272 79.6853 103.387 79.7846 103.641C80.072 104.372 80.3712 105.098 80.73 105.982L80.7287 105.983Z" fill="#3D3D3D"/>
<path d="M120.128 104.928C119.977 104.522 120.405 103.939 119.713 103.702C119.616 103.669 119.613 103.452 119.713 103.428C120.16 103.322 120.12 102.995 120.11 102.665C120.104 102.505 120.128 102.352 120.348 102.352C120.549 102.352 120.643 102.483 120.615 102.647C120.516 103.231 120.747 103.452 121.324 103.36C121.454 103.341 121.601 103.375 121.608 103.551C121.618 103.772 121.44 103.804 121.291 103.778C120.643 103.661 120.553 103.999 120.621 104.528C120.659 104.83 120.635 105.141 120.626 105.448C120.612 105.92 120.757 106.226 121.303 106.165C121.434 106.15 121.582 106.134 121.601 106.32C121.616 106.474 121.504 106.543 121.375 106.602C120.854 106.836 120.213 106.5 120.136 105.914C120.094 105.591 120.128 105.259 120.128 104.931V104.928Z" fill="#3D3D3D"/>
<path d="M110.634 103.931C110.397 104.243 110.32 104.594 110.335 104.984C110.352 105.423 110.339 105.863 110.332 106.302C110.329 106.486 110.226 106.584 110.038 106.571C109.871 106.559 109.821 106.444 109.821 106.298C109.821 104.957 109.821 103.616 109.821 102.275C109.821 102.092 109.904 101.978 110.099 101.991C110.3 102.006 110.323 102.157 110.34 102.321C110.39 102.795 110.227 103.285 110.442 103.747C110.605 103.706 110.66 103.775 110.635 103.931H110.634Z" fill="#3D3D3D"/>
<path d="M152.215 103.932C152.462 103.637 152.704 103.421 153.033 103.33C153.178 103.289 153.349 103.199 153.432 103.393C153.505 103.563 153.497 103.757 153.265 103.814C152.206 104.071 152.103 104.874 152.136 105.761C152.142 105.935 152.136 106.112 152.134 106.288C152.132 106.466 152.064 106.586 151.863 106.572C151.704 106.562 151.629 106.464 151.629 106.314C151.626 105.415 151.625 104.516 151.629 103.617C151.629 103.424 151.748 103.34 151.931 103.366C152.277 103.413 152.056 103.736 152.217 103.934L152.215 103.932Z" fill="#3D3D3D"/>
<path d="M76.1437 103.859C76.4337 103.628 76.6561 103.377 76.9964 103.31C77.1579 103.278 77.3102 103.244 77.3697 103.446C77.4187 103.61 77.3896 103.775 77.2003 103.813C76.0616 104.05 76.0431 104.908 76.0762 105.802C76.0828 105.976 76.0762 106.152 76.0669 106.327C76.0577 106.477 75.9782 106.568 75.818 106.57C75.6605 106.57 75.5691 106.489 75.5678 106.334C75.5651 105.414 75.5651 104.492 75.5678 103.572C75.5678 103.4 75.6922 103.355 75.8352 103.36C76.1397 103.369 76.0338 103.647 76.1424 103.858L76.1437 103.859Z" fill="#3D3D3D"/>
<path d="M110.634 103.931C110.569 103.87 110.505 103.808 110.441 103.747C110.802 103.258 111.284 103.154 111.843 103.323C112.405 103.493 112.642 103.923 112.673 104.466C112.706 105.056 112.693 105.649 112.697 106.241C112.697 106.441 112.63 106.591 112.395 106.571C112.179 106.552 112.183 106.382 112.182 106.228C112.178 105.811 112.182 105.394 112.178 104.977C112.167 103.834 111.682 103.507 110.633 103.93L110.634 103.931Z" fill="#3D3D3D"/>
<path d="M157.352 77.6403C157.529 77.6403 157.705 77.6376 157.881 77.6403C158.016 77.6429 158.171 77.6614 158.193 77.8177C158.218 77.9951 158.063 78.0308 157.93 78.0242C157.552 78.0057 157.579 78.2612 157.58 78.5101C157.583 78.8623 157.581 79.2145 157.58 79.5653C157.58 79.7454 157.584 79.9414 157.321 79.9242C157.118 79.9109 157.086 79.7547 157.085 79.5918C157.081 79.2185 157.085 78.8438 157.081 78.4704C157.078 78.2745 157.109 78.0573 156.816 78.0308C156.668 78.0176 156.464 78.0308 156.508 77.8031C156.545 77.6111 156.742 77.6429 156.893 77.6376C157.047 77.6323 157.201 77.6376 157.355 77.6376V77.6403H157.352Z" fill="#3D3D3D"/>
<path d="M84.4478 104.898C84.4478 104.502 84.4478 104.106 84.4478 103.709C84.4478 103.518 84.4716 103.347 84.7258 103.361C84.931 103.371 84.9707 103.512 84.9707 103.678C84.9707 104.536 84.9707 105.394 84.9707 106.254C84.9707 106.42 84.9284 106.565 84.7245 106.573C84.4729 106.582 84.4491 106.407 84.4491 106.218C84.4491 105.778 84.4491 105.337 84.4491 104.898H84.4478Z" fill="#3D3D3D"/>
<path d="M145.897 97.0195C145.738 96.8276 145.803 96.5972 145.802 96.384C145.797 94.3384 145.798 92.2915 145.802 90.246C145.802 89.9706 145.721 89.6568 146.064 89.4966C146.137 89.5442 146.139 89.5972 146.075 89.6541C145.928 89.8726 145.982 90.1189 145.982 90.3545C145.978 92.3419 145.982 94.3292 145.977 96.3165C145.977 96.5508 146.04 96.7984 145.897 97.0182V97.0195Z" fill="#3D3D3D"/>
<path d="M59.9711 90.5559C59.9194 89.408 60.0704 88.2534 59.8427 87.1108C59.8029 86.9083 59.7831 86.6766 59.9036 86.4727C60.1406 87.8231 60.2571 89.1789 60.1048 90.5479C60.0638 90.6088 60.0201 90.6141 59.9711 90.5559Z" fill="#3D3D3D"/>
<path d="M85.0012 102.392C84.9986 102.625 84.8556 102.692 84.653 102.677C84.4518 102.662 84.4147 102.523 84.4174 102.353C84.42 102.167 84.4995 102.069 84.6928 102.068C84.9178 102.065 85.0092 102.179 85.0012 102.392Z" fill="#3D3D3D"/>
<path d="M146.075 89.6545C146.071 89.6016 146.068 89.5499 146.064 89.497C146.632 89.5817 147.234 89.305 147.776 89.6611C147.209 89.6585 146.643 89.6558 146.075 89.6545Z" fill="#3D3D3D"/>
<path d="M37.3055 109.996C37.5849 109.99 37.8643 109.984 38.1436 109.978C38.4349 109.811 38.7222 109.677 38.9261 110.094C38.8758 110.106 38.8255 110.118 38.7752 110.13C38.2787 110.164 37.7862 110.147 37.3055 109.996Z" fill="#3D3D3D"/>
<path d="M59.9711 90.5558C60.0161 90.5531 60.0598 90.5505 60.1048 90.5479C60.1114 91.0152 60.1525 91.4866 59.9737 91.9367C59.9737 91.4773 59.9724 91.0165 59.9724 90.5558H59.9711Z" fill="#3D3D3D"/>
<path d="M24.6574 75.4971C24.6243 75.7632 24.48 75.93 24.2166 75.9909C24.3039 75.7738 24.4615 75.6176 24.6574 75.4971Z" fill="#3D3D3D"/>
<path d="M19.4726 85.411C19.5044 85.55 19.4832 85.7089 19.6209 85.8095C19.6593 85.8479 19.6673 85.8784 19.6461 85.9009C19.6276 85.9207 19.6103 85.93 19.5918 85.93C19.5124 85.9274 19.4329 85.9247 19.3548 85.9207C19.3244 85.734 19.331 85.5553 19.474 85.4097L19.4726 85.411Z" fill="#3D3D3D"/>
<path d="M145.966 80.6499C145.961 82.3102 145.957 83.9718 145.951 85.6334C145.769 85.2376 145.881 84.8192 145.873 84.4127C145.853 83.3654 145.861 82.3168 145.872 81.2695C145.875 81.063 145.778 80.8313 145.966 80.6499Z" fill="#3D3D3D"/>
<path d="M145.966 80.6499C145.961 82.3102 145.957 83.9718 145.951 85.6334C145.755 85.7288 145.8 85.5672 145.8 85.4812C145.798 84.0009 145.799 82.5207 145.799 81.0405C145.799 80.8869 145.795 80.7307 145.966 80.6499Z" fill="#3D3D3D"/>
<path d="M28.7671 85.3912C28.7671 85.3912 28.7777 85.3806 28.7803 85.374L28.7711 85.3979C28.7711 85.3979 28.7631 85.4005 28.7592 85.4005C28.7618 85.3979 28.7645 85.3939 28.7671 85.3912Z" fill="#3D3D3D"/>
<path d="M29.2094 84.2141C29.2094 84.2141 29.1988 84.2207 29.1935 84.2233C29.1975 84.2167 29.2014 84.2088 29.2067 84.2021C29.208 84.2061 29.2094 84.2101 29.2094 84.2141Z" fill="#3D3D3D"/>
<path d="M29.9779 82.4958C29.9779 82.4958 29.9709 82.4972 29.9667 82.4986L29.9751 82.4902C29.9751 82.4902 29.9779 82.4944 29.9779 82.4958Z" fill="#3D3D3D"/>
<path d="M31.0315 80.646V80.6488C31.0287 80.6502 31.0273 80.6502 31.0245 80.6502C31.0259 80.6488 31.0287 80.6474 31.0301 80.646H31.0315Z" fill="#3D3D3D"/>
<path d="M31.2867 80.2883C31.2801 80.291 31.2748 80.2936 31.2682 80.2963C31.2695 80.2804 31.2695 80.2632 31.2682 80.2446C31.2748 80.2592 31.2814 80.2738 31.2867 80.2883Z" fill="#3D3D3D"/>
<path d="M28.7354 98.1026C28.6546 98.0138 28.5858 97.9185 28.5288 97.8166C28.4362 97.655 28.3713 97.4803 28.3236 97.2936C28.0284 96.1219 27.7675 94.9435 27.6788 93.7413C27.655 93.4169 27.6431 93.0939 27.6471 92.7668C27.6471 92.6159 27.6378 92.4676 27.6113 92.3207C27.6087 92.3034 27.6047 92.2849 27.6007 92.2664C27.5981 92.2545 27.5954 92.2425 27.5928 92.2306C27.5835 92.1936 27.5742 92.1565 27.5623 92.1194C27.5597 91.5527 27.6378 90.99 27.655 90.4247C27.659 90.3228 27.6603 90.2208 27.6576 90.1175C27.6576 90.0619 27.6563 90.0076 27.6537 89.952C27.6788 89.6886 27.7649 89.4357 27.7834 89.1722C27.7874 89.1206 27.7874 89.0689 27.7861 89.0173L27.7821 88.9696C27.8165 88.6836 27.8523 88.3977 28.0085 88.1514C28.031 88.1143 28.0575 88.0773 28.0879 88.0415C28.0893 88.0667 28.0906 88.0905 28.0906 88.1156C28.0999 88.4109 28.0125 88.6903 27.941 88.9723C27.9635 89.2874 27.9185 89.5946 27.8218 89.8938C27.7874 90.6286 27.753 91.3634 27.7186 92.0969C27.8179 93.0542 27.8999 94.0127 28.0204 94.966C28.1475 95.9683 28.4309 96.9388 28.6864 97.9132C28.7023 97.9768 28.7195 98.039 28.7354 98.1026Z" fill="#3D3D3D"/>
<path d="M31.0076 99.3928C31.0076 99.3928 31.0048 99.3914 31.0034 99.39C31.0048 99.3886 31.0062 99.3886 31.0062 99.3872C31.0062 99.3886 31.0062 99.3914 31.0062 99.3928H31.0076Z" fill="#3D3D3D"/>
<path d="M33.985 100.407C33.993 100.419 34.0009 100.429 34.0089 100.441C33.9797 100.44 33.9493 100.439 33.9202 100.439C33.9413 100.428 33.9639 100.417 33.985 100.407Z" fill="#3D3D3D"/>
<path d="M34.4422 100.563C34.4422 100.563 34.4464 100.573 34.4478 100.577C34.4436 100.574 34.4394 100.57 34.4352 100.567C34.438 100.566 34.4394 100.564 34.4422 100.563Z" fill="#3D3D3D"/>
<path d="M38.5462 101.148C38.4098 101.28 38.2311 101.328 38.0669 101.266C38.0007 101.241 37.9332 101.219 37.8656 101.201C37.6075 101.128 37.3453 101.098 37.0818 101.082C37.0818 101.08 37.0792 101.082 37.0792 101.082C36.9481 101.071 36.8157 101.066 36.6846 101.059C36.6634 101.059 36.6409 101.058 36.6198 101.057C36.5999 101.045 36.58 101.034 36.5588 101.025C36.5509 101.022 36.543 101.018 36.5337 101.016C36.351 100.941 36.1484 100.953 35.9551 100.929C35.922 100.925 35.8889 100.92 35.8558 100.912C35.7803 100.899 35.7075 100.875 35.6387 100.835C35.6943 100.837 35.7499 100.838 35.8055 100.839C36.065 100.846 36.3219 100.865 36.5602 100.986C36.8422 101.009 37.1229 101.033 37.4049 101.055H37.4075C37.4724 101.055 37.5307 101.059 37.5836 101.07C37.904 101.095 38.2258 101.121 38.5462 101.148Z" fill="#3D3D3D"/>
<path d="M41.0313 101.116C40.8618 101.125 40.695 101.133 40.5269 101.143L41.0313 101.116Z" fill="#3D3D3D"/>
<path d="M49.5446 83.6763L49.6518 83.953V83.9503C49.6531 83.9212 49.6571 83.8934 49.6637 83.8682" fill="#3D3D3D"/>
<path d="M50.6965 86.2254C50.6965 86.2254 50.6952 86.2254 50.6939 86.2254L50.6859 86.2056C50.6859 86.2056 50.6925 86.2162 50.6952 86.2215C50.6952 86.2228 50.6952 86.2254 50.6965 86.2268V86.2254Z" fill="#3D3D3D"/>
<path d="M44.7954 100.421C44.8232 100.425 44.8523 100.429 44.8801 100.434C44.8457 100.441 44.8113 100.449 44.7769 100.455C44.7822 100.443 44.7888 100.431 44.7954 100.421Z" fill="#3D3D3D"/>
<path d="M47.5176 99.5142H47.5269C47.5269 99.5142 47.5229 99.5168 47.5202 99.5195C47.507 99.5287 47.4924 99.538 47.4779 99.5473C47.2806 99.6744 47.0463 99.7114 46.8304 99.7909C46.9403 99.7035 47.0582 99.6373 47.1853 99.591C47.2462 99.5764 47.3058 99.5592 47.3653 99.5393C47.3852 99.5327 47.4064 99.5261 47.4262 99.5181C47.4448 99.5168 47.4646 99.5155 47.4845 99.5155C47.4951 99.5155 47.507 99.5142 47.5176 99.5142Z" fill="#3D3D3D"/>
<path d="M51.9556 92.4056V92.6664C51.9556 92.7061 51.9556 92.7445 51.9543 92.7842C51.9543 92.9484 51.9543 93.1139 51.9529 93.2781C51.9516 93.335 51.9516 93.388 51.9529 93.4436C51.9503 93.5773 51.9503 93.7124 51.9503 93.8461C51.949 93.8699 51.949 93.8924 51.9503 93.9163C51.949 94.0368 51.949 94.1586 51.9503 94.2804C51.949 94.3108 51.949 94.3413 51.9503 94.3717C51.9503 94.4419 51.9503 94.5107 51.9503 94.5796C51.7927 95.3568 51.8894 96.1896 51.5385 96.927C51.4975 97.0144 51.4498 97.1005 51.3942 97.1852C51.4035 97.127 51.4114 97.0687 51.4207 97.0104C51.5399 96.2174 51.6603 95.4243 51.7795 94.6325C51.7716 93.4131 51.7623 92.1937 51.753 90.973C51.6113 90.6328 51.618 90.274 51.6219 89.9165C51.4922 89.4438 51.3227 88.9804 51.3465 88.4786C51.2221 88.3224 51.2168 88.1383 51.2168 87.9517C51.3267 88.0258 51.3783 88.1304 51.4154 88.2429C51.43 88.284 51.4406 88.3264 51.4538 88.3687C51.4657 88.4111 51.4776 88.4535 51.4935 88.4945C51.5756 88.8162 51.6166 89.1459 51.6736 89.4729C51.6881 89.563 51.704 89.6517 51.7226 89.7391C51.7371 89.8066 51.7517 89.8741 51.7689 89.9403C51.7874 90.0462 51.7967 90.1521 51.8033 90.2581C51.8099 90.3587 51.8152 90.4606 51.8232 90.5626V90.5745C51.8258 90.6036 51.8285 90.6341 51.8325 90.6645C51.847 90.7956 51.8709 90.9254 51.9185 91.0525C51.9291 91.2338 51.9371 91.4166 51.941 91.5979C51.941 91.6178 51.9437 91.6377 51.941 91.6575C51.949 91.9064 51.9516 92.1567 51.9529 92.4056H51.9556Z" fill="#3D3D3D"/>
<path d="M59.3077 85.4031C59.2786 85.7302 59.215 86.0479 59.0469 86.3352C58.9966 86.363 58.945 86.3908 58.8933 86.416C57.1218 87.3587 55.1795 87.8989 53.3722 88.7542C52.7923 89.0296 52.1052 89.1593 51.7239 89.7392C51.6868 89.7948 51.6537 89.8531 51.6232 89.9166C51.4935 89.444 51.324 88.9806 51.3479 88.4788C51.3015 88.3596 51.3452 88.2921 51.4167 88.2431C51.4485 88.2219 51.4856 88.2047 51.5239 88.1888C53.923 87.1561 56.3499 86.1909 58.749 85.1595C58.8893 85.0986 59.035 85.0205 59.1859 85.0708C59.2243 85.0827 59.264 85.1026 59.3024 85.1344H59.3038C59.3051 85.2244 59.3064 85.3144 59.3077 85.4031Z" fill="#3D3D3D"/>
<path d="M55.7435 92.9458C54.5493 94.6207 53.1194 96.0533 51.3955 97.1853C51.4048 97.127 51.4127 97.0688 51.422 97.0105C51.5411 96.2174 51.6616 95.4244 51.7808 94.6326C51.794 94.6141 51.8033 94.5942 51.8112 94.573C51.839 94.5015 51.8457 94.4181 51.8854 94.3506C51.8907 94.34 51.8986 94.3294 51.9066 94.3188C51.9158 94.3069 51.9264 94.2963 51.9397 94.2857C51.9436 94.2844 51.9463 94.2818 51.9503 94.2804C53.0942 93.6992 54.3057 93.2835 55.4959 92.8174C55.5648 92.7909 55.6601 92.7499 55.7104 92.7936C55.7369 92.8161 55.7515 92.8624 55.7435 92.9458Z" fill="#3D3D3D"/>
<path d="M58.5253 87.6446C58.5677 88.2496 58.2367 88.7276 57.9838 89.2334C56.1342 89.9139 54.364 90.7838 52.5382 91.5172C52.325 91.6033 52.1198 91.7913 51.8669 91.6139C51.7729 91.3637 51.9265 91.0777 51.7491 90.8407C51.7147 90.7771 51.7147 90.7136 51.7491 90.65C52.0245 90.3018 52.4495 90.2158 52.8281 90.0688C54.499 89.4227 56.1289 88.6839 57.7839 87.9994C58.0394 87.8935 58.2009 87.5956 58.5266 87.6446H58.5253Z" fill="#3D3D3D"/>
<path d="M59.047 86.3353C59.0099 86.6517 58.9622 86.9642 58.7729 87.2343C58.6921 87.274 58.6101 87.3124 58.528 87.3508C56.5843 88.2736 54.5705 89.031 52.5991 89.8916C52.2615 90.0385 51.9821 90.2239 51.8352 90.5522C51.8312 90.5588 51.8272 90.5668 51.8246 90.5747C51.81 90.6092 51.7968 90.6449 51.7848 90.682C51.7848 90.731 51.7848 90.78 51.7848 90.8303C51.81 90.8687 51.814 90.9018 51.7968 90.9309C51.7888 90.9468 51.7743 90.9613 51.7531 90.9733C51.6114 90.633 51.618 90.2742 51.622 89.9167C51.5942 89.73 51.6127 89.5884 51.6736 89.4732C51.765 89.2971 51.953 89.1859 52.2165 89.0839C53.2293 88.696 54.1892 88.1677 55.2061 87.7917C56.4533 87.3309 57.6846 86.8437 58.8616 86.2281C58.9093 86.2029 58.9424 86.1923 58.9662 86.191C59.039 86.183 59.0271 86.2625 59.0456 86.3353H59.047Z" fill="#3D3D3D"/>
<path d="M51.7848 90.6804C51.6974 90.2487 51.8629 90.0541 52.2866 89.8555C54.3759 88.8744 56.587 88.174 58.6312 87.0897C58.7477 87.0288 58.761 87.1506 58.7742 87.234C58.6908 87.3704 58.6087 87.5081 58.5253 87.6444C58.2036 88.1396 57.6448 88.3144 57.1576 88.4905C55.3371 89.1512 53.6093 90.0316 51.7862 90.6804H51.7848Z" fill="#3D3D3D"/>
<path d="M51.9079 91.6125C53.547 90.9015 55.1874 90.1918 56.8266 89.4795C57.1642 89.3325 57.5508 89.3233 57.854 89.073C57.9321 89.0082 57.9692 89.1512 57.9824 89.2332C57.9533 89.4398 57.8791 89.6238 57.7216 89.7668C56.9682 90.5122 55.864 90.5718 55.0246 91.1464C54.9663 91.1729 54.9068 91.1928 54.8458 91.21C53.8409 91.5052 52.9049 91.958 51.9847 92.4506C51.9066 92.4479 51.8589 92.4082 51.8404 92.3327C51.8642 92.0931 51.7623 91.8402 51.9092 91.6125H51.9079Z" fill="#3D3D3D"/>
<path d="M56.8107 91.3727C56.7194 91.6931 56.5446 91.9606 56.2864 92.1724C55.0008 92.8384 53.6649 93.3892 52.3078 93.891C52.1608 93.9453 52.0099 93.9784 51.8696 93.8685C51.8179 93.7374 51.8312 93.6037 51.8523 93.4699C51.9927 93.1204 52.2641 92.9271 52.6057 92.7881C53.8211 92.2916 55.0842 91.9156 56.2639 91.3304C56.4122 91.2562 56.6637 90.9636 56.8094 91.3727H56.8107Z" fill="#3D3D3D"/>
<path d="M56.8107 91.3731C56.3049 91.3108 55.9726 91.708 55.5423 91.8537C54.548 92.19 53.5722 92.5832 52.5858 92.9433C52.3025 93.0466 52.1714 93.3273 51.9199 93.4623C51.7557 93.2756 51.8629 93.0559 51.8417 92.8506C52.0006 92.4839 52.3634 92.3886 52.6825 92.2879C53.7271 91.9583 54.7016 91.4697 55.6879 91.0076C56.1725 90.7812 56.669 90.5588 57.2238 90.5562C57.1947 90.8832 57.057 91.1559 56.8107 91.3731Z" fill="#3D3D3D"/>
<path d="M51.9146 93.8578C53.3206 93.3918 54.6446 92.7231 56.0163 92.171C56.1183 92.13 56.1964 92.04 56.2877 92.171C56.1619 92.4676 55.9951 92.7351 55.7449 92.9442C54.6711 93.2925 53.6212 93.6963 52.5925 94.1636C52.3753 94.2616 52.1357 94.3119 51.9066 94.3848C51.8033 94.2073 51.7914 94.0312 51.9146 93.8565V93.8578Z" fill="#3D3D3D"/>
<path d="M57.2238 90.5547C55.7012 91.1068 54.3123 91.9806 52.742 92.4215C52.4547 92.5023 52.1926 92.6718 51.9198 92.8015C51.798 92.6691 51.7994 92.5367 51.9198 92.4043C51.9569 92.4043 51.994 92.403 52.0311 92.403C52.7103 91.8522 53.5815 91.7238 54.3414 91.3504C54.5374 91.2538 54.7638 91.222 54.9412 91.0816C55.6734 90.6911 56.5128 90.5494 57.2158 90.09C57.3972 89.9708 57.5773 89.9377 57.4541 90.2674C57.3774 90.3627 57.3019 90.4594 57.2251 90.5547H57.2238Z" fill="#3D3D3D"/>
<path d="M57.4528 90.2676C57.4197 90.0372 57.3204 90.1127 57.2026 90.208C56.6147 90.6767 55.8494 90.7416 55.2007 91.0739C55.1305 91.1096 55.0285 91.0805 54.9412 91.0818C55.774 90.4423 56.8159 90.2464 57.7229 89.7671C57.6832 89.9617 57.6289 90.1471 57.4528 90.2689V90.2676Z" fill="#3D3D3D"/>
<path d="M32.4597 72.5734C31.6653 72.7984 30.8696 72.7971 30.0752 72.5747C30.8696 72.4317 31.6653 72.433 32.4597 72.5734Z" fill="#3D3D3D"/>
<path d="M28.7354 98.1028C26.335 96.706 24.3476 94.8643 22.78 92.5725C22.78 92.493 22.7933 92.4427 22.8171 92.4123C22.8754 92.3302 22.9945 92.4004 23.0647 92.4705C23.6141 93.024 24.3675 93.0796 25.052 93.2874C25.6822 93.4781 26.335 93.5906 26.9692 93.776C27.3253 93.8806 27.512 93.7588 27.5186 93.3669C27.5252 93.0293 27.4829 92.6877 27.5557 92.3527C27.5623 92.3236 27.5703 92.2944 27.5782 92.2653C27.5795 92.2613 27.5808 92.256 27.5822 92.2521C27.5848 92.2455 27.5888 92.2375 27.5928 92.2309C27.6206 92.174 27.6629 92.1303 27.7185 92.0972C27.8178 93.0544 27.8999 94.013 28.0204 94.9663C28.1475 95.9685 28.4308 96.939 28.6864 97.9135C28.7023 97.977 28.7195 98.0393 28.7354 98.1028Z" fill="#3D3D3D"/>
<path d="M27.8218 89.8939C27.7874 90.6287 27.7529 91.3636 27.7185 92.0971C27.704 92.1553 27.6907 92.2136 27.6775 92.2718C27.655 92.2904 27.6338 92.3076 27.6113 92.3208C27.5927 92.334 27.5742 92.3446 27.5557 92.3526C27.3293 92.4612 27.0949 92.3605 26.8659 92.297C25.5551 91.9329 24.2377 91.5926 22.9111 91.2894C22.6039 91.2192 22.302 91.1703 21.9936 91.21C21.9525 91.2153 21.9115 91.2219 21.8704 91.2298C21.362 90.5347 20.9781 89.7748 20.6868 88.9658C20.614 88.8003 20.6312 88.7222 20.7027 88.701C20.753 88.6864 20.8298 88.701 20.9211 88.7315C22.6926 89.3365 24.5211 89.7284 26.3283 90.1984C26.8116 90.3242 27.2882 90.503 27.6576 90.1177C27.7145 90.0581 27.7702 89.984 27.8218 89.8939Z" fill="#3D3D3D"/>
<path d="M27.8218 89.8942C27.8006 90.1497 27.7436 90.3178 27.6549 90.4251C27.459 90.6687 27.1055 90.5879 26.6633 90.4648C25.0096 90.0067 23.3334 89.636 21.6691 89.2163C21.366 89.1395 21.027 89.1249 20.8125 88.8138C20.7927 88.7847 20.7702 88.7913 20.749 88.8138C20.7198 88.8482 20.6947 88.9184 20.6867 88.966C20.4352 88.5583 20.2591 88.12 20.1545 87.6526C20.1227 87.5017 20.1333 87.4103 20.1677 87.3574C20.2564 87.2184 20.512 87.3415 20.6338 87.3706C21.5473 87.5891 22.4688 87.7771 23.3798 88.0061C24.6084 88.3133 25.808 88.7343 27.0472 89.0097C27.2988 89.0653 27.5437 89.0746 27.786 89.0177C27.8376 89.0058 27.8893 88.9912 27.9409 88.9727C27.9634 89.2878 27.9184 89.5949 27.8218 89.8942Z" fill="#3D3D3D"/>
<path d="M28.0905 88.116C28.0998 88.4112 28.0124 88.6906 27.9409 88.9726C27.8866 89.048 27.8429 89.1209 27.7833 89.1725C27.7132 89.2361 27.6192 89.2705 27.459 89.2519C26.3428 89.1235 25.3114 88.6945 24.235 88.4297C22.964 88.116 21.693 87.8101 20.4232 87.4937C20.3345 87.4725 20.2683 87.4672 20.2233 87.4963C20.1836 87.5215 20.1611 87.5691 20.1545 87.6526C19.8473 87.1177 19.7493 86.5152 19.5905 85.9314C19.5971 85.9155 19.6037 85.8983 19.6077 85.8824V85.8797C19.6143 85.8572 19.6183 85.8334 19.6196 85.8096C19.6474 85.7579 19.6752 85.705 19.7043 85.6533C19.985 86.3008 20.6444 86.2902 21.1766 86.4398C23.1242 86.9853 25.1142 87.3692 27.0446 87.9809C27.3901 88.0895 27.741 88.0193 28.0879 88.0418C28.0892 88.067 28.0905 88.0908 28.0905 88.116Z" fill="#3D3D3D"/>
<path d="M21.8705 91.2299C21.9843 90.789 22.2889 90.9598 22.551 91.022C24.1173 91.3914 25.6876 91.7409 27.2247 92.2229C27.3664 92.2679 27.5266 92.256 27.6775 92.2705C27.6842 92.6201 27.6947 92.9683 27.6947 93.3178C27.6947 94.1029 27.6365 94.1572 26.8712 93.9573C25.7789 93.6713 24.6946 93.3536 23.6023 93.0716C23.3414 93.004 23.1826 92.869 23.0594 92.6492C22.9985 92.5406 22.931 92.395 22.7814 92.5711C22.4054 92.1726 22.0823 91.7396 21.8718 91.2286L21.8705 91.2299Z" fill="#3D3D3D"/>
<path d="M47.5269 99.5142C47.5269 99.5142 47.5229 99.5195 47.5216 99.5221C47.5057 99.5473 47.4898 99.5698 47.4713 99.591C47.3084 99.7856 47.0794 99.8134 46.8304 99.7909C46.9403 99.7035 47.0582 99.6373 47.1853 99.591C47.2462 99.5764 47.3058 99.5592 47.3653 99.5393C47.4037 99.53 47.4435 99.5234 47.4832 99.5195C47.4951 99.5181 47.5057 99.5168 47.5176 99.5155C47.5202 99.5142 47.5242 99.5142 47.5269 99.5142Z" fill="#3D3D3D"/>
<path d="M38.9381 101.26C40.1284 101.255 40.1602 101.256 40.1218 102.439C40.0503 104.614 40.282 106.78 40.2634 108.953C40.2528 110.144 40.2621 110.144 39.0692 110.095C38.7011 109.223 38.8626 108.284 38.7422 107.38C38.6349 106.572 38.8057 105.763 38.8626 104.956C38.9288 104.009 38.6918 103.078 38.7302 102.134C38.7435 101.83 38.7117 101.515 38.9381 101.26Z" fill="#3D3D3D"/>
<path d="M39.0678 110.095C39.0215 110.095 38.9738 110.095 38.9261 110.094C38.9036 110.074 38.8811 110.057 38.8573 110.044C38.6454 109.913 38.3992 110.011 38.1728 109.982C38.1635 109.982 38.1529 109.979 38.1437 109.978C37.912 107.237 37.8338 104.491 37.8841 101.741C37.8947 101.14 37.4671 101.184 37.0858 101.133C37.0619 101.151 37.0381 101.165 37.0156 101.176C36.9388 101.213 36.8633 101.218 36.7892 101.189C36.7561 101.176 36.7217 101.156 36.6886 101.129C36.6449 101.128 36.6012 101.127 36.5575 101.125C36.5244 101.094 36.5138 101.062 36.5257 101.031C36.5284 101.025 36.531 101.019 36.5337 101.015C36.539 101.002 36.5456 100.993 36.5522 100.989H36.5535C36.5535 100.989 36.5575 100.986 36.5602 100.986C36.8422 101.009 37.1228 101.033 37.4049 101.055H37.4075C37.4658 101.06 37.5253 101.064 37.5836 101.07C37.904 101.095 38.2257 101.121 38.5461 101.148C38.5488 101.152 38.5514 101.156 38.5541 101.158C38.656 101.283 38.803 101.252 38.938 101.26C38.9394 101.319 38.9394 101.377 38.9407 101.435C38.9831 104.275 39.0241 107.116 39.0652 109.956C39.0665 110.003 39.0665 110.049 39.0678 110.095Z" fill="#3D3D3D"/>
<path d="M59.3038 85.133V85.1357H59.3025C59.2627 85.1529 59.2244 85.1701 59.1846 85.1873C56.8557 86.1922 54.4553 87.0317 52.186 88.1756C51.9543 88.2934 51.663 88.218 51.4551 88.3689C51.4154 88.3967 51.3797 88.4324 51.3479 88.4788C51.2234 88.3226 51.2181 88.1385 51.2181 87.9518C51.2208 87.9386 51.2234 87.9254 51.2261 87.9134C51.3585 87.3044 51.9741 87.3163 52.378 87.1376C54.307 86.2796 56.2692 85.4971 58.2194 84.6895C58.3611 84.6313 58.5041 84.569 58.6524 84.5412C58.8748 84.5002 59.0919 84.2605 59.3236 84.4631C59.5686 84.6763 59.2932 84.908 59.3038 85.133Z" fill="#3D3D3D"/>
<path d="M36.6886 101.128C36.821 101.13 36.9534 101.131 37.0858 101.132C37.3532 103.623 37.1043 106.128 37.2976 108.621C37.3215 108.92 37.2354 109.227 37.2169 109.532C37.1943 109.913 36.9229 109.838 36.6873 109.838C36.6873 106.934 36.6873 104.03 36.6873 101.127L36.6886 101.128Z" fill="#3D3D3D"/>
<path d="M36.5602 100.986V100.992C36.5602 101.002 36.5602 101.014 36.5602 101.025C36.5602 101.058 36.5602 101.092 36.5589 101.125C36.3378 101.083 36.1167 101.041 35.8969 100.998C35.885 100.997 35.873 100.996 35.8611 100.996C35.7605 100.982 35.6758 100.947 35.64 100.835C35.6956 100.837 35.7512 100.838 35.8068 100.839C36.0663 100.846 36.3232 100.865 36.5615 100.986H36.5602Z" fill="#3D3D3D"/>
<path d="M51.9199 92.4056V93.4622C51.9186 93.5946 51.9159 93.7257 51.9146 93.8581C51.9146 93.8713 51.9146 93.8845 51.9133 93.8978C51.9119 94.0381 51.9093 94.1785 51.9067 94.3188C51.9067 94.3413 51.9053 94.3638 51.9053 94.3863C51.8736 94.4486 51.8431 94.5108 51.8113 94.573C51.8007 94.5929 51.7915 94.6127 51.7809 94.6326C51.7729 93.4132 51.7637 92.1938 51.7544 90.9731C51.761 90.9426 51.7676 90.9122 51.7743 90.8817C51.7782 90.8645 51.7822 90.8473 51.7862 90.8301C51.998 91.0644 51.8524 91.3544 51.908 91.6126V91.6404C51.912 91.8959 51.9159 92.1501 51.9199 92.4056Z" fill="#3D3D3D"/>
<path d="M54.9399 91.0814C54.7321 91.5554 54.2356 91.5792 53.8503 91.6904C53.2161 91.8732 52.6547 92.2134 52.0298 92.4027C52.0404 92.13 52.28 92.0095 52.4548 91.9566C53.1035 91.7593 53.698 91.4561 54.2991 91.1542C54.4792 91.0642 54.7241 91.1013 54.9386 91.0801L54.9399 91.0814Z" fill="#3D3D3D"/>
</g>
<defs>
<clipPath id="clip0_741_1815">
<rect width="142" height="41.2266" fill="white" transform="translate(19 69)"/>
</clipPath>
</defs>
</svg>
