<svg width="180" height="180" viewBox="0 0 180 180" fill="none" xmlns="http://www.w3.org/2000/svg">
<g clip-path="url(#clip0_741_1529)">
<path d="M19 128.819C20.7051 129.966 22.6714 130.777 24.7451 130.777C27.7559 130.777 28.908 128.927 28.908 127.474C28.908 125.364 27.0493 124.63 25.5746 124.034L24.2075 123.483C22.9325 122.918 21.5039 122.275 20.444 121.037C19.891 120.41 19.1383 119.233 19.1383 117.505C19.1383 114.309 21.8111 111.312 26.7575 111.312C29.4611 111.312 31.3505 112.123 32.0418 112.429V116.022C31.3351 115.487 29.6761 114.218 27.0032 114.218C24.3304 114.218 23.2704 115.854 23.2704 117.184C23.2704 119.11 25.2213 119.967 26.7882 120.594L28.309 121.236C29.5532 121.801 30.9511 122.444 31.9189 123.682C32.5794 124.492 33.1324 125.731 33.1324 127.214C33.1324 130.807 30.0909 133.712 25.0524 133.712C23.6852 133.712 21.5346 133.498 19.0154 132.504V128.819H19Z" fill="#3D3D3D"/>
<path d="M41.5812 133.223C41.1511 133.315 40.6134 133.437 39.7839 133.437C38.9544 133.437 37.7255 133.315 36.7731 132.29C35.8668 131.266 35.8668 130.196 35.8975 128.865L35.9589 120.685H34.0081V118.117H36.0204V115.318L39.5381 114.233V118.132H42.9023V120.701H39.4767L39.4152 127.229C39.4152 128.865 39.4152 129.492 39.7839 130.043C40.0604 130.425 40.6288 130.853 41.6426 130.853C42.3032 130.853 43.0098 130.67 43.6396 130.456L41.5812 133.238V133.223Z" fill="#3D3D3D"/>
<path d="M51.6581 120.333C50.4446 120.364 49.4768 120.868 48.8009 122.03C48.1404 123.116 47.9868 124.385 47.9868 125.654C47.9868 126.831 48.1404 128.223 48.8316 129.308C49.5229 130.394 50.5982 130.883 51.6888 130.883C54.2081 130.883 55.3602 128.345 55.3602 125.562C55.3602 122.78 54.331 120.333 51.7195 120.333H51.6581ZM51.6274 133.437C46.7118 133.437 44.1925 130.027 44.1925 125.761C44.1925 121.495 47.0497 117.78 51.8117 117.78C56.159 117.78 59.1237 120.792 59.1237 125.486C59.1237 129.905 56.5737 133.437 51.6274 133.437Z" fill="#3D3D3D"/>
<path d="M85.6834 119.997C85.5759 118.805 84.6849 118.147 83.6557 118.239C82.4268 118.346 81.7509 119.416 81.8431 120.548C81.9353 121.48 82.8109 122.199 83.5328 122.826C85.6681 122.046 85.7602 120.884 85.6834 119.997ZM82.5497 125.532C81.6127 125.899 80.5067 126.893 80.6449 128.453C80.7678 129.783 81.9046 131.449 84.516 131.235C85.5298 131.144 86.6051 130.563 87.7265 129.691L82.5497 125.532ZM90.6144 131.969L87.6497 129.676C87.6497 129.676 89.9846 130.532 89.5238 131.006C89.0629 131.495 88.6635 131.954 87.6958 132.535C86.2979 133.391 85.2072 133.575 83.9015 133.59C80.4299 133.651 77.8799 131.969 77.6341 129.064C77.5266 127.902 77.8338 126.755 78.4329 125.853C79.201 124.798 80.2148 124.263 80.9214 123.881C80.4606 123.422 79.1702 122.214 79.0473 120.731C78.8323 118.27 80.6449 116.419 83.456 116.175C86.0828 115.945 88.1873 117.459 88.4024 119.722C88.4792 120.639 88.2334 121.603 87.6804 122.413C86.9738 123.438 86.4054 123.927 85.5298 124.34L92.3349 129.752L90.6144 131.939V131.969Z" fill="#3D3D3D"/>
<path d="M93.1337 128.697C94.8388 129.844 96.805 130.654 98.8788 130.654C101.89 130.654 103.042 128.804 103.042 127.367C103.042 125.257 101.198 124.523 99.7083 123.926L98.3412 123.376C97.0662 122.795 95.6376 122.168 94.5776 120.929C94.0246 120.287 93.2719 119.11 93.2719 117.398C93.2719 114.202 95.9448 111.205 100.891 111.205C103.595 111.205 105.469 112.015 106.175 112.321V115.914C105.469 115.364 103.81 114.095 101.137 114.095C98.464 114.095 97.4041 115.731 97.4041 117.061C97.4041 118.988 99.3396 119.844 100.922 120.471L102.443 121.098C103.687 121.663 105.085 122.306 106.053 123.544C106.713 124.354 107.266 125.593 107.266 127.076C107.266 130.669 104.225 133.574 99.186 133.574C97.8189 133.574 95.6683 133.36 93.149 132.366V128.681L93.1337 128.697Z" fill="#3D3D3D"/>
<path d="M122.09 133.085H118.541V125.532C118.511 123.177 118.511 122 117.512 121.144C117.113 120.807 116.452 120.501 115.454 120.501C114.455 120.501 113.533 120.899 112.658 121.618V133.07H109.048V111.74H112.658V120.96L111.89 119.339C111.89 119.339 113.134 118.575 113.902 118.315C114.532 118.086 115.807 117.795 116.898 117.795C117.804 117.795 119.417 117.917 120.661 119.034C122.059 120.303 122.09 121.847 122.12 123.147V133.085H122.09Z" fill="#3D3D3D"/>
<path d="M131.645 120.333C130.431 120.364 129.463 120.868 128.787 122.03C128.127 123.116 127.973 124.385 127.973 125.654C127.973 126.831 128.127 128.223 128.818 129.308C129.525 130.394 130.585 130.883 131.675 130.883C134.195 130.883 135.347 128.345 135.347 125.562C135.347 122.78 134.317 120.333 131.706 120.333H131.645ZM131.614 133.437C126.698 133.437 124.179 130.027 124.179 125.761C124.179 121.495 127.036 117.78 131.798 117.78C136.145 117.78 139.11 120.792 139.11 125.486C139.11 129.905 136.56 133.437 131.614 133.437Z" fill="#3D3D3D"/>
<path d="M144.932 129.813C145.301 130.058 146.299 130.715 147.881 130.715C150.8 130.715 152.229 128.33 152.229 125.394C152.229 123.85 151.799 122.642 151.2 121.893C150.616 121.174 149.556 120.41 147.881 120.41C146.852 120.41 145.854 120.685 144.932 121.128V129.798V129.813ZM144.825 118.865C145.209 118.682 146.33 118.269 146.653 118.147C146.914 118.055 147.835 117.78 149.003 117.78C153.412 117.78 155.946 120.822 155.946 125.302C155.946 130.195 152.935 133.437 148.665 133.437C146.883 133.437 145.716 132.856 144.932 132.473V139.4H141.353V118.147H144.932V120.654C144.932 120.654 144.441 119.064 144.825 118.865Z" fill="#3D3D3D"/>
<path d="M64.9457 129.813C65.3143 130.058 66.3128 130.715 67.895 130.715C70.8137 130.715 72.2423 128.33 72.2423 125.394C72.2423 123.85 71.8122 122.642 71.2131 121.893C70.6293 121.174 69.5694 120.41 67.895 120.41C66.8658 120.41 65.8673 120.685 64.9457 121.128V129.798V129.813ZM64.8381 118.865C65.2222 118.682 66.3435 118.269 66.6661 118.147C66.9273 118.055 67.8643 117.78 69.0164 117.78C73.4251 117.78 75.9751 120.822 75.9751 125.302C75.9751 130.195 72.9643 133.437 68.6938 133.437C66.8965 133.437 65.7444 132.856 64.961 132.473V139.4H61.3818V118.147H64.961V120.654C64.961 120.654 64.4695 119.064 64.8535 118.865" fill="#3D3D3D"/>
<path d="M158.296 119.248H158.742C159.018 119.248 159.233 119.202 159.233 118.896C159.233 118.621 158.942 118.59 158.711 118.59H158.296V119.248ZM157.805 118.193H158.757C159.387 118.193 159.74 118.392 159.74 118.942C159.74 119.401 159.449 119.584 159.08 119.615L159.756 120.716H159.233L158.619 119.645H158.312V120.716H157.805V118.208V118.193ZM158.696 121.22C159.633 121.22 160.386 120.471 160.386 119.462C160.386 118.453 159.617 117.703 158.696 117.703C157.774 117.703 157.006 118.437 157.006 119.462C157.006 120.486 157.759 121.22 158.696 121.22ZM158.696 117.229C159.909 117.229 161 118.101 161 119.462C161 120.823 159.909 121.709 158.696 121.709C157.482 121.709 156.392 120.838 156.392 119.462C156.392 118.086 157.482 117.229 158.696 117.229Z" fill="#3D3D3D"/>
<path d="M55.5445 84.9676C55.4677 84.7842 55.4216 84.5854 55.4216 84.3866C55.4216 83.5916 56.0668 82.9341 56.881 82.9341H112.258C113.057 82.9341 113.718 83.5763 113.718 84.3866C113.718 84.5854 113.672 84.7842 113.595 84.9676C108.372 95.6859 97.3427 103.071 84.5774 103.071C71.8122 103.071 60.7827 95.6859 55.5599 84.9829" fill="#3D3D3D"/>
<path d="M62.15 48.073C62.2114 47.9354 62.2882 47.813 62.3957 47.6907C62.8259 47.2626 63.5171 47.2626 63.9472 47.6907L93.3949 77.0168C93.825 77.445 93.825 78.133 93.3949 78.5611C93.2873 78.6682 93.1491 78.7446 93.0108 78.8058C84.516 81.7414 74.7002 79.8302 67.9105 73.072C61.1208 66.3139 59.2006 56.5436 62.15 48.073Z" fill="#3D3D3D"/>
<path d="M92.55 40.0764C92.6575 40.0306 92.7651 40 92.888 40C93.3334 40 93.7021 40.367 93.7021 40.8104V71.7572C93.7021 72.2006 93.3334 72.5676 92.888 72.5676C92.7651 72.5676 92.6575 72.537 92.55 72.4912C86.513 69.5708 82.3501 63.4089 82.3501 56.2838C82.3501 49.1587 86.513 42.9815 92.55 40.0764Z" fill="#3D3D3D"/>
<path d="M113.549 57.2928C113.549 57.2928 113.703 57.3693 113.764 57.4304C114.01 57.6751 114.01 58.0573 113.764 58.302L97.0816 74.9069C96.8358 75.1515 96.4518 75.1515 96.206 74.9069C96.1446 74.8457 96.0985 74.7693 96.0678 74.6928C94.3934 69.907 95.484 64.3721 99.3244 60.5496C103.165 56.7271 108.725 55.6415 113.534 57.3081" fill="#3D3D3D"/>
</g>
<defs>
<clipPath id="clip0_741_1529">
<rect width="142" height="99.4" fill="white" transform="translate(19 40)"/>
</clipPath>
</defs>
</svg>
