<svg width="180" height="180" viewBox="0 0 180 180" fill="none" xmlns="http://www.w3.org/2000/svg">
<g clip-path="url(#clip0_741_1202)">
<path d="M42.3663 84.8348C41.4346 84.5558 40.4792 84.7502 39.5357 84.7096C38.3758 84.6606 38.1205 84.2396 38.7038 83.2301C43.2066 75.4284 47.7111 67.6301 52.219 59.83C52.8632 58.7158 53.3232 58.7208 53.9742 59.8486C58.4837 67.647 62.9916 75.447 67.4961 83.247C68.0727 84.2446 67.8123 84.6944 66.649 84.6978C63.0153 84.7096 59.3816 84.7079 55.7479 84.7113C55.7124 84.686 55.6769 84.6606 55.6414 84.6352C55.4385 84.3004 55.4959 83.9268 55.4926 83.5666C55.4824 82.1344 55.5179 80.7006 55.479 79.2684C55.4435 77.9816 55.1155 77.7855 54.0198 78.4196C50.5907 80.4013 47.165 82.3881 43.7308 84.3613C43.4873 84.5017 43.2472 84.6471 42.9919 84.7654C42.789 84.8449 42.5878 84.9447 42.3646 84.8314L42.3663 84.8348Z" fill="#3D3D3D"/>
<path d="M44.9397 101.396C43.2928 104.279 41.6544 107.167 39.9973 110.043C38.1847 113.189 36.3568 116.326 34.5341 119.466C34.3261 119.824 34.1536 120.306 33.6819 120.31C33.1729 120.313 32.9869 119.814 32.7654 119.432C30.0499 114.743 27.3343 110.055 24.6255 105.362C22.8924 102.363 21.1694 99.3581 19.4413 96.3551C19.4278 96.3314 19.4142 96.3061 19.4007 96.2807C18.6872 94.9229 18.8681 94.6236 20.4017 94.6203C24.6813 94.6135 28.9609 94.6084 33.2405 94.6033C33.3538 94.5273 33.4773 94.5256 33.6024 94.5628C37.111 96.5867 40.6077 98.6344 44.1213 100.65C44.3885 100.804 44.6675 100.942 44.8941 101.161C44.9431 101.232 44.9583 101.311 44.9397 101.396Z" fill="#3D3D3D"/>
<path d="M33.5635 94.6588C33.4553 94.6402 33.3487 94.6216 33.2405 94.603C32.3934 94.1093 31.5395 93.6308 30.7025 93.1201C29.7793 92.5554 29.781 92.0887 30.7144 91.5459C33.09 90.1679 35.4742 88.8067 37.8532 87.4371C39.3581 86.5714 40.8613 85.7023 42.3662 84.8331C42.537 84.7757 42.7061 84.7182 42.8752 84.6607C43.4095 84.473 43.9573 84.3935 44.5271 84.3952C47.8142 84.4037 51.0996 84.3952 54.3867 84.4037C54.828 84.4037 55.2947 84.3242 55.6802 84.6471C55.7022 84.6691 55.7258 84.6928 55.7495 84.7131C55.7377 87.8345 55.7174 90.9558 55.7174 94.0772C55.7174 97.7887 55.7343 101.502 55.7444 105.213C55.7444 105.467 55.7495 105.721 55.741 105.973C55.6971 107.138 55.3437 107.361 54.3478 106.796C52.4219 105.702 50.5129 104.581 48.592 103.475C47.378 102.777 46.1572 102.089 44.9397 101.395C44.9313 101.341 44.9144 101.29 44.8924 101.241C44.8569 100.873 45.0818 100.602 45.2508 100.315C46.0371 98.9807 46.7912 97.628 47.5657 96.2872C48.2014 95.1881 48.0459 94.8989 46.7895 94.8956C42.8752 94.8854 38.9625 94.8922 35.0481 94.8922C34.5408 94.8922 34.0319 94.904 33.5635 94.6572V94.6588Z" fill="#3D3D3D"/>
<path d="M108.038 96.2533C106.591 98.4227 105.135 100.587 103.7 102.767C103.378 103.255 103.218 103.406 102.815 102.783C101.398 100.592 99.9154 98.4463 98.446 96.2668C98.1974 96.4798 98.3225 96.7487 98.3209 96.9736C98.3107 100.156 98.304 103.336 98.3242 106.519C98.3276 107.036 98.2312 107.244 97.6462 107.244C95.6104 107.244 95.6104 107.271 95.6104 105.267C95.6104 100.959 95.6256 96.6523 95.5935 92.3439C95.5884 91.6946 95.7947 91.6321 96.3848 91.5526C97.9725 91.3396 98.9397 91.879 99.7125 93.3297C100.739 95.2539 102.042 97.0294 103.28 98.9485C104.521 97.0395 105.871 95.2709 106.873 93.323C107.683 91.7488 108.782 91.3734 110.36 91.5628C110.83 91.6186 110.97 91.7285 110.969 92.1968C110.953 96.9837 110.953 101.769 110.969 106.556C110.97 107.053 110.859 107.232 110.321 107.241C108.216 107.274 108.216 107.296 108.216 105.23V96.3057C108.157 96.2888 108.096 96.2719 108.037 96.2549L108.038 96.2533Z" fill="#3D3D3D"/>
<path d="M143.765 95.9339C142.441 93.1591 140.042 91.7997 137.023 91.6255C135.059 91.5105 133.084 91.612 131.114 91.5697C130.551 91.5579 130.417 91.7337 130.424 92.2748C130.451 94.6386 130.436 97.0025 130.436 99.3663C130.436 101.73 130.453 104.152 130.422 106.542C130.415 107.102 130.581 107.251 131.129 107.239C132.816 107.205 134.506 107.246 136.195 107.222C139.042 107.185 141.509 106.269 143.178 103.851C144.901 101.355 145.05 98.6274 143.765 95.9339ZM141.682 99.5845C141.553 102.347 139.849 104.29 137.291 104.628C136.112 104.782 134.932 104.662 133.755 104.725C133.258 104.752 133.145 104.562 133.151 104.097C133.177 102.525 133.161 100.949 133.161 99.3748C133.161 97.8006 133.18 96.338 133.151 94.8213C133.141 94.3055 133.236 94.057 133.831 94.0959C135.172 94.1821 136.525 93.9809 137.855 94.314C140.229 94.9075 141.798 97.0566 141.682 99.5845Z" fill="#3D3D3D"/>
<path d="M92.7984 106.605C91.5657 104.862 90.3314 103.12 89.0413 101.297C89.3422 101.169 89.5959 101.054 89.8563 100.952C91.5742 100.286 92.5177 98.9841 92.7138 97.2069C92.9168 95.3774 92.4535 93.7406 90.837 92.623C89.6821 91.8232 88.3598 91.6034 86.9953 91.5898C84.9138 91.5679 82.829 91.6135 80.7475 91.5662C80.0864 91.551 79.968 91.7674 79.9714 92.3744C79.9984 96.6523 79.9849 100.93 79.9849 105.208C79.9849 107.283 79.9849 107.266 82.0664 107.239C82.572 107.232 82.7546 107.115 82.741 106.581C82.7038 105.232 82.7512 103.879 82.7174 102.53C82.7038 101.97 82.8222 101.706 83.4495 101.755C84.1495 101.81 84.8563 101.789 85.5597 101.759C86.0011 101.74 86.2784 101.884 86.5286 102.263C87.2134 103.291 87.9523 104.283 88.6608 105.294C89.6009 106.638 90.8815 107.281 92.5025 107.224C92.6834 107.217 92.9286 107.323 93.0317 107.105C93.1315 106.891 92.9066 106.757 92.7984 106.605ZM87.6395 99.2309C86.8364 99.3239 86.0146 99.2478 85.2013 99.2478C85.2013 99.2461 85.2013 99.2428 85.1996 99.2411C84.4167 99.2411 83.3802 99.5471 82.9152 99.1616C82.369 98.7101 82.7715 97.6347 82.736 96.8333C82.7022 96.1028 82.7461 95.369 82.7224 94.6368C82.7072 94.2192 82.8121 94.0196 83.2804 94.0365C84.6856 94.0873 86.0941 93.974 87.4975 94.1228C89.0379 94.2868 89.9307 95.2134 89.9594 96.6963C89.9831 98.0152 89.0734 99.0652 87.6395 99.2309Z" fill="#3D3D3D"/>
<path d="M160.251 106.289C158.352 101.921 156.446 97.5587 154.553 93.1912C153.797 91.4513 153.809 91.4631 151.905 91.458C151.413 91.4563 151.186 91.5984 150.983 92.0718C149.467 95.5973 147.901 99.1008 146.359 102.616C145.709 104.096 145.079 105.585 144.394 107.176C145.234 107.176 145.956 107.16 146.678 107.183C147.071 107.197 147.27 107.073 147.416 106.681C147.755 105.761 148.176 104.872 148.547 103.962C148.702 103.58 148.925 103.419 149.365 103.424C151.447 103.45 153.53 103.451 155.611 103.424C156.056 103.419 156.262 103.577 156.411 103.967C156.761 104.882 157.141 105.785 157.517 106.689C157.635 106.975 157.752 107.246 158.161 107.234C158.944 107.209 159.728 107.225 160.51 107.225C160.565 106.821 160.371 106.564 160.251 106.289ZM154.71 101C153.244 100.996 151.78 100.99 150.315 101.003C149.893 101.006 149.852 100.886 150.016 100.513C150.826 98.6662 151.611 96.808 152.483 94.7705C153.364 96.8113 154.167 98.6933 154.997 100.563C155.163 100.935 155.046 101.001 154.71 101Z" fill="#3D3D3D"/>
<path d="M77.6989 106.539C77.4385 106.044 77.2458 105.514 77.0209 105C75.1491 100.71 73.2705 96.4241 71.4173 92.1259C71.211 91.6474 70.9557 91.5121 70.4366 91.4411C69.0264 91.2534 68.1336 91.688 67.8377 93.1421C67.7887 93.3822 67.6433 93.6037 67.5418 93.8337C65.6869 98.071 63.8439 102.312 61.967 106.539C61.7133 107.11 61.8402 107.217 62.3965 107.183C62.9003 107.151 63.4127 107.138 63.9149 107.187C64.4018 107.237 64.6166 107.024 64.7806 106.605C65.1154 105.744 65.5144 104.907 65.8475 104.045C66.0166 103.605 66.2314 103.404 66.7471 103.421C68.0981 103.467 69.4508 103.423 70.8018 103.441C71.698 103.453 72.7987 103.095 73.4328 103.578C74.0551 104.05 74.2123 105.136 74.564 105.957C74.9259 106.803 75.5656 107.226 76.4832 107.227C76.7368 107.227 76.9921 107.205 77.2424 107.231C77.8595 107.293 77.9897 107.094 77.6989 106.539ZM72.0632 101C70.5702 100.996 69.0788 100.998 67.5875 100.998C67.3237 100.998 67.1478 100.974 67.3034 100.617C68.1285 98.722 68.9334 96.8181 69.8059 94.7721C70.6919 96.8164 71.5103 98.7102 72.3405 100.601C72.4809 100.924 72.3574 101 72.0632 101Z" fill="#3D3D3D"/>
<path d="M128.439 106.258C126.513 101.837 124.541 97.4353 122.695 92.9815C122.201 91.7928 121.626 91.2652 120.311 91.4326C119.67 91.5155 119.345 91.6558 119.083 92.2662C117.226 96.5983 115.328 100.91 113.439 105.229C112.541 107.28 112.536 107.261 114.771 107.241C115.246 107.236 115.476 107.085 115.64 106.652C115.957 105.814 116.359 105.007 116.665 104.167C116.861 103.622 117.132 103.392 117.749 103.419C119.071 103.477 120.397 103.429 121.721 103.44C122.59 103.445 123.635 103.184 124.279 103.573C124.966 103.989 125.032 105.137 125.404 105.947C126.114 107.493 125.566 107.188 127.314 107.227H127.822C128.514 107.226 128.719 106.903 128.439 106.258ZM118.518 101.005C118.06 101.01 118.077 100.825 118.219 100.497C119.019 98.6493 119.812 96.7978 120.681 94.7738C121.606 96.9043 122.461 98.8793 123.381 100.998C121.66 100.998 120.089 100.988 118.518 101.005Z" fill="#3D3D3D"/>
<path d="M135.635 111.323C135.016 110.799 134.34 110.917 133.618 111.529C133.618 111.002 133.621 110.64 133.618 110.276C133.616 110.114 133.637 109.902 133.405 109.891C133.165 109.879 133.175 110.09 133.173 110.252C133.17 111.404 133.172 112.555 133.172 113.707C133.172 113.883 133.307 114.148 133.403 114.023C133.804 113.504 134.122 113.999 134.468 114.043C135.163 114.131 135.698 113.876 135.985 113.244C136.305 112.542 136.242 111.833 135.637 111.323H135.635ZM134.651 113.704C133.983 113.665 133.657 113.249 133.623 112.604C133.589 111.95 134.073 111.387 134.654 111.424C135.319 111.468 135.644 111.871 135.666 112.273C135.689 113.222 135.261 113.739 134.651 113.704Z" fill="#3D3D3D"/>
<path d="M151.308 113.387C151.568 112.614 151.758 112.029 151.966 111.451C152.018 111.306 152.062 111.098 152.28 111.111C152.478 111.123 152.53 111.297 152.584 111.463C152.776 112.041 152.973 112.618 153.208 113.308C153.648 112.702 153.609 112.051 153.864 111.514C153.951 111.331 153.929 110.986 154.262 111.108C154.554 111.214 154.318 111.453 154.272 111.607C154.078 112.251 153.848 112.885 153.635 113.524C153.565 113.732 153.567 114.008 153.271 114.021C152.968 114.035 152.958 113.761 152.887 113.551C152.71 113.023 152.525 112.499 152.317 111.904C151.905 112.467 151.886 113.113 151.611 113.652C151.523 113.823 151.463 114.055 151.211 114.014C151.022 113.984 150.983 113.781 150.929 113.629C150.686 112.942 150.449 112.252 150.222 111.559C150.173 111.409 149.91 111.197 150.261 111.096C150.522 111.021 150.599 111.263 150.657 111.441C150.806 111.892 150.924 112.356 151.063 112.81C151.102 112.939 151.168 113.061 151.306 113.385L151.308 113.387Z" fill="#3D3D3D"/>
<path d="M157.285 112.559C157.283 112.503 157.283 112.447 157.283 112.39C157.289 111.882 157.165 111.429 156.656 111.204C156.066 110.944 155.495 110.947 154.798 111.431C155.437 111.642 155.867 111.297 156.315 111.504C156.587 111.629 156.769 111.811 156.746 112.056C156.712 112.41 156.391 112.185 156.201 112.217C156.01 112.247 155.806 112.198 155.613 112.231C155.057 112.32 154.619 112.609 154.668 113.216C154.717 113.801 155.163 114.07 155.736 114.084C157.258 114.121 157.3 114.075 157.285 112.559ZM155.692 113.722C155.503 113.705 155.112 113.587 155.15 113.135C155.195 112.592 155.672 112.552 156.1 112.572C156.382 112.586 156.802 112.511 156.785 112.964C156.766 113.489 156.414 113.741 155.692 113.722Z" fill="#3D3D3D"/>
<path d="M137.514 112.768C137.877 112.758 138.242 112.768 138.608 112.765C139.411 112.757 139.534 112.554 139.172 111.825C139.044 111.57 138.861 111.368 138.598 111.231C137.952 110.895 137.218 111.076 136.829 111.683C136.35 112.429 136.504 113.345 137.192 113.854C137.801 114.304 138.576 114.175 139.203 113.47C138.826 113.357 138.635 113.575 138.413 113.654C137.953 113.82 137.585 113.69 137.284 113.345C137.181 113.228 137.069 113.044 137.091 112.91C137.125 112.697 137.36 112.773 137.514 112.768ZM137.071 112.395C137.115 111.74 137.419 111.448 137.928 111.429C138.264 111.417 138.584 111.524 138.743 111.898C138.882 112.222 138.909 112.423 138.45 112.4C138.004 112.378 137.556 112.395 137.071 112.395Z" fill="#3D3D3D"/>
<path d="M130.97 112.562C130.994 112.456 130.967 112.339 130.972 112.226C131.004 111.674 130.737 111.29 130.238 111.13C129.712 110.961 129.168 110.925 128.699 111.422C129.173 111.72 129.607 111.253 130.042 111.5C130.289 111.641 130.502 111.791 130.481 112.051C130.453 112.423 130.131 112.18 129.947 112.215C129.731 112.256 129.497 112.21 129.277 112.242C128.743 112.324 128.391 112.609 128.412 113.189C128.434 113.771 128.828 113.967 129.343 114.094C129.83 114.214 130.234 113.9 130.73 113.911C131.232 113.925 130.863 113.039 130.97 112.562ZM130.552 113.008C130.505 113.475 130.15 113.722 129.683 113.734C129.289 113.746 128.902 113.6 128.916 113.162C128.931 112.614 129.406 112.576 129.861 112.56C130.14 112.614 130.603 112.488 130.552 113.008Z" fill="#3D3D3D"/>
<path d="M116.018 112.768C116.439 112.76 116.863 112.748 117.284 112.77C117.71 112.79 117.825 112.613 117.746 112.212C117.619 111.59 117.262 111.196 116.64 111.106C116.043 111.021 115.532 111.19 115.219 111.765C114.798 112.533 115.025 113.493 115.737 113.916C116.395 114.307 117.181 114.116 117.563 113.444C117.296 113.333 117.145 113.566 116.958 113.639C116.52 113.806 116.131 113.759 115.793 113.424C115.652 113.285 115.493 113.138 115.578 112.917C115.656 112.714 115.859 112.771 116.018 112.768ZM116.417 111.42C116.882 111.419 117.314 111.655 117.26 112.131C117.194 112.697 116.633 112.217 116.352 112.437C116.109 112.242 115.575 112.68 115.6 112.092C115.617 111.676 115.979 111.42 116.417 111.42Z" fill="#3D3D3D"/>
<path d="M144.717 112.768C145.14 112.76 145.562 112.745 145.982 112.77C146.445 112.799 146.609 112.603 146.494 112.171C146.316 111.51 145.917 111.074 145.197 111.059C144.539 111.045 143.926 111.613 143.802 112.298C143.663 113.066 144.01 113.771 144.695 114.004C145.334 114.222 145.906 114.116 146.411 113.528C146.021 113.363 145.843 113.614 145.616 113.675C145.167 113.795 144.785 113.69 144.484 113.336C144.377 113.211 144.264 113.066 144.348 112.882C144.423 112.719 144.588 112.772 144.717 112.768ZM145.135 111.417C145.613 111.404 146.044 111.661 146.053 112.102C146.063 112.729 145.478 112.219 145.219 112.445C144.935 112.234 144.384 112.709 144.343 112.127C144.316 111.737 144.681 111.429 145.135 111.417Z" fill="#3D3D3D"/>
<path d="M121.219 112.771C121.609 112.748 122.007 112.736 122.396 112.77C122.976 112.822 122.986 112.523 122.847 112.11C122.631 111.466 122.215 111.026 121.503 111.069C120.739 111.113 120.28 111.571 120.15 112.328C120.027 113.05 120.421 113.828 121.085 114.021C121.718 114.204 122.335 114.146 122.756 113.512C122.539 113.329 122.407 113.471 122.265 113.548C121.836 113.778 121.403 113.794 120.992 113.52C120.804 113.395 120.63 113.203 120.667 112.968C120.72 112.631 121.024 112.783 121.219 112.771ZM120.656 112.249C120.598 112.073 120.71 111.933 120.806 111.797C120.996 111.53 121.244 111.37 121.581 111.417C122.076 111.49 122.363 111.779 122.47 112.394C121.963 112.394 121.521 112.401 121.08 112.391C120.93 112.386 120.728 112.465 120.656 112.249Z" fill="#3D3D3D"/>
<path d="M109.638 112.31C109.638 112.029 109.619 111.749 109.641 111.47C109.692 110.849 109.66 110.328 108.796 110.499C108.601 110.538 108.356 110.475 108.37 110.223C108.385 109.933 108.664 110.032 108.835 110.029C109.563 110.017 110.291 110.019 111.019 110.029C111.17 110.031 111.391 109.968 111.423 110.201C111.45 110.406 111.276 110.524 111.104 110.492C109.941 110.279 110.106 111.067 110.121 111.762C110.133 112.322 110.14 112.883 110.116 113.441C110.108 113.653 110.262 114.035 109.869 114.014C109.503 113.994 109.663 113.622 109.648 113.401C109.623 113.039 109.641 112.674 109.641 112.308L109.638 112.31Z" fill="#3D3D3D"/>
<path d="M159.062 113.406C159.595 112.614 159.605 111.652 160.339 111.081C160.041 112.295 159.617 113.455 159.018 114.535C158.741 115.034 158.222 115.01 157.705 114.838C157.754 114.729 157.769 114.648 157.798 114.643C158.966 114.393 159.006 114.31 158.509 113.233C158.252 112.675 157.995 112.117 157.743 111.559C157.676 111.409 157.574 111.214 157.777 111.125C157.962 111.043 158.07 111.214 158.144 111.378C158.44 112.038 158.739 112.697 159.062 113.409V113.406Z" fill="#3D3D3D"/>
<path d="M124.411 113.45C124.746 113.545 125.077 113.665 125.417 113.724C125.679 113.769 125.941 113.675 126.019 113.386C126.107 113.063 125.865 112.946 125.613 112.856C125.508 112.819 125.405 112.773 125.297 112.741C124.847 112.611 124.408 112.435 124.411 111.886C124.414 111.487 124.705 111.204 125.086 111.118C125.574 111.007 126.056 111.03 126.467 111.632C126.019 111.586 125.705 111.546 125.39 111.526C125.148 111.509 124.929 111.58 124.888 111.855C124.852 112.101 125.049 112.183 125.241 112.254C125.503 112.352 125.772 112.437 126.021 112.562C126.334 112.719 126.594 112.943 126.533 113.345C126.471 113.749 126.219 114.001 125.82 114.072C125.25 114.174 124.732 114.084 124.409 113.448L124.411 113.45Z" fill="#3D3D3D"/>
<path d="M141.477 113.734C140.662 114.292 140.206 114.1 140.047 113.296C139.92 112.65 140.38 111.885 139.67 111.356C139.974 111.043 139.954 110.573 140.184 110.25C140.302 110.083 140.562 110.262 140.542 110.507C140.507 110.955 140.703 111.114 141.127 111.077C141.276 111.064 141.408 111.135 141.399 111.314C141.393 111.441 141.296 111.502 141.173 111.512C139.945 111.613 140.731 112.533 140.574 113.056C140.375 113.722 141.066 113.527 141.479 113.735L141.477 113.734Z" fill="#3D3D3D"/>
<path d="M143.496 113.636C142.872 114.234 142.301 114.091 142.145 113.441C141.978 112.743 142.432 111.93 141.763 111.321C142.109 111.045 142.072 110.604 142.243 110.254C142.294 110.149 142.563 110.217 142.554 110.372C142.524 110.912 142.737 111.143 143.281 111.086C143.357 111.078 143.504 111.193 143.52 111.27C143.552 111.439 143.4 111.515 143.258 111.512C142.099 111.482 142.701 112.354 142.6 112.834C142.473 113.435 142.777 113.741 143.496 113.634V113.636Z" fill="#3D3D3D"/>
<path d="M112.678 111.503C112.198 112.09 112.397 112.788 112.348 113.446C112.333 113.642 112.475 113.984 112.161 113.997C111.797 114.013 111.87 113.654 111.868 113.417C111.86 112.403 111.86 111.39 111.868 110.376C111.868 110.171 111.794 109.865 112.149 109.885C112.446 109.904 112.338 110.179 112.35 110.354C112.37 110.661 112.342 110.974 112.37 111.282C112.394 111.532 112.56 111.387 112.676 111.35C112.725 111.383 112.742 111.417 112.727 111.451C112.712 111.487 112.695 111.503 112.68 111.503H112.678Z" fill="#3D3D3D"/>
<path d="M112.678 111.504C112.683 111.453 112.681 111.402 112.675 111.35C113.449 110.775 114.264 110.998 114.447 111.906C114.567 112.501 114.501 113.134 114.513 113.749C114.516 113.896 114.474 114.033 114.289 114.037C114.114 114.04 114.044 113.92 114.041 113.768C114.032 113.375 114.036 112.981 114.031 112.589C114.017 111.558 113.726 111.326 112.676 111.505L112.678 111.504Z" fill="#3D3D3D"/>
<path d="M147.701 112.097C147.683 112.599 147.666 113.101 147.647 113.603C147.639 113.81 147.601 114.021 147.339 114.006C147.106 113.992 147.142 113.772 147.14 113.617C147.133 112.946 147.13 112.274 147.14 111.605C147.143 111.427 147.06 111.125 147.328 111.133C147.659 111.143 147.508 111.463 147.525 111.662C147.652 111.781 147.791 111.894 147.701 112.098V112.097Z" fill="#3D3D3D"/>
<path d="M118.945 112.067C118.897 112.4 118.855 112.733 118.802 113.064C118.753 113.379 118.933 113.734 118.517 114.141V111.098C118.889 111.196 118.723 111.5 118.774 111.705C118.887 111.799 119.056 111.865 118.945 112.067Z" fill="#3D3D3D"/>
<path d="M147.701 112.097C147.642 111.952 147.585 111.806 147.525 111.661C147.85 111.512 148.014 111.125 148.398 111.071C148.55 111.049 148.748 110.978 148.799 111.214C148.832 111.373 148.707 111.493 148.575 111.514C148.188 111.575 147.95 111.84 147.701 112.097Z" fill="#3D3D3D"/>
<path d="M118.944 112.067C118.887 111.947 118.831 111.826 118.774 111.705C119.032 111.502 119.279 111.28 119.558 111.108C119.677 111.033 119.896 110.971 119.962 111.216C120.003 111.37 119.925 111.498 119.766 111.531C119.418 111.6 119.168 111.808 118.946 112.067H118.944Z" fill="#3D3D3D"/>
<path d="M123.662 110.856C123.604 110.731 123.517 110.609 123.495 110.477C123.464 110.295 123.407 110.065 123.714 110.038C124.014 110.011 124.022 110.217 124.01 110.421C123.998 110.638 124.053 110.878 123.843 111.042C123.662 111.098 123.618 111.02 123.662 110.856Z" fill="#3D3D3D"/>
<path d="M160.998 113.636C160.986 113.869 160.99 114.018 160.795 114.031C160.572 114.046 160.505 113.915 160.508 113.72C160.511 113.556 160.596 113.458 160.762 113.458C160.934 113.458 161.008 113.559 160.997 113.636H160.998Z" fill="#3D3D3D"/>
<path d="M123.662 110.856C123.723 110.919 123.782 110.979 123.843 111.042C123.74 111.211 123.539 111.4 123.41 111.255C123.217 111.037 123.556 110.983 123.662 110.856Z" fill="#3D3D3D"/>
<path d="M55.6803 84.6473C51.4125 84.6524 47.1447 84.6575 42.8752 84.6625C45.5029 83.1272 48.1305 81.5902 50.7615 80.0566C51.9705 79.3532 53.1828 78.6582 54.3935 77.9582C55.0986 77.5507 55.3336 77.6708 55.5822 78.4266C55.7834 79.0387 55.7022 79.6508 55.7073 80.2629C55.7175 81.7238 55.6921 83.1864 55.6803 84.6473Z" fill="#DBCAB6"/>
<path d="M33.5636 94.6591C38.1459 94.6558 42.7299 94.6473 47.3121 94.6507C48.2387 94.6507 48.5346 95.0227 48.1187 95.7599C47.0754 97.6063 46.137 99.5153 44.8925 101.242C43.8949 100.9 43.0579 100.256 42.1533 99.7453C39.7032 98.3622 37.2768 96.9401 34.8554 95.508C34.4141 95.2476 33.8866 95.1022 33.5636 94.6591Z" fill="#DBCAB6"/>
</g>
<defs>
<clipPath id="clip0_741_1202">
<rect width="142" height="61.3096" fill="white" transform="translate(19 59)"/>
</clipPath>
</defs>
</svg>
