<svg width="180" height="180" viewBox="0 0 180 180" fill="none" xmlns="http://www.w3.org/2000/svg">
<g clip-path="url(#clip0_741_491)">
<path fill-rule="evenodd" clip-rule="evenodd" d="M60.4936 63C61.7534 64.9006 62.7918 66.9351 63.945 68.8999C65.571 71.6832 67.2093 74.4596 68.7464 77.2935C67.5782 77.9274 66.4414 78.6202 65.2431 79.1982C64.3836 77.6542 63.4518 76.1526 62.6142 74.5963C62.5664 77.6419 62.58 80.6875 62.6074 83.7331C65.2198 85.1869 67.7613 86.7705 70.4106 88.1601C69.5293 86.5874 68.577 85.053 67.7558 83.4475C68.9322 82.8163 70.0718 82.114 71.2728 81.5278C73.9454 86.3087 76.797 90.9898 79.4381 95.7898C73.9577 95.8349 68.4759 95.7994 62.9954 95.8103C63.0009 94.444 63.0009 93.0776 62.9954 91.7126C64.784 91.7126 66.5725 91.7222 68.3611 91.6921C65.7432 90.2096 63.1758 88.6397 60.5414 87.1845C57.9139 88.652 55.311 90.1618 52.7163 91.6867C54.5049 91.7154 56.2934 91.714 58.082 91.7126C58.0752 93.0776 58.0752 94.444 58.082 95.8103C52.5988 95.7994 47.1156 95.8363 41.6338 95.7898C44.2613 90.983 47.117 86.3019 49.7964 81.5223C51.0111 82.1058 52.1479 82.834 53.2997 83.5268C52.4335 85.0817 51.5044 86.6024 50.6531 88.1656C53.3216 86.8047 55.8179 85.1336 58.4659 83.7331C58.5015 80.6875 58.5056 77.6432 58.4687 74.599C57.5751 76.1648 56.6541 77.7143 55.7414 79.2706C54.595 78.6011 53.461 77.9111 52.3091 77.2525C54.9899 72.4743 57.7855 67.7618 60.4936 63Z" fill="#3D3D3D"/>
<path fill-rule="evenodd" clip-rule="evenodd" d="M73.3591 73.9211C75.5112 70.3003 77.5074 66.5879 79.7195 63.0039C84.0905 70.5558 88.4246 78.1281 92.8174 85.6663C94.7057 89.0603 96.7566 92.3628 98.6012 95.7814C93.0183 95.8443 87.4354 95.7965 81.8538 95.8074C78.4106 89.902 75.0275 83.9625 71.5801 78.0598C71.464 77.8453 71.2891 77.5775 71.4353 77.3315C72.0024 76.1551 72.7156 75.0565 73.3591 73.9211Z" fill="#3D3D3D"/>
<path fill-rule="evenodd" clip-rule="evenodd" d="M19 99.6309H26.8593L33.1295 110.394L39.3423 99.6309H47.285L47.2863 116.443H42.3524V104.358L35.0752 116.443H31.151L24.0473 104.465L24.061 116.443H19V99.6309Z" fill="#3D3D3D"/>
<path fill-rule="evenodd" clip-rule="evenodd" d="M66.5493 116.443V99.6309H71.7606L71.7346 112.072L83.2189 112.069L83.2161 116.443H66.5493Z" fill="#3D3D3D"/>
<path fill-rule="evenodd" clip-rule="evenodd" d="M111.366 99.6309H119.322L129.008 111.831L128.977 99.6309H134.185L134.187 116.443H126.26L116.544 104.167L116.566 116.443H111.367L111.366 99.6309Z" fill="#3D3D3D"/>
<path fill-rule="evenodd" clip-rule="evenodd" d="M136.78 99.6309H155.086V103.6L141.971 103.597L141.974 106.225H154.403L154.437 109.747L141.971 109.746L141.974 112.345L155.36 112.342L155.362 116.443H136.781L136.78 99.6309Z" fill="#3D3D3D"/>
<path fill-rule="evenodd" clip-rule="evenodd" d="M52.8063 102.587C55.002 102.324 57.221 102.326 59.429 102.391C61.0482 102.53 62.957 102.663 64.0528 104.045C64.7237 104.821 64.751 105.827 64.7783 106.804L64.7961 107.431L62.4596 107.419L60.5454 107.408L60.3951 106.977C60.2529 106.569 60.048 106.17 59.5862 106.066C58.3141 105.697 56.9655 105.759 55.6579 105.816C54.9187 105.875 54.0265 106.099 53.6357 106.796C53.3255 107.596 53.4458 108.494 53.4471 109.334C53.4772 110.091 53.9704 110.87 54.7506 111.021C56.1238 111.193 57.5175 111.165 58.8989 111.094C59.6203 111.029 60.3199 110.598 60.4798 109.882L60.5686 109.486L62.8463 109.477L64.8179 109.468L64.7988 109.888C64.7496 110.963 64.7715 112.112 64.0432 112.981C62.6277 114.801 59.9947 114.644 57.9438 114.681C55.6811 114.574 53.1711 115.055 51.1189 113.832C49.5243 113.047 49.1048 111.13 48.9955 109.519C48.9382 107.814 48.8466 105.949 49.7539 104.422C50.31 103.275 51.5984 102.708 52.8077 102.586L52.8063 102.587Z" fill="#3D3D3D"/>
<path fill-rule="evenodd" clip-rule="evenodd" d="M94.196 99.6309L84.6301 116.441H90.474L92.0658 113.565L103.072 113.57L104.735 116.441H110.525L100.868 99.6309H94.196ZM97.5299 103.642L99.3376 106.883C99.8937 107.88 100.446 108.878 101.02 109.865C99.2693 109.888 97.519 109.895 95.7687 109.881L94.0894 109.868L94.8313 108.516C95.1265 107.979 95.423 107.444 95.7195 106.908L97.5285 103.642H97.5299Z" fill="#3D3D3D"/>
<path fill-rule="evenodd" clip-rule="evenodd" d="M159.077 112.595C159.4 112.595 159.716 112.678 160.023 112.843C160.33 113.009 160.571 113.246 160.742 113.555C160.914 113.864 160.999 114.185 160.999 114.52C160.999 114.855 160.914 115.17 160.744 115.476C160.575 115.782 160.339 116.02 160.033 116.19C159.728 116.359 159.408 116.444 159.075 116.444C158.741 116.444 158.423 116.359 158.117 116.19C157.812 116.02 157.574 115.782 157.404 115.476C157.234 115.17 157.148 114.852 157.148 114.52C157.148 114.188 157.234 113.864 157.406 113.555C157.579 113.246 157.819 113.01 158.127 112.843C158.434 112.678 158.75 112.595 159.072 112.595H159.077ZM159.077 112.914C158.807 112.914 158.545 112.984 158.288 113.122C158.032 113.26 157.831 113.458 157.688 113.717C157.543 113.973 157.471 114.243 157.471 114.521C157.471 114.8 157.542 115.064 157.684 115.318C157.826 115.572 158.024 115.77 158.28 115.912C158.535 116.054 158.8 116.125 159.077 116.125C159.355 116.125 159.62 116.054 159.875 115.912C160.131 115.77 160.329 115.572 160.47 115.318C160.611 115.064 160.682 114.799 160.682 114.521C160.682 114.244 160.609 113.975 160.466 113.717C160.322 113.46 160.121 113.262 159.866 113.122C159.609 112.984 159.347 112.914 159.077 112.914ZM158.234 115.583V113.513H158.946C159.19 113.513 159.366 113.532 159.474 113.57C159.583 113.609 159.669 113.676 159.733 113.77C159.798 113.865 159.83 113.967 159.83 114.073C159.83 114.225 159.776 114.356 159.669 114.468C159.561 114.58 159.418 114.643 159.24 114.657C159.313 114.687 159.371 114.724 159.416 114.766C159.5 114.848 159.602 114.984 159.722 115.176L159.975 115.582H159.567L159.384 115.255C159.239 114.998 159.123 114.838 159.034 114.773C158.972 114.725 158.883 114.702 158.766 114.702H158.569V115.582H158.236L158.234 115.583ZM158.568 114.419H158.974C159.168 114.419 159.3 114.39 159.37 114.333C159.441 114.275 159.475 114.199 159.475 114.103C159.475 114.042 159.459 113.987 159.425 113.939C159.39 113.891 159.344 113.855 159.282 113.831C159.222 113.808 159.11 113.796 158.948 113.796H158.568V114.42V114.419Z" fill="#3D3D3D"/>
</g>
<defs>
<clipPath id="clip0_741_491">
<rect width="142" height="53.4423" fill="white" transform="translate(19 63)"/>
</clipPath>
</defs>
</svg>
