<svg width="180" height="180" viewBox="0 0 180 180" fill="none" xmlns="http://www.w3.org/2000/svg">
<g clip-path="url(#clip0_703_5208)">
<path fill-rule="evenodd" clip-rule="evenodd" d="M53.506 41.0127C37.6077 41.0074 19.0138 94.2899 19 138.461H33.6324C33.6324 92.18 44.9656 50.4585 53.1087 50.4585C59.9606 50.4585 66.0723 68.6757 68.2376 103.69H84.5359C86.7111 68.6757 92.8376 50.4578 99.6534 50.4585C105.674 50.4599 113.417 73.1849 117.067 103.69H130.463C124.396 70.4568 111.071 41.0127 99.2784 41.0127C85.6849 41.0127 78.5542 69.8593 76.392 85.8473C74.213 69.8551 67.0801 41.0173 53.506 41.0127ZM68.9438 120.717C69.031 124.62 69.0762 128.661 69.0762 132.878H83.6863C83.6863 128.661 83.7418 124.62 83.8297 120.717H68.9438ZM118.6 120.717C118.952 126.501 119.152 132.441 119.152 138.461H133.784C133.785 132.659 133.464 126.695 132.868 120.717H118.6Z" fill="#3D3D3D"/>
<path fill-rule="evenodd" clip-rule="evenodd" d="M127.438 119.013H131.68V105.058H127.438V119.013ZM147.278 105.058H150.167L149.186 108.861H147.086L147.278 105.058ZM155.144 107.125C157.966 107.125 160.617 107.837 160.63 110.607H156.602C156.602 109.653 156.044 109.219 155.104 109.219C154.547 109.219 153.792 109.451 153.792 110.325C153.793 111.777 156.088 111.486 158.037 112.065C159.787 112.584 161 113.628 161 115.315C161 117.898 158.973 119.327 155.144 119.343C151.129 119.359 149.618 117.911 149.605 115.315H153.687C153.687 116.295 154.296 116.878 155.157 116.878C156.187 116.878 156.655 116.487 156.655 115.758C156.655 114.241 153.841 114.281 152.182 113.738C151.054 113.368 150.028 112.532 150.028 110.756C150.028 109.272 151.141 107.125 155.144 107.125M68.2733 114.784C67.5691 117.558 65.2679 119.357 62.3974 119.357C58.9323 119.357 56.296 116.735 56.2995 112.94C56.302 109.15 58.6452 106.527 62.3978 106.524C65.5087 106.521 67.6507 108.328 68.2941 111.106L64.3244 111.107C64.02 110.272 63.4352 109.621 62.3974 109.62C60.646 109.62 60.1841 111.476 60.1848 112.94C60.1852 114.405 60.646 116.26 62.3974 116.26C63.431 116.26 64.0147 115.615 64.3201 114.784L68.2733 114.784ZM39.01 105.059H44.0779L46.2838 113.303L48.4897 105.059H53.5611L55.7769 119.357H51.5957L50.4911 111.001L48.2061 119.357H44.3614L42.0768 111.001L40.9715 119.357H36.7871L39.01 105.059ZM104.012 112.177V119.015H99.8191V106.824H104.012V107.776C105.074 106.949 106.033 106.524 108.209 106.524C110.573 106.524 112.477 108.103 112.478 109.761V119.016H108.255V112.305C108.256 111.19 107.258 110.282 106.171 110.282C104.774 110.282 104.078 111.518 104.012 112.177ZM141.425 108.033V105.058H145.666V119.013H141.425V118.336C140.868 118.839 140.137 119.353 138.309 119.353C136.252 119.353 132.985 118.21 132.982 113.3C132.98 108.398 136.248 107.125 138.574 107.125C140.263 107.125 141.061 107.708 141.425 108.033ZM137.024 113.3C137.024 115.208 137.911 116.428 139.37 116.428C140.244 116.428 140.976 116.046 141.427 115.252V111.591C141.201 110.783 140.416 110.187 139.37 110.187C137.909 110.186 137.024 111.392 137.024 113.3ZM85.7401 112.942C85.7436 109.152 88.2013 106.528 92.1374 106.525C96.0746 106.521 98.5323 109.152 98.5352 112.942C98.5387 116.736 96.0739 119.358 92.1374 119.358C88.2051 119.358 85.7369 116.736 85.7401 112.942ZM94.5679 112.942C94.5686 111.477 94.0612 109.621 92.1374 109.621C90.2137 109.621 89.7066 111.477 89.7069 112.942C89.7076 114.406 90.2137 116.262 92.1374 116.262C94.0612 116.262 94.5679 114.406 94.5679 112.942ZM69.751 105.059H77.0383C81.5977 105.059 84.7047 107.891 84.7047 112.208C84.7047 116.525 81.5984 119.357 77.0386 119.357H69.751V105.059ZM74.5718 115.977H76.7752C78.2025 115.977 79.9402 115.107 79.9402 112.208C79.9402 109.313 78.2025 108.439 76.7748 108.439H74.5718V115.977ZM120.043 106.526C123.053 106.523 125.534 107.63 125.727 110.06V119.013H121.482V117.806C120.451 118.69 119.424 119.352 117.569 119.352C115.408 119.352 113.667 117.644 113.667 115.641C113.667 113.638 114.9 111.413 119.837 111.414C121.11 111.415 121.481 110.914 121.482 110.318C121.484 109.585 120.639 109.176 119.932 109.176C119.226 109.176 118.424 109.471 118.424 110.237H114.447C114.447 108.44 115.654 106.53 120.043 106.526H120.043ZM119.808 113.395C118.829 113.395 117.923 113.918 117.923 114.919C117.923 115.568 118.306 116.128 119.307 116.127C120.264 116.127 121.286 115.559 121.482 114.382V113.266C121.158 113.443 120.426 113.395 119.808 113.395ZM140.276 128.943H142.882C144.172 128.943 145.031 129.636 145.031 130.552C145.031 131.397 144.38 131.952 143.575 132.021V132.049C144.809 132.465 144.989 133.324 145.004 134.489H143.839C143.797 133.089 143.492 132.479 142.258 132.479H141.301V134.489H140.276V128.943ZM141.301 131.592H142.522C143.478 131.592 143.866 131.259 143.866 130.635C143.866 130.163 143.575 129.83 142.688 129.83H141.301V131.592ZM142.41 127.016C143.037 127.015 143.658 127.137 144.237 127.377C144.816 127.616 145.343 127.967 145.786 128.41C146.229 128.853 146.58 129.38 146.819 129.959C147.059 130.538 147.181 131.159 147.18 131.786C147.18 134.434 145.045 136.555 142.41 136.555C139.775 136.555 137.641 134.434 137.641 131.786C137.64 131.159 137.762 130.538 138.002 129.959C138.241 129.38 138.592 128.853 139.035 128.41C139.478 127.967 140.005 127.616 140.584 127.377C141.163 127.137 141.784 127.015 142.41 127.016ZM142.41 136.042C144.754 136.042 146.667 134.143 146.667 131.786C146.667 129.429 144.754 127.529 142.41 127.529C140.068 127.529 138.154 129.429 138.154 131.786C138.154 134.143 140.068 136.042 142.41 136.042Z" fill="#3D3D3D"/>
</g>
<defs>
<clipPath id="clip0_703_5208">
<rect width="142" height="97.4688" fill="white" transform="translate(19 41)"/>
</clipPath>
</defs>
</svg>
