<svg width="180" height="180" viewBox="0 0 180 180" fill="none" xmlns="http://www.w3.org/2000/svg">
<g clip-path="url(#clip0_741_1730)">
<path d="M41.9908 83.209H34.3314L36.9012 77.2705C38.4087 73.6056 40.1417 72.0025 42.0033 71.3764C47.6852 71.3764 62.5559 72.9922 73.9008 72.9922C80.1499 72.9922 81.2124 67.5376 81.1246 67C79.7958 68.385 76.6932 68.7898 73.017 68.7898C67.7457 68.7898 37.0328 67.9391 33.0903 67.9391C24.2275 67.9391 19 71.2688 19 76.2176C19 79.348 22.1747 81.1884 24.8825 81.1884C26.8004 81.1884 28.3925 79.9615 28.3925 79.9615C24.989 79.9615 24.2181 77.3844 24.2181 75.5662C24.2181 72.7961 27.5933 70.2633 32.8239 70.2633C34.9958 70.2633 36.6944 70.257 39.2642 70.8388C36.5471 71.8602 32.3256 77.7986 29.4016 83.209C29.1352 83.7908 28.7842 84.5276 28.5586 84.9924C28.4144 85.2928 28.2609 85.5901 28.0948 85.8778C26.3115 88.9514 23.7542 92.2495 21.3693 93.6661L25.4184 99.4496C27.4366 97.214 29.8717 94.0329 32.8208 87.0193L33.4852 85.4541H40.2859L41.9876 83.209" fill="#3D3D3D"/>
<path d="M148.085 94.9055C146.65 94.9055 145.951 93.7956 145.913 92.2809C146.201 91.8319 146.477 91.3544 146.744 90.858C147.768 89.1062 148.546 87.171 149.592 85.0176C150.028 86.782 151.156 89.3402 151.097 91.5663C151.037 93.8652 149.47 94.9055 148.085 94.9055ZM137.448 86.1686C135.765 89.7007 133.415 94.7063 131.29 94.7063C130.538 94.7063 130.224 94.1244 130.224 93.141C130.224 89.6975 134.433 81.6056 136.959 81.6056C137.668 81.6056 137.934 82.2317 137.934 83.1709C137.934 84.0215 137.711 85.0935 137.448 86.1654M159.637 88.1923C158.994 89.6026 157.314 91.99 155.052 93.5078C155.121 93.1537 155.158 92.7837 155.158 92.3948C155.158 89.3971 152.165 83.9361 151.786 80.3598C150.752 80.0594 149.157 79.6673 149.157 79.6673C148.539 82.8357 147.173 86.6777 145.114 90.2351C143.794 92.36 141.911 94.7094 140.106 94.7094C139.398 94.7094 139.131 94.3078 139.131 93.726C139.131 93.2802 139.263 92.7426 139.485 92.205L148.298 69.2671C147.756 69.6086 143.744 69.46 143.744 69.46C143.744 69.46 143.052 72.1383 142.829 72.6758L139.307 82.1021C139.084 80.5369 138.288 79.3764 136.47 79.3764C132.004 79.3764 127.021 86.3994 125.925 91.7655C124.693 93.3561 123.258 94.7126 122.114 94.7126C121.139 94.7126 120.873 94.0865 120.873 93.1916C120.873 90.5734 123.154 86.0231 125.056 82.8167C125.73 81.6815 124.865 80.2523 123.555 80.3282C122.637 80.3819 121.662 80.3977 120.741 80.404C120.158 80.4072 118.535 80.3566 118.416 80.3598H118.409C118.409 80.3598 118.933 78.4815 118.933 77.6024C118.933 76.7233 118.08 76.2743 116.961 76.2743C116.006 76.2743 114.661 78.0072 114.661 79.1961C114.661 80.461 115.557 80.6823 115.557 80.6823C115.611 80.7108 115.623 80.7329 115.661 80.7361C115.448 82.7693 114.52 85.3622 112.966 88.5718C111.74 90.9086 109.095 94.7063 106.961 94.7063C106.253 94.7063 105.986 94.3047 105.986 93.7229C105.986 93.277 106.121 92.7394 106.34 92.2019L110.869 80.3029C110.239 80.3946 107.174 80.5843 106.143 80.695C106.143 80.695 105.585 83.2152 105.366 83.7527L102.708 90.7283C102.132 92.205 101.646 93.5458 101.646 94.662C101.646 96.183 102.489 97.7482 104.748 97.7482C108.647 97.7482 112.192 93.1442 114.363 89.2991L114.351 89.2896C115.018 88.0627 116.41 85.1757 117.359 83.0887C117.359 83.0918 117.447 82.8989 117.488 82.8041C117.607 82.5385 117.72 82.2855 117.82 82.0578C118.199 82.0958 118.616 82.1306 119.089 82.14C119.155 82.14 119.218 82.1432 119.284 82.1432H119.296C119.356 82.1432 119.418 82.1432 119.481 82.14C120.089 82.1337 120.728 82.0895 121.368 82.0104C120.262 83.7085 116.451 89.7007 116.451 93.8146C116.451 96.2304 117.823 97.7482 120.262 97.7482C122.308 97.7482 124.173 96.398 125.765 94.6146C126.006 96.4834 127.106 97.7482 129.391 97.7482C131.675 97.7482 133.644 96.0502 135.195 93.1442C135.063 93.6817 134.972 94.2161 134.972 94.6652C134.972 96.1861 135.637 97.7514 137.896 97.7514C140.156 97.7514 142.494 96.496 144.434 94.2794C144.772 96.2873 146.183 97.7957 148.881 97.7957C148.937 97.7957 148.994 97.7957 149.05 97.7957C149.072 97.7957 149.091 97.7957 149.113 97.7957C153.826 97.7957 158.671 93.9126 161.006 89.2421L159.643 88.1955" fill="#3D3D3D"/>
<path d="M91.7111 94.7948C90.8242 94.7948 90.5578 94.0802 90.5578 93.0967C90.5578 92.1133 90.8242 90.9497 91.1344 90.0137C92.7735 86.2571 95.2117 81.7416 97.3366 81.7416C98.0887 81.7416 98.399 82.3234 98.399 83.3068C98.399 86.7946 94.5881 94.798 91.708 94.798M67.2944 81.34C67.9149 81.34 68.2252 81.8776 68.2252 82.6365C68.2252 84.6033 66.1881 88.1797 62.0669 88.3599C63.2202 84.7835 65.743 81.34 67.2944 81.34ZM81.9174 81.34C82.538 81.34 82.8482 81.8776 82.8482 82.6365C82.8482 84.6033 80.8112 88.1797 76.69 88.3599C77.8433 84.7835 80.3661 81.34 81.9174 81.34ZM102.611 83.7527C102.611 81.4285 101.636 79.37 99.1543 79.37C97.1611 79.37 95.2117 80.7107 93.4818 83.3922L95.8291 77.8933L99.1041 69.2607C98.4711 69.6307 94.5505 69.4536 94.5505 69.4536C94.5505 69.4536 93.9017 71.9106 93.6353 72.6252L86.7061 90.4912C84.9762 92.6446 82.187 94.9719 79.0812 94.9719C76.9094 94.9719 76.0663 93.8082 76.0663 91.7528C76.0663 91.1267 76.1541 90.4564 76.2888 89.7417C76.8655 89.9662 77.486 90.0548 78.1504 90.0548C81.9613 90.0548 86.1264 86.7915 86.1264 82.7693C86.1264 80.5337 84.8414 79.37 82.4941 79.37C77.041 79.37 72.4591 85.7638 71.8073 90.8295C70.0648 92.8817 67.404 94.9719 64.4613 94.9719C62.2894 94.9719 61.4464 93.8082 61.4464 91.7528C61.4464 91.1267 61.5341 90.4564 61.6689 89.7417C62.2455 89.9662 62.8661 90.0548 63.5305 90.0548C67.3414 90.0548 71.5064 86.7915 71.5064 82.7693C71.5064 80.5337 70.2215 79.37 67.8741 79.37C62.3051 79.37 57.6449 86.0421 57.1497 91.152C55.799 92.9892 54.0346 94.7062 52.3641 94.7062C51.565 94.7062 51.2547 94.3047 51.2547 93.4983C51.2547 91.3512 53.5363 86.431 55.6078 82.6017C56.1939 81.5171 55.3602 80.2175 54.138 80.3028C53.1758 80.3692 52.1448 80.3977 51.1638 80.3977C50.4556 80.3977 49.3555 80.3977 48.735 80.3534C48.735 80.3534 49.2584 78.4751 49.2584 77.5961C49.2584 76.717 48.406 76.268 47.2871 76.268C46.3313 76.268 44.9868 78.0008 44.9868 79.1898C44.9868 80.4546 45.8831 80.676 45.8831 80.676C45.1278 85.1915 38.8442 93.6817 35.9829 95.2154L38.4901 97.745C42.7867 93.8114 46.7763 85.1377 47.9735 82.0515C48.4154 82.0957 48.9043 82.14 49.4809 82.14C50.1453 82.14 50.8536 82.0957 51.565 82.0072C50.4587 83.7527 46.7794 90.3678 46.7794 94.0327C46.7794 96.2683 48.1521 97.745 50.5465 97.745C53.2448 97.745 55.4981 95.9047 57.2907 93.6786C57.8862 96.2272 59.9139 97.9253 63.0416 97.9253C66.1693 97.9253 69.4349 96.1134 71.8637 93.4699C72.3965 96.1355 74.4492 97.9253 77.6615 97.9253C80.2846 97.9253 82.8294 96.749 84.9919 94.9086L83.9075 97.7008L88.2512 97.2549C88.4298 95.6454 88.8278 94.4375 89.4484 92.9639C89.3606 93.4572 89.3167 93.9473 89.3167 94.3932C89.3167 96.2715 90.0689 97.745 92.2407 97.745C97.5591 97.745 102.608 89.0714 102.608 83.7527" fill="#3D3D3D"/>
<path d="M110.324 77.0905C111.74 77.0905 112.806 75.8826 112.806 74.4976C112.806 73.0208 111.744 71.8604 110.324 71.8604C108.904 71.8604 107.798 73.0208 107.798 74.4976C107.798 75.8826 108.904 77.0905 110.324 77.0905Z" fill="#3D3D3D"/>
<path d="M55.5797 111.962H54.3073L53.7996 109.363L53.317 111.962H52.0133L50.4463 104.825H52.0039L52.6401 107.813L53.2857 104.825H54.3073L54.931 107.801L55.5891 104.825H57.1436L55.5797 111.962Z" fill="#3D3D3D"/>
<path d="M60.4811 106.346C58.773 106.346 58.6226 110.435 60.5124 110.435C62.4022 110.435 62.28 106.346 60.4811 106.346ZM60.4999 104.797C64.2481 104.778 64.3076 111.994 60.4999 112.003C56.7328 112.013 56.8833 104.819 60.4999 104.797Z" fill="#3D3D3D"/>
<path d="M66.1945 107.712H67.3446C68.3162 107.712 68.3036 106.355 67.3258 106.355H66.1945V107.712ZM69.8925 111.962H68.2065L66.9121 109.119H66.2039V111.962H64.6494V104.828H67.003C68.6891 104.828 69.7202 105.562 69.7202 106.988C69.7202 108.028 69.2156 108.597 68.4979 108.914L69.8925 111.962Z" fill="#3D3D3D"/>
<path d="M72.8164 110.432H75.2797V111.962H71.24V104.825H72.8164V110.432Z" fill="#3D3D3D"/>
<path d="M77.997 110.432C78.6237 110.432 79.1471 110.239 79.4731 109.9C80.1782 109.157 80.1187 107.485 79.4731 106.833C79.1095 106.466 78.7052 106.343 77.997 106.356V110.432ZM76.4331 104.825H78.3229C82.7888 104.825 82.7355 111.959 78.3229 111.959H76.4331V104.825Z" fill="#3D3D3D"/>
<path d="M87.869 110.432H88.8185C89.8496 110.432 89.8496 108.983 88.8185 108.983H87.869V110.432ZM87.8596 107.538H88.7496C89.577 107.538 89.577 106.356 88.7496 106.356H87.8596V107.538ZM86.4148 104.825H88.3955C90.0533 104.825 90.9935 105.499 91.0029 106.681C91.0029 107.526 90.5673 107.965 89.9938 108.18C90.5798 108.373 91.216 108.987 91.216 109.976C91.216 111.241 90.489 111.965 88.8938 111.965H86.4179V104.832" fill="#3D3D3D"/>
<path d="M97.5153 104.825V109.698C97.5153 112.734 92.6169 112.787 92.6169 109.698V104.825H94.1714V109.461C94.1714 110.757 95.9703 110.735 95.9703 109.451V104.825H97.5153Z" fill="#3D3D3D"/>
<path d="M100.659 107.712H101.812C102.78 107.712 102.771 106.355 101.79 106.355H100.659V107.712ZM104.357 111.962H102.671L101.376 109.119H100.668V111.962H99.1135V104.828H101.467C103.153 104.828 104.184 105.562 104.184 106.988C104.184 108.028 103.68 108.597 102.962 108.914L104.357 111.962Z" fill="#3D3D3D"/>
<path d="M107.299 107.712H108.453C109.421 107.712 109.412 106.355 108.431 106.355H107.299V107.712ZM110.998 111.962H109.311L108.017 109.119H107.309V111.962H105.754V104.828H108.108C109.794 104.828 110.825 105.562 110.825 106.988C110.825 108.028 110.321 108.597 109.603 108.914L110.998 111.962Z" fill="#3D3D3D"/>
<path d="M114.025 104.825H112.461V111.959H114.025V104.825Z" fill="#3D3D3D"/>
<path d="M120.218 104.825V106.356H118.422V111.962H116.845V106.356H115.119V104.825H120.218Z" fill="#3D3D3D"/>
<path d="M123.461 106.346C121.753 106.346 121.603 110.435 123.493 110.435C125.382 110.435 125.26 106.346 123.461 106.346ZM123.48 104.797C127.228 104.778 127.288 111.994 123.48 112.003C119.713 112.013 119.863 104.819 123.48 104.797Z" fill="#3D3D3D"/>
</g>
<defs>
<clipPath id="clip0_741_1730">
<rect width="142" height="45" fill="white" transform="translate(19 67)"/>
</clipPath>
</defs>
</svg>
