<svg width="180" height="180" viewBox="0 0 180 180" fill="none" xmlns="http://www.w3.org/2000/svg">
<g clip-path="url(#clip0_741_607)">
<path d="M148.492 64C148.533 64.2546 148.609 64.5093 148.609 64.769C148.624 69.9485 148.624 75.128 148.64 80.3074C148.64 80.8727 148.685 81.4381 148.721 82.1816C149.047 81.983 149.317 81.8913 149.475 81.708C150.982 79.9255 152.474 78.1277 153.972 76.3299C154.048 76.2382 154.114 76.1313 154.181 76.0294C154.95 74.858 154.644 74.196 153.238 73.9973C152.785 73.9311 152.164 73.9668 152.21 73.32C152.261 72.6477 152.892 72.8922 153.294 72.8922C155.26 72.8718 157.231 72.8769 159.202 72.8922C159.503 72.8922 159.966 72.7751 159.941 73.2589C159.925 73.4779 159.584 73.7223 159.34 73.8751C158.657 74.3029 157.847 74.5728 157.267 75.1076C155.698 76.5489 154.221 78.092 152.709 79.5944C152.362 79.9357 152.301 80.2922 152.561 80.7403C154.456 83.959 156.335 87.1879 158.224 90.4066C158.398 90.702 158.611 90.977 158.8 91.2673C159.177 91.8327 159.666 92.2197 160.368 92.3012C160.689 92.3368 161.056 92.398 160.985 92.8716C160.918 93.3351 160.547 93.279 160.226 93.2739C158.703 93.2383 157.185 93.1823 155.663 93.1619C155.22 93.1568 154.771 93.279 154.328 93.2587C154.14 93.2485 153.967 93.0244 153.783 92.8971C153.911 92.7392 154.007 92.5151 154.17 92.4336C154.461 92.2961 154.792 92.2452 155.102 92.1637C155.556 92.0415 155.698 91.7512 155.515 91.3335C155.301 90.8497 155.082 90.371 154.822 89.9126C153.534 87.6819 152.235 85.4564 150.936 83.2308C150.804 83.0067 150.641 82.808 150.448 82.5381C149.424 83.3122 148.584 84.0915 148.604 85.4665C148.629 87.0708 148.604 88.6751 148.614 90.2793C148.619 91.6544 148.843 91.9243 150.172 92.2452C150.371 92.291 150.59 92.3063 150.753 92.4132C150.952 92.5406 151.104 92.7392 151.278 92.9073C151.054 93.0295 150.824 93.2587 150.6 93.2587C149.689 93.2587 148.772 93.1466 147.86 93.1415C146.847 93.1415 145.833 93.2026 144.82 93.2434C144.616 93.2485 144.387 93.3249 144.219 93.2587C144.051 93.1874 143.862 92.9887 143.832 92.8156C143.806 92.6832 143.969 92.4285 144.107 92.3674C144.377 92.2452 144.693 92.2248 144.993 92.1535C145.691 91.9905 145.92 91.7155 145.92 91.0076C145.92 83.3275 145.92 75.6474 145.93 67.9674C145.93 67.3511 145.665 67.015 145.085 66.8928C144.789 66.8266 144.479 66.8011 144.193 66.689C144.015 66.6228 143.735 66.4191 143.75 66.3122C143.781 66.1186 143.959 65.8793 144.137 65.7927C144.611 65.5635 145.131 65.4362 145.609 65.2172C146.465 64.82 147.29 64.4023 148.125 64C148.247 64 148.37 64 148.492 64Z" fill="#3D3D3D"/>
<path d="M108.63 69.1387C108.518 69.4087 108.38 69.6684 108.299 69.9485C107.081 74.1349 105.844 78.3161 104.662 82.5127C103.761 85.711 102.926 88.9348 102.06 92.1433C102.029 92.2605 102.019 92.398 101.958 92.4896C101.821 92.6934 101.652 92.8767 101.5 93.0651C101.332 92.8716 101.072 92.7035 101.006 92.4795C100.13 89.3779 99.3046 86.2559 98.4185 83.1544C97.1758 78.805 95.9026 74.4659 94.6345 70.1268C94.5377 69.7906 94.3849 69.4698 94.2576 69.1438C94.1863 69.1489 94.1099 69.1591 94.0386 69.1642C93.9571 69.6837 93.8298 70.2032 93.7992 70.7277C93.677 73.0399 93.5344 75.347 93.4936 77.6591C93.4274 81.2955 93.4274 84.9318 93.4325 88.5681C93.4325 89.3321 93.5344 90.1062 93.6719 90.865C93.8196 91.685 94.1506 91.9498 94.9808 92.0669C95.3627 92.123 95.7702 92.0975 96.1267 92.2197C96.3559 92.3012 96.5188 92.5813 96.7124 92.7748C96.4883 92.9378 96.2642 93.2332 96.0299 93.2383C95.0368 93.2587 94.0386 93.1619 93.0455 93.167C89.6485 93.1823 86.2516 93.223 82.8546 93.2536C82.7527 93.2536 82.6509 93.2587 82.549 93.2638C82.2027 93.2638 81.7953 93.3198 81.724 92.8563C81.6476 92.3623 82.0652 92.2605 82.4268 92.1841C84.2195 91.797 84.2806 91.7359 84.2857 89.8974C84.2908 85.7518 84.2857 81.6061 84.2857 77.4605C84.2857 76.2128 84.0922 75.9734 82.8597 75.6525C82.7222 75.6169 82.5592 75.622 82.4472 75.5507C82.2893 75.4488 82.1059 75.3062 82.0652 75.1433C82.0346 75.0312 82.1976 74.8071 82.33 74.7256C82.605 74.5576 82.9208 74.4608 83.2111 74.3131C84.1278 73.8395 85.0394 73.3506 85.9562 72.8769C86.2159 72.7445 86.496 72.6528 86.7659 72.5408C86.8372 72.8413 86.9646 73.1418 86.9646 73.4422C86.9747 78.968 86.9747 84.4989 86.9747 90.0247C86.9747 91.5475 87.4789 92.0669 89.0119 92.1026C89.3175 92.1077 89.6231 92.1179 89.9286 92.0924C91.3292 91.9905 91.8232 91.5322 91.9505 90.096C92.0778 88.6394 92.1797 87.1829 92.2204 85.7212C92.3732 80.2616 92.5005 74.802 92.6329 69.3425C92.6431 68.8179 92.6482 68.2882 92.6024 67.7637C92.526 66.8775 92.251 66.5974 91.3903 66.4191C90.993 66.3377 90.5754 66.3071 90.2036 66.1594C90.0101 66.083 89.7657 65.7927 89.786 65.6297C89.8064 65.4566 90.1069 65.1968 90.2953 65.1867C90.9625 65.151 91.6347 65.2172 92.307 65.2325C93.2848 65.2529 94.2576 65.2783 95.2354 65.2732C95.7549 65.2732 96.035 65.4617 96.1878 65.9862C98.0263 72.2963 99.8852 78.5962 101.749 84.9012C101.856 85.273 102.029 85.6244 102.172 85.986C102.253 85.986 102.335 85.986 102.411 85.9911C102.63 85.436 102.895 84.9012 103.058 84.3308C104.739 78.4587 106.404 72.5866 108.07 66.7145C108.105 66.5974 108.136 66.4803 108.176 66.3631C108.518 65.3089 108.558 65.2936 109.684 65.2732C110.84 65.2529 112.001 65.1968 113.157 65.1612C113.32 65.1561 113.514 65.1052 113.641 65.1714C113.86 65.2885 114.043 65.482 114.242 65.6399C114.074 65.808 113.937 66.0474 113.738 66.1288C113.443 66.2511 113.106 66.2613 112.786 66.3173C112.032 66.4548 111.823 66.6381 111.767 67.4326C111.701 68.4461 111.66 69.4647 111.701 70.4782C111.869 74.9599 112.067 79.4417 112.256 83.9285C112.337 85.9147 112.414 87.906 112.511 89.8923C112.526 90.2335 112.587 90.5798 112.668 90.9109C112.826 91.5576 113.203 91.9905 113.916 92.0568C114.176 92.0822 114.466 92.1128 114.68 92.2452C114.884 92.3674 115.006 92.6272 115.164 92.8258C114.955 92.9735 114.756 93.1466 114.527 93.2485C114.395 93.3096 114.206 93.2536 114.043 93.2536C112.057 93.2536 110.066 93.2485 108.08 93.2434C107.876 93.2434 107.672 93.2587 107.469 93.2587C107.112 93.2587 106.74 93.2383 106.689 92.7698C106.643 92.3318 106.995 92.2401 107.316 92.1688C107.693 92.0822 108.075 92.0364 108.457 91.96C109.277 91.7868 109.557 91.5118 109.552 90.6766C109.536 88.1811 109.511 85.6855 109.434 83.19C109.292 78.7032 109.108 74.2214 108.935 69.7397C108.93 69.5462 108.879 69.3526 108.849 69.1591C108.777 69.1489 108.711 69.1438 108.64 69.1336L108.63 69.1387Z" fill="#3D3D3D"/>
<path d="M19.0865 93.2434C19.0713 93.0346 19.056 92.892 19.056 92.7545C19.056 89.4237 19.0509 86.0879 19.0662 82.7571C19.0662 82.5432 19.1477 82.2478 19.3004 82.1205C22.3409 79.5995 25.7379 77.9341 29.7816 77.9698C30.6729 77.98 31.6151 78.1786 32.4452 78.5096C34.5638 79.3551 35.4296 81.326 34.8338 83.6738C34.3194 85.711 33.1226 87.3407 31.6507 88.782C29.6747 90.7173 27.3625 92.1331 24.7295 92.9836C24.1845 93.1619 23.5785 93.2077 22.9979 93.223C21.7196 93.2587 20.4362 93.2332 19.0916 93.2332L19.0865 93.2434Z" fill="#3D3D3D"/>
<path d="M89.9235 100.282C66.5828 100.282 43.2421 100.282 19.9013 100.272C19.5907 100.272 19.1272 100.491 19.0865 99.8541C19.0559 99.3499 19.1731 99.0596 19.7435 99.1411C19.9013 99.1614 20.0694 99.1411 20.2324 99.1411C66.7305 99.1411 113.234 99.1411 159.732 99.1411C159.895 99.1411 160.058 99.1461 160.221 99.1411C160.623 99.1207 160.913 99.141 160.924 99.6962C160.939 100.302 160.613 100.282 160.19 100.282C136.768 100.282 113.346 100.282 89.9235 100.282Z" fill="#3D3D3D"/>
<path d="M62.4983 78.7083C62.4983 82.365 62.4983 86.0268 62.4983 89.6835C62.4983 89.989 62.4983 90.2946 62.539 90.5951C62.6766 91.5526 63.0636 91.9193 64.0262 92.072C64.4693 92.1382 64.9174 92.1943 65.3401 92.3216C65.5082 92.3725 65.7425 92.6424 65.717 92.7647C65.6814 92.948 65.4573 93.2078 65.2841 93.2332C64.8665 93.2943 64.4336 93.2332 64.0058 93.2332C61.9737 93.2332 59.9468 93.2332 57.9147 93.2383C57.5276 93.2383 57.1355 93.2892 56.7637 93.2281C56.5956 93.2027 56.3665 92.9633 56.3512 92.8054C56.3308 92.6424 56.504 92.3572 56.6568 92.3012C57.0336 92.1637 57.4411 92.0975 57.8434 92.0568C59.1217 91.9396 59.3916 91.6901 59.4884 90.427C59.5088 90.1622 59.5241 89.9025 59.5241 89.6376C59.5241 82.2631 59.5241 74.8835 59.5241 67.509C59.5241 66.5567 59.4426 66.4701 58.4851 66.4548C57.9758 66.4497 57.4665 66.4242 56.9572 66.465C55.8674 66.5567 55.0016 67.122 54.4668 68.0285C53.8964 69.0012 53.4788 70.0657 53.0102 71.0944C52.8269 71.5019 52.7098 71.9398 52.4959 72.3269C52.3991 72.5052 52.1394 72.5917 51.9509 72.7191C51.8287 72.5306 51.6046 72.3422 51.6097 72.1588C51.6301 71.2472 51.6555 70.3305 51.7778 69.429C51.9713 67.9827 52.2463 66.5465 52.4908 65.1052C52.5162 64.9677 52.5417 64.8149 52.613 64.7028C52.7454 64.4991 52.9288 64.1528 53.0714 64.163C53.3005 64.1783 53.601 64.3871 53.708 64.601C54.0136 65.1918 54.4515 65.3751 55.0932 65.37C59.2032 65.3496 63.3132 65.3598 67.4282 65.3598C68.3246 65.3598 69.1853 65.3089 69.6793 64.3565C69.7506 64.219 70.0816 64.1121 70.2497 64.1528C70.4076 64.1936 70.6113 64.4482 70.6266 64.6163C70.6775 65.3242 70.7233 66.0372 70.6673 66.7451C70.54 68.4257 70.377 70.1013 70.1886 71.7718C70.1478 72.1385 70.1326 72.7191 69.5978 72.6681C69.3737 72.6427 69.114 72.1334 69.0172 71.8023C68.7677 70.9264 68.6556 70.0096 68.3857 69.1438C67.7898 67.234 66.6745 66.4548 64.6832 66.4548C64.1942 66.4548 63.7053 66.4548 63.2164 66.4701C62.7071 66.4803 62.4728 66.6891 62.4779 67.2595C62.5034 71.0791 62.4881 74.8988 62.4881 78.7236L62.4983 78.7083Z" fill="#3D3D3D"/>
<path d="M132.016 89.7189C132.006 89.5508 131.853 89.3981 131.762 89.2351C131.599 89.3573 131.385 89.449 131.283 89.6069C131.084 89.9328 130.993 90.3301 130.774 90.6356C130.168 91.4912 129.032 91.3894 128.619 90.4319C128.467 90.0703 128.421 89.6425 128.416 89.2453C128.395 86.928 128.406 84.6107 128.406 82.2986C128.406 81.8504 128.411 81.4022 128.406 80.954C128.395 78.866 128.421 76.7728 128.344 74.6796C128.304 73.4522 127.698 72.8767 126.48 72.6323C122.788 71.8989 118.383 73.9717 116.661 77.3075C116.386 77.8321 116.223 78.4483 116.152 79.0391C116.05 79.9151 116.417 80.2308 117.303 80.1443C118.576 80.0169 119.264 79.2072 119.687 78.0816C120.033 77.1751 120.328 76.238 120.787 75.3875C121.418 74.211 122.472 73.6101 123.837 73.6152C124.841 73.6152 125.365 73.9768 125.543 74.9801C125.686 75.7949 125.716 76.6353 125.711 77.4603C125.681 80.2156 126.185 80.0169 123.323 82.0948C121.545 83.3783 119.788 84.7024 118.098 86.0928C116.717 87.2183 116.127 88.7105 116.361 90.5338C116.631 92.6168 118.047 93.8136 120.135 93.6099C121.744 93.4571 123.068 92.7186 124.209 91.6135C124.55 91.2875 124.881 90.9616 125.222 90.6407C125.564 90.3199 125.823 90.3606 125.976 90.8342C126.104 91.2366 126.221 91.6491 126.379 92.0413C126.735 92.9478 127.412 93.4113 128.39 93.4469C130.28 93.5233 132.164 91.6033 132.016 89.7189ZM125.716 85.1913H125.676C125.676 86.1437 125.722 87.1012 125.655 88.0484C125.63 88.4762 125.462 88.9397 125.217 89.286C124.52 90.2842 123.598 91.0634 122.467 91.532C120.873 92.1991 119.442 91.2722 119.299 89.5457C119.172 87.9822 119.783 86.6937 120.766 85.5427C121.912 84.1982 123.318 83.1644 124.8 82.2273C125.452 81.8147 125.711 81.9777 125.716 82.7518C125.722 83.5667 125.716 84.3765 125.716 85.1913Z" fill="#3D3D3D"/>
<path d="M34.8288 93.2432C37.0239 91.6542 39.0152 89.9379 40.6958 87.8753C42.3154 85.8891 43.6192 83.7246 44.2252 81.2036C45.3711 76.4621 43.115 72.9175 38.3225 71.8989C34.8645 71.1655 31.4879 71.6391 28.147 72.5915C24.9181 73.5133 21.9234 74.9444 19.1733 76.8899C18.8066 75.8561 19.0103 75.1634 19.8557 74.5676C23.8129 71.7716 28.1215 69.8108 32.9445 69.0876C35.7048 68.6751 38.4601 68.6955 41.1389 69.6224C45.7836 71.2266 48.05 75.2347 47.0467 80.0475C46.2776 83.7449 44.3322 86.8058 41.7857 89.505C40.6296 90.7273 39.3208 91.8019 38.0475 92.902C37.8031 93.1159 37.4007 93.2126 37.0646 93.2381C36.321 93.289 35.5724 93.2534 34.8288 93.2534V93.2432Z" fill="#3D3D3D"/>
<path d="M48.0294 64.3159V68.981C47.9428 68.9657 47.8766 68.981 47.8359 68.9504C44.7801 66.8318 41.3017 66.3327 37.7112 66.4957C30.9988 66.8012 24.9433 69.0829 19.4175 72.8414C19.336 72.8974 19.2444 72.9382 19.0967 73.0197V64.3159H48.0294Z" fill="#3D3D3D"/>
<path d="M19.051 80.8678C19.051 80.114 19.0306 79.4468 19.0662 78.7797C19.0764 78.6116 19.2088 78.3977 19.3514 78.2958C23.6193 75.2656 28.2436 73.3099 33.6014 73.6613C35.8575 73.809 37.9201 74.5169 39.4123 76.3351C40.8587 78.0972 41.0472 80.1446 40.5684 82.2734C39.8758 85.3495 38.1238 87.8348 35.883 89.9688C34.7269 91.0688 33.4078 92.0008 32.1499 92.999C32.0022 93.1162 31.7883 93.2282 31.6049 93.2282C30.0873 93.2486 28.5696 93.2384 26.9449 93.2384C27.9482 92.7749 28.865 92.4082 29.7257 91.9346C32.868 90.2081 35.394 87.8399 36.9576 84.5805C37.4057 83.6434 37.7317 82.5892 37.8285 81.5655C38.0882 78.851 36.545 76.9972 33.7287 76.4217C31.116 75.8869 28.5899 76.3198 26.0995 77.1041C23.5123 77.919 22.4072 78.525 19.0459 80.8627L19.051 80.8678Z" fill="#3D3D3D"/>
<path d="M74.0949 76.3297C74.3292 75.9121 74.5431 75.4843 74.8028 75.0871C75.195 74.4963 75.5668 73.8852 76.0404 73.3708C76.7025 72.6476 77.5886 72.4235 78.5512 72.5406C79.3457 72.6374 79.9059 73.0856 80.2013 73.819C80.5935 74.7968 80.6087 75.8052 80.2981 76.8034C80.0434 77.6233 79.3813 78.0053 78.5512 77.8882C77.772 77.7812 77.3595 77.3025 77.2933 76.4163C77.2627 75.9936 77.2525 75.5658 77.2067 75.1431C77.1608 74.7102 76.84 74.5421 76.5191 74.7459C76.071 75.026 75.5973 75.3723 75.3274 75.8052C74.5227 77.109 74.1509 78.5808 74.1306 80.0985C74.0898 83.4089 74.1153 86.7243 74.1204 90.0347C74.1204 91.5779 74.4005 91.9089 75.8978 92.2145C76.2136 92.2807 76.5395 92.3316 76.84 92.4487C76.9775 92.4997 77.1659 92.7238 77.1405 92.8205C77.0997 92.9784 76.9215 93.1923 76.7738 93.2178C76.4173 93.2789 76.0455 93.2381 75.6839 93.2432C73.881 93.2432 72.073 93.2432 70.2702 93.2432C69.985 93.2432 69.6896 93.2891 69.4247 93.2229C69.2669 93.1821 69.0581 92.9784 69.0428 92.8307C69.0275 92.683 69.1854 92.4284 69.328 92.3622C69.5979 92.2399 69.9137 92.2094 70.209 92.1534C71.0086 92.0057 71.2378 91.7765 71.3549 90.9667C71.3906 90.7274 71.4059 90.4829 71.4059 90.2384C71.4059 86.0724 71.4059 81.9065 71.4059 77.7405C71.4059 77.5164 71.3957 77.2923 71.3549 77.0733C71.2123 76.2483 70.8915 75.9987 70.0461 75.9172C69.766 75.8918 69.5062 75.6982 69.2363 75.5811C69.4502 75.3468 69.6183 74.9801 69.878 74.8935C71.0392 74.5065 71.9712 73.8393 72.7453 72.9073C72.8981 72.724 73.1782 72.6527 73.3972 72.5304C73.5092 72.7749 73.7028 73.0092 73.7231 73.2587C73.7741 73.9259 73.7435 74.5982 73.769 75.2704C73.7792 75.6066 73.8352 75.9376 73.8657 76.2737C73.937 76.2941 74.0083 76.3145 74.0847 76.3348L74.0949 76.3297Z" fill="#3D3D3D"/>
<path d="M137.425 76.3299C137.573 76.1058 137.725 75.8868 137.873 75.6627C138.362 74.9191 138.795 74.1348 139.355 73.4473C139.92 72.7445 140.746 72.4949 141.647 72.5153C142.574 72.5408 143.246 72.9737 143.592 73.8293C143.985 74.8071 143.995 75.8155 143.679 76.8137C143.414 77.6337 142.757 78.0105 141.927 77.8883C141.148 77.7712 140.746 77.2924 140.679 76.4012C140.649 75.9988 140.644 75.5914 140.608 75.1891C140.562 74.6849 140.206 74.5372 139.839 74.7613C139.421 75.0159 138.999 75.3571 138.744 75.7646C137.924 77.0836 137.542 78.5708 137.522 80.1088C137.476 83.4396 137.501 86.7754 137.512 90.1062C137.512 91.5678 137.817 91.9141 139.243 92.1993C139.564 92.2655 139.89 92.3114 140.185 92.4336C140.338 92.4947 140.562 92.7545 140.532 92.8309C140.46 92.9989 140.267 93.1924 140.094 93.2332C139.803 93.2994 139.488 93.2485 139.182 93.2536C137.318 93.2536 135.449 93.2536 133.585 93.2536C133.463 93.2536 133.34 93.2688 133.218 93.2637C132.867 93.2637 132.459 93.279 132.419 92.8105C132.383 92.3521 132.801 92.2961 133.132 92.2095C133.269 92.1739 133.412 92.1739 133.554 92.1535C134.4 92.0109 134.634 91.7919 134.746 90.9465C134.802 90.5441 134.812 90.1367 134.812 89.7293C134.812 85.7059 134.807 81.6825 134.802 77.6591C134.802 76.4979 134.425 75.8206 133.177 75.9072C133.004 75.9174 132.816 75.7238 132.633 75.622C132.755 75.4081 132.862 75.184 133.004 74.9854C133.055 74.9141 133.183 74.8886 133.279 74.858C134.43 74.5219 135.342 73.8445 136.111 72.938C136.274 72.7445 136.569 72.663 136.809 72.5255C136.921 72.7699 137.104 73.0093 137.124 73.264C137.175 73.9108 137.145 74.5626 137.165 75.2145C137.175 75.5659 137.231 75.9174 137.267 76.2688C137.323 76.284 137.374 76.2993 137.43 76.3197L137.425 76.3299Z" fill="#3D3D3D"/>
<path d="M96.9313 106.76V115.245H95.5359V104.748C96.3049 104.748 97.0536 104.728 97.7971 104.769C97.9295 104.774 98.1078 105.039 98.1587 105.212C98.7444 107.259 99.3046 109.312 99.875 111.359C99.9463 111.608 100.023 111.853 100.232 112.102C100.568 110.936 100.904 109.765 101.24 108.599C101.566 107.468 101.907 106.342 102.202 105.207C102.299 104.835 102.462 104.723 102.829 104.738C103.455 104.764 104.082 104.743 104.749 104.743V115.235H103.231V106.729C103.185 106.719 103.14 106.704 103.089 106.694C103.033 106.842 102.961 106.984 102.921 107.137C102.223 109.638 101.52 112.133 100.843 114.639C100.72 115.087 100.568 115.311 100.033 115.306C99.5185 115.306 99.3352 115.128 99.213 114.659C98.5662 112.209 97.8888 109.77 97.2216 107.325C97.1707 107.137 97.1147 106.943 97.0587 106.755C97.0128 106.755 96.9721 106.755 96.9262 106.76H96.9313Z" fill="#3D3D3D"/>
<path d="M125.08 109.719C126.134 108.986 126.328 108.695 126.445 107.718C126.613 106.358 125.864 104.998 124.698 104.906C123.155 104.784 121.596 104.876 120.002 104.876C119.992 108.222 119.977 111.563 119.987 114.909C119.987 115.036 120.247 115.27 120.389 115.27C121.729 115.27 123.068 115.27 124.403 115.179C125.528 115.107 126.348 114.333 126.654 113.248C127.056 111.782 126.562 110.656 125.08 109.719ZM121.668 106.353C121.668 106.251 121.861 106.078 121.968 106.078C122.533 106.083 123.109 106.083 123.664 106.18C124.357 106.297 124.662 106.74 124.693 107.483C124.723 108.319 124.453 108.848 123.766 108.996C123.104 109.133 122.411 109.128 121.652 109.195C121.652 108.166 121.642 107.259 121.668 106.353ZM123.46 113.88C122.895 113.921 122.33 113.89 121.647 113.89C121.647 112.811 121.637 111.802 121.663 110.794C121.663 110.677 121.861 110.473 121.973 110.468C122.539 110.452 123.114 110.427 123.669 110.519C124.571 110.661 125.095 111.42 125.024 112.322C124.947 113.233 124.382 113.819 123.46 113.88Z" fill="#3D3D3D"/>
<path d="M85.4062 107.193C85.0701 106.337 84.4997 105.645 83.6441 105.258C82.0857 104.55 80.4356 104.774 78.7957 104.774V115.219C79.9059 115.219 80.9398 115.26 81.9685 115.214C83.5932 115.138 84.7187 114.287 85.3502 112.821C86.1447 110.962 86.1549 109.072 85.4062 107.193ZM83.9751 111.481C83.5932 113.325 82.5084 114.063 80.5018 113.849V106.23C82.1213 105.884 83.3334 106.551 83.8325 108.054C84.2043 109.179 84.2145 110.335 83.9751 111.481Z" fill="#3D3D3D"/>
<path d="M142.605 111.002C142.482 110.717 142.431 110.524 142.752 110.289C144.015 109.352 144.387 107.616 143.679 106.205C143.318 105.477 142.732 104.972 141.948 104.901C140.496 104.774 139.04 104.759 137.547 104.692V115.25H139.203V111.695C139.203 110.84 139.208 110.89 140.063 110.824C140.71 110.773 140.995 111.013 141.189 111.614C141.545 112.714 141.973 113.788 142.401 114.863C142.467 115.031 142.666 115.25 142.824 115.265C143.302 115.321 143.786 115.286 144.392 115.286C143.761 113.768 143.19 112.383 142.605 111.002ZM142.014 108.848C141.815 109.133 141.433 109.408 141.092 109.464C140.506 109.566 139.89 109.495 139.208 109.495C139.208 108.42 139.192 107.427 139.223 106.434C139.223 106.307 139.467 106.103 139.62 106.078C139.956 106.022 140.313 106.047 140.654 106.067C142.136 106.169 142.859 107.621 142.014 108.848Z" fill="#3D3D3D"/>
<path d="M159.284 110.605H156.136C156.136 111.119 156.136 111.598 156.136 112.077C156.136 112.769 156.136 113.457 156.136 114.15C156.136 115.321 155.892 115.525 154.71 115.265C154.583 115.239 154.43 115 154.42 114.852C154.384 114.287 154.405 113.717 154.405 113.146C154.405 110.584 154.405 108.023 154.405 105.466V104.784H156.126V109.108H159.248V104.784H160.919V115.244H159.279V110.605H159.284Z" fill="#3D3D3D"/>
<path d="M113.188 107.106C112.709 107.275 112.256 107.432 111.792 107.59C111.64 107.29 111.528 107.025 111.38 106.791C110.937 106.073 110.096 105.792 109.307 106.093C108.808 106.281 108.436 106.668 108.472 107.183C108.497 107.58 108.711 108.059 109.001 108.324C109.363 108.65 109.883 108.802 110.341 109.011C110.748 109.195 111.176 109.332 111.578 109.526C113.096 110.259 113.692 111.384 113.422 112.979C113.203 114.252 112.062 115.24 110.575 115.433C108.421 115.713 106.771 114.613 106.374 112.556C106.837 112.418 107.311 112.281 107.825 112.133C107.922 112.388 107.988 112.591 108.075 112.79C108.518 113.819 109.572 114.298 110.641 113.961C111.268 113.768 111.634 113.335 111.721 112.693C111.803 112.087 111.543 111.588 111.013 111.323C110.219 110.921 109.378 110.605 108.569 110.239C107.733 109.862 107.127 109.256 106.878 108.354C106.419 106.689 107.28 105.192 108.951 104.723C110.952 104.163 112.628 105.079 113.183 107.112L113.188 107.106Z" fill="#3D3D3D"/>
<path d="M128.711 104.769H130.275C130.29 105.018 130.31 105.247 130.31 105.482C130.331 107.758 130.331 110.03 130.381 112.306C130.412 113.579 131.094 114.134 132.363 114.033C133.116 113.971 133.57 113.61 133.728 112.871C133.814 112.479 133.845 112.067 133.845 111.664C133.855 109.393 133.85 107.116 133.85 104.799H135.296C135.316 104.845 135.367 104.916 135.367 104.988C135.352 107.565 135.373 110.147 135.291 112.724C135.24 114.292 134.354 115.189 132.806 115.397C132.23 115.474 131.619 115.453 131.049 115.352C129.577 115.092 128.793 114.262 128.747 112.79C128.665 110.192 128.675 107.59 128.65 104.993C128.65 104.937 128.68 104.881 128.716 104.769H128.711Z" fill="#3D3D3D"/>
<path d="M74.6908 104.754C74.1816 104.754 73.713 104.774 73.2496 104.743C72.8778 104.723 72.7199 104.845 72.618 105.212C72.0578 107.224 71.4569 109.225 70.8763 111.227C70.4943 112.546 70.1225 113.865 69.7151 115.286C70.1276 115.286 70.4688 115.27 70.7999 115.291C71.1818 115.316 71.3957 115.214 71.467 114.792C71.5689 114.196 71.737 113.605 71.9152 113.024C71.9611 112.872 72.1444 112.653 72.2717 112.653C73.2037 112.617 74.1408 112.632 75.0881 112.632C75.2867 113.411 75.4548 114.14 75.6687 114.858C75.7196 115.026 75.9182 115.245 76.071 115.265C76.509 115.321 76.9521 115.286 77.5021 115.286C76.5548 111.726 75.6279 108.252 74.6908 104.754ZM72.3481 111.232C72.7352 109.694 73.112 108.201 73.4838 106.704C73.5297 106.704 73.5806 106.704 73.6264 106.714C73.9931 108.196 74.3547 109.678 74.7418 111.232H72.3481Z" fill="#3D3D3D"/>
<path d="M91.5431 105.085C91.5074 104.947 91.2884 104.779 91.1407 104.769C90.6162 104.728 90.0916 104.753 89.5314 104.753C88.5179 108.252 87.5146 111.731 86.4858 115.286C86.9238 115.286 87.2702 115.255 87.6063 115.296C88.029 115.342 88.1818 115.138 88.2531 114.771C88.3702 114.196 88.5281 113.625 88.6503 113.055C88.7165 112.749 88.8489 112.612 89.1851 112.622C89.9388 112.647 90.6875 112.642 91.4412 112.622C91.7621 112.612 91.9149 112.714 91.9811 113.04C92.1084 113.656 92.2714 114.262 92.4496 114.868C92.4904 115.016 92.6279 115.245 92.7348 115.255C93.2237 115.296 93.7228 115.275 94.278 115.275C93.3511 111.802 92.4547 108.441 91.5431 105.079V105.085ZM89.1291 111.247C89.5059 109.714 89.8777 108.212 90.2444 106.709C90.2902 106.709 90.3412 106.699 90.387 106.689C90.7588 108.186 91.1306 109.683 91.5176 111.247H89.1291Z" fill="#3D3D3D"/>
<path d="M152.78 111.985C152.673 112.423 152.607 112.764 152.505 113.09C152.062 114.511 151.115 115.326 149.786 115.438C148.253 115.566 146.954 115.102 146.287 113.656C145.202 111.308 145.217 108.879 146.236 106.521C146.877 105.033 148.151 104.463 149.908 104.626C151.212 104.748 152.123 105.599 152.556 107.122C152.643 107.427 152.699 107.748 152.78 108.135C152.24 108.222 151.756 108.303 151.222 108.39C151.125 107.977 151.059 107.6 150.942 107.239C150.697 106.475 150.162 106.011 149.46 105.991C148.716 105.971 148.156 106.327 147.876 107.01C147.677 107.493 147.468 108.013 147.463 108.522C147.453 109.811 147.514 111.104 147.631 112.388C147.667 112.78 147.927 113.197 148.186 113.513C148.91 114.379 150.285 114.19 150.763 113.167C150.957 112.749 151.059 112.291 151.227 111.797C151.721 111.858 152.215 111.919 152.78 111.99V111.985Z" fill="#3D3D3D"/>
<path d="M48.0347 86.21V93.1974H41.2815C43.8687 91.1806 46.1146 88.9601 48.0347 86.21Z" fill="#3D3D3D"/>
<path d="M87.3567 67.3714C87.2396 67.8502 87.1886 68.2984 87.0257 68.7058C86.7965 69.2762 86.333 69.5818 85.7015 69.6072C85.0751 69.6327 84.5658 69.3882 84.2908 68.8331C83.8273 67.8909 83.8273 66.9131 84.2806 65.9658C84.5352 65.4311 85.0089 65.1611 85.6098 65.1611C86.2363 65.1611 86.7354 65.426 86.9747 66.0015C87.1581 66.4394 87.2345 66.9284 87.3567 67.3714Z" fill="#3D3D3D"/>
<path d="M118.153 110.417H114.858V109.174C115.862 109.174 116.885 109.169 117.904 109.184C117.991 109.184 118.133 109.358 118.143 109.459C118.174 109.77 118.153 110.086 118.153 110.412V110.417Z" fill="#3D3D3D"/>
</g>
<defs>
<clipPath id="clip0_741_607">
<rect width="142" height="51.4688" fill="white" transform="translate(19 64)"/>
</clipPath>
</defs>
</svg>
