<svg width="180" height="180" viewBox="0 0 180 180" fill="none" xmlns="http://www.w3.org/2000/svg">
<g clip-path="url(#clip0_741_2571)">
<path d="M160.687 104.563C160.574 104.343 160.485 104.11 160.361 103.897C159.91 103.111 159.155 103.037 158.358 103.04C154.851 103.051 151.343 103.059 147.835 103.06C132.602 103.061 117.369 103.061 102.135 103.06C101.354 103.06 101.238 102.942 101.238 102.16V74.4974C101.238 74.2569 101.242 74.0164 101.232 73.7758C101.197 72.928 100.989 72.726 100.145 72.7236C99.3428 72.72 98.5407 72.7428 97.7398 72.7164C96.8764 72.6887 96.5901 72.9292 96.5986 73.8757C96.6286 77.4834 96.6527 81.0923 96.5901 84.7C96.5649 86.1167 96.3629 87.5393 96.1332 88.9415C95.9624 89.9889 95.4453 90.9077 94.7478 91.7363C93.9349 92.7044 91.8388 92.6743 91.1292 91.3948C90.3752 90.0322 89.875 88.6204 89.8918 87.0414C89.9098 85.3374 89.893 83.6333 89.8918 81.9293C89.8906 79.2031 89.893 76.4768 89.8858 73.7506C89.8846 73.0507 89.5563 72.7308 88.8732 72.7272C87.9509 72.7236 87.0285 72.7224 86.1073 72.7284C85.3834 72.7332 85.1152 72.9906 85.1152 73.6893C85.1176 79.001 85.1272 84.3128 85.1128 89.6246C85.1128 89.9372 85.0118 90.3221 84.8145 90.5469C84.2169 91.2252 83.6071 91.9179 82.8916 92.4578C82.2819 92.9172 81.5339 93.4211 80.8196 93.4656C79.5268 93.5462 78.2052 93.3537 76.91 93.1734C75.6521 92.9978 74.4279 92.5107 73.0101 92.9052C73.146 92.613 73.2193 92.4037 73.3335 92.2197C73.7929 91.4886 74.2812 90.7754 74.7309 90.0383C75.3214 89.0702 75.8686 88.0732 76.4675 87.11C77.1914 85.9483 77.9659 84.8179 78.6886 83.6562C79.5172 82.3225 80.3289 80.9781 81.1178 79.6216C81.5026 78.9601 81.7973 78.2578 81.7564 77.4557C81.7263 76.8556 81.7877 76.2483 81.7191 75.6543C81.6662 75.1949 81.5351 74.7223 81.3331 74.3074C80.7943 73.1926 79.783 72.7765 78.6285 72.7633C76.0634 72.7332 73.4983 72.7573 70.932 72.7813C70.2489 72.7873 69.6994 72.6226 69.1835 72.1223C68.8804 71.8301 68.3585 71.6509 67.9256 71.6329C67.0453 71.5944 65.7874 72.8583 65.7249 73.7434C65.6539 74.7475 65.583 75.7541 65.7225 76.7582C65.7453 76.923 65.8127 77.0889 65.8872 77.2393C66.628 78.7341 67.8462 79.4039 69.5009 79.381C71.1833 79.3582 72.8682 79.3786 74.5518 79.3858C74.779 79.3871 75.0051 79.4243 75.3839 79.4592C74.927 80.1868 74.5265 80.7905 74.1597 81.4134C73.455 82.6124 72.7948 83.8378 72.0708 85.0247C71.1088 86.6013 70.1022 88.149 69.1197 89.7124C68.0939 91.3455 66.7386 92.3412 64.6919 92.1957C64.0617 92.1512 63.5121 91.9684 63.2247 91.4765C62.8423 90.8211 62.5284 90.0864 62.3757 89.3468C62.2182 88.5928 62.2687 87.7918 62.2675 87.0102C62.259 82.8012 62.2639 78.5909 62.2614 74.3819C62.2614 74.1017 62.2735 73.8143 62.2146 73.5437C62.1171 73.0856 61.8598 72.7344 61.3427 72.726C60.3217 72.7104 59.2983 72.7092 58.2773 72.7284C57.8264 72.7356 57.5341 72.9605 57.5413 73.4608C57.5474 73.8588 57.5425 74.2569 57.5425 74.8473C57.1878 74.6176 56.9268 74.5058 56.7428 74.3194C56.2919 73.86 55.9034 73.3489 55.2745 73.088C54.494 72.7621 53.7508 72.3809 52.8561 72.4073C52.054 72.4302 51.3469 72.6418 50.6097 72.9557C49.8292 73.2876 49.1293 73.6796 48.5208 74.2593C47.1463 75.5677 46.1987 77.1406 45.6948 78.9589C45.2979 80.3924 44.8109 81.8355 44.6882 83.3014C44.5523 84.9381 44.7832 86.6061 44.8518 88.2596C44.8602 88.4785 44.942 88.7515 44.8434 88.909C44.4646 89.5199 44.1314 90.2283 43.5879 90.6492C42.6655 91.3611 41.8321 92.162 40.585 92.5095C39.2574 92.8811 37.9454 93.1421 36.5901 93.2118C36.0249 93.2419 35.4476 93.0844 34.8812 92.9858C33.8987 92.8162 32.9198 92.625 31.9373 92.4422C31.9373 87.4792 31.9385 82.6484 31.9349 77.8189C31.9349 77.3908 32.2416 77.3222 32.553 77.2561C33.1315 77.1346 33.74 77.0949 34.2824 76.8857C35.1855 76.5357 36.1475 76.2123 36.904 75.6386C38.234 74.6309 39.4883 73.5305 40.2363 71.9335C40.7883 70.755 41.2789 69.562 41.4473 68.2921C41.5916 67.1881 41.5351 66.0481 41.4665 64.9309C41.4293 64.3164 41.2116 63.7067 41.024 63.1102C40.8436 62.539 40.5478 62.0026 40.3926 61.4266C40.0415 60.123 39.1492 59.1922 38.1835 58.3793C37.5678 57.8598 36.7428 57.5531 35.966 57.2741C35.3995 57.0709 34.7538 56.9699 34.1549 57.0071C33.5813 57.0432 33.0269 57.3366 32.4556 57.4846C30.4774 57.9981 29.4552 59.5398 28.5677 61.1741C28.1624 61.9221 27.9099 62.7699 27.6862 63.5985C27.3748 64.7481 27.0789 65.9134 26.9202 67.0907C26.7951 68.0167 26.8889 68.9716 26.8853 69.9144C26.8841 70.3461 26.8853 70.779 26.8853 71.2793C26.5245 71.1109 26.2768 71.0316 26.07 70.8921C25.1873 70.2932 24.2649 69.7376 23.4544 69.0497C22.6775 68.3907 22.0041 67.6054 21.321 66.8442C20.9049 66.3812 20.5874 65.8304 20.1605 65.3795C19.9898 65.1991 19.6362 65.1005 19.3849 65.1293C19.2634 65.1426 19.1023 65.531 19.0962 65.7535C19.0493 67.4166 19.0638 69.0798 19.0024 70.7417C18.9688 71.6557 19.3235 72.3941 19.9681 72.9413C21.2044 73.9923 22.4538 75.047 23.8055 75.9345C24.699 76.5201 25.791 76.8003 26.7723 77.2621C26.9551 77.3487 27.1439 77.6445 27.1511 77.849C27.2305 80.3479 27.3146 82.8481 27.3182 85.3482C27.3206 87.0294 27.1944 88.7106 27.1306 90.3918C27.1174 90.7237 27.0693 91.034 26.6376 90.9558C26.159 90.8692 25.6839 90.7478 25.2185 90.6059C24.0533 90.2487 22.977 90.4832 22.0798 91.236C21.0216 92.1235 20.5213 94.691 21.06 95.9321C21.2825 96.4444 21.4208 97.0204 21.7491 97.4521C22.419 98.3324 23.2139 98.9854 24.4056 99.2488C26.076 99.618 27.5936 99.4099 29.0018 98.5609C29.6067 98.1965 30.1383 98.2723 30.7095 98.3853C31.8038 98.6042 32.8826 99.0576 33.9757 99.0852C36.7212 99.1562 39.5148 99.5951 42.1845 98.5717C42.9373 98.2831 43.6757 97.8694 44.307 97.3716C45.0177 96.8111 45.5878 96.0776 46.2492 95.4498C46.3598 95.344 46.7807 95.356 46.7855 95.3753C46.9719 96.2002 47.578 96.7703 48.1396 97.2802C48.8359 97.9139 49.6717 98.4286 50.5183 98.8519C51.5068 99.345 52.6192 99.1778 53.6847 99.1273C54.108 99.1069 54.5638 99.0083 54.9366 98.8146C56.2414 98.1352 57.3862 97.2573 58.1631 95.9633C58.2076 95.89 58.6044 95.9044 58.6297 95.9633C59.1239 97.1419 60.0595 97.9007 61.1022 98.5308C61.5567 98.805 62.0859 99.0576 62.603 99.1117C64.0653 99.2632 65.5096 99.2464 66.6953 98.1184C66.9719 97.855 67.3135 97.6938 67.7692 98.1532C68.8431 99.2355 70.1756 99.4448 71.6295 98.9301C72.0853 98.7689 72.5759 98.6836 73.0582 98.6174C74.4784 98.4202 75.8301 98.7425 77.2094 99.0672C78.6573 99.4087 80.163 99.6637 81.6602 99.4099C82.3733 99.2897 83.0937 99.0275 83.731 98.6812C84.6245 98.1941 85.4904 97.653 86.082 96.7426C86.4789 96.1317 86.8084 96.2315 87.1319 96.9001C87.2293 97.1034 87.3748 97.2958 87.5372 97.4521C88.7097 98.5777 90.0265 99.3317 91.7402 99.2307C92.7864 99.1682 93.8447 99.2307 94.7574 98.603C95.289 98.2386 95.7868 97.8237 96.3063 97.4269C96.3725 97.5339 96.411 97.5664 96.411 97.5988C96.4182 99.262 96.4386 100.926 96.4037 102.588C96.4001 102.752 96.0706 103.02 95.8662 103.048C94.8885 103.179 93.9012 103.251 92.9163 103.334C91.7378 103.433 90.7973 104.053 89.8858 104.722C87.637 106.369 86.8325 108.784 86.5907 111.389C86.4548 112.858 86.4452 114.354 86.7447 115.855C86.984 117.049 87.1283 118.272 87.7019 119.34C88.1012 120.081 88.4475 120.86 89.1258 121.481C89.8918 122.181 90.7096 122.727 91.6764 122.983C92.4497 123.187 93.2794 123.246 94.084 123.238C94.571 123.232 95.0484 122.936 95.5439 122.835C96.9052 122.558 97.8829 121.694 98.7007 120.677C99.4811 119.707 100.239 118.684 100.426 117.379C100.474 117.05 100.585 116.731 100.652 116.405C100.836 115.5 101.105 114.6 101.171 113.687C101.266 112.37 101.226 111.042 101.214 109.721C101.21 109.374 101.358 109.243 101.654 109.217C101.892 109.196 102.134 109.202 102.375 109.202C112.277 109.201 122.177 109.198 132.079 109.202C140.899 109.207 149.717 109.235 158.536 109.207C159.098 109.206 159.793 108.969 160.191 108.593C161.06 107.77 161.236 105.637 160.687 104.562V104.563ZM31.6235 71.4092C31.7209 70.0719 31.413 68.7262 31.8147 67.3902C31.8988 67.11 31.858 66.7949 31.8952 66.4979C32.0528 65.2352 32.4027 64.0831 33.5295 63.2978C34.4206 62.6773 35.8505 62.9611 36.346 63.9316C36.7356 64.694 37.0543 65.5009 36.934 66.3728C36.6899 68.149 35.9215 69.6221 34.2559 70.4676C33.4658 70.8692 32.6324 71.1891 31.8195 71.5463C31.7533 71.5006 31.6884 71.4549 31.6235 71.4092ZM56.8835 89.3492C56.6057 90.4676 56.0393 91.4525 54.9594 92.0706C53.7172 92.7825 51.3962 92.0995 50.7648 90.7863C49.7703 88.7202 49.3987 86.564 49.8605 84.2972C50.0361 83.4361 50.1684 82.5534 50.4654 81.7333C51.1436 79.8512 52.2693 79.2367 54.2174 79.4881C55.2035 79.6155 55.9467 80.2697 56.3484 81.2065C56.999 82.7278 57.4163 84.3008 57.2299 85.9856C57.278 85.9892 57.3273 85.9928 57.3766 85.9964C57.2203 87.116 57.1541 88.2584 56.8835 89.3492ZM96.5312 111.071C96.2967 112.275 96.613 113.58 95.865 114.693C95.6197 115.058 95.4898 115.498 95.2469 115.865C94.2295 117.4 92.5459 117.372 91.5381 115.817C91.0992 115.138 90.9645 114.511 90.9609 112.945C90.9332 112.2 90.9296 111.235 91.5598 110.489C92.1442 109.798 92.7852 109.11 93.8735 109.227C94.5265 109.296 95.194 109.241 95.8542 109.221C96.221 109.21 96.3953 109.313 96.3977 109.724C96.4013 110.175 96.6142 110.648 96.5312 111.071Z" fill="#3D3D3D"/>
<path d="M123.344 72.3724C123.335 70.3184 123.162 68.2644 123.121 66.2092C123.09 64.6338 122.593 63.2424 121.794 61.8991C120.775 60.1903 119.251 59.3665 117.354 59.2342C115.918 59.1344 114.47 59.2126 113.027 59.2066C112.586 59.2054 112.309 59.4122 112.088 59.791C111.963 60.0039 111.727 60.2324 111.506 60.2745C111.382 60.2997 111.134 59.987 111.035 59.7814C110.842 59.3761 110.577 59.1801 110.119 59.2006C109.579 59.2258 109.037 59.2306 108.497 59.203C108.052 59.1801 107.892 59.3485 107.898 59.7898C107.914 61.0525 107.895 62.3152 107.903 63.5779C107.906 64.1672 107.661 64.9152 108.683 64.9212C108.693 64.9212 108.699 64.9609 108.713 64.9693C109.527 65.4419 109.847 66.1707 109.847 67.087C109.844 75.2225 109.842 83.3591 109.848 91.4945C109.848 92.6586 109.234 93.3092 108.237 93.5641C108.107 93.5978 107.922 93.7818 107.921 93.8972C107.9 95.6157 107.906 97.3354 107.906 99.1573C108.559 99.1573 109.123 99.108 109.675 99.1693C110.447 99.2547 110.966 98.995 111.252 98.2686C111.389 97.9199 111.609 97.9475 111.823 98.188C112.016 98.4057 112.168 98.6582 112.363 98.8735C112.469 98.9901 112.631 99.1441 112.76 99.1381C114.701 99.0358 116.657 99.4207 118.588 98.9084C119.891 98.562 120.904 97.8044 121.635 96.7317C122.839 94.9663 123.3 92.9195 123.322 90.8283C123.383 84.6771 123.371 78.5247 123.344 72.3724ZM119.095 89.3659C119.087 90.5481 119.015 91.7747 118.312 92.8426C117.308 94.3723 115.574 93.9201 115.048 92.9244C114.679 92.2233 114.415 91.3778 114.401 90.5914C114.336 86.7479 114.373 82.9021 114.373 79.0563H114.376C114.376 75.2104 114.34 71.3646 114.409 67.5212C114.422 66.7888 114.707 65.9711 115.112 65.3553C115.843 64.2478 118.056 64.6506 118.584 65.9169C119.117 67.1965 119.099 68.559 119.105 69.8987C119.13 76.3878 119.143 82.8769 119.095 89.3659Z" fill="#3D3D3D"/>
<path d="M139.036 69.0848C139.031 67.869 138.879 66.6532 138.792 65.4373C138.786 65.3604 138.772 65.2846 138.749 65.2113C138.502 64.4284 138.2 63.6587 138.016 62.8614C137.84 62.0906 137.434 61.4652 136.971 60.8688C135.863 59.4389 134.264 58.9759 132.578 58.9242C131.643 58.8965 130.687 59.1864 129.756 59.404C128.613 59.6722 127.868 60.5104 127.271 61.4376C126.671 62.3696 126.164 63.3425 126.105 64.5246C126.05 65.6262 125.667 66.7157 125.65 67.8148C125.59 71.6017 125.626 75.3899 125.626 79.1768H125.614C125.614 82.2433 125.632 85.3087 125.608 88.3753C125.591 90.2886 125.707 92.1718 126.119 94.0574C126.326 95.0038 126.676 95.8336 127.146 96.6381C128.213 98.4625 129.888 99.285 131.934 99.3716C132.616 99.4005 133.305 99.178 133.994 99.1347C135.174 99.0601 135.978 98.3049 136.739 97.5701C137.728 96.6141 138.168 95.2853 138.503 94.0093C138.853 92.6793 139.017 91.265 139.027 89.8845C139.076 82.9516 139.06 76.0176 139.036 69.0848ZM134.602 90.4293C134.599 91.3781 134.356 92.292 133.857 93.1002C133.394 93.8494 132.604 93.8963 131.841 93.788C131.169 93.6942 130.589 93.3094 130.413 92.6348C130.173 91.7268 129.924 90.7852 129.919 89.858C129.88 82.6666 129.879 75.4764 129.918 68.2862C129.924 67.3446 130.006 66.3742 130.591 65.5083C131.052 64.8264 131.721 64.6677 132.373 64.7206C133.763 64.8349 134.115 65.2293 134.373 66.6796C134.5 67.3963 134.595 68.1299 134.6 68.8575C134.623 72.3028 134.61 75.7482 134.61 79.1924C134.61 82.9384 134.618 86.6844 134.602 90.4293Z" fill="#3D3D3D"/>
<path d="M148.138 82.2684V78.0594C149.121 78.0594 150.083 78.0137 151.035 78.0895C151.296 78.1099 151.536 78.4899 151.77 78.7196C151.918 78.8639 152.041 79.0359 152.195 79.2187C152.328 79.1033 152.47 79.0371 152.522 78.9277C152.92 78.0787 153.631 77.9825 154.457 78.0426C155.136 78.0919 155.823 78.0522 156.556 78.0522V82.248C155.861 82.3322 155.17 82.4356 154.846 83.1199C154.617 83.6057 154.371 84.1396 154.357 84.6592C154.296 86.813 154.407 88.974 154.279 91.1218C154.197 92.4843 154.067 93.8504 153.56 95.1889C153.026 96.5983 152.24 97.7323 151.103 98.6595C150.381 99.2488 149.47 99.3919 148.604 99.5097C147.351 99.6805 146.084 99.5218 144.932 98.9674C144.011 98.5248 143.278 97.8322 142.709 96.9579C141.851 95.6423 141.479 94.1775 141.293 92.6503C141.183 91.7411 141.053 90.8272 141.05 89.9156C141.035 82.2624 141.031 74.6092 141.072 66.9549C141.077 66.1034 141.368 65.2472 141.566 64.403C141.714 63.7764 141.913 63.1595 142.114 62.5474C142.519 61.3184 143.338 60.3888 144.402 59.7142C145.709 58.8868 147.204 58.7473 148.7 58.8952C149.058 58.9301 149.425 59.3462 149.698 59.6648C149.987 60.0004 150.124 60.0942 150.374 59.6408C150.666 59.1105 151.108 58.7966 151.771 58.8423C152.373 58.8844 152.979 58.8531 153.584 58.8507C154.066 58.8483 154.306 59.0563 154.305 59.5674C154.297 62.9106 154.306 66.2538 154.287 69.5969C154.287 69.7689 154.082 70.084 153.965 70.0876C152.785 70.1248 151.603 70.1104 150.355 70.1104C150.355 69.6835 150.397 69.3203 150.346 68.9704C150.202 67.9542 150.156 66.8959 149.823 65.9411C149.315 64.4775 147.675 64.4427 146.594 65.0428C146.273 65.2207 145.975 65.6477 145.893 66.012C145.696 66.8803 145.536 67.7786 145.532 68.6649C145.505 75.7144 145.516 82.7639 145.519 89.8122C145.519 90.8452 145.531 91.8746 146.05 92.827C146.635 93.9033 147.989 94.2377 148.983 93.5017C149.659 93.0002 149.974 92.346 150.148 91.4778C150.475 89.8519 150.316 88.2368 150.332 86.6194C150.342 85.6465 150.237 84.6592 150.054 83.7019C149.87 82.7362 149.139 82.2997 148.136 82.2684H148.138Z" fill="#3D3D3D"/>
<path d="M139.557 118.602C139.476 118.358 139.369 117.949 139.485 117.84C140.281 117.095 139.984 116.165 139.941 115.308C139.918 114.85 139.663 114.364 139.09 114.298C138.381 114.216 137.665 114.157 136.951 114.139C136.22 114.121 136.071 114.292 136.069 115.007C136.068 116.488 136.069 117.969 136.068 119.451C136.068 120.677 136.126 120.723 137.446 120.475C137.446 119.957 137.424 119.421 137.46 118.888C137.472 118.709 137.629 118.538 137.721 118.364C137.903 118.492 138.149 118.584 138.252 118.759C138.406 119.018 138.473 119.333 138.554 119.631C138.808 120.578 138.819 120.592 139.778 120.566C139.915 120.562 140.052 120.537 140.275 120.513C140.016 119.831 139.765 119.223 139.557 118.602ZM138.58 116.686C138.311 116.881 137.918 116.905 137.46 117.041C137.508 116.403 137.219 115.875 137.788 115.636C137.98 115.556 138.354 115.657 138.514 115.811C138.748 116.034 138.92 116.441 138.58 116.686Z" fill="#3D3D3D"/>
<path d="M134.32 115.676C134.286 115.171 134.128 114.51 133.514 114.379C132.723 114.21 131.899 114.179 131.086 114.133C130.643 114.108 130.393 114.338 130.407 114.833C130.428 115.694 130.413 116.556 130.413 117.419H130.419C130.419 118.3 130.433 119.183 130.411 120.064C130.402 120.438 130.553 120.561 130.902 120.556C131.569 120.545 132.237 120.556 132.904 120.551C133.674 120.547 134.302 119.931 134.327 119.161C134.365 118 134.398 116.833 134.32 115.676ZM132.868 118.966C132.779 119.156 132.255 119.143 131.814 119.251C131.814 118.088 131.793 117.11 131.83 116.133C131.832 116.117 131.833 116.101 131.836 116.083C131.84 116.062 131.845 116.041 131.852 116.019C131.858 115.996 131.865 115.973 131.875 115.95C131.881 115.936 131.887 115.921 131.893 115.908C131.899 115.894 131.906 115.879 131.913 115.865C131.919 115.849 131.928 115.832 131.937 115.818C131.948 115.799 131.959 115.781 131.97 115.763C131.982 115.745 131.993 115.728 132.005 115.712C132.011 115.704 132.017 115.697 132.023 115.688C132.042 115.663 132.061 115.641 132.079 115.624C132.096 115.608 132.113 115.596 132.129 115.586C132.137 115.58 132.145 115.576 132.153 115.574C132.155 115.574 132.157 115.572 132.16 115.572C132.167 115.569 132.174 115.568 132.18 115.568C132.429 115.57 132.822 115.707 132.901 115.896C133.322 116.91 133.332 117.971 132.868 118.966Z" fill="#3D3D3D"/>
<path d="M147.406 116.737L147.584 116.699C147.584 116.055 147.607 115.409 147.577 114.766C147.553 114.253 147.823 114.144 148.266 114.147C148.518 114.15 148.724 114.352 148.724 114.606C148.724 116.565 148.724 118.524 148.724 120.468C147.683 120.769 147.443 120.62 147.028 119.5C146.824 118.948 146.593 118.407 146.374 117.86L146.213 117.891V120.546H145.039C145.039 119.974 145.039 119.421 145.039 118.868C145.039 117.527 145.026 116.185 145.055 114.844C145.06 114.615 145.201 114.232 145.347 114.194C145.763 114.089 146.231 114.066 146.461 114.601C146.768 115.316 147.09 116.025 147.406 116.737Z" fill="#3D3D3D"/>
<path d="M111.099 120.562C110.738 120.562 110.375 120.531 110.019 120.57C109.535 120.622 109.346 120.343 109.34 119.955C109.317 118.234 109.304 116.512 109.348 114.791C109.354 114.573 109.707 114.209 109.93 114.183C110.681 114.092 111.448 114.091 112.207 114.123C112.743 114.145 112.857 114.558 112.839 115.028C112.821 115.496 112.589 115.712 112.124 115.705C111.783 115.7 111.443 115.718 111.103 115.717C110.787 115.717 110.631 115.841 110.63 116.181C110.63 116.541 110.826 116.624 111.123 116.624C111.343 116.624 111.563 116.627 111.783 116.63C112.537 116.641 112.969 117.407 112.559 118.045C112.486 118.161 112.263 118.218 112.103 118.234C111.765 118.265 111.415 118.206 111.087 118.273C110.919 118.306 110.707 118.507 110.658 118.673C110.565 118.991 110.778 119.148 111.097 119.149C111.497 119.152 111.898 119.144 112.298 119.154C112.892 119.169 112.83 119.601 112.859 120.007C112.889 120.442 112.695 120.576 112.298 120.561C111.899 120.547 111.497 120.557 111.097 120.557V120.56L111.099 120.562Z" fill="#3D3D3D"/>
<path d="M118.814 119.879C118.547 118.641 118.257 117.409 117.991 116.17C117.884 115.673 117.826 115.167 117.731 114.668C117.711 114.562 117.635 114.395 117.563 114.383C117.088 114.3 116.584 114.143 116.138 114.238C115.879 114.293 115.614 114.749 115.527 115.071C115.35 115.732 115.321 116.431 115.177 117.103C115.054 117.674 114.831 118.224 114.697 118.794C114.565 119.359 114.489 119.939 114.383 120.545H115.716C115.739 120.311 115.718 120.117 115.782 119.957C115.922 119.611 115.966 119.174 116.519 119.18C117.119 119.187 117.395 119.363 117.432 120.007C117.46 120.495 117.674 120.626 118.102 120.599C118.335 120.584 118.57 120.596 118.857 120.596C118.841 120.305 118.858 120.084 118.814 119.879ZM116.595 117.795C116.519 117.807 116.354 117.693 116.35 117.625C116.323 117.29 116.338 116.952 116.338 116.614C116.463 116.607 116.588 116.599 116.713 116.593C116.774 116.928 116.851 117.26 116.88 117.598C116.886 117.659 116.703 117.779 116.595 117.795Z" fill="#3D3D3D"/>
<path d="M151.866 116.277L152.097 116.336C152.406 115.781 152.768 115.246 153.003 114.662C153.156 114.285 154.014 114.023 154.339 114.234C154.47 114.32 154.487 114.714 154.407 114.914C154.26 115.288 154.041 115.651 153.783 115.967C153.275 116.592 153.113 117.166 153.576 117.93C154.059 118.723 154.365 119.614 154.75 120.466C154.011 120.71 153.278 120.644 153.093 120.281C152.927 119.955 152.868 119.58 152.715 119.247C152.569 118.928 152.534 118.395 151.865 118.72V120.545H150.663C150.663 119.914 150.663 119.297 150.663 118.679C150.663 117.377 150.672 116.074 150.658 114.772C150.653 114.35 150.794 114.152 151.269 114.155C151.74 114.157 151.893 114.342 151.871 114.773C151.845 115.273 151.865 115.775 151.865 116.276L151.866 116.277Z" fill="#3D3D3D"/>
<path d="M122.317 120.545H121.121C121.103 120.324 121.073 120.095 121.07 119.868C121.052 118.688 121.037 117.509 121.028 116.329C121.025 115.944 120.885 115.726 120.46 115.741C119.902 115.76 119.718 115.459 119.717 114.921C119.714 114.362 119.992 114.169 120.484 114.166C121.323 114.159 122.164 114.161 123.003 114.163C123.53 114.166 123.661 114.47 123.652 114.948C123.642 115.404 123.554 115.767 123.017 115.732C122.425 115.694 122.281 115.925 122.302 116.502C122.352 117.833 122.318 119.168 122.318 120.544L122.317 120.545Z" fill="#3D3D3D"/>
<path d="M141.885 120.569C141.885 119.771 141.885 119.035 141.885 118.299C141.885 117.117 141.898 115.933 141.879 114.751C141.872 114.314 142.033 114.126 142.469 114.132C142.893 114.138 143.264 114.233 143.269 114.728C143.285 116.532 143.267 118.336 143.275 120.14C143.276 120.46 143.13 120.569 142.845 120.569C142.549 120.569 142.253 120.569 141.886 120.569H141.885Z" fill="#3D3D3D"/>
<path d="M125.933 120.545H124.74C124.74 120.027 124.721 119.536 124.746 119.047C124.765 118.674 125.049 118.649 125.352 118.647C125.674 118.646 125.915 118.732 125.928 119.09C125.945 119.561 125.933 120.034 125.933 120.545Z" fill="#3D3D3D"/>
<path d="M157.456 120.545H156.283C156.283 120.052 156.22 119.586 156.311 119.15C156.353 118.948 156.682 118.721 156.912 118.677C157.063 118.648 157.405 118.909 157.43 119.073C157.5 119.552 157.455 120.047 157.455 120.545H157.456Z" fill="#3D3D3D"/>
<path d="M132.079 115.624C132.096 115.608 132.113 115.594 132.129 115.586C132.113 115.596 132.096 115.608 132.079 115.624Z" fill="#3D3D3D"/>
</g>
<defs>
<clipPath id="clip0_741_2571">
<rect width="142" height="66.2402" fill="white" transform="translate(19 57)"/>
</clipPath>
</defs>
</svg>
