<svg width="180" height="180" viewBox="0 0 180 180" fill="none" xmlns="http://www.w3.org/2000/svg">
<path d="M106.473 141.598C105.98 141.598 105.289 141.598 104.928 141.508V124.125C105.289 124.039 106.02 123.955 107.169 123.955C111.581 123.955 114.808 126.63 114.808 132.319C114.808 138.875 111.254 141.684 106.473 141.598ZM84.8395 141.598H84.7613C81.2055 141.598 79.0006 137.975 79.0387 132.757C79.0387 127.706 81.2055 123.909 84.7613 123.909C88.3172 123.909 90.4799 127.706 90.4799 132.711C90.4799 137.973 88.3933 141.598 84.8395 141.598ZM59.696 141.598H59.6118C56.0599 141.598 53.8551 137.975 53.8951 132.757C53.8951 127.706 56.0599 123.909 59.6118 123.909C63.1636 123.909 65.3364 127.706 65.3364 132.711C65.3364 137.973 63.2478 141.598 59.696 141.598ZM132.697 129.685C129.221 128.312 127.748 127.748 127.748 126.282C127.748 124.99 128.979 124.121 131.224 124.121C133.958 124.121 136.002 124.936 137.187 125.504L138.74 119.244C136.939 118.426 134.569 117.78 131.308 117.78C125.64 117.78 121.853 120.422 120.649 124.185C119.841 122.851 118.817 121.753 117.624 120.883C114.924 118.904 111.581 117.998 106.309 117.998C103.044 117.998 99.8987 118.21 97.5275 118.642V127.182C95.9139 121.803 91.7026 117.738 84.9257 117.738C78.6578 117.738 74.1719 121.433 72.2637 126.788C70.566 121.603 66.3887 117.738 59.7821 117.738C52.3417 117.738 47.4068 122.939 46.3244 129.947H37.0439V124.597H47.3367V118.206H29.6516V147.291H37.0439V136.244H46.3846C47.507 142.762 51.9949 147.761 59.3271 147.761H59.3732C65.7052 147.761 70.2733 144.422 72.1675 138.805C73.9214 144.026 78.1387 147.761 84.4767 147.761H84.5168C91.1193 147.761 95.7937 144.118 97.5295 138.063V147.111C98.9547 147.373 101.334 147.635 104.88 147.635C110.274 147.635 114.808 146.553 117.828 144.048C120.428 141.9 122.511 138.177 122.599 132.437C123.944 133.758 125.796 134.804 127.999 135.642C131.108 136.758 132.328 137.537 132.328 138.959C132.328 140.381 131.108 141.338 128.568 141.338C127.071 141.338 125.603 141.068 124.301 140.685C123.3 142.876 121.929 144.626 120.36 145.911C120.31 145.955 120.254 145.993 120.202 146.031C121.805 146.869 124.922 147.717 128.121 147.717C136.167 147.717 139.841 143.448 139.841 138.443C139.841 134.384 137.64 131.627 132.699 129.679" fill="#3D3D3D"/>
<path d="M144.724 113.174C139.602 113.174 136.794 109.285 136.794 104.656C136.794 100.027 139.927 95.9438 144.99 95.9438C150.304 95.9438 153 99.9269 153 104.384C153 109.754 149.815 113.174 144.748 113.174" fill="#3D3D3D"/>
<path d="M118.831 64.3939C109.598 60.6488 106.718 59.0072 106.718 55.0362C106.718 51.5251 109.979 49.1837 115.952 49.1837C123.33 49.1837 128.76 51.5251 131.911 52.9328L136.035 36.093C131.154 33.7516 124.96 32 116.163 32C104.006 32 95.1002 36.6688 90.4359 43.835V33.2797H70.7865V78.0765C70.7865 90.5874 66.9841 96.6718 59.1608 96.6718C51.3375 96.6718 47.5452 89.8895 47.5452 77.9585V33.2797H28V76.3229C28 101.587 38.5333 113.396 58.6236 113.396C78.714 113.396 90.4359 101.113 90.4359 76.7928V69.3447C93.7452 74.2034 99.1691 77.8225 106.337 80.5319C114.589 83.5791 117.846 85.7985 117.846 89.5476C117.846 93.5106 114.679 95.972 107.959 95.972C104.445 95.972 100.246 95.2902 96.2707 94.1405C95.3788 97.4216 94.1982 100.505 92.6788 103.35C91.3038 105.948 89.6301 108.301 87.7299 110.398C94.1661 112.444 101.418 113.412 106.83 113.412C128.217 113.412 137.939 101.703 137.939 88.134C137.939 77.1407 131.968 69.6586 118.833 64.3979" fill="#3D3D3D"/>
<path d="M141.713 121.164H141.859C142.08 121.164 142.18 121.064 142.18 120.944C142.18 120.796 142.058 120.734 141.885 120.734C141.823 120.734 141.763 120.75 141.713 120.75M141.687 122.254H141.012V120.345C141.134 120.331 141.489 120.271 141.92 120.271C142.399 120.271 142.595 120.333 142.741 120.43C142.864 120.516 142.95 120.662 142.95 120.846C142.95 121.03 142.765 121.216 142.483 121.276V121.3C142.717 121.374 142.84 121.532 142.902 121.802C142.964 122.082 143.012 122.196 143.036 122.256H142.286C142.224 122.182 142.188 122.024 142.152 121.876C142.128 121.692 142.03 121.606 141.857 121.606H141.687V122.256V122.254ZM141.908 119.707C141.05 119.707 140.398 120.402 140.398 121.286C140.398 122.17 141.05 122.864 141.92 122.864C142.804 122.878 143.455 122.168 143.455 121.272C143.455 120.377 142.804 119.707 141.92 119.707H141.908ZM141.946 119.133C143.172 119.133 144.155 120.099 144.155 121.272C144.155 122.446 143.172 123.438 141.932 123.438C140.691 123.438 139.687 122.472 139.687 121.272C139.687 120.073 140.693 119.133 141.932 119.133H141.946Z" fill="#3D3D3D"/>
</svg>
