<svg width="180" height="180" viewBox="0 0 180 180" fill="none" xmlns="http://www.w3.org/2000/svg">
<g clip-path="url(#clip0_741_2751)">
<path d="M106.734 82.6594C106.645 81.7017 106.509 80.7711 106.184 79.8716C105.87 79.0031 105.513 78.1074 105.028 77.3126C104.206 75.971 103.183 74.8466 101.992 73.8036C101.337 73.2297 100.383 72.6093 99.6347 72.2061C97.3587 70.977 94.788 70.4962 92.2019 70.4225C91.2868 70.3954 90.3175 70.4264 89.414 70.566C85.5134 71.1941 82.1014 72.8459 79.3136 75.6918C78.8134 76.1959 78.1271 76.9597 77.7588 77.5452C77.0647 78.6619 76.4211 79.8134 75.9286 81.0348C75.6068 81.8297 75.3083 82.9774 75.2113 83.8187C74.9632 85.8737 74.9632 88.0644 75.4246 90.0923C75.634 91.0306 75.9093 92.0077 76.3396 92.8801C77.3322 94.9002 78.5691 96.8272 80.3527 98.2696C81.1747 98.9404 82.0781 99.6228 83.0319 100.08C84.23 100.658 85.3041 101.189 86.6262 101.496C90.3989 102.29 94.3615 102.151 98.0101 100.794C99.6619 100.173 100.693 99.681 102.19 98.7C103.9 97.5794 106.04 95.3538 105.253 93.1127C104.92 92.1473 104.039 90.9686 102.888 91.0849C102.213 91.1547 99.3245 92.8064 98.4754 93.2174C98.1497 93.3686 97.1998 93.6013 96.8469 93.675C96.1916 93.8068 95.4239 93.8494 94.757 93.7874C92.7214 93.609 90.4803 92.4885 89.2357 90.7902C88.7084 90.0729 88.2586 89.1346 88.1966 88.235C88.1888 88.1808 88.3594 87.7698 88.3594 87.7698C88.5765 87.4596 88.7937 87.3083 89.1814 87.3122C93.8226 87.3549 98.4754 87.3665 103.12 87.3394C104.35 87.3394 105.559 86.7772 106.16 85.676C106.308 85.4085 106.571 84.8075 106.626 84.5167C106.715 84.0087 106.785 83.1673 106.734 82.6594ZM95.0827 80.333C95.0129 80.7363 94.7183 81.0387 94.3964 81.2674C94.3073 81.3256 93.1983 81.5776 93.1324 81.5776C92.0468 81.4613 90.5075 81.5311 89.414 81.5815C88.9061 81.5815 88.4641 81.1744 88.1539 80.7983C87.9058 80.4997 87.8941 80.0034 87.9096 79.639C87.9213 79.3986 88.1035 78.6851 88.1966 78.4796C88.5378 77.7274 88.9914 77.045 89.6467 76.5332C90.0228 76.2347 91.0231 75.8547 91.5039 75.8469C91.8955 75.843 92.2949 75.909 92.6671 76.033C93.9001 76.4285 94.7105 77.4832 95.0672 78.7084C95.1564 78.9992 95.1331 80.0345 95.0827 80.333Z" fill="#3D3D3D"/>
<path d="M111.022 68.2902C112.523 68.6469 113.368 68.612 114.97 68.5112C116.315 68.4375 118.099 68.1894 119.386 67.7977C119.998 67.6116 121.123 67.1968 121.708 66.9215C122.278 66.65 122.837 66.2895 123.329 65.8978C123.422 65.8242 124.24 64.8703 124.298 64.7695C124.837 63.7498 125.144 62.9239 124.775 61.7491C124.698 61.5009 124.229 60.7875 124.035 60.5975C122.189 58.8139 119.223 58.8488 116.831 59.1745C115.435 59.3684 112.996 60.0043 111.716 60.5704C110.142 61.2683 107.967 62.509 108.08 64.533C108.196 66.5492 109.072 67.7318 111.019 68.2902H111.022Z" fill="#3D3D3D"/>
<path d="M137.737 101.248C140.436 101.511 143.375 101.922 146.101 101.953C147.074 101.945 148.175 101.841 149.121 101.554C150.688 101.073 152.219 100.375 153.534 99.3593C154.169 98.8669 155.061 97.9906 155.476 97.2966C155.965 96.4746 156.666 95.2183 156.853 94.2761C157.101 92.9888 157.004 91.6318 156.814 90.329C156.771 90.0188 156.271 88.7664 156.1 88.4678C156.027 88.336 155.061 86.9479 154.96 86.8432C153.91 85.7304 152.095 84.3191 150.746 83.5746C149.377 82.8224 144.065 80.5774 143.801 78.9412C143.778 78.79 143.701 78.4023 143.72 78.2472C143.759 77.9525 144.053 77.429 144.24 77.2119C144.391 77.0297 145.209 76.5605 145.399 76.5256C146.415 76.3434 147.431 76.7854 148.187 77.4717C149.245 78.4333 150.288 79.4685 151.44 80.3177C152.382 81.0117 153.758 81.5623 154.926 81.0737C155.918 80.6589 156.961 79.6857 156.903 78.4798C156.845 77.2507 156.535 76.5799 156.166 75.4594C155.817 74.397 154.774 72.8383 154.073 71.9736C153.347 71.078 151.994 70.0543 150.746 70.4847C150.04 70.7251 148.675 71.2486 147.958 71.1788C145.86 70.9733 143.809 70.4188 141.684 70.4304C140.168 70.4382 139.176 70.7949 137.737 71.0663C136.997 71.2059 136.252 71.4812 135.644 71.931C134.038 73.1213 132.565 74.4474 131.696 76.2775C131.603 76.4713 130.995 78.3053 130.971 78.4798C130.824 79.5693 130.7 80.8721 130.948 81.9617C131.584 84.7805 132.805 86.7347 135.182 88.495C137.311 90.0731 139.909 91.0153 141.952 92.6127C142.359 92.9307 142.689 93.5084 142.739 94.0396C142.801 94.7026 142.247 95.4975 141.684 95.7766C140.025 96.5948 138.218 95.5401 137.035 94.3575C135.81 93.1207 134.538 91.8101 133.321 90.5422C133.255 90.4724 132.243 90.0537 132.162 90.0498C131.762 90.0149 131.119 90.0614 130.766 90.2902C129.796 90.9222 129.432 92.2289 129.564 93.3455C129.653 94.1094 129.959 95.4044 130.25 96.1334C130.696 97.2539 131.239 98.3551 131.886 99.3864C131.983 99.5338 132.774 100.491 132.844 100.554C133.247 100.887 133.961 101.438 134.48 101.515C135.291 101.635 136.904 101.228 137.733 101.248H137.737Z" fill="#3D3D3D"/>
<path d="M57.1234 101.562C58.5697 102.326 60.0547 101.147 60.9853 100.081C61.6134 99.3632 62.2803 98.5955 62.7495 97.758C65.5993 92.6554 68.1584 87.4249 70.7601 82.1905C71.3998 80.9032 72.1055 79.6973 72.8538 78.476C73.0632 78.127 74.017 77.1189 74.3156 76.9561C75.2113 76.4598 76.6846 75.9479 77.5687 75.502C78.3713 75.0949 78.8133 74.0636 78.5613 73.1291C78.4294 72.6522 78.0185 71.9543 77.5687 71.7216C74.6413 70.1901 69.6356 70.4499 66.4174 71.0547C66.3399 71.0664 64.9945 71.6751 64.9169 71.7333C64.188 72.2722 63.68 73.1136 63.8351 74.0597C64.0096 75.0949 64.7773 75.7773 65.3589 76.6148C65.5334 76.863 65.6691 77.4795 65.5528 77.7742C64.8743 79.5112 63.5133 82.4774 61.7685 83.3265C61.594 83.4118 61.7258 83.4777 61.5359 83.439C61.3071 83.3847 60.7526 83.1986 60.6092 82.997C60.1749 82.4541 59.2443 81.3879 58.9458 80.7946C58.4572 79.8214 58.0811 78.8094 57.771 77.7742C57.4569 76.7389 59.287 75.5873 59.698 74.5211C60.0974 73.4781 59.5196 72.2916 58.5193 71.7178C58.1315 71.4929 57.0924 71.1051 56.662 71.0237C53.1647 70.3956 49.5045 70.605 45.9722 70.7988C44.9059 70.8531 43.7582 70.9617 42.7191 71.2408C41.4279 71.5859 40.8812 71.7798 39.7025 72.4157C39.6521 72.4389 38.9852 73.2687 38.9464 73.3579C38.8185 73.6448 38.8185 74.459 38.9271 74.7537C39.3846 75.9673 40.9627 76.4055 41.8273 77.2817C42.1608 77.6152 42.723 78.697 42.6609 79.17C42.5446 80.0812 42.1646 80.9381 41.6412 81.7252C41.2922 82.2525 40.7029 82.8923 40.1678 83.2218C40.0088 83.3227 39.6444 83.3227 39.4738 83.2335C39.1946 83.0939 38.6401 82.679 38.4385 82.4231C37.5002 81.2366 36.1315 78.9684 35.6507 77.5415C35.2475 76.3396 35.9299 76.1612 36.5037 75.219C36.6743 74.9321 36.8566 74.1682 36.7713 73.8232C36.5309 72.8926 35.6817 72.1016 34.8248 71.6984C34.1928 71.3998 33.4174 71.1284 32.7349 71.016C31.5097 70.8182 30.2573 70.7058 29.0166 70.667C26.3606 70.5856 23.5146 70.6476 20.8858 71.0121C20.0289 71.1323 18.4159 71.551 17.6327 71.8767C16.3183 72.4428 14.81 73.6293 15.0194 75.2229C15.0271 75.2772 15.4497 76.1302 15.5118 76.1728C16.4074 76.7932 17.2954 77.0569 18.3229 77.4407C18.5632 77.5299 19.4473 78.3286 19.5403 78.476C23.7279 85.1877 27.803 91.9691 31.975 98.6847C32.8939 100.162 34.4216 102.221 36.4417 101.779C37.8763 101.465 39.0046 99.9216 39.7142 98.6847C41.3814 95.765 43.037 92.7601 44.7353 89.856C45.1114 89.2123 46.0691 88.0608 46.895 88.2973C47.1858 88.3826 47.7286 88.6385 47.907 88.9254C49.4889 91.4767 51.098 94.0319 52.6761 96.5948C53.4283 97.8162 54.3395 98.9483 55.2313 100.077C55.5841 100.523 56.5922 101.271 57.1196 101.558L57.1234 101.562Z" fill="#3D3D3D"/>
<path d="M143.774 117.129C144.321 117.44 144.794 117.471 145.403 117.308C146.504 116.963 148.292 116.381 148.722 115.183C148.749 115.113 148.714 115.032 148.706 114.954C148.606 114.811 148.509 114.671 148.408 114.528C148.024 114.559 147.64 114.586 147.26 114.617C147.109 114.485 146.977 114.345 146.845 114.194C147.07 113.027 147.21 111.821 147.303 110.623C147.57 110.623 148.896 110.588 148.966 110.305C149.071 109.879 149.187 109.084 148.656 108.882C148.443 108.886 147.842 108.809 147.729 108.595C147.675 108.506 147.497 108.463 147.524 108.367C147.64 107.932 147.764 107.254 147.594 106.819C147.504 106.591 147.295 106.478 147.028 106.467C146.566 106.443 145.267 106.649 144.938 106.963C144.43 107.44 144.488 107.905 144.154 108.448C143.809 109.006 143.685 108.956 143.077 109.126C142.945 109.165 142.832 109.266 142.755 109.382C142.658 109.518 142.495 109.906 142.561 110.076C142.611 110.154 142.646 110.239 142.708 110.309C142.879 110.495 143.569 110.844 143.767 110.91C143.519 112.519 143.073 114.547 143.049 116.117C143.042 116.548 143.383 116.897 143.771 117.133L143.774 117.129Z" fill="#3D3D3D"/>
<path d="M115.896 117.331C116.877 117.525 117.951 117.218 118.719 116.606C118.831 116.52 118.905 116.393 118.998 116.288C119.192 114.923 119.285 113.55 119.293 112.166C119.324 112.12 119.347 112.073 119.382 112.031C119.452 111.941 119.529 111.868 119.615 111.794C119.715 111.794 119.816 111.794 119.917 111.794C120.363 112.279 120.766 112.756 121.472 112.678C121.86 112.635 122.337 112.069 122.461 111.697C122.701 110.988 122.794 110.577 122.492 109.836C122.36 109.518 122.038 109.022 121.705 108.867C121.398 108.719 120.619 108.7 120.313 108.855C119.789 109.107 119.793 109.398 119.494 109.836C119.32 110.088 119.145 110.053 118.812 109.983C118.653 109.646 118.44 109.212 118.258 108.874C118.04 108.805 117.753 108.7 117.529 108.789C116.474 109.2 115.675 109.506 114.671 110.088C114.473 110.425 114.624 110.883 114.768 111.197L115.485 111.426C115.667 111.654 115.803 111.856 115.799 112.158C115.78 113.089 115.404 114.981 115.098 115.873C115.032 116.067 115.105 116.385 115.109 116.567C115.109 116.893 115.644 117.273 115.904 117.323L115.896 117.331Z" fill="#3D3D3D"/>
<path d="M112.414 101.542C115.788 101.911 119.242 101.922 122.639 101.69C124.5 101.542 127.044 100.93 128.242 99.3865C128.796 98.673 129.099 97.4013 128.533 96.5987C127.932 95.7418 127.028 95.575 126.481 94.9702C125.132 93.4929 125.245 92.0583 125.245 90.0886C125.245 84.1291 125.31 78.1619 125.214 72.2024C125.206 71.8845 124.903 71.2447 124.62 71.0431C124.392 70.8764 123.597 70.508 123.333 70.5468C120.689 70.95 118.068 71.3106 115.435 71.9194C114.291 72.1791 112.775 72.6599 111.716 73.1097C110.542 73.6099 109.836 73.9433 108.696 74.6606C108.366 74.8739 107.917 75.3702 107.703 75.692C107.428 76.1069 107.273 76.832 107.455 77.3166C107.87 78.4294 109.08 79.0265 110.092 79.5151C110.321 79.6275 110.763 80.0928 110.879 80.3371C111.43 81.5313 111.433 83.4079 111.461 84.7534C111.511 87.4714 111.461 90.1972 111.123 92.8842C111.081 93.2331 110.739 94.249 110.499 94.5126C109.778 95.2997 108.192 96.463 107.719 97.3005C107.37 97.917 107.541 98.7894 107.928 99.3942C108.704 100.608 111.065 101.403 112.418 101.55L112.414 101.542Z" fill="#3D3D3D"/>
<path d="M113.155 114.252C113.155 112.631 113.43 111.042 113.643 109.452C113.492 109.165 113.283 108.913 112.992 108.766C112.934 108.801 110.879 109.529 110.786 109.495C110.305 109.316 109.898 108.909 109.394 108.863C107.715 108.704 106.653 109.688 105.61 110.999C105.431 111.224 104.749 112.48 104.729 112.627C104.582 113.756 104.249 114.427 104.443 115.648C104.477 115.881 104.726 116.408 104.877 116.575C105.455 117.226 106.404 117.784 107.3 117.319C107.948 116.986 108.696 116.369 109.247 115.884C109.437 116.299 109.917 117.114 110.321 117.331C110.639 117.459 110.918 117.381 111.251 117.284C111.426 117.234 112.973 116.532 113.108 116.431C113.535 116.121 113.721 115.865 113.845 115.342C113.74 115.245 113.155 114.407 113.155 114.252ZM109.937 112.86C109.844 113.139 109.378 113.977 109.216 114.252C109.037 114.551 108.696 114.717 108.394 114.853C108.339 114.838 108.285 114.822 108.231 114.81C107.781 114.69 108.06 113.612 108.157 113.325C108.428 112.519 108.824 111.705 109.293 110.999C109.378 110.867 109.502 110.774 109.627 110.681C109.704 110.669 109.782 110.666 109.859 110.654C110.096 110.817 110.332 111.034 110.441 111.309C110.344 111.705 110.076 112.434 109.937 112.86Z" fill="#3D3D3D"/>
<path d="M99.402 117.125C99.6967 117.393 100.437 117.342 100.798 117.284C101.023 117.245 102.244 116.737 102.426 116.621C102.822 116.357 103.101 116.067 103.291 115.648C103.33 115.563 103.268 115.256 103.206 115.183C102.977 114.9 102.706 114.655 102.453 114.395C102.787 113.248 103.148 111.29 102.996 110.072C102.946 109.673 102.337 109.006 101.957 108.894C100.736 108.517 99.3555 109.432 98.518 110.32C98.4637 110.235 97.475 109.231 97.347 109.111C97.1493 108.925 96.4281 108.735 96.1489 108.824C94.9702 109.215 94.66 109.498 93.5937 110.165C93.5046 110.22 93.2293 110.204 93.1323 110.158C92.8687 109.84 92.6593 109.506 92.5236 109.111C92.3065 108.925 92.0506 108.723 91.7365 108.808C90.7129 109.084 89.6195 109.471 88.716 110.045C88.3012 110.309 88.3283 110.394 88.1732 110.914C88.4718 111.03 89.3636 111.534 89.3248 111.929C89.1775 113.407 89.0689 114.884 88.8013 116.346C88.7936 116.385 88.8285 116.768 88.8556 116.807C89.3985 117.583 89.9141 117.439 90.8059 117.272C91.0192 117.234 91.8024 116.951 91.9653 116.83C92.1863 116.679 92.3065 116.629 92.3375 116.342C92.481 115.121 92.6709 113.321 93.0626 112.158C93.1944 111.778 93.5976 111.414 94.0551 111.584C94.0939 111.623 94.1405 111.65 94.1715 111.693C94.2762 111.825 94.3847 111.988 94.3808 112.158C94.3382 113.318 94.0396 114.748 93.7527 115.873C93.6597 116.237 93.7527 116.586 93.8303 116.951C94.3111 117.428 95.071 117.369 95.6798 117.292C95.9977 117.253 96.9089 116.85 97.095 116.59C97.2617 116.35 97.5641 115.683 97.5758 115.407C97.6262 114.399 97.6611 112.023 98.7002 111.553C98.8553 111.484 99.0492 111.538 99.2081 111.592C99.3516 111.794 99.4175 112.147 99.4757 112.387C99.2469 113.244 98.7002 115.516 98.8863 116.338C98.9329 116.547 99.2275 116.966 99.3943 117.117L99.402 117.125Z" fill="#3D3D3D"/>
<path d="M137.039 114.369C137.175 114.268 137.334 114.171 137.505 114.155C139.048 114.016 140.545 113.376 141.304 111.93C141.719 111.139 141.669 110.034 141.014 109.348C140.816 109.142 140.568 108.964 140.292 108.886C139.548 108.677 138.73 108.754 137.97 108.878C137.695 108.925 136.353 109.437 136.109 109.569C136.027 109.615 134.546 110.681 134.476 110.771C133.775 111.666 133.364 112.217 133.003 113.326C132.929 113.543 132.786 114.469 132.817 114.718C132.906 115.373 133.313 116.094 133.763 116.587C133.984 116.827 135.124 117.319 135.411 117.35C137.07 117.548 138.598 117.265 140.06 116.431C140.723 116.055 141.242 115.497 141.029 114.694C140.824 114.504 140.323 114.311 140.06 114.473C139.122 115.059 138.73 115.423 137.551 115.357C137.284 115.206 137.098 114.966 136.919 114.718C136.931 114.64 136.939 114.563 136.946 114.485C136.977 114.446 137.001 114.4 137.039 114.369ZM136.659 112.395C136.772 112.031 136.985 111.352 137.163 110.999C137.288 110.747 137.505 110.588 137.737 110.433C137.815 110.433 137.892 110.437 137.97 110.441C138.443 110.732 138.424 111.205 138.28 111.697C138.144 112.151 137.598 112.767 137.105 112.783C137.082 112.763 137.059 112.744 137.039 112.725C136.911 112.616 136.756 112.527 136.659 112.395Z" fill="#3D3D3D"/>
<path d="M132.239 111.464C132.402 111.15 132.348 110.146 132.185 109.84C131.747 108.995 131.293 108.781 130.301 108.785C129.068 108.785 128.947 109.134 127.978 109.689C127.68 109.863 127.47 109.805 127.137 109.704C127.334 108.723 127.579 107.374 127.594 106.354C127.598 105.943 127.431 105.753 127.024 105.544C125.671 105.532 124.205 105.827 123.065 106.56C122.697 106.8 122.713 107.075 122.728 107.494C123.054 107.649 123.364 107.8 123.663 107.983C123.791 108.262 123.911 108.595 123.884 108.909C123.721 111.275 123.209 113.554 122.794 115.881C122.771 116.024 122.779 116.431 122.771 116.575C122.744 116.924 123.24 117.35 123.566 117.35C124.035 117.358 125.035 117.335 125.423 117.091C125.756 116.877 126.222 116.528 126.276 116.113C126.338 115.683 126.4 115.268 126.462 114.842C126.73 114.776 127.319 114.787 127.377 115.183C127.493 115.943 127.695 116.501 128.184 117.067C128.645 117.494 128.94 117.443 129.607 117.323C129.839 117.281 131.045 116.773 131.227 116.645C131.545 116.427 131.863 116.098 132.065 115.784C131.696 115.373 131.01 114.493 130.665 114.02C130.514 113.818 130.421 113.578 130.359 113.333C131.018 112.678 131.797 112.306 132.239 111.464ZM127.478 113.252L126.889 113.298C126.827 113.229 126.764 113.159 126.699 113.093C126.683 113.004 126.675 112.709 126.71 112.628C126.962 112.046 127.509 111.337 128.091 111.053C128.265 111.178 128.416 111.306 128.56 111.464C128.85 112.182 127.92 112.864 127.478 113.252Z" fill="#3D3D3D"/>
<path d="M150.978 117.129C151.781 117.587 153.138 117.467 153.999 117.327C154.317 117.273 155.364 116.777 155.627 116.598C155.98 116.358 156.48 115.823 156.616 115.416C156.791 114.892 156.732 114.035 156.418 113.558C155.845 112.686 155.119 111.973 154.367 111.232C154.305 110.984 154.301 110.786 154.367 110.538C154.487 110.398 154.747 110.282 154.933 110.375C155.368 110.584 155.767 110.995 156.073 111.375C156.341 111.282 156.763 111.069 156.868 110.774C156.992 110.418 157.035 109.925 156.814 109.58C156.686 109.375 155.86 108.925 155.627 108.882C153.952 108.572 152.816 108.94 151.424 109.828C151.296 109.91 150.723 110.864 150.684 111.007C150.614 111.263 150.595 111.922 150.676 112.17C150.761 112.411 151.242 113.43 151.42 113.562C151.897 113.915 152.7 114.725 152.487 115.419C152.336 115.908 152.324 116.051 151.909 115.768C151.386 115.408 150.893 115.008 150.436 114.566C150.226 114.675 150.114 114.807 149.947 114.958C149.66 115.218 149.625 115.765 149.718 116.121C149.8 116.439 150.692 116.982 150.978 117.137V117.129Z" fill="#3D3D3D"/>
</g>
<defs>
<clipPath id="clip0_741_2751">
<rect width="142" height="58.4897" fill="white" transform="translate(15 59)"/>
</clipPath>
</defs>
</svg>
