<svg width="180" height="180" viewBox="0 0 180 180" fill="none" xmlns="http://www.w3.org/2000/svg">
<path d="M53.6185 103.669H61.0173V105.244H55.3682V107.968H60.3674V109.568H55.3682V113.617H53.6185V103.669Z" fill="#3D3D3D"/>
<path d="M70.4157 108.668V108.643C70.4157 106.718 69.016 105.093 67.0413 105.093C65.0666 105.093 63.6919 106.668 63.6919 108.593V108.618C63.6919 110.542 65.0916 112.142 67.0663 112.142C69.041 112.167 70.4157 110.592 70.4157 108.668ZM61.8422 108.668V108.643C61.8422 105.843 63.9918 103.494 67.0663 103.494C70.1158 103.494 72.2404 105.818 72.2404 108.618V108.643C72.2404 111.442 70.0908 113.792 67.0163 113.792C63.9668 113.767 61.8422 111.467 61.8422 108.668Z" fill="#3D3D3D"/>
<path d="M82.1388 108.668V108.643C82.1388 106.718 80.739 105.093 78.7643 105.093C76.7896 105.093 75.4149 106.668 75.4149 108.593V108.618C75.4149 110.542 76.8146 112.142 78.7893 112.142C80.764 112.167 82.1388 110.592 82.1388 108.668ZM73.5652 108.668V108.643C73.5652 105.843 75.7148 103.494 78.7893 103.494C81.8388 103.494 83.9635 105.818 83.9635 108.618V108.643C83.9635 111.442 81.8138 113.792 78.7393 113.792C75.6898 113.767 73.5652 111.467 73.5652 108.668Z" fill="#3D3D3D"/>
<path d="M87.2879 105.244V112.018H89.2376C91.3372 112.018 92.687 110.618 92.687 108.668V108.643C92.687 106.693 91.3122 105.269 89.2376 105.269H87.2879V105.244ZM85.5382 103.669H89.2376C92.3621 103.669 94.5117 105.819 94.5117 108.618V108.643C94.5117 111.443 92.3621 113.617 89.2376 113.617H85.5382V103.669Z" fill="#3D3D3D"/>
<path d="M100.261 112.168L101.311 110.918C102.26 111.743 103.235 112.217 104.46 112.217C105.535 112.217 106.21 111.718 106.21 110.968V110.943C106.21 110.243 105.81 109.843 103.96 109.418C101.835 108.918 100.661 108.293 100.661 106.443V106.418C100.661 104.719 102.085 103.544 104.06 103.544C105.51 103.544 106.66 103.994 107.66 104.794L106.71 106.119C105.81 105.444 104.91 105.094 104.01 105.094C102.985 105.094 102.385 105.619 102.385 106.268V106.293C102.385 107.068 102.835 107.393 104.76 107.868C106.86 108.368 107.934 109.143 107.934 110.793V110.818C107.934 112.667 106.46 113.792 104.385 113.792C102.885 113.742 101.436 113.217 100.261 112.168Z" fill="#3D3D3D"/>
<path d="M109.709 103.669H117.083V105.219H111.459V107.818H116.433V109.368H111.459V112.043H117.133V113.617H109.709V103.669Z" fill="#3D3D3D"/>
<path d="M123.407 108.593C124.657 108.593 125.457 107.943 125.457 106.918V106.893C125.457 105.819 124.682 105.244 123.407 105.244H120.857V108.593H123.407ZM119.083 103.669H123.507C124.757 103.669 125.732 104.044 126.381 104.669C126.906 105.219 127.206 105.944 127.206 106.818V106.843C127.206 108.468 126.231 109.468 124.857 109.843L127.531 113.617H125.457L123.007 110.143H120.832V113.617H119.083V103.669Z" fill="#3D3D3D"/>
<path d="M127.906 103.669H129.856L132.855 111.318L135.83 103.669H137.73L133.605 113.692H132.056L127.906 103.669Z" fill="#3D3D3D"/>
<path d="M141.004 103.669H139.254V113.617H141.004V103.669Z" fill="#3D3D3D"/>
<path d="M142.629 108.668V108.643C142.629 105.818 144.753 103.494 147.753 103.494C149.578 103.494 150.702 104.144 151.652 105.043L150.527 106.343C149.727 105.593 148.878 105.118 147.753 105.118C145.853 105.118 144.478 106.693 144.478 108.618V108.643C144.478 110.592 145.853 112.167 147.753 112.167C148.978 112.167 149.752 111.692 150.602 110.892L151.727 112.017C150.702 113.092 149.553 113.767 147.703 113.767C144.803 113.767 142.629 111.517 142.629 108.668Z" fill="#3D3D3D"/>
<path d="M153.577 103.669H160.951V105.219H155.302V107.818H160.301V109.368H155.302V112.043H161.001V113.617H153.577V103.669Z" fill="#3D3D3D"/>
<path d="M122.957 90.7462C120.032 90.7462 117.633 88.3716 117.633 85.4221C117.633 82.4975 120.007 80.1229 122.957 80.1229C125.881 80.1229 128.281 82.4975 128.281 85.4221C128.256 88.3716 125.881 90.7462 122.957 90.7462ZM122.957 73.624C116.433 73.624 111.159 78.8981 111.159 85.4221C111.159 91.946 116.433 97.2201 122.957 97.2201C129.481 97.2201 134.755 91.946 134.755 85.4221C134.755 78.9231 129.481 73.624 122.957 73.624Z" fill="#3D3D3D"/>
<path d="M149.228 73.624C142.704 73.624 137.43 78.8981 137.43 85.4221V96.7452H143.928V85.4221C143.928 82.4975 146.303 80.1229 149.253 80.1229C152.177 80.1229 154.577 82.4975 154.577 85.4221V96.7452H161.076V85.4221C161.026 78.9231 155.752 73.624 149.228 73.624Z" fill="#3D3D3D"/>
<path d="M56.993 90.6461C54.0685 90.6461 51.6689 88.2715 51.6689 85.322C51.6689 82.3974 54.0435 79.9978 56.993 79.9978C59.9175 79.9978 62.3171 82.3724 62.3171 85.322C62.3171 88.2715 59.9175 90.6461 56.993 90.6461ZM56.993 73.5239C50.4691 73.5239 45.1949 78.798 45.1949 85.322C45.1949 91.8459 50.4691 97.12 56.993 97.12C63.5169 97.12 68.791 91.8459 68.791 85.322C68.791 78.823 63.5169 73.5239 56.993 73.5239Z" fill="#3D3D3D"/>
<path d="M83.1136 73.624C76.5897 73.624 71.3156 78.8981 71.3156 85.4221V96.7452H77.8145V85.4221C77.8145 82.4975 80.1891 80.1229 83.1386 80.1229C83.5385 80.1229 83.8885 80.1229 84.3134 80.1729V73.699C83.8885 73.674 83.5135 73.624 83.1136 73.624Z" fill="#3D3D3D"/>
<path d="M96.9614 90.6461C94.0369 90.6461 91.6372 88.2715 91.6372 85.3219C91.6372 82.3974 94.0119 79.9978 96.9614 79.9978C99.8859 79.9978 102.285 82.3724 102.285 85.3219C102.285 88.2715 99.8859 90.6461 96.9614 90.6461ZM102.285 67.025V74.7987C100.686 73.9988 98.886 73.5239 96.9614 73.5239C90.4375 73.5239 85.1633 78.798 85.1633 85.3219C85.1633 91.8459 90.4375 97.12 96.9614 97.12C103.46 97.12 108.709 91.8959 108.759 85.4219V67H102.285V67.025Z" fill="#3D3D3D"/>
<path d="M42.0205 85.3471C42.0205 83.3224 42.4204 81.3977 43.1703 79.648H29.7725V86.1719H36.0715V89.3214C34.6217 90.2962 32.747 90.7962 30.6474 90.7962C25.7482 90.7962 21.9238 87.0718 21.9238 82.2226C21.9238 77.7233 25.7982 73.799 30.1975 73.799C33.147 73.799 35.1716 74.5489 37.4463 76.4235L37.7962 76.7235L42.1955 71.3994L41.8455 71.0994C38.4961 68.2499 35.1716 67.1001 30.3724 67.1001C21.7489 67.1001 15 73.749 15 82.3476C15 91.0961 21.4739 97.42 30.3974 97.42C34.9467 97.42 40.2458 95.2954 43.5952 92.0959L43.6452 92.0459C42.6204 90.0463 42.0205 87.7717 42.0205 85.3471Z" fill="#3D3D3D"/>
<path d="M162.95 73.8237C163.2 73.8237 163.35 73.6987 163.35 73.4987C163.35 73.2987 163.2 73.1738 162.95 73.1738H162.475V73.8237H162.95ZM161.9 72.6738H162.975C163.5 72.6738 163.9 72.9238 163.9 73.4487C163.9 73.8237 163.7 74.0736 163.4 74.1736L163.975 75.0235H163.3L162.8 74.2736H162.45V75.0235H161.9V72.6738ZM164.775 73.9236C164.775 72.7988 163.95 71.874 162.825 71.874C161.726 71.874 160.876 72.7988 160.876 73.9236V73.9486C160.876 75.0484 161.726 75.9733 162.825 75.9733C163.925 75.9483 164.775 75.0235 164.775 73.9236ZM160.601 73.9236C160.601 72.6739 161.576 71.624 162.8 71.624C164.05 71.624 165 72.6489 165 73.8986V73.9236C165 75.1734 164.025 76.2233 162.8 76.2233C161.576 76.1983 160.601 75.1734 160.601 73.9236Z" fill="#3D3D3D"/>
</svg>
