<svg width="180" height="180" viewBox="0 0 180 180" fill="none" xmlns="http://www.w3.org/2000/svg">
<g clip-path="url(#clip0_741_3001)">
<path d="M160.699 104.953C157.596 100.239 154.48 95.5294 151.391 90.8058C151.08 90.3381 150.756 90.1621 150.191 90.1621C115.292 90.176 80.3976 90.1713 45.5031 90.1806C42.5763 90.1806 39.6588 90.1621 36.7552 89.7314C34.1109 89.3378 31.536 88.7079 29.1372 87.4946C24.27 85.0402 22.0055 80.9186 22.6029 75.5096C22.9039 72.7774 23.8532 70.2303 25.1592 67.8268C25.7381 66.7571 26.391 65.729 27.0301 64.6453C26.9236 64.5203 26.8171 64.3999 26.6874 64.2471C26.5161 64.4462 26.4049 64.562 26.303 64.6916C24.5525 66.9747 22.9965 69.3828 21.76 71.9808C19.8104 76.0885 18.6758 80.3583 19.0787 84.9569C19.2778 87.226 19.8521 89.3887 20.8477 91.4402C23.0336 95.9369 26.5763 99.0675 30.9479 101.318C36.6209 104.24 42.7292 105.43 49.0504 105.435C86.1308 105.472 123.211 105.454 160.291 105.454H161C160.852 105.204 160.782 105.074 160.699 104.953ZM56.2563 95.1358C55.5338 95.145 54.8114 95.1358 54.0936 95.1358C53.3588 95.1358 52.9914 95.5109 52.9914 96.2611V97.1039H55.1772V97.831H52.9914C52.9914 98.6738 52.959 99.4657 53.0007 100.248C53.0285 100.767 52.8154 100.878 52.357 100.85C52.0467 100.827 51.9309 100.716 51.9309 100.415C51.9356 98.4191 51.9309 96.4232 51.9309 94.3716H56.7935C56.9648 95.0524 56.9139 95.1265 56.2563 95.1311V95.1358ZM62.8878 100.948C60.8409 100.943 59.4655 99.5769 59.4748 97.5485C59.4748 95.5525 60.8687 94.2142 62.948 94.2188C64.9672 94.2188 66.375 95.5803 66.3935 97.5485C66.4167 99.5259 64.944 100.948 62.8878 100.948ZM73.0297 100.948C70.9921 100.938 69.5843 99.5491 69.5935 97.5485C69.6028 95.5711 71.0245 94.2142 73.0899 94.2188C75.1275 94.2188 76.5585 95.622 76.54 97.6041C76.5261 99.563 75.0627 100.952 73.0297 100.948ZM83.0975 100.721C82.1666 100.837 81.2173 100.804 80.2772 100.846C79.9299 100.864 79.8234 100.707 79.828 100.383C79.8373 99.438 79.828 98.4932 79.828 97.5485C79.828 96.6038 79.8419 95.7332 79.8234 94.8301C79.8141 94.4457 79.9391 94.2976 80.3328 94.3161C81.3099 94.3716 82.3056 94.2976 83.2642 94.4504C85.0332 94.7329 85.9224 95.8952 85.89 97.6689C85.8575 99.3175 84.8109 100.508 83.0975 100.721ZM94.1239 100.211C92.8967 101.383 89.9699 101.036 89.0761 99.9705C89.5809 99.3546 89.5762 99.3546 90.2709 99.7251C91.072 100.151 91.9149 100.253 92.7901 99.9937C93.1791 99.8825 93.4848 99.6556 93.5218 99.1925C93.5589 98.7201 93.2857 98.4562 92.9059 98.308C92.2715 98.0579 91.6139 97.868 90.9794 97.6272C90.5997 97.4883 90.2107 97.3401 89.8772 97.1178C89.039 96.5575 89.039 95.3627 89.8356 94.7514C90.9146 93.9271 93.5126 94.0799 94.3693 94.9598C93.9433 95.6266 93.9016 95.6452 93.2625 95.3303C92.5678 94.9829 91.8223 94.9413 91.0998 95.1126C90.8081 95.1821 90.4746 95.5109 90.3589 95.8026C90.1968 96.2148 90.558 96.4926 90.9192 96.6269C91.7111 96.9233 92.5401 97.141 93.3134 97.479C93.7302 97.6643 94.1516 97.9746 94.4202 98.3404C94.8231 98.8915 94.6379 99.7158 94.1239 100.211ZM103.529 100.466C103.502 100.605 103.312 100.823 103.191 100.827C101.672 100.85 100.158 100.855 98.6391 100.827C98.514 100.823 98.2871 100.573 98.2825 100.434C98.2593 98.5303 98.2732 96.6223 98.264 94.719C98.264 94.4411 98.352 94.3207 98.6483 94.3207C100.181 94.33 101.714 94.3253 103.293 94.3253V95.1404H101.756C101.089 95.1404 100.422 95.145 99.7598 95.1404C99.4541 95.1404 99.3198 95.2469 99.3337 95.5618C99.3522 96.0018 99.3384 96.4463 99.3384 96.9974H101.635V97.7152H99.3476C99.3476 98.4515 99.3291 99.1277 99.3661 99.8038C99.3708 99.8872 99.6718 100.021 99.8385 100.026C100.89 100.045 101.946 100.035 103.001 100.035C103.293 100.035 103.608 100.054 103.529 100.466ZM112.805 100.711C111.995 100.999 111.712 100.911 111.296 100.267C110.944 99.7204 110.573 99.1879 110.249 98.6275C110.041 98.2663 109.786 98.1227 109.36 98.132C108.109 98.1459 108.109 98.1274 108.109 99.4009C108.105 99.7714 108.109 100.142 108.1 100.512C108.091 100.92 107.776 100.832 107.531 100.846C107.281 100.855 107.044 100.855 107.049 100.489C107.058 98.4932 107.063 96.4926 107.072 94.4967C107.072 94.4643 107.1 94.4319 107.109 94.4087C108.494 94.4087 109.883 94.3114 111.249 94.4411C112.365 94.543 112.898 95.196 112.958 96.0897C113.018 96.9511 112.5 97.5994 111.458 97.9607C111.374 97.9884 111.291 98.0301 111.133 98.095C111.712 99.0026 112.254 99.8501 112.805 100.711ZM120.997 97.4513C120.558 98.4701 120.131 99.4982 119.655 100.498C119.576 100.67 119.27 100.818 119.066 100.823C118.812 100.827 118.404 100.735 118.325 100.563C117.422 98.5812 116.57 96.5714 115.704 94.5708C115.686 94.5245 115.686 94.4643 115.681 94.4133C116.57 94.1818 116.658 94.2188 117.001 95.0431C117.589 96.4371 118.173 97.8356 118.761 99.2342C118.816 99.3639 118.881 99.4889 118.988 99.7112C119.414 98.6877 119.803 97.7569 120.196 96.8307C120.446 96.2333 120.696 95.6359 120.947 95.0385C121.294 94.2235 121.308 94.2188 122.317 94.3994C121.859 95.4553 121.433 96.4556 120.997 97.4513ZM126.166 100.86C125.726 100.86 125.596 100.725 125.601 100.285C125.619 98.3311 125.61 96.3769 125.61 94.3578H126.633C126.652 94.5291 126.675 94.6727 126.675 94.8162C126.68 96.6408 126.67 98.4701 126.684 100.299C126.689 100.688 126.596 100.86 126.166 100.86ZM132.079 100.702C130.787 100.207 129.995 98.9193 130.056 97.3818C130.116 95.9462 131.065 94.719 132.408 94.3485C133.844 93.9502 135.446 94.3716 136.099 95.3256C135.706 95.673 135.391 95.9045 134.844 95.4321C134.159 94.8394 133.279 94.895 132.478 95.2284C131.607 95.5896 131.218 96.3583 131.139 97.2521C131.042 98.3404 131.352 99.3083 132.371 99.8501C133.334 100.36 134.316 100.239 135.168 99.5352C135.65 99.1416 135.831 99.5861 136.155 99.7853C135.534 100.725 133.626 101.295 132.079 100.702ZM144.444 100.475C144.412 100.619 144.222 100.827 144.101 100.827C142.583 100.85 141.068 100.85 139.549 100.827C139.424 100.827 139.202 100.6 139.197 100.475C139.179 98.5303 139.179 96.5899 139.197 94.6495C139.197 94.5384 139.378 94.3439 139.475 94.3439C141.04 94.3207 142.61 94.33 144.208 94.33C144.268 95.1311 144.268 95.1358 143.56 95.1358C142.657 95.1358 141.749 95.1635 140.841 95.1311C140.341 95.108 140.184 95.2886 140.23 95.7656C140.267 96.1499 140.239 96.5343 140.239 96.9835H142.536C142.55 97.2429 142.559 97.4374 142.573 97.7199H140.244C140.244 98.4469 140.221 99.0906 140.262 99.7297C140.272 99.8408 140.559 100.017 140.721 100.021C141.795 100.049 142.865 100.035 143.939 100.035C144.245 100.035 144.537 100.077 144.444 100.475Z" fill="#3D3D3D"/>
<path d="M48.2633 77.024C49.2868 76.2923 50.3565 75.7227 51.1716 74.903C52.9128 73.1433 53.1675 70.8787 52.8619 68.5401C52.5285 65.956 51.0836 64.173 48.7264 63.1079C47.4112 62.5152 46.0127 62.2512 44.5724 62.2466C40.7611 62.2373 36.9452 62.2419 33.1293 62.2466C32.9533 62.2466 32.7773 62.2651 32.6013 62.2743V86.0869H37.6213V77.5288C39.2653 77.5288 40.8537 77.5196 42.4422 77.5473C42.5811 77.5473 42.771 77.7511 42.8543 77.9086C44.0213 80.1129 45.2624 82.2895 46.2998 84.554C46.8648 85.7905 47.5455 86.2953 48.9163 86.1517C50.2269 86.0128 51.5652 86.1193 52.9869 86.1193C51.3615 82.9934 49.7823 79.9462 48.2633 77.024ZM47.5177 71.2816C47.1102 72.2726 46.2951 72.7311 45.2949 72.9025C44.8781 72.9719 44.4474 72.9997 44.026 73.0043C41.9513 73.009 39.8766 72.9997 37.8019 72.9997C37.7695 72.9997 37.7325 72.9766 37.6398 72.9488V66.9516C37.7741 66.9377 37.9131 66.9146 38.052 66.9146C40.2008 66.91 42.3495 66.91 44.4937 66.9146C44.716 66.9146 44.9383 66.9331 45.1559 66.9702C47.3603 67.3499 48.3745 69.2023 47.5177 71.2816Z" fill="#3D3D3D"/>
<path d="M102.863 86.1052H97.8611C97.8611 85.8968 97.8611 85.7023 97.8611 85.5078C97.8611 77.6351 97.8611 69.7624 97.8518 61.8897C97.8518 61.51 97.9491 61.3016 98.3149 61.1349C99.8107 60.4541 101.288 59.741 102.853 59V69.3271C104.664 67.9008 106.651 67.6229 108.753 67.9332C111.527 68.3407 113.366 70.1653 113.958 73.1153C114.13 73.9812 114.232 74.875 114.241 75.7595C114.273 79.0383 114.255 82.317 114.25 85.5958C114.25 85.7579 114.227 85.9199 114.213 86.1005H109.281C109.272 85.8829 109.253 85.6699 109.253 85.4568C109.253 82.3633 109.276 79.2698 109.235 76.1763C109.226 75.4122 109.073 74.6296 108.85 73.8979C108.573 72.9902 107.859 72.4947 106.919 72.3604C106.553 72.3095 106.178 72.2539 105.817 72.2817C103.798 72.4438 102.89 73.5598 102.867 75.9494C102.844 78.5983 102.863 81.2473 102.863 83.8962C102.863 84.614 102.863 85.3318 102.863 86.1052Z" fill="#3D3D3D"/>
<path d="M131.797 73.9164C131.765 71.235 130.343 69.341 127.814 68.424C125.624 67.6321 123.378 67.6923 121.132 68.086C119.682 68.3407 118.344 68.901 117.043 69.6512C117.7 70.7719 118.326 71.8463 118.969 72.9439C120.78 71.925 122.679 71.6055 124.651 71.7861C126.277 71.9297 127.106 73.1569 126.726 74.7916C124.656 73.9858 122.535 73.9905 120.405 74.4767C116.042 75.4678 114.102 79.8209 116.468 83.4747C118.089 85.9847 120.627 86.6377 123.452 86.4154C124.67 86.3182 125.763 85.8273 126.777 85.0122C126.8 85.4197 126.823 85.7439 126.842 86.0912H131.76C131.779 85.9616 131.811 85.8551 131.811 85.7485C131.811 81.8076 131.848 77.862 131.797 73.9164ZM125.281 82.0623C124.216 82.5439 123.105 82.6226 121.989 82.2429C121.021 81.9141 120.507 81.099 120.53 80.0015C120.553 79.029 121.104 78.2834 122.1 78.0426C123.438 77.7138 124.767 77.8203 126.082 78.2417C126.634 78.4177 126.93 78.7187 126.814 79.3254C126.786 79.4689 126.809 79.6217 126.809 79.9181C127.101 81.0666 126.258 81.6223 125.281 82.0623Z" fill="#3D3D3D"/>
<path d="M69.612 74.2223C68.7599 70.7768 66.2823 68.3687 63.1379 67.9241C59.535 67.4101 56.247 68.9105 54.4641 71.9299C53.1535 74.1436 52.8617 76.5517 53.2461 79.057C53.5934 81.3401 54.5659 83.2805 56.4369 84.7022C59.7758 87.2446 65.4349 87.027 68.5747 84.2391C68.8016 84.04 69.0007 83.8038 69.2323 83.563C67.9866 82.6044 66.801 81.6921 65.6247 80.789C63.8789 82.1644 62.0172 82.4377 60.0444 81.4883C58.9237 80.9511 58.3958 79.9693 58.2846 78.6958H69.8806C70.052 77.1398 69.9686 75.6718 69.612 74.2223ZM58.4467 75.1161C58.2754 73.5323 59.7341 71.9948 61.4152 71.9299C63.3463 71.8605 64.9718 73.3146 64.9116 75.1161H58.4467Z" fill="#3D3D3D"/>
<path d="M84.3849 86.0912H79.4482V68.2295H84.3941V69.1047C85.3389 68.7296 86.2558 68.2063 87.2376 68.0118C89.6874 67.5348 92.0167 67.8359 93.8552 69.7484C95.1519 71.1007 95.6613 72.8281 95.7123 74.6249C95.8142 78.3621 95.7771 82.1039 95.7956 85.8458C95.7956 85.9152 95.7678 85.9893 95.7493 86.0866H90.7988C90.7988 85.8597 90.7988 85.642 90.7988 85.429C90.7988 82.3725 90.8219 79.3161 90.7803 76.2642C90.771 75.5001 90.6367 74.7129 90.4191 73.9812C90.1319 73.0087 89.391 72.4715 88.3814 72.3464C88.0341 72.3048 87.6775 72.2538 87.3348 72.2862C85.362 72.4576 84.4543 73.5459 84.4173 75.8058C84.3895 77.5656 84.4127 79.3253 84.4127 81.0851C84.4127 82.567 84.4127 84.0489 84.4127 85.5309C84.4127 85.7115 84.3988 85.8921 84.3895 86.0958L84.3849 86.0912Z" fill="#3D3D3D"/>
<path d="M146.713 68.1831H149.858C149.858 67.1134 149.955 66.0899 149.835 65.0896C149.691 63.9272 150.108 63.3298 151.192 62.9316C152.4 62.4916 153.539 61.8572 154.79 61.269V68.16H159.3V72.6613H154.929C154.873 72.7585 154.841 72.7909 154.841 72.8234C154.841 75.2454 154.845 77.672 154.85 80.094C154.85 81.701 155.804 82.2521 157.471 81.8028C157.985 81.6639 158.439 81.2842 158.916 81.0063C159.069 80.9183 159.208 80.8025 159.453 80.6219C159.319 81.5296 159.208 82.3261 159.087 83.118C158.99 83.7756 158.893 84.4332 158.768 85.0908C158.735 85.2529 158.638 85.4521 158.508 85.5354C157.05 86.4662 154.003 87.0451 152.016 85.6605C150.58 84.6602 149.904 83.2338 149.867 81.5435C149.807 78.8436 149.849 76.1391 149.844 73.4346C149.844 73.2124 149.844 72.9947 149.844 72.703H146.699V68.1877L146.713 68.1831Z" fill="#3D3D3D"/>
<path d="M133.774 68.2249H138.716C138.73 68.5537 138.743 68.8779 138.762 69.2669C138.966 69.114 139.123 69.0029 139.281 68.8871C141.115 67.5349 143.851 67.47 145.648 68.7158C145.986 68.952 146.093 69.1696 145.972 69.5771C145.565 70.9201 145.199 72.2724 144.796 73.6802C144.597 73.5505 144.43 73.4533 144.273 73.3375C143.319 72.6567 142.254 72.4437 141.11 72.6058C139.73 72.8049 138.956 73.7219 138.776 75.3612C138.743 75.653 138.743 75.954 138.743 76.2504C138.743 79.3068 138.743 82.3633 138.743 85.4198V86.0774H133.779V68.2249H133.774Z" fill="#3D3D3D"/>
<path d="M76.7624 68.2388V86.0959H71.8767V68.2388H76.7624Z" fill="#3D3D3D"/>
<path d="M74.3265 61.3572C75.8918 61.3664 77.1839 62.6075 77.1653 64.0895C77.1514 65.5621 75.8038 66.8171 74.271 66.7801C72.7289 66.7477 71.46 65.5204 71.46 64.0617C71.46 62.5751 72.7566 61.3479 74.3219 61.3526L74.3265 61.3572Z" fill="#3D3D3D"/>
<path d="M92.2437 111.835C92.151 112.154 92.0631 112.46 91.9612 112.812C91.3406 111.826 90.4422 111.488 89.2891 111.756C87.6821 112.131 86.5939 113.993 86.9227 115.813C87.1588 117.151 87.9878 117.841 89.3308 117.698C89.8958 117.638 90.433 117.36 91.0118 117.17C90.8544 117.888 90.7154 118.707 89.9884 119.166C88.8816 119.865 87.7331 119.61 86.5892 119.11C86.5198 119.365 86.4642 119.573 86.3669 119.925C87.0801 120.036 87.7423 120.203 88.4046 120.226C90.3033 120.3 91.1739 119.652 91.6416 117.818C92.0075 116.369 92.3085 114.905 92.6373 113.447C92.7531 112.919 92.8735 112.391 92.9985 111.835H92.2437ZM90.6923 116.508C90.1134 117.082 89.4141 117.221 88.6547 116.943C88.0434 116.721 87.7238 116.109 87.7285 115.169C87.7655 114.456 87.9832 113.706 88.5157 113.071C89.0668 112.414 89.817 112.178 90.5395 112.432C91.2989 112.696 91.5537 113.321 91.5861 114.035C91.6277 114.97 91.3823 115.831 90.6923 116.508Z" fill="#3D3D3D"/>
<path d="M121.859 117.693H121.062C121.271 116.683 121.47 115.711 121.674 114.743C121.873 113.789 122.076 112.83 122.285 111.844H122.975V112.525C123.521 111.983 124.082 111.645 124.813 111.682C125.587 111.719 126.115 112.048 126.337 112.881C126.832 112.089 127.495 111.682 128.375 111.687C129.444 111.687 130.13 112.358 130.079 113.428C130.051 113.974 129.907 114.521 129.801 115.063C129.662 115.753 129.458 116.429 129.375 117.123C129.296 117.772 128.953 117.795 128.43 117.665C128.666 116.572 128.903 115.493 129.125 114.414C129.19 114.109 129.241 113.794 129.241 113.483C129.25 112.548 128.555 112.039 127.722 112.469C127.249 112.715 126.763 113.182 126.578 113.664C126.198 114.637 126.017 115.683 125.763 116.702C125.684 117.021 125.619 117.35 125.545 117.693H124.744C124.957 116.702 125.175 115.739 125.369 114.771C125.457 114.336 125.54 113.896 125.545 113.456C125.554 112.516 124.86 112.034 124.021 112.469C123.591 112.692 123.132 113.099 122.966 113.53C122.581 114.539 122.368 115.614 122.09 116.665C122.002 117.003 121.938 117.341 121.859 117.688V117.693Z" fill="#3D3D3D"/>
<path d="M58.5024 109.848C58.3913 110.21 58.3311 110.423 58.2987 110.52C57.3447 110.432 56.4324 110.237 55.534 110.284C53.061 110.418 51.3614 112.821 52.0422 115.1C52.5933 116.943 54.5105 117.55 56.173 116.915C56.2888 116.869 56.4231 116.73 56.4509 116.614C56.6408 115.79 56.8028 114.961 56.9881 114.067H55.0384C55.094 113.799 55.1357 113.599 55.182 113.377H58.0023C57.8958 113.91 57.7985 114.428 57.692 114.938C57.5623 115.572 57.3956 116.197 57.2984 116.837C57.2243 117.318 57.0298 117.633 56.5296 117.666C55.6683 117.721 54.7837 117.888 53.9502 117.763C51.894 117.448 50.7131 115.526 51.116 113.345C51.5559 110.946 53.7001 109.316 56.2008 109.515C56.9464 109.575 57.6874 109.728 58.5024 109.848Z" fill="#3D3D3D"/>
<path d="M95.2168 109.075H96.0226C95.7494 110.237 95.4808 111.353 95.1798 112.627C95.7818 111.932 96.444 111.663 97.2267 111.691C98.3798 111.733 99.1115 112.441 98.9633 113.581C98.7919 114.896 98.477 116.193 98.1621 117.485C98.1251 117.642 97.6805 117.702 97.3008 117.855C97.5647 116.605 97.787 115.544 98.0093 114.484C98.0603 114.248 98.1066 114.011 98.1297 113.775C98.2409 112.599 97.4165 112.006 96.319 112.478C95.6614 112.761 95.2585 113.303 95.0686 113.956C94.7676 114.984 94.5361 116.026 94.286 117.068C94.1147 117.786 94.1239 117.786 93.3228 117.661C93.9526 114.813 94.5824 111.969 95.2215 109.075H95.2168Z" fill="#3D3D3D"/>
<path d="M120.47 113.835C120.266 112.381 119.395 111.64 117.941 111.687C115.876 111.751 114.412 113.599 114.718 115.757C114.903 117.072 115.825 117.874 117.145 117.869C119.228 117.869 120.775 115.989 120.47 113.835ZM117.566 117.179C116.505 117.364 115.639 116.725 115.547 115.651C115.468 114.78 115.667 113.956 116.191 113.243C116.732 112.492 117.492 112.238 118.386 112.381C119.191 112.506 119.65 113.219 119.641 114.271C119.631 115.734 118.747 116.975 117.566 117.179Z" fill="#3D3D3D"/>
<path d="M64.0365 115.007C64.0689 114.572 64.1244 114.206 64.1198 113.84C64.0874 112.386 63.277 111.631 61.8275 111.691C59.9982 111.765 58.7154 113.493 58.8312 115.711C58.8914 116.832 59.637 117.698 60.7485 117.804C61.3644 117.86 61.9942 117.767 62.6147 117.716C63.1473 117.675 63.2816 117.364 63.1288 116.878C62.0822 117.184 61.0263 117.563 60.077 116.707C59.5907 116.267 59.5212 115.669 59.6694 115.007H64.0365ZM62.2906 112.367C63.0778 112.492 63.4854 113.298 63.2492 114.322H59.8593C59.9241 113.118 61.1097 112.182 62.2906 112.367Z" fill="#3D3D3D"/>
<path d="M137.41 117.693H136.687C136.706 117.471 136.72 117.276 136.738 117.008C136.053 117.652 135.326 117.98 134.427 117.832C133.492 117.675 132.922 117.073 132.978 116.119C133.015 115.48 133.177 114.845 133.297 114.211C133.422 113.576 133.566 112.946 133.7 112.317C133.733 112.173 133.77 112.029 133.811 111.854H134.613C134.386 112.942 134.154 114.016 133.932 115.095C133.886 115.331 133.835 115.568 133.816 115.804C133.723 116.975 134.557 117.554 135.641 117.073C136.479 116.702 136.84 115.952 137.081 115.142C137.238 114.614 137.331 114.062 137.451 113.521C137.572 112.979 137.688 112.442 137.817 111.858H138.623C138.215 113.808 137.813 115.739 137.4 117.693H137.41Z" fill="#3D3D3D"/>
<path d="M111.444 109.089C111.388 109.279 111.342 109.436 111.295 109.589C109.878 109.598 109.517 109.996 109.323 111.798H110.772C110.712 112.057 110.666 112.252 110.61 112.488H109.128C108.735 114.248 108.35 115.97 107.966 117.693H107.16C107.544 115.947 107.92 114.238 108.299 112.492H107.104C107.086 111.821 107.086 111.775 107.697 111.83C108.285 111.881 108.563 111.71 108.637 111.099C108.688 110.686 108.85 110.274 109.036 109.899C109.494 108.991 110.416 108.686 111.434 109.093L111.444 109.089Z" fill="#3D3D3D"/>
<path d="M138.85 117.545C138.924 117.29 138.989 117.082 139.021 116.971C139.725 117.04 140.388 117.151 141.045 117.142C141.346 117.142 141.689 116.948 141.93 116.744C142.379 116.364 142.319 115.683 141.819 115.299C141.471 115.03 141.073 114.827 140.693 114.595C140.151 114.266 139.781 113.849 139.86 113.159C139.934 112.506 140.355 112.159 140.911 111.918C141.675 111.585 142.685 111.613 143.662 111.997C143.583 112.21 143.5 112.423 143.449 112.557C142.847 112.488 142.305 112.381 141.763 112.377C141.254 112.372 140.8 112.581 140.675 113.136C140.554 113.655 140.953 113.896 141.314 114.127C141.656 114.35 142.022 114.526 142.351 114.766C143.421 115.554 143.3 116.994 142.106 117.554C141.045 118.05 139.962 117.943 138.859 117.545H138.85Z" fill="#3D3D3D"/>
<path d="M101.381 112.479H100.246C100.232 112.002 100.38 111.715 100.885 111.817C101.459 111.928 101.7 111.65 101.714 111.117C101.728 110.492 102.126 110.335 102.7 110.274C102.594 110.788 102.497 111.27 102.39 111.803H103.854C103.965 112.363 103.733 112.534 103.242 112.488C102.913 112.46 102.585 112.483 102.228 112.483C101.959 113.715 101.677 114.896 101.45 116.091C101.274 117.036 101.608 117.304 102.691 117.138C102.779 117.591 102.617 117.804 102.145 117.855C101.024 117.98 100.413 117.402 100.612 116.309C100.839 115.054 101.117 113.812 101.39 112.479H101.381Z" fill="#3D3D3D"/>
<path d="M75.4331 112.488H74.2708C74.331 112.238 74.3773 112.039 74.4282 111.812H75.5721C75.836 111.205 75.6137 110.246 76.7483 110.297C76.6464 110.784 76.5399 111.265 76.4288 111.802H77.9802C77.92 112.053 77.8737 112.247 77.8227 112.469H76.2528C75.9888 113.789 75.6878 115.081 75.4794 116.387C75.3683 117.091 75.7619 117.299 76.6974 117.123C76.8456 117.587 76.6742 117.786 76.2019 117.846C75.1182 117.985 74.4838 117.438 74.6459 116.369C74.8172 115.239 75.0997 114.127 75.3312 113.006C75.3637 112.849 75.3915 112.687 75.4331 112.483V112.488Z" fill="#3D3D3D"/>
<path d="M66.9168 112.479C66.6528 113.785 66.3518 115.063 66.148 116.35C66.0323 117.091 66.4027 117.299 67.3706 117.133C67.5188 117.605 67.3197 117.8 66.8519 117.855C65.7498 117.985 65.1338 117.415 65.3145 116.304C65.4951 115.174 65.7776 114.062 66.0137 112.942C66.0415 112.817 66.06 112.692 66.0925 112.502H64.9949L64.8745 112.34C65.0366 112.164 65.1709 111.904 65.37 111.84C65.634 111.752 65.9489 111.816 66.2407 111.816C66.4907 111.187 66.2962 110.274 67.4077 110.293C67.3058 110.784 67.2039 111.275 67.0928 111.821H68.658C68.5932 112.066 68.5423 112.256 68.4821 112.483H66.9168V112.479Z" fill="#3D3D3D"/>
<path d="M111.518 117.702H110.717C111.124 115.744 111.523 113.822 111.93 111.858H112.625V112.418C112.995 112.192 113.301 111.918 113.657 111.803C114.019 111.687 114.435 111.724 114.912 111.691C114.834 112.048 114.783 112.27 114.732 112.493C113.236 112.479 112.685 112.863 112.296 114.289C111.995 115.41 111.777 116.549 111.513 117.707L111.518 117.702Z" fill="#3D3D3D"/>
<path d="M80.4392 117.693C80.8467 115.729 81.2496 113.798 81.6572 111.844H82.3796C82.3611 112.066 82.3472 112.265 82.324 112.58C82.9446 111.812 83.667 111.538 84.6071 111.779C84.5608 112.015 84.5145 112.242 84.4682 112.488C84.3153 112.488 84.1903 112.492 84.0699 112.488C83.1344 112.446 82.5185 112.807 82.199 113.808C81.8609 114.859 81.6618 115.956 81.4025 117.031C81.3515 117.244 81.3052 117.457 81.2496 117.693H80.4392Z" fill="#3D3D3D"/>
<path d="M157.18 89.9768C155.813 89.9583 154.707 91.0604 154.711 92.4266C154.72 93.7835 155.786 94.8579 157.129 94.8625C158.504 94.8671 159.537 93.8344 159.541 92.4451C159.546 91.0558 158.527 89.9907 157.18 89.9768ZM157.147 94.4735C156.1 94.4642 155.221 93.5473 155.207 92.4497C155.193 91.329 156.082 90.3797 157.152 90.3797C158.221 90.3797 159.069 91.292 159.078 92.4034C159.087 93.5473 158.217 94.4827 157.147 94.4735Z" fill="#3D3D3D"/>
<path d="M84.2922 117.656C84.7137 115.716 85.1351 113.803 85.5565 111.854H86.3669C86.0705 113.229 85.7741 114.595 85.4778 115.961C85.3944 116.341 85.2647 116.716 85.2323 117.096C85.1814 117.712 84.8757 117.841 84.2876 117.652L84.2922 117.656Z" fill="#3D3D3D"/>
<path d="M73.4187 111.867C72.9926 113.812 72.5758 115.739 72.1498 117.693H71.3394C71.7608 115.753 72.1776 113.835 72.599 111.867H73.4187Z" fill="#3D3D3D"/>
<path d="M145.097 117.693H144.148C144.25 116.624 144.273 116.605 145.296 116.79C145.232 117.087 145.167 117.388 145.097 117.693Z" fill="#3D3D3D"/>
<path d="M85.8945 110.219C85.9779 109.545 86.3144 109.246 86.9041 109.32C86.9041 110.279 86.8022 110.367 85.8945 110.219Z" fill="#3D3D3D"/>
<path d="M72.9141 110.246C72.9835 109.908 73.0437 109.626 73.1132 109.311H74.0023C73.9421 109.635 73.8912 109.932 73.831 110.246H72.9141Z" fill="#3D3D3D"/>
<path d="M111.893 96.1637C111.925 96.7148 111.634 97.1038 110.994 97.2334C110.513 97.3307 110.008 97.3261 109.517 97.3677C108.576 97.343 108.106 96.8583 108.109 95.9136C108.109 95.1402 108.109 95.1356 108.897 95.1402C109.54 95.1449 110.189 95.131 110.832 95.1773C111.481 95.219 111.86 95.6033 111.893 96.1637Z" fill="#3D3D3D"/>
<path d="M84.8157 97.919C84.7138 99.0953 83.9358 99.8826 82.741 99.9891C82.264 100.031 81.7824 100.017 81.3054 100.035C80.9951 100.049 80.8793 99.9196 80.8886 99.6093C80.9071 98.9239 80.8932 98.2432 80.8932 97.5578C80.8932 96.8724 80.8747 96.2287 80.9071 95.5665C80.9164 95.4229 81.097 95.1636 81.1942 95.1636C81.8565 95.1682 82.5372 95.1358 83.1717 95.2886C84.3803 95.5711 84.9314 96.5297 84.8157 97.919Z" fill="#3D3D3D"/>
<path d="M65.2961 97.5805C65.2961 99.1319 64.3745 100.118 62.925 100.118C61.4755 100.118 60.5401 99.0995 60.5401 97.5713C60.5354 96.0199 61.4663 95.0196 62.9065 95.0289C64.3467 95.0428 65.2915 96.0523 65.2961 97.5805Z" fill="#3D3D3D"/>
<path d="M75.4749 97.5624C75.4888 99.0629 74.5024 100.119 73.0807 100.119C71.659 100.119 70.668 99.086 70.6633 97.5902C70.6587 96.0481 71.6034 95.0293 73.0344 95.0293C74.4515 95.0339 75.4657 96.0805 75.4749 97.5624Z" fill="#3D3D3D"/>
<path d="M157.814 92.4263C158.119 92.1855 158.245 91.8196 158.008 91.4075C157.786 91.0185 156.971 90.9212 156.253 91.1759V93.8017C156.378 93.8017 156.573 93.8248 156.577 93.8017C156.661 93.4405 156.721 93.0746 156.786 92.7134C157.323 92.5976 157.592 92.8662 157.596 93.3525C157.596 93.6674 157.726 93.9545 158.198 93.7554C158.073 93.3293 157.953 92.8986 157.814 92.4263ZM157.453 92.3522C157.374 92.3475 156.888 92.3522 156.809 92.3522C156.749 92.1391 156.735 92.0836 156.726 91.9261C156.712 91.7131 156.638 91.463 157.022 91.4445C157.23 91.4352 157.351 91.4075 157.559 91.5418C157.698 91.7548 157.605 92.1716 157.457 92.3568L157.453 92.3522Z" fill="#3D3D3D"/>
</g>
<defs>
<clipPath id="clip0_741_3001">
<rect width="142" height="61.2309" fill="white" transform="translate(19 59)"/>
</clipPath>
</defs>
</svg>
