<svg width="180" height="180" viewBox="0 0 180 180" fill="none" xmlns="http://www.w3.org/2000/svg">
<g clip-path="url(#clip0_741_1406)">
<path fill-rule="evenodd" clip-rule="evenodd" d="M21.3739 105.976C21.3739 106.721 21.9271 107.274 22.6086 107.274C22.9774 107.274 23.2901 107.154 23.5386 106.906L37.5212 92.8589L42.0351 97.3728L28.0525 111.355C26.2566 113.151 24.7092 113.833 22.4803 113.833C18.3353 113.833 14.9919 110.489 14.9919 106.344V88.337C14.9919 84.2561 18.3353 80.8486 22.4803 80.8486C24.7092 80.8486 26.2566 81.5301 28.0525 83.3822L31.949 87.2787L27.4352 91.7364L23.5386 87.7758C23.2901 87.5914 22.9854 87.407 22.6086 87.407C21.9271 87.407 21.3739 88.0243 21.3739 88.7058V105.968V105.976Z" fill="#3D3D3D"/>
<path fill-rule="evenodd" clip-rule="evenodd" d="M43.6467 105.976C43.6467 106.721 43.0935 107.274 42.412 107.274C42.0432 107.274 41.7305 107.154 41.482 106.906L37.5213 102.945L33.0636 107.459L36.9601 111.355C38.756 113.151 40.3034 113.833 42.5323 113.833C46.6774 113.833 50.0207 110.489 50.0207 106.344V88.337C50.0207 84.2561 46.6774 80.8486 42.5323 80.8486C40.3034 80.8486 38.756 81.5301 36.9601 83.3822L22.9775 97.3647L27.4353 101.822L41.482 87.7758C41.7305 87.5914 42.0352 87.407 42.412 87.407C43.0935 87.407 43.6467 88.0243 43.6467 88.7058V105.968V105.976Z" fill="#3D3D3D"/>
<path fill-rule="evenodd" clip-rule="evenodd" d="M24.156 78.0663H40.8645V75.8374H24.156V78.0663Z" fill="#3D3D3D"/>
<path fill-rule="evenodd" clip-rule="evenodd" d="M31.3958 75.0997H33.6246V69.2148H31.3958V75.0997Z" fill="#3D3D3D"/>
<path fill-rule="evenodd" clip-rule="evenodd" d="M32.5104 68.8464C33.256 68.8464 33.9375 68.2291 33.9375 67.4193C33.9375 66.6737 33.256 65.9922 32.5104 65.9922C31.7086 65.9922 31.0833 66.6737 31.0833 67.4193C31.0833 68.2211 31.7006 68.8464 32.5104 68.8464Z" fill="#3D3D3D"/>
<path fill-rule="evenodd" clip-rule="evenodd" d="M27.8681 72.1252C27.8039 72.0611 27.7478 72.0049 27.7478 71.8767C27.7478 71.6281 27.9322 71.4437 28.1808 71.4437H30.6582V69.2148H28.1246C26.6975 69.2148 25.3987 70.3934 25.3987 71.8125C25.3987 72.494 25.7114 73.1114 26.1443 73.6085L27.6276 75.0917H30.7865L27.8761 72.1252H27.8681Z" fill="#3D3D3D"/>
<path fill-rule="evenodd" clip-rule="evenodd" d="M23.6669 72.1252C23.6028 72.0611 23.5466 72.0049 23.5466 71.8767C23.5466 71.6281 23.731 71.4437 23.9796 71.4437H24.7252C24.7894 70.5778 25.3426 69.5275 26.3929 69.2148H23.8593C22.4322 69.2148 21.1975 70.3934 21.1975 71.8125C21.1975 72.494 21.5102 73.1114 21.9431 73.6085L23.4264 75.0917H26.5853L23.6749 72.1252H23.6669Z" fill="#3D3D3D"/>
<path fill-rule="evenodd" clip-rule="evenodd" d="M37.1526 72.1252L34.2422 75.0917H37.4011L38.8843 73.6085C39.3173 73.1114 39.63 72.494 39.63 71.8125C39.63 70.3854 38.3311 69.2148 36.904 69.2148H34.3705V71.4437H36.8479C37.0964 71.4437 37.2808 71.6281 37.2808 71.8767C37.2808 71.9969 37.2167 72.0611 37.1606 72.1252H37.1526Z" fill="#3D3D3D"/>
<path fill-rule="evenodd" clip-rule="evenodd" d="M41.3615 72.1252L38.4512 75.0917H41.6101L43.0933 73.6085C43.5263 73.1114 43.839 72.494 43.839 71.8125C43.839 70.3854 42.6043 69.2148 41.1771 69.2148H38.6436C39.6939 69.5275 40.2551 70.5778 40.3112 71.4437H41.0569C41.3054 71.4437 41.4898 71.6281 41.4898 71.8767C41.4898 71.9969 41.4257 72.0611 41.3696 72.1252H41.3615Z" fill="#3D3D3D"/>
<path fill-rule="evenodd" clip-rule="evenodd" d="M86.9653 82.2114H92.9704V93.2275H93.0907C94.5739 90.694 97.0513 89.9483 99.2802 89.9483C105.654 89.9483 107.45 93.909 107.45 99.4812V113.344H101.445V100.596C101.445 96.8835 100.395 95.0876 97.6046 95.0876C94.3254 95.0876 92.9624 96.8835 92.9624 101.526V113.344H86.9573V82.2114H86.9653Z" fill="#3D3D3D"/>
<path fill-rule="evenodd" clip-rule="evenodd" d="M77.4967 106.777L79.5412 113.335H86.1637L75.1476 82.2114H68.5251L57.509 113.335H64.0674L66.1118 106.777H77.4967ZM71.9326 88.9542L76.0135 102.071H67.5951L71.7401 88.9542H71.9246H71.9326Z" fill="#3D3D3D"/>
<path fill-rule="evenodd" clip-rule="evenodd" d="M134.742 113.335H140.555V82.2114H134.742V113.335Z" fill="#3D3D3D"/>
<path fill-rule="evenodd" clip-rule="evenodd" d="M159.115 110.802H159.051C157.624 113.215 154.289 113.961 152.741 113.961C146.247 113.961 142.719 108.388 142.719 101.894C142.719 95.833 146.119 90.0764 152.557 90.0764C154.97 90.0764 157.504 91.255 159.179 92.8585H159.115H159.235V82.2192H164.992V113.343H159.235L159.115 110.81V110.802ZM153.984 94.8388C150.023 94.8388 148.66 98.3665 148.66 102.079C148.66 105.791 150.208 109.318 153.984 109.318C158.009 109.318 159.428 105.727 159.428 102.015C159.428 98.3024 157.88 94.8388 153.984 94.8388Z" fill="#3D3D3D"/>
<path fill-rule="evenodd" clip-rule="evenodd" d="M121.064 89.8203C128.119 89.8203 132.697 94.5827 132.697 101.887C132.697 109.191 128.119 113.953 121.064 113.953C114.008 113.953 109.43 109.191 109.43 101.887C109.43 94.5827 114.008 89.8203 121.064 89.8203ZM121.064 109.375C125.522 109.375 126.877 105.599 126.877 101.887C126.877 98.1746 125.514 94.3983 121.064 94.3983C116.614 94.3983 115.243 98.1746 115.243 101.887C115.243 105.599 116.542 109.375 121.064 109.375Z" fill="#3D3D3D"/>
</g>
<defs>
<clipPath id="clip0_741_1406">
<rect width="150" height="47.9609" fill="white" transform="translate(15 66)"/>
</clipPath>
</defs>
</svg>
