<svg width="180" height="180" viewBox="0 0 180 180" fill="none" xmlns="http://www.w3.org/2000/svg">
<path d="M155.911 80.7915H159.884V99.1185H155.911C155.911 99.0937 155.911 80.7915 155.911 80.7915Z" fill="#3D3D3D"/>
<path d="M148.933 95.3208C148.411 95.8423 147.666 96.1651 146.748 96.1651C145.854 96.1651 145.109 95.8919 144.562 95.3208C144.041 94.7993 143.718 94.0543 143.718 93.2348C143.718 91.5213 144.935 90.3044 146.698 90.3044C147.542 90.3044 148.287 90.5776 148.834 91.1488C149.355 91.6703 149.678 92.4153 149.678 93.2844C149.752 94.0543 149.479 94.7744 148.933 95.3208ZM149.628 97.7544V99.0954H153.602V87.2499H149.628V88.7896L149.305 88.4171C148.461 87.4734 147.12 86.8774 145.68 86.8774C144.09 86.8774 142.7 87.4486 141.582 88.5661C140.365 89.7829 139.72 91.4468 139.72 93.1851C139.72 94.9483 140.415 96.6369 141.582 97.8041C142.7 98.8719 144.14 99.4928 145.729 99.4928C147.269 99.4928 148.933 98.8968 149.603 97.8041L149.628 97.7544Z" fill="#3D3D3D"/>
<path d="M134.107 93.0858V99.0954H138.081V91.7199C138.081 90.0313 137.708 88.8889 136.864 88.0943C136.02 87.2996 135.051 86.8774 133.561 86.8774C131.798 86.8774 130.358 87.4734 129.563 88.8393H129.464V87.2499H125.49V99.0954H129.464V92.9864C129.464 90.4783 130.68 90.0064 131.922 90.0064C133.313 89.9568 134.107 90.6521 134.107 93.0858Z" fill="#3D3D3D"/>
<path d="M121.045 80.6934C120.449 80.6934 119.878 80.9169 119.455 81.339C119.033 81.7612 118.81 82.3075 118.81 82.8787C118.81 83.4747 119.033 84.0459 119.455 84.468C119.878 84.8902 120.424 85.1137 121.045 85.1137C122.262 85.1137 123.28 84.0955 123.28 82.8787C123.28 82.3075 123.056 81.7115 122.634 81.339C122.162 80.9665 121.616 80.6934 121.045 80.6934Z" fill="#3D3D3D"/>
<path d="M119.058 87.2505H123.032V99.096H119.058V87.2505Z" fill="#3D3D3D"/>
<path d="M107.262 81.9595V99.1193H111.261V92.2156H116.525V88.7638H111.261V85.461H117.047V81.9595H107.262Z" fill="#3D3D3D"/>
<path d="M99.0179 95.5938C97.7514 96.6617 96.1869 98.0275 94.3989 98.0275C93.5546 98.0275 92.7599 97.7047 92.1143 97.059C91.4686 96.4133 91.0961 95.5193 91.0961 94.675C91.0961 92.8125 92.7351 91.695 94.0761 90.7513L95.0943 90.056L99.2911 95.3703L99.0179 95.5938ZM93.7781 85.0148C93.7781 83.798 94.7218 82.8792 95.9138 82.8792C96.5098 82.8792 97.0809 83.1027 97.4534 83.4752C97.8259 83.8477 98.0246 84.3195 98.0246 84.8161C98.0246 86.1323 97.0809 86.8277 96.1621 87.523C96.0131 87.6223 95.4668 88.0445 95.4668 88.0445C95.4668 88.0445 94.7714 87.1008 94.7218 87.0263C94.2499 86.5048 93.7781 85.8592 93.7781 85.0148ZM101.278 95.42L103.513 92.8622L102.395 91.9682L100.384 94.3025L96.4601 89.3607L96.3111 89.162L96.5843 88.9633C98.1239 87.8458 99.5146 86.778 99.5146 84.8161C99.5146 83.9718 99.1918 83.2268 98.6206 82.5811C97.9749 81.9355 96.9816 81.563 95.9634 81.563C94.8956 81.563 93.9519 81.9355 93.3063 82.5811C92.6606 83.2268 92.3378 84.1208 92.3378 85.0893C92.3378 86.3558 93.1324 87.4236 93.8774 88.4418L94.1506 88.864L93.7781 89.0875C91.5928 90.5278 89.4819 91.8937 89.4819 94.7247C89.4819 95.9415 89.9538 97.0093 90.7981 97.8536C91.7418 98.7973 93.0331 99.3436 94.4238 99.3436C96.6091 99.3436 98.4219 97.953 99.9616 96.6368L100.16 96.4878L102.122 99.0457H104.134L101.278 95.42Z" fill="#3D3D3D"/>
<path d="M80.9144 83.6235V87.2492H78.8284V90.4527H80.9144V99.0699H84.9125V90.4527H87.371V87.2492H84.9125V83.6235H80.9144Z" fill="#3D3D3D"/>
<path d="M72.6201 89.2616V87.2501H68.6467V99.0956H72.6201V94.3772C72.6201 92.7382 72.9429 90.5032 75.8236 90.5032C76.3451 90.5032 76.8914 90.5529 77.4626 90.7764V87.1011H76.8169C75.1034 87.1011 73.4644 87.7964 72.6697 89.1622L72.6201 89.2616Z" fill="#3D3D3D"/>
<path d="M61.5444 95.3208C61.0229 95.8423 60.2779 96.1651 59.3591 96.1651C58.4403 96.1651 57.7201 95.8919 57.1738 95.3208C56.6523 94.7993 56.3294 94.0543 56.3294 93.2348C56.3294 91.5213 57.5463 90.3044 59.3094 90.3044C60.1538 90.3044 60.8988 90.5776 61.4451 91.1488C61.9666 91.6703 62.2894 92.4153 62.2894 93.2844C62.3143 94.0543 62.0411 94.7744 61.5444 95.3208ZM62.1901 97.7544V99.0954H66.1634V87.2499H62.1901V88.7896L61.8673 88.4171C61.0229 87.4734 59.6819 86.8774 58.1919 86.8774C56.6026 86.8774 55.2119 87.4486 54.0944 88.5661C52.8776 89.7829 52.2319 91.4468 52.2319 93.1851C52.2319 94.9483 52.9273 96.6369 54.0944 97.8041C55.2119 98.8719 56.6523 99.4928 58.2416 99.4928C59.7564 99.4679 61.4451 98.8719 62.1901 97.7544Z" fill="#3D3D3D"/>
<path d="M26.1072 85.9079C25.1635 85.2125 23.8722 84.84 22.9285 84.8897C21.9848 84.8897 21.066 85.5353 21.066 86.479C21.066 87.4972 22.3325 88.0187 23.152 88.2422L24.3688 88.565C26.8273 89.2603 28.6153 90.4275 28.6153 93.184C28.6153 94.8975 28.2428 96.5365 26.8522 97.7037C25.4615 98.8709 23.6487 99.2433 21.8607 99.2433C19.6257 99.2433 17.8128 98.5977 16 97.3808L17.7632 94.1277C18.9303 95.0962 20.321 95.8163 21.9103 95.8163C22.9782 95.8163 24.195 95.121 24.195 93.9539C24.195 92.6874 22.6057 92.0914 21.6372 91.8679C18.7068 91.0732 16.596 90.4275 16.596 87.075C16.596 83.5238 19.2532 81.3882 22.8043 81.3882C24.0212 81.3882 26.0575 81.86 27.7958 82.7292L26.1072 85.9079Z" fill="#3D3D3D"/>
<path d="M44.4341 89.9057C46.3463 89.9057 46.5201 92.1407 46.5201 93.5065V99.1437H50.6176V91.5944C50.6176 90.7004 50.4686 89.9057 50.0961 89.1359C49.3511 87.5465 47.7121 86.9009 46.0483 86.9009C44.608 86.9009 43.2421 87.4224 42.075 89.1359H41.9756C41.1313 87.5962 39.5916 86.9009 37.9278 86.9009C36.4875 86.9009 35.2706 87.4224 34.3021 88.7634H34.1283V87.323H30.1301V99.1685H34.1283V93.4817C34.1283 92.1655 34.327 89.8809 36.2143 89.8809C38.1016 89.8809 38.3003 92.1159 38.3003 93.4817V99.1189H42.3233V93.4817C42.3233 92.1655 42.5716 89.9057 44.4341 89.9057Z" fill="#3D3D3D"/>
<path d="M163.286 96.1157C162.591 96.1157 162.07 96.6372 162.07 97.4319C162.07 98.2266 162.641 98.7481 163.286 98.7481C163.932 98.7481 164.503 98.2266 164.503 97.4319C164.528 96.6869 163.982 96.1157 163.286 96.1157ZM163.286 99.1951C162.343 99.1951 161.523 98.5991 161.523 97.4816C161.523 96.3641 162.368 95.7681 163.286 95.7681C164.18 95.7681 165 96.3641 165 97.4816C165 98.5494 164.205 99.1951 163.286 99.1951ZM163.311 97.2829C163.51 97.2829 163.584 97.2332 163.584 97.0594C163.584 96.8607 163.386 96.8607 163.212 96.8607H162.939V97.3326L163.311 97.2829ZM162.939 98.4004H162.517V96.5379H163.212C163.733 96.5379 164.007 96.6869 164.007 97.1091C164.007 97.4319 163.808 97.5809 163.535 97.6306L164.056 98.4749H163.535L163.063 97.6802H162.864L162.939 98.4004Z" fill="#3D3D3D"/>
</svg>
