<svg width="180" height="180" viewBox="0 0 180 180" fill="none" xmlns="http://www.w3.org/2000/svg">
<g clip-path="url(#clip0_741_326)">
<path d="M69.9008 40C70.3013 40.227 70.7642 40.2626 71.1914 40.4183C74.4355 41.5754 76.5138 44.3879 76.7407 47.8634C76.8831 50.0663 76.4381 52.2068 76.1444 54.3696C76.0331 55.1795 75.953 55.9894 75.9397 56.8082C75.9308 57.1954 76.042 57.2444 76.3981 57.1108C78.0491 56.5012 79.6244 55.7268 81.2265 55.0015C83.7052 53.88 86.2819 53.3594 89.0053 53.7643C92.7746 54.3206 95.6539 57.5114 95.8541 61.3073C95.9876 63.8306 95.2445 66.069 93.7492 68.0716C93.4733 68.4409 93.5089 68.6056 93.8293 68.9216C96.4505 71.4982 97.5674 74.5822 96.5439 78.1823C95.5115 81.827 93.006 84.0565 89.3258 84.9021C86.6601 85.5117 84.1057 84.9866 81.6359 83.9364C78.9747 82.8016 76.3447 81.6045 73.6301 80.2873C80.2207 100.037 86.7847 119.693 93.3665 139.412C91.8356 139.412 90.3671 139.412 88.8941 139.412C88.5826 139.412 88.6182 139.132 88.5559 138.949C87.43 135.531 86.3041 132.109 85.1871 128.687C82.962 121.892 80.7459 115.101 78.5208 108.305C74.302 95.4089 70.0788 82.5168 65.8556 69.6202C63.4348 62.2196 61.0139 54.819 58.5841 47.4229C58.4906 47.1425 58.4684 46.8888 58.5574 46.5951C59.6388 42.9505 62.1887 40.9612 65.78 40.1113C65.8779 40.089 65.998 40.1202 66.0604 40.0045H69.9008V40Z" fill="#3D3D3D"/>
<path d="M19 113.597C19.5785 112.729 20.3573 112.191 21.4075 112.066C21.7146 112.03 22.0172 112.03 22.3065 112.115C22.8716 112.271 23.3345 112.515 23.4858 113.183C23.646 113.882 23.9174 114.554 24.1755 115.359C23.508 114.834 22.9028 114.514 22.1596 114.727C21.7324 114.852 21.3452 115.043 21.3052 115.555C21.2607 116.084 21.5277 116.436 22.0128 116.618C22.3777 116.756 22.747 116.877 23.1164 117.001C25.3148 117.727 26.7344 120.325 26.1648 122.586C25.742 124.268 23.6415 125.189 22.1151 124.357C22.0083 124.299 21.8882 124.259 21.8436 124.121C21.5588 123.254 21.2696 122.386 20.9492 121.407C21.6612 121.87 22.2664 122.248 23.0318 122.048C23.4368 121.941 23.8373 121.807 23.9219 121.327C24.0109 120.828 23.8106 120.423 23.4235 120.112C23.2143 119.943 22.9695 119.823 22.7114 119.765C20.8246 119.342 19.5518 118.247 19 116.369V113.597Z" fill="#3D3D3D"/>
<path d="M87.5279 139.408C86.2151 139.408 84.8979 139.394 83.5851 139.417C83.2424 139.421 83.2202 139.203 83.1534 138.994C82.2678 136.337 81.3867 133.676 80.5011 131.019C77.1323 120.895 73.768 110.771 70.3993 100.647C68.4456 94.7772 66.492 88.903 64.5384 83.0287C64.3337 83.0287 64.3337 83.2067 64.2758 83.318C63.1678 85.3784 62.1131 87.47 60.9471 89.5037C58.8867 93.095 55.914 95.5515 51.7843 96.3703C49.043 96.9132 46.5108 96.397 44.4148 94.4167C42.9017 92.9837 42.1408 91.1458 41.7358 89.1388C41.5356 88.1464 41.4109 87.1362 41.4376 86.1261C41.4465 85.7567 41.3041 85.6009 40.9971 85.4541C39.1903 84.5907 37.6105 83.4293 36.4535 81.7694C33.8902 78.0935 34.3708 73.1895 37.5705 69.9052C39.4484 67.9739 41.7403 66.9325 44.4015 66.6744C46.186 66.5009 47.9749 66.3763 49.8217 66.2294C49.2744 65.3527 48.5801 64.6496 47.8904 63.942C46.3862 62.4023 44.7842 60.9738 43.1999 59.5186C40.7523 57.2757 39.9869 54.4676 41.2418 51.4059C42.8572 47.4542 45.7632 44.9443 50.0709 44.3569C52.9012 43.9697 55.2376 45.1179 57.2001 47.1115C57.3202 47.2317 57.3603 47.383 57.4093 47.5343C60.9293 58.2458 64.4494 68.9529 67.9695 79.6644C71.8456 91.4529 75.7216 103.241 79.5933 115.03C82.1922 122.947 84.7955 130.859 87.3899 138.776C87.4567 138.972 87.568 139.163 87.5279 139.417V139.408Z" fill="#3D3D3D"/>
<path d="M128.394 80.7057C128.438 79.8157 128.75 79.1571 129.618 78.8589C130.521 78.5474 131.104 79.0102 131.58 79.8157C131.62 79.4864 131.638 79.255 131.682 79.0325C131.82 78.3204 132.301 77.9333 132.969 77.7686C133.623 77.6084 134.108 77.8265 134.522 78.4272C134.744 78.7521 134.9 79.1081 135.02 79.4819C135.839 81.974 136.653 84.4706 137.485 86.9582C137.597 87.2875 137.566 87.4299 137.214 87.5278C136.716 87.6613 136.222 87.8126 135.75 88.0173C135.394 88.1686 135.3 88.0218 135.203 87.7236C134.566 85.7522 133.916 83.7808 133.267 81.8094C133.191 81.5735 133.093 81.3465 132.991 81.1196C132.915 80.946 132.786 80.817 132.577 80.8615C132.346 80.9104 132.265 81.1018 132.279 81.3065C132.292 81.5156 132.341 81.7248 132.403 81.9251C133.062 83.9499 133.716 85.9703 134.397 87.9862C134.504 88.3066 134.477 88.4534 134.126 88.5424C133.614 88.6804 133.111 88.8584 132.613 89.0409C132.332 89.1432 132.216 89.072 132.123 88.7917C131.482 86.8158 130.832 84.8488 130.183 82.8774C130.107 82.6415 130.023 82.4057 129.925 82.1787C129.845 81.9918 129.715 81.8316 129.48 81.885C129.217 81.9429 129.164 82.1609 129.181 82.3834C129.199 82.5748 129.253 82.7661 129.311 82.953C129.965 84.9601 130.61 86.9671 131.291 88.9652C131.424 89.3613 131.326 89.4948 130.962 89.5927C130.481 89.7217 130.005 89.8641 129.542 90.051C129.23 90.1757 129.115 90.1089 129.012 89.7974C128.309 87.6213 127.588 85.454 126.876 83.2779C126.587 82.4012 126.329 81.5156 126.004 80.6523C125.871 80.2919 125.995 80.194 126.293 80.105C126.752 79.9714 127.21 79.8335 127.659 79.6599C127.918 79.562 128.038 79.5798 128.105 79.8735C128.167 80.1584 128.287 80.4254 128.385 80.7057H128.394Z" fill="#3D3D3D"/>
<path d="M39.4929 109.543C39.4529 108.813 39.6621 108.212 40.3474 107.847C41.1974 107.398 41.7403 107.567 42.5858 108.59C42.6214 108.354 42.6437 108.154 42.6793 107.954C42.8039 107.233 43.2978 106.752 44.0722 106.597C44.664 106.476 45.1847 106.734 45.5763 107.362C46.0881 108.185 46.2928 109.133 46.5998 110.037C47.2496 111.95 47.8503 113.877 48.5045 115.786C48.638 116.178 48.549 116.298 48.1841 116.391C47.7213 116.511 47.2674 116.672 46.8268 116.85C46.4708 116.992 46.3239 116.921 46.1993 116.534C45.5719 114.54 44.9043 112.56 44.2546 110.571C44.2101 110.437 44.1656 110.299 44.1078 110.174C43.9965 109.939 43.9164 109.618 43.5559 109.747C43.2311 109.863 43.2444 110.166 43.3245 110.428C43.6227 111.394 43.9386 112.355 44.2502 113.312C44.6373 114.491 45.02 115.67 45.425 116.841C45.5318 117.152 45.5051 117.313 45.1491 117.402C44.6507 117.526 44.1567 117.682 43.685 117.878C43.3468 118.016 43.2311 117.922 43.1243 117.602C42.4879 115.63 41.8382 113.659 41.1885 111.692C41.1039 111.443 41.0015 111.194 40.8903 110.953C40.8191 110.797 40.6989 110.686 40.512 110.726C40.3162 110.771 40.2183 110.922 40.1961 111.113C40.1694 111.349 40.2406 111.567 40.3118 111.785C40.9793 113.806 41.6335 115.826 42.3143 117.842C42.43 118.189 42.3989 118.332 42.0162 118.425C41.5 118.55 40.9971 118.737 40.5031 118.928C40.2272 119.035 40.1382 118.946 40.0581 118.697C39.0479 115.599 38.0288 112.502 37.0009 109.405C36.9119 109.142 36.9831 109.066 37.2189 109C37.6951 108.862 38.1757 108.719 38.6341 108.537C38.95 108.412 39.0835 108.492 39.1592 108.804C39.2259 109.08 39.3194 109.347 39.4039 109.618C39.4484 109.663 39.484 109.712 39.4929 109.774C39.5285 109.698 39.5463 109.618 39.4974 109.538L39.4929 109.543Z" fill="#3D3D3D"/>
<path d="M143.56 83.9277C143.146 81.4979 142.332 79.2061 141.179 77.0299C140.988 76.665 140.73 76.3491 140.414 76.0865C139.715 75.5124 138.647 75.637 138.148 76.3491C137.957 76.6161 137.948 76.9454 137.828 77.3103C137.766 77.1412 137.708 77.0433 137.69 76.9409C137.628 76.5004 137.427 76.398 137.009 76.5805C136.622 76.7496 136.217 76.892 135.803 76.9854C135.429 77.07 135.429 77.2435 135.536 77.5417C135.763 78.1781 135.968 78.8189 136.177 79.4597C137.218 82.6238 138.264 85.7834 139.297 88.9474C139.403 89.2812 139.528 89.3613 139.853 89.2367C140.347 89.0453 140.854 88.8807 141.366 88.7383C141.651 88.6537 141.717 88.5514 141.615 88.2577C141.286 87.332 140.992 86.3975 140.681 85.4674C140.952 85.3695 141.041 85.6009 141.183 85.7077C142.096 86.3664 143.324 85.8857 143.529 84.7732C143.578 84.4928 143.609 84.2125 143.56 83.9277ZM140.689 83.5672C140.4 83.674 140.218 83.5049 140.053 83.3091C139.831 83.051 139.688 82.7439 139.568 82.4324C139.221 81.5023 138.878 80.5767 138.678 79.6021C138.642 79.4152 138.62 79.2105 138.656 79.0236C138.736 78.6186 139.154 78.4851 139.475 78.7477C139.541 78.8055 139.599 78.8767 139.644 78.9524C140.325 80.2073 140.694 81.5646 141.005 82.9442C140.992 83.2067 140.988 83.456 140.689 83.5672Z" fill="#3D3D3D"/>
<path d="M107.732 96.4236C106.588 92.9925 105.467 89.557 104.332 86.1259C104.18 85.6542 104.132 84.9734 103.807 84.7865C103.433 84.5684 102.859 85.0001 102.374 85.1469C101.564 85.3917 101.568 85.4095 101.84 86.2328C102.098 87.0204 102.351 87.8037 102.61 88.6002C102.409 88.6314 102.356 88.5201 102.28 88.4578C101.791 88.0262 101.243 87.8482 100.611 88.1063C99.9662 88.3733 99.757 88.9162 99.7214 89.557C99.7125 89.7528 99.708 89.9531 99.7392 90.1444C100.175 92.6276 101.003 94.9684 102.249 97.1623C102.432 97.4872 102.69 97.7587 102.983 97.9945C103.669 98.5597 105.24 98.1903 105.337 97.1801C105.404 97.0733 105.355 96.9443 105.4 96.833C105.418 96.7841 105.386 96.7307 105.422 96.6862C105.444 96.7529 105.484 96.8063 105.533 96.8553C105.742 97.5628 105.742 97.5673 106.432 97.3448C106.77 97.238 107.1 97.1 107.442 97.0199C107.816 96.9309 107.847 96.7707 107.732 96.4236ZM104.31 95.4446C103.949 95.5692 103.74 95.3066 103.602 95.0307C102.974 93.7891 102.587 92.4674 102.302 91.1146C102.298 90.8387 102.343 90.6117 102.636 90.5094C102.912 90.4114 103.077 90.5806 103.233 90.7541C103.326 90.8565 103.411 90.9811 103.464 91.1057C103.962 92.2449 104.367 93.4153 104.612 94.6391C104.679 94.964 104.706 95.3066 104.31 95.4446Z" fill="#3D3D3D"/>
<path d="M27.2372 113.552C27.3441 112.823 27.4776 112.164 28.1851 111.821C28.8037 111.519 29.4757 111.688 29.9563 112.253C30.2589 112.609 30.4725 113.018 30.6194 113.459C31.4382 115.933 32.2481 118.412 33.0759 120.882C33.1916 121.224 33.1337 121.38 32.7777 121.474C32.2793 121.607 31.7853 121.754 31.3091 121.945C30.9798 122.079 30.8908 121.972 30.7929 121.669C30.1432 119.662 29.4757 117.66 28.8126 115.657C28.7414 115.439 28.6568 115.221 28.5545 115.017C28.4833 114.874 28.3676 114.736 28.1762 114.785C27.9893 114.834 27.8781 114.963 27.8514 115.163C27.8158 115.421 27.9048 115.653 27.9849 115.889C28.6435 117.891 29.3021 119.894 29.9741 121.892C30.0809 122.212 30.1031 122.39 29.6893 122.475C29.2087 122.577 28.7414 122.764 28.2786 122.947C27.9537 123.076 27.8069 123.031 27.6867 122.662C26.899 120.214 26.0891 117.776 25.2836 115.337C24.8386 113.989 24.398 112.64 23.9441 111.296C23.8418 110.989 23.8596 110.82 24.2156 110.727C24.6962 110.602 25.1724 110.455 25.6307 110.264C26.0046 110.112 26.1514 110.197 26.2627 110.58C26.5252 111.483 26.8323 112.369 27.126 113.259C27.1571 113.352 27.2016 113.446 27.2372 113.539V113.552Z" fill="#3D3D3D"/>
<path d="M70.3503 109.115C69.8341 109.244 69.3313 109.422 68.8328 109.605C68.548 109.712 68.4056 109.672 68.2588 109.387C67.7826 108.452 67.2753 107.54 66.7724 106.623C66.6923 106.485 66.6834 106.272 66.412 106.241C66.7769 107.349 67.1151 108.439 67.4978 109.507C67.6446 109.908 67.569 110.063 67.1596 110.161C66.679 110.277 66.2028 110.437 65.7489 110.628C65.4196 110.762 65.3261 110.642 65.2327 110.357C63.9866 106.552 62.7361 102.747 61.4723 98.9468C61.361 98.622 61.4055 98.484 61.7526 98.395C62.2689 98.2615 62.7717 98.088 63.2701 97.8966C63.5639 97.7809 63.6529 97.8565 63.7463 98.1458C64.2981 99.8458 64.8677 101.541 65.4329 103.241C65.473 103.366 65.513 103.49 65.5887 103.717C65.651 103.419 65.6198 103.272 65.5353 103.13C65.3884 102.169 65.2549 101.199 65.0858 100.242C65.0324 99.9259 65.1259 99.8013 65.4196 99.7167C66.0292 99.5432 66.63 99.334 67.2931 99.1159C67.4533 100.429 67.6224 101.701 67.7514 102.979C67.8227 103.677 67.9829 104.314 68.3745 104.919C69.1354 106.094 69.8119 107.322 70.5506 108.515C70.7598 108.848 70.7909 109.009 70.3503 109.115Z" fill="#3D3D3D"/>
<path d="M150.551 72.94C150.604 72.2635 150.956 71.823 151.61 71.6316C152.264 71.4403 152.754 71.7117 153.159 72.1923C153.497 72.5884 153.702 73.0646 153.862 73.5541C154.654 75.9616 155.428 78.3736 156.238 80.7767C156.363 81.1416 156.301 81.2707 155.945 81.3686C155.446 81.5021 154.957 81.6578 154.48 81.8492C154.151 81.9827 154.062 81.8714 153.969 81.5733C153.31 79.5351 152.634 77.4969 151.948 75.4677C151.837 75.1428 151.801 74.5687 151.316 74.7245C150.782 74.8936 151.045 75.4009 151.165 75.7747C151.815 77.7595 152.46 79.7487 153.128 81.729C153.257 82.1028 153.248 82.2986 152.812 82.401C152.313 82.5211 151.828 82.6992 151.348 82.8816C151.094 82.9795 150.978 82.9395 150.894 82.6725C149.888 79.5885 148.878 76.509 147.859 73.4295C147.765 73.1447 147.796 73.0201 148.099 72.9355C148.611 72.7931 149.122 72.6329 149.612 72.4326C149.955 72.2947 150.084 72.3926 150.155 72.7175C150.204 72.94 150.288 73.158 150.36 73.3761C150.662 73.336 150.426 73.0557 150.551 72.94Z" fill="#3D3D3D"/>
<path d="M126.974 86.3084C126.56 84.8576 126.169 83.3891 125.225 82.1653C124.446 81.1462 123.441 80.8748 122.19 81.302C121.029 81.6936 120.352 82.5436 120.401 83.7852C120.499 86.2505 121.3 88.5068 122.702 90.536C123.089 91.1012 123.623 91.5195 124.34 91.6352C126.022 91.9111 127.357 90.6473 127.366 88.6002C127.357 87.9282 127.201 87.1094 126.974 86.3084ZM124.74 88.8183C124.389 88.9429 124.139 88.7515 123.988 88.4712C123.343 87.283 122.938 86.0058 122.729 84.6707C122.68 84.3548 122.804 84.0611 123.151 83.9632C123.507 83.8608 123.739 84.0833 123.886 84.3592C124.509 85.5207 124.856 86.7801 125.114 87.9505C125.11 88.3777 125.092 88.6892 124.74 88.8183Z" fill="#3D3D3D"/>
<path d="M100.518 95.6712C100.126 93.9757 99.7036 92.2891 98.7067 90.825C97.9057 89.6591 96.9 89.3253 95.6094 89.7436C94.3233 90.1575 93.7092 91.0253 93.7136 92.5561C93.8071 94.0736 94.3189 95.6134 94.9552 97.122C95.3157 97.9764 95.7429 98.7863 96.4282 99.4361C97.1314 100.108 97.9413 100.308 98.8714 99.9879C99.8415 99.6541 100.451 99.0177 100.638 97.9898C100.785 97.2021 100.691 96.4278 100.518 95.6712ZM98.057 97.2822C97.7054 97.3934 97.4696 97.211 97.3138 96.9262C96.673 95.7513 96.2858 94.4875 96.0678 93.1747C96.0144 92.8676 96.1034 92.5695 96.4549 92.4404C96.7887 92.3158 97.0157 92.4938 97.1625 92.7475C97.8523 93.9401 98.1905 95.2529 98.462 96.588C98.4353 96.895 98.3908 97.1754 98.057 97.2822Z" fill="#3D3D3D"/>
<path d="M94.2298 97.1489C93.8382 95.618 93.4288 94.0916 92.4943 92.7744C91.9602 92.0267 91.2616 91.5639 90.2914 91.6084C88.4936 91.693 87.4211 92.9123 87.5679 94.7146C87.7815 96.6638 88.4001 98.4795 89.3124 100.206C89.5483 100.642 89.842 101.043 90.198 101.399C90.8878 102.089 91.6888 102.347 92.6278 102.044C93.5934 101.737 94.2565 101.136 94.4612 100.099C94.6615 99.0936 94.479 98.1145 94.2298 97.1489ZM91.9202 99.2983C91.533 99.4496 91.3016 99.2048 91.137 98.9245C90.5985 98.0166 90.3448 96.9976 90.0556 96.0007C89.9755 95.7293 89.9443 95.4444 89.9132 95.302C89.9043 94.8437 89.971 94.5544 90.327 94.4521C90.6652 94.3542 90.8833 94.55 91.0257 94.8036C91.6754 95.974 92.0537 97.2423 92.2807 98.5551C92.3341 98.8622 92.2584 99.1692 91.9202 99.2983Z" fill="#3D3D3D"/>
<path d="M58.4774 109.227C58.0947 107.638 57.6853 106.054 56.7819 104.661C55.9452 103.37 54.8861 103.005 53.4888 103.482C52.2205 103.918 51.6464 104.874 51.7354 106.356C51.8377 108.07 52.4296 109.645 53.1105 111.194C53.4398 111.946 53.8626 112.644 54.4811 113.201C54.8683 113.557 55.3044 113.806 55.8518 113.828C57.5873 113.895 58.6999 112.756 58.6954 110.913C58.6954 110.339 58.6109 109.779 58.4774 109.227ZM56.0476 111.002C55.7227 111.118 55.478 110.936 55.3356 110.677C54.6769 109.476 54.2453 108.19 54.0628 106.828C54.0272 106.534 54.1162 106.25 54.4455 106.143C54.7704 106.04 55.0063 106.201 55.1576 106.468C55.8473 107.66 56.1855 108.978 56.4481 110.183C56.4437 110.62 56.3591 110.891 56.0476 111.002Z" fill="#3D3D3D"/>
<path d="M149.91 82.8458C149.225 80.8344 148.566 78.8096 147.903 76.7892C147.707 76.1973 147.498 75.6143 147.142 75.0981C146.23 73.772 144.57 73.5094 143.324 74.533C142.768 74.9913 142.287 75.6232 142.381 76.3397C142.483 77.1408 142.857 77.9062 143.128 78.7473C143.578 77.697 143.827 77.2921 144.241 76.9939C144.606 76.7313 145.02 76.5667 145.407 76.9049C145.785 77.2342 145.678 77.6525 145.442 78.0174C145.18 78.4179 144.873 78.7873 144.588 79.1745C143.484 80.6697 143.595 82.6945 144.842 84.0696C145.264 84.5369 145.758 84.7995 146.404 84.6526C147.058 84.5013 147.369 84.0385 147.485 83.4155C147.534 83.3443 147.521 83.2553 147.547 83.1796C147.645 82.9482 147.614 83.2597 147.667 83.2108C147.703 83.3087 147.756 83.4066 147.774 83.5089C147.836 83.9272 148.032 84.0207 148.424 83.8427C148.793 83.678 149.185 83.5401 149.581 83.4511C149.964 83.3665 150.044 83.233 149.91 82.8458ZM146.684 81.9113C146.337 82.0048 146.234 81.7111 146.11 81.4797C145.758 80.8032 146.119 80.2781 146.501 79.7218C146.706 80.247 146.92 80.7498 146.964 81.2972C146.982 81.5464 146.987 81.8268 146.684 81.9113Z" fill="#3D3D3D"/>
<path d="M39.0791 118.923C38.5673 117.428 38.0912 115.924 37.5838 114.433C37.2412 113.428 37.0187 112.377 36.4891 111.443C35.964 110.522 35.2119 109.907 34.086 109.974C32.9601 110.045 32.1458 110.606 31.7096 111.661C31.6028 111.914 31.4026 112.146 31.5138 112.462C31.7719 113.209 32.0167 113.962 32.2704 114.723C32.4573 114.571 32.4617 114.358 32.5463 114.188C32.7688 113.735 33.0135 113.303 33.4363 113.014C33.7879 112.769 34.1928 112.613 34.5622 112.942C34.9316 113.272 34.847 113.686 34.6067 114.055C34.3219 114.482 33.9926 114.878 33.69 115.297C32.5952 116.801 32.791 118.964 34.1394 120.259C34.5666 120.672 35.0606 120.85 35.648 120.677C36.2444 120.499 36.5425 120.076 36.6271 119.475C36.7339 119.395 36.5247 119.133 36.8095 119.15C36.854 119.288 36.9074 119.422 36.9341 119.56C37.0009 119.987 37.2145 120.054 37.5972 119.885C37.9844 119.72 38.3938 119.582 38.8032 119.484C39.1681 119.4 39.1859 119.244 39.0791 118.923ZM35.8483 117.958C35.5012 118.069 35.4077 117.766 35.2831 117.531C34.9227 116.872 35.252 116.351 35.6792 115.768C35.8572 116.32 36.0619 116.787 36.1331 117.295C36.1732 117.571 36.1554 117.855 35.8483 117.958Z" fill="#3D3D3D"/>
<path d="M160.666 82.3833C160.137 82.5257 159.612 82.6992 159.1 82.895C158.828 83.0018 158.762 82.9173 158.726 82.6725C158.655 82.1652 158.539 81.6579 158.499 81.1461C158.437 80.4029 158.165 79.7488 157.814 79.1035C156.448 76.5936 155.112 74.0704 153.746 71.5605C153.559 71.2134 153.604 71.1021 153.978 71.0042C154.458 70.8841 154.93 70.7194 155.393 70.537C155.713 70.4079 155.842 70.4969 155.971 70.8084C156.617 72.3793 157.289 73.9458 157.952 75.5122C158.001 75.6413 158.045 75.7748 158.116 75.975C158.17 75.7125 158.161 75.5478 158.041 75.4054C157.64 73.7856 157.257 72.1657 156.83 70.5548C156.737 70.1943 156.795 70.0519 157.155 69.9584C157.582 69.8516 158.014 69.7226 158.414 69.5357C158.828 69.3488 158.908 69.5179 158.971 69.8872C159.362 72.2859 159.772 74.68 160.172 77.0787C160.439 78.6718 160.697 80.265 160.982 81.8537C161.04 82.1697 160.978 82.2987 160.666 82.3833Z" fill="#3D3D3D"/>
<path d="M85.3252 91.328C85.5032 91.2791 85.5299 91.417 85.5699 91.5327C85.7969 92.2225 86.0016 92.9167 86.2508 93.602C86.3487 93.8691 86.2018 93.9047 86.0283 93.9625C85.4542 94.1494 84.889 94.3497 84.3105 94.5143C83.9679 94.6122 83.9056 94.7635 84.0346 95.0839C84.2304 95.5779 84.2482 96.2944 84.5998 96.5258C84.9647 96.7661 85.5655 96.2988 86.0683 96.152C86.9984 95.8761 87.0073 95.8583 87.2832 96.7661C87.4523 97.3179 87.9508 97.9676 87.7149 98.386C87.5057 98.7553 86.7136 98.7998 86.1796 98.9778C85.4142 99.2359 85.4142 99.2315 85.6678 99.9969C86.0416 101.123 86.3976 102.258 86.7893 103.379C86.9005 103.699 86.8338 103.811 86.5222 103.9C85.9927 104.047 85.472 104.225 84.9558 104.416C84.6843 104.518 84.5953 104.434 84.5108 104.176C83.3048 100.491 82.0899 96.8062 80.8706 93.1214C80.7993 92.9123 80.8038 92.8144 81.0352 92.7387C82.4326 92.2893 83.8299 91.8264 85.2273 91.3681C85.2629 91.3592 85.294 91.3414 85.3252 91.328Z" fill="#3D3D3D"/>
<path d="M119.711 84.3189C119.258 84.0074 118.924 83.776 118.523 83.6737C117.713 83.4645 117.05 83.9184 116.966 84.7462C116.926 85.1378 116.966 85.5249 117.055 85.9121C117.322 87.1314 117.696 88.3107 118.274 89.4188C118.572 89.9884 118.91 90.5892 119.685 90.5314C120.464 90.4735 120.837 89.9083 121.06 89.2275C121.082 89.1607 121.118 89.0984 121.18 88.9605C121.474 89.846 121.741 90.6693 122.021 91.4926C122.083 91.6706 121.99 91.8041 121.919 91.9421C121.087 93.5797 119.017 93.9802 117.633 92.7698C116.979 92.1957 116.521 91.4748 116.178 90.6916C115.226 88.5243 114.358 86.326 114.385 83.9051C114.411 81.7379 116.441 80.4651 118.434 81.3329C118.683 81.4397 118.826 81.5866 118.906 81.8536C119.142 82.6457 119.413 83.4245 119.711 84.3234V84.3189Z" fill="#3D3D3D"/>
<path d="M107.959 93.5084C108.413 93.6642 108.733 93.8689 109.116 93.8823C109.712 93.9045 110.188 93.593 110.242 93.1302C110.299 92.614 109.935 92.1734 109.347 92.0577C109.138 92.0176 108.929 91.982 108.715 91.9598C107.794 91.8752 107.167 91.3813 106.779 90.5713C106.299 89.5612 106.009 88.5065 106.281 87.3761C106.628 85.9387 108.337 85.1555 109.672 85.8097C109.846 85.8942 109.952 86.0055 110.015 86.1879C110.259 86.9445 110.509 87.701 110.776 88.5198C110.486 88.3596 110.255 88.2217 110.015 88.1104C109.636 87.9324 109.249 87.968 108.88 88.1371C108.604 88.2617 108.408 88.4575 108.421 88.7868C108.435 89.1161 108.559 89.3876 108.884 89.4944C109.169 89.5879 109.463 89.6546 109.761 89.7036C110.851 89.8905 111.603 90.4957 112.022 91.5103C112.333 92.2713 112.533 93.059 112.489 93.8912C112.395 95.5956 110.535 96.7126 108.991 95.9872C108.84 95.916 108.72 95.8314 108.666 95.6668C108.444 94.9814 108.217 94.2961 107.959 93.5084Z" fill="#3D3D3D"/>
<path d="M62.3712 104.487C62.0953 104.22 61.9084 104.082 61.6903 104.011C60.9427 103.766 60.2529 104.211 60.3152 104.99C60.4131 106.241 60.7869 107.433 61.4901 108.479C61.9173 109.111 62.6872 109.049 63.1366 108.421C63.3013 108.19 63.3458 107.914 63.4615 107.594C63.7374 108.421 63.9911 109.191 64.2492 109.961C64.3159 110.166 64.2581 110.339 64.1691 110.522C63.4214 112.097 61.4144 112.373 60.3019 111.034C59.3629 109.903 58.9357 108.519 58.4907 107.153C58.1169 106.005 57.792 104.848 57.8365 103.615C57.9166 101.532 60.1016 101.025 61.2854 101.715C61.4055 101.786 61.5524 101.831 61.6013 101.982C61.8639 102.765 62.1843 103.531 62.3712 104.483V104.487Z" fill="#3D3D3D"/>
<path d="M48.994 106.116C49.0029 105.813 48.9851 105.511 49.1053 105.226C49.2789 104.821 49.6215 104.741 50.0176 104.723C50.4092 104.705 50.4136 104.99 50.4937 105.23C50.783 106.103 51.0678 106.97 51.3615 107.856C50.3691 107.869 50.0843 108.154 50.1466 109.102C50.2134 110.161 50.6628 111.122 50.9744 112.119C51.2458 113 51.5351 113.877 51.851 114.745C51.9712 115.078 51.8866 115.208 51.5662 115.297C51.0545 115.439 50.5471 115.608 50.0487 115.79C49.804 115.879 49.6794 115.862 49.5859 115.577C48.5757 112.475 47.5522 109.378 46.5242 106.285C46.4441 106.045 46.4753 105.933 46.7334 105.876C46.9737 105.822 47.2051 105.724 47.4409 105.649C47.7925 105.533 48.2064 105.257 48.4867 105.355C48.7938 105.462 48.7493 106.005 48.9095 106.338C49.0563 106.432 49.0252 106.601 49.0741 106.734C49.083 106.81 49.1587 106.877 49.1409 106.917C49.1231 106.85 49.083 106.743 49.0519 106.632C49.0029 106.463 49.083 106.285 49.0029 106.12L48.994 106.116Z" fill="#3D3D3D"/>
<path d="M105.337 97.1799V96.499C105.502 96.5969 105.56 96.7037 105.538 96.855C105.369 96.8995 105.453 97.0998 105.337 97.1799Z" fill="#3D3D3D"/>
<path d="M150.551 72.9399C150.551 73.109 150.564 73.2826 150.56 73.4517C150.56 73.5185 150.591 73.652 150.44 73.5986C150.346 73.563 150.342 73.4695 150.355 73.3805C150.547 73.2915 150.4 73.0512 150.547 72.9444L150.551 72.9399Z" fill="#3D3D3D"/>
<path d="M147.485 83.4155V82.8281C147.627 82.9572 147.676 83.0729 147.667 83.2108C147.605 83.2776 147.547 83.3488 147.485 83.4155Z" fill="#3D3D3D"/>
<path d="M36.6271 119.48V118.906C36.8051 118.91 36.8184 119.026 36.8095 119.155C36.6449 119.204 36.7517 119.409 36.6271 119.48Z" fill="#3D3D3D"/>
<path d="M49.0074 106.743C48.9718 106.605 48.9362 106.467 48.905 106.329C48.9362 106.258 48.9673 106.187 48.9985 106.111C49.1097 106.28 49.0875 106.472 49.1053 106.654C49.1231 106.681 49.132 106.712 49.1186 106.73C49.0875 106.779 49.0474 106.757 49.0118 106.739L49.0074 106.743Z" fill="#3D3D3D"/>
<path d="M39.493 109.542C39.5998 109.636 39.6487 109.818 39.5597 109.854C39.444 109.903 39.404 109.738 39.3995 109.618C39.4307 109.591 39.4618 109.569 39.493 109.542Z" fill="#3D3D3D"/>
<path d="M49.0074 106.743C49.0386 106.717 49.0697 106.685 49.1009 106.659C49.2211 106.783 49.2211 106.926 49.1587 107.184C49.092 106.984 49.0475 106.863 49.0074 106.743Z" fill="#3D3D3D"/>
</g>
<defs>
<clipPath id="clip0_741_326">
<rect width="142" height="99.4165" fill="white" transform="translate(19 40)"/>
</clipPath>
</defs>
</svg>
