<svg width="180" height="180" viewBox="0 0 180 180" fill="none" xmlns="http://www.w3.org/2000/svg">
<g clip-path="url(#clip0_741_3684)">
<path d="M89.3619 25.0027C72.6003 25.1557 56.8102 31.6342 44.7408 43.3454C32.2786 55.4353 25.271 71.6512 25.0083 89.012C24.7444 106.377 31.256 122.8 43.3459 135.26C55.4345 147.722 71.6517 154.73 89.0138 154.993C106.373 155.256 122.797 148.745 135.259 136.655C147.72 124.563 154.729 108.344 154.992 90.9858C155.256 73.6262 148.744 57.2025 136.653 44.7403C124.564 32.2781 108.347 25.2705 90.9863 25.0078C90.4449 24.9995 89.9034 24.9978 89.3619 25.0027ZM89.3836 27.2787C89.9063 27.2739 90.4291 27.2756 90.9519 27.2838C107.703 27.5375 123.354 34.299 135.02 46.3264C146.686 58.35 152.972 74.1987 152.717 90.9501C152.462 107.704 145.701 123.353 133.674 135.019C121.65 146.686 105.801 152.969 89.0482 152.715C72.2943 152.463 56.6458 145.699 44.9792 133.673C33.3139 121.648 27.028 105.799 27.283 89.0477C27.538 72.2951 34.2995 56.6453 46.3244 44.9813C57.9756 33.6781 73.2123 27.4279 89.3836 27.2787ZM89.9854 47.1399C66.2787 47.1399 47.0613 66.3585 47.0613 90.0652C47.0613 113.771 66.2787 132.988 89.9854 132.988C113.691 132.988 132.908 113.771 132.908 90.0652C132.908 66.3585 113.691 47.1399 89.9854 47.1399ZM37.4769 93.6825C36.4824 93.6825 35.6714 94.4921 35.6714 95.4841C35.6712 95.8406 35.7767 96.1892 35.9745 96.4858C36.1723 96.7824 36.4537 97.0137 36.7829 97.1505C37.1122 97.2872 37.4746 97.3232 37.8244 97.254C38.1741 97.1848 38.4955 97.0134 38.7478 96.7616C39.0002 96.5098 39.1722 96.1888 39.2422 95.8392C39.3122 95.4896 39.2769 95.1271 39.1409 94.7975C39.0048 94.468 38.7741 94.1861 38.478 93.9877C38.1818 93.7892 37.8334 93.683 37.4769 93.6825ZM142.741 93.6825C141.745 93.6825 140.935 94.4921 140.935 95.4841C140.934 95.8406 141.04 96.1891 141.237 96.4857C141.435 96.7823 141.716 97.0136 142.046 97.1503C142.375 97.2871 142.737 97.3232 143.087 97.2541C143.437 97.185 143.758 97.0137 144.01 96.762C144.263 96.5103 144.435 96.1894 144.505 95.8399C144.575 95.4904 144.54 95.128 144.404 94.7984C144.268 94.4688 144.038 94.1869 143.742 93.9883C143.446 93.7897 143.098 93.6833 142.741 93.6825Z" fill="#3D3D3D"/>
<path d="M93.1436 31.3188L86.1602 31.3826C86.0829 31.3828 86.0064 31.3984 85.9352 31.4286C85.864 31.4589 85.7997 31.503 85.7458 31.5586C85.6922 31.613 85.6498 31.6776 85.6212 31.7485C85.5925 31.8194 85.5781 31.8952 85.5788 31.9717L85.6681 41.7831C85.6684 41.9372 85.7298 42.0848 85.8387 42.1938C85.9477 42.3028 86.0954 42.3641 86.2495 42.3645L93.2418 42.302C93.3968 42.2997 93.5447 42.2364 93.6534 42.126C93.7622 42.0155 93.8232 41.8667 93.8232 41.7117L93.8117 40.568C93.8097 40.4138 93.7472 40.2667 93.6378 40.1582C93.5283 40.0496 93.3806 39.9885 93.2265 39.9878L88.0141 40.0363L87.995 37.9758L92.6246 37.9337C92.7017 37.9331 92.7778 37.9172 92.8486 37.887C92.9195 37.8568 92.9837 37.8128 93.0375 37.7577C93.0913 37.7026 93.1336 37.6374 93.1621 37.5659C93.1906 37.4943 93.2047 37.4178 93.2035 37.3408L93.1946 36.1984C93.1929 36.0444 93.1307 35.8972 93.0215 35.7887C92.9122 35.6801 92.7646 35.6189 92.6106 35.6183L87.972 35.6603L87.9567 33.6777L93.164 33.6292C93.2407 33.6292 93.3167 33.6138 93.3874 33.584C93.4581 33.5543 93.5222 33.5107 93.5758 33.4558C93.6303 33.401 93.6732 33.336 93.7021 33.2643C93.731 33.1927 93.7453 33.1161 93.7441 33.0389L93.7352 31.9003C93.7335 31.7459 93.6712 31.5984 93.5617 31.4896C93.4522 31.3809 93.3043 31.3195 93.15 31.3188H93.1436ZM98.4643 31.9372C98.3316 31.9376 98.2029 31.9826 98.0989 32.0649C97.9948 32.1472 97.9214 32.2621 97.8905 32.3912C97.8593 32.5191 97.8737 32.654 97.9313 32.7724L100.461 37.9223L95.7255 41.5944C95.6272 41.6758 95.5575 41.7866 95.5266 41.9106C95.4932 42.0653 95.522 42.227 95.607 42.3607C95.6453 42.4244 95.6959 42.4799 95.7559 42.5239C95.8159 42.5679 95.884 42.5995 95.9563 42.6169L97.2211 42.9089C97.2801 42.9228 97.3404 42.9297 97.4009 42.9293C97.6277 42.9307 97.849 42.8592 98.0321 42.7253L101.482 40.0171L103.395 43.9672C103.463 44.0928 103.555 44.2035 103.667 44.2929C103.778 44.3822 103.906 44.4484 104.044 44.4874L105.298 44.7768L105.305 44.7794L105.328 44.7819C105.476 44.8073 105.628 44.775 105.753 44.6918C105.878 44.6086 105.966 44.4807 106 44.3344C106.031 44.2 106.013 44.0588 105.949 43.9366C105.087 42.1521 104.224 40.3679 103.36 38.584L105.293 37.0795C106.515 36.1283 107.818 35.1134 107.855 35.0866C107.965 35.0038 108.043 34.8845 108.073 34.75C108.108 34.598 108.081 34.4384 107.999 34.3061C107.916 34.1738 107.785 34.0794 107.633 34.0436L106.409 33.7593C106.35 33.7468 106.29 33.7404 106.229 33.7401C105.998 33.7401 105.758 33.8166 105.597 33.939L102.326 36.4891L100.497 32.7584C100.428 32.6334 100.335 32.5234 100.224 32.435C100.112 32.3465 99.9838 32.2813 99.8464 32.2432L98.5944 31.9538C98.5517 31.9438 98.5081 31.9374 98.4643 31.9372ZM70.4174 34.6837C70.3373 34.685 70.258 34.6996 70.1828 34.727L69.3043 35.0509C69.1687 35.1062 69.0502 35.1965 68.9608 35.3125C68.8714 35.4285 68.8144 35.5661 68.7955 35.7113L68.6361 37.5079L67.8201 46.6664C67.8095 46.7607 67.8234 46.8562 67.8604 46.9435C67.8975 47.0309 67.9565 47.1072 68.0318 47.165C68.1368 47.2449 68.2658 47.2867 68.3977 47.2836C68.4569 47.2831 68.5156 47.2723 68.5711 47.2517L69.7977 46.799C69.9335 46.743 70.0521 46.652 70.1414 46.5353C70.2308 46.4187 70.2877 46.2805 70.3064 46.1348L70.4696 44.2477L75.2791 42.4703L76.6281 43.7976C76.7902 43.9431 77.0019 44.0211 77.2197 44.0156C77.2975 44.0134 77.3744 43.9993 77.4479 43.9736L78.6719 43.5222C78.7614 43.4878 78.8407 43.4315 78.9026 43.3584C78.9646 43.2853 79.0071 43.1978 79.0264 43.104C79.0462 43.0111 79.0418 42.9146 79.0134 42.8239C78.985 42.7332 78.9337 42.6514 78.8645 42.5863C78.7892 42.5137 71.4782 35.3594 70.9975 34.9004L71.0001 34.8979C70.8412 34.754 70.6316 34.6772 70.4174 34.6837ZM111.57 35.3875C111.531 35.3894 111.492 35.3971 111.454 35.4104C111.291 35.4665 111.16 35.6221 111.013 35.9281C110.958 36.0405 110.919 36.1597 110.896 36.2826C110.781 36.9188 111.142 37.4938 111.453 37.7769L107.921 45.1249C107.9 45.1705 107.885 45.2184 107.877 45.2677C107.854 45.3907 107.873 45.5176 107.93 45.6291C107.986 45.7405 108.078 45.8303 108.19 45.8848L109.293 46.4153C109.36 46.4481 109.433 46.4673 109.507 46.4717C109.582 46.476 109.656 46.4655 109.727 46.4408C109.798 46.4161 109.863 46.3775 109.919 46.3271C109.975 46.2767 110.02 46.2156 110.052 46.1475L111.31 43.5299L113.214 44.4466C114.258 44.9477 115.353 45.116 116.297 44.9222C117.395 44.6952 118.253 43.9965 118.781 42.9013L118.793 42.8758C118.944 42.5644 119.053 42.2342 119.116 41.894C119.425 40.1956 118.434 38.6171 116.469 37.6736L111.867 35.464C111.776 35.4135 111.673 35.3871 111.569 35.3875H111.57ZM70.9223 38.0791L73.4532 40.6547L70.6749 41.6811L70.9223 38.0791ZM113.561 38.8416L115.468 39.757C116.428 40.2186 116.891 40.8434 116.769 41.5128C116.744 41.6429 116.702 41.7693 116.645 41.8889L116.632 41.9144C116.547 42.0978 116.418 42.2579 116.257 42.3811C116.097 42.5043 115.909 42.5869 115.709 42.622C115.268 42.7113 114.753 42.6195 114.217 42.3632L112.311 41.4477L113.561 38.8416ZM59.9583 40.6904C58.7712 40.712 57.5816 41.1239 56.5144 41.8838L52.6204 44.6506C52.521 44.7207 52.4011 44.8227 52.3731 44.9872C52.3476 45.1555 52.4177 45.3442 52.6128 45.6222C52.9953 46.1615 53.5818 46.2317 53.8955 46.2253C54.0818 46.223 54.2668 46.192 54.4437 46.1335L59.169 52.7764C59.2124 52.8374 59.2674 52.8891 59.3308 52.9288C59.3942 52.9685 59.4649 52.9952 59.5387 53.0076C59.6125 53.0199 59.688 53.0175 59.7608 53.0006C59.8337 52.9837 59.9025 52.9526 59.9634 52.909L62.8794 50.8371C65.6118 48.8952 66.2557 45.6031 64.412 43.0084L64.3941 42.9841C63.3358 41.4949 61.7191 40.6585 59.957 40.6891L59.9583 40.6904ZM123.792 42.1158C123.702 42.1124 123.612 42.13 123.53 42.1672C123.449 42.2044 123.376 42.2602 123.32 42.33L117.081 49.9267C116.986 50.0433 116.94 50.1929 116.955 50.3428C116.969 50.4928 117.042 50.631 117.158 50.7274L118.105 51.5039C118.202 51.583 118.322 51.6279 118.447 51.6314C118.534 51.6347 118.621 51.6178 118.7 51.582C118.78 51.5461 118.85 51.4924 118.906 51.4249L121.004 48.8748L122.619 50.2008L122.473 54.6227C122.475 54.7658 122.507 54.9069 122.566 55.0369C122.626 55.167 122.713 55.283 122.82 55.3775L123.84 56.2139C123.941 56.2977 124.067 56.3457 124.198 56.3503C124.287 56.3534 124.375 56.3359 124.456 56.2992C124.537 56.2625 124.608 56.2075 124.664 56.1387C124.746 56.0374 124.793 55.9121 124.799 55.7817L124.937 51.4899C125.249 51.5763 125.571 51.6263 125.895 51.6391C126.636 51.6633 127.698 51.4759 128.55 50.438L128.569 50.4125C129.198 49.6475 129.454 48.7549 129.309 47.828C129.148 46.8207 128.505 45.83 127.447 44.9617L124.138 42.2459C124.04 42.1657 123.918 42.12 123.792 42.1158ZM59.8869 43.0594C60.9069 43.0415 61.8479 43.5273 62.4624 44.3943L62.4803 44.416C63.5551 45.9282 63.1701 47.7948 61.5406 48.9551L60.0858 49.9879L56.3984 44.7985L57.8519 43.7657C58.4856 43.3169 59.1894 43.0721 59.8869 43.0594ZM124.054 45.1657L125.884 46.669C127.317 47.8446 127.102 48.4834 126.755 48.9067L126.739 48.9258C126.632 49.0638 126.494 49.1739 126.335 49.2467C126.176 49.3195 126.002 49.3529 125.828 49.344C125.397 49.33 124.901 49.1018 124.392 48.6848L122.462 47.1012L124.054 45.1657ZM48.9381 48.1888C48.8615 48.1921 48.7862 48.2108 48.717 48.2439C48.6477 48.277 48.5859 48.3237 48.5352 48.3814L47.7511 49.2854C47.7016 49.3418 47.664 49.4075 47.6404 49.4786C47.6167 49.5498 47.6075 49.625 47.6134 49.6998C47.618 49.7745 47.6377 49.8476 47.6712 49.9147C47.7048 49.9817 47.7514 50.0413 47.8084 50.0899L52.3922 54.068L44.1657 53.9443H44.121C43.8539 53.9637 43.6037 54.0824 43.4198 54.2771L42.9047 54.8726C42.8081 54.9877 42.7601 55.1359 42.7708 55.2858C42.7815 55.4357 42.8501 55.5756 42.962 55.6758L50.3993 62.1301C50.5093 62.2254 50.6518 62.2747 50.7971 62.2678C50.8744 62.2649 50.9502 62.2463 51.02 62.2129C51.0897 62.1796 51.1519 62.1323 51.2026 62.074L51.9855 61.17C52.0345 61.1135 52.072 61.0479 52.0957 60.9769C52.1193 60.906 52.1288 60.831 52.1235 60.7564C52.1181 60.6818 52.0981 60.609 52.0646 60.5421C52.0311 60.4752 51.9847 60.4156 51.9281 60.3667L47.2908 56.3414L55.6219 56.4676H55.6703C55.8692 56.4587 56.1421 56.3835 56.3015 56.1986L56.8306 55.5866C56.9299 55.4709 56.9796 55.3208 56.9688 55.1687C56.9581 55.0166 56.8878 54.8749 56.7732 54.7744L49.3372 48.3253C49.2268 48.23 49.0838 48.1811 48.9381 48.1888ZM134.317 51.8189C134.176 51.8111 134.038 51.8546 133.927 51.9413L126.2 57.9849C126.139 58.0318 126.087 58.0904 126.049 58.1574C126.01 58.2245 125.985 58.2985 125.976 58.3753C125.966 58.452 125.972 58.5299 125.993 58.6043C126.014 58.6787 126.05 58.7482 126.098 58.8086L130.4 64.3091C130.496 64.4308 130.636 64.5096 130.79 64.5282C130.944 64.5468 131.099 64.5038 131.221 64.4086L132.121 63.7047C132.182 63.6576 132.233 63.5988 132.272 63.5318C132.31 63.4648 132.334 63.3909 132.343 63.3144C132.353 63.2378 132.346 63.1602 132.325 63.0861C132.304 63.0119 132.269 62.9426 132.221 62.8823L129.015 58.7818L130.637 57.5144L133.49 61.1585C133.586 61.2805 133.726 61.3595 133.88 61.3784C134.034 61.3973 134.189 61.3544 134.312 61.2592L135.212 60.5554C135.334 60.4596 135.414 60.3193 135.433 60.1652C135.452 60.0111 135.409 59.8558 135.314 59.733L132.458 56.0839L134.022 54.8649L137.23 58.968C137.282 59.0344 137.348 59.0889 137.423 59.1277C137.497 59.1664 137.58 59.1885 137.664 59.1924C137.804 59.1994 137.943 59.155 138.053 59.0674L138.95 58.3662C139.012 58.3191 139.063 58.2602 139.101 58.1929C139.139 58.1257 139.163 58.0515 139.171 57.9747C139.182 57.8984 139.176 57.8208 139.156 57.7465C139.136 57.6722 139.1 57.6028 139.052 57.5425L134.749 52.042C134.702 51.981 134.643 51.93 134.576 51.8919C134.509 51.8539 134.434 51.8295 134.358 51.8201C134.344 51.8201 134.33 51.8176 134.317 51.8189ZM139.839 62.9193C139.474 62.9388 139.116 63.0293 138.785 63.1858L138.761 63.1985C137.183 63.9406 136.77 65.3942 137.332 68.2171C137.761 70.3617 137.443 70.5121 137.186 70.6346C137.066 70.6904 136.933 70.7149 136.801 70.706C136.339 70.6741 135.857 70.238 135.544 69.5712C135.068 68.5613 135.049 67.9991 135.234 66.7176C135.249 66.6032 135.231 66.4867 135.181 66.3823C135.14 66.2949 135.079 66.2187 135.002 66.1605C134.925 66.1023 134.834 66.0638 134.739 66.0482L133.635 65.8685C133.484 65.8452 133.331 65.8787 133.204 65.9623C133.076 66.0459 132.985 66.1738 132.946 66.3211C132.925 66.3963 132.411 68.3102 133.449 70.5121C134.15 72.0039 135.366 72.9513 136.699 73.0431C137.224 73.0801 137.751 72.9804 138.226 72.7537L138.252 72.7409C139.769 72.0269 140.205 70.5083 139.668 67.8167C139.222 65.5905 139.557 65.4324 139.828 65.3075C139.918 65.269 140.016 65.2537 140.113 65.2628C140.482 65.2883 140.998 65.5816 141.35 66.3275C141.648 66.9792 141.778 67.6949 141.729 68.4096V68.4122L141.725 68.4351C141.717 68.5452 141.737 68.6555 141.785 68.7551C141.825 68.8423 141.885 68.919 141.959 68.9793C142.034 69.0397 142.121 69.0821 142.215 69.1032L143.324 69.3302C143.4 69.3454 143.478 69.3454 143.554 69.33C143.63 69.3147 143.702 69.2844 143.766 69.2409C143.828 69.2005 143.882 69.1481 143.923 69.0868C143.965 69.0255 143.994 68.9565 144.009 68.8839C144.023 68.8291 144.367 67.3488 143.442 65.384C142.772 63.9585 141.532 63.0149 140.209 62.9231C140.086 62.9141 139.962 62.9128 139.839 62.9193ZM38.1144 63.3656C37.8992 63.3691 37.694 63.457 37.5431 63.6104C37.4865 63.6663 37.4392 63.7308 37.4029 63.8016L36.9911 64.6432C36.9308 64.7766 36.907 64.9237 36.9223 65.0693C36.9375 65.2149 36.9912 65.3539 37.0778 65.4719L38.1985 66.8859L43.9158 74.0861C43.9734 74.1621 44.0497 74.2221 44.1372 74.26C44.2248 74.298 44.3207 74.3127 44.4156 74.3028C44.5459 74.2873 44.6675 74.229 44.7611 74.1371C44.8036 74.0951 44.8389 74.0464 44.8657 73.993L45.442 72.82C45.5009 72.6854 45.5235 72.5377 45.5077 72.3916C45.4918 72.2455 45.4379 72.1062 45.3515 71.9874L44.1708 70.5083L46.4314 65.9054L48.3261 65.9386C48.5433 65.9317 48.7495 65.8418 48.9024 65.6874C48.9581 65.6335 49.0042 65.5705 49.0389 65.5013L49.6152 64.3295C49.656 64.2433 49.6748 64.1482 49.6697 64.0529C49.6645 63.9576 49.6357 63.8651 49.5858 63.7838C49.5359 63.7029 49.4661 63.6362 49.3831 63.59C49.3001 63.5438 49.2066 63.5196 49.1115 63.5199C49.0044 63.5199 38.7787 63.3694 38.1144 63.3656ZM40.25 65.7244L43.8584 65.8493L42.5515 68.5052L40.25 65.7244ZM36.6799 72.4502C36.5953 72.4492 36.5107 72.4514 36.4262 72.4566C34.7049 72.5586 33.4044 73.8935 32.9505 76.0254L31.8909 81.0197C31.8654 81.1396 31.8463 81.2938 31.9368 81.4341C32.0312 81.5782 32.2122 81.67 32.5437 81.7401C32.6659 81.7671 32.7912 81.777 32.916 81.7694C33.5612 81.7312 34.0355 81.2454 34.2357 80.8756L42.2098 82.5714C42.283 82.5869 42.3586 82.5879 42.4322 82.5742C42.5059 82.5605 42.576 82.5324 42.6388 82.4915C42.7016 82.4507 42.7557 82.3978 42.798 82.3361C42.8403 82.2743 42.8701 82.2048 42.8855 82.1315L43.1405 80.9356C43.1562 80.8623 43.1573 80.7866 43.1437 80.713C43.13 80.6393 43.102 80.569 43.0611 80.5062C43.0202 80.4434 42.9673 80.3893 42.9055 80.347C42.8436 80.3047 42.774 80.2751 42.7007 80.2598L39.8599 79.6554L40.2998 77.5886C40.542 76.4564 40.4464 75.3522 40.0346 74.4813C39.5564 73.4677 38.6741 72.7983 37.4845 72.5433L37.4564 72.5394C37.2007 72.4845 36.9415 72.4546 36.6799 72.4502ZM144.035 73.7112C143.794 73.7009 143.553 73.7206 143.316 73.7699L143.293 73.775C141.585 74.1422 140.853 75.4618 140.758 78.3409C140.687 80.525 140.342 80.6002 140.064 80.6589C139.999 80.6729 139.933 80.6785 139.867 80.6754C139.342 80.6538 138.887 80.0928 138.707 79.25C138.475 78.1585 138.583 77.6077 139.054 76.399C139.11 76.2545 139.107 76.0938 139.045 75.9514C138.984 75.8091 138.87 75.6965 138.726 75.6378L137.691 75.2106C137.627 75.1855 137.559 75.1713 137.491 75.1686C137.374 75.162 137.258 75.189 137.157 75.2464C137.055 75.3039 136.972 75.3892 136.918 75.4924C136.88 75.5626 135.945 77.3106 136.451 79.6911C136.87 81.647 138.185 82.9552 139.8 83.0266C140.067 83.0381 140.334 83.0154 140.595 82.959L140.623 82.9539C142.262 82.6033 143.033 81.225 143.122 78.4811C143.198 76.2115 143.557 76.135 143.849 76.0726C143.887 76.0644 143.926 76.0619 143.965 76.0649C144.377 76.0828 144.906 76.5112 145.099 77.4139C145.239 78.116 145.203 78.8419 144.994 79.5266L144.984 79.5521C144.952 79.6567 144.947 79.7678 144.97 79.8747C144.989 79.9686 145.029 80.0569 145.087 80.1326C145.146 80.2083 145.222 80.2693 145.308 80.3108L146.339 80.7851C146.409 80.8167 146.484 80.8345 146.56 80.8374C146.674 80.8431 146.786 80.8147 146.884 80.7559C146.981 80.6971 147.059 80.6104 147.107 80.5071C147.176 80.3669 147.794 79.0409 147.352 76.9702C146.956 75.1201 145.591 73.7788 144.035 73.7112ZM36.6136 74.8256C36.7455 74.8194 36.8776 74.831 37.0064 74.86L37.0319 74.8651C37.4437 74.9518 37.7586 75.2043 37.941 75.5957C38.1309 76.0037 38.1641 76.5239 38.0404 77.1066L37.6018 79.1747L34.7725 78.5755L35.2124 76.5074C35.4342 75.4644 35.9328 74.8677 36.6136 74.8256Z" fill="#3D3D3D"/>
<path d="M41.8565 107.393C41.2318 107.393 40.6147 107.525 40.0218 107.783C37.7356 108.781 36.7551 111.236 37.7382 113.491C37.7764 113.576 37.8134 113.659 37.8529 113.738L37.8937 113.815C37.9192 113.868 37.9447 113.922 37.9766 113.973L38.0251 114.057L38.0824 114.158L38.099 114.186L38.1577 114.273C38.1832 114.315 38.2099 114.356 38.2367 114.394L38.2967 114.478C38.3235 114.515 38.3511 114.552 38.3795 114.588L38.4395 114.663L38.5262 114.765L38.5912 114.838L38.6894 114.94L38.7455 114.996C38.7837 115.034 38.8181 115.063 38.8538 115.098L38.9074 115.145C39.0221 115.244 39.1382 115.336 39.2529 115.415L39.3078 115.453L39.4314 115.534L39.485 115.564L39.6278 115.651L39.6928 115.685L39.74 115.708L39.8127 115.747L39.8904 115.785L39.9797 115.828L40.0052 115.841L40.1467 115.901C40.2207 115.932 40.3 115.948 40.3801 115.948C40.5069 115.947 40.6306 115.908 40.7352 115.836C40.8399 115.764 40.9208 115.663 40.9678 115.545L41.1808 115.016C41.241 114.861 41.2408 114.689 41.1801 114.534C41.1193 114.38 41.0026 114.253 40.8531 114.181C40.7686 114.139 40.6853 114.096 40.6032 114.05L40.5445 114.013C40.487 113.98 40.4309 113.945 40.3762 113.908L40.3316 113.877L40.2934 113.851C40.2494 113.82 40.2069 113.787 40.1659 113.752L40.0881 113.685C40.0498 113.65 40.0116 113.616 39.9759 113.579C39.9132 113.518 39.8552 113.452 39.8025 113.381L39.7757 113.35L39.7591 113.328L39.7336 113.296C39.6995 113.246 39.6667 113.195 39.6354 113.143L39.6112 113.105L39.5883 113.065C39.5384 112.977 39.4933 112.886 39.4531 112.794C39.3257 112.506 39.2606 112.195 39.2621 111.881C39.2636 111.567 39.3318 111.256 39.462 110.97C39.7221 110.389 40.2181 109.915 40.8556 109.635C41.2081 109.479 41.5893 109.396 41.9751 109.394C42.934 109.394 43.7296 109.907 44.1032 110.765C44.1389 110.847 44.172 110.931 44.2026 111.029L44.2141 111.072L44.2243 111.111C44.247 111.19 44.2653 111.271 44.2791 111.353L44.2829 111.38L44.3059 111.544L44.311 111.642C44.3148 111.697 44.3148 111.752 44.3148 111.826V111.856L44.3123 111.9C44.3101 111.956 44.3054 112.011 44.2982 112.067L44.288 112.164C44.2781 112.235 44.2653 112.305 44.2498 112.375L44.2434 112.424C44.2252 112.507 44.2043 112.589 44.1809 112.67C44.1337 112.83 44.1509 113.002 44.2288 113.149C44.3067 113.296 44.4392 113.407 44.5979 113.458L45.2316 113.656C45.3956 113.704 45.572 113.686 45.7231 113.606C45.8742 113.526 45.9879 113.39 46.0399 113.227C46.0708 113.124 46.098 113.021 46.1215 112.916L46.1343 112.861C46.1574 112.756 46.177 112.649 46.1929 112.542L46.2006 112.491C46.2133 112.377 46.2248 112.267 46.2299 112.154L46.2325 112.123C46.2375 112.007 46.2375 111.891 46.2325 111.775L46.2299 111.744C46.224 111.624 46.2129 111.504 46.1968 111.385L46.1866 111.326C46.1688 111.203 46.145 111.08 46.1152 110.959L46.0999 110.895C46.0677 110.766 46.0307 110.639 45.9889 110.513L45.966 110.453C45.9177 110.311 45.8632 110.171 45.8028 110.034C45.0939 108.406 43.5804 107.394 41.8553 107.394L41.8565 107.393ZM136.347 107.428C136.225 107.427 136.105 107.461 136.001 107.526C135.897 107.59 135.814 107.683 135.76 107.793L135.479 108.399C135.443 108.475 135.423 108.557 135.42 108.641C135.416 108.726 135.43 108.809 135.459 108.888C135.488 108.967 135.531 109.039 135.588 109.1C135.644 109.161 135.712 109.211 135.788 109.245L139.69 111.06L134.076 112.34C133.929 112.379 133.792 112.449 133.674 112.544C133.556 112.64 133.459 112.759 133.39 112.894L133.141 113.427C133.106 113.503 133.086 113.585 133.082 113.669C133.079 113.752 133.092 113.836 133.121 113.914C133.15 113.993 133.194 114.065 133.251 114.126C133.308 114.188 133.376 114.237 133.453 114.271L140.009 117.319C140.084 117.355 140.166 117.375 140.25 117.379C140.334 117.383 140.417 117.371 140.496 117.342C140.575 117.314 140.647 117.27 140.709 117.213C140.77 117.157 140.82 117.089 140.855 117.013L141.137 116.405C141.173 116.329 141.192 116.247 141.196 116.163C141.199 116.079 141.186 115.996 141.156 115.917C141.128 115.839 141.084 115.767 141.027 115.706C140.971 115.645 140.903 115.595 140.827 115.56L136.78 113.68L142.591 112.354C142.737 112.314 142.874 112.244 142.992 112.148C143.11 112.052 143.207 111.933 143.277 111.798L143.473 111.38C143.508 111.304 143.528 111.222 143.532 111.139C143.536 111.056 143.523 110.972 143.495 110.894C143.466 110.815 143.423 110.743 143.366 110.681C143.31 110.619 143.242 110.569 143.166 110.534L136.606 107.486C136.525 107.447 136.436 107.428 136.347 107.428ZM47.7345 114.938C47.6088 114.937 47.4857 114.974 47.3813 115.044L41.4154 119.134C41.2762 119.231 41.1809 119.378 41.1503 119.544C41.1197 119.711 41.1563 119.882 41.2522 120.022L41.6436 120.59C41.7032 120.676 41.7826 120.745 41.875 120.793C41.9675 120.84 42.0701 120.864 42.174 120.863C42.3041 120.863 42.4252 120.825 42.5285 120.755L44.7624 119.222L46.5806 121.874L44.3467 123.408C44.208 123.504 44.1129 123.651 44.0823 123.817C44.0518 123.983 44.0881 124.154 44.1835 124.293L44.5736 124.862C44.6208 124.931 44.6812 124.99 44.7513 125.036C44.8214 125.081 44.8998 125.113 44.9821 125.128C45.0644 125.143 45.1488 125.142 45.2306 125.124C45.3123 125.106 45.3898 125.073 45.4585 125.025L51.4219 120.937C51.4912 120.89 51.5505 120.83 51.5962 120.76C51.642 120.69 51.6733 120.612 51.6883 120.529C51.7041 120.447 51.7034 120.363 51.6863 120.281C51.6692 120.2 51.6361 120.122 51.5889 120.054L51.1975 119.484C51.1378 119.398 51.0582 119.329 50.9655 119.281C50.8729 119.233 50.77 119.209 50.6658 119.21C50.5395 119.209 50.4159 119.246 50.3113 119.317L48.1157 120.821L46.2962 118.17L48.4918 116.666C48.6308 116.57 48.7263 116.422 48.7573 116.256C48.7883 116.09 48.7525 115.918 48.6576 115.778L48.2661 115.21C48.2065 115.125 48.1271 115.055 48.0347 115.008C47.9423 114.96 47.8397 114.936 47.7357 114.937L47.7345 114.938ZM131.966 116.005C131.864 116.004 131.764 116.027 131.673 116.072C131.582 116.118 131.503 116.184 131.443 116.266L128.424 120.473C128.325 120.61 128.285 120.781 128.312 120.947C128.339 121.114 128.431 121.263 128.568 121.362L134.442 125.577C134.55 125.656 134.68 125.699 134.814 125.698C134.915 125.698 135.015 125.674 135.104 125.628C135.194 125.582 135.272 125.515 135.331 125.433L138.384 121.18C138.434 121.112 138.469 121.035 138.488 120.953C138.506 120.871 138.509 120.787 138.494 120.704C138.481 120.622 138.451 120.543 138.408 120.473C138.364 120.402 138.307 120.341 138.239 120.292L137.798 119.975C137.691 119.899 137.563 119.859 137.432 119.86C137.33 119.859 137.23 119.882 137.139 119.927C137.048 119.972 136.969 120.038 136.909 120.12L134.629 123.295L133.361 122.384L135.31 119.67C135.408 119.533 135.448 119.362 135.421 119.196C135.393 119.029 135.301 118.881 135.164 118.782L134.722 118.464C134.616 118.388 134.488 118.348 134.358 118.349C134.256 118.348 134.156 118.371 134.065 118.416C133.974 118.461 133.895 118.528 133.835 118.609L131.885 121.326L130.845 120.578L130.841 120.44H130.683L132.92 117.324C133.017 117.187 133.056 117.017 133.029 116.851C133.001 116.685 132.909 116.536 132.773 116.438L132.332 116.12C132.225 116.044 132.097 116.004 131.966 116.005ZM53.6659 122.744C53.5069 122.743 53.3532 122.801 53.235 122.907L47.9283 127.817C47.8042 127.932 47.7308 128.092 47.7241 128.261C47.7174 128.43 47.778 128.594 47.8926 128.719L48.3618 129.225C48.4764 129.349 48.6354 129.422 48.8039 129.428C48.9723 129.435 49.1366 129.375 49.2607 129.261L54.5712 124.352C54.6329 124.295 54.6828 124.226 54.7179 124.15C54.753 124.074 54.7727 123.991 54.7758 123.907C54.7789 123.823 54.7653 123.74 54.7359 123.661C54.7065 123.582 54.6618 123.51 54.6043 123.449L54.1364 122.943C54.0762 122.879 54.0036 122.829 53.9231 122.795C53.8426 122.761 53.7559 122.743 53.6685 122.744H53.6659ZM126.464 123.097C126.299 123.096 126.139 123.159 126.02 123.274L125.523 123.754C125.463 123.813 125.415 123.883 125.383 123.96C125.35 124.037 125.332 124.12 125.332 124.204C125.33 124.287 125.346 124.37 125.377 124.448C125.408 124.525 125.454 124.596 125.513 124.655L127.368 126.564L125.06 128.808L123.206 126.899C123.146 126.839 123.075 126.791 122.996 126.759C122.917 126.726 122.833 126.71 122.747 126.711C122.582 126.709 122.424 126.772 122.305 126.887L121.81 127.367C121.689 127.485 121.619 127.646 121.617 127.815C121.615 127.984 121.68 128.147 121.797 128.269L126.839 133.454C126.898 133.515 126.969 133.564 127.048 133.596C127.126 133.629 127.21 133.646 127.295 133.646C127.461 133.645 127.62 133.582 127.739 133.467L128.234 132.984C128.294 132.926 128.342 132.857 128.375 132.78C128.408 132.703 128.425 132.621 128.426 132.538C128.428 132.454 128.413 132.37 128.382 132.292C128.351 132.214 128.304 132.143 128.245 132.084L126.361 130.143L128.666 127.899L130.553 129.841C130.611 129.901 130.681 129.949 130.758 129.982C130.835 130.016 130.917 130.033 131.001 130.034C131.085 130.036 131.168 130.02 131.246 129.989C131.324 129.958 131.395 129.912 131.455 129.854L131.948 129.373C132.008 129.315 132.056 129.245 132.089 129.169C132.122 129.092 132.14 129.009 132.142 128.926C132.143 128.842 132.128 128.759 132.097 128.681C132.066 128.604 132.02 128.533 131.962 128.473L126.922 123.287C126.862 123.227 126.79 123.179 126.711 123.146C126.633 123.114 126.548 123.098 126.463 123.098L126.464 123.097ZM56.8688 126.072C56.7731 126.071 56.6785 126.092 56.5919 126.133C56.5052 126.173 56.4287 126.233 56.3677 126.306L51.8413 131.946C51.7361 132.078 51.6874 132.246 51.7061 132.413C51.7247 132.581 51.8092 132.734 51.9408 132.84L52.4597 133.257C52.572 133.346 52.7115 133.394 52.855 133.393C52.9507 133.394 53.0453 133.373 53.132 133.332C53.2186 133.292 53.2952 133.232 53.3561 133.158L56.1484 129.679L56.0464 135.637C56.0501 135.789 56.0852 135.939 56.1498 136.077C56.2143 136.215 56.3068 136.338 56.4213 136.438L56.7834 136.727C56.8966 136.818 57.0374 136.867 57.1825 136.868C57.2778 136.868 57.372 136.847 57.4579 136.805C57.5438 136.764 57.6192 136.704 57.6785 136.629L62.2048 130.991C62.2573 130.926 62.2963 130.851 62.3195 130.771C62.3427 130.69 62.3496 130.606 62.34 130.523C62.3314 130.44 62.3063 130.359 62.2662 130.286C62.2262 130.213 62.1719 130.148 62.1067 130.096L61.5852 129.678C61.4737 129.589 61.335 129.541 61.1925 129.542C61.0967 129.542 61.0019 129.562 60.9152 129.603C60.8285 129.643 60.752 129.703 60.6914 129.777L57.9985 133.13L58.0979 127.376C58.0941 127.224 58.0587 127.074 57.994 126.936C57.9292 126.798 57.8366 126.676 57.7218 126.575L57.2628 126.208C57.1506 126.119 57.0123 126.071 56.8688 126.072ZM119.587 129.808L119.344 129.815L119.282 129.82L119.208 129.828L119.14 129.834C119.072 129.842 119.003 129.851 118.935 129.863C118.87 129.871 118.807 129.887 118.741 129.898L118.66 129.919L118.586 129.935L118.518 129.954L118.435 129.98L118.406 129.989C118.373 129.997 118.341 130.007 118.309 130.018C118.294 130.022 118.279 130.027 118.264 130.032L118.226 130.046C118.181 130.062 118.136 130.079 118.092 130.097L118.028 130.123L118.003 130.132C117.96 130.149 117.917 130.168 117.875 130.188L117.785 130.23L117.684 130.278L117.65 130.295L117.564 130.338L117.442 130.406L117.416 130.422L117.342 130.462C117.264 130.508 117.187 130.556 117.11 130.606C116.085 131.27 115.397 132.265 115.174 133.406C114.954 134.518 115.189 135.679 115.834 136.678C116.663 137.953 118.026 138.714 119.478 138.714C120.304 138.714 121.122 138.466 121.841 138C121.92 137.949 121.995 137.898 122.066 137.847L122.139 137.792L122.273 137.69L122.355 137.624L122.408 137.579L122.471 137.527L122.547 137.457C122.582 137.424 122.617 137.391 122.65 137.357C122.681 137.329 122.703 137.309 122.724 137.286L122.76 137.249L122.817 137.188L122.884 137.114C122.909 137.085 122.934 137.055 122.958 137.024L123.029 136.939L123.074 136.88L123.125 136.813L123.163 136.757C123.186 136.725 123.208 136.693 123.228 136.658L123.257 136.615L123.283 136.574C123.294 136.558 123.305 136.541 123.315 136.523L123.331 136.498L123.395 136.382C123.429 136.318 123.463 136.254 123.494 136.187L123.521 136.125L123.537 136.094L123.582 135.989L123.611 135.913L123.659 135.79L123.688 135.709L123.702 135.663L123.728 135.589L123.753 135.499C123.766 135.458 123.778 135.416 123.789 135.374L123.827 135.228C123.862 135.063 123.831 134.892 123.74 134.75C123.648 134.609 123.505 134.51 123.34 134.474L122.783 134.352C122.62 134.319 122.451 134.348 122.309 134.433C122.166 134.519 122.06 134.653 122.012 134.812C121.985 134.901 121.956 134.99 121.925 135.077L121.897 135.146C121.874 135.208 121.849 135.27 121.822 135.33L121.778 135.417L121.767 135.437C121.747 135.479 121.726 135.52 121.703 135.561L121.657 135.635C121.627 135.685 121.595 135.734 121.56 135.781L121.498 135.863C121.46 135.91 121.42 135.956 121.378 136.001C121.362 136.02 121.344 136.038 121.327 136.057C121.283 136.1 121.237 136.141 121.189 136.18L121.151 136.215L121.125 136.236C121.045 136.302 120.961 136.363 120.874 136.42C120.513 136.658 120.09 136.786 119.657 136.789C118.825 136.789 118.03 136.326 117.527 135.552C117.146 134.965 116.997 134.298 117.107 133.67C117.215 133.048 117.573 132.513 118.111 132.163C118.192 132.112 118.271 132.066 118.352 132.022L118.373 132.013H118.376L118.399 132.003L118.436 131.987C118.487 131.964 118.544 131.938 118.6 131.917L118.621 131.909L118.667 131.894L118.694 131.883C118.742 131.867 118.796 131.852 118.848 131.835L118.903 131.822L118.945 131.813C118.994 131.803 119.047 131.793 119.098 131.785L119.126 131.78L119.195 131.77C119.251 131.763 119.306 131.759 119.362 131.757L119.408 131.752L119.453 131.75C119.525 131.747 119.598 131.748 119.671 131.752H119.727C119.81 131.757 119.894 131.763 119.977 131.773C120.142 131.794 120.31 131.75 120.443 131.648C120.576 131.547 120.664 131.397 120.687 131.232L120.779 130.575C120.803 130.409 120.76 130.24 120.66 130.104C120.561 129.969 120.412 129.878 120.246 129.851L120.139 129.838C120.098 129.833 120.057 129.83 120.016 129.827L119.747 129.809C119.704 129.806 119.664 129.806 119.626 129.806L119.587 129.808ZM64.8901 131.973C64.7737 131.973 64.6594 132.004 64.5593 132.064C64.4593 132.123 64.3771 132.208 64.3214 132.311L60.9272 138.695C60.8878 138.768 60.8634 138.849 60.8553 138.932C60.8472 139.015 60.8556 139.099 60.8801 139.179C60.9043 139.259 60.9442 139.334 60.9973 139.399C61.0505 139.464 61.1159 139.517 61.1899 139.557L65.8145 142.012C65.8881 142.052 65.969 142.077 66.0524 142.086C66.1358 142.094 66.2201 142.086 66.3003 142.061C66.3804 142.037 66.4549 141.996 66.5192 141.943C66.5836 141.889 66.6366 141.823 66.6751 141.748L66.9301 141.272C67.0088 141.122 67.0253 140.948 66.9761 140.787C66.927 140.625 66.816 140.49 66.6675 140.41L63.2147 138.575L63.9478 137.195L66.8995 138.764C66.9893 138.811 67.0897 138.836 67.1915 138.836C67.3077 138.836 67.4219 138.805 67.5221 138.746C67.6223 138.687 67.7049 138.602 67.7614 138.501L68.0164 138.023C68.0554 137.949 68.0794 137.868 68.0871 137.785C68.0948 137.702 68.0859 137.618 68.0611 137.538C68.0371 137.458 67.9975 137.384 67.9446 137.319C67.8916 137.255 67.8263 137.201 67.7525 137.162L64.7995 135.594L65.5008 134.272L68.9051 136.082C69.0545 136.161 69.229 136.177 69.3903 136.127C69.5517 136.078 69.6867 135.966 69.7658 135.817L70.0208 135.338C70.0601 135.263 70.0844 135.182 70.0923 135.099C70.1002 135.015 70.0915 134.931 70.0667 134.851C70.042 134.771 70.0016 134.697 69.948 134.632C69.8944 134.568 69.8286 134.515 69.7543 134.476L65.182 132.045C65.0921 131.998 64.9919 131.973 64.8901 131.973ZM112.232 133.776C112.149 133.776 112.067 133.792 111.99 133.824L106.715 136.08C106.638 136.112 106.568 136.16 106.51 136.219C106.451 136.279 106.405 136.35 106.375 136.428C106.343 136.505 106.328 136.589 106.329 136.672C106.33 136.756 106.348 136.839 106.381 136.916L106.612 137.455C106.663 137.57 106.746 137.667 106.851 137.735C106.956 137.803 107.078 137.84 107.203 137.84C107.287 137.841 107.37 137.825 107.447 137.793L109.062 137.102L109.124 137.1L109.198 137.097L111.54 142.573C111.589 142.688 111.67 142.785 111.774 142.854C111.878 142.922 111.999 142.959 112.124 142.958C112.21 142.959 112.296 142.942 112.375 142.907L113.019 142.632C113.096 142.6 113.167 142.552 113.226 142.493C113.284 142.433 113.331 142.362 113.362 142.284C113.394 142.206 113.409 142.123 113.408 142.039C113.407 141.955 113.389 141.872 113.355 141.796L110.993 136.272L112.722 135.533C112.876 135.465 112.997 135.34 113.06 135.184C113.122 135.028 113.121 134.854 113.056 134.699L112.825 134.157C112.773 134.043 112.69 133.946 112.585 133.878C112.48 133.81 112.357 133.776 112.232 133.776ZM73.7771 136.118C72.5696 136.118 71.6375 136.767 71.2844 137.852C70.7743 139.407 71.6312 140.313 73.1778 141.265C74.4643 142.039 74.4885 142.318 74.3776 142.655C74.259 143.02 73.9224 143.095 73.661 143.095C73.4851 143.095 73.2913 143.06 73.0873 142.993C72.9874 142.96 72.8892 142.923 72.7927 142.882C72.775 142.873 72.7571 142.865 72.7392 142.856L72.7047 142.84C72.6434 142.811 72.583 142.781 72.5237 142.748C72.4911 142.73 72.4587 142.711 72.4268 142.692C72.3766 142.661 72.3273 142.629 72.2789 142.595C72.2496 142.576 72.2253 142.557 72.2024 142.54L72.182 142.525C72.1363 142.49 72.0917 142.455 72.0481 142.418C72.0209 142.396 71.9942 142.373 71.9678 142.35C71.9167 142.302 71.8669 142.253 71.8186 142.202C71.7952 142.18 71.7723 142.158 71.7497 142.135C71.7074 142.086 71.6657 142.037 71.6248 141.987L71.5955 141.952C71.531 141.87 71.4681 141.787 71.4068 141.702L71.3596 141.639C71.2982 141.552 71.2168 141.481 71.1223 141.432C71.0277 141.383 70.9228 141.358 70.8164 141.358C70.7008 141.358 70.5873 141.39 70.4887 141.45L69.9787 141.765C69.8436 141.848 69.7448 141.979 69.7021 142.132C69.6593 142.284 69.6757 142.448 69.7479 142.589L69.7798 142.642L69.8193 142.705L69.8869 142.796L69.9099 142.826L69.9341 142.861C70.0117 142.969 70.0951 143.073 70.184 143.171L70.2312 143.225C70.3335 143.341 70.4416 143.451 70.555 143.556C70.6188 143.616 70.6851 143.676 70.7527 143.732L70.8993 143.852C70.9707 143.908 71.0421 143.958 71.1135 144.009L71.1377 144.024L71.1556 144.037C71.268 144.117 71.3851 144.19 71.5062 144.256L71.5445 144.281L71.6554 144.343C71.7472 144.392 71.839 144.432 71.927 144.474L71.9767 144.5L72.0239 144.52L72.0647 144.538C72.2215 144.604 72.3605 144.657 72.4944 144.7C72.9355 144.844 73.3665 144.917 73.7732 144.917C75.0011 144.917 75.9178 144.267 76.2876 143.133C76.7084 141.844 76.1652 140.843 74.4668 139.792C73.0783 138.941 73.077 138.686 73.1905 138.341C73.2772 138.079 73.5144 137.933 73.8638 137.933C74.0155 137.933 74.1825 137.963 74.3534 138.02C74.4267 138.044 74.499 138.072 74.5701 138.102C74.5798 138.106 74.5892 138.111 74.5982 138.117L74.6364 138.134C74.6861 138.157 74.7333 138.181 74.778 138.204L74.8545 138.247C74.8978 138.273 74.9399 138.298 74.9807 138.326L75.0164 138.35L75.0648 138.384C75.0993 138.409 75.1413 138.438 75.1821 138.473C75.2102 138.493 75.2331 138.512 75.2561 138.531C75.2982 138.565 75.339 138.6 75.3772 138.637L75.4512 138.704C75.4958 138.746 75.543 138.797 75.5914 138.848L75.6361 138.895C75.6909 138.954 75.747 139.022 75.8031 139.091C75.864 139.168 75.9416 139.23 76.0299 139.273C76.1182 139.315 76.215 139.337 76.3131 139.337C76.4491 139.337 76.5815 139.294 76.6905 139.212L77.1623 138.862C77.2951 138.763 77.3852 138.618 77.4139 138.455C77.4426 138.292 77.4077 138.125 77.3165 137.987L77.2923 137.955C77.2732 137.93 77.2566 137.912 77.2413 137.893L77.2196 137.865C77.1643 137.796 77.1077 137.728 77.0501 137.661C77.0249 137.634 76.9994 137.608 76.9736 137.582L76.9493 137.556C76.8952 137.499 76.84 137.443 76.7836 137.388L76.6982 137.309L76.6701 137.284C76.6135 137.234 76.5557 137.185 76.4967 137.138L76.4674 137.116L76.3743 137.042H76.3705L76.3526 137.029C76.2958 136.988 76.238 136.947 76.1792 136.908C76.0692 136.833 75.9551 136.764 75.8375 136.702L75.812 136.687C75.6953 136.622 75.5753 136.563 75.4524 136.511L75.4142 136.494L75.3798 136.479L75.3364 136.46C75.2053 136.405 75.0722 136.356 74.9373 136.312C74.5632 136.187 74.1716 136.12 73.7771 136.118ZM103.882 136.94C103.826 136.94 103.77 136.948 103.716 136.963L103.049 137.151C102.969 137.173 102.893 137.211 102.828 137.263C102.762 137.314 102.707 137.379 102.667 137.452C102.626 137.524 102.599 137.605 102.59 137.688C102.58 137.771 102.586 137.855 102.609 137.936L104.563 144.898C104.608 145.06 104.716 145.198 104.863 145.281C105.009 145.364 105.183 145.386 105.346 145.341L106.011 145.153C106.174 145.107 106.311 144.998 106.394 144.851C106.476 144.704 106.498 144.53 106.452 144.367L104.499 137.406C104.461 137.272 104.379 137.154 104.268 137.07C104.157 136.987 104.021 136.94 103.882 136.94ZM80.6202 137.997C80.4677 137.998 80.3205 138.053 80.205 138.153C80.0895 138.252 80.0134 138.39 79.9903 138.54L78.9499 145.696C78.9371 145.779 78.9412 145.863 78.9617 145.944C78.9823 146.025 79.0191 146.101 79.0697 146.168C79.17 146.303 79.3199 146.394 79.4867 146.419L84.6684 147.171C84.8354 147.195 85.0049 147.152 85.1401 147.051C85.2753 146.95 85.3652 146.8 85.3901 146.633L85.4678 146.096C85.4803 146.014 85.4761 145.929 85.4555 145.848C85.435 145.767 85.3984 145.691 85.348 145.625C85.2985 145.557 85.2362 145.5 85.1646 145.457C85.093 145.414 85.0137 145.386 84.931 145.373L81.0626 144.812L81.287 143.266L84.5932 143.748C84.7598 143.771 84.9288 143.728 85.064 143.628C85.1992 143.527 85.2897 143.378 85.3161 143.212L85.3939 142.672C85.406 142.589 85.4017 142.505 85.3812 142.423C85.3607 142.342 85.3244 142.266 85.2744 142.199C85.2244 142.132 85.1618 142.076 85.0899 142.033C85.0181 141.99 84.9386 141.962 84.8558 141.95L81.5471 141.469L81.7639 139.99L85.5749 140.545C85.742 140.568 85.9115 140.525 86.0469 140.424C86.1822 140.323 86.2724 140.173 86.2979 140.007L86.3744 139.469C86.3872 139.386 86.3833 139.301 86.363 139.22C86.3427 139.139 86.3063 139.062 86.2561 138.995C86.2059 138.928 86.1428 138.872 86.0705 138.829C85.9982 138.787 85.9181 138.759 85.8351 138.748L80.7107 138.004C80.6802 138 80.6496 137.997 80.6189 137.997H80.6202ZM99.6947 138.038L99.6819 138.041L99.6564 138.042L99.0368 138.123C98.741 138.175 98.4746 138.334 98.2883 138.57L95.6923 142.155L95.3098 139.257C95.2893 139.104 95.2142 138.964 95.0985 138.862C94.9828 138.76 94.8342 138.703 94.68 138.702C94.6514 138.703 94.6229 138.704 94.5945 138.707L93.9111 138.798C93.8283 138.809 93.7485 138.836 93.6763 138.878C93.6041 138.92 93.5409 138.976 93.4904 139.043C93.4394 139.109 93.402 139.185 93.3806 139.265C93.3591 139.346 93.354 139.43 93.3654 139.513L94.3089 146.684C94.3202 146.767 94.3478 146.847 94.3902 146.92C94.4325 146.992 94.4888 147.056 94.5557 147.107C94.6227 147.157 94.699 147.194 94.7802 147.215C94.8615 147.237 94.9462 147.241 95.0293 147.23L95.7089 147.141C95.7918 147.13 95.8716 147.102 95.9439 147.06C96.0161 147.018 96.0792 146.962 96.1297 146.896C96.181 146.83 96.2187 146.754 96.2403 146.673C96.262 146.592 96.2673 146.508 96.2559 146.425L96.0162 144.608L96.808 143.546L99.4805 146.247C99.5916 146.35 99.7229 146.428 99.866 146.478C100.009 146.527 100.161 146.547 100.312 146.535L101 146.444C101.037 146.44 101.074 146.43 101.107 146.414C101.229 146.377 101.336 146.301 101.412 146.199C101.487 146.096 101.528 145.972 101.528 145.845C101.529 145.694 101.473 145.549 101.371 145.437L97.9734 142.014L100.2 139.005C100.214 138.985 100.226 138.964 100.235 138.941C100.291 138.851 100.321 138.747 100.322 138.641C100.322 138.482 100.258 138.329 100.145 138.216C100.032 138.104 99.8796 138.041 99.7202 138.041L99.6947 138.038Z" fill="#3D3D3D"/>
<path d="M71.4693 57.5008C65.7278 57.5811 59.2111 64.3516 67.1941 72.2938L67.203 72.2874C67.21 72.2672 67.2186 72.2476 67.2285 72.2287C67.2578 72.1726 67.2884 72.1216 67.3178 72.0693C68.2069 70.4257 69.3054 68.9042 70.5857 67.543L70.5972 67.5289C72.7337 65.2515 75.3349 63.46 78.2244 62.2758C78.2423 62.2669 78.2665 62.2618 78.2869 62.2541L78.2894 62.249C77.3727 60.2141 75.5086 58.0095 72.6028 57.5747C72.2276 57.5185 71.8486 57.4929 71.4693 57.4982V57.5008ZM102.601 57.8859C102.277 57.8786 101.953 57.8935 101.631 57.9305C99.3709 58.1944 96.9075 60.1643 95.3162 62.49C102.808 65.7885 108.073 73.2169 108.235 81.8935C108.235 81.8935 109.028 91.7776 100.284 97.0843C100.199 97.1356 100.115 97.1883 100.033 97.2424C99.9982 97.2615 99.965 97.2832 99.9319 97.3036L99.6271 97.4846L99.5914 97.5101C99.4831 97.5713 99.3785 97.6351 99.274 97.6937L99.2638 97.6988L98.9654 97.8671C98.9511 97.8767 98.9362 97.8852 98.9208 97.8926L98.9055 97.9016C98.8939 97.9051 98.8831 97.9107 98.8736 97.9181C98.8682 97.9205 98.863 97.9235 98.8583 97.9271L98.8264 97.9424L98.8098 97.9513C98.7994 97.9576 98.7888 97.9636 98.778 97.9691L98.7601 97.9793C98.7491 97.9858 98.7376 97.9914 98.7257 97.9959L98.7104 98.0061L98.6071 98.0571C98.6021 98.0609 98.5965 98.0639 98.5905 98.066C98.5775 98.073 98.5643 98.0798 98.551 98.0864L98.5332 98.0966C98.5203 98.1028 98.5076 98.1092 98.4949 98.1158L98.4771 98.126C98.4637 98.1329 98.4501 98.1393 98.4363 98.1451C98.4312 98.1489 98.4273 98.1515 98.4197 98.154L98.3751 98.1795C98.3703 98.1803 98.3658 98.1825 98.3623 98.1859L98.2412 98.2445L98.2297 98.2509L98.1838 98.2739C98.1774 98.279 98.1711 98.279 98.1647 98.2815C98.1506 98.2903 98.1362 98.2984 98.1213 98.3057L98.1035 98.3159L98.055 98.3389L98.0397 98.3491C98.0208 98.3572 98.0021 98.3657 97.9836 98.3746L97.9785 98.3797L97.8472 98.4434L97.8395 98.4473C97.8204 98.4562 97.8013 98.4664 97.7822 98.4728C97.7784 98.4764 97.7741 98.4794 97.7694 98.4817C97.7529 98.4912 97.7359 98.4997 97.7184 98.5072L97.7006 98.5161L97.6496 98.5391L97.6355 98.5467L97.5743 98.5786L97.5692 98.5811L97.4354 98.6474L97.4252 98.6525C97.4059 98.6609 97.3868 98.6694 97.3678 98.678L97.3525 98.6882C97.3356 98.6971 97.3181 98.7048 97.3002 98.7112C97.2947 98.7147 97.2892 98.7181 97.2836 98.7214L97.2326 98.7431L97.216 98.752C97.1978 98.7614 97.179 98.7699 97.16 98.7775C97.1575 98.7806 97.1545 98.7832 97.151 98.7851C97.1281 98.7966 97.1038 98.8056 97.0834 98.8183L97.0184 98.8489L96.9942 98.8591C96.9827 98.868 96.9674 98.8731 96.9534 98.8795L96.9445 98.8846C95.8954 99.4048 94.8569 99.9459 93.8296 100.508C90.8013 102.184 87.7693 103.944 84.1138 103.944H83.8129L83.6956 103.94C82.3544 103.912 81.0276 103.658 79.771 103.188C79.3976 103.051 79.0338 102.888 78.6821 102.702C78.6439 102.682 78.6095 102.661 78.5699 102.643V102.641L78.5674 102.638C78.5611 102.635 78.5555 102.631 78.5508 102.626C77.8814 102.263 77.5996 102.039 77.0373 101.572C76.7734 101.339 76.4929 101.064 76.2239 100.802C73.8498 98.5505 71.5496 97.3635 69.7633 95.4471C69.6702 95.3515 69.5797 95.2597 69.4891 95.1615L69.433 95.0978L69.1436 94.7739C69.1327 94.7637 69.1233 94.7522 69.1156 94.7395C69.0128 94.6234 68.9125 94.5052 68.8146 94.385C68.8146 94.3825 68.8134 94.3812 68.8096 94.3774C68.7058 94.2523 68.605 94.1247 68.5074 93.9948C68.478 93.9566 68.4487 93.9158 68.4181 93.8788C68.4087 93.868 68.4002 93.8565 68.3926 93.8444C68.3697 93.8163 68.3518 93.787 68.3289 93.7577C68.3199 93.7449 68.3097 93.7322 68.3034 93.7194C68.2772 93.6868 68.2517 93.6536 68.2269 93.62L68.2141 93.6021L68.1274 93.4823L68.107 93.4504L68.042 93.3573L68.0165 93.3216L67.9489 93.2209C67.9425 93.2145 67.9387 93.2056 67.9323 93.1979L67.8482 93.073C67.8418 93.0679 67.8405 93.0602 67.8367 93.0539L67.7653 92.9468L67.7436 92.9136L67.6773 92.8116C67.6711 92.8032 67.6655 92.7942 67.6607 92.7848C67.6046 92.7007 67.5524 92.614 67.4975 92.5247L67.4822 92.4992L67.4159 92.3896L67.4006 92.3641C67.3484 92.2748 67.2948 92.1856 67.2438 92.095C67.24 92.0887 67.2336 92.0823 67.2311 92.0759L67.166 91.9586L67.1533 91.9331C67.1262 91.8894 67.1007 91.8448 67.0768 91.7992C66.8439 91.3896 66.6262 90.9715 66.424 90.5459C65.548 91.9357 65.0609 93.1074 64.4477 94.9958C63.1548 98.9356 62.53 103.624 63.3435 107.763C64.3227 112.791 66.2824 117.425 70.0349 120.809C72.4753 123.007 75.3161 124.353 78.6235 124.812C81.6007 125.237 84.3369 123.48 84.3369 120.286C84.3369 117.991 82.4358 115.788 82.2497 113.533C81.973 110.263 83.971 107.333 87.346 107.663C89.0023 107.825 90.9352 108.994 91.2119 111.416C91.4338 113.377 91.1252 114.503 90.0644 116.442C88.8646 118.636 87.5067 120.387 87.5653 122.396H87.5589C87.5589 122.396 87.5589 122.46 87.5691 122.57L87.5755 122.646C87.5819 122.707 87.5908 122.78 87.6036 122.86C87.6112 122.914 87.6125 122.965 87.6227 123.017C87.6316 123.075 87.652 123.134 87.6648 123.196C87.6775 123.256 87.6903 123.317 87.7081 123.383C87.7209 123.437 87.7336 123.489 87.7489 123.539C88.0957 124.746 89.0584 126.582 91.7895 127.139C92.5405 127.292 93.8168 127.361 94.819 127.287C98.5612 127.02 106.491 125.279 112.325 114.256C112.325 114.256 124.541 115.187 124.541 95.0276L124.539 95.0404V95.0302L124.541 95.0276C124.536 94.5751 124.522 94.1228 124.497 93.671C124.458 92.9352 124.391 92.2011 124.298 91.4703L124.295 91.455C124.262 91.201 124.225 90.9477 124.183 90.6951C124.12 90.2855 124.048 89.8774 123.966 89.471C123.722 88.2987 123.402 87.1433 123.01 86.0119C122.058 83.2616 120.737 80.8046 119.293 78.6626C119.142 78.4432 118.987 78.2252 118.837 78.0123L118.931 78.1513C119.054 78.3349 119.237 78.623 119.46 79.0145C120.484 80.797 122.31 84.6246 122.427 89.3856C122.43 89.5335 122.432 89.6814 122.432 89.8319L122.435 89.8778V89.8867C122.417 93.3331 121.104 95.4076 119.671 96.4085C119.398 96.5921 118.688 97.0116 117.875 97.0282C116.03 97.0001 116.052 96.0336 116.052 96.0336C116.014 90.9437 115.16 85.4508 113.26 80.7128C111.968 77.4972 110.207 74.8744 108.044 72.3996C108.992 71.2967 109.671 70.2027 110.119 69.1406C112.75 62.9133 107.474 57.9904 102.597 57.8884L102.601 57.8859ZM76.3017 79.8101C74.2999 79.8509 72.131 81.5123 71.2895 84.9446C70.2363 89.2402 73.4175 92.1613 74.6696 92.1537C75.733 92.1537 76.2201 91.3402 76.2201 91.3402C76.4304 91.0597 76.5898 90.7206 76.7148 90.3253C77.0501 89.281 77.62 88.3362 78.816 86.5155C80.828 83.4516 79.5109 80.9168 77.9108 80.1531C77.4087 79.9139 76.8576 79.7972 76.3017 79.8101ZM91.1584 80.4399C90.663 80.4283 90.1703 80.5168 89.7099 80.7001C87.9886 81.3822 86.4395 83.931 88.3265 87.2627C89.4447 89.2402 89.9713 90.2654 90.2493 91.3759C90.3653 91.8451 90.5298 92.243 90.7656 92.5694L90.8001 92.614C90.9046 92.7491 91.0219 92.8728 91.1571 92.9761C91.421 93.189 91.8061 93.4096 92.2855 93.4224H92.3301C93.6893 93.4096 97.0567 90.6045 96.2712 86.147C95.6082 82.3665 93.3132 80.4859 91.1584 80.4399ZM75.0394 84.6514C75.2062 84.6486 75.3718 84.6804 75.5257 84.7448C75.6796 84.8091 75.8185 84.9047 75.9337 85.0255C76.0488 85.1463 76.1377 85.2896 76.1946 85.4464C76.2516 85.6032 76.2755 85.7701 76.2647 85.9366C76.2431 86.2504 76.0982 86.5429 75.8617 86.7502C75.6252 86.9576 75.3163 87.063 75.0024 87.0434C74.6883 87.0214 74.3956 86.8761 74.1882 86.6391C73.9809 86.4022 73.8757 86.0928 73.8957 85.7785C73.9158 85.4833 74.0431 85.2056 74.2538 84.9977C74.4645 84.7899 74.7439 84.6675 75.0394 84.6514ZM91.8443 85.6319C92.0111 85.6287 92.1767 85.6602 92.3306 85.7244C92.4846 85.7886 92.6235 85.8841 92.7386 86.0048C92.8537 86.1255 92.9424 86.2688 92.9992 86.4257C93.056 86.5825 93.0795 86.7494 93.0684 86.9159C93.048 87.2296 92.9042 87.5226 92.6683 87.7305C92.4324 87.9384 92.1237 88.0443 91.8099 88.0251C91.4951 88.0039 91.2016 87.8586 90.9936 87.6213C90.7857 87.384 90.6803 87.0739 90.7006 86.759C90.7208 86.4637 90.8484 86.186 91.0593 85.9783C91.2703 85.7706 91.5487 85.6474 91.8443 85.6319ZM79.8207 96.4047C79.6859 96.4037 79.5536 96.4415 79.4397 96.5136C79.3257 96.5857 79.2348 96.689 79.1779 96.8112C79.1209 96.9334 79.1003 97.0695 79.1184 97.2031C79.1365 97.3367 79.1927 97.4623 79.2801 97.5649C80.29 98.7456 81.9207 98.4779 82.2293 99.925C82.242 99.9913 82.2637 100.055 82.2918 100.112C82.2938 100.118 82.2968 100.123 82.3007 100.128C82.3262 100.172 82.353 100.213 82.3836 100.253C82.4496 100.332 82.532 100.395 82.6252 100.439C82.7184 100.482 82.82 100.505 82.9229 100.505C83.0572 100.506 83.1887 100.468 83.3018 100.395C83.4149 100.323 83.5047 100.219 83.5604 100.097C83.5779 100.062 83.5908 100.025 83.5987 99.9862C83.9876 98.6398 85.8249 98.9382 86.9265 97.9742C87.0061 97.9099 87.0723 97.8306 87.1216 97.7409C87.1721 97.6407 87.1995 97.5305 87.2019 97.4183C87.2019 97.2406 87.1341 97.0696 87.0123 96.9403C86.8905 96.8109 86.7239 96.7329 86.5466 96.7221C85.7841 96.6839 85.5877 96.9121 83.1575 96.8037C80.7286 96.6966 80.6431 96.4391 79.873 96.4047H79.8207Z" fill="#DBCAB6"/>
<path d="M136.096 140.41C135.213 140.41 134.366 140.76 133.742 141.385C133.117 142.009 132.767 142.856 132.767 143.739C132.767 144.622 133.117 145.468 133.742 146.093C134.366 146.717 135.213 147.068 136.096 147.068C136.979 147.068 137.825 146.717 138.45 146.093C139.074 145.468 139.425 144.622 139.425 143.739C139.425 142.856 139.074 142.009 138.45 141.385C137.825 140.76 136.979 140.41 136.096 140.41ZM136.096 140.996C136.823 140.996 137.52 141.285 138.035 141.799C138.549 142.314 138.838 143.011 138.838 143.738C138.838 144.465 138.549 145.163 138.035 145.677C137.52 146.191 136.823 146.48 136.096 146.48C135.369 146.48 134.671 146.191 134.157 145.677C133.643 145.163 133.354 144.466 133.354 143.739C133.354 143.012 133.643 142.314 134.157 141.8C134.671 141.286 135.369 140.996 136.096 140.996ZM134.872 142.111C134.86 142.111 134.848 142.115 134.839 142.124C134.831 142.133 134.826 142.144 134.826 142.156V145.343C134.826 145.368 134.847 145.391 134.872 145.391H135.354C135.36 145.392 135.367 145.391 135.373 145.388C135.379 145.386 135.384 145.382 135.389 145.378C135.393 145.373 135.397 145.368 135.399 145.362C135.401 145.356 135.402 145.349 135.402 145.343V144.292C135.402 144.267 135.421 144.246 135.447 144.246H136.077C136.091 144.247 136.105 144.251 136.118 144.257C136.13 144.264 136.142 144.273 136.151 144.285L136.903 145.35C136.912 145.361 136.923 145.371 136.935 145.377C136.948 145.384 136.961 145.388 136.975 145.389H137.562C137.588 145.389 137.595 145.372 137.58 145.35L136.75 144.185C136.735 144.166 136.742 144.143 136.766 144.134C137.201 144 137.505 143.675 137.505 143.152C137.505 142.508 137.042 142.111 136.287 142.111H134.872ZM135.447 142.636H136.24C136.666 142.636 136.919 142.823 136.919 143.184C136.919 143.521 136.658 143.736 136.244 143.736H135.447C135.435 143.736 135.423 143.731 135.414 143.723C135.406 143.714 135.401 143.703 135.401 143.69V142.682C135.401 142.67 135.406 142.658 135.414 142.649C135.423 142.641 135.435 142.636 135.447 142.636Z" fill="#3D3D3D"/>
</g>
<defs>
<clipPath id="clip0_741_3684">
<rect width="130" height="130" fill="white" transform="translate(25 25)"/>
</clipPath>
</defs>
</svg>
