<svg width="180" height="180" viewBox="0 0 180 180" fill="none" xmlns="http://www.w3.org/2000/svg">
<g clip-path="url(#clip0_741_3061)">
<path d="M121.385 89.6273C121.385 89.4225 121.385 89.2177 121.385 89.0142C121.385 84.9343 121.399 80.8532 121.374 76.7733C121.371 76.1861 121.522 75.9919 122.124 76.0013C124.693 76.0437 127.262 76.0613 129.831 76.0413C130.424 76.0366 130.493 76.2826 130.492 76.7721C130.48 81.9511 130.484 87.1301 130.484 92.3092C130.484 96.1349 130.474 99.9594 130.495 103.785C130.499 104.352 130.38 104.567 129.755 104.557C127.147 104.519 124.539 104.532 121.93 104.549C121.535 104.551 121.278 104.428 121.04 104.118C117.887 100.021 114.727 95.9313 111.565 91.8408C111.315 91.5184 111.05 91.2077 110.685 90.7582V104.49H101.511C101.511 104.255 101.511 104.046 101.511 103.837C101.511 94.8133 101.517 85.7886 101.498 76.765C101.497 76.1719 101.642 75.9966 102.244 76.0048C104.754 76.0378 107.266 76.039 109.776 76.0048C110.388 75.9966 110.767 76.1825 111.143 76.6744C114.419 80.9485 117.726 85.199 121.026 89.4555C121.082 89.5284 121.152 89.5931 121.214 89.6626C121.271 89.6508 121.327 89.639 121.385 89.6284V89.6273Z" fill="#3D3D3D"/>
<path d="M39.962 90.3532H48.8502V104.495C48.6478 104.509 48.4419 104.535 48.2348 104.535C43.43 104.535 38.6252 104.576 33.8215 104.519C28.9991 104.463 25.0227 102.565 21.956 98.8107C18.2798 94.3083 17.9915 87.4606 21.3182 82.6723C24.2884 78.3959 28.4377 76.1988 33.6062 76.0811C38.4863 75.9705 43.3711 76.0482 48.2536 76.027C48.7208 76.0247 48.9044 76.1388 48.8996 76.6484C48.8761 79.0608 48.8773 81.4732 48.9032 83.8856C48.9091 84.4022 48.7596 84.5504 48.2395 84.5481C43.5135 84.5281 38.7876 84.5281 34.0616 84.5387C32.347 84.5422 30.8254 85.0953 29.6004 86.3227C26.5725 89.3552 27.8317 94.4307 31.9399 95.6958C32.64 95.9111 33.3967 96.0158 34.131 96.037C35.855 96.0876 37.5825 96.0417 39.3077 96.0688C39.8267 96.077 39.9832 95.9029 39.9726 95.3898C39.942 93.9388 39.9632 92.4878 39.9632 91.0357C39.9632 90.8239 39.9632 90.6132 39.9632 90.3532H39.962Z" fill="#3D3D3D"/>
<path d="M98.5305 103.877C96.9465 100.338 95.359 96.801 93.7751 93.2636C91.2709 87.6691 88.7655 82.0747 86.2719 76.4768C86.1331 76.1649 85.9754 76.0319 85.6223 76.0343C82.7592 76.0461 79.8961 76.0437 77.033 76.0308C76.6682 76.0296 76.4717 76.1543 76.3222 76.4932C75.0748 79.3034 73.8098 82.1053 72.5518 84.9108C70.23 90.0921 67.9082 95.2747 65.5876 100.458C64.9981 101.775 64.412 103.094 63.7977 104.472C63.9542 104.504 64.0119 104.527 64.0696 104.527C67.0103 104.53 69.9523 104.54 72.8943 104.514C73.0908 104.511 73.3744 104.276 73.4662 104.078C74.3476 102.178 75.1949 100.262 76.0527 98.352C76.5305 97.2893 77.0118 96.2291 77.4908 95.1664C77.8003 97.8707 78.4899 100.396 80.528 102.264C82.5945 104.157 85.1281 104.738 87.9771 104.394C86.7968 101.393 84.5879 99.3522 82.1826 97.4612C83.6854 97.7883 85.0234 98.4296 86.2354 99.3475C87.7982 100.533 88.569 102.211 89.1409 104.006C89.2692 104.407 89.4481 104.55 89.8788 104.547C92.6242 104.525 95.3696 104.536 98.1151 104.534C98.3186 104.532 98.521 104.509 98.7764 104.492C98.674 104.235 98.6093 104.052 98.5305 103.877ZM85.7435 96.9457C85.4741 96.7751 85.2175 96.5797 84.9327 96.4374C83.9725 95.9572 82.9793 95.5371 82.0402 95.017C81.0011 94.4404 80.0044 93.7861 78.9994 93.1506C78.7217 92.9764 78.5475 92.7528 78.7229 92.368C79.529 90.6099 80.3139 88.8412 81.1094 87.0784C81.1482 86.9925 81.2106 86.9172 81.333 86.7254C82.8746 90.171 84.3691 93.5095 85.8624 96.8481C85.8236 96.881 85.7836 96.9128 85.7435 96.9457Z" fill="#3D3D3D"/>
<path d="M161 76.0916V84.5009C160.748 84.5139 160.52 84.535 160.29 84.535C157.74 84.5374 155.19 84.5586 152.641 84.5233C152.025 84.515 151.889 84.7174 151.891 85.2917C151.907 91.431 151.9 97.5714 151.899 103.711C151.899 103.961 151.899 104.212 151.899 104.5H142.806C142.806 104.194 142.806 103.926 142.806 103.657C142.806 97.5761 142.806 91.4945 142.806 85.4141C142.806 84.515 142.803 84.5127 141.915 84.515C139.385 84.5209 136.855 84.528 134.325 84.5315C134.115 84.5315 133.905 84.5139 133.666 84.5033C133.649 84.2856 133.626 84.1149 133.626 83.9431C133.623 81.5107 133.635 79.0783 133.616 76.6459C133.613 76.1858 133.748 76.0398 134.212 76.041C142.979 76.0493 151.746 76.0434 160.513 76.0434C160.665 76.0434 160.815 76.0728 160.999 76.0916H161Z" fill="#3D3D3D"/>
<path d="M61.1241 104.494C60.8546 104.512 60.664 104.536 60.4722 104.536C57.8832 104.538 55.2943 104.523 52.7054 104.551C52.1476 104.557 52.0193 104.37 52.0205 103.846C52.0335 94.8036 52.0335 85.7601 52.0229 76.7177C52.0229 76.2352 52.117 76.0128 52.6654 76.0187C55.2731 76.0446 57.8821 76.054 60.4898 76.021C61.1053 76.0128 61.1323 76.2952 61.1312 76.7659C61.1229 85.5141 61.1241 94.2623 61.1241 103.012C61.1241 103.481 61.1241 103.951 61.1241 104.494Z" fill="#3D3D3D"/>
<path d="M159.782 103.278C159.916 103.172 159.97 103.012 159.867 102.832C159.769 102.661 159.413 102.619 159.098 102.731V103.879C159.153 103.879 159.238 103.89 159.241 103.879C159.277 103.721 159.303 103.561 159.331 103.402C159.567 103.352 159.684 103.47 159.686 103.683C159.688 103.818 159.742 103.946 159.949 103.859C159.895 103.673 159.842 103.484 159.781 103.278H159.782ZM159.624 103.244C159.59 103.241 159.375 103.246 159.341 103.244C159.316 103.151 159.308 103.126 159.304 103.058C159.298 102.962 159.265 102.855 159.434 102.847C159.524 102.841 159.577 102.831 159.669 102.889C159.73 102.982 159.689 103.162 159.624 103.244Z" fill="#3D3D3D"/>
<path d="M159.504 102.206C158.907 102.197 158.422 102.68 158.424 103.278C158.428 103.872 158.895 104.342 159.482 104.344C160.083 104.346 160.535 103.894 160.538 103.286C160.54 102.678 160.094 102.212 159.504 102.206ZM159.49 104.173C159.032 104.17 158.648 103.768 158.641 103.287C158.635 102.796 159.023 102.381 159.491 102.381C159.96 102.381 160.33 102.78 160.334 103.267C160.338 103.767 159.957 104.177 159.489 104.173H159.49Z" fill="#3D3D3D"/>
<path d="M159.782 103.278C159.916 103.172 159.97 103.012 159.867 102.832C159.769 102.661 159.413 102.619 159.098 102.731V103.879C159.153 103.879 159.238 103.89 159.241 103.879C159.277 103.721 159.303 103.561 159.331 103.402C159.567 103.352 159.684 103.47 159.686 103.683C159.688 103.818 159.742 103.946 159.949 103.859C159.895 103.673 159.842 103.484 159.781 103.278H159.782ZM159.624 103.244C159.59 103.241 159.375 103.246 159.341 103.244C159.316 103.151 159.308 103.126 159.304 103.058C159.298 102.962 159.265 102.855 159.434 102.847C159.524 102.841 159.577 102.831 159.669 102.889C159.73 102.982 159.689 103.162 159.624 103.244Z" fill="#3D3D3D"/>
<path d="M159.782 103.278C159.916 103.172 159.97 103.012 159.867 102.832C159.769 102.661 159.413 102.619 159.098 102.731V103.879C159.153 103.879 159.238 103.89 159.241 103.879C159.277 103.721 159.303 103.561 159.331 103.402C159.567 103.352 159.684 103.47 159.686 103.683C159.688 103.818 159.742 103.946 159.949 103.859C159.895 103.673 159.842 103.484 159.781 103.278H159.782ZM159.624 103.244C159.59 103.241 159.375 103.246 159.341 103.244C159.316 103.151 159.308 103.126 159.304 103.058C159.298 102.962 159.265 102.855 159.434 102.847C159.524 102.841 159.577 102.831 159.669 102.889C159.73 102.982 159.689 103.162 159.624 103.244Z" fill="#3D3D3D"/>
</g>
<defs>
<clipPath id="clip0_741_3061">
<rect width="142" height="28.5558" fill="white" transform="translate(19 76)"/>
</clipPath>
</defs>
</svg>
