<svg width="180" height="180" viewBox="0 0 180 180" fill="none" xmlns="http://www.w3.org/2000/svg">
<g clip-path="url(#clip0_741_2209)">
<path d="M104.365 92.434C104.365 88.7586 102.796 85.5273 97.4895 85.5273C94.7708 85.5273 92.6098 86.2938 91.4247 86.9731L92.2874 89.9257C93.3679 89.2463 95.0845 88.6802 96.7053 88.6802C99.3979 88.6802 99.8336 90.2044 99.8336 91.1798V91.415C93.9691 91.4063 90.2657 93.4356 90.2657 97.5727C90.2657 100.098 92.1567 102.467 95.4331 102.467C97.4547 102.467 99.1365 101.666 100.147 100.377H100.252C100.252 100.377 100.923 103.173 104.609 102.11C104.417 100.943 104.356 99.6978 104.356 98.2085M99.9904 96.3098C99.9904 96.6059 99.9643 96.9195 99.8858 97.1894C99.546 98.313 98.3783 99.2623 96.9231 99.2623C95.7119 99.2623 94.7447 98.5743 94.7447 97.1198C94.7447 94.8901 97.202 94.2805 99.9904 94.2892V96.3098Z" fill="#3D3D3D"/>
<path d="M13 80.5283C13 80.5283 16.8341 96.2229 17.4441 98.7661C18.1586 101.736 19.4483 102.834 23.1516 102.093L25.5392 92.3646C26.1492 89.9434 26.55 88.2276 26.9422 85.7628H27.0119C27.282 88.245 27.6741 89.9521 28.1708 92.3733C28.1708 92.3733 29.1468 96.7891 29.6435 99.1145C30.1402 101.431 31.5344 102.894 35.1681 102.102L40.8669 80.5283H36.266L34.3228 89.8563C33.8 92.5736 33.3294 94.6901 32.9547 97.181H32.8937C32.5626 94.7249 32.1356 92.6869 31.6041 90.0392L29.5738 80.537H24.7724L22.6027 89.804C21.984 92.6172 21.4176 94.8904 21.0516 97.2942H20.9819C20.6072 95.0384 20.1105 92.1817 19.5702 89.4556C19.5702 89.4556 18.2806 82.8276 17.8275 80.5457" fill="#3D3D3D"/>
<path d="M53.9551 92.434C53.9551 88.7586 52.3866 85.5273 47.0799 85.5273C44.3524 85.5273 42.1914 86.2938 41.015 86.9731L41.8777 89.9257C42.9582 89.2463 44.6748 88.6802 46.2956 88.6802C48.9882 88.6802 49.4239 90.2044 49.4239 91.1798V91.415C43.5595 91.4063 39.8561 93.4356 39.8561 97.5727C39.8561 100.098 41.747 102.467 45.0234 102.467C47.045 102.467 48.7268 101.666 49.7376 100.377H49.8334C49.8334 100.377 50.5044 103.173 54.1991 102.11C54.0074 100.943 53.9377 99.6978 53.9377 98.2085M49.5807 96.3098C49.5807 96.6059 49.5546 96.9195 49.4762 97.1894C49.1363 98.313 47.9774 99.2623 46.5222 99.2623C45.311 99.2623 44.3437 98.5743 44.3437 97.1198C44.3437 94.8901 46.7923 94.2805 49.5895 94.2892V96.3098H49.5807Z" fill="#3D3D3D"/>
<path d="M61.266 97.5207V80.5283H56.8829V102.102H61.266" fill="#3D3D3D"/>
<path d="M118.603 80.5282V96.4406C118.603 98.6354 119.013 100.168 119.902 101.109C120.668 101.928 121.941 102.459 123.466 102.459C124.764 102.459 126.036 102.215 126.637 101.989L126.576 98.5657C126.132 98.679 125.618 98.7661 124.912 98.7661C123.422 98.7661 122.917 97.808 122.917 95.8397V89.7517H126.733V85.6233H122.917V80.5195" fill="#3D3D3D"/>
<path d="M107.293 85.902V102.111H111.815V93.8103C111.815 93.3661 111.841 92.9742 111.911 92.6171C112.251 90.8752 113.575 89.7691 115.484 89.7691C116.006 89.7691 116.381 89.8213 116.782 89.8823V85.6407C116.442 85.571 116.216 85.5449 115.789 85.5449C114.098 85.5449 112.181 86.6336 111.379 88.9678H111.257V85.9107" fill="#3D3D3D"/>
<path d="M64.3334 85.9019V102.11H68.7426V92.6082C68.7426 92.164 68.7949 91.6937 68.9517 91.2844C69.3177 90.3263 70.2065 89.2028 71.6269 89.2028C73.4045 89.2028 74.2323 90.7008 74.2323 92.8782V102.11H78.6328V92.495C78.6328 92.0682 78.6938 91.5544 78.8158 91.1799C79.1731 90.0912 80.1403 89.2028 81.4561 89.2028C83.2599 89.2028 84.1225 90.6834 84.1225 93.2266V102.102H88.523V92.556C88.523 87.5218 85.9612 85.5273 83.0769 85.5273C81.7959 85.5273 80.7851 85.8496 79.8789 86.407C79.1121 86.8773 78.4237 87.548 77.8224 88.4276H77.7614C77.0643 86.677 75.4261 85.5273 73.2912 85.5273C70.5464 85.5273 69.3177 86.9122 68.5683 88.0967H68.4986V85.8931" fill="#3D3D3D"/>
<path d="M150.426 83.5156C151.298 83.5156 152.012 83.0627 152.108 82.4792L152.971 72.7506C152.971 71.7926 151.847 71 150.426 71C149.006 71 147.891 71.7926 147.891 72.7506L148.753 82.4792C148.849 83.0627 149.564 83.5156 150.435 83.5156" fill="#3D3D3D"/>
<path d="M145.172 86.5552C145.608 85.8061 145.573 84.9526 145.111 84.5781L137.112 78.9691C136.284 78.4901 135.038 79.0649 134.323 80.293C133.617 81.521 133.739 82.8884 134.567 83.3675L143.42 87.4871C143.978 87.6961 144.727 87.2955 145.163 86.5464" fill="#3D3D3D"/>
<path d="M155.689 86.5464C156.125 87.2955 156.874 87.6961 157.432 87.4871L166.285 83.3675C167.122 82.8884 167.235 81.521 166.529 80.293C165.824 79.0649 164.578 78.4901 163.741 78.9691L155.742 84.5781C155.28 84.9526 155.254 85.8061 155.681 86.5552" fill="#3D3D3D"/>
<path d="M150.426 95.6567C151.298 95.6567 152.012 96.1096 152.108 96.6932L152.971 106.422C152.971 107.38 151.847 108.172 150.426 108.172C149.006 108.172 147.891 107.38 147.891 106.422L148.753 96.6932C148.849 96.1096 149.564 95.6567 150.435 95.6567" fill="#3D3D3D"/>
<path d="M155.689 92.6259C156.125 91.8681 156.874 91.4762 157.432 91.6852L166.285 95.8049C167.122 96.2839 167.235 97.6513 166.529 98.8793C165.824 100.099 164.578 100.682 163.741 100.203L155.742 94.5942C155.28 94.2197 155.254 93.3662 155.681 92.6172" fill="#3D3D3D"/>
<path d="M145.172 92.6258C145.608 93.3748 145.573 94.2283 145.111 94.6029L137.112 100.203C136.284 100.682 135.038 100.107 134.323 98.8792C133.617 97.6512 133.739 96.2838 134.567 95.7961L143.42 91.6764C143.978 91.4674 144.727 91.8593 145.163 92.6171" fill="#3D3D3D"/>
</g>
<defs>
<clipPath id="clip0_741_2209">
<rect width="154" height="37.1724" fill="white" transform="translate(13 71)"/>
</clipPath>
</defs>
</svg>
