<svg width="180" height="180" viewBox="0 0 180 180" fill="none" xmlns="http://www.w3.org/2000/svg">
<g clip-path="url(#clip0_741_2496)">
<path d="M44.736 109.973V73.9016H44.7903C44.7903 73.9016 39.2928 77.7129 35.0464 79.5623C30.7999 81.4117 26.0095 81.9593 23.3986 80.8678C20.7876 79.7799 18.6082 78.2568 19.0433 75.2071C19.4785 72.1573 23.7249 69.8727 29.3856 69.9815C35.0464 70.0903 47.5645 72.9188 52.3549 73.2452C57.1453 73.5716 63.2412 70.9606 64.7642 69.1076C66.2873 67.2581 66.94 66.4966 66.6137 65.8402C66.2873 65.1875 64.2167 66.0578 58.6647 65.6226C53.1201 65.1947 40.4895 62.2538 35.9203 62.0362C31.3475 61.8186 27.9714 62.4713 23.6198 66.2826C19.2609 70.0939 14.6881 75.2107 15.0181 79.022C15.3445 82.8333 18.3942 85.8794 20.0261 86.6409C21.6579 87.4024 26.1219 88.2728 29.2805 85.8794C32.439 83.486 36.1379 81.7417 36.1379 81.7417V110.02L44.7396 109.976L44.736 109.973Z" fill="#3D3D3D"/>
<path d="M62.6175 77.3613H59.0238C52.8916 77.3613 47.9199 82.333 47.9199 88.4652V98.8075C47.9199 104.94 52.8916 109.911 59.0238 109.911H62.6175C68.7496 109.911 73.7213 104.94 73.7213 98.8075V88.4652C73.7213 82.333 68.7496 77.3613 62.6175 77.3613ZM65.9392 100.603C65.9392 103.427 63.6474 105.719 60.8224 105.719C57.9975 105.719 55.7057 103.427 55.7057 100.603V86.6665C55.7057 83.8416 57.9975 81.5498 60.8224 81.5498C63.6474 81.5498 65.9392 83.8416 65.9392 86.6665V100.603Z" fill="#3D3D3D"/>
<path d="M146.009 77.3613H142.415C136.283 77.3613 131.311 82.333 131.311 88.4652V98.8075C131.311 104.94 136.283 109.911 142.415 109.911H146.009C152.141 109.911 157.113 104.94 157.113 98.8075V88.4652C157.113 82.333 152.141 77.3613 146.009 77.3613ZM149.331 100.603C149.331 103.427 147.039 105.719 144.214 105.719C141.389 105.719 139.097 103.427 139.097 100.603V86.6665C139.097 83.8416 141.389 81.5498 144.214 81.5498C147.039 81.5498 149.331 83.8416 149.331 86.6665V100.603Z" fill="#3D3D3D"/>
<path d="M161.682 103.395C163.549 103.395 165 104.845 165 106.655C165 108.464 163.549 109.933 161.66 109.933C159.771 109.933 158.302 108.5 158.302 106.655C158.302 104.809 159.793 103.395 161.66 103.395H161.682ZM161.642 104.047C160.21 104.047 159.136 105.222 159.136 106.651C159.136 108.08 160.21 109.255 161.682 109.255C163.114 109.273 164.166 108.102 164.166 106.651C164.166 105.2 163.114 104.047 161.66 104.047H161.642ZM161.145 108.341H160.391V105.103C160.688 105.041 161.105 104.983 161.642 104.983C162.258 104.983 162.534 105.084 162.773 105.24C162.951 105.378 163.093 105.639 163.093 105.937C163.093 106.314 162.813 106.593 162.414 106.713V106.753C162.734 106.854 162.911 107.112 163.009 107.55C163.111 108.047 163.169 108.247 163.248 108.344H162.433C162.335 108.225 162.273 107.946 162.175 107.568C162.113 107.209 161.918 107.054 161.501 107.054H161.142V108.344L161.145 108.341ZM161.163 106.513H161.522C161.939 106.513 162.277 106.375 162.277 106.035C162.277 105.737 162.059 105.538 161.58 105.538C161.381 105.538 161.243 105.559 161.163 105.578V106.513Z" fill="#3D3D3D"/>
<path d="M91.0299 77.3613H87.4362C85.7499 77.3613 84.1579 77.7493 82.7255 78.4202V77.4955H75.5671V118.974H82.7255V108.852C84.1579 109.523 85.7499 109.911 87.4362 109.911H91.0299C97.162 109.911 102.134 104.94 102.134 98.8075V88.4652C102.134 82.333 97.162 77.3613 91.0299 77.3613ZM94.3516 100.603C94.3516 103.427 92.0597 105.719 89.2348 105.719C86.4099 105.719 84.1181 103.427 84.1181 100.603V86.6665C84.1181 83.8416 86.4099 81.5498 89.2348 81.5498C92.0597 81.5498 94.3516 83.8416 94.3516 86.6665V100.603Z" fill="#3D3D3D"/>
<path d="M121.785 95.6233V100.602C121.785 103.427 119.493 105.719 116.668 105.719C113.843 105.719 111.551 103.427 111.551 100.602V86.6662C111.551 83.8413 113.843 81.5495 116.668 81.5495C119.493 81.5495 121.785 83.8413 121.785 86.6662V89.7414H129.567V88.4613C129.567 82.3291 124.595 77.3574 118.463 77.3574H114.873C108.741 77.3574 103.769 82.3291 103.769 88.4613V98.8036C103.769 104.936 108.741 109.907 114.873 109.907H118.463C124.595 109.907 129.567 104.936 129.567 98.8036V95.6197H121.785V95.6233Z" fill="#3D3D3D"/>
</g>
<defs>
<clipPath id="clip0_741_2496">
<rect width="150" height="56.9735" fill="white" transform="translate(15 62)"/>
</clipPath>
</defs>
</svg>
