<svg width="180" height="180" viewBox="0 0 180 180" fill="none" xmlns="http://www.w3.org/2000/svg">
<path d="M41.9445 56.3451C43.6575 58.1115 44.3656 60.6468 44.2666 63.1364C44.1219 64.2556 43.7869 65.6108 42.5307 65.9839C41.1146 66.4712 39.9345 65.6184 39.0513 64.6134C38.9828 64.4231 38.7696 64.3165 38.6554 64.1033C37.3459 62.0934 36.1886 59.1088 37.5286 56.8476C38.3889 55.4543 40.7567 55.1193 41.9445 56.3451Z" fill="#3D3D3D"/>
<path d="M53.3648 64.8883C55.8544 62.9621 58.976 61.919 61.9224 62.353C62.8361 62.5433 63.7649 62.9621 64.6785 64.1422C65.4018 65.4365 65.5922 67.2866 64.0086 69.0605C62.364 70.6822 61.7093 71.1619 59.9886 71.9385C58.5344 72.6008 56.9355 73.0044 55.2453 73.2175C53.1744 73.3698 51.1188 73.4079 50.0148 71.3903C48.9413 68.7179 51.4614 66.4643 53.3724 64.8883" fill="#3D3D3D"/>
<path d="M37.5742 64.012C37.9473 64.6896 38.2366 65.4129 38.0919 66.2428C37.8711 67.0346 37.2468 67.735 36.3865 67.8188C34.78 68.169 33.3182 66.8747 32.4884 65.7631C31.9249 64.8952 31.5671 63.5247 32.3209 62.4284C32.9756 61.7736 33.7522 61.568 34.7191 61.6822C36.1885 62.1467 36.9194 62.7938 37.5742 63.9968V64.012Z" fill="#3D3D3D"/>
<path d="M54.4612 58.2869C54.9256 61.5912 52.2 65.1772 49.2307 67.0273C48.3399 67.5831 47.0304 67.7582 46.1472 67.2024C43.9469 65.2076 45.0661 61.812 45.8579 59.4822C46.6573 57.4494 48.1496 55.5993 50.2966 55.2415C51.629 54.9141 53.814 55.3937 54.4612 58.2869Z" fill="#3D3D3D"/>
<path d="M100.135 104.052C92.445 102.347 93.7089 107.356 95.4295 107.722C103.447 109.412 101.855 104.539 100.135 104.052Z" fill="#3D3D3D"/>
<path d="M139.177 102.003C131.487 100.297 132.744 105.307 134.472 105.673C142.489 107.363 141.065 102.505 139.177 102.003Z" fill="#3D3D3D"/>
<path d="M145.694 103.131C145.253 99.3086 144.689 94.4283 147.963 91.7331C149.288 90.6063 151.481 90.6824 152.569 91.9234C156.125 95.0907 150.049 103.321 150.049 104.387C150.049 104.387 150.476 106.564 152.242 109.473C153.201 109.473 157.67 108.521 159.376 108.079C160.267 107.813 162.223 108.163 161.394 110.394C160.069 112.457 157.381 112.412 155.371 112.975C156.178 114.125 158.66 114.452 160.107 114.079C162.429 113.325 164.393 118.487 156.856 117.848C153.887 117.482 151.245 114.84 150.171 113.592C150.171 113.592 143.867 114.094 142.923 114.094C141.659 115.091 137.007 120.946 133.338 121.441C130.886 121.776 130.094 120.193 130.749 118.974C132.157 116.987 132.82 118.837 137.708 113.873C133.574 113.675 134.434 110.318 136.901 109.815C138.789 109.511 139.322 110.112 141.05 110.006C141.05 110.006 145.626 104.067 145.687 103.131H145.694ZM148.542 100.253C148.603 100.717 149.478 98.098 149.867 97.0169C151.427 92.7076 147.628 93.0883 148.542 100.253ZM147.346 107.668C147.346 107.668 145.908 109.792 145.268 110.15C146.144 110.074 147.346 110.188 148.466 110.112C147.902 109.084 147.986 109.001 147.346 107.668Z" fill="#3D3D3D"/>
<path d="M117.89 100.519C119.146 100.519 120.174 99.4606 120.174 98.1435C120.174 96.8264 119.154 95.7681 117.89 95.7681C116.626 95.7681 115.606 96.834 115.606 98.1435C115.606 99.453 116.626 100.519 117.89 100.519Z" fill="#3D3D3D"/>
<path d="M110.436 120.49C106.873 121.83 106.743 114.057 106.743 113.988C107.9 113.585 108.959 113.334 109.522 113.037C110.832 114.24 112.385 119.607 110.443 120.49H110.436ZM113.641 111.575C114.159 111.491 114.524 111.072 114.524 111.072C114.966 111.948 117.623 115.031 122.473 111.636C122.854 112.824 128.153 120.985 135.028 110.166C136.154 107.821 133.627 105.324 131.183 109.504C128.282 114.141 125.808 109.938 125.564 109.002C128.008 105.987 133.216 93.4166 129.158 91.2391C120.554 87.0821 121.072 107.662 121.072 107.662C120.174 109.169 118.46 109.375 118.049 108.918C117.417 107.662 119.062 103.474 118.567 101.921C117.653 100.642 115.819 101.289 115.377 102.248C114.555 103.999 113.862 107.623 111.03 108.4C110.261 108.088 110.146 107.989 109.804 107.814C111.585 105.659 119.077 91.1934 110.687 91.5284C103.416 91.9624 102.929 106.253 102.617 108.819C100.295 111.034 101.109 112.641 102.685 113.387C101.3 127.502 119.861 130.434 113.656 111.567L113.641 111.575ZM110.664 96.4848C111.365 98.2131 107.824 104.784 106.34 106.177C106.355 107.235 109.012 92.3963 110.664 96.4848ZM127.178 94.7946C128.198 96.5077 125.039 103.367 124.224 104.776C124.003 102.446 125.693 92.3202 127.178 94.7946Z" fill="#3D3D3D"/>
<path d="M42.6068 82.2458C43.6041 84.1035 46.8704 80.9744 45.5151 78.4467C44.5178 76.7793 41.9368 80.6774 42.6068 82.2458Z" fill="#3D3D3D"/>
<path d="M67.0005 102.171C68.2567 102.171 69.2846 101.105 69.2846 99.7958C69.2846 98.4863 68.2567 97.4204 67.0005 97.4204C65.7443 97.4204 64.7164 98.4863 64.7164 99.7958C64.7164 101.105 65.7443 102.171 67.0005 102.171Z" fill="#3D3D3D"/>
<path d="M48.2788 107.553C48.3397 104.835 47.3804 94.4734 54.5219 93.5978C54.9559 93.575 55.7858 93.5978 56.7451 94.1155C59.7372 95.7753 58.8845 100.397 57.2019 102.734C56.2806 104.325 55.9989 104.744 55.1005 105.787C58.3896 104.729 59.1357 106.754 58.5647 111.863C58.481 112.601 58.8616 113.203 59.3641 113.355C59.9732 113.538 60.5975 112.845 61.0772 112.023C62.6075 109.419 62.5923 103.823 65.3103 102.886C67.503 102.407 68.4776 104.036 67.1985 107.706C67.0082 108.954 66.5894 112.221 68.2111 111.589C68.7136 111.208 69.4064 110.835 69.475 110.15C69.1552 106.518 72.3453 97.6482 78.6112 101.82C80.1263 103.511 80.6897 105.955 79.936 108.018C78.9995 110.173 76.1749 110.371 75.1395 108.52C74.5684 107.767 74.8273 106.579 74.6979 105.825C70.5789 110.272 77.0352 115.837 80.8116 110.119C81.3141 104.31 81.4435 99.8714 81.5653 94.8008C81.413 92.136 86.2553 91.6792 85.6005 96.4377C85.6005 97.9452 85.5015 99.0415 85.3492 100.998C86.9862 99.9323 89.4454 99.5592 91.0823 100.808C93.2826 102.369 93.3663 105.102 92.5288 107.508C91.8665 109.381 90.9376 110.568 89.4377 112.084C89.689 112.586 92.6354 113.393 93.6024 110.957C93.9297 110.104 95.7418 107.698 97.333 109.944C98.3761 111.414 95.5286 116.18 92.0263 116.53C89.255 117.093 86.438 115.312 84.7402 113.119C84.7402 113.972 84.9914 117.375 83.3926 118.532C82.7226 118.882 80.0045 119.834 80.6593 115.327C76.5251 117.23 74.4999 116.903 72.2996 115.464C71.7286 115.083 71.424 114.725 71.0281 114.223C66.6123 118.289 64.2901 114.444 63.8105 114.071C62.4705 118.015 55.2604 119.355 55.1919 113.69C55.6411 107.987 52.7403 107.188 52.5652 117.322C52.5119 120.603 48.5909 119.986 48.53 118.372C48.0885 117.055 48.2103 113.286 48.2103 113.286C41.792 118.334 36.2874 120.527 31.7574 120.634C30.09 120.611 28.986 120.329 28.3693 120.154C23.1007 118.372 19.5528 114.162 17.9159 108.239C16.7434 103.96 17.0251 100.138 17.0403 99.978C17.1621 95.0368 18.2737 89.6692 20.5197 84.6823C23.5119 78.0661 30.2194 70.3231 38.8227 68.1457C47.4261 65.9606 50.2964 74.5867 50.2964 74.5867C52.2074 79.8401 50.2583 87.4613 48.1874 92.1893C45.8653 97.496 43.6497 100.168 40.9089 101.942C32.2751 107.523 21.5171 98.3335 32.6253 81.7663C32.6634 81.7054 32.7014 81.6445 32.7471 81.5912L32.8309 81.4846C33.2039 81.0278 33.7597 80.7385 34.3916 80.7385C35.5108 80.7385 36.4169 81.6445 36.4169 82.7561C36.4169 83.1596 36.4016 83.388 36.0819 83.8525C35.5261 84.6443 33.2572 88.1998 32.3208 91.5574C31.5061 94.915 31.8411 98.067 34.0034 99.1405C36.5082 100.382 39.9419 98.7903 42.6752 94.1384C47.4261 85.8701 47.0454 79.2995 47.0454 79.2995C47.0073 76.1551 45.6445 73.3762 43.5355 72.2951C40.178 70.582 33.1735 74.1756 28.7043 79.4214C13.1422 97.534 21.9663 133.112 48.2712 107.553H48.2788ZM51.7734 104.379C53.3114 102.734 56.3872 98.5923 54.9483 97.3132C53.4941 96.4681 51.6288 98.1507 51.7734 104.379ZM88.014 104.127C86.6892 104.63 85.9355 106.069 85.4254 107.257C85.867 107.005 87.1765 106.754 87.6942 108.383C89.9707 104.881 88.448 103.998 88.014 104.127Z" fill="#3D3D3D"/>
<path d="M49.7559 90.347C50.7685 87.4919 51.5374 84.3703 51.7582 80.9214C55.9076 81.835 59.5545 85.7865 59.5621 90.0957C59.5165 90.2252 58.7551 88.5045 56.905 88.3827C55.0701 88.3979 54.0575 87.865 52.9536 86.4108C52.7023 86.4412 52.1389 88.9918 55.9076 89.677C53.3875 91.5728 49.9767 90.5906 49.7635 90.3394" fill="#3D3D3D"/>
<path d="M163.671 90.5054C164.515 91.3491 164.937 92.3667 164.937 93.5581C164.937 94.7847 164.505 95.8179 163.642 96.6577C162.802 97.4702 161.794 97.8765 160.619 97.8765C159.404 97.8765 158.38 97.4604 157.548 96.6284C156.716 95.7964 156.3 94.7729 156.3 93.5581C156.3 92.2964 156.75 91.2476 157.648 90.4116C158.492 89.6304 159.482 89.2397 160.619 89.2397C161.81 89.2397 162.828 89.6616 163.671 90.5054ZM160.619 89.978C159.626 89.978 158.781 90.3374 158.082 91.0562C157.394 91.7593 157.05 92.5933 157.05 93.5581C157.05 94.5581 157.4 95.4077 158.099 96.1069C158.794 96.8062 159.634 97.1558 160.619 97.1558C161.599 97.1558 162.437 96.8042 163.132 96.1011C163.828 95.394 164.175 94.5464 164.175 93.5581C164.175 92.5972 163.83 91.7632 163.138 91.0562C162.439 90.3374 161.599 89.978 160.619 89.978ZM159.98 94.2671V95.9604H158.726V91.1733C159.023 91.1733 159.466 91.1753 160.056 91.1792C160.65 91.1792 160.98 91.1812 161.046 91.1851C161.425 91.2124 161.74 91.2944 161.99 91.4312C162.416 91.6655 162.628 92.0464 162.628 92.5737C162.628 92.9761 162.515 93.2671 162.289 93.4468C162.066 93.6265 161.791 93.7339 161.462 93.769C161.763 93.8315 161.99 93.9233 162.142 94.0444C162.423 94.271 162.564 94.6284 162.564 95.1167V95.5444C162.564 95.5913 162.566 95.6382 162.57 95.6851C162.578 95.7319 162.589 95.7788 162.605 95.8257L162.646 95.9604H161.451C161.412 95.8081 161.386 95.5874 161.375 95.2983C161.363 95.0093 161.337 94.814 161.298 94.7124C161.236 94.5444 161.119 94.4272 160.947 94.3608C160.853 94.3218 160.71 94.2964 160.519 94.2847L160.244 94.2671H159.98ZM160.466 93.4058C160.759 93.4058 160.988 93.3472 161.152 93.23C161.316 93.1128 161.398 92.9233 161.398 92.6616C161.398 92.3999 161.269 92.2183 161.011 92.1167C160.839 92.0503 160.597 92.0171 160.285 92.0171H159.98V93.4058H160.466Z" fill="#3D3D3D"/>
</svg>
