<svg width="180" height="180" viewBox="0 0 180 180" fill="none" xmlns="http://www.w3.org/2000/svg">
<path fill-rule="evenodd" clip-rule="evenodd" d="M164.933 95.8879C164.383 94.5994 163.431 93.1101 162.88 91.7549C160.277 86.4332 158.241 81.6143 155.705 76.4769C155.604 76.1922 155.404 75.975 155.154 75.8077H152.517C151.265 75.8077 149.913 75.7238 148.612 75.8077C147.31 75.8913 145.976 75.9245 144.857 75.9415L144.673 76.0753C142.421 80.4095 141.119 83.873 139.05 88.2743C137.815 90.2989 136.896 92.9262 135.679 95.0346C135.511 95.57 134.761 96.0052 135.095 96.6075C136.029 96.6912 136.963 96.6912 137.898 96.6075C139.717 96.7077 141.452 96.6075 143.188 96.6075C143.873 96.4399 144.757 96.8752 145.174 96.1391C145.608 95.4025 145.608 95.018 145.892 94.3988C146.192 93.7961 146.643 93.9636 147.01 93.93C147.895 94.0303 148.712 93.7294 149.646 93.93H149.78C151.015 93.8296 152.283 93.93 153.451 93.93C153.919 93.93 153.835 94.7502 154.069 95.0511C154.219 95.5867 154.436 96.1055 154.736 96.5909C155.354 96.6912 155.972 96.7247 156.589 96.7247C159.059 96.5909 160.777 96.7247 163.231 96.7247C163.665 96.6575 164.232 96.7247 164.599 96.7247C164.983 96.7578 164.999 96.2058 164.933 95.8879ZM148.512 89.6129H147.594L147.477 89.5293C147.461 89.4956 147.461 89.4455 147.477 89.4119V89.2951C147.627 89.0604 147.76 88.8097 147.878 88.542L148.061 88.1233C148.061 88.0397 148.278 87.6716 148.312 87.5713L148.395 87.3537L148.712 86.2325C148.762 86.1659 148.796 86.0821 148.829 85.9984L149.13 85.1951C149.13 85.1951 149.28 84.8602 149.296 84.8101C149.396 84.5593 149.463 84.1742 149.496 84.0739C149.513 84.0067 149.58 83.9566 149.646 83.9566H150.181C150.264 83.9733 150.331 84.0404 150.331 84.1407C150.331 84.1407 150.448 84.5593 150.548 84.827L150.882 85.7136V85.8644L151.183 86.5338C151.183 86.6174 151.366 87.2031 151.398 87.2699L151.633 87.7887L151.699 87.9392L152.033 88.6923C152.167 88.96 152.333 89.2111 152.5 89.4619C152.517 89.4954 152.517 89.5456 152.5 89.5793L152.384 89.6962H152.233L151.599 89.6128L148.512 89.6129ZM105.856 82.7354C105.255 81.0116 104.271 79.4387 102.969 78.1501C102.252 77.5144 101.451 77.0125 100.583 76.6274C99.765 76.2428 98.914 75.9415 98.0464 75.7405C97.5124 75.6234 96.9614 75.5563 96.4107 75.5734C95.8102 75.5228 95.1927 75.5228 94.5917 75.5734H90.5699C90.2694 75.6065 89.9524 75.6065 89.652 75.5734C88.6674 75.6737 87.5494 75.6737 86.5817 75.7739C84.7291 75.8912 82.9434 76.5436 81.4414 77.6481C81.1743 77.7485 80.9407 77.9494 80.8072 78.1837C79.2222 79.6562 78.1371 81.5972 77.6865 83.7225C77.4531 84.8772 77.3861 86.0485 77.503 87.2197C77.5365 87.9226 77.6365 88.6256 77.8201 89.3116C77.9202 89.7632 78.0536 90.1985 78.204 90.6331C78.7381 92.2231 79.7392 93.6285 81.0743 94.6327C81.4748 95.0178 81.9423 95.3187 82.4427 95.5197C83.0604 95.9214 83.7279 96.2558 84.4285 96.4735C85.0294 96.5738 85.7306 96.6409 86.3811 96.7748C87.0323 96.9086 87.4993 96.7748 87.9832 96.875C90.1193 96.875 92.9896 96.9423 95.1256 96.8084C96.4777 96.8585 97.8293 96.7577 99.1474 96.5071C99.8654 96.3898 100.566 96.1892 101.233 95.9045C101.451 95.6367 101.768 95.6702 101.968 95.4361C102.552 95.1012 103.086 94.7166 103.57 94.2478C104.054 94.1811 103.987 93.5786 104.404 93.3944C104.955 92.7587 105.372 92.0391 105.656 91.2525C106.04 90.4829 106.29 89.663 106.39 88.8097C106.524 86.768 106.357 84.7264 105.856 82.7354ZM96.7448 88.7091C96.3272 89.1443 95.8267 89.4791 95.2591 89.7133C94.9087 89.8974 94.5251 90.0312 94.1411 90.115C93.5736 90.115 93.0066 90.1651 92.439 90.2319C91.2039 90.0313 89.2012 90.2319 88.2837 89.2616C86.765 88.1234 86.3146 86.015 87.2321 84.3418C87.7496 83.2038 88.8843 82.4842 90.1358 82.4677C90.4027 82.5344 90.6698 82.5012 90.9038 82.4006C91.4378 82.568 93.1565 82.2836 93.7406 82.4006C94.4581 82.4506 95.1425 82.6517 95.7596 83.0197C96.4441 83.3712 96.9781 83.9735 97.2618 84.6934C97.7124 86.0321 97.5123 87.5212 96.7448 88.7091ZM72.1795 78.4515C71.3116 77.7319 70.3435 77.1293 69.3089 76.6444C67.3732 75.9751 65.3372 75.6568 63.2845 75.7238C60.4309 75.7238 60.2974 75.7906 57.4271 75.7906H55.3073C54.6064 75.7906 53.8054 75.7906 53.0547 75.8578C51.7861 75.7575 50.8017 75.9915 49.433 75.8578C49.2664 75.9415 49.0829 75.9751 48.899 75.9244C48.7488 75.9581 48.6488 76.0753 48.6488 76.2258C48.582 78.7192 48.582 81.5304 48.582 83.9233C48.582 87.655 48.6488 91.5373 48.4654 95.3524C48.6488 95.687 48.3819 96.2224 48.6823 96.4737C50.084 96.5909 51.5026 96.624 52.9042 96.574C53.5716 96.4737 54.2563 96.4571 54.9402 96.4902C55.6079 96.44 56.2754 96.44 56.9261 96.4902C59.9133 96.4902 60.4308 96.5574 63.3845 96.4902C64.052 96.5909 64.7865 96.3398 65.4371 96.4069C66.8056 96.3733 68.1572 96.1391 69.4594 95.7375C69.7094 95.503 70.0934 95.4699 70.3434 95.2688C70.9945 94.8843 71.612 94.449 72.1794 93.9301C72.88 93.2777 73.481 92.5246 73.9481 91.6712C75.2833 89.5796 75.3166 87.0525 75.2497 84.4087C75.0332 82.1162 73.9317 79.9743 72.1795 78.4515ZM65.4371 88.525C65.187 88.86 64.8865 89.1613 64.5529 89.412C64.002 89.8472 63.3178 90.1316 62.6168 90.1816C62.1828 90.2488 61.7493 90.2654 61.3317 90.2318C61.0982 90.2823 60.8478 90.2488 60.6312 90.1485C59.9302 90.2654 58.8956 90.0813 58.1946 90.1485C57.9609 90.0648 57.7939 89.8302 57.7939 89.5794C57.9274 88.2406 57.7104 86.199 57.8605 84.8602C57.727 84.0239 57.727 83.187 57.8605 82.3503L57.9775 82.2835C59.029 82.1829 60.0636 82.1829 61.1148 82.2835C62.0161 82.1497 62.9338 82.2835 63.7518 82.6681C64.536 82.9193 65.1533 83.5215 65.454 84.2745C65.6205 84.5759 65.7709 84.8772 65.8711 85.2117C66.0045 85.7471 66.0546 86.2996 65.9881 86.8518C65.9381 87.454 65.7542 88.0231 65.4371 88.525ZM42.1404 77.8322C41.3394 77.1629 40.455 76.6274 39.5039 76.2428C38.6022 75.8077 37.6678 75.4728 36.7166 75.2219C36.116 75.0881 35.4985 75.0379 34.8809 75.0379C34.197 74.9874 33.496 74.9874 32.8119 75.0379H29.9247C29.5741 75.071 29.2237 75.071 28.8731 75.0379C27.755 75.1548 26.4869 75.1548 25.4019 75.2721C23.3162 75.389 21.2966 76.0753 19.561 77.2632C19.2608 77.364 19.0104 77.5811 18.8434 77.8322C17.0683 79.3592 15.8189 81.4089 15.2721 83.689C15.005 84.9105 14.9386 86.1659 15.0551 87.404C15.0721 88.1736 15.1886 88.9267 15.3891 89.6632C15.5057 90.1485 15.6562 90.6168 15.8231 91.0685C16.4402 92.7923 17.5919 94.2815 19.0773 95.3358C19.5278 95.7541 20.0618 96.0721 20.646 96.2729C21.3466 96.7077 22.0975 97.0592 22.8986 97.2934C23.583 97.4107 24.3842 97.4779 25.1517 97.6283C25.9193 97.7787 26.4199 97.6283 26.9539 97.7456C27.488 97.8626 28.5395 97.7456 29.2072 97.7456C29.5406 97.7286 29.8746 97.9127 30.0247 98.2139C30.1581 98.415 30.2918 98.599 30.4418 98.7831C30.8593 99.285 31.2932 99.8371 31.7938 100.322C32.2779 100.858 32.7785 101.377 33.2956 101.862C33.5794 102.096 33.88 102.314 34.1801 102.531C34.4806 102.749 34.931 103 35.2481 103.201C35.7657 103.502 36.3162 103.786 36.8671 104.021C37.2007 104.188 37.5344 104.322 37.8517 104.472L38.3354 104.69L38.8364 104.874L39.8041 105.208L40.4715 105.342C40.7886 105.359 41.089 105.192 41.2061 104.908L41.4231 104.54C42.2071 103.033 42.8746 101.845 43.6757 100.239L43.8092 99.9041C43.9596 99.653 43.8926 99.335 43.6423 99.1846C43.6092 99.1676 43.5923 99.1509 43.5592 99.1509C43.2586 99.0672 42.9751 98.95 42.691 98.816C42.5242 98.7328 42.2739 98.6656 42.0906 98.5653C41.907 98.4816 41.5896 98.2809 41.4896 98.2305C41.406 98.1803 40.9555 98.0132 40.7886 97.8624C40.622 97.7285 40.2879 97.6116 40.0545 97.3771L39.6539 97.0426C39.6539 97.0426 39.3204 96.7577 39.5703 96.5572L39.9043 96.4399C40.2713 96.2895 40.8554 96.1221 41.206 95.9546C42.0071 95.6035 42.7411 95.1182 43.3921 94.5325C43.5255 94.3651 43.6756 94.2146 43.8261 94.0638C44.4432 93.4114 44.9108 92.6413 45.2442 91.8049C45.6782 91.0017 45.9623 90.1149 46.0789 89.1943C46.3123 87.0021 46.1458 84.7764 45.5782 82.6516C44.8272 80.811 43.6592 79.1545 42.1404 77.8322ZM34.8975 89.6129C34.6305 89.8973 34.2803 90.0813 33.8964 90.1315C33.4793 90.3826 32.9119 90.1985 32.5447 90.4829C32.0438 90.4995 31.5433 90.5501 31.0593 90.6333C30.6585 90.5666 30.2582 90.5666 29.8576 90.5666C28.7564 90.6504 27.6713 90.3491 26.7538 89.7469C24.8513 88.6257 24.6341 86.584 25.1517 84.76C25.3517 84.2746 25.6189 83.8395 25.9695 83.4549C26.7705 82.8358 27.7384 82.5011 28.7396 82.5011C29.0568 82.5513 29.3737 82.5178 29.6742 82.4005C30.3084 82.5513 31.1094 82.3167 31.7603 82.4842C32.5615 82.4842 33.346 82.6682 34.08 83.0196C34.8809 83.3877 35.5319 84.0239 35.9156 84.8271C36.3661 86.5003 35.9991 88.2743 34.8975 89.6129ZM133.126 87.6049C132.441 87.0193 131.623 86.6343 130.739 86.4838C130.672 86.4668 130.621 86.4167 130.621 86.3499V86.1659C130.605 86.1323 130.621 86.0821 130.655 86.0651C132.959 85.2288 134.277 82.819 133.776 80.4259C133.509 79.372 132.992 78.4013 132.274 77.598C132.141 77.4472 131.991 77.3303 131.824 77.213C130.956 76.5437 129.904 76.142 128.803 76.0918C128.052 76.0251 127.301 75.9915 126.55 76.0251C125.181 76.0251 123.88 75.9414 122.495 75.9414C120.342 75.9414 118.656 75.8743 116.871 75.8577C115.653 75.8577 114.401 75.958 113.083 75.975C111.748 75.9915 110.312 75.9079 108.944 75.9079C108.744 76.0082 108.61 76.1921 108.593 76.4098C108.51 79.2713 108.81 82.049 108.727 84.9611C108.81 85.279 108.81 85.6135 108.727 85.9314C108.727 88.9938 108.961 92.0227 108.877 95.185C108.81 95.6202 108.844 96.0721 108.994 96.4737C109.878 96.574 110.779 96.6076 111.681 96.6076H120.559C120.876 96.5909 121.193 96.5909 121.51 96.6076C122.628 96.6747 123.079 96.6076 124.114 96.6076C124.882 96.5238 125.649 96.4902 126.433 96.5073C126.867 96.5073 127.301 96.4737 127.735 96.4069C129.303 96.5238 130.856 96.1724 132.241 95.4362C132.725 95.0846 133.158 94.6666 133.542 94.1977C133.859 93.6958 134.144 93.1604 134.36 92.5914C134.694 91.4536 134.627 90.2153 134.177 89.1107C133.926 88.5421 133.576 88.0398 133.126 87.6049ZM118.206 81.1791C119.324 81.1791 120.175 81.1791 121.193 81.112C122.311 81.2964 122.528 81.1956 123.83 81.3631C124.414 81.5305 124.832 82.066 124.832 82.6853C124.898 83.0197 124.814 83.3878 124.615 83.6725C123.496 84.4587 122.111 83.9567 120.909 84.1408C120.008 84.0908 119.09 84.0908 118.189 84.1408C118.089 83.823 118.022 83.4885 117.989 83.1536C117.855 82.4677 117.939 81.7983 118.206 81.1791ZM125.131 90.4663C124.781 90.8845 124.247 91.1021 123.697 91.035C122.762 91.0855 121.81 91.0855 120.876 91.035C120.308 90.9181 119.524 91.1187 118.923 91.035C118.606 90.9683 118.106 91.1859 117.972 90.8178C117.922 89.9976 117.922 89.1613 117.972 88.341C118.756 88.1571 119.557 88.0903 120.342 88.1571C120.792 88.2072 121.243 88.2072 121.677 88.1571L123.379 88.3074C124.03 88.2072 124.665 88.525 124.998 89.0941C125.248 89.5293 125.298 90.0312 125.131 90.4663Z" fill="#3D3D3D"/>
<path fill-rule="evenodd" clip-rule="evenodd" d="M55.0574 105.577V101.627L54.7233 102.381L53.1883 105.577H52.1701L50.6514 102.381L50.3176 101.627V105.577H48.7488V99.6865H51.085L52.5371 102.849L52.7707 103.401L53.0545 102.849L54.4897 99.6865H56.7425V105.577H55.0574ZM61.6158 105.577V99.7032H66.9227V100.975H63.3178V102.096H65.8877V103.084H63.3178V104.205H66.9227V105.543L61.6158 105.577ZM75.6674 102.598L77.9201 105.577H76.0177L74.5822 103.636L73.1141 105.577H71.2781L73.5811 102.648L71.3281 99.6865H73.2807L74.7157 101.611L76.1514 99.6865H77.987L75.6674 102.598ZM82.8765 105.577V99.7032H84.5456V105.594L82.8765 105.577ZM94.7587 101.645C94.3247 101.109 93.6742 100.808 92.9897 100.808C92.1555 100.724 91.4045 101.343 91.3209 102.18V102.966C91.3375 103.82 92.0385 104.489 92.8895 104.472C92.9395 104.472 92.9897 104.472 93.0396 104.456C93.7241 104.456 94.3748 104.155 94.8087 103.619L95.7597 104.422C95.0922 105.309 94.0245 105.811 92.9062 105.761C90.8534 105.761 89.5354 104.506 89.5354 102.95V102.347C89.6354 100.674 91.0875 99.4024 92.756 99.5026C92.8061 99.5026 92.8562 99.5026 92.9062 99.5192C94.0246 99.4691 95.1092 99.9544 95.8102 100.858L94.7587 101.645ZM104.588 105.577L104.087 104.355H101.584L101.084 105.577H99.498L102.068 99.6865H103.804L106.407 105.577H104.588ZM102.869 101.277L102.018 103.335H103.67L102.869 101.277ZM115.269 105.577L112.665 102.548L112.248 102.046V105.594H110.579V99.7202H112.064L114.684 102.766L115.085 103.268V99.7202H116.687V105.61L115.269 105.577ZM126.033 105.577V99.7032H131.34V100.975H127.735V102.096H130.305V103.084H127.735V104.205H131.34V105.543L126.033 105.577ZM140.769 105.577L140.268 104.355H137.764L137.264 105.577H135.712L138.282 99.6865H140.018L142.621 105.577H140.769ZM139.082 101.277L138.232 103.335H139.918L139.082 101.277ZM149.696 101.009V105.527H147.978V101.009H145.809V99.7032H151.85V101.025L149.696 101.009ZM158.591 105.778C157.456 105.778 156.339 105.46 155.387 104.858L156.072 103.82C156.839 104.305 157.723 104.573 158.625 104.606C159.509 104.606 159.86 104.305 159.86 103.97C159.86 102.983 155.671 103.569 155.671 101.427C155.671 100.373 156.789 99.5026 158.591 99.5026C159.643 99.4857 160.678 99.8206 161.512 100.456L160.728 101.377C160.093 100.942 159.326 100.69 158.559 100.674C157.774 100.674 157.323 100.925 157.323 101.293C157.323 102.247 161.546 101.745 161.546 103.837C161.528 104.974 160.277 105.778 158.591 105.778ZM164.999 100.707C165.017 101.293 164.567 101.778 163.982 101.795C163.398 101.812 162.914 101.36 162.897 100.774C162.88 100.189 163.331 99.7032 163.915 99.6865H163.965C164.517 99.6865 164.983 100.138 164.999 100.707ZM163.147 100.707C163.131 101.143 163.481 101.511 163.915 101.527H163.932C164.366 101.527 164.716 101.159 164.716 100.724V100.707C164.716 100.272 164.366 99.9209 163.932 99.9042C163.515 99.9209 163.147 100.272 163.147 100.707ZM163.782 101.259H163.798V100.841H163.932C164.033 100.841 164.116 100.908 164.132 101.009C164.149 101.092 164.182 101.176 164.216 101.259H164.466C164.416 101.193 164.399 101.092 164.383 101.009C164.383 100.891 164.3 100.791 164.199 100.758C164.316 100.741 164.399 100.64 164.416 100.523C164.416 100.44 164.383 100.356 164.316 100.306C164.199 100.239 164.065 100.205 163.949 100.222C163.816 100.205 163.682 100.205 163.548 100.222V101.259H163.782ZM163.782 100.674H163.899C164.033 100.674 164.132 100.674 164.132 100.523C164.132 100.373 164.065 100.373 163.915 100.373H163.782V100.724V100.674Z" fill="#3D3D3D"/>
</svg>
