<svg width="180" height="180" viewBox="0 0 180 180" fill="none" xmlns="http://www.w3.org/2000/svg">
<path d="M42.0768 70.2764C39.1703 69.0399 35.1556 68.1575 31.9156 68.1575C28.7449 68.1575 24.6481 69.5248 24.6481 74.4681C24.6481 82.341 44.8678 79.0241 44.8678 94.2491C44.8678 104.202 36.8718 107.976 27.5546 107.976C22.5317 107.976 20.2871 107.324 15.726 106.221L15.7158 98.0227C18.8891 99.7132 23.3911 100.821 27.0262 100.821C30.5304 100.821 35.2197 99.0642 35.2197 94.9649C35.2197 86.3121 15 89.8881 15 74.8606C15 64.7097 22.996 61.0003 31.1229 61.0003C35.0889 61.0003 38.788 61.521 42.1588 62.6267L42.0768 70.2764ZM95.0617 81.6184C92.4323 80.7333 90.0491 80.228 86.9041 80.228C84.5953 80.228 81.835 81.0489 81.835 83.8297C81.835 89.009 96.7856 85.7254 96.7856 97.4745C96.7856 105.055 89.9209 108.087 82.9253 108.087C79.6545 108.087 76.3171 107.518 73.1746 106.697L73.6876 99.7473C76.3812 101.076 79.2056 101.897 82.1557 101.897C84.3387 101.897 87.8019 101.076 87.8019 97.9157C87.8019 91.5358 72.854 95.8943 72.854 84.1452C72.854 77.1342 79.0748 74.0379 85.8139 74.0379C89.8568 74.0379 92.4861 74.669 95.1823 75.2385L95.0617 81.6184ZM122.286 81.8079C120.746 81.1128 119.079 80.6074 116.45 80.6074C111.122 80.6074 107.722 84.776 107.722 90.9045C107.722 96.9047 110.608 101.517 116.639 101.517C119.079 101.517 121.773 100.632 123.248 100.001L123.633 107.012C121.131 107.769 118.563 108.087 115.036 108.087C104.193 108.087 98.7388 100.822 98.7388 90.9045C98.7388 81.4924 104.385 74.0377 114.715 74.0377C118.179 74.0377 120.682 74.4173 123.058 75.1125L122.286 81.8079ZM141.864 101.516C148.473 101.516 150.204 95.706 150.204 90.2727C150.204 85.2832 147.511 80.6092 141.864 80.6092C136.282 80.6092 133.589 85.4089 133.589 90.2727C133.589 95.6418 135.32 101.516 141.864 101.516ZM141.864 74.0395C151.679 74.0395 159.185 80.5451 159.185 91.2834C159.185 100.631 152.836 108.086 141.864 108.086C130.959 108.086 124.605 100.631 124.605 91.2834C124.605 80.5451 132.114 74.0395 141.864 74.0395ZM73.8174 74.3547H65.0903L48.6749 119.047H56.5607L73.8174 74.3547Z" fill="#3D3D3D"/>
<path d="M38.1496 73.551C41.7949 77.2425 45.4273 81.7395 48.0593 87.0137C50.4143 91.7364 51.6045 96.336 52.4562 100.972C52.4921 101.133 52.5999 101.12 52.6615 100.995C55.7963 95.5177 57.7151 88.0629 54.9086 82.4449C51.9688 76.5499 44.904 73.8383 38.2675 73.2919C38.0367 73.2817 37.9957 73.4022 38.1496 73.551Z" fill="#3D3D3D"/>
<path d="M159.024 74.7489H157.847V74.323H160.715V74.7489H159.53V78.1992H159.024V74.7489ZM164.413 76.4971C164.384 75.9636 164.351 75.3017 164.351 74.8246H164.338C164.2 75.2735 164.046 75.766 163.848 76.297L163.163 78.1774H162.786L162.153 76.3304C161.968 75.784 161.819 75.2838 161.711 74.8246H161.698C161.688 75.3068 161.657 75.9559 161.624 76.5382L161.521 78.1979H161.044L161.314 74.3243H161.952L162.612 76.197C162.773 76.6741 162.902 77.1077 163.004 77.5079H163.014C163.12 77.1179 163.256 76.687 163.43 76.197L164.12 74.3243H164.759L165 78.1979H164.505L164.413 76.4971Z" fill="#3D3D3D"/>
</svg>
