<svg width="180" height="180" viewBox="0 0 180 180" fill="none" xmlns="http://www.w3.org/2000/svg">
<g clip-path="url(#clip0_741_2326)">
<path d="M132.829 67.0455C132.72 65.0988 133.045 61.8542 132.504 60.0156H86.9717C84.376 52.1204 84.9168 43.6844 86.431 35.3567H143.536V48.0106L135.1 40.9806C120.824 40.548 107.521 41.1969 93.1364 40.9806C91.0815 44.8741 91.1897 48.4432 91.9468 52.4448L93.3528 53.4182L135.857 53.6345C137.696 55.6894 140.183 55.2568 142.238 57.3117C143.752 68.9923 141.048 81.4299 146.131 91.5963C147.537 96.0305 150.241 101.546 149.16 106.197L145.05 118.31H124.933L127.529 111.929L133.91 110.307L137.263 104.899L128.611 97.1121C124.285 101.763 120.824 106.089 117.038 111.172L116.173 118.418H94.6506C94.7587 116.58 95.2995 114.2 96.381 112.362L102.438 110.415C107.304 101.438 113.037 94.5164 117.038 85.2152C110.008 87.8109 102.978 91.3799 95.8403 94.4082L77.6706 94.1919L72.0466 104.466C73.2363 109.333 81.0233 112.47 76.4809 118.31L53.8769 118.526L55.8236 112.902C57.7704 112.253 59.7171 111.172 61.4476 109.658C59.7171 105.656 58.0948 101.546 56.0399 97.8691C52.3627 102.412 46.8469 107.711 43.1697 113.011L44.792 118.635H25.1082C26.5141 115.174 26.6223 110.307 31.4892 109.766C34.6256 105.548 37.6539 101.114 40.1414 96.7876C38.8436 93.1104 37.6539 89.5413 36.2479 85.8641C33.7604 85.8641 32.1381 87.7027 29.7587 88.6761C33.7604 79.9157 36.7887 70.939 39.6007 61.6378C37.7621 59.3666 36.2479 58.0688 34.9501 55.2568C35.3827 54.1753 35.9235 52.9856 36.7887 52.2285C39.4925 52.9856 41.98 55.0405 44.1431 56.6628C45.7654 55.0405 46.6306 53.0938 48.3611 51.2552L47.4958 50.8225H33.0033C32.3544 51.3633 31.9218 52.3367 32.1381 53.3101C30.7321 53.8508 29.1098 53.5264 27.5957 53.6345L28.4609 47.1453C31.381 47.4698 34.0849 46.6046 36.5724 46.8209C36.7887 43.4681 33.8686 41.1969 33.7604 37.6279H46.3062C46.9551 36.9789 46.9551 35.573 47.9285 35.1403C56.6889 35.6811 66.3145 35.6811 73.9933 32.0039L75.6156 32.3284L73.02 40.3317C73.8852 41.4132 74.8586 39.7909 75.832 39.4665C77.8869 48.9839 76.589 58.2851 78.1032 66.721L132.829 67.0455ZM46.4143 44.9823C44.4676 45.523 41.3311 45.8475 39.3844 46.8209C42.0882 46.8209 45.0083 47.0372 47.4958 46.6046C47.0632 45.9557 47.1714 45.0904 46.4143 44.9823Z" fill="#3D3D3D"/>
<path d="M25 147.795V127.246H36.2479V131.356H29.7587V135.033H35.8153V139.143H29.7587V147.795H25ZM52.2546 141.198C52.2546 145.848 50.6323 148.228 45.7654 148.228C40.8985 148.228 39.1681 145.848 39.1681 141.198V132.87C39.1681 128.976 41.5474 126.705 45.7654 126.705C49.9834 126.705 52.2546 128.868 52.2546 132.87V141.198ZM47.3877 133.194C47.3877 131.896 47.2795 130.382 45.6572 130.382C44.1431 130.382 43.9268 131.896 43.9268 133.194V141.63C43.9268 142.82 44.1431 144.55 45.6572 144.55C47.1714 144.55 47.2795 142.82 47.2795 141.63L47.3877 133.194ZM68.2612 141.198C68.2612 145.848 66.6389 148.228 61.772 148.228C56.9052 148.228 55.1747 145.848 55.1747 141.198V132.87C55.1747 128.976 57.5541 126.705 61.772 126.705C65.99 126.705 68.2612 128.868 68.2612 132.87V141.198ZM63.3943 133.194C63.3943 132.005 63.2862 130.49 61.772 130.49C60.2579 130.49 60.0416 132.005 60.0416 133.302V141.738C60.0416 142.928 60.2579 144.658 61.772 144.658C63.2862 144.658 63.3943 142.928 63.3943 141.738V133.194ZM71.3977 147.795V127.246H76.589C78.3195 127.246 80.4825 127.354 81.9967 128.219C83.8353 129.301 84.1597 131.356 84.1597 133.302V142.387C84.1597 144.442 83.5108 145.956 82.1048 146.822C80.807 147.687 79.2928 147.795 77.8869 147.795H71.3977ZM76.1564 144.118C79.401 144.334 79.401 143.036 79.2928 140.332V133.627C79.2928 131.248 78.4276 131.031 76.1564 131.031V144.118ZM94.7587 147.795V127.246H99.5175V143.685H105.358V147.795H94.7587ZM108.062 147.795V127.246H112.82V147.795H108.062ZM129.151 141.198C129.151 145.848 127.529 148.228 122.662 148.228C117.795 148.228 116.065 145.848 116.065 141.198V132.87C116.065 128.976 118.444 126.705 122.662 126.705C126.88 126.705 129.151 128.868 129.151 132.87V141.198ZM124.393 133.194C124.393 131.896 124.285 130.382 122.662 130.382C121.148 130.382 120.932 131.896 120.932 133.194V141.63C120.932 142.82 121.148 144.55 122.662 144.55C124.176 144.55 124.285 142.82 124.285 141.63L124.393 133.194ZM136.398 136.331L136.83 147.795H132.288V127.246H137.263L140.94 138.71H141.048L140.507 127.246H145.05V147.795H140.183L136.398 136.331Z" fill="#3D3D3D"/>
<path d="M148.403 115.498C148.403 113.659 149.917 112.253 151.755 112.253C153.486 112.253 155 113.659 155 115.498C155 117.445 153.486 118.743 151.647 118.851C149.917 118.743 148.403 117.337 148.403 115.498ZM151.755 118.202C153.269 118.202 154.351 117.012 154.351 115.498C154.351 113.984 153.161 112.794 151.755 112.794C150.241 112.794 149.052 113.984 149.052 115.498C149.052 117.012 150.241 118.202 151.755 118.202ZM150.998 117.337H150.457V113.551H151.863C152.729 113.551 153.269 113.876 153.269 114.633C153.269 115.282 152.837 115.606 152.296 115.714L153.378 117.337H152.729L151.755 115.714H151.106L150.998 117.337ZM151.755 115.282C152.188 115.282 152.621 115.282 152.621 114.633C152.621 114.2 152.188 114.092 151.755 114.092H150.998V115.282H151.755Z" fill="#3D3D3D"/>
</g>
<defs>
<clipPath id="clip0_741_2326">
<rect width="130" height="116.272" fill="white" transform="translate(25 32)"/>
</clipPath>
</defs>
</svg>
