<svg width="180" height="180" viewBox="0 0 180 180" fill="none" xmlns="http://www.w3.org/2000/svg">
<g clip-path="url(#clip0_741_2194)">
<path d="M89.9962 25C54.1008 25 25 54.1008 25 89.9962C25 125.892 54.1008 155.008 89.9962 155.008C125.892 155.008 155.008 125.907 155.008 89.9962C155.008 54.0856 125.899 25 89.9962 25ZM89.9962 151.572C56.0009 151.572 28.4277 124.007 28.4277 89.9962C28.4277 55.9857 55.9933 28.4277 89.9962 28.4277C123.999 28.4277 151.572 55.9933 151.572 89.9962C151.572 123.999 124.007 151.572 89.9962 151.572ZM89.9962 52.824C69.4759 52.824 52.8316 69.4683 52.8316 89.9962C52.8316 110.524 69.4759 127.176 89.9962 127.176C110.517 127.176 127.176 110.532 127.176 89.9962C127.176 69.4607 110.532 52.824 89.9962 52.824ZM89.9962 124.683C70.8515 124.683 55.3245 109.148 55.3245 89.9962C55.3245 70.8439 70.8515 55.3169 89.9962 55.3169C109.141 55.3169 124.691 70.8439 124.691 89.9962C124.691 109.148 109.164 124.683 89.9962 124.683Z" fill="#3D3D3D"/>
<path d="M39.2274 90.6347C39.2426 91.4099 39.8886 92.0256 40.6638 92.0104C41.439 91.9952 42.0547 91.3567 42.0395 90.5815C42.0243 89.8063 41.3858 89.1907 40.6106 89.2059C39.8354 89.2211 39.2198 89.8595 39.235 90.6347H39.2274ZM45.0339 117.63L51.5016 113.199L54.8381 118.079L53.5764 118.945L51.1976 115.48L49.8828 116.376L51.9728 119.424L50.7112 120.29L48.6212 117.243L47.2607 118.17L49.67 121.681L48.4008 122.555L45.0263 117.623L45.0339 117.63ZM55.7729 130.209L56.2973 127.047L53.1736 127.83L51.7296 126.5L56.4417 125.413L57.1181 120.807L58.6001 122.168L58.0985 125.162L61.0397 124.41L62.4762 125.732L57.9541 126.781L57.2549 131.577L55.7729 130.209ZM61.7466 134.647L65.8734 127.997L67.3402 128.901L63.2134 135.559L61.7542 134.647H61.7466ZM71.9079 139.868C69.7495 139.04 68.7843 136.775 69.5899 134.67V134.647C70.3879 132.565 72.6071 131.455 74.8568 132.321C76.24 132.846 76.886 133.621 77.3116 134.548L75.8372 135.339C75.4648 134.609 75.0088 134.077 74.2791 133.796C73.0479 133.325 71.7635 134.009 71.2847 135.27V135.293C70.7983 136.547 71.2695 137.923 72.5235 138.409C73.3595 138.728 74.0055 138.591 74.7732 138.28L75.404 139.709C74.34 140.225 73.3139 140.408 71.9003 139.868H71.9079ZM86.2645 142.924L85.7629 141.1L82.4721 140.697L81.5449 142.354L79.7968 142.141L84.0833 134.708L85.6641 134.898L88.043 143.144L86.2569 142.931L86.2645 142.924ZM84.6077 136.851L83.2625 139.253L85.3297 139.503L84.6001 136.851H84.6077ZM99.0023 142.376L94.6171 137.907L95.2327 142.855L93.5378 143.06L92.565 135.285L94.1459 135.088L98.3867 139.42L97.7939 134.639L99.4811 134.427L100.446 142.202L98.9947 142.384L99.0023 142.376ZM112.797 138.227C110.577 139.245 108.335 138.386 107.362 136.273V136.258C106.42 134.237 107.241 131.85 109.399 130.862C110.684 130.277 111.611 130.262 112.645 130.558L112.204 132.2C111.444 131.995 110.836 131.957 110.007 132.329C108.867 132.853 108.419 134.282 108.974 135.483V135.506C109.582 136.805 110.919 137.36 112.173 136.775C112.743 136.509 113.184 136.137 113.458 135.665L112.994 134.647L111.413 135.377L110.79 134.024L113.876 132.603L115.305 135.703C114.856 136.661 114.081 137.634 112.781 138.234L112.797 138.227ZM124.539 130.596L121.666 129.669L120.602 130.505L122.16 132.473L120.807 133.545L115.943 127.396L118.747 125.17C120.199 124.022 121.673 124.098 122.677 125.367L122.692 125.382C123.475 126.37 123.437 127.427 122.882 128.331L126.12 129.342L124.546 130.589L124.539 130.596ZM121.362 126.522C120.906 125.945 120.26 125.968 119.606 126.484L118.269 127.556L119.659 129.319L121.027 128.24C121.689 127.723 121.787 127.07 121.377 126.553L121.362 126.53V126.522ZM129.882 125.39L123.961 120.26L125.094 118.96L131.006 124.09L129.882 125.39ZM134.632 119.333L127.906 115.32L128.787 113.838L134.168 117.045L136.167 113.693L137.512 114.491L134.624 119.325L134.632 119.333ZM139.754 109.521L132.344 106.99L132.899 105.356L138.835 107.385L140.096 103.684L141.578 104.186L139.762 109.513L139.754 109.521ZM41.4618 110.615L46.2575 108.829L42.3511 107.933L42.3359 107.895L44.6767 104.687L39.9114 106.466L39.3186 104.885L46.6603 102.141L47.3139 103.889L44.9275 106.975L48.758 107.75L49.404 109.491L42.0623 112.234L41.4618 110.631V110.615ZM53.7512 59.7707C53.5992 59.9303 53.5992 60.1811 53.7512 60.3407L56.7989 63.3123C56.9585 63.4719 56.9585 63.7227 56.7989 63.8823L55.6285 65.0831C55.4689 65.2427 55.2181 65.2503 55.0585 65.0831L45.5355 55.7806C45.3759 55.621 45.3759 55.3702 45.5355 55.2106L46.7059 54.0174C46.8579 53.8578 47.1163 53.8502 47.2759 54.0098L51.532 58.167C51.6916 58.319 51.95 58.319 52.102 58.167L56.6621 53.5006C56.8141 53.341 56.8141 53.0826 56.6621 52.9306L52.406 48.7733C52.2464 48.6213 52.2464 48.3629 52.406 48.2033L53.5764 47.0025C53.736 46.8429 53.9868 46.8429 54.1464 47.0025L63.6694 56.305C63.829 56.457 63.829 56.7154 63.677 56.875L62.5066 58.0758C62.347 58.2354 62.0962 58.2354 61.9366 58.0758L58.8965 55.1042C58.7369 54.9522 58.4861 54.9522 58.3265 55.1118L53.7664 59.7783L53.7512 59.7707ZM64.3458 39.8204C64.5434 39.7216 64.7866 39.7976 64.893 39.9952L71.0567 51.7905C71.1555 51.9881 71.0871 52.2313 70.8819 52.3377L69.3999 53.113C69.2023 53.2194 68.9591 53.1434 68.8527 52.9458L62.689 41.1428C62.5902 40.9452 62.6662 40.702 62.8638 40.5956L64.3458 39.8204ZM97.5051 49.0317C93.2262 48.2869 90.817 44.5248 91.5086 40.588C92.1926 36.6587 95.7951 33.9075 100.074 34.6599C104.338 35.4123 106.747 39.1667 106.055 43.1036C105.364 47.0405 101.776 49.7841 97.5051 49.0317ZM99.6331 36.8943C96.8667 36.4079 94.5487 38.2775 94.0699 40.9984C93.591 43.7192 95.1719 46.3033 97.9307 46.7897C100.697 47.2761 103 45.4064 103.479 42.6856C103.95 39.9648 102.384 37.3731 99.6255 36.8943H99.6331ZM112.941 54.3062C112.827 54.4962 112.576 54.5646 112.386 54.443L110.935 53.5766C110.745 53.4626 110.684 53.2118 110.798 53.0218L116.437 43.5596C116.543 43.3696 116.49 43.1264 116.293 43.0048L113.139 41.1276C112.941 41.0136 112.888 40.7704 113.002 40.5804L113.762 39.2959C113.883 39.1059 114.127 39.0375 114.317 39.1515L123.46 44.6084C123.65 44.7224 123.718 44.9656 123.604 45.1556L122.836 46.4401C122.722 46.6301 122.471 46.6909 122.281 46.5769L119.127 44.692C118.937 44.578 118.687 44.6464 118.573 44.8364L112.933 54.291L112.941 54.3062ZM129.745 50.6201C129.912 50.4757 130.17 50.4985 130.307 50.6657L131.402 51.9349C131.546 52.1021 131.523 52.3605 131.356 52.5049L122.981 59.7099C122.806 59.8543 122.791 60.1127 122.935 60.2799L127.252 65.2959C127.396 65.4631 127.374 65.7215 127.214 65.866L126.112 66.8084C125.937 66.9528 125.686 66.9376 125.542 66.7704L119.614 59.8695C119.469 59.7099 119.492 59.4515 119.659 59.3071L129.76 50.6277L129.745 50.6201ZM142.688 75.6321C142.483 75.7081 142.255 75.6093 142.171 75.3965L139.648 68.678C139.572 68.4652 139.344 68.3588 139.131 68.4424L135.62 69.7572C135.414 69.8332 135.308 70.0688 135.384 70.2816L137.277 75.3205C137.353 75.5257 137.246 75.7613 137.041 75.8373L135.718 76.3313C135.513 76.4073 135.278 76.3009 135.202 76.0957L133.309 71.0568C133.226 70.844 132.998 70.7452 132.792 70.8212L130.824 71.5584C130.611 71.6344 130.505 71.87 130.588 72.0752L133.142 78.8926C133.226 79.0978 133.119 79.3334 132.906 79.4094L131.584 79.9034C131.379 79.9794 131.143 79.873 131.067 79.6678L127.632 70.5248C127.556 70.3196 127.662 70.084 127.868 70.008L140.324 65.3339C140.529 65.2579 140.765 65.3643 140.849 65.5695L144.246 74.6213C144.322 74.8265 144.215 75.0621 144.003 75.1381L142.68 75.6321H142.688ZM85.6565 38.7411C85.0865 35.9215 81.9933 34.5079 78.7784 35.1615L73.7167 36.1875C73.4963 36.2331 73.3595 36.4459 73.4051 36.6587L76.05 49.7081C76.088 49.9209 76.3084 50.0653 76.5212 50.0197L78.1628 49.6853C78.3832 49.6397 78.52 49.4269 78.482 49.2065L77.7372 45.5508C77.6916 45.338 77.836 45.1176 78.0564 45.0796L80.4048 44.6008C83.4525 43.9852 86.2949 41.8572 85.6565 38.7335V38.7411ZM77.608 42.8908C77.3876 42.9364 77.1748 42.792 77.1368 42.5792L76.2856 38.3839C76.24 38.1711 76.3844 37.9507 76.6048 37.9051L79.0292 37.4111C80.8532 37.0463 82.1909 37.6619 82.5177 39.2959C82.8217 40.778 81.8793 42.0168 80.04 42.3892L77.608 42.8832V42.8908ZM40.2078 68.8376C40.7854 67.5 41.7963 66.6716 43.0275 66.0864C43.2251 65.9952 43.3087 65.7443 43.2099 65.5467L42.5031 64.0723C42.4043 63.8747 42.1611 63.7911 41.9635 63.8899C40.4358 64.6119 39.0602 65.7367 38.1102 67.9104C36.4002 71.832 38.2166 75.8981 41.9179 77.5169L41.8419 77.4865C45.5431 79.0978 49.7536 77.6537 51.456 73.7245C52.406 71.5508 52.292 69.78 51.7828 68.1688C51.7144 67.9636 51.4864 67.842 51.2812 67.9028L49.7156 68.3892C49.5104 68.4576 49.3888 68.6856 49.4496 68.8908C49.86 70.1904 49.936 71.4976 49.3584 72.8353C48.2716 75.3205 45.4595 76.2249 42.9135 75.1153C40.3598 74.0057 39.1058 71.3304 40.1926 68.8452L40.2078 68.8376ZM139.397 89.1983C138.622 89.1831 137.983 89.7987 137.961 90.5739C137.938 91.3491 138.561 91.9876 139.336 92.0028C140.111 92.018 140.757 91.4023 140.765 90.6271C140.78 89.8519 140.172 89.2059 139.389 89.1983H139.397Z" fill="#3D3D3D"/>
<path d="M102.392 64.4752C102.848 64.5284 104.847 65.2276 104.847 65.2276C104.847 65.2276 106.777 68.0549 107.271 68.6553C107.765 69.2633 107.545 69.6965 107.545 69.6965L106.595 73.1546C106.245 72.8734 103.692 73.1014 103.084 73.1546C102.476 73.2078 103.638 72.4401 103.912 72.1665C104.186 71.8929 105.288 71.1177 105.151 70.6769C105.022 70.2361 103.357 67.0213 103.357 67.0213C103.357 67.0213 100.454 66.9909 99.0783 67.1581C97.7027 67.3253 94.807 70.2057 94.807 70.2057L93.7506 74.3706C93.7506 74.3706 94.1762 75.1382 94.7842 75.6322C95.3922 76.1262 97.1555 75.959 97.8091 75.9058C98.4703 75.8526 98.1967 76.6202 97.6419 77.1142C97.0871 77.6082 95.111 77.6082 95.111 77.6082L95.9319 77.8818C96.8439 78.7102 98.5159 82.9435 99.4963 83.9315C100.484 84.9119 99.4659 89.8748 98.0523 91.2884C96.6387 92.6945 95.9622 95.7421 95.1034 96.6009C94.237 97.4673 93.3478 97.1253 94.237 98.0145C95.1338 98.9038 94.7158 99.9754 94.8602 100.766C94.9514 101.267 95.0958 102.187 95.529 102.62C95.9547 103.053 102.483 107.575 105.105 107.781C105.584 107.819 105.592 110.122 102.901 112.956C102.901 112.956 102.422 114.59 97.9383 114.735C93.0438 114.887 88.2329 114.074 87.1233 114.074C86.0137 114.074 82.8064 112.242 82.8064 112.242C82.1984 112.242 71.9763 98.0297 71.9763 97.0493C71.9763 96.0689 71.2543 93.4089 71.2543 92.4209C71.2543 91.4328 72.3943 82.4419 72.2119 81.3475C72.0675 80.4887 72.5159 80.2911 73.4963 79.303C74.4767 78.3226 76.2552 76.6582 76.9316 75.9818C77.2356 75.6778 79.5916 75.7462 82.4416 75.1382L82.8825 74.9482L82.3124 74.6746C82.3124 74.6746 81.3928 73.5194 79.9108 73.5726C78.4288 73.6258 77.9272 73.7398 78.7024 73.4054C79.47 73.0786 80.8608 72.0297 80.8608 72.0297L84.0985 73.4586H86.5457L89.6086 70.9353L96.5627 65.2884L102.4 64.4448M80.1616 82.3659C79.3408 82.5179 78.0108 82.2823 77.3876 83.4147L76.202 88.5676C76.202 88.5676 76.3312 93.7433 76.4452 94.7693C76.5592 95.7877 77.8892 99.1318 78.6416 99.8842C79.3028 100.545 80.5796 102.727 81.7424 103.874C82.054 104.186 82.6924 104.33 82.9585 104.695C83.4449 105.349 83.1409 104.9 82.2744 103.616C79.09 98.9038 78.406 94.8301 78.2464 94.1385C77.9044 92.6185 78.1552 89.054 78.2464 87.6328C78.292 86.8728 78.8164 85.1779 79.318 84.7979C79.5536 84.6155 81.7348 84.3799 82.1756 84.2507C82.8597 84.0531 83.8249 84.0607 84.4481 83.9391C86.4469 83.5287 90.1254 84.5471 90.3762 84.6687C93.3706 86.052 92.2078 86.5384 92.2534 86.698C92.299 86.8652 88.0885 95.3545 88.1037 95.7573C88.1265 96.1905 88.2785 100.431 88.6737 101.594C88.7877 101.936 90.1254 105.151 90.361 105.729C91.4174 108.282 88.0961 105.303 87.8757 105.189C87.6629 105.067 83.2777 97.5433 82.6468 95.9473C82.2212 94.8757 82.3732 93.2569 82.4568 92.9073C82.5708 92.4361 82.2288 88.8032 82.9053 88.3016C83.3613 87.9672 85.4133 87.762 86.4013 88.1952C87.2981 88.5904 87.7845 89.6012 87.6933 89.8368C87.6249 90.0344 86.1961 94.6249 85.9757 94.2449C85.9073 94.1157 85.8997 92.6641 85.7097 92.5197C85.5197 92.3676 84.4785 92.1549 84.3493 92.3221C84.2201 92.4969 83.9693 94.0321 84.0985 94.5641C84.7293 97.1177 86.2037 96.3197 86.4849 95.8485C86.9029 95.1417 88.9017 89.5024 88.8637 89.1376C88.7801 88.3092 88.1645 86.8804 86.8649 86.4396C86.0821 86.1812 82.6924 86.3256 81.7576 86.812C80.3288 87.5644 80.4124 94.0777 80.686 95.0277C80.9596 95.9701 85.4741 103.547 85.6869 104.133C86.1049 105.265 88.8409 107.971 89.2665 108.221C89.4413 108.328 93.173 109.78 93.6594 109.05C93.8722 108.731 93.7658 107.857 92.831 107.249C91.9418 106.663 89.8214 100.469 89.8214 99.983C89.829 99.527 89.2666 96.0765 89.639 95.3621C90.3458 93.9941 95.4226 86.3788 94.8678 85.7708C94.123 84.9499 91.843 81.1043 90.779 82.5559C89.8138 83.8631 85.2461 82.5179 84.1137 81.6819C84.0301 81.6211 81.3396 82.1531 80.1464 82.3735L80.1616 82.3659ZM95.5366 111.718C97.0111 111.718 101.123 109.529 99.6027 108.518C98.6375 107.887 97.5051 107.036 95.4226 105.44C94.4878 104.725 94.0774 104.915 93.7886 104.915C92.9298 104.915 94.3282 103.525 93.8646 102.4C93.3554 101.176 93.0666 99.299 92.6334 98.8733C92.2002 98.4401 92.375 96.1753 93.2794 95.2709C94.2674 94.2829 95.681 91.4176 96.4639 90.3232C97.3911 89.0084 98.0295 86.1356 97.6647 85.7631C97.2923 85.3983 95.605 81.9023 94.8754 81.1575C94.3966 80.6863 93.6138 79.5159 92.831 78.5582L92.6486 78.2998L91.8582 78.7482C91.0678 79.2043 90.0874 80.1391 90.0874 80.1391C90.0874 80.1391 89.4033 80.3671 87.8301 80.0479C86.9789 79.8807 86.6749 79.2802 86.6749 78.5962C86.6749 77.9122 86.2341 78.087 86.2341 78.087C86.2341 78.087 78.2692 78.4746 77.684 78.809C77.1064 79.1511 74.5603 82.6395 74.5603 82.6395C74.5603 82.6395 73.2075 95.9017 74.2487 96.9505C75.4951 98.1969 82.0084 108.449 83.2245 109.681C84.4329 111.338 94.085 111.702 95.5594 111.702L95.5366 111.718Z" fill="#3D3D3D"/>
</g>
<defs>
<clipPath id="clip0_741_2194">
<rect width="130" height="130" fill="white" transform="translate(25 25)"/>
</clipPath>
</defs>
</svg>
