<svg width="180" height="180" viewBox="0 0 180 180" fill="none" xmlns="http://www.w3.org/2000/svg">
<g clip-path="url(#clip0_741_77)">
<mask id="mask0_741_77" style="mask-type:luminance" maskUnits="userSpaceOnUse" x="14" y="65" width="152" height="50">
<path d="M14.8083 114.293H165.001V65.9973H14.8083V114.293Z" fill="white"/>
</mask>
<g mask="url(#mask0_741_77)">
<path d="M158.41 99.9655C154.375 99.9655 151.331 103.032 151.331 107.1C151.331 111.168 154.399 114.236 158.467 114.236C160.627 114.236 162.664 113.403 163.967 111.999L162.186 110.095C161.544 110.736 160.328 111.612 158.467 111.612C156.19 111.612 154.435 110.16 154.101 107.997L154.056 107.71H165V107.1C164.808 102.703 162.282 99.9655 158.41 99.9655ZM154.103 105.774L154.194 105.458C154.723 103.605 156.324 102.359 158.181 102.359C160.249 102.359 161.651 103.497 162.029 105.48L162.085 105.774H154.103Z" fill="#3D3D3D"/>
<path d="M87.5488 99.9655C83.514 99.9655 80.4717 103.032 80.4717 107.1C80.4717 111.168 83.5385 114.236 87.6063 114.236C89.7659 114.236 91.804 113.403 93.1075 111.999L91.3249 110.095C90.6849 110.736 89.4688 111.612 87.6063 111.612C85.3296 111.612 83.5747 110.16 83.2403 107.997L83.1956 107.71H94.1404V107.1C93.9466 102.703 91.4218 99.9655 87.5488 99.9655ZM83.2425 105.774L83.3319 105.458C83.8622 103.605 85.4649 102.359 87.3199 102.359C89.3868 102.359 90.7892 103.497 91.1694 105.48L91.2258 105.774H83.2425Z" fill="#3D3D3D"/>
<path d="M134.785 93.8984C133.72 93.8984 132.853 94.7652 132.853 95.83C132.853 96.8949 133.72 97.7617 134.785 97.7617C135.849 97.7617 136.716 96.8949 136.716 95.83C136.716 94.7652 135.849 93.8984 134.785 93.8984Z" fill="#3D3D3D"/>
<path d="M96.5649 114.006H99.2165V94.1854H96.5649V114.006Z" fill="#3D3D3D"/>
<path d="M133.463 114.006H136.114V100.194H133.463V114.006Z" fill="#3D3D3D"/>
<path d="M138.848 100.194V102.503H146.438L138.844 113.066V114.005H150.251V111.698H142.637L150.251 101.107V100.194H138.848Z" fill="#3D3D3D"/>
<path d="M116.83 107.1C116.83 111.168 119.885 114.234 123.937 114.234C125.358 114.234 126.631 113.818 127.616 113.03L128.018 112.707V114.005H130.671V100.194H128.018V101.521L127.616 101.198C126.607 100.392 125.335 99.9651 123.937 99.9651C119.885 99.9651 116.83 103.033 116.83 107.1ZM127.978 104.53L128.018 104.593V109.608L127.978 109.669C127.142 110.939 125.604 111.727 123.964 111.727C121.417 111.727 119.568 109.781 119.568 107.1C119.568 104.418 121.417 102.473 123.964 102.473C125.604 102.473 127.142 103.262 127.978 104.53Z" fill="#3D3D3D"/>
<path d="M109.008 99.9655C107.451 99.9655 106.059 100.51 105.184 101.46L104.754 101.928V94.1854H102.102V114.006H104.754V105.199L104.767 105.16C105.355 103.428 106.648 102.473 108.407 102.473C110.687 102.473 111.918 104.253 111.918 105.927V114.006H114.569V105.87C114.569 102.283 112.386 99.9655 109.008 99.9655Z" fill="#3D3D3D"/>
<path d="M68.4799 94.1848H62.2887V114.006H68.4799C74.4059 114.006 78.8762 109.746 78.8762 104.096C78.8762 98.4464 74.4059 94.1848 68.4799 94.1848ZM68.4799 111.412H65.1127V96.7788H68.4799C72.8352 96.7788 75.9957 99.8563 75.9957 104.096C75.9957 108.335 72.8352 111.412 68.4799 111.412Z" fill="#3D3D3D"/>
<path d="M113.821 89.5981H116.473V69.7767H113.821V89.5981Z" fill="#3D3D3D"/>
<path d="M69.7224 69.7771L61.5697 89.5986H64.579L66.3989 85.0761H75.2331L77.0529 89.5986H80.091L71.9384 69.7771H69.7224ZM67.3317 82.5407L70.8309 73.8236L74.2992 82.5407H67.3317Z" fill="#3D3D3D"/>
<path d="M89.4159 75.5573C87.8601 75.5573 86.4662 76.1025 85.592 77.0513L85.1618 77.5188V69.7772H82.5092V89.5977H85.1618V80.7912L85.1745 80.7528C85.7623 79.0203 87.0551 78.0662 88.8153 78.0662C91.0952 78.0662 92.3251 79.8445 92.3251 81.5195V89.5977H94.9767V81.461C94.9767 77.8745 92.7937 75.5573 89.4159 75.5573Z" fill="#3D3D3D"/>
<path d="M104.403 75.5573C100.319 75.5573 97.2393 78.6241 97.2393 82.6919C97.2393 86.7597 100.319 89.8276 104.403 89.8276C108.486 89.8276 111.566 86.7597 111.566 82.6919C111.566 78.6241 108.486 75.5573 104.403 75.5573ZM104.403 87.3188C101.837 87.3188 99.976 85.3733 99.976 82.6919C99.976 80.0116 101.837 78.0661 104.403 78.0661C106.925 78.0661 108.828 80.0542 108.828 82.6919C108.828 85.3296 106.925 87.3188 104.403 87.3188Z" fill="#3D3D3D"/>
<path d="M125.804 75.5573C121.752 75.5573 118.697 78.6241 118.697 82.6919C118.697 86.7597 121.752 89.8276 125.804 89.8276C127.227 89.8276 128.499 89.4102 129.483 88.6222L129.887 88.2995V89.5976H132.538V69.7772H129.887V77.1141L129.483 76.7915C128.476 75.9843 127.203 75.5573 125.804 75.5573ZM129.887 80.1852V85.1986L129.846 85.2604C129.009 86.5297 127.473 87.3188 125.833 87.3188C123.285 87.3188 121.435 85.3733 121.435 82.6919C121.435 80.0116 123.285 78.0661 125.833 78.0661C127.472 78.0661 129.009 78.8541 129.846 80.1235L129.887 80.1852Z" fill="#3D3D3D"/>
<path d="M33.5332 68.5898C34.2509 68.5866 34.8281 68.0042 34.8259 67.2896C34.8227 66.574 34.2392 65.9969 33.5225 66.0001C32.8059 66.0033 32.2287 66.5847 32.2308 67.3003C32.234 68.0148 32.8176 68.593 33.5332 68.5898Z" fill="#3D3D3D"/>
<path d="M33.5332 68.5898C34.2509 68.5866 34.8281 68.0042 34.8259 67.2896C34.8227 66.574 34.2392 65.9969 33.5225 66.0001C32.8059 66.0033 32.2287 66.5847 32.2308 67.3003C32.234 68.0148 32.8176 68.593 33.5332 68.5898Z" fill="#3D3D3D"/>
<path d="M24.2157 75.3179L26.8225 75.3062C26.8225 75.3062 26.4126 74.8887 24.7961 73.1913C23.8739 72.2212 23.7876 71.463 24.9473 71.4577L25.1997 71.4556L26.5052 69.4813C26.5052 69.4813 25.3828 69.4483 24.893 69.4504C21.8187 69.4643 21.2511 72.5055 22.8207 73.9761C23.9921 75.0719 24.2157 75.3179 24.2157 75.3179Z" fill="#3D3D3D"/>
<path d="M24.2157 75.3179L26.8225 75.3062C26.8225 75.3062 26.4126 74.8887 24.7961 73.1913C23.8739 72.2212 23.7876 71.463 24.9473 71.4577L25.1997 71.4556L26.5052 69.4813C26.5052 69.4813 25.3828 69.4483 24.893 69.4504C21.8187 69.4643 21.2511 72.5055 22.8207 73.9761C23.9921 75.0719 24.2157 75.3179 24.2157 75.3179Z" fill="#3D3D3D"/>
<path d="M42.1459 71.3821C43.3045 71.3778 43.2257 72.1371 42.3131 73.1146C40.7094 74.8259 40.3037 75.2476 40.3037 75.2476L42.9095 75.2358C42.9095 75.2358 43.1331 74.9877 44.2927 73.8824C45.8496 72.398 45.2554 69.3609 42.1821 69.3748C41.6934 69.3769 40.571 69.4195 40.571 69.4195L41.8925 71.3831L42.1459 71.3821Z" fill="#3D3D3D"/>
<path d="M42.1459 71.3821C43.3045 71.3778 43.2257 72.1371 42.3131 73.1146C40.7094 74.8259 40.3037 75.2476 40.3037 75.2476L42.9095 75.2358C42.9095 75.2358 43.1331 74.9877 44.2927 73.8824C45.8496 72.398 45.2554 69.3609 42.1821 69.3748C41.6934 69.3769 40.571 69.4195 40.571 69.4195L41.8925 71.3831L42.1459 71.3821Z" fill="#3D3D3D"/>
<path d="M32.5529 74.3428L33.5624 75.2021L34.5655 74.3343L34.5442 69.4082L32.5316 69.4167L32.5529 74.3428Z" fill="#3D3D3D"/>
<path d="M32.5529 74.3428L33.5624 75.2021L34.5655 74.3343L34.5442 69.4082L32.5316 69.4167L32.5529 74.3428Z" fill="#3D3D3D"/>
<path d="M49.2368 95.6201C49.7437 97.9863 49.5882 100.347 48.7629 102.665C47.7492 105.507 46.1668 107.41 44.185 108.168C43.7442 108.336 42.92 108.597 41.8945 108.608C41.2364 108.617 40.3717 108.38 39.818 108.119C39.49 107.998 38.8575 107.668 38.8575 107.668C37.0909 106.696 34.6087 104.735 34.6172 103.419C34.6204 102.96 35.6512 102.228 36.5031 102.223C37.7096 102.218 38.6871 101.232 38.6818 100.025V99.9116L38.2313 97.9905L38.2164 97.933C37.9023 96.8756 37.0973 93.3072 39.8734 91.6982L42.2885 90.5513L41.426 88.7325L38.9736 89.8964L38.9075 89.9316C36.1485 91.5023 35.1666 94.6947 36.2773 98.4761L36.6575 100.098C36.633 100.163 36.5691 100.21 36.4945 100.211C35.6906 100.214 34.7694 100.524 34.0304 101.039C33.8771 101.146 33.7355 101.26 33.6055 101.377C32.7835 100.647 31.6174 100.232 30.6984 100.235C30.6239 100.235 30.56 100.189 30.5344 100.125L30.8997 98.5006C31.9784 94.7097 30.9689 91.5246 28.196 89.9774L25.668 88.8017L24.8203 90.628L27.2461 91.7536C30.035 93.3381 29.2609 96.9139 28.9563 97.9735L28.5091 99.9563V100.07C28.5155 101.277 29.5005 102.254 30.707 102.249C31.5599 102.245 32.5971 102.97 32.6035 103.429C32.6237 104.744 30.1575 106.726 28.4015 107.713C28.2375 107.803 28.0714 107.887 27.9042 107.964C27.3249 108.301 26.4517 108.677 25.438 108.681C25.1675 108.682 24.2379 108.719 23.0356 108.26C21.0539 107.502 19.447 105.631 18.4098 102.797C17.4227 100.099 17.3449 97.3367 18.1713 94.5659C18.4162 93.7172 18.9763 92.4873 18.9635 92.4734C20.2414 89.7133 22.3541 87.1182 25.0951 84.9522C25.1377 84.9213 29.2034 81.781 32.5662 79.5288L27.9883 76.4226L25.2048 76.4354C25.2048 76.4354 24.9577 76.4247 24.8353 76.4364H24.8267C22.1156 76.6899 19.7675 77.7335 17.8529 79.5374C15.9436 81.2901 14.8084 84.5763 15.0267 87.7166C15.1204 89.0456 15.4431 90.3032 15.9745 91.4565C16.2801 90.8293 16.7092 90.0104 17.2672 89.0743C17.1394 88.543 17.0681 88.0372 17.0351 87.5761C16.8604 85.0555 17.7549 82.3593 19.2234 81.0122C20.8005 79.5267 22.7332 78.6642 24.9694 78.4448L30.6154 78.4203C27.3931 80.6363 23.9024 83.3304 23.8566 83.3666C21.6076 85.1428 19.7473 87.1885 18.3608 89.3864C17.4855 90.8271 16.656 92.7056 16.6709 92.7301C15.3004 96.3027 15.245 100.008 16.5197 103.49C18.0935 107.789 20.5502 109.484 22.3339 110.147C23.2113 110.473 24.142 110.632 25.0866 110.627C26.5401 110.621 27.7839 110.155 27.7775 110.145C28.1971 109.985 28.9787 109.696 29.3833 109.471L29.3855 109.47C29.7635 109.256 32.2116 107.841 33.6215 105.967C35.0165 107.787 37.3976 109.16 37.8576 109.414C37.8576 109.414 38.9459 110.036 39.7999 110.296C40.7764 110.559 41.8157 110.554 42.1543 110.553C43.0989 110.549 44.0285 110.382 44.9028 110.048C46.6811 109.369 49.1229 107.654 50.6584 103.34C51.7552 100.264 51.8159 97.0215 50.8565 93.8588C50.4518 94.3955 49.9194 95.0078 49.2368 95.6201Z" fill="#3D3D3D"/>
<path d="M49.2368 95.6201C49.7437 97.9863 49.5882 100.347 48.7629 102.665C47.7492 105.507 46.1668 107.41 44.185 108.168C43.7442 108.336 42.92 108.597 41.8945 108.608C41.2364 108.617 40.3717 108.38 39.818 108.119C39.49 107.998 38.8575 107.668 38.8575 107.668C37.0909 106.696 34.6087 104.735 34.6172 103.419C34.6204 102.96 35.6512 102.228 36.5031 102.223C37.7096 102.218 38.6871 101.232 38.6818 100.025V99.9116L38.2313 97.9905L38.2164 97.933C37.9023 96.8756 37.0973 93.3072 39.8734 91.6982L42.2885 90.5513L41.426 88.7325L38.9736 89.8964L38.9075 89.9316C36.1485 91.5023 35.1666 94.6947 36.2773 98.4761L36.6575 100.098C36.633 100.163 36.5691 100.21 36.4945 100.211C35.6906 100.214 34.7694 100.524 34.0304 101.039C33.8771 101.146 33.7355 101.26 33.6055 101.377C32.7835 100.647 31.6174 100.232 30.6984 100.235C30.6239 100.235 30.56 100.189 30.5344 100.125L30.8997 98.5006C31.9784 94.7097 30.9689 91.5246 28.196 89.9774L25.668 88.8017L24.8203 90.628L27.2461 91.7536C30.035 93.3381 29.2609 96.9139 28.9563 97.9735L28.5091 99.9563V100.07C28.5155 101.277 29.5005 102.254 30.707 102.249C31.5599 102.245 32.5971 102.97 32.6035 103.429C32.6237 104.744 30.1575 106.726 28.4015 107.713C28.2375 107.803 28.0714 107.887 27.9042 107.964C27.3249 108.301 26.4517 108.677 25.438 108.681C25.1675 108.682 24.2379 108.719 23.0356 108.26C21.0539 107.502 19.447 105.631 18.4098 102.797C17.4227 100.099 17.3449 97.3367 18.1713 94.5659C18.4162 93.7172 18.9763 92.4873 18.9635 92.4734C20.2414 89.7133 22.3541 87.1182 25.0951 84.9522C25.1377 84.9213 29.2034 81.781 32.5662 79.5288L27.9883 76.4226L25.2048 76.4354C25.2048 76.4354 24.9577 76.4247 24.8353 76.4364H24.8267C22.1156 76.6899 19.7675 77.7335 17.8529 79.5374C15.9436 81.2901 14.8084 84.5763 15.0267 87.7166C15.1204 89.0456 15.4431 90.3032 15.9745 91.4565C16.2801 90.8293 16.7092 90.0104 17.2672 89.0743C17.1394 88.543 17.0681 88.0372 17.0351 87.5761C16.8604 85.0555 17.7549 82.3593 19.2234 81.0122C20.8005 79.5267 22.7332 78.6642 24.9694 78.4448L30.6154 78.4203C27.3931 80.6363 23.9024 83.3304 23.8566 83.3666C21.6076 85.1428 19.7473 87.1885 18.3608 89.3864C17.4855 90.8271 16.656 92.7056 16.6709 92.7301C15.3004 96.3027 15.245 100.008 16.5197 103.49C18.0935 107.789 20.5502 109.484 22.3339 110.147C23.2113 110.473 24.142 110.632 25.0866 110.627C26.5401 110.621 27.7839 110.155 27.7775 110.145C28.1971 109.985 28.9787 109.696 29.3833 109.471L29.3855 109.47C29.7635 109.256 32.2116 107.841 33.6215 105.967C35.0165 107.787 37.3976 109.16 37.8576 109.414C37.8576 109.414 38.9459 110.036 39.7999 110.296C40.7764 110.559 41.8157 110.554 42.1543 110.553C43.0989 110.549 44.0285 110.382 44.9028 110.048C46.6811 109.369 49.1229 107.654 50.6584 103.34C51.7552 100.264 51.8159 97.0215 50.8565 93.8588C50.4518 94.3955 49.9194 95.0078 49.2368 95.6201Z" fill="#3D3D3D"/>
<path d="M29.243 75.8195L35.6387 80.3793C35.71 80.4283 36.1328 80.6881 36.1328 80.6881C39.0367 82.6932 41.8831 84.8517 41.9129 84.8741C44.328 86.7461 46.2608 88.9462 47.5791 91.3027C48.1317 90.5041 48.4416 89.649 48.5971 89.108C47.2032 86.9772 45.3578 84.9966 43.1386 83.2757C43.1045 83.2502 40.5807 81.3377 37.8408 79.423C36.6716 78.7106 33.2672 76.3988 33.2672 76.3988C31.6358 75.352 29.2963 73.2052 29.2963 73.2052C28.4359 72.3672 28.3219 71.4429 29.3783 71.4386L31.4314 71.4301L31.4218 69.4228L29.3996 69.4303C26.107 69.4452 25.6033 72.1617 27.3902 74.088C28.0994 74.8537 29.243 75.8195 29.243 75.8195Z" fill="#3D3D3D"/>
<path d="M29.243 75.8195L35.6387 80.3793C35.71 80.4283 36.1328 80.6881 36.1328 80.6881C39.0367 82.6932 41.8831 84.8517 41.9129 84.8741C44.328 86.7461 46.2608 88.9462 47.5791 91.3027C48.1317 90.5041 48.4416 89.649 48.5971 89.108C47.2032 86.9772 45.3578 84.9966 43.1386 83.2757C43.1045 83.2502 40.5807 81.3377 37.8408 79.423C36.6716 78.7106 33.2672 76.3988 33.2672 76.3988C31.6358 75.352 29.2963 73.2052 29.2963 73.2052C28.4359 72.3672 28.3219 71.4429 29.3783 71.4386L31.4314 71.4301L31.4218 69.4228L29.3996 69.4303C26.107 69.4452 25.6033 72.1617 27.3902 74.088C28.0994 74.8537 29.243 75.8195 29.243 75.8195Z" fill="#3D3D3D"/>
<path d="M38.3438 110.824C37.1351 111.822 35.2641 112.236 33.6274 112.278C32.0312 112.251 30.2081 111.87 28.991 110.934C28.4372 111.146 27.6333 111.424 26.8005 111.612C27.5278 112.5 28.5544 113.184 29.8663 113.648C31.2102 114.125 32.5423 114.257 33.4134 114.285V114.293C33.4826 114.293 33.5572 114.292 33.636 114.29C33.7158 114.291 33.7925 114.292 33.8596 114.292V114.283C34.7296 114.247 36.0617 114.104 37.4013 113.616C38.7228 113.134 39.7504 112.433 40.4714 111.525C39.628 111.319 38.8389 111.026 38.3438 110.824Z" fill="#3D3D3D"/>
<path d="M38.3438 110.824C37.1351 111.822 35.2641 112.236 33.6274 112.278C32.0312 112.251 30.2081 111.87 28.991 110.934C28.4372 111.146 27.6333 111.424 26.8005 111.612C27.5278 112.5 28.5544 113.184 29.8663 113.648C31.2102 114.125 32.5423 114.257 33.4134 114.285V114.293C33.4826 114.293 33.5572 114.292 33.636 114.29C33.7158 114.291 33.7925 114.292 33.8596 114.292V114.283C34.7296 114.247 36.0617 114.104 37.4013 113.616C38.7228 113.134 39.7504 112.433 40.4714 111.525C39.628 111.319 38.8389 111.026 38.3438 110.824Z" fill="#3D3D3D"/>
<path d="M49.1264 79.4096C47.2374 77.6632 44.9553 76.6462 42.3315 76.3811L42.1057 76.3608C41.9833 76.3513 41.7384 76.3619 41.7384 76.3619L37.1264 76.3821C37.612 76.0169 38.0848 75.641 38.5459 75.2555C38.5459 75.2555 38.6194 75.231 38.8291 75.017C39.0432 74.8328 39.4148 74.3972 39.4148 74.3972C39.5138 74.2907 39.6235 74.1704 39.7481 74.0352C41.5169 72.0928 40.9908 69.3806 37.6993 69.3945L35.675 69.404L35.6846 71.4113L37.7366 71.4017C38.8472 71.3964 38.5012 72.3431 37.7238 73.3079C36.7026 74.2013 35.6004 75.0298 34.4216 75.854C35.8113 76.8496 37.2254 77.7537 38.2552 78.3873L41.9886 78.3703C44.228 78.5715 46.1682 79.416 47.7687 80.8961C49.2383 82.223 50.1572 84.9107 50.0028 87.4323C49.956 88.2054 49.8037 89.1106 49.4491 90.0445C49.0934 91.0135 48.4332 92.319 47.2576 93.2593C47.2459 93.2689 47.2331 93.2753 47.2214 93.2838C46.9392 93.5394 46.6304 93.7875 46.2907 94.026C41.0132 97.7307 40.6096 102.454 40.3934 104.991C40.3743 105.21 40.3572 105.416 40.3381 105.608C40.3263 105.715 40.3157 105.832 40.3061 105.958C40.2763 106.282 40.2412 106.662 40.1773 107.075C40.6788 107.327 41.3763 107.566 42.1494 107.495C42.2346 106.976 42.2772 106.512 42.3102 106.135C42.3209 106.019 42.3294 105.91 42.3411 105.811C42.3613 105.61 42.3794 105.392 42.3986 105.162C42.6137 102.653 42.9374 98.8669 47.4003 95.7085C47.4312 95.6702 47.4663 95.6329 47.5089 95.602C49.9539 93.8524 50.8899 91.7206 50.8995 91.6993C50.9165 91.6588 50.941 91.6215 50.9655 91.5864C51.5671 90.3522 51.9239 88.9956 52.0123 87.5548C52.205 84.4145 51.0411 81.1368 49.1264 79.4096Z" fill="#3D3D3D"/>
<path d="M49.1264 79.4096C47.2374 77.6632 44.9553 76.6462 42.3315 76.3811L42.1057 76.3608C41.9833 76.3513 41.7384 76.3619 41.7384 76.3619L37.1264 76.3821C37.612 76.0169 38.0848 75.641 38.5459 75.2555C38.5459 75.2555 38.6194 75.231 38.8291 75.017C39.0432 74.8328 39.4148 74.3972 39.4148 74.3972C39.5138 74.2907 39.6235 74.1704 39.7481 74.0352C41.5169 72.0928 40.9908 69.3806 37.6993 69.3945L35.675 69.404L35.6846 71.4113L37.7366 71.4017C38.8472 71.3964 38.5012 72.3431 37.7238 73.3079C36.7026 74.2013 35.6004 75.0298 34.4216 75.854C35.8113 76.8496 37.2254 77.7537 38.2552 78.3873L41.9886 78.3703C44.228 78.5715 46.1682 79.416 47.7687 80.8961C49.2383 82.223 50.1572 84.9107 50.0028 87.4323C49.956 88.2054 49.8037 89.1106 49.4491 90.0445C49.0934 91.0135 48.4332 92.319 47.2576 93.2593C47.2459 93.2689 47.2331 93.2753 47.2214 93.2838C46.9392 93.5394 46.6304 93.7875 46.2907 94.026C41.0132 97.7307 40.6096 102.454 40.3934 104.991C40.3743 105.21 40.3572 105.416 40.3381 105.608C40.3263 105.715 40.3157 105.832 40.3061 105.958C40.2763 106.282 40.2412 106.662 40.1773 107.075C40.6788 107.327 41.3763 107.566 42.1494 107.495C42.2346 106.976 42.2772 106.512 42.3102 106.135C42.3209 106.019 42.3294 105.91 42.3411 105.811C42.3613 105.61 42.3794 105.392 42.3986 105.162C42.6137 102.653 42.9374 98.8669 47.4003 95.7085C47.4312 95.6702 47.4663 95.6329 47.5089 95.602C49.9539 93.8524 50.8899 91.7206 50.8995 91.6993C50.9165 91.6588 50.941 91.6215 50.9655 91.5864C51.5671 90.3522 51.9239 88.9956 52.0123 87.5548C52.205 84.4145 51.0411 81.1368 49.1264 79.4096Z" fill="#3D3D3D"/>
<path d="M27.0412 107.182C26.9688 106.75 26.9273 106.352 26.8953 106.017C26.8836 105.889 26.8719 105.773 26.8602 105.667C26.8389 105.475 26.8187 105.268 26.7984 105.049C26.5599 102.515 26.1148 97.7951 20.8053 94.1372C20.4497 93.8912 20.127 93.6346 19.8331 93.3705C19.5105 94.1702 19.3177 94.9071 19.2048 95.4598C19.3539 95.5737 19.5062 95.6866 19.6627 95.7942C24.1991 98.9206 24.5569 102.723 24.7954 105.239C24.8167 105.469 24.8359 105.686 24.8582 105.887C24.87 105.986 24.8795 106.095 24.8913 106.211C24.9285 106.583 24.9732 107.043 25.0616 107.557C25.8305 107.648 26.5269 107.431 27.0412 107.182Z" fill="#3D3D3D"/>
<path d="M27.0412 107.182C26.9688 106.75 26.9273 106.352 26.8953 106.017C26.8836 105.889 26.8719 105.773 26.8602 105.667C26.8389 105.475 26.8187 105.268 26.7984 105.049C26.5599 102.515 26.1148 97.7951 20.8053 94.1372C20.4497 93.8912 20.127 93.6346 19.8331 93.3705C19.5105 94.1702 19.3177 94.9071 19.2048 95.4598C19.3539 95.5737 19.5062 95.6866 19.6627 95.7942C24.1991 98.9206 24.5569 102.723 24.7954 105.239C24.8167 105.469 24.8359 105.686 24.8582 105.887C24.87 105.986 24.8795 106.095 24.8913 106.211C24.9285 106.583 24.9732 107.043 25.0616 107.557C25.8305 107.648 26.5269 107.431 27.0412 107.182Z" fill="#3D3D3D"/>
</g>
</g>
<defs>
<clipPath id="clip0_741_77">
<rect width="150" height="48.2932" fill="white" transform="translate(15 66)"/>
</clipPath>
</defs>
</svg>
