<svg width="180" height="180" viewBox="0 0 180 180" fill="none" xmlns="http://www.w3.org/2000/svg">
<g clip-path="url(#clip0_741_3098)">
<path d="M68.9549 90.4327C69.3756 87.7387 67.0898 86.752 64.1236 87.5748C54.6372 90.1977 52.8897 103.788 62.2739 101.729C69.5735 100.123 71.9706 91.141 68.9549 90.4296M61.7729 98.4159C57.056 99.718 59.8273 91.8648 63.4524 90.8534C67.0774 89.842 64.2164 94.5248 64.2164 94.5248C65.1567 94.3423 65.998 93.8258 66.5856 93.068C66.5856 93.068 66.4928 97.1013 61.7698 98.4097V98.419L61.7729 98.4159Z" fill="#3D3D3D"/>
<path d="M163.119 90.5008C162.838 87.9491 160.011 86.9995 157.536 87.7542C149.615 90.1699 151.146 103.133 159.105 101.221C164.626 99.8944 166.927 91.5587 163.123 90.5039M158.498 98.2891C154.558 99.4861 155.136 92.0659 158.174 91.1473C161.211 90.2286 160.5 94.1104 160.5 94.1104C161.762 93.931 162.513 92.5268 162.513 92.5268C162.513 92.5268 162.454 97.0952 158.514 98.2922H158.498V98.2891Z" fill="#3D3D3D"/>
<path d="M95.7283 89.4024C95.3788 87.7507 92.1156 87.0672 90.0402 87.9765C80.9869 91.9635 85.0913 103.439 92.561 101.484C98.6605 99.8909 99.9441 91.3449 95.7283 89.3993M92.6012 98.4681C87.9802 100.822 86.941 93.2873 90.2443 91.3727C93.7457 89.3437 92.7652 93.7265 92.7652 93.7265C93.5632 93.4141 94.2282 92.8388 94.6519 92.0965C94.6519 92.0965 96.3593 96.5504 92.6012 98.4712" fill="#3D3D3D"/>
<path d="M73.9347 103.764C72.5706 92.7774 84.7789 80.5135 76.4091 72.252C77.4422 84.6117 65.8711 97.8654 73.9347 103.764Z" fill="#3D3D3D"/>
<path d="M87.7112 70C87.1822 80.8535 70.0994 100.924 78.2898 107.692C76.836 99.8014 95.651 76.2263 87.7112 70Z" fill="#3D3D3D"/>
<path d="M48.2006 77.9365C55.9641 82.3874 37.5079 91.6913 43.8394 110.93C38.6029 110.729 36.4903 102.656 39.0916 95.1153C41.2134 88.9601 46.4314 83.7793 48.2006 77.9365Z" fill="#3D3D3D"/>
<path d="M63.27 79.8574C63.7464 72.6723 54.7116 69.6195 47.6657 71.5062C40.6197 73.393 34.279 79.5605 38.0896 82.5515C38.0896 82.5515 42.7354 75.4622 50.2081 74.989C57.6778 74.5158 61.2657 82.6071 54.0682 87.0611C46.0263 92.0471 39.8805 86.8879 41.8136 84.3269C39.8805 84.4661 38.0989 86.3528 38.3432 87.8931C39.6176 95.9381 62.3792 93.2596 63.27 79.8605" fill="#3D3D3D"/>
<path d="M125.715 88.088C115.712 93.7854 119.535 103.429 127.729 99.956C134.41 97.1258 136.253 88.9788 131.799 88.1282C131.505 86.6837 128.01 86.8044 125.715 88.0849M127.862 97.0238C122.505 100.386 121.744 93.3585 125.588 90.7418C129.659 87.9674 128.335 92.4213 128.335 92.4213C129.238 91.9574 130.005 91.2645 130.559 90.4139C130.559 90.4139 132.226 94.2957 127.862 97.0238Z" fill="#3D3D3D"/>
<path d="M139.857 100.844C146.095 102.693 149.773 95.8019 149.773 95.8019C149.773 95.8019 144.673 98.8176 141.143 97.3608C137.614 95.904 139.241 90.1664 143.735 89.622C144.997 89.4612 145.777 89.7829 146.222 90.3149C145.975 90.6829 145.758 91.0696 145.569 91.4717C145.081 92.5171 145.498 93.9059 146.463 94.3049C146.569 94.3482 146.68 94.3791 146.791 94.3977C148.022 94.5431 149.21 93.8842 149.733 92.7584C150.961 90.0612 148.177 90.0767 152.254 87.0177C150.945 87.0393 149.668 87.4012 148.545 88.0693C147.704 87.1878 146.29 86.6063 144.199 86.7115C136.229 87.1321 131.728 98.4434 139.854 100.847" fill="#3D3D3D"/>
<path d="M110.946 76.3563C107.089 76.4522 105.484 82.032 107.865 85.0539C110.173 87.9614 114.082 89.1089 122.1 87.315C129.495 85.6602 133.519 77.4791 131.527 74.6273C130.141 72.6447 125.91 72.9138 121.657 76.8976C111.268 86.6376 110.272 101.268 105.246 104.166C100.086 107.148 99.0904 104.132 101.608 102.279C103.473 100.9 106.628 98.7623 120.327 104.822C136.04 111.765 151.759 111.963 162.547 102.817C150.286 107.287 138.564 106.863 132.297 105.153C133.157 104.917 133.961 104.509 134.657 103.956C121.67 103.724 116.882 98.7035 107.423 98.2025C96.2263 97.6117 91.7228 108.963 100.662 109.127C112.36 109.359 116.452 92.0968 120.08 85.2364C121.391 82.7558 124.116 77.708 126.801 76.9564C129.99 76.0625 127.113 82.3506 122.709 83.6126C113.223 86.3345 108.373 83.3559 110.94 76.3594" fill="#3D3D3D"/>
<path d="M25.4607 96.0495C27.8671 96.4701 34.0872 82.1432 27.3474 84.2836C29.0919 87.59 25.4607 96.0495 25.4607 96.0495Z" fill="#3D3D3D"/>
<path d="M17.4743 96.4703C19.4941 98.9169 25.3275 95.5455 24.3099 91.9452C24.0841 92.5329 22.4572 94.763 20.7715 94.862C19.0858 94.9578 18.7796 92.802 20.2395 91.7102C20.5612 91.4534 20.9478 91.2957 21.3561 91.2493C21.7056 91.3916 22.0768 91.472 22.4541 91.4875L23.7934 90.009C22.1634 90.009 21.8912 89.378 21.7273 88.8398C24.0749 88.747 25.0306 87.2809 25.1667 87.0428C26.6576 84.8869 24.2635 84.0271 22.0953 85.422C21.4582 85.8148 20.9231 86.353 20.5364 86.9933C19.5498 86.6809 18.894 85.7437 18.9435 84.7075C18.0063 85.2426 17.5671 86.3561 17.8888 87.383V87.4077C18.1208 87.9428 18.7301 88.4192 19.989 88.6666C19.9797 88.8058 19.9797 88.9481 19.989 89.0873C19.989 89.5729 20.122 90.0461 20.3787 90.4575C18.3651 90.7018 15.4391 93.9866 17.4712 96.4703M23.1748 86.6499C24.1213 85.855 25.2471 86.319 24.1924 86.9778C23.7532 87.2531 23.2336 87.3706 22.717 87.3057C22.8129 87.052 22.9707 86.8263 23.1748 86.6499Z" fill="#3D3D3D"/>
<path d="M15 100.646C15.1299 100.547 15.2722 100.46 15.4207 100.389C15.9867 100.111 17.3445 99.7302 20.3355 99.8291C24.8699 99.9621 25.3277 100.745 27.8732 99.2229C27.2886 99.2507 26.701 99.2167 26.1226 99.1177C27.9444 98.7342 29.5775 97.729 30.7436 96.2783C26.0793 99.0249 16.5032 96.6309 15 100.643" fill="#3D3D3D"/>
</g>
<defs>
<clipPath id="clip0_741_3098">
<rect width="150" height="40.9302" fill="white" transform="translate(15 70)"/>
</clipPath>
</defs>
</svg>
