<svg width="49" height="50" viewBox="0 0 49 50" fill="none" xmlns="http://www.w3.org/2000/svg">
<g clip-path="url(#clip0_388_6759)">
<path fill-rule="evenodd" clip-rule="evenodd" d="M15.1971 11.3925C10.9486 11.391 5.97975 26.1917 5.97607 38.4615H9.88627C9.88627 25.6056 12.9148 14.0163 15.0909 14.0163C16.9219 14.0163 18.5552 19.0766 19.1338 28.803H23.4892C24.0705 19.0766 25.7076 14.0161 27.529 14.0163C29.1379 14.0167 31.2071 20.3292 32.1823 28.803H35.7622C34.141 19.5714 30.5801 11.3925 27.4288 11.3925C23.7962 11.3925 21.8907 19.4054 21.3129 23.8465C20.7306 19.4042 18.8245 11.3937 15.1971 11.3925ZM19.3225 33.5326C19.3458 34.6168 19.3579 35.7391 19.3579 36.9105H23.2622C23.2622 35.7391 23.277 34.6168 23.3005 33.5326H19.3225ZM32.5922 33.5326C32.6861 35.1393 32.7396 36.7891 32.7396 38.4615H36.6498C36.65 36.8496 36.5641 35.193 36.4051 33.5326H32.5922Z" fill="#3D3D3D"/>
<path fill-rule="evenodd" clip-rule="evenodd" d="M34.9539 33.0592H36.0873V29.1827H34.9539V33.0592ZM40.2558 29.1828H41.0277L40.7656 30.2392H40.2044L40.2558 29.1828ZM42.3578 29.757C43.1119 29.757 43.8203 29.9548 43.8237 30.7242H42.7473C42.7473 30.4592 42.5984 30.3387 42.3472 30.3387C42.1981 30.3387 41.9965 30.403 41.9965 30.646C41.9967 31.0491 42.61 30.9684 43.1307 31.1292C43.5984 31.2734 43.9226 31.5634 43.9226 32.0319C43.9226 32.7496 43.381 33.1465 42.3577 33.1508C41.2847 33.1553 40.881 32.7532 40.8777 32.0319H41.9683C41.9683 32.3042 42.1311 32.4662 42.3611 32.4662C42.6366 32.4662 42.7615 32.3575 42.7615 32.1552C42.7615 31.7338 42.0095 31.7447 41.5662 31.5939C41.2647 31.4911 40.9906 31.2589 40.9906 30.7656C40.9906 30.3534 41.2881 29.757 42.3577 29.757M19.1433 31.8845C18.9552 32.6551 18.3402 33.1547 17.5731 33.1548C16.6472 33.1548 15.9426 32.4264 15.9436 31.3722C15.9443 30.3195 16.5704 29.591 17.5732 29.59C18.4046 29.5893 18.977 30.0912 19.1489 30.863L18.0881 30.8631C18.0067 30.6312 17.8505 30.4502 17.5731 30.4501C17.1051 30.4499 16.9817 30.9656 16.9819 31.3722C16.982 31.7792 17.1051 32.2946 17.5731 32.2946C17.8493 32.2946 18.0053 32.1153 18.0869 31.8846L19.1433 31.8845ZM11.3233 29.1832H12.6776L13.2671 31.4732L13.8566 29.1832H15.2118L15.8039 33.1548H14.6866L14.3914 30.8337L13.7808 33.1548H12.7534L12.1429 30.8337L11.8475 33.1548H10.7293L11.3233 29.1832ZM28.6939 31.1603V33.0598H27.5733V29.6733H28.6939V29.9378C28.9775 29.7081 29.2339 29.59 29.8154 29.59C30.447 29.59 30.9558 30.0287 30.9561 30.4893V33.0599H29.8275V31.1959C29.828 30.8862 29.5612 30.6338 29.2708 30.6338C28.8973 30.6338 28.7115 30.9772 28.6939 31.1603ZM38.6916 30.0091V29.1828H39.825V33.0592H38.6916V32.8711C38.5427 33.0108 38.3475 33.1536 37.859 33.1536C37.3093 33.1536 36.4361 32.8361 36.4354 31.4724C36.4348 30.1105 37.3083 29.757 37.9298 29.757C38.3811 29.757 38.5943 29.919 38.6916 30.0091ZM37.5154 31.4723C37.5154 32.0024 37.7526 32.3411 38.1424 32.3411C38.376 32.3411 38.5715 32.2351 38.6921 32.0144V30.9975C38.6317 30.773 38.422 30.6076 38.1424 30.6075C37.752 30.6073 37.5154 30.9423 37.5154 31.4723ZM23.811 31.3727C23.8119 30.32 24.4687 29.5913 25.5205 29.5903C26.5727 29.5893 27.2294 30.32 27.2302 31.3727C27.2311 32.4267 26.5725 33.155 25.5205 33.155C24.4697 33.1551 23.8101 32.4267 23.811 31.3727ZM26.17 31.3727C26.1702 30.9659 26.0346 30.4504 25.5205 30.4504C25.0064 30.4502 24.8709 30.9659 24.871 31.3727C24.8712 31.7795 25.0064 32.295 25.5205 32.295C26.0346 32.295 26.17 31.7795 26.17 31.3727ZM19.5382 29.1832H21.4856C22.704 29.1832 23.5343 29.9699 23.5343 31.169C23.5343 32.368 22.7042 33.1548 21.4857 33.1548H19.5382V29.1832ZM20.8265 32.216H21.4153C21.7967 32.216 22.2611 31.9741 22.2611 31.169C22.2611 30.3648 21.7967 30.1221 21.4152 30.1221H20.8265V32.216ZM32.9777 29.5905C33.782 29.5898 34.4451 29.8972 34.4967 30.5723V33.0593H33.3623V32.7241C33.0868 32.9694 32.8124 33.1535 32.3166 33.1535C31.7391 33.1535 31.2738 32.679 31.2738 32.1226C31.2738 31.5663 31.6034 30.9482 32.9228 30.9485C33.263 30.9486 33.3621 30.8095 33.3623 30.6438C33.3628 30.4403 33.1371 30.3268 32.9482 30.3268C32.7593 30.3268 32.545 30.4086 32.545 30.6214H31.4823C31.4823 30.1223 31.805 29.5917 32.9776 29.5905H32.9777ZM32.9149 31.4988C32.6532 31.4988 32.4111 31.6439 32.4111 31.9221C32.4111 32.1022 32.5135 32.2578 32.781 32.2576C33.0369 32.2576 33.3099 32.0999 33.3622 31.7728V31.463C33.2758 31.5121 33.0801 31.4988 32.9149 31.4988ZM38.3845 35.8177H39.0809C39.4256 35.8177 39.6552 36.0101 39.6552 36.2644C39.6552 36.4993 39.4812 36.6534 39.2661 36.6726V36.6804C39.5959 36.7959 39.6441 37.0346 39.6479 37.3582H39.3367C39.3256 36.9692 39.244 36.7998 38.9143 36.7998H38.6585V37.3582H38.3845V35.8177ZM38.6585 36.5533H38.9846C39.2404 36.5533 39.344 36.4608 39.344 36.2875C39.344 36.1565 39.2661 36.0641 39.0291 36.0641H38.6585V36.5533ZM38.9549 35.2823C39.1224 35.282 39.2883 35.316 39.4431 35.3824C39.5979 35.4489 39.7385 35.5465 39.8569 35.6696C39.9753 35.7927 40.0692 35.9389 40.1331 36.0997C40.1971 36.2606 40.2298 36.4331 40.2295 36.6072C40.2295 37.3428 39.6591 37.932 38.9549 37.932C38.2508 37.932 37.6805 37.3428 37.6805 36.6072C37.6801 36.4331 37.7129 36.2607 37.7768 36.0998C37.8407 35.9389 37.9346 35.7927 38.053 35.6696C38.1714 35.5465 38.312 35.4489 38.4668 35.3825C38.6216 35.316 38.7875 35.282 38.9549 35.2823ZM38.9549 37.7895C39.5812 37.7895 40.0925 37.2619 40.0925 36.6072C40.0925 35.9524 39.5812 35.4248 38.9549 35.4248C38.3289 35.4248 37.8175 35.9524 37.8175 36.6072C37.8175 37.2619 38.3289 37.7895 38.9549 37.7895Z" fill="#3D3D3D"/>
</g>
<defs>
<clipPath id="clip0_388_6759">
<rect width="37.9466" height="27.0747" fill="white" transform="translate(5.97607 11.3889)"/>
</clipPath>
</defs>
</svg>
