<svg width="312" height="312" viewBox="0 0 312 312" fill="none" xmlns="http://www.w3.org/2000/svg">
<path fill-rule="evenodd" clip-rule="evenodd" d="M219.497 99.8427L157.775 76.4883C156.627 76.0612 155.38 76.0612 154.232 76.4883L92.5094 99.8427C90.561 100.583 89.2732 102.445 89.2732 104.527V157.435C89.2732 219.511 154.165 236.012 154.819 236.172C155.206 236.266 155.6 236.312 156 236.312C156.4 236.312 156.794 236.266 157.181 236.172C157.835 236.012 222.727 219.511 222.727 157.435V104.527C222.727 102.445 221.439 100.583 219.497 99.8427ZM166.606 189.479C161.179 191.918 147.374 193.668 138.407 188.398C133.612 191.277 128.514 193.618 123.206 195.379C122.854 195.496 122.469 195.469 122.137 195.303C121.805 195.137 121.553 194.846 121.436 194.494C121.319 194.142 121.346 193.758 121.512 193.426C121.678 193.094 121.969 192.841 122.321 192.724C153.426 182.441 167.414 154.433 167.608 154.045L167.609 154.043C167.776 153.718 168.063 153.47 168.41 153.354C168.757 153.238 169.135 153.262 169.464 153.422C169.793 153.581 170.047 153.863 170.17 154.207C170.248 154.424 170.271 154.655 170.239 154.879C170.22 155.01 170.182 155.139 170.126 155.262C163.172 167.92 153.244 178.698 141.199 186.667C152.9 191.878 165.407 186.942 165.544 186.883C199.624 172.803 192.19 136.443 190.44 129.599C158.603 130.897 136.853 151.821 133.667 179.332C133.64 179.699 133.469 180.041 133.191 180.283C132.913 180.525 132.551 180.647 132.184 180.624C131.816 180.601 131.473 180.434 131.228 180.159C130.983 179.884 130.856 179.523 130.875 179.155C131.132 176.361 131.646 173.596 132.409 170.896C128.108 167.261 124.856 162.542 122.989 157.229C115.143 138.468 129.341 120.239 133.431 117.152C133.515 117.078 133.607 117.014 133.705 116.962C133.82 116.901 133.943 116.855 134.072 116.827C134.309 116.776 134.556 116.786 134.788 116.857C144.11 119.826 150.186 130.976 151.051 141.005C161.395 132.353 174.944 127.554 191.423 126.728C191.739 126.704 192.054 126.791 192.312 126.974C192.571 127.158 192.757 127.425 192.839 127.731C192.977 128.184 205.877 173.256 166.606 189.479ZM148.455 143.345C148.257 137.474 146.41 131.777 143.126 126.905C141.101 123.744 138.167 121.27 134.71 119.806C132.232 122.304 122.596 132.923 123.599 147.573C124.232 155.334 127.672 162.598 133.274 168.005C136.174 158.636 141.396 150.153 148.455 143.345Z" fill="#3D3D3D"/>
</svg>
