<svg width="312" height="312" viewBox="0 0 312 312" fill="none" xmlns="http://www.w3.org/2000/svg">
<path d="M156 107.195C132.079 107.195 111.11 128.179 111.11 152.084C111.11 172.595 122.526 188.4 141.758 194.668V197.984H138.963C137.668 197.984 136.626 199.026 136.626 200.321V210.189C136.626 211.484 137.668 212.526 138.963 212.526H139.295V217.816C139.295 219.111 140.337 220.153 141.632 220.153H143.053C144.158 226.295 149.542 230.968 155.984 230.968C162.426 230.968 167.81 226.295 168.916 220.153H170.337C171.632 220.153 172.674 219.111 172.674 217.816V212.526H173.005C174.3 212.526 175.342 211.484 175.342 210.189V200.321C175.342 199.026 174.3 197.984 173.005 197.984H170.21V194.684C189.442 188.416 200.858 172.611 200.858 152.1C200.889 128.179 179.921 107.195 156 107.195ZM156 226.311C152.147 226.311 148.879 223.721 147.853 220.184H164.132C163.121 223.721 159.853 226.311 156 226.311ZM168.016 215.495H143.984V212.558H168.032V215.495H168.016ZM170.7 207.868H170.368H141.632H141.3V202.689H144.095H167.889H170.684V207.868H170.7ZM167.242 190.705C166.247 190.989 165.553 191.921 165.553 192.963V198H158.337V163.611H161.447C165.521 163.611 168.853 160.295 168.853 156.205V151.153C168.853 149.858 167.81 148.816 166.516 148.816C165.221 148.816 164.179 149.858 164.179 151.153V156.205C164.179 157.705 162.963 158.921 161.463 158.921H150.537C149.037 158.921 147.821 157.705 147.821 156.205V151.153C147.821 149.858 146.779 148.816 145.484 148.816C144.189 148.816 143.147 149.858 143.147 151.153V156.205C143.147 160.279 146.463 163.611 150.553 163.611H153.663V198H146.447V192.963C146.447 191.921 145.753 191.005 144.758 190.705C126.616 185.432 115.8 171 115.8 152.1C115.8 131.053 134.968 111.9 156 111.9C177.032 111.9 196.2 131.053 196.2 152.1C196.2 171 185.384 185.432 167.242 190.705ZM153.663 97.3579V83.3368C153.663 82.0579 154.705 81 156 81C157.295 81 158.337 82.0421 158.337 83.3368V97.3421C158.337 98.6368 157.295 99.6789 156 99.6789C154.705 99.6789 153.663 98.6526 153.663 97.3579ZM182.763 103.895L189.774 91.7684C190.421 90.6474 191.858 90.2684 192.979 90.9158C194.1 91.5632 194.479 93 193.832 94.1211L186.821 106.247C186.379 107.005 185.605 107.416 184.784 107.416C184.389 107.416 183.979 107.321 183.616 107.1C182.495 106.453 182.116 105.016 182.763 103.895ZM219.174 121.168L207.047 128.179C206.684 128.384 206.274 128.495 205.879 128.495C205.074 128.495 204.284 128.068 203.842 127.326C203.195 126.205 203.574 124.768 204.695 124.121L216.821 117.111C217.942 116.463 219.379 116.842 220.026 117.963C220.674 119.084 220.295 120.521 219.174 121.168ZM229.942 154.942C229.942 156.237 228.9 157.279 227.605 157.279H213.6C212.305 157.279 211.263 156.237 211.263 154.942C211.263 153.647 212.305 152.605 213.6 152.605H227.605C228.9 152.605 229.942 153.647 229.942 154.942ZM118.168 94.1053C117.521 92.9842 117.9 91.5474 119.021 90.9C120.142 90.2526 121.579 90.6316 122.226 91.7526L129.237 103.879C129.884 105 129.505 106.437 128.384 107.084C128.021 107.289 127.61 107.4 127.216 107.4C126.41 107.4 125.621 106.974 125.179 106.232L118.168 94.1053ZM108.158 127.326C107.732 128.084 106.942 128.495 106.121 128.495C105.726 128.495 105.316 128.4 104.953 128.179L92.8263 121.168C91.7052 120.521 91.3263 119.084 91.9737 117.963C92.621 116.842 94.0579 116.463 95.1789 117.111L107.305 124.121C108.41 124.768 108.805 126.205 108.158 127.326ZM100.753 154.942C100.753 156.237 99.7105 157.279 98.4158 157.279H84.3947C83.1 157.279 82.0579 156.237 82.0579 154.942C82.0579 153.647 83.1 152.605 84.3947 152.605H98.4C99.7105 152.605 100.753 153.647 100.753 154.942Z" fill="#DD6013"/>
</svg>
