<svg width="312" height="312" viewBox="0 0 312 312" fill="none" xmlns="http://www.w3.org/2000/svg">
<path d="M252.805 150.073L220.21 98.9622C219.142 97.2918 217.456 96.1134 215.521 95.6857C213.586 95.2581 211.56 95.616 209.888 96.681L193.887 106.891C192.4 107.843 191.298 109.29 190.775 110.976C190.252 112.663 190.342 114.479 191.03 116.105C190.122 116.137 189.169 116.126 188.173 116.074C185.278 115.883 182.462 115.043 179.935 113.617C177.107 111.953 173.859 111.141 170.581 111.277C165.588 111.941 160.792 113.655 156.509 116.307C151.993 110.098 144.269 112.012 137.381 113.724C131.826 115.102 126.108 116.521 120.834 115.015C121.616 113.371 121.771 111.497 121.27 109.746C120.77 107.996 119.647 106.488 118.113 105.506L102.112 95.2958C100.44 94.232 98.4144 93.8747 96.4796 94.3023C94.5448 94.7299 92.8584 95.9075 91.7902 97.577L59.195 148.676C58.1315 150.348 57.7743 152.374 58.2018 154.31C58.6293 156.245 59.8066 157.932 61.4755 159.001L77.4794 169.211C79.1503 170.277 81.1761 170.636 83.1113 170.208C85.0465 169.78 86.7326 168.601 87.7987 166.93L90.1775 163.203C90.5349 163.585 90.9145 163.945 91.3145 164.282C87.9015 168.042 84.7029 172.348 85.1876 177.989C85.2122 179.633 85.5972 181.252 86.3154 182.731C87.0337 184.21 88.0676 185.513 89.3444 186.549C92.0519 188.305 95.3297 188.955 98.5022 188.365C98.7828 191.379 100.112 194.198 102.257 196.332C104.989 198.683 108.503 199.925 112.105 199.813C112.676 202.466 114.209 204.813 116.409 206.4C118.09 207.405 119.952 208.069 121.89 208.353C123.827 208.638 125.802 208.537 127.7 208.058C128.536 210.456 130.137 212.513 132.257 213.912C134.377 215.31 136.898 215.973 139.431 215.797C139.632 215.797 139.838 215.797 140.041 215.797C143.168 215.699 146.295 213.268 148.591 210.962C155.214 215.576 160.934 217.888 165.672 217.888C167.055 217.899 168.431 217.679 169.741 217.236C171.586 216.525 173.248 215.413 174.608 213.978C175.968 212.544 176.992 210.824 177.604 208.945C179.276 209.634 181.07 209.978 182.879 209.958C184.688 209.938 186.474 209.554 188.131 208.828C189.868 207.822 191.378 206.467 192.567 204.849C193.756 203.232 194.597 201.385 195.039 199.427C198.342 200.034 201.751 199.311 204.523 197.416C206.962 195.403 208.533 192.53 208.912 189.391C211.355 189.811 213.861 189.676 216.244 188.994C218.628 188.313 220.827 187.103 222.678 185.454C222.822 185.321 222.949 185.171 223.055 185.007C224.264 183.424 225.136 181.609 225.617 179.676C226.097 177.743 226.178 175.732 225.852 173.767C225.241 171.172 223.902 168.807 221.992 166.948C222.296 166.722 222.586 166.478 222.861 166.217L224.201 168.317C225.269 169.987 226.955 171.165 228.889 171.593C230.824 172.02 232.849 171.663 234.521 170.598L250.525 160.388C252.191 159.32 253.367 157.634 253.794 155.701C254.221 153.768 253.866 151.744 252.805 150.073ZM83.7715 164.358C83.3861 164.958 82.7794 165.381 82.0836 165.535C81.3878 165.689 80.6593 165.561 80.057 165.18L64.0554 154.97C63.4532 154.585 63.0283 153.977 62.8742 153.279C62.7201 152.581 62.8493 151.85 63.2334 151.248L95.8197 100.144C96.0087 99.8442 96.2553 99.5848 96.5453 99.3809C96.8352 99.177 97.1627 99.0327 97.5087 98.9562C97.8548 98.8798 98.2126 98.8727 98.5614 98.9355C98.9102 98.9982 99.2431 99.1296 99.5409 99.3219L115.545 109.532C116.144 109.92 116.566 110.528 116.72 111.225C116.874 111.921 116.747 112.651 116.367 113.255L83.7715 164.358ZM92.1722 182.692C91.4594 182.048 90.8924 181.258 90.5091 180.376C90.1258 179.495 89.9351 178.542 89.9497 177.58C89.5633 173.094 92.9629 169.481 96.5634 165.654C97.2603 164.912 97.9818 164.146 98.6586 163.386C99.3747 162.559 100.306 161.946 101.348 161.616C102.391 161.285 103.505 161.249 104.567 161.512C105.795 161.813 106.926 162.423 107.853 163.283C108.781 164.143 109.474 165.225 109.867 166.427C108.924 169.401 106.353 175.116 99.4024 183.385C98.2116 183.755 96.959 183.885 95.7176 183.766C94.4763 183.647 93.271 183.282 92.1722 182.692ZM103.117 186.399C110.796 177.239 113.557 170.759 114.537 167.504C115.963 166.011 117.777 164.946 119.775 164.428C121.773 163.91 123.875 163.96 125.846 164.573C127.12 165.116 128.184 166.057 128.878 167.255C129.573 168.453 129.861 169.844 129.699 171.22L112.811 195.039C110.192 195.269 107.585 194.492 105.52 192.865C103.914 191.101 103.053 188.784 103.117 186.399ZM119.119 202.472C118.42 201.929 117.836 201.253 117.4 200.483C116.965 199.713 116.686 198.864 116.581 197.986L133.467 174.18C137.541 173.465 140.644 174.093 142.254 175.967C143.932 177.931 144.008 181.412 142.478 185.55L132.65 197.487C130.367 200.262 128.759 202.215 128.011 203.122C123.974 203.98 120.984 203.759 119.119 202.472ZM139.891 211.011C138.168 211.278 136.407 210.898 134.948 209.944C133.489 208.99 132.434 207.529 131.986 205.843C132.73 204.95 134.052 203.337 136.355 200.537C138.658 197.738 141.674 194.076 145.473 189.464C149.27 190.559 151.504 192.172 152.04 194.277C152.487 195.988 151.189 200.057 147.85 204.519C144.7 208.712 141.459 210.962 139.882 211.009L139.891 211.011ZM219.249 182.1C217.661 183.372 215.789 184.241 213.793 184.633C211.796 185.024 209.735 184.926 207.784 184.348L176.96 163.518C176.435 163.163 175.79 163.03 175.168 163.15C174.545 163.27 173.995 163.633 173.64 164.158C173.285 164.684 173.152 165.329 173.272 165.951C173.392 166.574 173.755 167.124 174.28 167.479L204.309 187.78C204.267 188.879 204.008 189.958 203.548 190.957C203.089 191.956 202.436 192.854 201.628 193.6C200.517 194.248 199.284 194.659 198.006 194.807C196.728 194.955 195.434 194.837 194.204 194.46L170.414 178.932C169.882 178.586 169.236 178.465 168.615 178.595C167.995 178.726 167.452 179.098 167.106 179.629C166.759 180.16 166.638 180.807 166.769 181.428C166.9 182.049 167.271 182.592 167.802 182.938L190.538 197.78C190.282 199.159 189.746 200.47 188.965 201.635C188.184 202.799 187.173 203.792 185.995 204.552C183.887 205.6 180.967 205.316 177.318 203.714L163.291 193.741C163.035 193.555 162.745 193.422 162.438 193.349C162.13 193.276 161.812 193.265 161.5 193.316C161.188 193.367 160.89 193.479 160.622 193.646C160.354 193.813 160.121 194.032 159.938 194.29C159.755 194.547 159.625 194.838 159.555 195.147C159.485 195.455 159.477 195.774 159.532 196.085C159.586 196.396 159.701 196.694 159.871 196.96C160.041 197.227 160.262 197.457 160.521 197.637L173.322 206.739C172.97 208.059 172.326 209.282 171.436 210.317C170.547 211.353 169.435 212.174 168.184 212.72C164.434 214.014 158.765 212.144 151.727 207.316C153.291 205.209 158.019 198.285 156.663 193.077C155.719 189.438 152.69 186.774 147.653 185.137C149.027 180.132 148.428 175.842 145.895 172.877C143.42 169.973 139.391 168.722 134.374 169.236C134.215 167.236 133.496 165.323 132.301 163.713C131.105 162.103 129.481 160.863 127.613 160.133C125.207 159.32 122.64 159.099 120.13 159.488C117.62 159.877 115.24 160.864 113.193 162.368C112.362 160.994 111.267 159.799 109.97 158.853C108.674 157.906 107.202 157.228 105.641 156.856C103.745 156.403 101.762 156.476 99.9041 157.066C98.0465 157.657 96.3849 158.743 95.0982 160.207C94.9329 160.392 94.7587 160.58 94.5889 160.766C93.9437 160.249 93.3658 159.654 92.869 158.994L118.252 119.2C125.136 121.689 132.225 119.93 138.542 118.362C145.703 116.575 149.934 115.732 152.498 118.925C138.803 129.504 130.135 142.385 131.247 150.736C131.366 152.074 131.858 153.351 132.667 154.423C133.475 155.495 134.568 156.318 135.822 156.8C142.388 159.34 154.282 153.75 169.326 141.064C169.549 140.876 171.821 139.406 182.783 145.678C189.967 149.787 198.24 155.685 204.896 160.424C208.872 163.255 212.305 165.701 214.668 167.173C218.443 169.564 220.639 172.115 221.195 174.754C221.379 176.047 221.3 177.363 220.964 178.625C220.629 179.887 220.042 181.068 219.24 182.098L219.249 182.1ZM218.115 163.735C217.817 163.532 217.509 163.33 217.19 163.127C214.936 161.724 211.561 159.329 207.65 156.532C187.968 142.505 172.419 132.192 166.23 137.413C150.621 150.595 141.021 153.685 137.541 152.343C137.085 152.172 136.692 151.867 136.413 151.468C136.133 151.069 135.982 150.595 135.978 150.108C135.605 147.304 137.273 142.818 140.445 138.108C144.972 131.685 150.562 126.081 156.974 121.539C169.96 114.05 173.279 115.672 177.849 117.913C180.95 119.628 184.393 120.632 187.93 120.851C189.897 120.971 191.871 120.915 193.829 120.683L220.185 162.017C219.684 162.788 218.958 163.386 218.106 163.733L218.115 163.735ZM247.963 156.362L231.943 166.577C231.339 166.958 230.61 167.086 229.912 166.932C229.215 166.778 228.607 166.355 228.22 165.755L195.633 114.644C195.249 114.042 195.12 113.311 195.274 112.613C195.428 111.915 195.853 111.307 196.455 110.922L212.459 100.709C213.063 100.329 213.792 100.202 214.489 100.356C215.186 100.511 215.794 100.934 216.18 101.534L248.776 152.649C249.158 153.251 249.287 153.981 249.133 154.677C248.979 155.374 248.555 155.982 247.954 156.366L247.963 156.362ZM105.337 112.432L104.808 113.25C104.637 113.514 104.417 113.742 104.158 113.921C103.9 114.1 103.608 114.226 103.301 114.292C102.994 114.358 102.677 114.363 102.368 114.307C102.059 114.25 101.764 114.133 101.5 113.963C101.236 113.792 101.008 113.572 100.829 113.313C100.651 113.054 100.525 112.763 100.458 112.456C100.392 112.149 100.387 111.831 100.444 111.522C100.5 111.213 100.617 110.918 100.787 110.654L101.317 109.836C101.661 109.303 102.203 108.928 102.823 108.795C103.443 108.661 104.091 108.779 104.625 109.123C105.158 109.468 105.532 110.01 105.666 110.63C105.8 111.251 105.681 111.899 105.337 112.432ZM210.353 110.645C210.523 110.909 210.64 111.204 210.697 111.513C210.753 111.823 210.748 112.14 210.682 112.447C210.616 112.754 210.49 113.046 210.311 113.304C210.132 113.563 209.904 113.783 209.64 113.954C209.376 114.124 209.081 114.241 208.772 114.298C208.463 114.354 208.146 114.349 207.839 114.283C207.532 114.217 207.24 114.091 206.982 113.912C206.724 113.733 206.503 113.505 206.332 113.241L205.81 112.432C205.466 111.899 205.347 111.251 205.481 110.63C205.615 110.01 205.989 109.468 206.522 109.123C207.055 108.779 207.703 108.661 208.324 108.795C208.944 108.928 209.486 109.303 209.83 109.836L210.353 110.645ZM96.8091 125.932L82.237 148.955C81.8973 149.491 81.3587 149.87 80.7398 150.008C80.1209 150.147 79.4724 150.034 78.9369 149.694C78.4013 149.354 78.0227 148.815 77.8843 148.196C77.7458 147.577 77.8589 146.928 78.1986 146.393L92.7596 123.38C93.0979 122.843 93.6356 122.462 94.2545 122.322C94.8734 122.181 95.5228 122.292 96.0598 122.631C96.5968 122.969 96.9774 123.507 97.1179 124.126C97.2585 124.745 97.1474 125.394 96.8091 125.932ZM230.485 142.32C230.653 142.585 230.767 142.881 230.82 143.19C230.874 143.499 230.866 143.816 230.797 144.122C230.728 144.429 230.6 144.718 230.419 144.975C230.238 145.231 230.008 145.45 229.743 145.617C229.362 145.861 228.919 145.989 228.468 145.988C228.066 145.986 227.671 145.883 227.319 145.688C226.968 145.492 226.671 145.212 226.457 144.871L211.896 121.859C211.573 121.323 211.473 120.683 211.616 120.074C211.76 119.465 212.136 118.937 212.664 118.603C213.193 118.268 213.831 118.154 214.442 118.285C215.054 118.416 215.589 118.781 215.935 119.303L230.485 142.32Z" fill="#3D3D3D"/>
</svg>
