<svg width="312" height="312" viewBox="0 0 312 312" fill="none" xmlns="http://www.w3.org/2000/svg">
<path d="M293.893 223.564H219.574V210.361C219.574 209.074 218.53 208.032 217.244 208.032H180.744V194.83C180.744 193.542 179.701 192.5 178.415 192.5H141.915V179.298C141.915 178.01 140.871 176.968 139.585 176.968H126.383V135.032H148.904V140.468C148.904 141.755 149.948 142.798 151.234 142.798H186.181C187.04 142.798 187.83 142.324 188.234 141.568C188.641 140.81 188.594 139.89 188.119 139.176L181.215 128.819L188.119 118.462C188.596 117.748 188.641 116.828 188.234 116.07C187.829 115.314 187.038 114.84 186.181 114.84H161.33V101.638C161.33 100.35 160.286 99.3083 159 99.3083H128.663C129.672 97.7365 130.266 95.8742 130.266 93.8721C130.266 88.3055 125.737 83.7764 120.17 83.7764C114.603 83.7764 110.074 88.3055 110.074 93.8721C110.074 97.095 111.598 99.9637 113.957 101.814V176.968H100.755C99.469 176.968 98.4253 178.01 98.4253 179.298V223.564H17.1062C15.8201 223.564 14.7764 224.606 14.7764 225.893C14.7764 227.181 15.8201 228.223 17.1062 228.223H100.755H217.244H293.893C295.179 228.223 296.223 227.181 296.223 225.893C296.223 224.606 295.179 223.564 293.893 223.564ZM181.827 119.5L176.476 127.527C175.954 128.309 175.954 129.328 176.476 130.111L181.827 138.138H153.564V135.032H159C160.286 135.032 161.33 133.989 161.33 132.702V119.5H181.827ZM156.67 117.17V130.372H151.234H126.383V103.968H156.67V117.17ZM120.17 88.4359C123.168 88.4359 125.606 90.8745 125.606 93.8721C125.606 96.8698 123.168 99.3083 120.17 99.3083C117.172 99.3083 114.734 96.8698 114.734 93.8721C114.734 90.8745 117.172 88.4359 120.17 88.4359ZM118.617 103.968H121.723V132.702V176.968H118.617V103.968ZM103.085 223.564V181.627H116.287H124.053H137.255V194.83C137.255 196.117 138.299 197.159 139.585 197.159H176.085V210.361C176.085 211.649 177.129 212.691 178.415 212.691H214.915V223.564H103.085ZM141.231 150.47C141.666 150.905 141.915 151.511 141.915 152.117C141.915 152.723 141.666 153.328 141.231 153.763C140.796 154.198 140.191 154.447 139.585 154.447C138.964 154.447 138.373 154.198 137.937 153.763C137.504 153.328 137.255 152.723 137.255 152.117C137.255 151.511 137.504 150.905 137.937 150.47C138.808 149.601 140.361 149.601 141.231 150.47ZM149.681 152.117C149.681 153.406 148.64 154.447 147.351 154.447C146.062 154.447 145.021 153.406 145.021 152.117C145.021 150.828 146.062 149.787 147.351 149.787C148.64 149.787 149.681 150.828 149.681 152.117ZM155.117 149.787C156.406 149.787 157.447 150.828 157.447 152.117C157.447 153.406 156.406 154.447 155.117 154.447C153.828 154.447 152.787 153.406 152.787 152.117C152.787 150.828 153.828 149.787 155.117 149.787ZM162.883 149.787C164.172 149.787 165.213 150.828 165.213 152.117C165.213 153.406 164.172 154.447 162.883 154.447C161.594 154.447 160.553 153.406 160.553 152.117C160.553 150.828 161.594 149.787 162.883 149.787ZM172.295 150.47C172.73 150.905 172.978 151.496 172.978 152.117C172.978 152.272 172.963 152.427 172.932 152.567C172.901 152.723 172.854 152.862 172.792 153.002C172.746 153.142 172.668 153.282 172.59 153.406C172.495 153.53 172.404 153.654 172.295 153.763C171.86 154.198 171.268 154.447 170.649 154.447C170.027 154.447 169.437 154.198 169.001 153.763C168.567 153.328 168.319 152.723 168.319 152.117C168.319 151.961 168.334 151.806 168.366 151.666C168.397 151.511 168.443 151.371 168.488 151.231C168.55 151.092 168.63 150.952 168.707 150.828C168.8 150.688 168.894 150.579 169.001 150.47C169.872 149.601 171.425 149.601 172.295 150.47ZM172.884 107.167C172.45 106.733 172.202 106.142 172.202 105.521C172.202 104.915 172.45 104.31 172.884 103.875C172.992 103.766 173.103 103.673 173.241 103.58C173.365 103.502 173.505 103.424 173.645 103.378C173.785 103.316 173.924 103.269 174.08 103.238C174.373 103.176 174.685 103.176 174.981 103.238C175.136 103.269 175.274 103.316 175.414 103.378C175.555 103.424 175.695 103.502 175.819 103.58C175.944 103.673 176.068 103.766 176.175 103.875C176.61 104.31 176.858 104.915 176.858 105.521C176.858 106.142 176.61 106.733 176.175 107.167C176.068 107.276 175.944 107.369 175.819 107.463C175.695 107.54 175.555 107.618 175.414 107.664C175.274 107.727 175.134 107.773 174.981 107.804C174.842 107.835 174.687 107.851 174.532 107.851C174.375 107.851 174.221 107.835 174.081 107.804C173.924 107.773 173.786 107.727 173.646 107.664C173.507 107.618 173.367 107.54 173.243 107.463C173.103 107.369 172.994 107.276 172.884 107.167ZM187.734 105.521C187.734 104.232 188.774 103.191 190.064 103.191C191.353 103.191 192.393 104.232 192.393 105.521C192.393 106.81 191.353 107.851 190.064 107.851C188.774 107.851 187.734 106.81 187.734 105.521ZM179.968 105.521C179.968 104.232 181.008 103.191 182.298 103.191C183.587 103.191 184.627 104.232 184.627 105.521C184.627 106.81 183.587 107.851 182.298 107.851C181.008 107.851 179.968 106.81 179.968 105.521ZM195.546 105.971C195.515 105.832 195.5 105.676 195.5 105.521C195.5 105.366 195.515 105.21 195.546 105.071C195.577 104.915 195.624 104.776 195.669 104.636C195.731 104.496 195.81 104.356 195.888 104.232C195.981 104.092 196.074 103.983 196.182 103.875C196.29 103.766 196.401 103.673 196.539 103.58C196.663 103.502 196.803 103.424 196.943 103.378C197.082 103.316 197.222 103.269 197.378 103.238C197.671 103.176 197.983 103.176 198.278 103.238C198.434 103.269 198.572 103.316 198.712 103.378C198.853 103.424 198.993 103.502 199.117 103.58C199.241 103.673 199.366 103.766 199.473 103.875C199.582 103.983 199.675 104.092 199.768 104.232C199.846 104.356 199.923 104.496 199.985 104.636C200.032 104.776 200.08 104.915 200.11 105.071C200.142 105.21 200.156 105.366 200.156 105.521C200.156 105.676 200.141 105.832 200.11 105.971C200.079 106.127 200.032 106.267 199.985 106.406C199.923 106.546 199.846 106.686 199.768 106.81C199.673 106.95 199.582 107.059 199.473 107.167C199.041 107.602 198.449 107.851 197.83 107.851C197.673 107.851 197.519 107.835 197.379 107.804C197.222 107.773 197.084 107.727 196.944 107.68C196.804 107.618 196.665 107.54 196.54 107.463C196.401 107.369 196.292 107.276 196.183 107.167C196.076 107.059 195.981 106.95 195.89 106.81C195.812 106.686 195.733 106.546 195.671 106.406C195.624 106.267 195.577 106.127 195.546 105.971Z" fill="#3D3D3D"/>
</svg>
