<svg width="312" height="312" viewBox="0 0 312 312" fill="none" xmlns="http://www.w3.org/2000/svg">
<path d="M151.5 76.0248C154.284 74.4171 157.715 74.4171 160.5 76.0248L223.05 112.138C225.835 113.746 227.55 116.717 227.55 119.932V192.159C227.55 195.375 225.835 198.346 223.05 199.953L160.5 236.067C157.715 237.674 154.284 237.674 151.5 236.067L88.9497 199.953C86.1651 198.346 84.4497 195.375 84.4497 192.159V119.932C84.4497 116.717 86.1651 113.746 88.9497 112.138L151.5 76.0248Z" fill="#3D3D3D"/>
<path fill-rule="evenodd" clip-rule="evenodd" d="M145.68 162.963C142.516 168.045 140.919 173.947 141.087 179.931C133.681 181.454 125.994 180.82 118.938 178.103C118.545 177.949 118.206 177.682 117.965 177.336C117.723 176.99 117.589 176.58 117.579 176.158C117.391 169.056 124.938 161.158 129.016 157.408C132.225 159.172 135.809 160.145 139.469 160.244H144.11C144.522 161.21 145.049 162.123 145.68 162.963ZM118.122 134.321C117.889 134.803 117.838 135.352 117.977 135.869C120.766 146.861 128.196 158.181 143.266 156.892C142.982 154.543 143.398 152.162 144.462 150.049C141.473 148.176 138.31 146.598 135.016 145.338C134.61 145.175 134.283 144.86 134.106 144.459C133.929 144.059 133.915 143.605 134.068 143.195C134.222 142.785 134.529 142.451 134.925 142.264C135.321 142.078 135.775 142.054 136.188 142.197C139.727 143.545 143.12 145.249 146.313 147.283C147.384 146.057 148.691 145.061 150.157 144.353C147.945 139.784 144.504 135.921 140.219 133.197C134.29 129.728 127.235 129.752 119.243 133.244C118.752 133.457 118.354 133.839 118.122 134.321ZM164.688 155.51C164.666 157.904 163.7 160.193 161.999 161.878C160.298 163.564 158.001 164.509 155.606 164.509C153.212 164.509 150.914 163.564 149.213 161.878C147.512 160.193 146.546 157.904 146.524 155.51C146.546 153.115 147.512 150.826 149.213 149.141C150.914 147.455 153.212 146.51 155.606 146.51C158.001 146.51 160.298 147.455 161.999 149.141C163.7 150.826 164.666 153.115 164.688 155.51ZM157.282 199.01C168.743 189.517 169.985 175.971 163.048 165.447C160.886 167.05 158.265 167.911 155.575 167.902C152.885 167.894 150.269 167.016 148.118 165.4C140.829 177.353 145.446 191.135 152.876 198.705C153.439 199.298 154.204 199.659 155.02 199.715C155.835 199.771 156.643 199.52 157.282 199.01ZM143.032 131.064C144.532 126.494 147.907 117.822 153.04 113.603C153.7 113.076 154.501 112.754 155.343 112.679C156.185 112.604 157.031 112.779 157.774 113.181C161.032 114.892 166.446 119.65 166.821 132.166C164.372 133.775 162.275 135.864 160.657 138.306L157.446 143.228C156.094 143.009 154.715 143.025 153.368 143.275C151.025 138.387 147.466 134.182 143.032 131.064ZM170.618 177.658C180.954 181.713 188.219 179.791 191.688 178.244C199.071 174.33 185.923 160.244 182.618 157.033C179.673 158.727 176.335 159.616 172.938 159.611H167.313C166.888 160.841 166.271 161.996 165.485 163.033C168.395 167.4 170.16 172.43 170.618 177.658ZM194.055 135.846C193.335 139.46 191.887 142.891 189.8 145.928C187.713 148.966 185.03 151.548 181.915 153.517C178.024 156.447 172.634 156.4 167.993 156.283C168.151 154.106 167.714 151.926 166.727 149.978C170.013 147.235 173.85 145.229 177.977 144.096C178.414 144.027 178.806 143.789 179.069 143.434C179.332 143.079 179.445 142.635 179.384 142.197C178.329 137.767 167.36 145.361 164.829 147.213C163.703 145.949 162.332 144.928 160.798 144.213C160.889 144.068 160.981 143.923 161.074 143.777L161.079 143.769C163.258 140.335 165.715 136.462 169.399 134.463C181.001 127.338 189.321 131.041 193.259 133.877C193.558 134.101 193.79 134.403 193.931 134.75C194.071 135.097 194.114 135.476 194.055 135.846ZM185.454 155.111C191.666 150.641 195.92 143.952 197.337 136.431C197.51 135.443 197.405 134.426 197.032 133.495C196.659 132.563 196.035 131.754 195.227 131.158C191.735 128.65 182.595 123.799 170.079 130.244C169.188 117.353 163.071 112.174 159.345 110.205C149.032 105.236 142.446 122.861 140.079 129.4C133.587 126.33 126.157 126.564 117.907 130.174C116.691 130.707 115.703 131.655 115.12 132.848C114.536 134.041 114.394 135.402 114.72 136.689C115.985 141.588 119.102 150.189 126.11 155.533C120.977 160.361 114.016 168.353 114.227 176.228C114.249 177.31 114.589 178.361 115.207 179.249C115.824 180.137 116.69 180.823 117.696 181.221C125.259 184.09 133.47 184.804 141.415 183.283C142.653 189.924 145.777 196.067 150.415 200.978C151.564 202.223 153.15 202.974 154.841 203.075C156.532 203.175 158.197 202.617 159.485 201.517C166.423 195.424 170.149 188.627 170.641 181.244C177.841 184.103 185.859 184.12 193.071 181.291C203.923 175.385 191.055 160.877 185.454 155.111Z" fill="#DBCAB6"/>
</svg>
