<svg width="312" height="312" viewBox="0 0 312 312" fill="none" xmlns="http://www.w3.org/2000/svg">
<g clip-path="url(#clip0_1889_29189)">
<path d="M143.742 129.492C144.726 130.463 145.455 131.663 145.864 132.983C146.273 134.304 146.349 135.705 146.086 137.062C142.008 133.758 138.539 131.414 138.375 131.297C138 131.055 137.546 130.969 137.108 131.056C136.671 131.144 136.284 131.398 136.031 131.766C135.79 132.137 135.703 132.588 135.791 133.022C135.879 133.456 136.133 133.838 136.5 134.086C136.547 134.109 140.063 136.477 144.117 139.781C143.064 140.636 141.847 141.266 140.541 141.633C139.235 141.999 137.868 142.095 136.523 141.914C132.164 141 128.227 135.844 125.109 127.008C129.188 126.281 139.125 125.344 143.742 129.492Z" fill="#3D3D3D"/>
<path d="M126.352 158.461H180.164V164.578H126.352V158.461Z" fill="#3D3D3D"/>
<path d="M160.523 135C159.879 132.648 159.768 130.182 160.198 127.782C160.628 125.382 161.588 123.107 163.008 121.125C168.961 113.508 182.367 112.57 187.219 112.477C185.484 127.758 181.242 137.227 174.914 139.922C170.156 141.961 165.094 139.758 162.469 138.234C164.816 133.811 168.202 130.023 172.336 127.195C172.522 127.077 172.683 126.923 172.81 126.742C172.937 126.561 173.026 126.357 173.074 126.142C173.122 125.926 173.127 125.704 173.089 125.486C173.051 125.269 172.97 125.061 172.851 124.875C172.733 124.689 172.579 124.528 172.398 124.401C172.218 124.274 172.014 124.185 171.798 124.137C171.583 124.089 171.36 124.084 171.142 124.122C170.925 124.16 170.717 124.241 170.531 124.359C166.448 127.121 163.03 130.756 160.523 135Z" fill="#3D3D3D"/>
<path d="M156 81C141.166 81 126.666 85.3987 114.332 93.6398C101.999 101.881 92.3856 113.594 86.7091 127.299C81.0325 141.003 79.5472 156.083 82.4411 170.632C85.335 185.18 92.4781 198.544 102.967 209.033C113.456 219.522 126.82 226.665 141.368 229.559C155.917 232.453 170.997 230.968 184.701 225.291C198.406 219.614 210.119 210.001 218.36 197.668C226.601 185.334 231 170.834 231 156C230.998 136.11 223.095 117.034 209.03 102.97C194.966 88.905 175.891 81.0025 156 81ZM180.164 155.109C181.051 155.117 181.899 155.473 182.525 156.1C183.152 156.726 183.508 157.574 183.516 158.461V164.578C183.507 165.462 183.15 166.307 182.523 166.93C181.896 167.553 181.048 167.904 180.164 167.906H131.461L136.594 196.758C136.734 197.533 137.141 198.234 137.745 198.74C138.349 199.245 139.111 199.522 139.898 199.523H166.758C167.545 199.522 168.308 199.245 168.911 198.74C169.515 198.234 169.923 197.533 170.063 196.758L174.047 174.422C174.085 174.206 174.165 173.999 174.282 173.814C174.4 173.629 174.553 173.468 174.733 173.342C174.913 173.217 175.116 173.127 175.33 173.08C175.544 173.033 175.766 173.028 175.982 173.067C176.198 173.106 176.404 173.186 176.589 173.305C176.774 173.424 176.933 173.577 177.058 173.758C177.183 173.938 177.272 174.141 177.318 174.356C177.364 174.57 177.368 174.792 177.328 175.008L173.344 197.344C173.076 198.895 172.267 200.301 171.062 201.313C169.857 202.325 168.332 202.879 166.758 202.875H139.898C138.324 202.879 136.8 202.326 135.594 201.313C134.389 200.301 133.581 198.895 133.313 197.344L128.063 167.906H126.352C125.466 167.908 124.617 167.558 123.988 166.935C123.36 166.311 123.005 165.463 123 164.578V158.461C123.004 157.573 123.358 156.723 123.986 156.095C124.614 155.468 125.464 155.113 126.352 155.109H152.695C153 153.703 153.469 151.828 154.102 149.719C151.944 146.875 149.476 144.28 146.742 141.984C144.295 144.059 141.229 145.263 138.023 145.406C137.3 145.405 136.578 145.334 135.867 145.195C129.867 143.953 124.992 137.602 121.336 126.281C121.232 125.956 121.229 125.606 121.33 125.279C121.431 124.952 121.629 124.664 121.898 124.453C122.859 123.68 136.664 121.125 144.164 125.672C147.281 127.547 150.656 131.437 149.156 139.312C149.133 139.406 149.086 139.5 149.063 139.57C151.313 141.509 153.413 143.617 155.344 145.875C156.15 143.592 157.097 141.361 158.18 139.195C158.133 139.078 158.063 138.961 158.016 138.844C155.625 130.758 156.422 124.102 160.359 119.062C168.75 108.352 188.32 109.102 189.141 109.148C189.369 109.159 189.593 109.217 189.799 109.318C190.004 109.419 190.187 109.56 190.336 109.734C190.486 109.902 190.599 110.099 190.668 110.313C190.736 110.527 190.759 110.753 190.734 110.977C188.977 128.883 184.102 139.664 176.203 143.016C174.482 143.737 172.632 144.104 170.766 144.094C167.291 143.994 163.901 143.001 160.922 141.211C159.565 144.017 158.429 146.924 157.523 149.906C156.914 151.922 156.469 153.68 156.141 155.109H180.164Z" fill="#3D3D3D"/>
</g>
<defs>
<clipPath id="clip0_1889_29189">
<rect width="150" height="150" fill="white" transform="translate(81 81)"/>
</clipPath>
</defs>
</svg>
