<svg width="312" height="312" viewBox="0 0 312 312" fill="none" xmlns="http://www.w3.org/2000/svg">
<path fill-rule="evenodd" clip-rule="evenodd" d="M160.5 76.0251C157.715 74.4174 154.284 74.4174 151.5 76.0251L88.9497 112.138C86.1651 113.746 84.4497 116.717 84.4497 119.933V192.159C84.4497 195.375 86.1651 198.346 88.9497 199.954L151.5 236.067C154.284 237.675 157.715 237.675 160.5 236.067L223.05 199.954C225.835 198.346 227.55 195.375 227.55 192.159V119.933C227.55 116.717 225.835 113.746 223.05 112.138L160.5 76.0251ZM141.087 179.932C140.919 173.947 142.516 168.046 145.68 162.963C145.049 162.123 144.522 161.21 144.11 160.244H139.469C135.809 160.145 132.225 159.173 129.016 157.408C124.938 161.158 117.391 169.057 117.579 176.158C117.589 176.58 117.723 176.99 117.965 177.336C118.206 177.682 118.545 177.949 118.938 178.104C125.994 180.82 133.681 181.454 141.087 179.932ZM117.977 135.869C117.838 135.353 117.889 134.803 118.122 134.321C118.354 133.839 118.752 133.457 119.243 133.244C127.235 129.752 134.29 129.729 140.219 133.197C144.504 135.921 147.945 139.784 150.157 144.354C148.691 145.061 147.384 146.058 146.313 147.283C143.12 145.249 139.727 143.545 136.188 142.197C135.775 142.054 135.321 142.078 134.925 142.265C134.529 142.451 134.222 142.785 134.068 143.195C133.915 143.606 133.929 144.059 134.106 144.46C134.283 144.86 134.61 145.175 135.016 145.338C138.31 146.599 141.473 148.176 144.462 150.049C143.398 152.163 142.982 154.544 143.266 156.893C128.196 158.182 120.766 146.861 117.977 135.869ZM161.999 161.879C163.7 160.193 164.666 157.904 164.688 155.51C164.666 153.115 163.7 150.827 161.999 149.141C160.298 147.456 158.001 146.51 155.606 146.51C153.212 146.51 150.914 147.456 149.213 149.141C147.512 150.827 146.546 153.115 146.524 155.51C146.546 157.904 147.512 160.193 149.213 161.879C150.914 163.564 153.212 164.51 155.606 164.51C158.001 164.51 160.298 163.564 161.999 161.879ZM163.048 165.447C169.985 175.971 168.743 189.518 157.282 199.01C156.643 199.52 155.835 199.772 155.02 199.715C154.204 199.659 153.439 199.298 152.876 198.705C145.446 191.135 140.829 177.354 148.118 165.401C150.269 167.016 152.885 167.894 155.575 167.903C158.265 167.911 160.886 167.05 163.048 165.447ZM153.04 113.604C147.907 117.822 144.532 126.494 143.032 131.065C147.466 134.183 151.025 138.387 153.368 143.276C154.715 143.026 156.094 143.01 157.446 143.229L160.657 138.307C162.275 135.864 164.372 133.775 166.821 132.166C166.446 119.651 161.032 114.893 157.774 113.182C157.031 112.779 156.185 112.604 155.343 112.679C154.501 112.754 153.7 113.076 153.04 113.604ZM191.688 178.244C188.219 179.791 180.954 181.713 170.618 177.658C170.16 172.43 168.395 167.401 165.485 163.033C166.271 161.996 166.888 160.841 167.313 159.611H172.938C176.335 159.616 179.673 158.727 182.618 157.033C185.923 160.244 199.071 174.33 191.688 178.244ZM189.8 145.929C191.887 142.891 193.335 139.46 194.055 135.846C194.114 135.476 194.071 135.098 193.931 134.751C193.79 134.404 193.558 134.102 193.259 133.877C189.321 131.041 181.001 127.338 169.399 134.463C165.715 136.462 163.258 140.335 161.079 143.769L161.074 143.778C160.981 143.924 160.889 144.069 160.798 144.213C162.332 144.928 163.703 145.949 164.829 147.213C167.36 145.361 178.329 137.768 179.384 142.197C179.445 142.635 179.332 143.079 179.069 143.434C178.806 143.789 178.414 144.027 177.977 144.096C173.85 145.23 170.013 147.236 166.727 149.979C167.714 151.926 168.151 154.106 167.993 156.283C172.634 156.401 178.024 156.447 181.915 153.518C185.03 151.549 187.713 148.967 189.8 145.929ZM197.337 136.432C195.92 143.953 191.666 150.641 185.454 155.111C191.055 160.877 203.923 175.385 193.071 181.291C185.859 184.12 177.841 184.104 170.641 181.244C170.149 188.627 166.423 195.424 159.485 201.518C158.197 202.617 156.532 203.176 154.841 203.075C153.15 202.975 151.564 202.223 150.415 200.979C145.777 196.067 142.653 189.924 141.415 183.283C133.47 184.805 125.259 184.091 117.696 181.221C116.69 180.824 115.824 180.138 115.207 179.249C114.589 178.361 114.249 177.31 114.227 176.229C114.016 168.354 120.977 160.361 126.11 155.533C119.102 150.19 115.985 141.588 114.72 136.69C114.394 135.402 114.536 134.041 115.12 132.848C115.703 131.655 116.691 130.708 117.907 130.174C126.157 126.565 133.587 126.33 140.079 129.401C142.446 122.861 149.032 105.236 159.345 110.205C163.071 112.174 169.188 117.354 170.079 130.244C182.595 123.799 191.735 128.651 195.227 131.158C196.035 131.754 196.659 132.563 197.032 133.495C197.405 134.427 197.51 135.444 197.337 136.432Z" fill="#3D3D3D"/>
</svg>
