<svg width="312" height="312" viewBox="0 0 312 312" fill="none" xmlns="http://www.w3.org/2000/svg">
<g clip-path="url(#clip0_1889_28968)">
<path d="M103.391 173.953C105.091 174.101 106.692 174.814 107.938 175.98C109.185 177.145 110.004 178.695 110.266 180.381C113.109 197.5 118.172 207.625 123.853 207.625H123.969C127.523 205.957 130.584 203.397 132.853 200.193C135.122 196.99 136.522 193.253 136.916 189.347C137.072 187.488 136.885 185.616 136.366 183.825C135.478 181.121 135.471 178.205 136.347 175.497C137.544 172.569 141.916 170.144 144.266 168.844L145.047 168.406C145.577 167.719 145.932 166.914 146.082 166.059C146.231 165.204 146.17 164.326 145.903 163.5C145.403 161.109 144.149 158.941 142.326 157.315C140.503 155.688 138.207 154.689 135.775 154.462C126.272 152.875 121.884 144.547 120.116 139.75C119.11 136.872 117.552 134.218 115.528 131.937C112.833 129.085 109.229 127.26 105.334 126.778C103.674 126.615 102.066 126.104 100.616 125.278C99.1656 124.452 97.9059 123.33 96.9188 121.984C94.8839 118.912 93.7504 115.331 93.6469 111.647C84.3931 124.584 79.424 140.094 79.4375 156C79.4448 159.118 79.641 162.233 80.025 165.328C84.8813 168.041 95.1969 173.294 103.391 173.953Z" fill="#3D3D3D"/>
<path d="M187.538 95.425C179.569 100.719 171.331 106.194 168.978 107.369C165.906 108.894 161.128 120.291 158.828 125.769C158.207 127.462 157.457 129.105 156.588 130.684C155.9 131.859 152.409 142.613 156.213 147C159.4 150.663 166.931 148.613 172.688 146.241C174.231 145.624 175.653 144.738 176.888 143.625C179.788 140.941 190.325 133.019 203.628 144.178C209.178 147.797 224.8 156.506 232.534 154.947C232.35 141.889 228.83 129.096 222.308 117.782C215.786 106.468 206.479 97.0098 195.272 90.3063C192.988 91.8063 190.331 93.5688 187.538 95.425Z" fill="#3D3D3D"/>
<path d="M192.522 203.397C188.727 207.251 183.924 209.958 178.662 211.209C165.612 214.469 158.903 226.05 156.084 232.559C169.164 232.539 182.02 229.168 193.426 222.768C204.833 216.368 214.41 207.152 221.244 196C207.269 189.803 195.831 199.963 192.522 203.397Z" fill="#3D3D3D"/>
<path d="M177.906 208.188C182.598 207.08 186.884 204.674 190.272 201.244C193.981 197.388 206.888 185.969 222.825 193.319C228.865 182.543 232.19 170.458 232.513 158.109C231.851 158.211 231.182 158.265 230.513 158.272C219.794 158.272 203.816 148.031 201.763 146.709C190.972 137.675 182.872 142.366 178.991 145.956C177.486 147.32 175.75 148.406 173.866 149.163C163.866 153.275 157.038 153.138 153.594 148.769C148.659 142.519 153.147 130.131 154.041 128.894C154.294 128.522 155.131 126.525 155.941 124.588C159.75 115.506 163.788 106.484 167.578 104.588C169.766 103.5 178.281 97.8375 185.803 92.8407C188.059 91.3407 190.253 89.8844 192.219 88.5875C176.58 80.1687 158.499 77.4578 141.079 80.9204C123.66 84.383 107.989 93.803 96.7594 107.563C96.274 111.936 97.2133 116.35 99.4375 120.147C100.175 121.15 101.118 121.985 102.203 122.595C103.288 123.206 104.491 123.578 105.731 123.688C110.356 124.269 114.634 126.442 117.831 129.834C120.127 132.409 121.899 135.407 123.047 138.659C124.584 142.838 128.359 150.044 136.281 151.381C139.337 151.735 142.205 153.04 144.48 155.111C146.754 157.182 148.321 159.916 148.959 162.925C149.408 164.364 149.427 165.902 149.015 167.351C148.603 168.801 147.778 170.099 146.641 171.088C146.431 171.213 146.134 171.381 145.769 171.581C144.206 172.456 140.009 174.772 139.228 176.684C138.623 178.81 138.686 181.07 139.406 183.159C140.019 185.324 140.217 187.584 139.991 189.822C139.528 194.326 137.879 198.627 135.211 202.286C132.544 205.944 128.953 208.829 124.806 210.647C124.673 210.695 124.535 210.724 124.394 210.734C124.194 210.734 123.997 210.756 123.803 210.756C113.663 210.756 109.041 192.138 107.172 180.897C107.023 179.901 106.546 178.983 105.815 178.289C105.085 177.595 104.143 177.166 103.141 177.069C95.2078 175.865 87.5666 173.202 80.6031 169.216C83.6348 186.386 92.4288 202.011 105.535 213.512C118.64 225.013 135.275 231.703 152.694 232.478C155.375 225.716 162.563 212.006 177.906 208.188Z" fill="#3D3D3D"/>
</g>
<defs>
<clipPath id="clip0_1889_28968">
<rect width="200" height="200" fill="white" transform="translate(56 56)"/>
</clipPath>
</defs>
</svg>
