<svg width="312" height="312" viewBox="0 0 312 312" fill="none" xmlns="http://www.w3.org/2000/svg">
<path d="M157.775 76.4883L219.497 99.8427C221.439 100.583 222.727 102.445 222.727 104.527V157.435C222.727 219.511 157.835 236.012 157.181 236.172C156.794 236.266 156.4 236.313 156 236.313C155.6 236.313 155.206 236.266 154.819 236.172C154.165 236.012 89.2732 219.511 89.2732 157.435V104.527C89.2732 102.445 90.561 100.583 92.5094 99.8427L154.232 76.4883C155.38 76.0612 156.627 76.0612 157.775 76.4883Z" fill="#3D3D3D"/>
<path d="M151.256 140.511C150.755 135.599 149.029 130.458 146.302 126.15C143.488 121.704 139.596 118.126 134.864 116.618L134.864 116.618L134.861 116.617C134.588 116.534 134.298 116.522 134.018 116.583L134.018 116.583C133.868 116.616 133.723 116.669 133.588 116.741L151.256 140.511ZM151.256 140.511C161.602 132.008 175.081 127.298 191.408 126.479C191.781 126.451 192.152 126.554 192.457 126.77C192.762 126.987 192.982 127.302 193.08 127.663C193.183 128.01 196.414 139.384 194.749 152.722C193.075 166.136 186.444 181.553 166.705 189.709C163.952 190.945 159.11 191.995 153.838 192.079C148.612 192.162 142.926 191.297 138.408 188.688C133.635 191.542 128.563 193.865 123.284 195.616C122.87 195.754 122.417 195.722 122.026 195.526L122.026 195.526C121.634 195.331 121.337 194.988 121.199 194.573L121.198 194.573C121.06 194.158 121.093 193.705 121.288 193.314L121.288 193.314C121.484 192.923 121.827 192.625 122.242 192.487L122.242 192.487C153.249 182.236 167.198 154.307 167.385 153.933L167.386 153.931L167.387 153.929C167.583 153.545 167.922 153.254 168.33 153.117C168.739 152.98 169.185 153.009 169.573 153.197L169.573 153.197C169.961 153.384 170.26 153.717 170.406 154.122L170.406 154.122C170.497 154.378 170.524 154.649 170.486 154.914C170.486 154.914 170.486 154.914 170.486 154.914L170.239 154.879L151.256 140.511ZM142.916 127.04L142.916 127.04L142.919 127.045C146.156 131.847 147.986 137.457 148.202 143.243C141.251 149.972 136.082 158.322 133.157 167.541C127.771 162.208 124.466 155.119 123.848 147.555C122.869 133.244 132.126 122.797 134.768 120.103C138.111 121.555 140.948 123.969 142.916 127.04ZM157.676 188.504C153.206 189.076 147.383 189.022 141.72 186.621L131.228 180.159C131.473 180.434 131.816 180.601 132.184 180.624L132.168 180.874C132.168 180.874 132.168 180.874 132.168 180.874C132.601 180.901 133.028 180.757 133.355 180.471C133.681 180.188 133.883 179.787 133.916 179.356C137.083 152.034 158.639 131.231 190.248 129.858C191.152 133.467 193.315 144.044 191.183 155.482C189.012 167.121 182.396 179.651 165.449 186.652L165.446 186.654C165.446 186.654 165.434 186.659 165.405 186.67C165.378 186.68 165.339 186.695 165.289 186.714C165.189 186.751 165.044 186.804 164.857 186.869C164.483 186.998 163.942 187.173 163.26 187.367C161.894 187.754 159.965 188.211 157.676 188.504Z" fill="#DBCAB6" stroke="#DBCAB6" stroke-width="0.5"/>
</svg>
