<svg width="312" height="312" viewBox="0 0 312 312" fill="none" xmlns="http://www.w3.org/2000/svg">
<path d="M202.187 113.034V107.873C202.183 106.356 201.58 104.903 200.507 103.831C199.435 102.759 197.982 102.156 196.466 102.152H186.297V91.5505C186.297 89.022 185.292 86.597 183.504 84.809C181.716 83.0211 179.291 82.0166 176.763 82.0166H135.538C133.01 82.0166 130.585 83.0211 128.797 84.809C127.009 86.597 126.004 89.022 126.004 91.5505V102.152H115.771C114.255 102.156 112.802 102.759 111.73 103.831C110.658 104.903 110.054 106.356 110.051 107.873V113.034C108.588 113.102 107.208 113.73 106.195 114.788C105.183 115.845 104.615 117.252 104.61 118.716V125.758C104.61 126.264 104.811 126.749 105.169 127.106C105.526 127.464 106.011 127.665 106.517 127.665H110.254L117.983 220.144C118.198 222.848 119.427 225.371 121.424 227.208C123.42 229.044 126.037 230.058 128.75 230.046H183.411C186.136 230.074 188.771 229.068 190.783 227.23C192.795 225.393 194.036 222.86 194.254 220.144L202.009 127.665H205.695C206.201 127.665 206.686 127.464 207.043 127.106C207.401 126.749 207.602 126.264 207.602 125.758V118.716C207.597 117.256 207.033 115.853 206.026 114.796C205.019 113.739 203.645 113.108 202.187 113.034ZM129.818 91.5505C129.821 90.0344 130.425 88.5814 131.497 87.5093C132.569 86.4373 134.022 85.8335 135.538 85.8302H176.699C178.215 85.8335 179.668 86.4373 180.741 87.5093C181.813 88.5814 182.416 90.0344 182.42 91.5505V102.152H129.818V91.5505ZM113.865 107.873C113.865 107.367 114.065 106.882 114.423 106.524C114.781 106.167 115.266 105.966 115.771 105.966H196.466C196.972 105.966 197.457 106.167 197.815 106.524C198.172 106.882 198.373 107.367 198.373 107.873V112.957H113.865V107.873ZM190.441 219.813C190.285 221.554 189.481 223.173 188.189 224.35C186.897 225.527 185.21 226.176 183.462 226.169H128.801C127.053 226.176 125.366 225.527 124.074 224.35C122.782 223.173 121.978 221.554 121.822 219.813L114.081 127.665H198.157L190.441 219.813ZM203.826 123.851H108.487V118.767C108.491 118.262 108.693 117.779 109.05 117.422C109.407 117.065 109.89 116.863 110.394 116.86H201.92C202.424 116.863 202.907 117.065 203.264 117.422C203.621 117.779 203.823 118.262 203.826 118.767V123.851Z" fill="#3D3D3D"/>
<path d="M154.199 182.021V200.403C154.199 200.908 154.4 201.393 154.758 201.751C155.115 202.108 155.6 202.309 156.106 202.309C156.612 202.309 157.097 202.108 157.454 201.751C157.812 201.393 158.013 200.908 158.013 200.403V182.021C174.805 180.153 183.996 170.504 185.356 153.178C185.375 152.904 185.335 152.63 185.239 152.373C185.142 152.116 184.992 151.883 184.798 151.689C184.604 151.495 184.371 151.345 184.114 151.249C183.857 151.153 183.583 151.113 183.309 151.131C168.996 152.186 159.932 158.606 156.119 170.186C152.305 158.606 143.242 152.199 128.992 151.119C128.718 151.1 128.443 151.14 128.187 151.236C127.93 151.332 127.697 151.482 127.503 151.676C127.309 151.87 127.159 152.104 127.062 152.36C126.966 152.617 126.926 152.892 126.945 153.165C128.242 170.492 137.42 180.153 154.199 182.021ZM181.263 155.161C179.559 168.928 172.009 176.479 158.242 178.182C159.932 164.415 167.559 156.864 181.263 155.161ZM153.996 178.182C140.229 176.479 132.678 168.928 130.975 155.161C144.742 156.864 152.305 164.415 153.996 178.182Z" fill="#789904"/>
</svg>
