<svg width="312" height="312" viewBox="0 0 312 312" fill="none" xmlns="http://www.w3.org/2000/svg">
<path d="M156.101 226.086V230.569C116.387 230.569 84.017 197.879 83.2928 157.396L80.2612 161.655C79.8401 162.258 79.1664 162.569 78.4928 162.569C78.038 162.569 77.6001 162.431 77.2128 162.138C76.2359 161.413 76.017 160 76.7412 159.017L83.8991 148.982C84.3201 148.396 85.0107 148.017 85.6843 148.069C86.3917 148.069 87.0486 148.431 87.4528 149.017L94.358 159.017C95.0485 160.034 94.8128 161.431 93.8359 162.138C92.8422 162.844 91.478 162.603 90.7875 161.603L87.6885 157.12C88.278 195.241 118.745 226.086 156.135 226.086H156.101ZM223.672 167.431C223.604 167.948 223.503 168.465 223.402 168.982L227.697 169.81C227.798 169.241 227.899 168.672 227.983 168.155C228.101 167.413 228.202 166.689 228.32 165.948L223.992 165.31C223.891 166 223.806 166.689 223.672 167.431ZM221.886 175.517C221.819 175.793 221.735 176.069 221.651 176.344L225.827 177.672C225.912 177.362 226.013 177.069 226.097 176.758L226.855 173.896L222.627 172.758L221.903 175.517H221.886ZM219.714 182.017C219.529 182.5 219.326 182.982 219.124 183.465L223.133 185.275C223.369 184.741 223.587 184.207 223.806 183.655C224.076 182.965 224.329 182.275 224.581 181.586L220.472 180.051C220.236 180.707 219.983 181.362 219.747 182.017H219.714ZM216.598 188.879C216.362 189.344 216.11 189.793 215.857 190.258L219.63 192.534C219.916 192.034 220.185 191.517 220.472 191C220.825 190.327 221.162 189.655 221.465 188.982L217.507 187.069C217.221 187.672 216.935 188.275 216.615 188.879H216.598ZM212.792 195.362L212.404 195.931C212.236 196.189 212.051 196.448 211.882 196.707L215.436 199.327C215.638 199.051 215.823 198.775 216.009 198.482L216.396 197.913C216.8 197.293 217.187 196.672 217.575 196.051L213.886 193.655C213.533 194.241 213.162 194.827 212.809 195.362H212.792ZM208.278 201.431C207.924 201.844 207.587 202.258 207.234 202.655L210.501 205.638C210.872 205.224 211.225 204.793 211.596 204.344C212.067 203.775 212.539 203.207 212.977 202.62L209.541 199.844C209.12 200.379 208.682 200.913 208.261 201.431H208.278ZM203.663 206.448L203.175 206.931C202.804 207.293 202.417 207.655 202.03 208L204.91 211.379C205.347 210.982 205.752 210.603 206.206 210.172L206.712 209.672C207.049 209.327 207.385 209 207.722 208.655L204.623 205.5C204.303 205.827 203.983 206.155 203.663 206.465V206.448ZM197.516 211.844C197.095 212.172 196.674 212.5 196.253 212.81L198.813 216.431C199.251 216.103 199.705 215.758 200.143 215.431C200.75 214.965 201.322 214.5 201.895 214.034L199.099 210.586C198.594 211.017 198.072 211.431 197.516 211.862V211.844ZM191.335 216.12C190.981 216.344 190.594 216.569 190.24 216.793L190.004 216.931L192.194 220.81L192.43 220.672C192.834 220.431 193.238 220.189 193.592 219.965C194.232 219.586 194.838 219.189 195.444 218.793L193.086 215.017C192.514 215.396 191.941 215.758 191.318 216.138L191.335 216.12ZM184.817 219.655C184.345 219.879 183.857 220.103 183.385 220.31L185.12 224.431C185.625 224.207 186.131 223.982 186.67 223.724C187.31 223.413 187.966 223.103 188.606 222.775L186.67 218.758C186.046 219.069 185.423 219.379 184.834 219.672L184.817 219.655ZM177.929 222.465C177.423 222.638 176.935 222.81 176.43 222.965L177.726 227.241C178.249 227.069 178.771 226.896 179.31 226.724C180 226.482 180.674 226.241 181.364 225.982L179.832 221.793C179.209 222.034 178.569 222.258 177.929 222.482V222.465ZM170.787 224.482C170.265 224.603 169.76 224.707 169.238 224.81L170.063 229.207C170.619 229.103 171.158 228.982 171.714 228.862C172.421 228.707 173.129 228.534 173.819 228.344L172.741 224C172.101 224.172 171.444 224.327 170.787 224.482ZM163.444 225.707C162.939 225.758 162.417 225.81 161.912 225.862L162.265 230.327C162.821 230.275 163.377 230.224 163.916 230.172C164.657 230.086 165.364 230 166.089 229.896L165.482 225.465C164.809 225.551 164.152 225.638 163.444 225.724V225.707ZM88.4464 145.224L88.8338 142.948L84.5391 142.12L84.118 144.534C84.0507 145.034 83.9664 145.534 83.9159 146.034L88.2612 146.534C88.3117 146.086 88.3791 145.638 88.4464 145.207V145.224ZM90.5854 135.586L86.4085 134.275L85.398 138.034L89.6254 139.172L90.5854 135.586ZM92.5391 129.913C92.7243 129.431 92.9096 128.948 93.1117 128.465L89.1033 126.672C88.8675 127.207 88.6654 127.741 88.4801 128.224C88.1938 128.931 87.9412 129.638 87.6885 130.344L91.798 131.862C92.017 131.224 92.2528 130.586 92.5222 129.913H92.5391ZM95.6549 123.051L96.4128 121.62L92.5728 119.465L91.798 120.931C91.4443 121.586 91.1243 122.241 90.8043 122.913L94.7117 124.931C95.0149 124.31 95.318 123.689 95.6549 123.069V123.051ZM99.4612 116.586L99.8654 116C100.034 115.741 100.202 115.5 100.387 115.241L96.8338 112.62C96.6317 112.896 96.4464 113.172 96.2612 113.448L95.857 114.034C95.4528 114.655 95.0654 115.258 94.678 115.896L98.3664 118.31C98.737 117.724 99.0907 117.138 99.4612 116.603V116.586ZM103.217 111.465C103.47 111.155 103.722 110.827 103.975 110.534C104.329 110.12 104.682 109.707 105.019 109.31L101.752 106.344C101.398 106.758 101.027 107.189 100.657 107.638C100.387 107.965 100.118 108.31 99.8485 108.638L99.3096 109.31L102.678 112.172L103.234 111.465H103.217ZM109.095 105.017C109.465 104.655 109.836 104.31 110.223 103.965L107.36 100.569C106.922 100.965 106.501 101.362 106.08 101.758C105.541 102.275 105.036 102.793 104.531 103.31L107.63 106.465C108.101 105.982 108.573 105.5 109.078 105.017H109.095ZM114.754 100.12C115.175 99.7927 115.596 99.4824 116.017 99.172L113.457 95.5341C113.002 95.8617 112.564 96.2065 112.11 96.5514C111.554 96.9996 110.981 97.4479 110.425 97.8962L113.154 101.396C113.693 100.948 114.249 100.517 114.771 100.103L114.754 100.12ZM120.884 95.8789L121.154 95.7065C121.524 95.4824 121.878 95.2755 122.249 95.0686L120.11 91.1548C119.705 91.3789 119.335 91.6203 118.931 91.8445L118.577 92.0686C117.987 92.4307 117.364 92.8272 116.792 93.2065L119.2 96.9479C119.739 96.5858 120.295 96.241 120.884 95.8789ZM127.47 92.3272C127.941 92.1031 128.43 91.8789 128.901 91.672L127.183 87.5514C126.678 87.7755 126.156 88.0169 125.667 88.241C124.977 88.5514 124.32 88.8789 123.68 89.2238L125.667 93.2065C126.24 92.8962 126.846 92.6031 127.486 92.31L127.47 92.3272ZM134.358 89.5341C134.863 89.3617 135.352 89.2065 135.857 89.0514L134.577 84.7755C134.038 84.9479 133.516 85.1203 132.977 85.2927C132.286 85.5341 131.613 85.7755 130.939 86.0341L132.421 90.241C133.078 89.9996 133.718 89.7583 134.358 89.5514V89.5341ZM141.499 87.5169C142.021 87.4134 142.526 87.2927 143.049 87.1893L142.24 82.7927C141.684 82.8962 141.145 83.0169 140.59 83.1376C139.865 83.2927 139.175 83.4651 138.484 83.6548L139.562 87.9996C140.202 87.8272 140.859 87.672 141.516 87.5341L141.499 87.5169ZM148.842 86.31C149.364 86.2583 149.87 86.2065 150.392 86.1548L150.038 81.6893C149.482 81.741 148.943 81.7927 148.387 81.8445C147.646 81.9307 146.939 82.0169 146.215 82.1203L146.804 86.5514C147.478 86.4651 148.135 86.3789 148.825 86.2927L148.842 86.31ZM234.737 149.5C233.743 148.793 232.379 149.034 231.689 150.034L228.859 154.155C227.899 113.896 195.63 81.4307 156.084 81.4307H156.051L156.084 85.9134C193.373 85.9134 223.756 116.586 224.497 154.586L221.213 149.982C220.505 148.982 219.124 148.758 218.164 149.5C217.187 150.224 216.969 151.638 217.693 152.62L224.851 162.655C225.272 163.224 225.912 163.569 226.619 163.569H226.636C227.343 163.569 228 163.207 228.404 162.62L235.276 152.603C235.966 151.586 235.731 150.189 234.737 149.482V149.5ZM116.707 115.569C124.809 119.775 131.192 121.931 135.857 123.482C147.613 127.431 151.082 129.413 149.87 146.207L156.034 153.775L162.181 146.207C160.985 129.413 164.455 127.431 176.194 123.482C180.859 121.913 187.225 119.775 195.326 115.551C195.983 115.207 196.758 115.224 197.398 115.603C198.038 115.982 198.442 116.655 198.493 117.396C199.335 130.172 196.59 139.431 190.375 144.931C186.299 148.534 180.91 150.344 174.257 150.344C171.478 150.344 168.48 150.017 165.263 149.379L158.206 158.069V167.069C171.209 168.155 181.6 178.81 182.661 192.155H191.032C192.244 192.155 193.221 193.155 193.221 194.396C193.221 195.638 192.244 196.638 191.032 196.638H120.969C119.756 196.638 118.779 195.638 118.779 194.396C118.779 193.155 119.756 192.155 120.969 192.155H129.373C130.434 178.81 140.825 168.155 153.827 167.069V158.069L146.754 149.379C143.554 150.017 140.539 150.344 137.76 150.344C131.107 150.344 125.718 148.534 121.642 144.931C115.411 139.431 112.682 130.155 113.524 117.396C113.575 116.638 113.996 115.965 114.619 115.603C115.259 115.224 116.034 115.207 116.691 115.551L116.707 115.569ZM156.017 171.465C144.413 171.465 134.846 180.569 133.752 192.189H178.299C177.204 180.569 167.638 171.465 156.017 171.465ZM166.291 142C169.625 139.172 173.398 136.982 177.086 134.862C178.889 133.827 180.59 132.844 182.19 131.827C183.217 131.172 184.564 131.482 185.204 132.534C185.844 133.586 185.541 134.965 184.514 135.62C182.83 136.707 180.994 137.758 179.225 138.775C175.689 140.81 172.067 142.896 169.002 145.5C177.07 146.603 183.284 145.31 187.495 141.569C192.025 137.551 194.333 130.517 194.232 121.086C187.276 124.465 181.718 126.327 177.524 127.741C168.278 130.844 165.92 131.672 166.274 141.982L166.291 142ZM117.769 121.103C117.667 130.534 119.975 137.569 124.505 141.586C128.716 145.31 134.947 146.62 142.998 145.517C139.95 142.913 136.312 140.827 132.775 138.793C131.006 137.775 129.171 136.724 127.486 135.638C126.459 134.982 126.156 133.603 126.796 132.551C127.436 131.5 128.783 131.189 129.811 131.844C131.411 132.879 133.112 133.844 134.914 134.879C138.602 137 142.392 139.189 145.71 142.017C146.08 131.707 143.722 130.879 134.476 127.775C130.282 126.362 124.724 124.5 117.752 121.12L117.769 121.103Z" fill="#789904"/>
</svg>
