<svg width="32" height="32" viewBox="0 0 32 32" fill="none" xmlns="http://www.w3.org/2000/svg">
<g style="mix-blend-mode:multiply" clip-path="url(#clip0_33_695)">
<path d="M0.349196 18.1007L2.14874 14.7681L0.659218 13.9638C0.653934 13.961 0.651468 13.9589 0.651116 13.9589C0.649002 13.9525 0.649002 13.9342 0.657457 13.9191C0.662037 13.911 0.663798 13.9089 0.67789 13.9067L7.08656 12.8488C7.08938 12.8484 7.09078 12.8484 7.09114 12.8481C7.0929 12.8491 7.09713 12.8533 7.10171 12.8621L9.73901 18.7764C9.74606 18.7926 9.74571 18.8007 9.73796 18.8141C9.72633 18.8338 9.70766 18.8433 9.70273 18.8437C9.70202 18.8437 9.6992 18.843 9.69498 18.8405L8.21391 18.0319L4.13852 25.5865C3.97153 25.8962 3.84999 26.2281 3.77389 26.5702L3.37298 25.8994L3.30216 25.7814L0.411552 20.941C-0.114077 20.0648 -0.137681 19.0026 0.349196 18.1007ZM13.1683 30.267C13.1683 30.2769 13.1581 30.2871 13.1482 30.2871H7.63649C6.62399 30.2871 5.67877 29.7579 5.17005 28.9067L5.12707 28.8345C4.66662 28.0059 4.65675 26.9458 5.10769 26.1097L6.57044 23.3983H13.1486C13.1584 23.3983 13.1686 23.4086 13.1686 23.4184V30.267H13.1683Z" fill="#3D3D3D"/>
<path d="M22.8157 16.2447C22.7864 16.1901 22.7959 16.1383 22.804 16.1122C22.8139 16.0812 22.8361 16.0393 22.8868 16.0136L28.7371 13.0517L28.741 13.0496C28.8185 13.0098 28.9136 13.0411 28.9583 13.1214L31.6626 18.1235C32.1336 18.9945 32.11 20.0648 31.5999 20.9174H31.5992L31.5942 20.9251C31.0943 21.7594 30.1431 22.2981 29.168 22.2981L26.0871 22.2974L22.8153 16.2447H22.8157ZM26.8442 28.8856C26.3238 29.7628 25.4001 30.2867 24.3739 30.2867L20.5856 30.2846V31.9764C20.5856 31.9824 20.5849 31.9859 20.5853 31.9863C20.5807 31.9915 20.5641 32 20.5461 32C20.5359 32 20.5328 31.9989 20.5247 31.988L16.5543 26.846C16.5543 26.846 16.5528 26.8439 16.5525 26.8439C16.5525 26.8422 16.5539 26.8376 16.5588 26.8302L20.5162 21.7006C20.5271 21.6865 20.5335 21.6836 20.5486 21.684C20.5712 21.6851 20.5881 21.697 20.5905 21.7009C20.5905 21.7009 20.5916 21.7034 20.5916 21.7097L20.5831 23.3976C20.5831 23.3976 29.1665 23.3997 29.1683 23.3997C29.5196 23.3997 29.8683 23.3494 30.2048 23.2546L30.0758 23.4702L30.0607 23.4952L26.8438 28.8859L26.8442 28.8856Z" fill="#3D3D3D"/>
<path d="M22.8228 1.4036L24.7929 4.71497L26.2454 3.84406C26.2503 3.84124 26.2532 3.84018 26.2535 3.83983C26.2605 3.84089 26.2775 3.85075 26.2873 3.86731C26.2933 3.87718 26.2944 3.88211 26.2873 3.89902L23.9079 9.92916C23.9051 9.93656 23.9026 9.93938 23.9026 9.93973C23.9019 9.93973 23.8977 9.94114 23.8896 9.94044L17.457 9.17064C17.4418 9.16888 17.4369 9.16571 17.4298 9.15408C17.42 9.13752 17.4182 9.11744 17.42 9.10898C17.4207 9.10828 17.4221 9.10758 17.4238 9.10652L18.8799 8.24195L14.4536 0.817712C14.2739 0.51543 14.0513 0.24098 13.7969 0H20.3497C21.371 0 22.2958 0.525295 22.8225 1.4036H22.8228ZM5.73457 6.26549L8.6442 1.38141C9.15398 0.52917 10.0862 0 11.0768 0C12.0545 0 13.0085 0.541853 13.5073 1.3807L13.6673 1.64952H13.6687C13.9555 2.12901 14.5804 3.17678 15.087 4.0262L11.5577 9.94114C11.5271 9.99223 11.4802 10.0095 11.4548 10.0155C11.4253 10.0225 11.3802 10.0246 11.3351 9.9954L5.78354 6.4885C5.70956 6.44164 5.68806 6.34335 5.73422 6.26549H5.73457Z" fill="#3D3D3D"/>
</g>
<defs>
<clipPath id="clip0_33_695">
<rect width="32" height="32" fill="white"/>
</clipPath>
</defs>
</svg>
