<svg width="32" height="32" viewBox="0 0 32 32" fill="none" xmlns="http://www.w3.org/2000/svg">
<path d="M15.4746 0.00746346C13.6346 0.0674114 11.7546 0.453747 10.0546 1.13317C9.64128 1.29303 9.25461 1.49286 9.19461 1.56613C8.98794 1.81258 9.05461 2.07236 9.58128 3.11813C10.0813 4.12393 10.3079 4.42368 10.5413 4.42368C10.6079 4.42368 10.9613 4.30378 11.3279 4.15724C13.7213 3.19806 16.5946 3.01155 19.1346 3.65101C22.1946 4.42368 24.9346 6.37534 26.6746 9.0264C28.0479 11.1113 28.7413 13.416 28.7479 15.9138C28.7479 17.9987 28.3546 19.6706 27.4079 21.549C27.1279 22.1085 26.6813 22.8745 26.5613 23.0077C26.5479 23.0211 26.1679 22.668 25.7213 22.2284C25.2746 21.7821 24.8279 21.3825 24.7279 21.3492C24.6013 21.3025 24.4813 21.3025 24.3346 21.3558C23.9479 21.489 23.9413 21.5557 23.9413 24.7929C23.9413 27.8036 23.9613 28.0701 24.2079 28.2033C24.2879 28.2433 25.5613 28.2699 27.5013 28.2699C30.5879 28.2699 30.6813 28.2632 30.8079 28.1367C30.9013 28.0434 30.9413 27.9169 30.9413 27.7237C30.9413 27.4573 30.9079 27.4173 29.9346 26.4315L28.9279 25.419L29.3613 24.7596C30.5813 22.9278 31.4613 20.7097 31.8479 18.4783C31.9946 17.6324 32.0479 15.1878 31.9479 14.2752C31.3213 8.79326 28.0346 4.09729 23.1079 1.65938C20.7546 0.493713 18.1413 -0.0724678 15.4746 0.00746346Z" fill="#3D3D3D"/>
<path d="M1.255 3.83748C1.08167 3.9707 1.00167 4.26378 1.08167 4.47027C1.115 4.57685 1.58833 5.0964 2.12167 5.62928L3.095 6.60844L2.655 7.26121C1.26833 9.34609 0.388333 11.7241 0.075 14.2486C-0.025 15.0279 -0.025 16.9263 0.075 17.8122C0.661667 23.1876 4.015 27.9501 8.90833 30.3681C11.175 31.4871 13.4017 32 16.0083 32C18.2817 32 20.255 31.6137 22.275 30.7744C23.115 30.4214 23.1283 30.2415 22.4417 28.876C21.9617 27.9102 21.7283 27.6038 21.475 27.6038C21.4083 27.6038 21.055 27.7237 20.695 27.8635C18.255 28.8294 15.4617 29.0092 12.875 28.3698C11.0683 27.9235 9.295 27.0109 7.84167 25.792C4.90833 23.3274 3.26833 19.8571 3.26833 16.0936C3.26833 13.8156 3.795 11.8506 4.92167 9.88563C5.50833 8.85984 5.34167 8.8665 6.32833 9.839C7.14833 10.6516 7.195 10.6849 7.46167 10.6849C7.655 10.6849 7.78167 10.645 7.875 10.5517C8.00167 10.4252 8.00833 10.3319 8.00833 7.22125C8.00833 4.11058 8.00167 4.01733 7.875 3.89077C7.74833 3.76421 7.655 3.75755 4.555 3.75755C2.10833 3.75755 1.34167 3.77753 1.255 3.83748Z" fill="#3D3D3D"/>
<path d="M14.3812 7.06143C13.6212 7.20131 12.5479 7.57432 11.8079 7.96065C11.2212 8.26706 10.5012 8.73999 10.5546 8.77995C10.5612 8.79327 11.0079 9.00642 11.5412 9.25288C12.0746 9.506 12.5612 9.75245 12.6279 9.80574C12.7879 9.94562 12.7746 10.1854 12.5412 11.5509C12.4346 12.1904 12.3412 12.7366 12.3412 12.7632C12.3412 12.7965 12.6679 12.8165 13.0679 12.8165C13.4612 12.8165 13.8812 12.8498 13.9946 12.8898C14.1479 12.9431 14.3946 13.2161 14.9479 13.9555L15.6879 14.948H16.6812H17.6746V13.769V12.59L18.7079 11.5509L19.7412 10.5118V9.10634V7.70088L19.1879 7.50105C18.4946 7.24793 18.2012 7.168 17.5212 7.0481C16.8212 6.92821 15.0879 6.93487 14.3812 7.06143Z" fill="#3D3D3D"/>
<path d="M20.7416 9.5992V10.9114L19.7082 11.9505L18.6749 12.9896V14.2019C18.6749 15.5941 18.6216 15.8139 18.2749 15.9404C17.9882 16.0337 15.6349 16.0403 15.3549 15.9404C15.2016 15.8871 14.9549 15.614 14.4016 14.8747L13.6616 13.8822H12.7349C11.6616 13.8822 11.3749 13.8089 11.3016 13.5025C11.2616 13.3493 11.5949 10.9647 11.7149 10.5451C11.7349 10.4651 11.5016 10.3252 10.7416 9.96555C10.1882 9.69912 9.7149 9.48597 9.68156 9.48597C9.60156 9.48597 8.7549 10.4984 8.42823 10.9847C7.7949 11.9305 7.24156 13.3094 7.04156 14.4417C6.90823 15.221 6.90823 16.793 7.04823 17.579C7.1549 18.1785 7.48156 19.2909 7.60823 19.4774C7.66823 19.5573 7.78823 19.4641 8.2949 18.9379C8.6349 18.5848 8.9749 18.2651 9.0549 18.2251C9.1349 18.1785 9.34823 18.1452 9.52823 18.1452H9.8549L10.0749 17.7056C10.3816 17.0928 10.4282 17.0795 11.9949 17.0795C13.3216 17.0795 13.6282 17.1261 13.7482 17.3659C13.8949 17.6323 14.3416 19.0444 14.3416 19.2309C14.3416 19.3908 14.1482 20.2168 13.8682 21.3025C13.8216 21.4757 13.6616 21.7022 13.4082 21.9753L13.0149 22.3816L13.1882 23.5539L13.3682 24.7329L13.8016 24.8328C14.6282 25.0193 15.1082 25.0726 16.0082 25.0726C17.8949 25.0726 19.4682 24.6063 21.0282 23.5872C21.3082 23.4007 21.5416 23.2275 21.5416 23.2075C21.5416 23.1809 20.9016 22.9877 20.1282 22.7812C19.3482 22.5747 18.6282 22.3683 18.5282 22.3349C18.3082 22.2484 17.1416 20.5165 17.1416 20.2701C17.1416 20.1035 17.5949 18.6847 17.7349 18.4316C17.8549 18.2052 18.1682 18.1452 19.2216 18.1452H20.2149L20.9282 17.659C21.3216 17.3992 21.6949 17.1594 21.7616 17.1327C21.8482 17.0994 22.3416 17.266 23.3149 17.659C24.2149 18.0253 24.7682 18.2118 24.8082 18.1719C25.0482 17.9321 25.1549 15.614 24.9749 14.4817C24.6882 12.7299 23.8282 11.0446 22.5349 9.7191C21.9749 9.14626 20.9282 8.28699 20.7816 8.28699C20.7616 8.28699 20.7416 8.87982 20.7416 9.5992Z" fill="#3D3D3D"/>
<path d="M10.7083 18.6048C10.4483 19.1244 10.3683 19.171 9.80834 19.151L9.44168 19.1377L8.78834 19.8371L8.13501 20.5365L8.23501 20.7297C8.64168 21.5223 9.99501 22.9278 10.9417 23.5539C11.555 23.9536 12.2017 24.2999 12.255 24.2533C12.2683 24.2333 12.2217 23.8137 12.1483 23.3208C11.9417 21.9886 11.9283 22.0552 12.4683 21.509L12.9283 21.0427L13.1417 20.1502L13.3617 19.2576L13.1817 18.6981L13.0017 18.1452H11.975H10.9417L10.7083 18.6048Z" fill="#3D3D3D"/>
<path d="M21.1151 18.6981L20.3884 19.1777L19.4351 19.1976L18.4818 19.2176L18.3151 19.7172L18.1484 20.2101L18.5751 20.8296L18.9951 21.4424L20.7484 21.9153L22.5018 22.3949L22.7751 22.0952C23.2684 21.5423 23.8151 20.7163 24.1484 20.0436C24.3284 19.6772 24.4751 19.3309 24.4751 19.2776C24.4751 19.211 24.0818 19.0245 23.2551 18.6914C22.5884 18.4316 21.9951 18.2118 21.9418 18.2118C21.8884 18.2118 21.5151 18.4316 21.1151 18.6981Z" fill="#3D3D3D"/>
</svg>
