<svg width="80" height="80" viewBox="0 0 80 80" fill="none" xmlns="http://www.w3.org/2000/svg">
<path fill-rule="evenodd" clip-rule="evenodd" d="M40 80C62.0914 80 80 62.0914 80 40C80 17.9086 62.0914 0 40 0C17.9086 0 0 17.9086 0 40C0 62.0914 17.9086 80 40 80ZM44.3072 25.3423L42.1478 23.7259C40.8548 22.7581 39.145 22.7581 37.8521 23.7258L35.6927 25.3422C35.1021 25.7843 34.4804 26.0106 33.7438 26.0515L31.0507 26.2013C29.438 26.2911 28.1282 27.3901 27.7599 28.9626L27.1446 31.5889C26.9764 32.3072 26.6457 32.8801 26.1078 33.3849L24.1409 35.2309C22.9633 36.3363 22.6664 38.0201 23.395 39.4614L24.6118 41.8687C24.9446 42.5271 25.0595 43.1786 24.972 43.9111L24.6518 46.5894C24.4601 48.1932 25.315 49.6738 26.7997 50.3097L29.2794 51.3717C29.9575 51.6622 30.4643 52.0874 30.8681 52.7048L32.3445 54.9622C33.2285 56.3139 34.8351 56.8987 36.3811 56.4315L38.9631 55.6512C39.6693 55.4377 40.3309 55.4377 41.037 55.6512L43.619 56.4315C45.165 56.8987 46.7717 56.3139 47.6557 54.9622L49.1321 52.7048C49.5358 52.0874 50.0426 51.6622 50.7207 51.3717L53.2003 50.3098C54.685 49.6739 55.5399 48.1933 55.3482 46.5896L55.028 43.9112C54.9405 43.1787 55.0554 42.5273 55.3882 41.8689L56.605 39.4616C57.3336 38.0201 57.0367 36.3363 55.8591 35.2311L53.8922 33.3851C53.3543 32.8802 53.0235 32.3073 52.8553 31.5891L52.24 28.9628C51.8717 27.3901 50.5619 26.2912 48.9492 26.2015L46.2561 26.0517C45.5195 26.0107 44.8979 25.7844 44.3072 25.3423ZM36.279 38.3768L38.6224 40.7202L43.7222 35.5696C44.3259 34.9599 45.3107 34.9582 45.9186 35.5628C46.5265 36.1672 46.5284 37.1492 45.9254 37.7578C45.1555 38.5348 44.3875 39.3138 43.6196 40.0927C42.3247 41.406 41.0299 42.7193 39.7258 44.0235C39.1185 44.6309 38.1333 44.6308 37.5259 44.0235L34.079 40.5767C33.4716 39.9693 33.4716 38.9842 34.079 38.3768C34.6864 37.7694 35.6716 37.7694 36.279 38.3768ZM31.8085 31.6037C33.9048 29.5073 36.801 28.2106 39.9999 28.2106C43.1988 28.2106 46.095 29.5073 48.1914 31.6037C50.2878 33.7001 51.5845 36.5962 51.5845 39.7951C51.5845 42.9941 50.2878 45.8902 48.1914 47.9866C46.095 50.083 43.1988 51.3797 39.9999 51.3797C36.801 51.3797 33.9048 50.083 31.8085 47.9866C29.7121 45.8902 28.4154 42.9941 28.4154 39.7951C28.4154 36.5962 29.7121 33.7001 31.8085 31.6037ZM39.9999 29.3439C42.886 29.3439 45.4988 30.5138 47.3901 32.405C49.2813 34.2963 50.4511 36.9091 50.4511 39.7952C50.4511 42.6813 49.2813 45.2941 47.3901 47.1853C45.4988 49.0765 42.886 50.2463 39.9999 50.2463C37.1139 50.2463 34.5011 49.0765 32.6098 47.1853C30.7185 45.294 29.5487 42.6812 29.5487 39.7951C29.5487 36.9091 30.7185 34.2963 32.6098 32.405C34.5011 30.5138 37.1139 29.3439 39.9999 29.3439Z" fill="#3D3D3D"/>
</svg>
