<svg width="80" height="80" viewBox="0 0 80 80" fill="none" xmlns="http://www.w3.org/2000/svg">
<path fill-rule="evenodd" clip-rule="evenodd" d="M40 80C62.0914 80 80 62.0914 80 40C80 17.9086 62.0914 0 40 0C17.9086 0 0 17.9086 0 40C0 62.0914 17.9086 80 40 80ZM31.4662 24.2254C31.764 24.4858 31.8609 24.9087 31.7047 25.2732C29.1315 31.2772 30.779 34.5722 33.5082 40.0306L33.5089 40.0319C36.4431 45.9031 34.5731 53.7164 29.5086 56.7556C29.1688 56.9593 28.7376 56.9219 28.4379 56.6606C28.1401 56.4003 28.0433 55.9773 28.1995 55.6128C30.7728 49.6067 29.125 46.3116 26.3947 40.8519L26.3944 40.8513C23.4593 34.9829 25.3293 27.1697 30.3956 24.1304C30.7354 23.9267 31.1666 23.9641 31.4662 24.2254ZM41.5149 24.2254C41.8127 24.4858 41.9095 24.9087 41.7533 25.2732C39.1803 31.2769 40.8275 34.5719 43.5564 40.0307L43.5575 40.0328C46.4917 45.904 44.6217 53.7173 39.5572 56.7565C39.2174 56.9602 38.7862 56.9228 38.4866 56.6615C38.1888 56.4012 38.092 55.9782 38.2482 55.6137C40.8214 49.6076 39.1737 46.3125 36.4433 40.8528L36.4431 40.8523C33.5089 34.9838 35.3788 27.1697 40.4443 24.1304C40.7841 23.9267 41.2153 23.9641 41.5149 24.2254ZM53.6051 40.0307L53.6062 40.0328C56.5404 45.9031 54.6704 53.7173 49.6059 56.7565C49.2661 56.9602 48.8349 56.9228 48.5352 56.6615C48.2374 56.4012 48.1406 55.9782 48.2968 55.6137C50.8701 49.6076 49.2223 46.3125 46.492 40.8528L46.4917 40.8523C43.5575 34.9838 45.4275 27.1697 50.4929 24.1304C50.8327 23.9267 51.2639 23.9641 51.5635 24.2254C51.8613 24.4858 51.9582 24.9087 51.802 25.2732C49.2289 31.2769 50.8761 34.5719 53.6051 40.0307Z" fill="#3D3D3D"/>
</svg>
