<svg width="80" height="80" viewBox="0 0 80 80" fill="none" xmlns="http://www.w3.org/2000/svg">
<path fill-rule="evenodd" clip-rule="evenodd" d="M40 80C62.0914 80 80 62.0914 80 40C80 17.9086 62.0914 0 40 0C17.9086 0 0 17.9086 0 40C0 62.0914 17.9086 80 40 80ZM48.7478 28.7092C49.2841 28.7092 49.7519 29.0749 49.8838 29.5971C50.203 30.8619 51.8203 37.2475 52.8695 41.3902L52.8751 41.4122L53.7527 44.8775H26.2473L27.3808 40.3976L27.381 40.3968L27.4362 40.1784C28.4528 36.1601 29.7845 30.8964 30.1137 29.5962C30.2459 29.0744 30.7135 28.7092 31.2495 28.7092H34.5462V28.3168C34.5462 25.9365 36.4737 24 38.843 24H41.157C43.5262 24 45.4538 25.9365 45.4538 28.3168V28.7092H48.7478ZM36.8899 28.3168V28.7092H43.1101V28.3168C43.1101 27.2348 42.2339 26.3546 41.157 26.3546H38.843C37.7661 26.3546 36.8899 27.2348 36.8899 28.3168ZM43.2397 47.2321L39.1802 54.2959H46.7984L50.8579 47.2321H43.2397ZM28.8797 54.2959L32.9391 47.2321H40.5334L36.4738 54.2959H28.8797ZM21.1719 47.2321C20.5247 47.2321 20 47.7592 20 48.4094V53.1186C20 53.7687 20.5247 54.2959 21.1719 54.2959H26.1734L30.2328 47.2321H21.1719ZM53.5642 47.2321H58.8281C59.4753 47.2321 60 47.7591 60 48.4094V53.1186C60 53.7687 59.4753 54.2959 58.8281 54.2959H49.5047L53.5642 47.2321Z" fill="#3D3D3D"/>
</svg>
