<svg width="80" height="80" viewBox="0 0 80 80" fill="none" xmlns="http://www.w3.org/2000/svg">
<path fill-rule="evenodd" clip-rule="evenodd" d="M40 80C62.0914 80 80 62.0914 80 40C80 17.9086 62.0914 0 40 0C17.9086 0 0 17.9086 0 40C0 62.0914 17.9086 80 40 80ZM39.8725 36.7366C39.5141 36.7366 39.2236 37.0272 39.2236 37.3856V45.4325C39.2236 45.7018 38.8963 45.8347 38.7086 45.6417L38.0308 44.9451C33.108 39.8857 33.164 31.7085 38.1557 26.7169L39.6604 25.2121C39.7776 25.095 39.9675 25.095 40.0847 25.2121L41.5894 26.7169C46.581 31.7085 46.637 39.8857 41.7143 44.9451L41.0365 45.6417C40.8487 45.8347 40.5215 45.7018 40.5215 45.4325V37.3856C40.5215 37.0272 40.231 36.7366 39.8725 36.7366ZM30.9774 48.9696C30.7239 48.7162 30.7239 48.3053 30.9774 48.0519C31.2308 47.7985 31.6417 47.7985 31.8951 48.0519L37.4135 53.5703C37.6025 53.7593 37.9257 53.6255 37.9257 53.3582V52.7289C37.9257 45.5723 32.1034 39.75 24.9468 39.75H23.3C23.1343 39.75 23 39.8844 23 40.05V42.0213C23 49.1779 28.8223 55.0002 35.9788 55.0002H36.2837C36.5509 55.0002 36.6848 54.677 36.4958 54.488L30.9774 48.9696ZM41.8194 53.3582V52.7289C41.8194 45.5723 47.6416 39.75 54.7982 39.75H56.445C56.6107 39.75 56.745 39.8844 56.745 40.05V42.0213C56.745 49.1779 50.9227 55.0002 43.7662 55.0002H43.4614C43.1941 55.0002 43.0602 54.677 43.2492 54.488L48.7677 48.9696C49.0211 48.7162 49.0211 48.3053 48.7677 48.0518C48.5142 47.7984 48.1034 47.7984 47.8499 48.0518L42.3315 53.5703C42.1425 53.7593 41.8194 53.6254 41.8194 53.3582Z" fill="#3D3D3D"/>
</svg>
