<svg width="80" height="80" viewBox="0 0 80 80" fill="none" xmlns="http://www.w3.org/2000/svg">
<path fill-rule="evenodd" clip-rule="evenodd" d="M40 80C62.0914 80 80 62.0914 80 40C80 17.9086 62.0914 0 40 0C17.9086 0 0 17.9086 0 40C0 62.0914 17.9086 80 40 80ZM44.1569 34.0896L40.381 27.499C39.972 26.8337 39.028 26.8337 38.619 27.499L34.8431 34.0896C34.6858 34.3431 34.4655 34.5015 34.1824 34.5649L26.788 36.1808C26.0328 36.3709 25.7497 37.2898 26.2531 37.8601L31.2876 43.5318C31.4763 43.7536 31.5707 44.0388 31.5393 44.3239L30.7526 51.8967C30.6897 52.6572 31.4763 53.2275 32.1686 52.9107L39.091 49.8055C39.3427 49.6788 39.6573 49.6788 39.909 49.8055L46.8314 52.9107C47.5551 53.2275 48.3418 52.6572 48.2474 51.8967L47.4607 44.3239C47.4293 44.0388 47.5237 43.7536 47.7124 43.5318L52.7469 37.8601C53.2503 37.2581 52.9672 36.3392 52.212 36.1808L44.8176 34.5649C44.5344 34.5015 44.3142 34.3431 44.1569 34.0896Z" fill="#3D3D3D"/>
</svg>
