<svg width="80" height="43" viewBox="0 0 80 43" fill="none" xmlns="http://www.w3.org/2000/svg">
    <path fill-rule="evenodd" clip-rule="evenodd" d="M80.125 -188H0.125L0.125 40.7539C0.125 41.6198 1.15063 42.0764 1.79411 41.4971L39.4558 7.5886C39.8361 7.24615 40.4136 7.24615 40.794 7.5886L78.4559 41.4972C79.0994 42.0766 80.125 41.6199 80.125 40.754L80.125 -188Z" fill="#DD6013"/>
    <path fill-rule="evenodd" clip-rule="evenodd" d="M77.125 -183.822H4.125L4.125 29.8597C4.125 30.7176 5.13436 31.1772 5.7815 30.614L39.4491 1.31274C39.8338 0.977998 40.4086 0.986251 40.7835 1.3319L75.4471 33.2942C76.0878 33.8849 77.125 33.4305 77.125 32.559L77.125 -183.822Z" stroke="black" stroke-opacity="0.18" stroke-linecap="round" stroke-dasharray="0.5 3"/>
</svg>
